<svg width="127" height="17" viewBox="0 0 127 17" fill="none" xmlns="http://www.w3.org/2000/svg">
<path d="M16.1632 16.6757V0H20.1856V16.6757H16.1632ZM94.3548 10.4455C94.3548 6.41553 91.0436 3.91417 87.1684 3.91417C83.2686 3.91417 79.982 6.43869 79.982 10.4455C79.982 14.4755 83.2932 17 87.1684 17C91.0436 17 94.3548 14.4523 94.3548 10.4455ZM90.3814 10.4455C90.3814 12.5531 88.8853 13.7343 87.1439 13.7343C85.4025 13.7343 83.9063 12.5531 83.9063 10.4455C83.9063 8.31471 85.4025 7.17984 87.1439 7.17984C88.8853 7.17984 90.3814 8.31471 90.3814 10.4455ZM14.5444 11.8815C14.5444 10.0055 13.5143 8.56948 11.6748 7.92098C13.4162 7.01771 14.0294 5.83651 14.0294 4.44687C14.0294 2.01499 12.1653 0 7.99575 0.0231608H0V16.6989H8.33913C12.5332 16.6758 14.5444 14.7071 14.5444 11.8815ZM9.76168 4.93324C9.76168 6.06812 9.00135 6.71662 7.52974 6.71662H4.19409V3.24251H7.52974C8.87872 3.24251 9.76168 3.79837 9.76168 4.93324ZM10.1296 11.6267C10.1296 12.7153 9.3202 13.4332 7.82406 13.4332H4.19409V9.82016H7.82406C9.27115 9.82016 10.1296 10.515 10.1296 11.6267ZM49.5687 7.3188C48.465 5.14169 46.4048 3.93733 43.2899 3.93733C39.6109 3.93733 36.3243 6.11444 36.3243 10.4455C36.3243 14.6608 39.2184 17 43.2408 17C46.0614 17 48.4405 15.9346 49.5687 13.6417L46.3312 12.0668C45.7426 13.0858 44.8351 13.7343 43.388 13.7343C41.5239 13.7343 40.3221 12.4837 40.3221 10.4455C40.3221 8.40736 41.6956 7.17984 43.3635 7.17984C44.6634 7.17984 45.6445 7.73569 46.2576 8.94005L49.5687 7.3188ZM108.85 7.3188C107.746 5.14169 105.686 3.93733 102.571 3.93733C98.8922 3.93733 95.6056 6.11444 95.6056 10.4455C95.6056 14.6608 98.4998 17 102.522 17C105.343 17 107.722 15.9346 108.85 13.6417L105.613 12.0668C105.024 13.0858 104.116 13.7343 102.669 13.7343C100.805 13.7343 99.6035 12.4837 99.6035 10.4455C99.6035 8.40736 100.977 7.17984 102.645 7.17984C103.945 7.17984 104.926 7.73569 105.539 8.94005L108.85 7.3188ZM75.1257 16.6757L71.7655 11.0708H69.1902V16.6757H65.0452V0H72.5259C76.5728 0 79.3934 1.8297 79.3934 5.41962C79.3934 7.71253 78.1916 9.33379 76.0577 10.3297L79.933 16.6757H75.1257ZM69.2148 7.75886H72.3051C74.2182 7.75886 75.1502 6.73978 75.1502 5.53542C75.1502 4.09945 74.2673 3.31199 72.3051 3.31199H69.2148V7.75886ZM35.662 16.4673V13.8501C35.4903 13.8965 35.2451 13.9428 34.9753 13.9428C34.4602 13.9428 34.1904 13.688 34.1904 13.248V8.91689C34.1904 5.67439 31.8849 3.96049 28.0832 3.96049C25.606 3.96049 23.4967 4.81744 22.1723 5.92916L24.4042 8.29155C25.2872 7.55041 26.4645 7.08719 27.6172 7.08719C29.3832 7.08719 30.2171 7.92098 30.2171 9.28747V9.6812C29.3832 9.49591 28.3285 9.31063 27.0531 9.31063C23.8401 9.31063 21.7553 10.7698 21.7553 13.1785C21.7553 15.6567 23.4967 16.9537 26.1947 16.9537C28.0342 16.9537 29.6775 16.2357 30.5359 15.3093C31.051 16.5368 32.1792 16.861 33.2829 16.861C34.0433 16.8842 34.9262 16.7684 35.662 16.4673ZM30.2416 12.5531C30.2416 13.688 29.0888 14.4292 27.7644 14.4292C26.5135 14.4292 25.9003 13.827 25.9003 12.9932C25.9003 12.1131 26.5871 11.4646 27.9851 11.4646C28.8436 11.4646 29.6039 11.6035 30.2416 11.7425V12.5531ZM123.223 16.6757L118.489 8.91689L122.929 4.35422H118.465L113.78 9.26431V0.0231608H109.782V16.6989H113.78V13.688L115.693 11.7657L118.685 16.6989H123.223V16.6757ZM63.9905 16.6757L59.2568 8.91689L63.6962 4.35422H59.1833L54.5477 9.26431V0.0231608H50.5498V16.6989H54.5477V13.688L56.4608 11.7657L59.4531 16.6989H63.9905V16.6757ZM125.676 14.3597C126.509 14.3597 127 14.8461 127 15.5872C127 16.3283 126.509 16.8147 125.676 16.8147C124.842 16.8147 124.351 16.3283 124.351 15.5872C124.351 14.8461 124.842 14.3597 125.676 14.3597ZM125.676 16.6526C126.338 16.6526 126.779 16.282 126.779 15.5872C126.779 14.8924 126.313 14.5218 125.676 14.5218C125.013 14.5218 124.572 14.8924 124.572 15.5872C124.547 16.3052 125.013 16.6526 125.676 16.6526ZM125.16 14.9619H125.7C126.019 14.9619 126.191 15.124 126.191 15.3556C126.191 15.564 126.092 15.6798 125.921 15.7493L126.166 16.1894H125.921L125.7 15.7956H125.406V16.1894H125.16V14.9619ZM125.406 15.1471V15.5872H125.676C125.847 15.5872 125.945 15.5409 125.945 15.3787C125.945 15.2398 125.872 15.1703 125.7 15.1703H125.406V15.1471Z" fill="black"/>
</svg>
