<svg width="157" height="30" viewBox="0 0 157 30" fill="none" xmlns="http://www.w3.org/2000/svg">
<g clip-path="url(#clip0)">
<path d="M39.5349 28.0252H3.74121V14.5962H39.5349V28.0252Z" fill="black"/>
<path d="M39.5349 28.0252H3.74125V1.16714H39.5349V28.0252ZM2.59961 0V29.1923H40.6765V0H2.59961Z" fill="#AEB1B2"/>
<path d="M33.4106 10.7516C31.8929 10.7516 31.5706 9.29613 31.5706 7.88183C31.5706 6.52245 31.9601 5.23173 33.4106 5.23173C34.8612 5.23173 35.2507 6.52245 35.2507 7.88183C35.2507 9.29613 34.9283 10.7516 33.4106 10.7516ZM33.4106 4.17443C31.3423 4.17443 30.1603 5.82217 30.1603 7.88183C30.1603 10.0788 31.1945 11.7952 33.4106 11.7952C35.6267 11.7952 36.6609 10.0788 36.6609 7.88183C36.6609 5.82217 35.479 4.17443 33.4106 4.17443ZM26.1042 7.99168C26.0101 7.84064 26.0101 7.63467 26.1176 7.48363C26.225 7.29139 27.6622 4.53144 27.7159 4.43533C27.7696 4.33921 27.7427 4.27055 27.6487 4.27055H26.534C26.4668 4.25682 26.3996 4.29801 26.3728 4.35294C26.3459 4.42159 25.4863 6.15171 25.0565 7.00304C24.9894 7.14035 24.9357 7.14035 24.8685 7.00304C24.3313 5.89082 23.6597 4.46279 23.6194 4.3804C23.5791 4.29801 23.512 4.25682 23.4314 4.27055H22.1957C22.1017 4.27055 22.048 4.32548 22.1017 4.42159C22.1554 4.51771 23.7672 7.40124 23.8209 7.48363C23.9283 7.63467 23.9418 7.84064 23.8343 8.00541L22.0077 11.5343C21.9674 11.6167 22.0077 11.6716 22.0749 11.6716H23.2702C23.3374 11.6853 23.4045 11.6304 23.4314 11.5618C23.4717 11.4794 24.4521 9.48837 24.8551 8.6645C24.9088 8.55465 24.9894 8.55465 25.0431 8.6645C25.2714 9.13136 26.4265 11.4794 26.4668 11.5618C26.5071 11.6441 26.5474 11.6716 26.6011 11.6716H27.9039C27.9845 11.6716 28.0248 11.6304 27.9845 11.5343C27.9442 11.4382 26.1982 8.17018 26.1042 7.99168ZM15.7354 9.00778C15.7354 9.00778 16.2592 7.14035 16.3667 6.74215C16.5278 6.16544 16.6487 5.65739 16.7025 5.41023C16.7293 5.31412 16.7696 5.31412 16.7965 5.41023C16.8636 5.67112 16.9979 6.1929 17.1591 6.72842C17.374 7.48363 17.8172 8.99405 17.8172 8.99405L15.7354 9.00778ZM17.6695 4.33921C17.6561 4.29801 17.6158 4.27055 17.5755 4.28428H16.0309C15.9906 4.28428 15.9503 4.29801 15.9369 4.33921C15.9369 4.39413 13.7073 11.5068 13.6939 11.5618C13.6805 11.6167 13.7073 11.6716 13.7476 11.6853C13.7611 11.6853 13.7611 11.6853 13.7745 11.6853H14.9296C14.9833 11.6853 15.037 11.6441 15.0504 11.5892C15.0773 11.5206 15.5474 9.91403 15.5474 9.91403H18.0321C18.0321 9.91403 18.5425 11.5618 18.5559 11.6167C18.5694 11.6579 18.6097 11.6991 18.6499 11.6991H19.8722C19.9259 11.6991 19.9662 11.6716 19.9662 11.6167C19.9662 11.603 19.9662 11.5892 19.9662 11.5755C19.9528 11.4794 17.6829 4.3804 17.6695 4.33921ZM9.61088 7.37378C8.64384 6.98931 8.22748 6.72842 8.22748 6.15171C8.22748 5.72605 8.59012 5.25919 9.43627 5.25919C9.70489 5.25919 9.96008 5.27292 10.7794 5.49262C10.8331 5.50635 10.8868 5.47889 10.9003 5.42396C10.9137 5.36904 11.1286 4.58637 11.142 4.51771C11.1554 4.47652 11.1286 4.42159 11.0883 4.40786H11.0749C10.2556 4.17443 9.85263 4.14697 9.46313 4.14697C7.89171 4.14697 6.89781 5.06696 6.89781 6.28902C6.89781 7.36005 7.66338 8.00541 8.85874 8.4448C9.78548 8.78808 10.1481 9.11763 10.1481 9.6806C10.1481 10.2848 9.67803 10.6967 8.81845 10.6967C8.56326 10.6967 8.17376 10.683 7.17986 10.3809C7.12614 10.3672 7.07241 10.3946 7.05898 10.4358C7.04555 10.4907 6.79036 11.2734 6.77693 11.3421C6.7635 11.3833 6.79036 11.4382 6.83066 11.4519H6.84409C7.86484 11.7677 8.36179 11.8089 8.72443 11.8089C10.6048 11.8089 11.5046 10.7654 11.5046 9.57075C11.4912 8.49973 10.86 7.85437 9.61088 7.37378Z" fill="white"/>
<path d="M23.0277 23.6451L24.2097 22.2446C24.2365 22.2171 24.2097 22.1896 24.1828 22.1896H23.5918C23.5515 22.1896 23.5515 22.1896 23.5247 22.2308C23.4978 22.272 22.4905 23.4941 22.4636 23.5216C22.4368 23.549 22.4099 23.549 22.4099 23.4941V22.2308C22.4099 22.2171 22.4099 22.2034 22.3965 22.2034C22.383 22.1896 22.383 22.1896 22.3696 22.1896H21.8324C21.8189 22.1896 21.8055 22.1896 21.8055 22.2034C21.7921 22.2171 21.7921 22.2171 21.7921 22.2308V25.2654C21.7921 25.2791 21.7921 25.2929 21.8055 25.2929C21.8189 25.3066 21.8189 25.3066 21.8324 25.3066H22.3696C22.3965 25.3066 22.4099 25.2929 22.4099 25.2654V23.8099C22.4099 23.755 22.4368 23.7413 22.4636 23.7825C22.4905 23.8236 23.5381 25.2242 23.5515 25.2654C23.565 25.2929 23.5918 25.3066 23.6321 25.3066H24.2768C24.3171 25.3066 24.3171 25.2929 24.3037 25.2654L23.0277 23.6451ZM18.4881 23.4392C18.3672 23.5216 18.2329 23.5765 18.0851 23.5628H17.8031V22.6702H18.0986C18.2329 22.6565 18.3806 22.6977 18.4881 22.7664C18.5821 22.8487 18.6358 22.9723 18.6224 23.0959C18.6358 23.2332 18.5821 23.3568 18.4881 23.4392ZM19.1327 24.4004C19.0924 24.1669 18.9581 23.9472 18.7701 23.8236C19.0656 23.6863 19.2536 23.398 19.2536 23.0684C19.267 22.8213 19.1596 22.5878 18.985 22.4231C18.7701 22.2446 18.4746 22.1896 18.0448 22.1896H17.2121C17.1987 22.1896 17.1718 22.2171 17.1852 22.2308V25.2654C17.1852 25.2791 17.1852 25.2929 17.1987 25.2929C17.2121 25.3066 17.2121 25.3066 17.2255 25.3066H17.7628C17.7762 25.3066 17.7896 25.3066 17.7896 25.2929C17.8031 25.2791 17.8031 25.2791 17.8031 25.2654V24.0571H18.0314C18.1523 24.0433 18.2597 24.0845 18.3537 24.1669C18.4478 24.2768 18.5015 24.4141 18.5283 24.5514C18.5686 24.7986 18.6358 25.0457 18.7298 25.2791C18.7432 25.2929 18.7567 25.3066 18.7701 25.3066H19.3208C19.3342 25.3066 19.3476 25.2929 19.3611 25.2929C19.3611 25.2791 19.3611 25.2654 19.3611 25.2517C19.2671 24.9633 19.1865 24.6887 19.1327 24.4004ZM17.5479 17.6172H17.8165C17.9642 17.6035 18.112 17.6447 18.2329 17.727C18.3269 17.8094 18.3806 17.9467 18.3806 18.084C18.394 18.2351 18.3269 18.3724 18.2194 18.4685C18.0851 18.5646 17.9239 18.6196 17.7628 18.6058H17.5344L17.5479 17.6172ZM17.5344 20.2261C17.5479 20.2124 17.5479 20.2124 17.5479 20.1986V19.1139H17.7628C18.1523 19.1139 18.5149 19.0178 18.7298 18.7843C18.9178 18.5921 19.0119 18.3312 18.9984 18.0703C19.0119 17.7957 18.891 17.5485 18.6895 17.37C18.4881 17.2053 18.1926 17.1366 17.7896 17.1366H16.9703C16.9435 17.1366 16.9301 17.1503 16.9301 17.1778V20.2124C16.9301 20.2261 16.9301 20.2398 16.9435 20.2398C16.9569 20.2536 16.9569 20.2536 16.9703 20.2536H17.5076C17.521 20.2398 17.5344 20.2261 17.5344 20.2261ZM13.1828 24.1807L13.4649 23.2332C13.5051 23.1096 13.532 22.9723 13.5589 22.835C13.5589 22.8213 13.5723 22.8213 13.5723 22.835C13.5992 22.9586 13.6395 23.0959 13.6797 23.2332L13.9752 24.1669L13.1828 24.1807ZM13.9887 22.2171C13.9887 22.2034 13.9618 22.1896 13.9484 22.1896H13.2634C13.25 22.1896 13.2365 22.2034 13.2231 22.2171L12.2829 25.2517C12.2829 25.2654 12.2829 25.2791 12.2829 25.2929C12.2964 25.3066 12.3098 25.3066 12.3098 25.3066H12.8739C12.8873 25.3066 12.9007 25.2929 12.9142 25.2791L13.0888 24.7024H14.123L14.2841 25.2654C14.2841 25.2791 14.311 25.2929 14.3244 25.2929H14.902C14.9154 25.2929 14.9288 25.2929 14.9288 25.2791C14.9288 25.2654 14.9288 25.2517 14.9288 25.2379L13.9887 22.2171ZM30.2133 19.1276L30.4954 18.1802C30.5357 18.0566 30.5625 17.9193 30.5894 17.782C30.5894 17.7682 30.6028 17.7682 30.6028 17.782C30.6297 17.9055 30.67 18.0429 30.7103 18.1802L31.0058 19.1139L30.2133 19.1276ZM31.3147 20.2124C31.3147 20.2261 31.3415 20.2398 31.355 20.2398H31.9325C31.9459 20.2398 31.9594 20.2261 31.9594 20.2261C31.9594 20.2124 31.9594 20.1986 31.9594 20.1849L30.9923 17.1503C30.9923 17.1366 30.9655 17.1229 30.952 17.1229H30.2671C30.2536 17.1229 30.2402 17.1366 30.2268 17.1503L29.2866 20.1849C29.2732 20.2124 29.2866 20.2261 29.3134 20.2398H29.3269H29.891C29.9044 20.2398 29.9313 20.2261 29.9313 20.2124L30.1059 19.6357H31.1401L31.3147 20.2124ZM12.8336 18.1802C12.8739 18.0566 12.9007 17.9193 12.9276 17.782C12.9276 17.7682 12.941 17.7682 12.941 17.782C12.9679 17.9055 13.0082 18.0429 13.0485 18.1802L13.344 19.1139H12.5381L12.8336 18.1802ZM12.4307 19.6219H13.4649L13.6529 20.1986C13.6529 20.2124 13.6797 20.2261 13.6932 20.2261H14.2707C14.2841 20.2261 14.2976 20.2261 14.2976 20.2124C14.2976 20.1986 14.2976 20.1849 14.2976 20.1712L13.344 17.1503C13.344 17.1366 13.3171 17.1229 13.3037 17.1229H12.6187C12.6053 17.1229 12.5918 17.1366 12.5784 17.1503L11.6248 20.1849C11.6248 20.1986 11.6248 20.2124 11.6248 20.2261C11.6382 20.2398 11.6382 20.2398 11.6517 20.2398H12.2158C12.2292 20.2398 12.2561 20.2261 12.2561 20.2124L12.4307 19.6219ZM35.5992 23.4529C35.4514 23.398 35.3037 23.3293 35.1828 23.2332C35.1022 23.1783 35.0619 23.0822 35.0619 22.986C35.0619 22.835 35.1828 22.6702 35.5051 22.6565C35.7066 22.6565 35.8946 22.6977 36.0827 22.7938C36.0961 22.7938 36.1095 22.7938 36.123 22.7938C36.1364 22.7938 36.1364 22.7801 36.1498 22.7664L36.2841 22.327C36.2841 22.3132 36.2841 22.2858 36.2707 22.272C36.0424 22.1622 35.7872 22.1073 35.5454 22.121C35.2634 22.1073 34.9813 22.2034 34.753 22.3819C34.565 22.5467 34.4575 22.7801 34.4575 23.041C34.4575 23.2469 34.5381 23.4529 34.6859 23.6039C34.8605 23.7687 35.0619 23.8923 35.2903 23.961C35.438 24.0021 35.5589 24.0708 35.6798 24.1669C35.7469 24.2356 35.7872 24.318 35.7872 24.4278C35.7872 24.5377 35.7469 24.6338 35.6663 24.7024C35.5589 24.7848 35.4246 24.8123 35.2903 24.8123C35.0485 24.8123 34.8067 24.7436 34.5918 24.62C34.5784 24.62 34.565 24.62 34.5515 24.62C34.5381 24.62 34.5381 24.6338 34.5247 24.6475L34.4038 25.1006C34.4038 25.1144 34.4038 25.1418 34.4172 25.1418C34.6724 25.2791 34.9545 25.3478 35.2365 25.3341C35.5454 25.3615 35.8678 25.2517 36.1095 25.0594C36.2976 24.8947 36.405 24.6475 36.405 24.3866C36.405 24.1807 36.3379 23.9747 36.2036 23.8236C36.029 23.6726 35.8275 23.5353 35.5992 23.4529ZM28.2121 24.7574H27.0033V23.9472H27.9703C27.9972 23.9472 28.0106 23.9335 28.0106 23.906V23.4529C28.0106 23.4392 28.0106 23.4254 27.9972 23.4254C27.9838 23.4117 27.9838 23.4117 27.9703 23.4117H27.0033V22.7114H28.145C28.1584 22.7114 28.1718 22.7114 28.1718 22.6977C28.1852 22.684 28.1852 22.684 28.1852 22.6702V22.2171C28.1852 22.2034 28.1852 22.1896 28.1718 22.1896C28.1584 22.1759 28.1584 22.1759 28.145 22.1759H26.4124C26.3855 22.1759 26.3721 22.1896 26.3721 22.2171V25.2517C26.3721 25.2654 26.3721 25.2791 26.3855 25.2791C26.3989 25.2929 26.3989 25.2929 26.4124 25.2929H28.1987C28.2121 25.2929 28.2255 25.2929 28.2255 25.2791C28.239 25.2654 28.239 25.2654 28.239 25.2517V24.7986C28.239 24.7848 28.239 24.7711 28.2255 24.7711C28.2255 24.7574 28.2255 24.7574 28.2121 24.7574ZM9.94593 22.1759H9.23408C9.22065 22.1759 9.19379 22.1896 9.19379 22.2034L8.5491 24.0571C8.53567 24.0845 8.52224 24.0845 8.50881 24.0571C8.49538 24.0296 7.89098 22.2034 7.89098 22.2034C7.89098 22.1896 7.86412 22.1759 7.85069 22.1759H7.13884C7.11198 22.1759 7.09855 22.1896 7.09855 22.2171L6.89708 25.2517C6.89708 25.2654 6.89708 25.2791 6.91052 25.2791C6.92395 25.2929 6.92395 25.2929 6.93738 25.2929H7.44776C7.47462 25.2929 7.48805 25.2791 7.48805 25.2517L7.5552 24.0296C7.56864 23.7413 7.58207 23.398 7.5955 23.0822C7.5955 23.0547 7.60893 23.0547 7.60893 23.0822C7.71638 23.4804 8.22676 24.7848 8.22676 24.7848C8.22676 24.7986 8.25362 24.8123 8.26705 24.8123H8.68341C8.69684 24.8123 8.71027 24.7986 8.7237 24.7848C8.7237 24.7848 9.27437 23.4804 9.40868 23.0547C9.42212 23.0272 9.43555 23.0272 9.43555 23.0547C9.43555 23.3842 9.46241 23.7138 9.46241 24.0022L9.51613 25.2379C9.51613 25.2654 9.52956 25.2791 9.55643 25.2791H10.0937C10.1071 25.2791 10.1205 25.2791 10.1205 25.2654C10.134 25.2517 10.134 25.2517 10.134 25.2379L9.98622 22.2171C9.98622 22.2034 9.97279 22.1896 9.94593 22.1759ZM36.4319 19.7043C36.4185 19.6906 36.4185 19.6906 36.405 19.6906H35.2231V17.1641C35.2231 17.1366 35.2097 17.1229 35.1828 17.1229H34.6456C34.6321 17.1229 34.6187 17.1229 34.6187 17.1366C34.6053 17.1503 34.6053 17.1503 34.6053 17.1641V20.1986C34.6053 20.2124 34.6053 20.2261 34.6187 20.2261C34.6321 20.2398 34.6321 20.2398 34.6456 20.2398H36.405C36.4185 20.2398 36.4319 20.2398 36.4319 20.2261C36.4453 20.2124 36.4453 20.2124 36.4453 20.1986V19.7318C36.4453 19.718 36.4453 19.7043 36.4319 19.7043ZM27.057 17.6584C27.0705 17.6447 27.0705 17.6447 27.0705 17.6309V17.1641C27.0705 17.1503 27.0705 17.1366 27.057 17.1366C27.0436 17.1229 27.0436 17.1229 27.0302 17.1229H24.7872C24.7738 17.1229 24.7603 17.1229 24.7603 17.1366C24.7469 17.1503 24.7469 17.1503 24.7469 17.1641V17.6309C24.7469 17.6447 24.7469 17.6584 24.7603 17.6584C24.7738 17.6721 24.7738 17.6721 24.7872 17.6721H25.5931V20.1986C25.5931 20.2124 25.5931 20.2261 25.6065 20.2261C25.6199 20.2398 25.6199 20.2398 25.6334 20.2398H26.1706C26.184 20.2398 26.1975 20.2398 26.1975 20.2261C26.2109 20.2124 26.2109 20.2124 26.2109 20.1986V17.6721H27.0302C27.0302 17.6721 27.0436 17.6721 27.057 17.6584ZM32.51 22.1759H30.2671C30.2402 22.1759 30.2268 22.1896 30.2268 22.2171V22.684C30.2268 22.6977 30.2268 22.7114 30.2402 22.7114C30.2536 22.7252 30.2536 22.7252 30.2671 22.7252H31.0729V25.2517C31.0729 25.2654 31.0729 25.2791 31.0863 25.2791C31.0998 25.2929 31.0998 25.2929 31.1132 25.2929H31.6504C31.6639 25.2929 31.6773 25.2929 31.6773 25.2791C31.6907 25.2654 31.6907 25.2654 31.6907 25.2517V22.7252H32.51C32.5235 22.7252 32.5369 22.7252 32.5369 22.7114C32.5503 22.6977 32.5503 22.6977 32.5503 22.684V22.2171C32.5503 22.2034 32.5503 22.1896 32.5369 22.1896C32.5235 22.1896 32.51 22.1896 32.51 22.1759ZM22.2487 20.2261C22.2622 20.2124 22.2622 20.2124 22.2622 20.1986V17.1641C22.2622 17.1503 22.2622 17.1366 22.2487 17.1366C22.2353 17.1229 22.2353 17.1229 22.2219 17.1229H21.6846C21.6712 17.1229 21.6578 17.1229 21.6578 17.1366C21.6443 17.1503 21.6443 17.1503 21.6443 17.1641V20.1986C21.6443 20.2261 21.6578 20.2398 21.6846 20.2398H22.2219C22.2219 20.2398 22.2353 20.2261 22.2487 20.2261ZM8.44165 20.281C8.71027 20.2948 8.97889 20.2398 9.23408 20.1437C9.24751 20.13 9.26094 20.1162 9.26094 20.1025L9.16693 19.6631C9.16693 19.6494 9.1535 19.6357 9.14006 19.6357C9.12663 19.6357 9.1132 19.6357 9.09977 19.6357C8.91174 19.7043 8.7237 19.7455 8.52224 19.7455C8.25362 19.7592 7.985 19.6631 7.79696 19.4572C7.44776 18.9903 7.44776 18.3449 7.82383 17.8918C8.01186 17.6996 8.28048 17.6035 8.53567 17.6172C8.7237 17.6172 8.92517 17.6584 9.09977 17.727C9.1132 17.727 9.12663 17.727 9.12663 17.727C9.14006 17.727 9.14006 17.7133 9.1535 17.6996L9.27437 17.2602C9.27437 17.2465 9.27437 17.219 9.24751 17.219C9.01919 17.1229 8.764 17.0679 8.50881 17.0817C8.07901 17.0679 7.66265 17.219 7.35374 17.5211C7.04483 17.8369 6.87022 18.2763 6.88365 18.7294C6.87022 19.1551 7.01796 19.5533 7.30002 19.8691C7.60893 20.1437 8.01186 20.3085 8.44165 20.281Z" fill="white"/>
<path d="M39.5349 1.16699H3.74121V14.596H39.5349V1.16699Z" fill="url(#paint0_linear)"/>
<path d="M9.61063 7.37378C8.6436 6.98931 8.22724 6.72842 8.22724 6.15171C8.22724 5.72605 8.58988 5.25919 9.43603 5.25919C9.70465 5.25919 9.95984 5.27292 10.7791 5.49262C10.8329 5.50635 10.8866 5.47889 10.9 5.42396C10.9134 5.36904 11.1283 4.58637 11.1418 4.51771C11.1552 4.46279 11.1283 4.42159 11.0746 4.40786H11.0612C10.2419 4.17443 9.83896 4.14697 9.44946 4.14697C7.87803 4.14697 6.88414 5.06696 6.88414 6.28902C6.88414 7.36005 7.64971 8.00541 8.84507 8.4448C9.77181 8.78808 10.1344 9.11763 10.1344 9.6806C10.1344 10.2848 9.66436 10.6967 8.80477 10.6967C8.54958 10.6967 8.16008 10.683 7.16619 10.3809C7.11247 10.3672 7.05874 10.3946 7.04531 10.4358C7.03188 10.4907 6.77669 11.2734 6.76326 11.3421C6.74983 11.3833 6.77669 11.4382 6.81698 11.4519H6.83041C7.85117 11.7677 8.34812 11.8089 8.71076 11.8089C10.5911 11.8089 11.491 10.7654 11.491 9.57075C11.491 8.49973 10.8597 7.85437 9.61063 7.37378ZM17.6692 4.33921C17.6558 4.29801 17.6155 4.27055 17.5752 4.28428H16.0307C15.9904 4.28428 15.9501 4.29801 15.9366 4.33921C15.9232 4.3804 13.6937 11.5068 13.6802 11.548C13.6668 11.603 13.6937 11.6579 13.734 11.6716C13.7474 11.6716 13.7474 11.6716 13.7608 11.6716H14.9159C14.9696 11.6716 15.0233 11.6304 15.0368 11.5755C15.0636 11.5068 15.5337 9.9003 15.5337 9.9003H18.0184C18.0184 9.9003 18.5288 11.548 18.5423 11.603C18.5557 11.6441 18.596 11.6853 18.6363 11.6853H19.8585C19.9122 11.6853 19.9525 11.6579 19.9525 11.603C19.9525 11.5892 19.9525 11.5755 19.9525 11.5618C19.9525 11.4794 17.6827 4.36667 17.6692 4.33921ZM15.7352 9.00778C15.7352 9.00778 16.259 7.14035 16.3664 6.74215C16.5276 6.16544 16.6485 5.65739 16.7022 5.41023C16.7291 5.31412 16.7694 5.31412 16.7962 5.41023C16.8634 5.65739 16.9977 6.1929 17.1589 6.72842C17.3738 7.48363 17.817 8.99405 17.817 8.99405L15.7352 9.00778ZM26.1039 7.99168C26.0099 7.84064 26.0099 7.63467 26.1173 7.48363C26.2248 7.29139 27.6619 4.53144 27.7156 4.43533C27.7694 4.33921 27.7425 4.27055 27.6485 4.27055H26.5337C26.4666 4.25682 26.3994 4.29801 26.3725 4.35294C26.3457 4.42159 25.4861 6.15171 25.0563 7.00304C24.9891 7.14035 24.9354 7.14035 24.8683 7.00304C24.3445 5.89082 23.6595 4.46279 23.6192 4.3804C23.5923 4.29801 23.5117 4.25682 23.4311 4.27055H22.1955C22.1015 4.27055 22.0478 4.32548 22.1015 4.42159C22.1552 4.51771 23.7669 7.40124 23.8206 7.48363C23.9281 7.63467 23.9415 7.84064 23.8341 8.00541L22.0075 11.5343C21.9672 11.6167 22.0075 11.6716 22.0746 11.6716H23.27C23.3371 11.6853 23.4043 11.6304 23.4311 11.5618C23.4714 11.4794 24.4519 9.48837 24.8548 8.6645C24.9086 8.55465 24.9891 8.55465 25.0429 8.6645C25.2712 9.13136 26.4263 11.4794 26.4666 11.5618C26.5068 11.6441 26.5471 11.6716 26.6009 11.6716H27.9037C27.9843 11.6716 28.0246 11.6304 27.9843 11.5343C27.944 11.4382 26.1979 8.17018 26.1039 7.99168ZM33.4104 4.17443C31.342 4.17443 30.1601 5.82217 30.1601 7.88183C30.1601 10.0788 31.1943 11.7952 33.4104 11.7952C35.6265 11.7952 36.6607 10.0788 36.6607 7.88183C36.6607 5.82217 35.4788 4.17443 33.4104 4.17443ZM33.4104 10.7516C31.8927 10.7516 31.5703 9.29613 31.5703 7.88183C31.5703 6.52245 31.9598 5.23173 33.4104 5.23173C34.8609 5.23173 35.237 6.52245 35.237 7.88183C35.2504 9.29613 34.9281 10.7516 33.4104 10.7516Z" fill="white"/>
<path d="M2.59961 0V29.1923H40.6765V0H2.59961ZM39.5349 28.0252H3.74125V1.16714H39.5349V28.0252Z" fill="#BEC0C2"/>
<path d="M27.7026 17.5074H26.6549C26.6012 17.5074 26.5609 17.5486 26.5609 17.6035V20.0751C26.5609 21.1461 26.6012 22.4918 26.6818 23.4804C26.6818 23.5491 26.6684 23.5353 26.6549 23.4804C26.5744 23.1921 26.2789 22.3407 25.5133 20.693C24.4388 18.3862 24.1702 17.8232 24.0628 17.576C24.0493 17.5486 24.009 17.5211 23.9822 17.5211H22.3436C22.2899 17.5211 22.2496 17.5623 22.2496 17.6172V24.8123C22.2496 24.8673 22.2899 24.9085 22.3436 24.9085H23.3644C23.4181 24.9085 23.4584 24.8673 23.4584 24.8123V22.2309C23.4584 21.0637 23.4315 19.6082 23.3778 18.6333C23.3778 18.5921 23.3912 18.5784 23.4046 18.6333C23.4987 18.8942 23.7807 19.6632 24.6537 21.613C25.6208 23.7825 26.0774 24.7849 26.1043 24.8261C26.1177 24.8673 26.158 24.881 26.1983 24.881H27.6891C27.7429 24.881 27.7832 24.8398 27.7832 24.7849V17.5898C27.7966 17.5486 27.7563 17.5074 27.7026 17.5074ZM17.6696 17.5623C17.6562 17.5211 17.6159 17.4937 17.5756 17.5074H16.031C15.9907 17.5074 15.9504 17.5348 15.937 17.5623L13.6806 24.7711C13.6672 24.8261 13.694 24.8673 13.7343 24.8947C13.7477 24.8947 13.7477 24.8947 13.7612 24.8947H14.9162C14.97 24.8947 15.0237 24.8535 15.0371 24.7986C15.064 24.7299 15.5341 23.1234 15.5341 23.1234H18.0188C18.0188 23.1234 18.5292 24.7711 18.5426 24.8261C18.556 24.8673 18.5963 24.9085 18.6366 24.9085H19.8589C19.8991 24.9085 19.9529 24.881 19.9529 24.8398C19.9529 24.8261 19.9529 24.8123 19.9529 24.7986C19.9529 24.7025 17.683 17.6035 17.6696 17.5623ZM15.7355 22.2309C15.7355 22.2309 16.2593 20.3635 16.3668 19.9653C16.528 19.3885 16.6488 18.8805 16.7026 18.6333C16.7294 18.5372 16.7697 18.5372 16.7966 18.6333C16.8637 18.8942 16.9981 19.416 17.1592 19.9515C17.3741 20.7067 17.8173 22.2172 17.8173 22.2172L15.7355 22.2309ZM36.5939 24.7986L33.5585 20.9676C33.5585 20.9676 36.2984 17.6996 36.3521 17.6172C36.4059 17.5348 36.3656 17.4937 36.285 17.4937H35.1031C35.009 17.4937 34.9956 17.5074 34.9285 17.5898C34.8613 17.6722 32.4706 20.5832 32.4169 20.6518C32.3631 20.7205 32.2825 20.7342 32.2825 20.5832V17.5898C32.2825 17.5348 32.2691 17.4937 32.202 17.4937H31.0872C31.02 17.4937 31.0066 17.5211 31.0066 17.5898V24.7849C31.0066 24.8535 31.0335 24.881 31.1006 24.881H32.202C32.2557 24.881 32.2825 24.8398 32.2825 24.7849V21.3384C32.2825 21.2011 32.3497 21.1736 32.4169 21.2697C32.484 21.3658 34.9553 24.7025 35.009 24.7849C35.0493 24.8535 35.1165 24.8947 35.1836 24.881H36.5133C36.6208 24.8947 36.6208 24.8535 36.5939 24.7986ZM10.1617 20.9127C10.1079 20.9127 10.1079 20.8852 10.1617 20.8578C10.6989 20.6793 11.5585 20.1987 11.5585 19.0727C11.5585 18.0704 10.672 17.5074 9.44982 17.5074H7.07253C7.01881 17.5074 6.97852 17.5486 6.97852 17.6035V24.8123C6.97852 24.8673 7.00538 24.9085 7.0591 24.9085H7.07253H9.23493C10.9407 24.9085 11.9883 24.0022 11.9883 22.7252C11.9749 21.613 11.0347 20.9951 10.1617 20.9127ZM8.30819 18.3862H9.04689C9.67815 18.3862 10.2288 18.702 10.2288 19.3474C10.2288 20.0339 9.58413 20.5969 8.73798 20.5969H8.29476V18.3862H8.30819ZM9.03346 24.0022H8.30819V21.4619H9.02003C9.81246 21.4619 10.4974 21.8601 10.4974 22.7252C10.4974 23.5491 9.83932 24.0022 9.03346 24.0022Z" fill="white"/>
<path d="M39.5349 14.5962H3.74121V28.0252H39.5349V14.5962Z" fill="black"/>
<path d="M8.81811 21.2142C8.92556 21.5574 9.0733 22.0655 9.16732 22.45H9.18075C9.28819 22.0655 9.43594 21.5574 9.54338 21.2142L10.2015 19.2231H11.4774V23.3837H10.685V21.3515C10.685 20.9395 10.685 20.3079 10.6985 19.8273H10.685C10.5641 20.2255 10.3761 20.8297 10.2821 21.1318L9.48966 23.3974H8.75095L7.99882 21.1592C7.93166 20.9807 7.6899 20.1569 7.59589 19.841H7.58246C7.59589 20.3216 7.59589 20.967 7.59589 21.3652V23.3974H6.84375V19.2231H8.15999L8.81811 21.2142Z" fill="white"/>
<path d="M16.6883 23.3974H15.8018L15.4392 22.4362H13.7334L13.3708 23.3974H12.5381L14.1364 19.2231H15.0631L16.6883 23.3974ZM14.8751 20.8297C14.7811 20.5825 14.6468 20.1019 14.593 19.8822H14.5796C14.5259 20.1019 14.3647 20.5688 14.2841 20.8297L13.9483 21.8046H15.2109L14.8751 20.8297Z" fill="white"/>
<path d="M17.7764 19.2231H18.9583C19.9656 19.2231 20.6237 19.4428 20.6237 20.3216C20.6237 20.8709 20.3014 21.2004 19.7776 21.3103V21.324C20.0596 21.4064 20.1671 21.5712 20.3014 21.8732L20.9327 23.3974H20.0328L19.5761 22.2165C19.4015 21.7771 19.3344 21.6673 18.824 21.6673H18.6091V23.3974H17.7764V19.2231ZM18.5957 21.0219H18.8374C19.4821 21.0219 19.7776 20.8571 19.7776 20.4315C19.7776 19.9784 19.4284 19.8822 18.8374 19.8822H18.5957V21.0219Z" fill="white"/>
<path d="M22.7597 23.3974H21.9404V19.2231H22.7597V21.0357H22.7732C22.9343 20.816 23.3238 20.3354 23.485 20.1431L24.2506 19.2231H25.2713L23.5522 21.173L25.4325 23.3974H24.3177L23.4178 22.2714C23.2701 22.0929 22.988 21.7085 22.7732 21.3927H22.7597V23.3974Z" fill="white"/>
<path d="M26.3992 19.2231H28.8033V19.9097H27.205V20.9121H28.6825V21.5849H27.205V22.6834H28.8168V23.3837H26.3857V19.2231H26.3992Z" fill="white"/>
<path d="M33.0608 19.9372L31.9192 19.9234V23.3974H31.0865V19.9097L29.9717 19.9234V19.2231H33.0608V19.9372Z" fill="white"/>
<path d="M36.3653 19.9923C36.043 19.855 35.7878 19.8138 35.5326 19.8138C35.1028 19.8138 34.8208 19.9923 34.8208 20.2807C34.8208 20.5416 34.9551 20.6926 35.5595 20.926C36.325 21.2007 36.634 21.5577 36.634 22.1756C36.634 22.972 36.043 23.48 35.1028 23.48C34.7133 23.48 34.3641 23.4251 34.0283 23.3015L34.1089 22.5738C34.4581 22.7523 34.7805 22.8072 35.0625 22.8072C35.4923 22.8072 35.8012 22.6287 35.8012 22.2854C35.8012 21.9696 35.6266 21.8048 35.0088 21.5714C34.2835 21.2968 33.9746 20.9672 33.9746 20.3768C33.9746 19.6353 34.5656 19.1685 35.4386 19.1685C35.8012 19.1685 36.1101 19.2096 36.4191 19.3195L36.3653 19.9923Z" fill="white"/>
<path fill-rule="evenodd" clip-rule="evenodd" d="M2.59961 0V29.1923H40.6765V0H2.59961ZM39.5349 28.0252H3.74125V1.16714H39.5349V28.0252Z" fill="#BBBDBF"/>
</g>
<path d="M55.335 7.25C55.335 8.02344 55.0557 8.63281 54.4971 9.07812C53.9424 9.52344 53.1689 9.74609 52.1768 9.74609C51.2627 9.74609 50.4541 9.57422 49.751 9.23047V7.54297C50.3291 7.80078 50.8174 7.98242 51.2158 8.08789C51.6182 8.19336 51.9854 8.24609 52.3174 8.24609C52.7158 8.24609 53.0205 8.16992 53.2314 8.01758C53.4463 7.86523 53.5537 7.63867 53.5537 7.33789C53.5537 7.16992 53.5068 7.02148 53.4131 6.89258C53.3193 6.75977 53.1807 6.63281 52.9971 6.51172C52.8174 6.39062 52.4482 6.19727 51.8896 5.93164C51.3662 5.68555 50.9736 5.44922 50.7119 5.22266C50.4502 4.99609 50.2412 4.73242 50.085 4.43164C49.9287 4.13086 49.8506 3.7793 49.8506 3.37695C49.8506 2.61914 50.1064 2.02344 50.6182 1.58984C51.1338 1.15625 51.8447 0.939453 52.751 0.939453C53.1963 0.939453 53.6201 0.992188 54.0225 1.09766C54.4287 1.20312 54.8525 1.35156 55.2939 1.54297L54.708 2.95508C54.251 2.76758 53.8721 2.63672 53.5713 2.5625C53.2744 2.48828 52.9814 2.45117 52.6924 2.45117C52.3486 2.45117 52.085 2.53125 51.9014 2.69141C51.7178 2.85156 51.626 3.06055 51.626 3.31836C51.626 3.47852 51.6631 3.61914 51.7373 3.74023C51.8115 3.85742 51.9287 3.97266 52.0889 4.08594C52.2529 4.19531 52.6377 4.39453 53.2432 4.68359C54.0439 5.06641 54.5928 5.45117 54.8896 5.83789C55.1865 6.2207 55.335 6.69141 55.335 7.25ZM60.9072 9.62891L60.5615 8.73828H60.5146C60.2139 9.11719 59.9033 9.38086 59.583 9.5293C59.2666 9.67383 58.8525 9.74609 58.3408 9.74609C57.7119 9.74609 57.2158 9.56641 56.8525 9.20703C56.4932 8.84766 56.3135 8.33594 56.3135 7.67188C56.3135 6.97656 56.5557 6.46484 57.04 6.13672C57.5283 5.80469 58.2627 5.62109 59.2432 5.58594L60.3799 5.55078V5.26367C60.3799 4.59961 60.04 4.26758 59.3604 4.26758C58.8369 4.26758 58.2217 4.42578 57.5146 4.74219L56.9229 3.53516C57.6768 3.14062 58.5127 2.94336 59.4307 2.94336C60.3096 2.94336 60.9834 3.13477 61.4521 3.51758C61.9209 3.90039 62.1553 4.48242 62.1553 5.26367V9.62891H60.9072ZM60.3799 6.59375L59.6885 6.61719C59.1689 6.63281 58.7822 6.72656 58.5283 6.89844C58.2744 7.07031 58.1475 7.33203 58.1475 7.68359C58.1475 8.1875 58.4365 8.43945 59.0146 8.43945C59.4287 8.43945 59.7588 8.32031 60.0049 8.08203C60.2549 7.84375 60.3799 7.52734 60.3799 7.13281V6.59375ZM65.3428 6.2832L63.2334 3.07812H65.2607L66.5322 5.16406L67.8154 3.07812H69.8428L67.71 6.2832L69.9424 9.62891H67.9092L66.5322 7.38477L65.1494 9.62891H63.1221L65.3428 6.2832ZM72.3623 6.3418C72.3623 6.99023 72.4678 7.48047 72.6787 7.8125C72.8936 8.14453 73.2412 8.31055 73.7217 8.31055C74.1982 8.31055 74.54 8.14648 74.7471 7.81836C74.958 7.48633 75.0635 6.99414 75.0635 6.3418C75.0635 5.69336 74.958 5.20703 74.7471 4.88281C74.5361 4.55859 74.1904 4.39648 73.71 4.39648C73.2334 4.39648 72.8896 4.55859 72.6787 4.88281C72.4678 5.20312 72.3623 5.68945 72.3623 6.3418ZM76.8916 6.3418C76.8916 7.4082 76.6104 8.24219 76.0479 8.84375C75.4854 9.44531 74.7021 9.74609 73.6982 9.74609C73.0693 9.74609 72.5146 9.60938 72.0342 9.33594C71.5537 9.05859 71.1846 8.66211 70.9268 8.14648C70.6689 7.63086 70.54 7.0293 70.54 6.3418C70.54 5.27148 70.8193 4.43945 71.3779 3.8457C71.9365 3.25195 72.7217 2.95508 73.7334 2.95508C74.3623 2.95508 74.917 3.0918 75.3975 3.36523C75.8779 3.63867 76.2471 4.03125 76.5049 4.54297C76.7627 5.05469 76.8916 5.6543 76.8916 6.3418ZM89.4014 5.33398C89.4014 6.3418 89.2217 7.1875 88.8623 7.87109C88.5068 8.55078 87.9834 9.04883 87.292 9.36523L89.3545 11.668H87.0283L85.458 9.74609H85.3232C84.0107 9.74609 83.0029 9.36523 82.2998 8.60352C81.5967 7.8418 81.2451 6.74805 81.2451 5.32227C81.2451 3.89648 81.5967 2.80859 82.2998 2.05859C83.0068 1.30469 84.0186 0.927734 85.335 0.927734C86.6514 0.927734 87.6572 1.30664 88.3525 2.06445C89.0518 2.82227 89.4014 3.91211 89.4014 5.33398ZM83.1494 5.33398C83.1494 6.29102 83.3311 7.01172 83.6943 7.49609C84.0576 7.98047 84.6006 8.22266 85.3232 8.22266C86.7725 8.22266 87.4971 7.25977 87.4971 5.33398C87.4971 3.4043 86.7764 2.43945 85.335 2.43945C84.6123 2.43945 84.0674 2.68359 83.7002 3.17188C83.333 3.65625 83.1494 4.37695 83.1494 5.33398ZM95.6768 9.62891L95.4365 8.79102H95.3428C95.1514 9.0957 94.8799 9.33203 94.5283 9.5C94.1768 9.66406 93.7764 9.74609 93.3271 9.74609C92.5576 9.74609 91.9775 9.54102 91.5869 9.13086C91.1963 8.7168 91.001 8.12305 91.001 7.34961V3.07812H92.7881V6.9043C92.7881 7.37695 92.8721 7.73242 93.04 7.9707C93.208 8.20508 93.4756 8.32227 93.8428 8.32227C94.3428 8.32227 94.7041 8.15625 94.9268 7.82422C95.1494 7.48828 95.2607 6.93359 95.2607 6.16016V3.07812H97.0479V9.62891H95.6768ZM103.083 9.62891L102.737 8.73828H102.69C102.39 9.11719 102.079 9.38086 101.759 9.5293C101.442 9.67383 101.028 9.74609 100.517 9.74609C99.8877 9.74609 99.3916 9.56641 99.0283 9.20703C98.6689 8.84766 98.4893 8.33594 98.4893 7.67188C98.4893 6.97656 98.7314 6.46484 99.2158 6.13672C99.7041 5.80469 100.438 5.62109 101.419 5.58594L102.556 5.55078V5.26367C102.556 4.59961 102.216 4.26758 101.536 4.26758C101.013 4.26758 100.397 4.42578 99.6904 4.74219L99.0986 3.53516C99.8525 3.14062 100.688 2.94336 101.606 2.94336C102.485 2.94336 103.159 3.13477 103.628 3.51758C104.097 3.90039 104.331 4.48242 104.331 5.26367V9.62891H103.083ZM102.556 6.59375L101.864 6.61719C101.345 6.63281 100.958 6.72656 100.704 6.89844C100.45 7.07031 100.323 7.33203 100.323 7.68359C100.323 8.1875 100.612 8.43945 101.19 8.43945C101.604 8.43945 101.935 8.32031 102.181 8.08203C102.431 7.84375 102.556 7.52734 102.556 7.13281V6.59375ZM112.224 9.62891H110.437V5.80273C110.437 5.33008 110.353 4.97656 110.185 4.74219C110.017 4.50391 109.749 4.38477 109.382 4.38477C108.882 4.38477 108.521 4.55273 108.298 4.88867C108.075 5.2207 107.964 5.77344 107.964 6.54688V9.62891H106.177V3.07812H107.542L107.782 3.91602H107.882C108.081 3.59961 108.354 3.36133 108.702 3.20117C109.054 3.03711 109.452 2.95508 109.897 2.95508C110.659 2.95508 111.237 3.16211 111.632 3.57617C112.026 3.98633 112.224 4.58008 112.224 5.35742V9.62891ZM116.823 8.32227C117.136 8.32227 117.511 8.25391 117.948 8.11719V9.44727C117.503 9.64648 116.956 9.74609 116.308 9.74609C115.593 9.74609 115.071 9.56641 114.743 9.20703C114.419 8.84375 114.257 8.30078 114.257 7.57812V4.41992H113.401V3.66406L114.386 3.06641L114.901 1.68359H116.044V3.07812H117.878V4.41992H116.044V7.57812C116.044 7.83203 116.114 8.01953 116.255 8.14062C116.399 8.26172 116.589 8.32227 116.823 8.32227ZM119.202 1.38477C119.202 0.802734 119.526 0.511719 120.175 0.511719C120.823 0.511719 121.147 0.802734 121.147 1.38477C121.147 1.66211 121.065 1.87891 120.901 2.03516C120.741 2.1875 120.499 2.26367 120.175 2.26367C119.526 2.26367 119.202 1.9707 119.202 1.38477ZM121.065 9.62891H119.278V3.07812H121.065V9.62891ZM125.706 8.32227C126.019 8.32227 126.394 8.25391 126.831 8.11719V9.44727C126.386 9.64648 125.839 9.74609 125.19 9.74609C124.476 9.74609 123.954 9.56641 123.626 9.20703C123.302 8.84375 123.14 8.30078 123.14 7.57812V4.41992H122.284V3.66406L123.269 3.06641L123.784 1.68359H124.927V3.07812H126.761V4.41992H124.927V7.57812C124.927 7.83203 124.997 8.01953 125.138 8.14062C125.282 8.26172 125.472 8.32227 125.706 8.32227ZM132.321 9.62891L131.976 8.73828H131.929C131.628 9.11719 131.317 9.38086 130.997 9.5293C130.681 9.67383 130.267 9.74609 129.755 9.74609C129.126 9.74609 128.63 9.56641 128.267 9.20703C127.907 8.84766 127.728 8.33594 127.728 7.67188C127.728 6.97656 127.97 6.46484 128.454 6.13672C128.942 5.80469 129.677 5.62109 130.657 5.58594L131.794 5.55078V5.26367C131.794 4.59961 131.454 4.26758 130.774 4.26758C130.251 4.26758 129.636 4.42578 128.929 4.74219L128.337 3.53516C129.091 3.14062 129.927 2.94336 130.845 2.94336C131.724 2.94336 132.397 3.13477 132.866 3.51758C133.335 3.90039 133.569 4.48242 133.569 5.26367V9.62891H132.321ZM131.794 6.59375L131.103 6.61719C130.583 6.63281 130.196 6.72656 129.942 6.89844C129.688 7.07031 129.562 7.33203 129.562 7.68359C129.562 8.1875 129.851 8.43945 130.429 8.43945C130.843 8.43945 131.173 8.32031 131.419 8.08203C131.669 7.84375 131.794 7.52734 131.794 7.13281V6.59375ZM138.175 8.32227C138.487 8.32227 138.862 8.25391 139.3 8.11719V9.44727C138.854 9.64648 138.308 9.74609 137.659 9.74609C136.944 9.74609 136.423 9.56641 136.095 9.20703C135.771 8.84375 135.608 8.30078 135.608 7.57812V4.41992H134.753V3.66406L135.737 3.06641L136.253 1.68359H137.396V3.07812H139.229V4.41992H137.396V7.57812C137.396 7.83203 137.466 8.01953 137.606 8.14062C137.751 8.26172 137.94 8.32227 138.175 8.32227ZM140.554 1.38477C140.554 0.802734 140.878 0.511719 141.526 0.511719C142.175 0.511719 142.499 0.802734 142.499 1.38477C142.499 1.66211 142.417 1.87891 142.253 2.03516C142.093 2.1875 141.851 2.26367 141.526 2.26367C140.878 2.26367 140.554 1.9707 140.554 1.38477ZM142.417 9.62891H140.63V3.07812H142.417V9.62891ZM145.856 9.62891L143.36 3.07812H145.229L146.495 6.81055C146.636 7.2832 146.724 7.73047 146.759 8.15234H146.794C146.813 7.77734 146.901 7.33008 147.058 6.81055L148.317 3.07812H150.187L147.69 9.62891H145.856ZM153.843 4.22656C153.464 4.22656 153.167 4.34766 152.952 4.58984C152.737 4.82812 152.614 5.16797 152.583 5.60938H155.091C155.083 5.16797 154.968 4.82812 154.745 4.58984C154.522 4.34766 154.222 4.22656 153.843 4.22656ZM154.095 9.74609C153.04 9.74609 152.216 9.45508 151.622 8.87305C151.028 8.29102 150.731 7.4668 150.731 6.40039C150.731 5.30273 151.005 4.45508 151.552 3.85742C152.103 3.25586 152.862 2.95508 153.831 2.95508C154.757 2.95508 155.478 3.21875 155.993 3.74609C156.509 4.27344 156.767 5.00195 156.767 5.93164V6.79883H152.542C152.562 7.30664 152.712 7.70312 152.993 7.98828C153.274 8.27344 153.669 8.41602 154.177 8.41602C154.571 8.41602 154.944 8.375 155.296 8.29297C155.647 8.21094 156.015 8.08008 156.397 7.90039V9.2832C156.085 9.43945 155.751 9.55469 155.396 9.62891C155.04 9.70703 154.606 9.74609 154.095 9.74609ZM55.335 24.25C55.335 25.0234 55.0557 25.6328 54.4971 26.0781C53.9424 26.5234 53.1689 26.7461 52.1768 26.7461C51.2627 26.7461 50.4541 26.5742 49.751 26.2305V24.543C50.3291 24.8008 50.8174 24.9824 51.2158 25.0879C51.6182 25.1934 51.9854 25.2461 52.3174 25.2461C52.7158 25.2461 53.0205 25.1699 53.2314 25.0176C53.4463 24.8652 53.5537 24.6387 53.5537 24.3379C53.5537 24.1699 53.5068 24.0215 53.4131 23.8926C53.3193 23.7598 53.1807 23.6328 52.9971 23.5117C52.8174 23.3906 52.4482 23.1973 51.8896 22.9316C51.3662 22.6855 50.9736 22.4492 50.7119 22.2227C50.4502 21.9961 50.2412 21.7324 50.085 21.4316C49.9287 21.1309 49.8506 20.7793 49.8506 20.377C49.8506 19.6191 50.1064 19.0234 50.6182 18.5898C51.1338 18.1562 51.8447 17.9395 52.751 17.9395C53.1963 17.9395 53.6201 17.9922 54.0225 18.0977C54.4287 18.2031 54.8525 18.3516 55.2939 18.543L54.708 19.9551C54.251 19.7676 53.8721 19.6367 53.5713 19.5625C53.2744 19.4883 52.9814 19.4512 52.6924 19.4512C52.3486 19.4512 52.085 19.5312 51.9014 19.6914C51.7178 19.8516 51.626 20.0605 51.626 20.3184C51.626 20.4785 51.6631 20.6191 51.7373 20.7402C51.8115 20.8574 51.9287 20.9727 52.0889 21.0859C52.2529 21.1953 52.6377 21.3945 53.2432 21.6836C54.0439 22.0664 54.5928 22.4512 54.8896 22.8379C55.1865 23.2207 55.335 23.6914 55.335 24.25ZM59.5068 25.3223C59.8193 25.3223 60.1943 25.2539 60.6318 25.1172V26.4473C60.1865 26.6465 59.6396 26.7461 58.9912 26.7461C58.2764 26.7461 57.7549 26.5664 57.4268 26.207C57.1025 25.8438 56.9404 25.3008 56.9404 24.5781V21.4199H56.085V20.6641L57.0693 20.0664L57.585 18.6836H58.7275V20.0781H60.5615V21.4199H58.7275V24.5781C58.7275 24.832 58.7979 25.0195 58.9385 25.1406C59.083 25.2617 59.2725 25.3223 59.5068 25.3223ZM65.6182 19.9551C65.8604 19.9551 66.0615 19.9727 66.2217 20.0078L66.0869 21.6836C65.9424 21.6445 65.7666 21.625 65.5596 21.625C64.9893 21.625 64.5439 21.7715 64.2236 22.0645C63.9072 22.3574 63.749 22.7676 63.749 23.2949V26.6289H61.9619V20.0781H63.3154L63.5791 21.1797H63.667C63.8701 20.8125 64.1436 20.5176 64.4873 20.2949C64.835 20.0684 65.2119 19.9551 65.6182 19.9551ZM71.5713 26.6289L71.2256 25.7383H71.1787C70.8779 26.1172 70.5674 26.3809 70.2471 26.5293C69.9307 26.6738 69.5166 26.7461 69.0049 26.7461C68.376 26.7461 67.8799 26.5664 67.5166 26.207C67.1572 25.8477 66.9775 25.3359 66.9775 24.6719C66.9775 23.9766 67.2197 23.4648 67.7041 23.1367C68.1924 22.8047 68.9268 22.6211 69.9072 22.5859L71.0439 22.5508V22.2637C71.0439 21.5996 70.7041 21.2676 70.0244 21.2676C69.501 21.2676 68.8857 21.4258 68.1787 21.7422L67.5869 20.5352C68.3408 20.1406 69.1768 19.9434 70.0947 19.9434C70.9736 19.9434 71.6475 20.1348 72.1162 20.5176C72.585 20.9004 72.8193 21.4824 72.8193 22.2637V26.6289H71.5713ZM71.0439 23.5938L70.3525 23.6172C69.833 23.6328 69.4463 23.7266 69.1924 23.8984C68.9385 24.0703 68.8115 24.332 68.8115 24.6836C68.8115 25.1875 69.1006 25.4395 69.6787 25.4395C70.0928 25.4395 70.4229 25.3203 70.6689 25.082C70.9189 24.8438 71.0439 24.5273 71.0439 24.1328V23.5938ZM77.4248 25.3223C77.7373 25.3223 78.1123 25.2539 78.5498 25.1172V26.4473C78.1045 26.6465 77.5576 26.7461 76.9092 26.7461C76.1943 26.7461 75.6729 26.5664 75.3447 26.207C75.0205 25.8438 74.8584 25.3008 74.8584 24.5781V21.4199H74.0029V20.6641L74.9873 20.0664L75.5029 18.6836H76.6455V20.0781H78.4795V21.4199H76.6455V24.5781C76.6455 24.832 76.7158 25.0195 76.8564 25.1406C77.001 25.2617 77.1904 25.3223 77.4248 25.3223ZM82.5928 21.2266C82.2139 21.2266 81.917 21.3477 81.7021 21.5898C81.4873 21.8281 81.3643 22.168 81.333 22.6094H83.8408C83.833 22.168 83.7178 21.8281 83.4951 21.5898C83.2725 21.3477 82.9717 21.2266 82.5928 21.2266ZM82.8447 26.7461C81.79 26.7461 80.9658 26.4551 80.3721 25.873C79.7783 25.291 79.4814 24.4668 79.4814 23.4004C79.4814 22.3027 79.7549 21.4551 80.3018 20.8574C80.8525 20.2559 81.6123 19.9551 82.5811 19.9551C83.5068 19.9551 84.2275 20.2188 84.7432 20.7461C85.2588 21.2734 85.5166 22.002 85.5166 22.9316V23.7988H81.292C81.3115 24.3066 81.4619 24.7031 81.7432 24.9883C82.0244 25.2734 82.4189 25.416 82.9268 25.416C83.3213 25.416 83.6943 25.375 84.0459 25.293C84.3975 25.2109 84.7646 25.0801 85.1475 24.9004V26.2832C84.835 26.4395 84.501 26.5547 84.1455 26.6289C83.79 26.707 83.3564 26.7461 82.8447 26.7461ZM92.6709 20.0781V20.9863L91.6455 21.25C91.833 21.543 91.9268 21.8711 91.9268 22.2344C91.9268 22.9375 91.6807 23.4863 91.1885 23.8809C90.7002 24.2715 90.0205 24.4668 89.1494 24.4668L88.8271 24.4492L88.5635 24.4199C88.3799 24.5605 88.2881 24.7168 88.2881 24.8887C88.2881 25.1465 88.6162 25.2754 89.2725 25.2754H90.3857C91.1045 25.2754 91.6514 25.4297 92.0264 25.7383C92.4053 26.0469 92.5947 26.5 92.5947 27.0977C92.5947 27.8633 92.2744 28.457 91.6338 28.8789C90.9971 29.3008 90.0811 29.5117 88.8857 29.5117C87.9717 29.5117 87.2725 29.3516 86.7881 29.0312C86.3076 28.7148 86.0674 28.2695 86.0674 27.6953C86.0674 27.3008 86.1904 26.9707 86.4365 26.7051C86.6826 26.4395 87.0439 26.25 87.5205 26.1367C87.3369 26.0586 87.1768 25.9316 87.04 25.7559C86.9033 25.5762 86.835 25.3867 86.835 25.1875C86.835 24.9375 86.9072 24.7305 87.0518 24.5664C87.1963 24.3984 87.4053 24.2344 87.6787 24.0742C87.335 23.9258 87.0615 23.6875 86.8584 23.3594C86.6592 23.0312 86.5596 22.6445 86.5596 22.1992C86.5596 21.4844 86.792 20.9316 87.2568 20.541C87.7217 20.1504 88.3857 19.9551 89.249 19.9551C89.4326 19.9551 89.6494 19.9727 89.8994 20.0078C90.1533 20.0391 90.3154 20.0625 90.3857 20.0781H92.6709ZM87.6143 27.5547C87.6143 27.8008 87.7314 27.9941 87.9658 28.1348C88.2041 28.2754 88.5361 28.3457 88.9619 28.3457C89.6025 28.3457 90.1045 28.2578 90.4678 28.082C90.8311 27.9062 91.0127 27.666 91.0127 27.3613C91.0127 27.1152 90.9053 26.9453 90.6904 26.8516C90.4756 26.7578 90.1436 26.7109 89.6943 26.7109H88.7686C88.4404 26.7109 88.165 26.7871 87.9424 26.9395C87.7236 27.0957 87.6143 27.3008 87.6143 27.5547ZM88.2646 22.2227C88.2646 22.5781 88.3447 22.8594 88.5049 23.0664C88.6689 23.2734 88.917 23.377 89.249 23.377C89.585 23.377 89.8311 23.2734 89.9873 23.0664C90.1436 22.8594 90.2217 22.5781 90.2217 22.2227C90.2217 21.4336 89.8975 21.0391 89.249 21.0391C88.5928 21.0391 88.2646 21.4336 88.2646 22.2227ZM93.6787 18.3848C93.6787 17.8027 94.0029 17.5117 94.6514 17.5117C95.2998 17.5117 95.624 17.8027 95.624 18.3848C95.624 18.6621 95.542 18.8789 95.3779 19.0352C95.2178 19.1875 94.9756 19.2637 94.6514 19.2637C94.0029 19.2637 93.6787 18.9707 93.6787 18.3848ZM95.542 26.6289H93.7549V20.0781H95.542V26.6289ZM100.136 21.2266C99.7568 21.2266 99.46 21.3477 99.2451 21.5898C99.0303 21.8281 98.9072 22.168 98.876 22.6094H101.384C101.376 22.168 101.261 21.8281 101.038 21.5898C100.815 21.3477 100.515 21.2266 100.136 21.2266ZM100.388 26.7461C99.333 26.7461 98.5088 26.4551 97.915 25.873C97.3213 25.291 97.0244 24.4668 97.0244 23.4004C97.0244 22.3027 97.2979 21.4551 97.8447 20.8574C98.3955 20.2559 99.1553 19.9551 100.124 19.9551C101.05 19.9551 101.771 20.2188 102.286 20.7461C102.802 21.2734 103.06 22.002 103.06 22.9316V23.7988H98.835C98.8545 24.3066 99.0049 24.7031 99.2861 24.9883C99.5674 25.2734 99.9619 25.416 100.47 25.416C100.864 25.416 101.237 25.375 101.589 25.293C101.94 25.2109 102.308 25.0801 102.69 24.9004V26.2832C102.378 26.4395 102.044 26.5547 101.688 26.6289C101.333 26.707 100.899 26.7461 100.388 26.7461ZM109.083 24.6836C109.083 25.3555 108.849 25.8672 108.38 26.2188C107.915 26.5703 107.218 26.7461 106.288 26.7461C105.812 26.7461 105.405 26.7129 105.069 26.6465C104.733 26.584 104.419 26.4902 104.126 26.3652V24.8887C104.458 25.0449 104.831 25.1758 105.245 25.2812C105.663 25.3867 106.03 25.4395 106.347 25.4395C106.995 25.4395 107.319 25.252 107.319 24.877C107.319 24.7363 107.276 24.623 107.19 24.5371C107.104 24.4473 106.956 24.3477 106.745 24.2383C106.534 24.125 106.253 23.9941 105.901 23.8457C105.397 23.6348 105.026 23.4395 104.788 23.2598C104.554 23.0801 104.382 22.875 104.272 22.6445C104.167 22.4102 104.114 22.123 104.114 21.7832C104.114 21.2012 104.339 20.752 104.788 20.4355C105.241 20.1152 105.882 19.9551 106.71 19.9551C107.499 19.9551 108.267 20.127 109.013 20.4707L108.474 21.7598C108.146 21.6191 107.839 21.5039 107.554 21.4141C107.269 21.3242 106.978 21.2793 106.681 21.2793C106.153 21.2793 105.89 21.4219 105.89 21.707C105.89 21.8672 105.974 22.0059 106.142 22.123C106.313 22.2402 106.687 22.4141 107.261 22.6445C107.772 22.8516 108.147 23.0449 108.386 23.2246C108.624 23.4043 108.8 23.6113 108.913 23.8457C109.026 24.0801 109.083 24.3594 109.083 24.6836Z" fill="black"/>
<defs>
<linearGradient id="paint0_linear" x1="21.638" y1="14.596" x2="21.638" y2="1.16699" gradientUnits="userSpaceOnUse">
<stop stop-color="#79C0E3"/>
<stop offset="0.23" stop-color="#3372CC"/>
<stop offset="0.3" stop-color="#2B5FB5"/>
<stop offset="0.45" stop-color="#1D3E8E"/>
<stop offset="0.6" stop-color="#12246F"/>
<stop offset="0.74" stop-color="#0A1259"/>
<stop offset="0.88" stop-color="#06074C"/>
<stop offset="1" stop-color="#040347"/>
</linearGradient>
<clipPath id="clip0">
<rect width="38.0769" height="29.1923" fill="white" transform="translate(2.59961)"/>
</clipPath>
</defs>
</svg>
