<svg width="100" height="100" viewBox="0 0 100 100" fill="none" xmlns="http://www.w3.org/2000/svg" xmlns:xlink="http://www.w3.org/1999/xlink">
<symbol id="main" viewBox="0 0 100 100">
<rect width="100" height="100" rx="16" fill="#505F82"/>
<path d="M34.2842 65H28.625V37.873H44.1738V42.5859H34.2842V49.5811H43.4873V54.2754H34.2842V65ZM71.5605 37.873V55.4258C71.5605 57.4297 71.109 59.1862 70.2061 60.6953C69.3154 62.2044 68.0228 63.361 66.3281 64.165C64.6335 64.9691 62.6296 65.3711 60.3164 65.3711C56.8281 65.3711 54.1191 64.4805 52.1895 62.6992C50.2598 60.9056 49.2949 58.4564 49.2949 55.3516V37.873H55.0283V54.4795C55.0283 56.57 55.4489 58.1038 56.29 59.0811C57.1312 60.0583 58.5228 60.5469 60.4648 60.5469C62.3451 60.5469 63.7057 60.0583 64.5469 59.0811C65.4004 58.0915 65.8271 56.5452 65.8271 54.4424V37.873H71.5605Z" fill="white"/>
</symbol>	
<use xlink:href="#main" href="#main" />
</svg>
