<svg width="1080" height="586" viewBox="0 0 1080 586" fill="none" xmlns="http://www.w3.org/2000/svg">
<path opacity="0.2" d="M526.5 585.5V1.5H1079.5V585.5H526.5Z" stroke="#00032C"/>
<path opacity="0.2" d="M1.5 585.5V1.5H217.5V585.5H1.5Z" stroke="#00032C"/>
<path opacity="0.2" d="M514.383 1.12891H232.427V585.276H514.383V1.12891Z" stroke="#00032C" stroke-width="1.001" stroke-miterlimit="10"/>
<path d="M312.612 231.32H314.415V222.053H312.612V231.32ZM307.805 231.32H309.608V222.053H307.805V231.32ZM302.998 231.32H304.8V222.053H302.998V231.32ZM268.413 223.046C266.41 223.046 264.74 224.701 264.74 226.686C264.74 228.672 266.41 230.327 268.413 230.327C270.416 230.327 272.085 228.672 272.085 226.686C272.085 224.701 270.416 223.046 268.413 223.046ZM268.413 228.54C267.411 228.54 266.543 227.745 266.543 226.686C266.543 225.693 267.344 224.833 268.413 224.833C269.414 224.833 270.282 225.627 270.282 226.686C270.282 227.679 269.414 228.54 268.413 228.54ZM298.191 231.32H299.993V222.053H298.191V231.32ZM287.374 244.823C287.775 246.676 289.444 248 291.38 248C293.383 248 294.986 246.61 295.386 244.823H349V243.036H295.386C295.053 241.513 293.851 240.256 292.248 239.925V234.497H321.225C322.961 234.497 324.43 233.107 324.43 231.32V221.987C324.43 220.266 323.028 218.81 321.225 218.81H263.205C261.469 218.81 260 220.2 260 221.987V231.32C260 233.041 261.402 234.497 263.205 234.497H290.446V239.925C288.91 240.256 287.641 241.447 287.308 243.036L287.374 244.823ZM293.717 243.962C293.717 245.22 292.649 246.279 291.38 246.279C290.112 246.279 289.044 245.22 289.044 243.962C289.044 242.705 290.112 241.646 291.38 241.646C292.716 241.646 293.717 242.638 293.717 243.962ZM322.627 231.32C322.627 232.048 322.026 232.644 321.292 232.644H263.272C262.537 232.644 261.936 232.048 261.936 231.32V221.987C261.936 221.259 262.537 220.663 263.272 220.663H321.292C322.026 220.663 322.627 221.259 322.627 221.987V231.32ZM317.419 231.32H319.222V222.053H317.419V231.32ZM312.612 213.448H314.415V204.181H312.612V213.448ZM317.419 213.448H319.222V204.181H317.419V213.448ZM321.292 201.004H263.272C261.536 201.004 260.067 202.394 260.067 204.181V213.514C260.067 215.235 261.469 216.691 263.272 216.691H321.292C323.028 216.691 324.497 215.301 324.497 213.514V204.181C324.43 202.394 323.028 201.004 321.292 201.004ZM322.627 213.448C322.627 214.176 322.026 214.772 321.292 214.772H263.272C262.537 214.772 261.936 214.176 261.936 213.448V204.115C261.936 203.387 262.537 202.791 263.272 202.791H321.292C322.026 202.791 322.627 203.387 322.627 204.115V213.448ZM268.413 205.174C266.41 205.174 264.74 206.829 264.74 208.815C264.74 210.8 266.41 212.455 268.413 212.455C270.416 212.455 272.085 210.8 272.085 208.815C272.085 206.763 270.416 205.174 268.413 205.174ZM268.413 210.668C267.411 210.668 266.543 209.874 266.543 208.815C266.543 207.822 267.344 206.961 268.413 206.961C269.414 206.961 270.282 207.756 270.282 208.815C270.282 209.808 269.414 210.602 268.413 210.668ZM302.998 213.448H304.8V204.181H302.998V213.448ZM298.191 213.448H299.993V204.181H298.191V213.448ZM307.805 213.448H309.608V204.181H307.805V213.448ZM304.8 186.243H302.998V195.51H304.8V186.243ZM314.415 186.243H312.612V195.51H314.415V186.243ZM319.222 186.243H317.419V195.51H319.222V186.243ZM309.608 186.243H307.805V195.51H309.608V186.243ZM299.993 186.243H298.191V195.51H299.993V186.243ZM263.272 198.687H321.292C323.028 198.687 324.497 197.297 324.497 195.51V186.177C324.497 184.456 323.095 183 321.292 183H263.272C261.536 183 260.067 184.39 260.067 186.177V195.51C260.067 197.297 261.536 198.687 263.272 198.687ZM261.936 186.243C261.936 185.515 262.537 184.92 263.272 184.92H321.292C322.026 184.92 322.627 185.515 322.627 186.243V195.576C322.627 196.304 322.026 196.9 321.292 196.9H263.272C262.537 196.9 261.936 196.304 261.936 195.576V186.243ZM268.413 194.517C270.416 194.517 272.085 192.863 272.085 190.877C272.085 188.891 270.416 187.236 268.413 187.236C266.41 187.236 264.74 188.891 264.74 190.877C264.74 192.929 266.343 194.517 268.413 194.517ZM268.413 189.023C269.414 189.023 270.282 189.818 270.282 190.877C270.282 191.87 269.481 192.73 268.413 192.73C267.411 192.73 266.543 191.936 266.543 190.877C266.543 189.884 267.344 189.023 268.413 189.023Z" fill="#0076FF"/>
<path d="M390.661 231.271H392.433V222.013H390.661V231.271ZM385.934 231.271H387.707V222.013H385.934V231.271ZM381.208 231.271H382.98V222.013H381.208V231.271ZM347.205 223.005C345.236 223.005 343.595 224.658 343.595 226.642C343.595 228.626 345.236 230.279 347.205 230.279C349.175 230.279 350.816 228.626 350.816 226.642C350.816 224.658 349.24 223.005 347.205 223.005ZM347.205 228.493C346.221 228.493 345.367 227.7 345.367 226.642C345.367 225.65 346.155 224.79 347.205 224.79C348.19 224.79 349.043 225.584 349.043 226.642C349.043 227.634 348.256 228.493 347.205 228.493ZM376.482 231.271H378.254V222.013H376.482V231.271ZM399.194 218.839H342.151C340.444 218.839 339 220.228 339 222.013V231.337C339 233.056 340.378 234.511 342.151 234.511H368.933V239.933C367.423 240.263 366.176 241.454 365.848 243.041H346.024V244.826H365.848C366.242 246.678 367.883 248 369.786 248C371.756 248 373.331 246.611 373.725 244.826H433V243.041H373.725C373.397 241.52 372.215 240.263 370.64 239.933V234.511H399.128C400.835 234.511 402.279 233.122 402.279 231.337V222.013C402.345 220.228 400.966 218.839 399.194 218.839ZM372.149 243.9C372.149 245.157 371.099 246.215 369.852 246.215C368.605 246.215 367.554 245.157 367.554 243.9C367.554 242.644 368.605 241.586 369.852 241.586C371.099 241.586 372.149 242.578 372.149 243.9ZM400.573 231.271C400.573 231.998 399.982 232.593 399.26 232.593H342.216C341.494 232.593 340.904 231.998 340.904 231.271V221.947C340.904 221.22 341.494 220.625 342.216 220.625H399.26C399.982 220.625 400.573 221.22 400.573 221.947V231.271ZM395.387 231.271H397.159V222.013H395.387V231.271ZM390.661 213.417H392.433V204.16H390.661V213.417ZM395.387 213.417H397.159V204.16H395.387V213.417ZM399.194 200.986H342.151C340.444 200.986 339 202.374 339 204.16V213.483C339 215.202 340.378 216.657 342.151 216.657H399.194C400.901 216.657 402.345 215.269 402.345 213.483V204.16C402.345 202.374 400.966 200.986 399.194 200.986ZM400.573 213.417C400.573 214.144 399.982 214.74 399.26 214.74H342.216C341.494 214.74 340.904 214.144 340.904 213.417V204.094C340.904 203.366 341.494 202.771 342.216 202.771H399.26C399.982 202.771 400.573 203.366 400.573 204.094V213.417ZM347.205 205.152C345.236 205.152 343.595 206.805 343.595 208.788C343.595 210.772 345.236 212.425 347.205 212.425C349.175 212.425 350.816 210.772 350.816 208.788C350.816 206.739 349.24 205.152 347.205 205.152ZM347.205 210.64C346.221 210.64 345.367 209.846 345.367 208.788C345.367 207.797 346.155 206.937 347.205 206.937C348.19 206.937 349.043 207.73 349.043 208.788C349.043 209.78 348.256 210.574 347.205 210.64ZM381.208 213.417H382.98V204.16H381.208V213.417ZM376.482 213.417H378.254V204.16H376.482V213.417ZM385.934 213.417H387.707V204.16H385.934V213.417ZM383.046 186.24H381.274V195.497H383.046V186.24ZM392.433 186.24H390.661V195.497H392.433V186.24ZM397.159 186.24H395.387V195.497H397.159V186.24ZM387.707 186.24H385.934V195.497H387.707V186.24ZM378.32 186.24H376.482V195.497H378.254V186.24H378.32ZM342.216 198.671H399.26C400.966 198.671 402.411 197.283 402.411 195.497V186.174C402.411 184.455 401.032 183 399.26 183H342.216C340.51 183 339.066 184.389 339.066 186.174V195.497C339.066 197.283 340.444 198.671 342.216 198.671ZM340.838 186.24C340.838 185.513 341.429 184.918 342.151 184.918H399.194C399.916 184.918 400.507 185.513 400.507 186.24V195.564C400.507 196.291 399.916 196.886 399.194 196.886H342.151C341.429 196.886 340.838 196.291 340.838 195.564V186.24ZM347.205 194.506C349.175 194.506 350.816 192.852 350.816 190.869C350.816 188.885 349.175 187.232 347.205 187.232C345.236 187.232 343.595 188.885 343.595 190.869C343.595 192.919 345.236 194.506 347.205 194.506ZM347.205 189.017C348.19 189.017 349.043 189.811 349.043 190.869C349.043 191.861 348.256 192.72 347.205 192.72C346.221 192.72 345.367 191.927 345.367 190.869C345.367 189.877 346.221 189.017 347.205 189.017Z" fill="#0076FF"/>
<path d="M470.195 231.32H471.986V222.053H470.195V231.32ZM465.42 231.32H467.21V222.053H465.42V231.32ZM460.645 231.32H462.435V222.053H460.645V231.32ZM426.29 223.046C424.301 223.046 422.642 224.701 422.642 226.686C422.642 228.672 424.301 230.327 426.29 230.327C428.28 230.327 429.938 228.672 429.938 226.686C429.938 224.701 428.28 223.046 426.29 223.046ZM426.29 228.54C425.295 228.54 424.433 227.745 424.433 226.686C424.433 225.693 425.229 224.833 426.29 224.833C427.285 224.833 428.147 225.627 428.147 226.686C428.147 227.679 427.285 228.54 426.29 228.54ZM455.869 231.32H457.66V222.053H455.869V231.32ZM453.15 243.036C452.819 241.513 451.625 240.256 450.033 239.925V234.497H478.817C480.541 234.497 482 233.107 482 231.32V221.987C482 220.266 480.607 218.81 478.817 218.81H421.183C419.459 218.81 418 220.2 418 221.987V231.32C418 233.041 419.393 234.497 421.183 234.497H448.242V239.925C446.717 240.256 445.457 241.447 445.125 243.036H425.096V244.823H445.125C445.523 246.676 447.181 248 449.105 248C451.094 248 452.686 246.61 453.084 244.823L453.15 243.036ZM451.426 243.962C451.426 245.22 450.365 246.279 449.105 246.279C447.845 246.279 446.783 245.22 446.783 243.962C446.783 242.705 447.845 241.646 449.105 241.646C450.431 241.646 451.426 242.638 451.426 243.962ZM480.143 231.32C480.143 232.048 479.546 232.644 478.817 232.644H421.183C420.454 232.644 419.857 232.048 419.857 231.32V221.987C419.857 221.259 420.454 220.663 421.183 220.663H478.817C479.546 220.663 480.143 221.259 480.143 221.987V231.32ZM474.97 231.32H476.761V222.053H474.97V231.32ZM470.195 213.448H471.986V204.181H470.195V213.448ZM474.97 213.448H476.761V204.181H474.97V213.448ZM478.817 201.004H421.183C419.459 201.004 418 202.394 418 204.181V213.514C418 215.235 419.393 216.691 421.183 216.691H478.817C480.541 216.691 482 215.301 482 213.514V204.181C482 202.394 480.541 201.004 478.817 201.004ZM480.143 213.448C480.143 214.176 479.546 214.772 478.817 214.772H421.183C420.454 214.772 419.857 214.176 419.857 213.448V204.115C419.857 203.387 420.454 202.791 421.183 202.791H478.817C479.546 202.791 480.143 203.387 480.143 204.115V213.448ZM426.29 205.174C424.301 205.174 422.642 206.829 422.642 208.815C422.642 210.8 424.301 212.455 426.29 212.455C428.28 212.455 429.938 210.8 429.938 208.815C429.938 206.763 428.28 205.174 426.29 205.174ZM426.29 210.668C425.295 210.668 424.433 209.874 424.433 208.815C424.433 207.822 425.229 206.961 426.29 206.961C427.285 206.961 428.147 207.756 428.147 208.815C428.147 209.808 427.285 210.602 426.29 210.668ZM460.645 213.448H462.435V204.181H460.645V213.448ZM455.869 213.448H457.66V204.181H455.869V213.448ZM465.42 213.448H467.21V204.181H465.42V213.448ZM462.435 186.243H460.645V195.51H462.435V186.243ZM471.986 186.243H470.195V195.51H471.986V186.243ZM476.761 186.243H474.97V195.51H476.761V186.243ZM467.21 186.243H465.42V195.51H467.21V186.243ZM457.66 186.243H455.869V195.51H457.66V186.243ZM421.183 198.687H478.817C480.541 198.687 482 197.297 482 195.51V186.177C482 184.456 480.607 183 478.817 183H421.183C419.459 183 418 184.39 418 186.177V195.51C418.066 197.297 419.459 198.687 421.183 198.687ZM419.857 186.243C419.857 185.515 420.454 184.92 421.183 184.92H478.817C479.546 184.92 480.143 185.515 480.143 186.243V195.576C480.143 196.304 479.546 196.9 478.817 196.9H421.183C420.454 196.9 419.857 196.304 419.857 195.576V186.243ZM426.29 194.517C428.28 194.517 429.938 192.863 429.938 190.877C429.938 188.891 428.28 187.236 426.29 187.236C424.301 187.236 422.642 188.891 422.642 190.877C422.642 192.929 424.234 194.517 426.29 194.517ZM426.29 189.023C427.285 189.023 428.147 189.818 428.147 190.877C428.147 191.87 427.351 192.73 426.29 192.73C425.295 192.73 424.433 191.936 424.433 190.877C424.433 189.884 425.295 189.023 426.29 189.023Z" fill="#0076FF"/>
<mask id="path-7-inside-1" fill="white">
<path d="M655.611 231.384H657.374V222.105H655.611V231.384ZM650.911 231.384H652.673V222.105H650.911V231.384ZM646.21 231.384H647.973V222.105H646.21V231.384ZM612.393 223.099C610.434 223.099 608.802 224.756 608.802 226.744C608.802 228.733 610.434 230.39 612.393 230.39C614.351 230.39 615.983 228.733 615.983 226.744C615.983 224.756 614.351 223.099 612.393 223.099ZM612.393 228.6C611.413 228.6 610.565 227.805 610.565 226.744C610.565 225.75 611.348 224.888 612.393 224.888C613.372 224.888 614.221 225.684 614.221 226.744C614.155 227.738 613.372 228.6 612.393 228.6ZM641.51 231.384H643.272V222.105H641.51V231.384ZM636 240V234.565H664.098C665.796 234.565 667.232 233.173 667.232 231.384V222.038C667.232 220.315 665.861 218.857 664.098 218.857H607.366C605.668 218.857 604.232 220.249 604.232 222.038V231.384C604.232 233.107 605.603 234.565 607.366 234.565H634.002V240H636ZM665.404 231.384C665.404 232.113 664.816 232.709 664.098 232.709H607.366C606.648 232.709 606.06 232.113 606.06 231.384V222.038C606.06 221.309 606.648 220.713 607.366 220.713H664.098C664.816 220.713 665.404 221.309 665.404 222.038V231.384ZM660.312 231.384H662.074V222.105H660.312V231.384ZM655.611 213.488H657.374V204.209H655.611V213.488ZM660.312 213.488H662.074V204.209H660.312V213.488ZM664.098 201.028H607.366C605.668 201.028 604.232 202.42 604.232 204.209V213.555C604.232 215.278 605.603 216.736 607.366 216.736H664.098C665.796 216.736 667.232 215.344 667.232 213.555V204.209C667.167 202.42 665.796 201.028 664.098 201.028ZM665.404 213.488C665.404 214.217 664.816 214.814 664.098 214.814H607.366C606.648 214.814 606.06 214.217 606.06 213.488V204.143C606.06 203.414 606.648 202.817 607.366 202.817H664.098C664.816 202.817 665.404 203.414 665.404 204.143V213.488ZM612.393 205.203C610.434 205.203 608.802 206.86 608.802 208.849C608.802 210.837 610.434 212.494 612.393 212.494C614.351 212.494 615.983 210.837 615.983 208.849C615.983 206.794 614.351 205.203 612.393 205.203ZM612.393 210.705C611.413 210.705 610.565 209.909 610.565 208.849C610.565 207.855 611.348 206.993 612.393 206.993C613.372 206.993 614.221 207.788 614.221 208.849C614.155 209.843 613.372 210.638 612.393 210.705ZM646.21 213.488H647.973V204.209H646.21V213.488ZM641.51 213.488H643.272V204.209H641.51V213.488ZM650.911 213.488H652.673V204.209H650.911V213.488ZM647.973 186.248H646.21V195.527H647.973V186.248ZM657.374 186.248H655.611V195.527H657.374V186.248ZM662.074 186.248H660.312V195.527H662.074V186.248ZM652.673 186.248H650.911V195.527H652.673V186.248ZM643.272 186.248H641.51V195.527H643.272V186.248ZM607.366 198.708H664.098C665.796 198.708 667.232 197.316 667.232 195.527V186.181C667.232 184.458 665.861 183 664.098 183H607.366C605.668 183 604.232 184.392 604.232 186.181V195.527C604.232 197.316 605.668 198.708 607.366 198.708ZM606.06 186.248C606.06 185.519 606.648 184.922 607.366 184.922H664.098C664.816 184.922 665.404 185.519 665.404 186.248V195.593C665.404 196.322 664.816 196.919 664.098 196.919H607.366C606.648 196.919 606.06 196.322 606.06 195.593V186.248ZM612.393 194.533C614.351 194.533 615.983 192.876 615.983 190.887C615.983 188.899 614.351 187.242 612.393 187.242C610.434 187.242 608.802 188.899 608.802 190.887C608.802 192.942 610.369 194.533 612.393 194.533ZM612.393 189.031C613.372 189.031 614.221 189.827 614.221 190.887C614.221 191.881 613.437 192.743 612.393 192.743C611.413 192.743 610.565 191.948 610.565 190.887C610.565 189.893 611.348 189.031 612.393 189.031Z"/>
</mask>
<path d="M655.611 231.384H657.374V222.105H655.611V231.384ZM650.911 231.384H652.673V222.105H650.911V231.384ZM646.21 231.384H647.973V222.105H646.21V231.384ZM612.393 223.099C610.434 223.099 608.802 224.756 608.802 226.744C608.802 228.733 610.434 230.39 612.393 230.39C614.351 230.39 615.983 228.733 615.983 226.744C615.983 224.756 614.351 223.099 612.393 223.099ZM612.393 228.6C611.413 228.6 610.565 227.805 610.565 226.744C610.565 225.75 611.348 224.888 612.393 224.888C613.372 224.888 614.221 225.684 614.221 226.744C614.155 227.738 613.372 228.6 612.393 228.6ZM641.51 231.384H643.272V222.105H641.51V231.384ZM636 240V234.565H664.098C665.796 234.565 667.232 233.173 667.232 231.384V222.038C667.232 220.315 665.861 218.857 664.098 218.857H607.366C605.668 218.857 604.232 220.249 604.232 222.038V231.384C604.232 233.107 605.603 234.565 607.366 234.565H634.002V240H636ZM665.404 231.384C665.404 232.113 664.816 232.709 664.098 232.709H607.366C606.648 232.709 606.06 232.113 606.06 231.384V222.038C606.06 221.309 606.648 220.713 607.366 220.713H664.098C664.816 220.713 665.404 221.309 665.404 222.038V231.384ZM660.312 231.384H662.074V222.105H660.312V231.384ZM655.611 213.488H657.374V204.209H655.611V213.488ZM660.312 213.488H662.074V204.209H660.312V213.488ZM664.098 201.028H607.366C605.668 201.028 604.232 202.42 604.232 204.209V213.555C604.232 215.278 605.603 216.736 607.366 216.736H664.098C665.796 216.736 667.232 215.344 667.232 213.555V204.209C667.167 202.42 665.796 201.028 664.098 201.028ZM665.404 213.488C665.404 214.217 664.816 214.814 664.098 214.814H607.366C606.648 214.814 606.06 214.217 606.06 213.488V204.143C606.06 203.414 606.648 202.817 607.366 202.817H664.098C664.816 202.817 665.404 203.414 665.404 204.143V213.488ZM612.393 205.203C610.434 205.203 608.802 206.86 608.802 208.849C608.802 210.837 610.434 212.494 612.393 212.494C614.351 212.494 615.983 210.837 615.983 208.849C615.983 206.794 614.351 205.203 612.393 205.203ZM612.393 210.705C611.413 210.705 610.565 209.909 610.565 208.849C610.565 207.855 611.348 206.993 612.393 206.993C613.372 206.993 614.221 207.788 614.221 208.849C614.155 209.843 613.372 210.638 612.393 210.705ZM646.21 213.488H647.973V204.209H646.21V213.488ZM641.51 213.488H643.272V204.209H641.51V213.488ZM650.911 213.488H652.673V204.209H650.911V213.488ZM647.973 186.248H646.21V195.527H647.973V186.248ZM657.374 186.248H655.611V195.527H657.374V186.248ZM662.074 186.248H660.312V195.527H662.074V186.248ZM652.673 186.248H650.911V195.527H652.673V186.248ZM643.272 186.248H641.51V195.527H643.272V186.248ZM607.366 198.708H664.098C665.796 198.708 667.232 197.316 667.232 195.527V186.181C667.232 184.458 665.861 183 664.098 183H607.366C605.668 183 604.232 184.392 604.232 186.181V195.527C604.232 197.316 605.668 198.708 607.366 198.708ZM606.06 186.248C606.06 185.519 606.648 184.922 607.366 184.922H664.098C664.816 184.922 665.404 185.519 665.404 186.248V195.593C665.404 196.322 664.816 196.919 664.098 196.919H607.366C606.648 196.919 606.06 196.322 606.06 195.593V186.248ZM612.393 194.533C614.351 194.533 615.983 192.876 615.983 190.887C615.983 188.899 614.351 187.242 612.393 187.242C610.434 187.242 608.802 188.899 608.802 190.887C608.802 192.942 610.369 194.533 612.393 194.533ZM612.393 189.031C613.372 189.031 614.221 189.827 614.221 190.887C614.221 191.881 613.437 192.743 612.393 192.743C611.413 192.743 610.565 191.948 610.565 190.887C610.565 189.893 611.348 189.031 612.393 189.031Z" stroke="#0076FF" stroke-width="2" mask="url(#path-7-inside-1)"/>
<path d="M978.5 228C977.143 228 976 229.071 976 230.5C976 231.929 977.143 233 978.5 233C979.857 233 981 231.929 981 230.5C980.929 229.143 979.857 228 978.5 228ZM978.5 232.071C977.643 232.071 976.929 231.357 976.929 230.5C976.929 229.643 977.643 228.929 978.5 228.929C979.357 228.929 980.071 229.643 980.071 230.5C980.071 231.357 979.357 232.071 978.5 232.071Z" fill="#0076FF"/>
<path d="M982 186H975V187H982V186Z" fill="#0076FF"/>
<path d="M992.671 182H963.329C960.924 182 959 183.86 959 186.184V230.816C959 233.14 960.924 235 963.329 235H992.671C995.076 235 997 233.14 997 230.816V186.184C997 183.86 995.076 182 992.671 182ZM963.329 183.66H992.671C994.114 183.66 995.282 184.789 995.282 186.184V187.446H960.718V186.184C960.718 184.789 961.886 183.66 963.329 183.66ZM995.282 226.034H960.718V188.243H995.282V226.034ZM992.671 233.34H963.329C961.886 233.34 960.718 232.211 960.718 230.816V226.831H995.282V230.816C995.282 232.211 994.114 233.34 992.671 233.34Z" fill="#0076FF"/>
<path d="M1014 229C1012.89 229 1012 229.889 1012 231C1012 232.111 1012.89 233 1014 233C1015.11 233 1016 232.111 1016 231C1015.93 229.889 1015.04 229 1014 229ZM1014 232.037C1013.41 232.037 1012.96 231.593 1012.96 231C1012.96 230.407 1013.41 229.963 1014 229.963C1014.59 229.963 1015.04 230.407 1015.04 231C1015.04 231.519 1014.52 232.037 1014 232.037Z" fill="#0076FF"/>
<path d="M1019.59 200H1008.41C1005.97 200 1004 201.89 1004 204.237V230.763C1004 233.11 1005.97 235 1008.41 235H1019.59C1022.03 235 1024 233.11 1024 230.763V204.237C1024 201.89 1022.03 200 1019.59 200ZM1008.41 201.629H1019.59C1021.08 201.629 1022.31 202.803 1022.31 204.237V204.302H1005.76V204.237C1005.69 202.803 1006.92 201.629 1008.41 201.629ZM1022.31 227.505H1005.76V205.149H1022.31V227.505ZM1019.59 233.371H1008.41C1006.92 233.371 1005.69 232.197 1005.69 230.763V228.352H1022.24V230.763C1022.31 232.197 1021.08 233.371 1019.59 233.371Z" fill="#0076FF"/>
<path d="M946.878 167H881.122C878.832 167 877 168.862 877 171.19V218.81C877 221.138 878.832 223 881.122 223H946.878C949.168 223 951 221.138 951 218.81V171.19C950.935 168.862 949.103 167 946.878 167ZM881.057 168.663H946.813C948.187 168.663 949.299 169.793 949.299 171.19V173.518H878.57V171.19C878.636 169.793 879.683 168.663 881.057 168.663ZM949.299 215.485H878.57V174.316H949.299V215.485ZM946.878 221.337H881.122C879.748 221.337 878.636 220.207 878.636 218.81V216.283H949.364V218.81C949.299 220.207 948.187 221.337 946.878 221.337Z" fill="#0076FF"/>
<path d="M923.98 233.333C922.143 233.333 920.7 231.8 920.7 230V225H919.06V230C919.06 231.267 919.519 232.467 920.306 233.333H908.694C909.481 232.467 909.94 231.267 909.94 230V225H908.3V230C908.3 231.867 906.791 233.333 905.02 233.333H901.28H898V235H901.28H905.02H923.98H927.72H931V233.333H927.72H923.98Z" fill="#0076FF"/>
<path d="M914 172C914.562 172 915 171.562 915 171C915 170.438 914.562 170 914 170C913.437 170 913 170.438 913 171C913 171.562 913.437 172 914 172Z" fill="#0076FF"/>
<path d="M919 218C918.437 218 918 218.438 918 219C918 219.562 918.437 220 919 220C919.563 220 920 219.562 920 219C919.937 218.438 919.5 218 919 218Z" fill="#0076FF"/>
<path d="M915 218C914.437 218 914 218.438 914 219C914 219.562 914.437 220 915 220C915.562 220 916 219.562 916 219C916 218.438 915.562 218 915 218Z" fill="#0076FF"/>
<path d="M911 218C910.437 218 910 218.438 910 219C910 219.562 910.437 220 911 220C911.563 220 912 219.562 912 219C912 218.438 911.563 218 911 218Z" fill="#0076FF"/>
<path d="M838 195C838.563 195 839 194.562 839 194C839 193.437 838.563 193 838 193C837.437 193 837 193.437 837 194C837.063 194.562 837.5 195 838 195Z" fill="#0076FF"/>
<path d="M868 232C868.563 232 869 231.563 869 231C869 230.438 868.563 230 868 230C867.437 230 867 230.438 867 231C867.063 231.563 867.5 232 868 232Z" fill="#0076FF"/>
<path d="M864 232C864.563 232 865 231.563 865 231C865 230.438 864.563 230 864 230C863.437 230 863 230.438 863 231C863.063 231.563 863.5 232 864 232Z" fill="#0076FF"/>
<path d="M860 232C860.563 232 861 231.563 861 231C861 230.438 860.563 230 860 230C859.437 230 859 230.438 859 231C859 231.563 859.437 232 860 232Z" fill="#0076FF"/>
<path d="M810.743 196.766H866.324V225H868V194.099C868 191.822 866.123 190 863.776 190H813.224C810.877 190 809 191.822 809 194.099V224.74H810.676V196.766H810.743ZM813.224 191.626H863.776C865.184 191.626 866.324 192.732 866.324 194.099V195.92H810.743V194.099C810.743 192.732 811.816 191.626 813.224 191.626Z" fill="#0076FF"/>
<path d="M803 231C803 233.222 804.856 235 807.176 235H868.824C871.144 235 873 233.222 873 231V227H803V231ZM833.824 228.587H842.176V230.175H833.824V228.587ZM804.723 228.587H833.028V231H843.038V228.587H871.343V231C871.343 232.333 870.216 233.413 868.824 233.413H807.176C805.784 233.413 804.657 232.333 804.657 231V228.587H804.723Z" fill="#0076FF"/>
<path d="M1016 203H1012V204H1016V203Z" fill="#0076FF"/>
<path d="M661.868 452.795C660.684 448.364 652.066 444 637 444C621.934 444 613.316 448.364 612.132 452.795C612.066 452.932 612 453.136 612 453.273V491.659C612 491.795 612.066 492 612.132 492.136C613.316 497.182 623.908 501 637 501C650.092 501 660.684 497.25 661.868 492.205C661.934 492.068 662 491.864 662 491.727V453.273C662 453.068 662 452.932 661.868 452.795ZM659.961 479.182C659.961 479.318 659.895 479.455 659.829 479.523C659.763 479.659 659.763 479.727 659.697 479.864C659.632 480 659.566 480.136 659.5 480.273C659.434 480.341 659.368 480.477 659.303 480.545C659.171 480.682 659.105 480.818 658.908 480.955C658.842 481.023 658.711 481.091 658.645 481.227C658.513 481.364 658.316 481.5 658.118 481.636C658.053 481.705 657.921 481.773 657.855 481.841C657.658 481.977 657.395 482.182 657.132 482.318C657.066 482.386 657 482.386 656.934 482.455C656.605 482.591 656.342 482.795 656.013 483C655.947 483 655.947 483.068 655.882 483.068C655.487 483.273 655.092 483.409 654.697 483.614C654.697 483.614 654.697 483.614 654.632 483.614C652.329 484.568 649.434 485.318 646.079 485.864H646.013C645.355 485.932 644.697 486.068 643.974 486.136C643.842 486.136 643.711 486.136 643.645 486.205C643.053 486.273 642.395 486.341 641.803 486.409C641.539 486.409 641.211 486.409 640.947 486.477C640.487 486.477 640.026 486.545 639.5 486.545C638.71 486.545 637.921 486.614 637.066 486.614C636.211 486.614 635.421 486.614 634.632 486.545C634.171 486.545 633.645 486.477 633.184 486.477C632.921 486.477 632.592 486.477 632.329 486.409C631.671 486.341 631.079 486.273 630.487 486.205C630.355 486.205 630.224 486.205 630.158 486.136C629.434 486.068 628.776 486 628.118 485.864H628.053C624.697 485.318 621.737 484.568 619.5 483.614C619.5 483.614 619.5 483.614 619.434 483.614C619.039 483.409 618.645 483.273 618.25 483.068C618.184 483.068 618.184 483 618.118 483C617.789 482.864 617.461 482.659 617.197 482.455C617.132 482.386 617.066 482.386 617 482.318C616.737 482.182 616.474 481.977 616.276 481.841C616.211 481.773 616.079 481.705 616.013 481.636C615.816 481.5 615.684 481.364 615.487 481.227C615.421 481.159 615.289 481.091 615.224 480.955C615.092 480.818 614.96 480.682 614.829 480.545C614.763 480.477 614.697 480.341 614.632 480.273C614.566 480.136 614.5 480 614.434 479.864C614.368 479.727 614.303 479.659 614.303 479.523C614.237 479.386 614.237 479.25 614.171 479.182C614.105 479.045 614.105 478.841 614.105 478.705C614.105 478.568 614.105 478.5 614.105 478.364C614.105 478.227 614.105 478.023 614.105 477.886V470.182L614.171 470.25C614.368 470.455 614.632 470.659 614.895 470.864C618.645 473.795 626.21 476.114 637.132 476.114C647.987 476.114 655.487 473.864 659.303 470.932C659.632 470.727 659.895 470.455 660.158 470.25V477.955C660.092 478.091 660.092 478.295 660.158 478.432C660.158 478.568 660.158 478.636 660.158 478.773C660.026 478.841 659.961 478.977 659.961 479.182ZM660.026 457.705V465.409C659.961 465.545 659.961 465.682 660.026 465.886C660.026 466.023 660.026 466.091 660.026 466.227C660.026 466.364 659.961 466.568 659.961 466.705C659.961 466.841 659.895 466.977 659.829 467.045C659.763 467.114 659.763 467.25 659.697 467.386C659.632 467.523 659.566 467.659 659.5 467.795C659.434 467.864 659.368 468 659.303 468.068C659.171 468.205 659.105 468.341 658.908 468.477C658.842 468.545 658.711 468.614 658.645 468.75C658.513 468.886 658.316 469.023 658.118 469.159C658.053 469.227 657.921 469.295 657.855 469.364C657.658 469.5 657.395 469.705 657.132 469.841C657.066 469.909 657 469.909 656.934 469.977C656.605 470.182 656.342 470.318 656.013 470.523C655.947 470.523 655.947 470.591 655.882 470.591C655.487 470.795 655.092 470.932 654.697 471.136C654.697 471.136 654.697 471.136 654.632 471.136C652.329 472.091 649.434 472.841 646.079 473.386H646.013C645.355 473.455 644.697 473.591 643.974 473.659C643.842 473.659 643.711 473.659 643.645 473.727C643.053 473.795 642.395 473.864 641.803 473.864C641.539 473.864 641.211 473.932 640.947 473.932C640.487 473.932 640.026 474 639.5 474C638.71 474 637.921 474.068 637.066 474.068C636.211 474.068 635.421 474.068 634.632 474C634.171 474 633.645 473.932 633.184 473.932C632.921 473.932 632.592 473.932 632.329 473.864C631.671 473.795 631.079 473.727 630.487 473.659C630.355 473.659 630.224 473.659 630.158 473.659C629.434 473.591 628.776 473.455 628.118 473.386H628.053C624.697 472.841 621.737 472.091 619.5 471.136C619.5 471.136 619.5 471.136 619.434 471.136C619.039 470.932 618.645 470.795 618.25 470.591C618.184 470.591 618.184 470.523 618.118 470.523C617.789 470.386 617.461 470.182 617.197 470.045C617.132 469.977 617.066 469.977 617 469.909C616.737 469.773 616.474 469.568 616.276 469.432C616.211 469.364 616.079 469.295 616.013 469.227C615.816 469.091 615.684 468.955 615.487 468.818C615.421 468.75 615.289 468.682 615.224 468.545C615.092 468.409 614.96 468.273 614.829 468.136C614.763 468.068 614.697 467.932 614.632 467.864C614.566 467.727 614.5 467.591 614.434 467.455C614.368 467.386 614.303 467.25 614.303 467.114C614.237 466.977 614.237 466.841 614.171 466.773C614.105 466.636 614.105 466.432 614.105 466.295C614.105 466.159 614.105 466.091 614.105 465.955C614.105 465.818 614.105 465.614 614.105 465.477V457.773C614.237 457.909 614.368 457.977 614.5 458.114C614.566 458.182 614.632 458.25 614.697 458.318C615.026 458.591 615.355 458.795 615.684 459.068C615.75 459.136 615.816 459.136 615.882 459.205C616.145 459.409 616.474 459.545 616.803 459.75C616.934 459.818 617.066 459.886 617.197 459.955C617.592 460.159 617.921 460.364 618.382 460.5C618.447 460.5 618.513 460.568 618.579 460.568C619.039 460.773 619.566 460.977 620.092 461.182C620.224 461.25 620.355 461.25 620.553 461.318C620.947 461.455 621.408 461.591 621.803 461.727C621.934 461.795 622.132 461.795 622.263 461.864C622.855 462 623.447 462.205 624.105 462.341C624.171 462.341 624.303 462.409 624.368 462.409C624.895 462.545 625.487 462.682 626.079 462.75C626.276 462.818 626.474 462.818 626.671 462.886C627.263 462.955 627.789 463.091 628.447 463.159C628.579 463.159 628.776 463.227 628.908 463.227C629.632 463.295 630.421 463.432 631.21 463.5C631.408 463.5 631.605 463.5 631.803 463.568C632.461 463.636 633.053 463.636 633.711 463.705C633.974 463.705 634.171 463.705 634.434 463.705C635.289 463.705 636.211 463.773 637.066 463.773C637.987 463.773 638.842 463.773 639.697 463.705C639.961 463.705 640.158 463.705 640.421 463.705C641.079 463.636 641.737 463.636 642.329 463.568C642.526 463.568 642.724 463.568 642.921 463.5C643.711 463.432 644.5 463.364 645.224 463.227C645.355 463.227 645.553 463.159 645.684 463.159C646.276 463.091 646.868 463.023 647.461 462.886C647.658 462.886 647.855 462.818 648.053 462.75C648.645 462.614 649.237 462.545 649.763 462.409C649.829 462.409 649.96 462.341 650.026 462.341C650.684 462.205 651.276 462.068 651.868 461.864C652 461.795 652.197 461.795 652.329 461.727C652.789 461.591 653.184 461.455 653.579 461.318C653.71 461.25 653.842 461.25 654.039 461.182C654.566 460.977 655.026 460.773 655.553 460.568C655.618 460.568 655.684 460.5 655.75 460.5C656.145 460.295 656.539 460.159 656.934 459.955C657.066 459.886 657.197 459.818 657.329 459.75C657.658 459.545 657.987 459.409 658.25 459.205C658.316 459.136 658.382 459.136 658.447 459.068C658.776 458.864 659.105 458.591 659.434 458.318C659.5 458.25 659.566 458.182 659.632 458.114C659.763 457.977 659.895 457.841 660.026 457.705ZM637 446.045C650.553 446.045 660.026 450.136 660.026 453.818C660.026 457.5 650.553 461.591 637 461.591C623.447 461.591 613.974 457.5 613.974 453.818C614.039 450.136 623.447 446.045 637 446.045ZM660.026 491.318C660.026 491.386 660.026 491.386 660.026 491.455C659.434 495.068 650.092 498.886 637.066 498.886C624.039 498.886 614.632 495.068 614.105 491.455C614.105 491.386 614.105 491.386 614.105 491.318V482.591L614.171 482.659C614.368 482.864 614.632 483.068 614.895 483.273C618.645 486.205 626.21 488.523 637.132 488.523C647.987 488.523 655.487 486.273 659.303 483.341C659.632 483.136 659.895 482.864 660.158 482.659V491.318H660.026Z" fill="#0076FF"/>
<path d="M916.854 454.005C916.652 454.518 916.652 455.096 916.854 455.545C917.056 455.93 917.527 456.443 918.671 456.443C921.161 456.443 921.969 459.075 922.036 459.203L922.372 460.422C922.507 460.743 922.843 461 923.18 461C923.247 461 923.314 461 923.382 461C923.853 460.872 924.055 460.422 923.987 460.037L923.651 458.882C923.247 457.534 921.699 454.967 918.739 454.967C918.604 454.967 918.469 454.967 918.402 454.967C918.402 454.646 918.806 453.94 919.21 453.363C919.479 453.042 919.411 452.529 919.075 452.272C917.662 451.245 915.105 453.363 913.692 454.711C908.981 459.203 906.222 458.433 906.155 458.369C905.751 458.24 905.28 458.369 905.078 458.818C904.876 459.203 905.078 459.716 905.549 459.845C905.953 459.973 909.317 461.128 914.903 455.802C915.643 454.839 916.316 454.326 916.854 454.005Z" fill="#0076FF"/>
<path d="M934.006 483.861L920.803 479.324L919.633 476.991V475.954C920.608 475.565 922.364 474.593 922.624 472.907C922.819 472 923.014 470.639 923.275 469.537H923.34C924.055 469.602 924.835 469.148 925.551 468.176C926.461 467.009 926.852 465.389 926.591 463.963C926.396 463.056 926.071 462.407 925.486 462.083C925.226 461.954 925.031 461.889 924.835 461.824C924.901 461.565 924.966 461.306 925.031 461.046C925.226 460.204 925.356 458.778 925.356 458.778V458.713C925.356 449.769 920.478 444 912.869 444C905.259 444 900.382 449.769 900.382 458.713C900.382 458.778 900.447 460.333 900.707 461.37C900.772 461.5 900.772 461.694 900.837 461.824C900.577 461.824 900.316 461.954 900.056 462.083C899.536 462.407 899.146 463.056 898.951 463.963C898.69 465.389 899.081 467.009 899.991 468.176C900.707 469.148 901.422 469.602 902.203 469.537C902.398 470.509 902.658 471.546 902.918 472.648C903.243 474.009 904.414 475.37 905.715 475.954V476.602C905.649 476.667 905.584 476.731 905.584 476.796L904.219 479.454L891.992 483.861C890.171 484.574 889 486.259 889 488.204V496.694C889 498.509 890.496 500 892.317 500H933.681C935.502 500 936.997 498.509 936.997 496.694V488.269C937.062 486.259 935.892 484.509 934.006 483.861ZM913.519 489.241L915.665 498.38H909.812L911.958 489.241C912.023 489.046 911.958 488.917 911.893 488.722L910.527 485.417L912.608 483.278L914.95 485.546L913.649 488.657C913.454 488.852 913.454 489.046 913.519 489.241ZM916.446 484.898C916.381 484.833 916.381 484.833 916.316 484.769L914.039 482.565L917.161 481.139C917.942 480.75 918.592 480.167 919.047 479.454L919.958 481.269C920.218 481.722 920.218 481.981 919.893 482.565L917.031 485.546L916.446 484.898ZM904.544 472.194C904.284 471.093 903.698 468.824 903.633 467.657C903.633 467.204 903.243 466.88 902.853 466.88C902.398 466.88 902.072 467.269 902.072 467.657V467.787C901.942 467.722 901.682 467.528 901.422 467.139C900.837 466.361 900.512 465.259 900.707 464.287C900.772 463.769 900.967 463.444 901.032 463.38C901.227 463.25 901.552 463.574 901.552 463.574C901.812 463.898 902.203 463.963 902.528 463.769C902.853 463.574 903.048 463.185 902.918 462.861C902.918 462.861 902.528 461.565 902.333 460.852C902.138 460.139 902.072 458.972 902.072 458.648C902.072 452.62 904.934 445.556 912.934 445.556C920.933 445.556 923.795 452.556 923.795 458.583C923.795 458.778 923.665 459.944 923.535 460.657C923.34 461.5 923.014 462.537 923.014 462.602C922.884 462.926 923.014 463.315 923.34 463.509C923.665 463.704 924.055 463.639 924.315 463.444C924.51 463.25 924.705 463.38 924.77 463.444C924.836 463.509 925.031 463.769 925.096 464.352C925.226 465.324 924.966 466.426 924.38 467.204C924.055 467.657 923.795 467.852 923.665 467.917C923.6 467.593 923.34 467.333 923.014 467.269C922.624 467.204 922.234 467.463 922.104 467.852C921.779 468.954 921.454 470.833 921.128 472.648C920.933 473.685 919.242 474.463 918.657 474.657C918.332 474.787 918.072 475.046 918.072 475.435V477.769C917.942 478.611 917.356 479.324 916.576 479.713L912.804 481.463L908.706 479.583C908.121 479.324 907.666 478.806 907.405 478.222V475.435C907.405 475.046 907.145 474.787 906.82 474.657C905.845 474.333 904.739 473.167 904.544 472.194ZM906.105 479.259C906.56 479.972 907.21 480.556 907.991 480.944L911.178 482.37L908.251 485.287L905.194 482.241C904.934 481.981 904.804 481.852 905.194 481.074L906.105 479.259ZM890.626 496.63V488.139C890.626 486.843 891.406 485.741 892.577 485.287L903.373 481.398C903.243 481.982 903.373 482.759 904.089 483.407L907.666 487.037C907.796 487.167 907.991 487.296 908.251 487.296C908.511 487.296 908.641 487.231 908.836 487.037L909.292 486.583L910.332 489.046L908.186 498.315H892.382C891.406 498.315 890.626 497.602 890.626 496.63ZM935.502 496.63C935.502 497.602 934.721 498.315 933.811 498.315H917.356L915.21 489.046L916.186 486.713L916.641 487.167C916.771 487.296 916.966 487.426 917.226 487.426C917.421 487.426 917.616 487.361 917.811 487.167L921.323 483.537C921.389 483.472 921.388 483.472 921.454 483.407C921.974 482.63 922.104 481.981 921.974 481.269L933.681 485.287C934.851 485.741 935.632 486.907 935.632 488.139V496.63H935.502Z" fill="#0076FF"/>
<path d="M974.854 454.005C974.652 454.518 974.652 455.096 974.854 455.545C975.056 455.93 975.527 456.443 976.671 456.443C979.161 456.443 979.969 459.075 980.036 459.203L980.372 460.422C980.507 460.743 980.843 461 981.18 461C981.247 461 981.314 461 981.382 461C981.853 460.872 982.055 460.422 981.987 460.037L981.651 458.882C981.247 457.534 979.699 454.967 976.739 454.967C976.604 454.967 976.469 454.967 976.402 454.967C976.402 454.646 976.806 453.94 977.21 453.363C977.479 453.042 977.411 452.529 977.075 452.272C975.662 451.245 973.105 453.363 971.692 454.711C966.981 459.203 964.222 458.433 964.155 458.369C963.751 458.24 963.28 458.369 963.078 458.818C962.876 459.203 963.078 459.716 963.549 459.845C963.953 459.973 967.317 461.128 972.903 455.802C973.643 454.839 974.316 454.326 974.854 454.005Z" fill="#0076FF"/>
<path d="M992.006 483.861L978.803 479.324L977.633 476.991V475.954C978.608 475.565 980.364 474.593 980.624 472.907C980.819 472 981.014 470.639 981.275 469.537H981.34C982.055 469.602 982.835 469.148 983.551 468.176C984.461 467.009 984.852 465.389 984.591 463.963C984.396 463.056 984.071 462.407 983.486 462.083C983.226 461.954 983.031 461.889 982.835 461.824C982.901 461.565 982.966 461.306 983.031 461.046C983.226 460.204 983.356 458.778 983.356 458.778V458.713C983.356 449.769 978.478 444 970.869 444C963.259 444 958.382 449.769 958.382 458.713C958.382 458.778 958.447 460.333 958.707 461.37C958.772 461.5 958.772 461.694 958.837 461.824C958.577 461.824 958.316 461.954 958.056 462.083C957.536 462.407 957.146 463.056 956.951 463.963C956.69 465.389 957.081 467.009 957.991 468.176C958.707 469.148 959.422 469.602 960.203 469.537C960.398 470.509 960.658 471.546 960.918 472.648C961.243 474.009 962.414 475.37 963.715 475.954V476.602C963.649 476.667 963.584 476.731 963.584 476.796L962.219 479.454L949.992 483.861C948.171 484.574 947 486.259 947 488.204V496.694C947 498.509 948.496 500 950.317 500H991.681C993.502 500 994.997 498.509 994.997 496.694V488.269C995.062 486.259 993.892 484.509 992.006 483.861ZM971.519 489.241L973.665 498.38H967.812L969.958 489.241C970.023 489.046 969.958 488.917 969.893 488.722L968.527 485.417L970.608 483.278L972.95 485.546L971.649 488.657C971.454 488.852 971.454 489.046 971.519 489.241ZM974.446 484.898C974.381 484.833 974.381 484.833 974.316 484.769L972.039 482.565L975.161 481.139C975.942 480.75 976.592 480.167 977.047 479.454L977.958 481.269C978.218 481.722 978.218 481.981 977.893 482.565L975.031 485.546L974.446 484.898ZM962.544 472.194C962.284 471.093 961.698 468.824 961.633 467.657C961.633 467.204 961.243 466.88 960.853 466.88C960.398 466.88 960.072 467.269 960.072 467.657V467.787C959.942 467.722 959.682 467.528 959.422 467.139C958.837 466.361 958.512 465.259 958.707 464.287C958.772 463.769 958.967 463.444 959.032 463.38C959.227 463.25 959.552 463.574 959.552 463.574C959.812 463.898 960.203 463.963 960.528 463.769C960.853 463.574 961.048 463.185 960.918 462.861C960.918 462.861 960.528 461.565 960.333 460.852C960.138 460.139 960.072 458.972 960.072 458.648C960.072 452.62 962.934 445.556 970.934 445.556C978.933 445.556 981.795 452.556 981.795 458.583C981.795 458.778 981.665 459.944 981.535 460.657C981.34 461.5 981.014 462.537 981.014 462.602C980.884 462.926 981.014 463.315 981.34 463.509C981.665 463.704 982.055 463.639 982.315 463.444C982.51 463.25 982.705 463.38 982.77 463.444C982.836 463.509 983.031 463.769 983.096 464.352C983.226 465.324 982.966 466.426 982.38 467.204C982.055 467.657 981.795 467.852 981.665 467.917C981.6 467.593 981.34 467.333 981.014 467.269C980.624 467.204 980.234 467.463 980.104 467.852C979.779 468.954 979.454 470.833 979.128 472.648C978.933 473.685 977.242 474.463 976.657 474.657C976.332 474.787 976.072 475.046 976.072 475.435V477.769C975.942 478.611 975.356 479.324 974.576 479.713L970.804 481.463L966.706 479.583C966.121 479.324 965.666 478.806 965.405 478.222V475.435C965.405 475.046 965.145 474.787 964.82 474.657C963.845 474.333 962.739 473.167 962.544 472.194ZM964.105 479.259C964.56 479.972 965.21 480.556 965.991 480.944L969.178 482.37L966.251 485.287L963.194 482.241C962.934 481.981 962.804 481.852 963.194 481.074L964.105 479.259ZM948.626 496.63V488.139C948.626 486.843 949.406 485.741 950.577 485.287L961.373 481.398C961.243 481.982 961.373 482.759 962.089 483.407L965.666 487.037C965.796 487.167 965.991 487.296 966.251 487.296C966.511 487.296 966.641 487.231 966.836 487.037L967.292 486.583L968.332 489.046L966.186 498.315H950.382C949.406 498.315 948.626 497.602 948.626 496.63ZM993.502 496.63C993.502 497.602 992.721 498.315 991.811 498.315H975.356L973.21 489.046L974.186 486.713L974.641 487.167C974.771 487.296 974.966 487.426 975.226 487.426C975.421 487.426 975.616 487.361 975.811 487.167L979.323 483.537C979.389 483.472 979.388 483.472 979.454 483.407C979.974 482.63 980.104 481.981 979.974 481.269L991.681 485.287C992.851 485.741 993.632 486.907 993.632 488.139V496.63H993.502Z" fill="#0076FF"/>
<path d="M858.854 454.005C858.652 454.518 858.652 455.096 858.854 455.545C859.056 455.93 859.527 456.443 860.671 456.443C863.161 456.443 863.969 459.075 864.036 459.203L864.372 460.422C864.507 460.743 864.843 461 865.18 461C865.247 461 865.314 461 865.382 461C865.853 460.872 866.055 460.422 865.987 460.037L865.651 458.882C865.247 457.534 863.699 454.967 860.739 454.967C860.604 454.967 860.469 454.967 860.402 454.967C860.402 454.646 860.806 453.94 861.21 453.363C861.479 453.042 861.411 452.529 861.075 452.272C859.662 451.245 857.105 453.363 855.692 454.711C850.981 459.203 848.222 458.433 848.155 458.369C847.751 458.24 847.28 458.369 847.078 458.818C846.876 459.203 847.078 459.716 847.549 459.845C847.953 459.973 851.317 461.128 856.903 455.802C857.643 454.839 858.316 454.326 858.854 454.005Z" fill="#0076FF"/>
<path d="M876.006 483.861L862.803 479.324L861.633 476.991V475.954C862.608 475.565 864.364 474.593 864.624 472.907C864.819 472 865.014 470.639 865.275 469.537H865.34C866.055 469.602 866.835 469.148 867.551 468.176C868.461 467.009 868.852 465.389 868.591 463.963C868.396 463.056 868.071 462.407 867.486 462.083C867.226 461.954 867.031 461.889 866.835 461.824C866.901 461.565 866.966 461.306 867.031 461.046C867.226 460.204 867.356 458.778 867.356 458.778V458.713C867.356 449.769 862.478 444 854.869 444C847.259 444 842.382 449.769 842.382 458.713C842.382 458.778 842.447 460.333 842.707 461.37C842.772 461.5 842.772 461.694 842.837 461.824C842.577 461.824 842.316 461.954 842.056 462.083C841.536 462.407 841.146 463.056 840.951 463.963C840.69 465.389 841.081 467.009 841.991 468.176C842.707 469.148 843.422 469.602 844.203 469.537C844.398 470.509 844.658 471.546 844.918 472.648C845.243 474.009 846.414 475.37 847.715 475.954V476.602C847.649 476.667 847.584 476.731 847.584 476.796L846.219 479.454L833.992 483.861C832.171 484.574 831 486.259 831 488.204V496.694C831 498.509 832.496 500 834.317 500H875.681C877.502 500 878.997 498.509 878.997 496.694V488.269C879.062 486.259 877.892 484.509 876.006 483.861ZM855.519 489.241L857.665 498.38H851.812L853.958 489.241C854.023 489.046 853.958 488.917 853.893 488.722L852.527 485.417L854.608 483.278L856.95 485.546L855.649 488.657C855.454 488.852 855.454 489.046 855.519 489.241ZM858.446 484.898C858.381 484.833 858.381 484.833 858.316 484.769L856.039 482.565L859.161 481.139C859.942 480.75 860.592 480.167 861.047 479.454L861.958 481.269C862.218 481.722 862.218 481.981 861.893 482.565L859.031 485.546L858.446 484.898ZM846.544 472.194C846.284 471.093 845.698 468.824 845.633 467.657C845.633 467.204 845.243 466.88 844.853 466.88C844.398 466.88 844.072 467.269 844.072 467.657V467.787C843.942 467.722 843.682 467.528 843.422 467.139C842.837 466.361 842.512 465.259 842.707 464.287C842.772 463.769 842.967 463.444 843.032 463.38C843.227 463.25 843.552 463.574 843.552 463.574C843.812 463.898 844.203 463.963 844.528 463.769C844.853 463.574 845.048 463.185 844.918 462.861C844.918 462.861 844.528 461.565 844.333 460.852C844.138 460.139 844.072 458.972 844.072 458.648C844.072 452.62 846.934 445.556 854.934 445.556C862.933 445.556 865.795 452.556 865.795 458.583C865.795 458.778 865.665 459.944 865.535 460.657C865.34 461.5 865.014 462.537 865.014 462.602C864.884 462.926 865.014 463.315 865.34 463.509C865.665 463.704 866.055 463.639 866.315 463.444C866.51 463.25 866.705 463.38 866.77 463.444C866.836 463.509 867.031 463.769 867.096 464.352C867.226 465.324 866.966 466.426 866.38 467.204C866.055 467.657 865.795 467.852 865.665 467.917C865.6 467.593 865.34 467.333 865.014 467.269C864.624 467.204 864.234 467.463 864.104 467.852C863.779 468.954 863.454 470.833 863.128 472.648C862.933 473.685 861.242 474.463 860.657 474.657C860.332 474.787 860.072 475.046 860.072 475.435V477.769C859.942 478.611 859.356 479.324 858.576 479.713L854.804 481.463L850.706 479.583C850.121 479.324 849.666 478.806 849.405 478.222V475.435C849.405 475.046 849.145 474.787 848.82 474.657C847.845 474.333 846.739 473.167 846.544 472.194ZM848.105 479.259C848.56 479.972 849.21 480.556 849.991 480.944L853.178 482.37L850.251 485.287L847.194 482.241C846.934 481.981 846.804 481.852 847.194 481.074L848.105 479.259ZM832.626 496.63V488.139C832.626 486.843 833.406 485.741 834.577 485.287L845.373 481.398C845.243 481.982 845.373 482.759 846.089 483.407L849.666 487.037C849.796 487.167 849.991 487.296 850.251 487.296C850.511 487.296 850.641 487.231 850.836 487.037L851.292 486.583L852.332 489.046L850.186 498.315H834.382C833.406 498.315 832.626 497.602 832.626 496.63ZM877.502 496.63C877.502 497.602 876.721 498.315 875.811 498.315H859.356L857.21 489.046L858.186 486.713L858.641 487.167C858.771 487.296 858.966 487.426 859.226 487.426C859.421 487.426 859.616 487.361 859.811 487.167L863.323 483.537C863.389 483.472 863.388 483.472 863.454 483.407C863.974 482.63 864.104 481.981 863.974 481.269L875.681 485.287C876.851 485.741 877.632 486.907 877.632 488.139V496.63H877.502Z" fill="#0076FF"/>
<path d="M95.6248 220L68 234.475L79.212 242.31L96.3677 244.567L105.891 253L140 235.272L130.206 226.64L113.118 224.449L108.593 221.726" stroke="#0076FF" stroke-width="2" stroke-miterlimit="10"/>
<path d="M79 242L92 235" stroke="#0076FF" stroke-width="2" stroke-miterlimit="10"/>
<path d="M130 227L106 239" stroke="#0076FF" stroke-width="2" stroke-miterlimit="10"/>
<path d="M102 193.258C104.71 193.258 106.742 195.29 106.742 198C106.742 199.355 106.29 200.559 105.387 201.387C104.484 202.29 103.28 202.742 102 202.742H101.925C100.645 202.742 99.4409 202.29 98.5376 201.387C97.6344 200.484 97.1828 199.28 97.1828 198C97.2581 195.366 99.2903 193.258 102 193.258ZM102 191C98.086 191 95 193.935 95 198C95 202.065 98.1613 205 102 205C105.839 205 109 202.065 109 198C109 193.935 105.914 191 102 191Z" fill="#0076FF"/>
<path d="M114.824 208.579L114.825 208.578C115.809 206.996 116.482 205.58 116.907 204.042C117.331 202.506 117.5 200.871 117.5 198.86C117.5 190.381 110.539 183.483 102 183.483C93.4611 183.483 86.5 190.381 86.5 198.86C86.5 200.871 86.6689 202.506 87.093 204.042C87.5176 205.58 88.1914 206.996 89.1755 208.578L89.1758 208.579C90.7343 211.075 96.7798 219.822 100.418 225.085C100.845 225.704 101.239 226.274 101.589 226.78L102 227.376L102.411 226.78C102.761 226.274 103.155 225.704 103.582 225.085C107.22 219.822 113.266 211.075 114.824 208.579ZM102.101 228.978L102.001 229.121L101.903 228.979C101.578 228.507 101.11 227.829 100.542 227.005C99.4056 225.355 97.8663 223.118 96.254 220.767C93.0276 216.062 89.5178 210.915 88.3552 209.104C86.0807 205.494 85.5 202.813 85.5 198.86C85.5 189.817 92.8722 182.5 102 182.5C111.128 182.5 118.5 189.817 118.5 198.86C118.5 202.816 117.918 205.561 115.646 209.102L115.646 209.102L115.642 209.107C114.517 210.914 111.008 216.059 107.771 220.766C106.155 223.117 104.61 225.354 103.468 227.004C102.897 227.828 102.428 228.506 102.101 228.978Z" fill="#0090FF" stroke="#0076FF"/>
<path d="M101 249V283" stroke="#0076FF" stroke-width="2" stroke-miterlimit="10"/>
<path d="M101 294V309" stroke="#0076FF" stroke-width="2" stroke-miterlimit="10"/>
<path d="M101 320V334" stroke="#0076FF" stroke-width="2" stroke-miterlimit="10"/>
<path d="M101 347L101 363" stroke="#0076FF" stroke-width="2" stroke-miterlimit="10"/>
<path d="M370 246V472.5H613" stroke="#0076FF" stroke-width="2" stroke-miterlimit="10"/>
<path d="M449 246V375.021H913V444" stroke="#0076FF" stroke-width="2" stroke-miterlimit="10"/>
<path d="M635 238.373V271H914V234" stroke="#0076FF" stroke-width="2" stroke-miterlimit="10"/>
<path d="M107 288C107 291.333 104.333 294 101 294C97.6667 294 95 291.333 95 288C95 284.667 97.6667 282 101 282C104.267 282 107 284.667 107 288Z" stroke="#0076FF" stroke-width="2" stroke-miterlimit="10"/>
<path d="M107 288H369" stroke="#0076FF" stroke-width="2" stroke-miterlimit="10"/>
<path d="M107 315C107 318.333 104.333 321 101 321C97.6667 321 95 318.333 95 315C95 311.667 97.6667 309 101 309C104.267 309 107 311.667 107 315Z" stroke="#0076FF" stroke-width="2" stroke-miterlimit="10"/>
<path d="M107 315H369" stroke="#0076FF" stroke-width="2" stroke-miterlimit="10"/>
<path d="M107 341C107 344.333 104.333 347 101 347C97.6667 347 95 344.333 95 341C95 337.667 97.6667 335 101 335C104.267 335 107 337.733 107 341Z" stroke="#0076FF" stroke-width="2" stroke-miterlimit="10"/>
<path d="M107 341H369" stroke="#0076FF" stroke-width="2" stroke-miterlimit="10"/>
<path d="M107 369C107 372.333 104.333 375 101 375C97.6667 375 95 372.333 95 369C95 365.667 97.6667 363 101 363C104.267 363 107 365.667 107 369Z" stroke="#0076FF" stroke-width="2" stroke-miterlimit="10"/>
<path d="M107 369H369" stroke="#0076FF" stroke-width="2" stroke-miterlimit="10"/>
<path d="M90.4541 73.0059H92.5938L89.1963 83H86.8857L83.4951 73.0059H85.6348L87.5146 78.9531C87.6195 79.304 87.7266 79.7142 87.8359 80.1836C87.9499 80.6484 88.0205 80.972 88.0479 81.1543C88.098 80.735 88.2689 80.0013 88.5605 78.9531L90.4541 73.0059ZM96.8594 76.6973C96.4173 76.6973 96.071 76.8385 95.8203 77.1211C95.5697 77.3991 95.4261 77.7956 95.3896 78.3105H98.3154C98.3063 77.7956 98.1719 77.3991 97.9121 77.1211C97.6523 76.8385 97.3014 76.6973 96.8594 76.6973ZM97.1533 83.1367C95.9229 83.1367 94.9613 82.7972 94.2686 82.1182C93.5758 81.4391 93.2295 80.4775 93.2295 79.2334C93.2295 77.9528 93.5485 76.9639 94.1865 76.2666C94.8291 75.5648 95.7155 75.2139 96.8457 75.2139C97.9258 75.2139 98.7666 75.5215 99.3682 76.1367C99.9697 76.752 100.271 77.6019 100.271 78.6865V79.6982H95.3418C95.3646 80.2907 95.54 80.7533 95.8682 81.0859C96.1963 81.4186 96.6566 81.585 97.249 81.585C97.7093 81.585 98.1445 81.5371 98.5547 81.4414C98.9648 81.3457 99.3932 81.193 99.8398 80.9834V82.5967C99.4753 82.779 99.0856 82.9134 98.6709 83C98.2562 83.0911 97.7503 83.1367 97.1533 83.1367ZM109.021 83H106.936V78.5361C106.936 77.9847 106.838 77.5723 106.642 77.2988C106.446 77.0208 106.133 76.8818 105.705 76.8818C105.122 76.8818 104.7 77.0778 104.44 77.4697C104.181 77.8571 104.051 78.502 104.051 79.4043V83H101.966V75.3574H103.559L103.839 76.335H103.955C104.188 75.9658 104.507 75.6878 104.912 75.501C105.322 75.3096 105.787 75.2139 106.307 75.2139C107.195 75.2139 107.87 75.4554 108.33 75.9385C108.79 76.417 109.021 77.1097 109.021 78.0166V83ZM116.581 83L116.301 82.0225H116.191C115.968 82.3779 115.651 82.6536 115.241 82.8496C114.831 83.041 114.364 83.1367 113.84 83.1367C112.942 83.1367 112.265 82.8975 111.81 82.4189C111.354 81.9359 111.126 81.2432 111.126 80.3408V75.3574H113.211V79.8213C113.211 80.3727 113.309 80.7874 113.505 81.0654C113.701 81.3389 114.013 81.4756 114.441 81.4756C115.025 81.4756 115.446 81.2819 115.706 80.8945C115.966 80.5026 116.096 79.8555 116.096 78.9531V75.3574H118.181V83H116.581ZM123.533 76.6973C123.091 76.6973 122.745 76.8385 122.494 77.1211C122.243 77.3991 122.1 77.7956 122.063 78.3105H124.989C124.98 77.7956 124.846 77.3991 124.586 77.1211C124.326 76.8385 123.975 76.6973 123.533 76.6973ZM123.827 83.1367C122.597 83.1367 121.635 82.7972 120.942 82.1182C120.25 81.4391 119.903 80.4775 119.903 79.2334C119.903 77.9528 120.222 76.9639 120.86 76.2666C121.503 75.5648 122.389 75.2139 123.52 75.2139C124.6 75.2139 125.44 75.5215 126.042 76.1367C126.644 76.752 126.944 77.6019 126.944 78.6865V79.6982H122.016C122.038 80.2907 122.214 80.7533 122.542 81.0859C122.87 81.4186 123.33 81.585 123.923 81.585C124.383 81.585 124.818 81.5371 125.229 81.4414C125.639 81.3457 126.067 81.193 126.514 80.9834V82.5967C126.149 82.779 125.759 82.9134 125.345 83C124.93 83.0911 124.424 83.1367 123.827 83.1367ZM133.972 80.7305C133.972 81.5143 133.698 82.1113 133.151 82.5215C132.609 82.9316 131.796 83.1367 130.711 83.1367C130.155 83.1367 129.681 83.098 129.289 83.0205C128.897 82.9476 128.53 82.8382 128.188 82.6924V80.9697C128.576 81.152 129.011 81.3047 129.494 81.4277C129.982 81.5508 130.41 81.6123 130.779 81.6123C131.536 81.6123 131.914 81.3936 131.914 80.9561C131.914 80.792 131.864 80.6598 131.764 80.5596C131.663 80.4548 131.49 80.3385 131.244 80.2109C130.998 80.0788 130.67 79.9261 130.26 79.7529C129.672 79.5068 129.239 79.279 128.961 79.0693C128.688 78.8597 128.487 78.6204 128.359 78.3516C128.236 78.0781 128.175 77.7432 128.175 77.3467C128.175 76.6676 128.437 76.1436 128.961 75.7744C129.49 75.4007 130.237 75.2139 131.203 75.2139C132.124 75.2139 133.019 75.4144 133.89 75.8154L133.261 77.3193C132.878 77.1553 132.52 77.0208 132.188 76.916C131.855 76.8112 131.515 76.7588 131.169 76.7588C130.554 76.7588 130.246 76.9251 130.246 77.2578C130.246 77.4447 130.344 77.6064 130.54 77.7432C130.741 77.8799 131.176 78.0827 131.846 78.3516C132.443 78.5931 132.88 78.8187 133.158 79.0283C133.436 79.238 133.641 79.4795 133.773 79.7529C133.906 80.0264 133.972 80.3522 133.972 80.7305Z" fill="#00032C"/>
<path d="M363.189 80.2246C363.189 81.127 362.864 81.8379 362.212 82.3574C361.565 82.877 360.662 83.1367 359.505 83.1367C358.438 83.1367 357.495 82.9362 356.675 82.5352V80.5664C357.349 80.8672 357.919 81.0791 358.384 81.2021C358.853 81.3252 359.282 81.3867 359.669 81.3867C360.134 81.3867 360.489 81.2979 360.735 81.1201C360.986 80.9424 361.111 80.6781 361.111 80.3271C361.111 80.1312 361.057 79.958 360.947 79.8076C360.838 79.6527 360.676 79.5046 360.462 79.3633C360.252 79.222 359.822 78.9964 359.17 78.6865C358.559 78.3994 358.101 78.1237 357.796 77.8594C357.491 77.5951 357.247 77.2874 357.064 76.9365C356.882 76.5856 356.791 76.1755 356.791 75.7061C356.791 74.8219 357.09 74.127 357.687 73.6211C358.288 73.1152 359.118 72.8623 360.175 72.8623C360.694 72.8623 361.189 72.9238 361.658 73.0469C362.132 73.1699 362.627 73.3431 363.142 73.5664L362.458 75.2139C361.925 74.9951 361.483 74.8424 361.132 74.7559C360.785 74.6693 360.444 74.626 360.106 74.626C359.705 74.626 359.398 74.7194 359.184 74.9062C358.969 75.0931 358.862 75.3369 358.862 75.6377C358.862 75.8245 358.906 75.9886 358.992 76.1299C359.079 76.2666 359.215 76.401 359.402 76.5332C359.594 76.6608 360.043 76.8932 360.749 77.2305C361.683 77.6771 362.324 78.126 362.67 78.5771C363.016 79.0238 363.189 79.5729 363.189 80.2246ZM369.69 83L369.287 81.9609H369.232C368.882 82.403 368.519 82.7106 368.146 82.8838C367.776 83.0524 367.293 83.1367 366.696 83.1367C365.963 83.1367 365.384 82.9271 364.96 82.5078C364.541 82.0885 364.331 81.4915 364.331 80.7168C364.331 79.9056 364.614 79.3086 365.179 78.9258C365.748 78.5384 366.605 78.3242 367.749 78.2832L369.075 78.2422V77.9072C369.075 77.1325 368.679 76.7451 367.886 76.7451C367.275 76.7451 366.557 76.9297 365.732 77.2988L365.042 75.8906C365.922 75.4303 366.897 75.2002 367.968 75.2002C368.993 75.2002 369.779 75.4235 370.326 75.8701C370.873 76.3167 371.146 76.9958 371.146 77.9072V83H369.69ZM369.075 79.459L368.269 79.4863C367.662 79.5046 367.211 79.6139 366.915 79.8145C366.619 80.015 366.471 80.3203 366.471 80.7305C366.471 81.3184 366.808 81.6123 367.482 81.6123C367.965 81.6123 368.351 81.4733 368.638 81.1953C368.929 80.9173 369.075 80.5482 369.075 80.0879V79.459ZM374.865 79.0967L372.404 75.3574H374.77L376.253 77.791L377.75 75.3574H380.115L377.627 79.0967L380.231 83H377.859L376.253 80.3818L374.64 83H372.274L374.865 79.0967ZM383.055 79.165C383.055 79.9215 383.178 80.4935 383.424 80.8809C383.674 81.2682 384.08 81.4619 384.641 81.4619C385.197 81.4619 385.595 81.2705 385.837 80.8877C386.083 80.5003 386.206 79.9261 386.206 79.165C386.206 78.4085 386.083 77.8411 385.837 77.4629C385.591 77.0846 385.188 76.8955 384.627 76.8955C384.071 76.8955 383.67 77.0846 383.424 77.4629C383.178 77.8366 383.055 78.404 383.055 79.165ZM388.339 79.165C388.339 80.4092 388.011 81.3822 387.354 82.084C386.698 82.7858 385.785 83.1367 384.613 83.1367C383.88 83.1367 383.232 82.9772 382.672 82.6582C382.111 82.3346 381.681 81.8721 381.38 81.2705C381.079 80.6689 380.929 79.9671 380.929 79.165C380.929 77.9163 381.255 76.9456 381.906 76.2529C382.558 75.5602 383.474 75.2139 384.654 75.2139C385.388 75.2139 386.035 75.3734 386.596 75.6924C387.156 76.0114 387.587 76.4694 387.888 77.0664C388.188 77.6634 388.339 78.363 388.339 79.165Z" fill="#00032C"/>
<path d="M303.533 108V98.0059H304.695V108H303.533ZM312.399 108V103.153C312.399 102.543 312.26 102.087 311.982 101.786C311.704 101.485 311.269 101.335 310.677 101.335C309.893 101.335 309.319 101.547 308.954 101.971C308.59 102.395 308.407 103.094 308.407 104.069V108H307.272V100.508H308.195L308.38 101.533H308.435C308.667 101.164 308.993 100.879 309.412 100.679C309.831 100.474 310.299 100.371 310.813 100.371C311.716 100.371 312.395 100.59 312.851 101.027C313.306 101.46 313.534 102.155 313.534 103.112V108H312.399ZM319.249 101.39H317.342V108H316.207V101.39H314.867V100.877L316.207 100.467V100.05C316.207 98.2087 317.011 97.2881 318.62 97.2881C319.017 97.2881 319.481 97.3678 320.015 97.5273L319.721 98.4365C319.283 98.2952 318.91 98.2246 318.6 98.2246C318.171 98.2246 317.854 98.3682 317.649 98.6553C317.444 98.9378 317.342 99.3936 317.342 100.022V100.508H319.249V101.39ZM324.034 100.371C324.367 100.371 324.665 100.398 324.93 100.453L324.772 101.506C324.463 101.438 324.189 101.403 323.952 101.403C323.346 101.403 322.826 101.649 322.394 102.142C321.965 102.634 321.751 103.247 321.751 103.98V108H320.616V100.508H321.553L321.683 101.896H321.737C322.015 101.408 322.35 101.032 322.742 100.768C323.134 100.503 323.565 100.371 324.034 100.371ZM330.938 108L330.713 106.934H330.658C330.285 107.403 329.911 107.722 329.537 107.891C329.168 108.055 328.705 108.137 328.149 108.137C327.407 108.137 326.823 107.945 326.399 107.562C325.98 107.18 325.771 106.635 325.771 105.929C325.771 104.416 326.98 103.623 329.4 103.55L330.672 103.509V103.044C330.672 102.456 330.544 102.023 330.289 101.745C330.038 101.463 329.635 101.321 329.079 101.321C328.455 101.321 327.748 101.513 326.96 101.896L326.611 101.027C326.98 100.827 327.384 100.67 327.821 100.556C328.263 100.442 328.705 100.385 329.147 100.385C330.041 100.385 330.701 100.583 331.13 100.979C331.563 101.376 331.779 102.012 331.779 102.887V108H330.938ZM328.375 107.2C329.081 107.2 329.635 107.007 330.036 106.619C330.442 106.232 330.645 105.689 330.645 104.992V104.315L329.51 104.363C328.607 104.395 327.956 104.536 327.555 104.787C327.158 105.033 326.96 105.418 326.96 105.942C326.96 106.353 327.083 106.665 327.329 106.879C327.58 107.093 327.928 107.2 328.375 107.2ZM338.957 105.956C338.957 106.653 338.697 107.191 338.178 107.569C337.658 107.948 336.929 108.137 335.99 108.137C334.997 108.137 334.222 107.979 333.666 107.665V106.612C334.026 106.795 334.411 106.938 334.821 107.043C335.236 107.148 335.635 107.2 336.018 107.2C336.61 107.2 337.066 107.107 337.385 106.92C337.704 106.729 337.863 106.439 337.863 106.052C337.863 105.76 337.736 105.512 337.48 105.307C337.23 105.097 336.738 104.851 336.004 104.568C335.307 104.309 334.81 104.083 334.514 103.892C334.222 103.696 334.003 103.475 333.857 103.229C333.716 102.982 333.646 102.688 333.646 102.347C333.646 101.736 333.894 101.255 334.391 100.904C334.887 100.549 335.569 100.371 336.435 100.371C337.241 100.371 338.03 100.535 338.8 100.863L338.396 101.786C337.645 101.476 336.963 101.321 336.353 101.321C335.815 101.321 335.409 101.406 335.136 101.574C334.862 101.743 334.726 101.975 334.726 102.271C334.726 102.472 334.776 102.643 334.876 102.784C334.981 102.925 335.147 103.06 335.375 103.188C335.603 103.315 336.04 103.5 336.688 103.741C337.576 104.065 338.175 104.391 338.485 104.719C338.8 105.047 338.957 105.459 338.957 105.956ZM343.229 107.2C343.43 107.2 343.624 107.187 343.811 107.159C343.997 107.127 344.146 107.095 344.255 107.063V107.932C344.132 107.991 343.95 108.039 343.708 108.075C343.471 108.116 343.257 108.137 343.065 108.137C341.616 108.137 340.892 107.373 340.892 105.847V101.39H339.818V100.843L340.892 100.371L341.37 98.7715H342.026V100.508H344.2V101.39H342.026V105.799C342.026 106.25 342.133 106.596 342.348 106.838C342.562 107.079 342.856 107.2 343.229 107.2ZM349.177 100.371C349.509 100.371 349.808 100.398 350.072 100.453L349.915 101.506C349.605 101.438 349.332 101.403 349.095 101.403C348.489 101.403 347.969 101.649 347.536 102.142C347.108 102.634 346.894 103.247 346.894 103.98V108H345.759V100.508H346.695L346.825 101.896H346.88C347.158 101.408 347.493 101.032 347.885 100.768C348.277 100.503 348.707 100.371 349.177 100.371ZM352.54 100.508V105.368C352.54 105.979 352.679 106.435 352.957 106.735C353.235 107.036 353.67 107.187 354.263 107.187C355.047 107.187 355.618 106.972 355.979 106.544C356.343 106.116 356.525 105.416 356.525 104.445V100.508H357.66V108H356.724L356.56 106.995H356.498C356.266 107.364 355.942 107.647 355.527 107.843C355.117 108.039 354.648 108.137 354.119 108.137C353.208 108.137 352.524 107.92 352.068 107.487C351.617 107.054 351.392 106.362 351.392 105.409V100.508H352.54ZM363.067 108.137C361.983 108.137 361.142 107.804 360.545 107.139C359.952 106.469 359.656 105.523 359.656 104.302C359.656 103.049 359.957 102.08 360.559 101.396C361.165 100.713 362.026 100.371 363.143 100.371C363.503 100.371 363.863 100.41 364.223 100.487C364.583 100.565 364.865 100.656 365.07 100.761L364.722 101.725C364.471 101.624 364.198 101.542 363.901 101.479C363.605 101.41 363.343 101.376 363.115 101.376C361.593 101.376 360.832 102.347 360.832 104.288C360.832 105.209 361.017 105.915 361.386 106.407C361.759 106.899 362.311 107.146 363.04 107.146C363.664 107.146 364.305 107.011 364.961 106.742V107.747C364.46 108.007 363.828 108.137 363.067 108.137ZM369.165 107.2C369.366 107.2 369.559 107.187 369.746 107.159C369.933 107.127 370.081 107.095 370.19 107.063V107.932C370.067 107.991 369.885 108.039 369.644 108.075C369.407 108.116 369.192 108.137 369.001 108.137C367.552 108.137 366.827 107.373 366.827 105.847V101.39H365.754V100.843L366.827 100.371L367.306 98.7715H367.962V100.508H370.136V101.39H367.962V105.799C367.962 106.25 368.069 106.596 368.283 106.838C368.497 107.079 368.791 107.2 369.165 107.2ZM372.761 100.508V105.368C372.761 105.979 372.9 106.435 373.178 106.735C373.456 107.036 373.891 107.187 374.483 107.187C375.267 107.187 375.839 106.972 376.199 106.544C376.564 106.116 376.746 105.416 376.746 104.445V100.508H377.881V108H376.944L376.78 106.995H376.719C376.486 107.364 376.163 107.647 375.748 107.843C375.338 108.039 374.868 108.137 374.34 108.137C373.428 108.137 372.745 107.92 372.289 107.487C371.838 107.054 371.612 106.362 371.612 105.409V100.508H372.761ZM383.712 100.371C384.045 100.371 384.343 100.398 384.607 100.453L384.45 101.506C384.14 101.438 383.867 101.403 383.63 101.403C383.024 101.403 382.504 101.649 382.071 102.142C381.643 102.634 381.429 103.247 381.429 103.98V108H380.294V100.508H381.23L381.36 101.896H381.415C381.693 101.408 382.028 101.032 382.42 100.768C382.812 100.503 383.243 100.371 383.712 100.371ZM389.174 108.137C388.066 108.137 387.191 107.799 386.549 107.125C385.911 106.451 385.592 105.514 385.592 104.315C385.592 103.108 385.888 102.148 386.48 101.438C387.077 100.727 387.877 100.371 388.88 100.371C389.819 100.371 390.562 100.681 391.108 101.301C391.655 101.916 391.929 102.729 391.929 103.741V104.459H386.768C386.79 105.339 387.011 106.006 387.431 106.462C387.854 106.918 388.449 107.146 389.215 107.146C390.021 107.146 390.819 106.977 391.607 106.64V107.651C391.206 107.825 390.826 107.948 390.466 108.021C390.11 108.098 389.68 108.137 389.174 108.137ZM388.866 101.321C388.265 101.321 387.784 101.517 387.424 101.909C387.068 102.301 386.859 102.843 386.795 103.536H390.712C390.712 102.821 390.552 102.274 390.233 101.896C389.914 101.513 389.459 101.321 388.866 101.321ZM402.34 105.956C402.34 106.653 402.08 107.191 401.561 107.569C401.041 107.948 400.312 108.137 399.373 108.137C398.38 108.137 397.605 107.979 397.049 107.665V106.612C397.409 106.795 397.794 106.938 398.204 107.043C398.619 107.148 399.018 107.2 399.4 107.2C399.993 107.2 400.449 107.107 400.768 106.92C401.087 106.729 401.246 106.439 401.246 106.052C401.246 105.76 401.118 105.512 400.863 105.307C400.613 105.097 400.12 104.851 399.387 104.568C398.689 104.309 398.193 104.083 397.896 103.892C397.605 103.696 397.386 103.475 397.24 103.229C397.099 102.982 397.028 102.688 397.028 102.347C397.028 101.736 397.277 101.255 397.773 100.904C398.27 100.549 398.951 100.371 399.817 100.371C400.624 100.371 401.412 100.535 402.183 100.863L401.779 101.786C401.027 101.476 400.346 101.321 399.735 101.321C399.198 101.321 398.792 101.406 398.519 101.574C398.245 101.743 398.108 101.975 398.108 102.271C398.108 102.472 398.159 102.643 398.259 102.784C398.364 102.925 398.53 103.06 398.758 103.188C398.986 103.315 399.423 103.5 400.07 103.741C400.959 104.065 401.558 104.391 401.868 104.719C402.183 105.047 402.34 105.459 402.34 105.956ZM407.357 108.137C406.25 108.137 405.375 107.799 404.732 107.125C404.094 106.451 403.775 105.514 403.775 104.315C403.775 103.108 404.072 102.148 404.664 101.438C405.261 100.727 406.061 100.371 407.063 100.371C408.002 100.371 408.745 100.681 409.292 101.301C409.839 101.916 410.112 102.729 410.112 103.741V104.459H404.951C404.974 105.339 405.195 106.006 405.614 106.462C406.038 106.918 406.633 107.146 407.398 107.146C408.205 107.146 409.003 106.977 409.791 106.64V107.651C409.39 107.825 409.009 107.948 408.649 108.021C408.294 108.098 407.863 108.137 407.357 108.137ZM407.05 101.321C406.448 101.321 405.967 101.517 405.607 101.909C405.252 102.301 405.042 102.843 404.979 103.536H408.896C408.896 102.821 408.736 102.274 408.417 101.896C408.098 101.513 407.642 101.321 407.05 101.321ZM415.472 100.371C415.804 100.371 416.103 100.398 416.367 100.453L416.21 101.506C415.9 101.438 415.627 101.403 415.39 101.403C414.784 101.403 414.264 101.649 413.831 102.142C413.403 102.634 413.188 103.247 413.188 103.98V108H412.054V100.508H412.99L413.12 101.896H413.175C413.453 101.408 413.788 101.032 414.18 100.768C414.572 100.503 415.002 100.371 415.472 100.371ZM419.409 108L416.565 100.508H417.782L419.396 104.951C419.76 105.99 419.974 106.665 420.038 106.975H420.093C420.143 106.733 420.3 106.234 420.564 105.478C420.833 104.716 421.433 103.06 422.362 100.508H423.579L420.735 108H419.409ZM427.947 108.137C426.84 108.137 425.965 107.799 425.322 107.125C424.684 106.451 424.365 105.514 424.365 104.315C424.365 103.108 424.661 102.148 425.254 101.438C425.851 100.727 426.651 100.371 427.653 100.371C428.592 100.371 429.335 100.681 429.882 101.301C430.429 101.916 430.702 102.729 430.702 103.741V104.459H425.541C425.564 105.339 425.785 106.006 426.204 106.462C426.628 106.918 427.223 107.146 427.988 107.146C428.795 107.146 429.592 106.977 430.381 106.64V107.651C429.98 107.825 429.599 107.948 429.239 108.021C428.884 108.098 428.453 108.137 427.947 108.137ZM427.64 101.321C427.038 101.321 426.557 101.517 426.197 101.909C425.842 102.301 425.632 102.843 425.568 103.536H429.485C429.485 102.821 429.326 102.274 429.007 101.896C428.688 101.513 428.232 101.321 427.64 101.321ZM436.062 100.371C436.394 100.371 436.693 100.398 436.957 100.453L436.8 101.506C436.49 101.438 436.216 101.403 435.979 101.403C435.373 101.403 434.854 101.649 434.421 102.142C433.993 102.634 433.778 103.247 433.778 103.98V108H432.644V100.508H433.58L433.71 101.896H433.765C434.043 101.408 434.378 101.032 434.77 100.768C435.161 100.503 435.592 100.371 436.062 100.371ZM443.191 105.956C443.191 106.653 442.932 107.191 442.412 107.569C441.893 107.948 441.163 108.137 440.225 108.137C439.231 108.137 438.456 107.979 437.9 107.665V106.612C438.26 106.795 438.646 106.938 439.056 107.043C439.47 107.148 439.869 107.2 440.252 107.2C440.844 107.2 441.3 107.107 441.619 106.92C441.938 106.729 442.098 106.439 442.098 106.052C442.098 105.76 441.97 105.512 441.715 105.307C441.464 105.097 440.972 104.851 440.238 104.568C439.541 104.309 439.044 104.083 438.748 103.892C438.456 103.696 438.238 103.475 438.092 103.229C437.951 102.982 437.88 102.688 437.88 102.347C437.88 101.736 438.128 101.255 438.625 100.904C439.122 100.549 439.803 100.371 440.669 100.371C441.476 100.371 442.264 100.535 443.034 100.863L442.631 101.786C441.879 101.476 441.198 101.321 440.587 101.321C440.049 101.321 439.644 101.406 439.37 101.574C439.097 101.743 438.96 101.975 438.96 102.271C438.96 102.472 439.01 102.643 439.11 102.784C439.215 102.925 439.382 103.06 439.609 103.188C439.837 103.315 440.275 103.5 440.922 103.741C441.811 104.065 442.41 104.391 442.72 104.719C443.034 105.047 443.191 105.459 443.191 105.956Z" fill="#808080"/>
<path d="M603.912 98.0059V104.473C603.912 105.612 603.568 106.507 602.88 107.159C602.192 107.811 601.246 108.137 600.043 108.137C598.84 108.137 597.908 107.809 597.247 107.152C596.591 106.496 596.263 105.594 596.263 104.445V98.0059H597.425V104.527C597.425 105.361 597.653 106.002 598.108 106.448C598.564 106.895 599.234 107.118 600.118 107.118C600.961 107.118 601.611 106.895 602.066 106.448C602.522 105.997 602.75 105.352 602.75 104.514V98.0059H603.912ZM606.564 108V98.0059H607.727V108H606.564ZM614.098 98.0059L610.372 108H609.237L612.963 98.0059H614.098ZM623.162 98.0059V104.473C623.162 105.612 622.818 106.507 622.13 107.159C621.442 107.811 620.496 108.137 619.293 108.137C618.09 108.137 617.158 107.809 616.497 107.152C615.841 106.496 615.513 105.594 615.513 104.445V98.0059H616.675V104.527C616.675 105.361 616.903 106.002 617.358 106.448C617.814 106.895 618.484 107.118 619.368 107.118C620.211 107.118 620.861 106.895 621.316 106.448C621.772 105.997 622 105.352 622 104.514V98.0059H623.162ZM632.466 108H631.146L628.46 103.604L625.726 108H624.495L627.817 102.777L624.721 98.0059H626.006L628.487 101.964L630.989 98.0059H632.227L629.13 102.736L632.466 108ZM642.193 105.956C642.193 106.653 641.934 107.191 641.414 107.569C640.895 107.948 640.165 108.137 639.227 108.137C638.233 108.137 637.458 107.979 636.902 107.665V106.612C637.262 106.795 637.647 106.938 638.058 107.043C638.472 107.148 638.871 107.2 639.254 107.2C639.846 107.2 640.302 107.107 640.621 106.92C640.94 106.729 641.1 106.439 641.1 106.052C641.1 105.76 640.972 105.512 640.717 105.307C640.466 105.097 639.974 104.851 639.24 104.568C638.543 104.309 638.046 104.083 637.75 103.892C637.458 103.696 637.24 103.475 637.094 103.229C636.952 102.982 636.882 102.688 636.882 102.347C636.882 101.736 637.13 101.255 637.627 100.904C638.124 100.549 638.805 100.371 639.671 100.371C640.478 100.371 641.266 100.535 642.036 100.863L641.633 101.786C640.881 101.476 640.2 101.321 639.589 101.321C639.051 101.321 638.646 101.406 638.372 101.574C638.099 101.743 637.962 101.975 637.962 102.271C637.962 102.472 638.012 102.643 638.112 102.784C638.217 102.925 638.383 103.06 638.611 103.188C638.839 103.315 639.277 103.5 639.924 103.741C640.812 104.065 641.412 104.391 641.722 104.719C642.036 105.047 642.193 105.459 642.193 105.956ZM647.211 108.137C646.104 108.137 645.229 107.799 644.586 107.125C643.948 106.451 643.629 105.514 643.629 104.315C643.629 103.108 643.925 102.148 644.518 101.438C645.115 100.727 645.914 100.371 646.917 100.371C647.856 100.371 648.599 100.681 649.146 101.301C649.692 101.916 649.966 102.729 649.966 103.741V104.459H644.805C644.827 105.339 645.049 106.006 645.468 106.462C645.892 106.918 646.486 107.146 647.252 107.146C648.059 107.146 648.856 106.977 649.645 106.64V107.651C649.243 107.825 648.863 107.948 648.503 108.021C648.147 108.098 647.717 108.137 647.211 108.137ZM646.903 101.321C646.302 101.321 645.821 101.517 645.461 101.909C645.105 102.301 644.896 102.843 644.832 103.536H648.749C648.749 102.821 648.59 102.274 648.271 101.896C647.951 101.513 647.496 101.321 646.903 101.321ZM655.325 100.371C655.658 100.371 655.956 100.398 656.221 100.453L656.063 101.506C655.754 101.438 655.48 101.403 655.243 101.403C654.637 101.403 654.118 101.649 653.685 102.142C653.256 102.634 653.042 103.247 653.042 103.98V108H651.907V100.508H652.844L652.974 101.896H653.028C653.306 101.408 653.641 101.032 654.033 100.768C654.425 100.503 654.856 100.371 655.325 100.371ZM659.263 108L656.419 100.508H657.636L659.249 104.951C659.614 105.99 659.828 106.665 659.892 106.975H659.946C659.996 106.733 660.154 106.234 660.418 105.478C660.687 104.716 661.286 103.06 662.216 100.508H663.433L660.589 108H659.263ZM667.801 108.137C666.693 108.137 665.818 107.799 665.176 107.125C664.538 106.451 664.219 105.514 664.219 104.315C664.219 103.108 664.515 102.148 665.107 101.438C665.704 100.727 666.504 100.371 667.507 100.371C668.446 100.371 669.188 100.681 669.735 101.301C670.282 101.916 670.556 102.729 670.556 103.741V104.459H665.395C665.417 105.339 665.638 106.006 666.058 106.462C666.481 106.918 667.076 107.146 667.842 107.146C668.648 107.146 669.446 106.977 670.234 106.64V107.651C669.833 107.825 669.453 107.948 669.093 108.021C668.737 108.098 668.307 108.137 667.801 108.137ZM667.493 101.321C666.892 101.321 666.411 101.517 666.051 101.909C665.695 102.301 665.486 102.843 665.422 103.536H669.339C669.339 102.821 669.179 102.274 668.86 101.896C668.541 101.513 668.086 101.321 667.493 101.321ZM675.915 100.371C676.248 100.371 676.546 100.398 676.811 100.453L676.653 101.506C676.343 101.438 676.07 101.403 675.833 101.403C675.227 101.403 674.707 101.649 674.274 102.142C673.846 102.634 673.632 103.247 673.632 103.98V108H672.497V100.508H673.434L673.563 101.896H673.618C673.896 101.408 674.231 101.032 674.623 100.768C675.015 100.503 675.446 100.371 675.915 100.371Z" fill="#808080"/>
<path d="M588.639 523.626C587.841 523.626 587.224 523.927 586.786 524.528C586.349 525.125 586.13 525.959 586.13 527.03C586.13 529.259 586.966 530.373 588.639 530.373C589.34 530.373 590.19 530.198 591.188 529.847V531.624C590.368 531.966 589.452 532.137 588.44 532.137C586.987 532.137 585.875 531.697 585.104 530.817C584.334 529.933 583.949 528.666 583.949 527.017C583.949 525.978 584.138 525.068 584.517 524.289C584.895 523.505 585.437 522.906 586.144 522.491C586.854 522.072 587.686 521.862 588.639 521.862C589.609 521.862 590.585 522.097 591.564 522.566L590.881 524.289C590.507 524.111 590.131 523.956 589.753 523.824C589.375 523.692 589.003 523.626 588.639 523.626ZM598.571 532L598.291 531.022H598.182C597.958 531.378 597.642 531.654 597.231 531.85C596.821 532.041 596.354 532.137 595.83 532.137C594.932 532.137 594.256 531.897 593.8 531.419C593.344 530.936 593.116 530.243 593.116 529.341V524.357H595.201V528.821C595.201 529.373 595.299 529.787 595.495 530.065C595.691 530.339 596.003 530.476 596.432 530.476C597.015 530.476 597.437 530.282 597.696 529.895C597.956 529.503 598.086 528.855 598.086 527.953V524.357H600.171V532H598.571ZM607.69 529.73C607.69 530.514 607.417 531.111 606.87 531.521C606.328 531.932 605.514 532.137 604.43 532.137C603.874 532.137 603.4 532.098 603.008 532.021C602.616 531.948 602.249 531.838 601.907 531.692V529.97C602.295 530.152 602.73 530.305 603.213 530.428C603.701 530.551 604.129 530.612 604.498 530.612C605.255 530.612 605.633 530.394 605.633 529.956C605.633 529.792 605.583 529.66 605.482 529.56C605.382 529.455 605.209 529.339 604.963 529.211C604.717 529.079 604.389 528.926 603.979 528.753C603.391 528.507 602.958 528.279 602.68 528.069C602.406 527.86 602.206 527.62 602.078 527.352C601.955 527.078 601.894 526.743 601.894 526.347C601.894 525.668 602.156 525.144 602.68 524.774C603.208 524.401 603.956 524.214 604.922 524.214C605.842 524.214 606.738 524.414 607.608 524.815L606.979 526.319C606.597 526.155 606.239 526.021 605.906 525.916C605.574 525.811 605.234 525.759 604.888 525.759C604.272 525.759 603.965 525.925 603.965 526.258C603.965 526.445 604.063 526.606 604.259 526.743C604.459 526.88 604.895 527.083 605.564 527.352C606.161 527.593 606.599 527.819 606.877 528.028C607.155 528.238 607.36 528.479 607.492 528.753C607.624 529.026 607.69 529.352 607.69 529.73ZM612.537 530.476C612.902 530.476 613.339 530.396 613.85 530.236V531.788C613.33 532.021 612.692 532.137 611.936 532.137C611.102 532.137 610.493 531.927 610.11 531.508C609.732 531.084 609.543 530.451 609.543 529.607V525.923H608.545V525.041L609.693 524.344L610.295 522.73H611.628V524.357H613.768V525.923H611.628V529.607C611.628 529.904 611.71 530.122 611.874 530.264C612.043 530.405 612.264 530.476 612.537 530.476ZM617.062 528.165C617.062 528.922 617.186 529.493 617.432 529.881C617.682 530.268 618.088 530.462 618.648 530.462C619.204 530.462 619.603 530.271 619.845 529.888C620.091 529.5 620.214 528.926 620.214 528.165C620.214 527.409 620.091 526.841 619.845 526.463C619.599 526.085 619.195 525.896 618.635 525.896C618.079 525.896 617.678 526.085 617.432 526.463C617.186 526.837 617.062 527.404 617.062 528.165ZM622.347 528.165C622.347 529.409 622.019 530.382 621.362 531.084C620.706 531.786 619.792 532.137 618.621 532.137C617.887 532.137 617.24 531.977 616.68 531.658C616.119 531.335 615.688 530.872 615.388 530.271C615.087 529.669 614.937 528.967 614.937 528.165C614.937 526.916 615.262 525.946 615.914 525.253C616.566 524.56 617.482 524.214 618.662 524.214C619.396 524.214 620.043 524.373 620.604 524.692C621.164 525.011 621.595 525.469 621.896 526.066C622.196 526.663 622.347 527.363 622.347 528.165ZM630.912 532H628.827V527.536C628.827 526.985 628.734 526.572 628.547 526.299C628.365 526.021 628.075 525.882 627.679 525.882C627.146 525.882 626.758 526.078 626.517 526.47C626.275 526.862 626.154 527.507 626.154 528.404V532H624.069V524.357H625.662L625.942 525.335H626.059C626.264 524.984 626.56 524.711 626.947 524.515C627.335 524.314 627.779 524.214 628.28 524.214C629.424 524.214 630.199 524.588 630.604 525.335H630.789C630.994 524.979 631.295 524.704 631.691 524.508C632.092 524.312 632.544 524.214 633.045 524.214C633.911 524.214 634.565 524.437 635.007 524.884C635.453 525.326 635.677 526.037 635.677 527.017V532H633.585V527.536C633.585 526.985 633.492 526.572 633.305 526.299C633.122 526.021 632.833 525.882 632.437 525.882C631.926 525.882 631.543 526.064 631.288 526.429C631.037 526.793 630.912 527.372 630.912 528.165V532ZM640.988 525.697C640.546 525.697 640.2 525.839 639.949 526.121C639.699 526.399 639.555 526.796 639.519 527.311H642.444C642.435 526.796 642.301 526.399 642.041 526.121C641.781 525.839 641.43 525.697 640.988 525.697ZM641.282 532.137C640.052 532.137 639.09 531.797 638.397 531.118C637.705 530.439 637.358 529.478 637.358 528.233C637.358 526.953 637.677 525.964 638.315 525.267C638.958 524.565 639.844 524.214 640.975 524.214C642.055 524.214 642.896 524.521 643.497 525.137C644.099 525.752 644.399 526.602 644.399 527.687V528.698H639.471C639.493 529.291 639.669 529.753 639.997 530.086C640.325 530.419 640.785 530.585 641.378 530.585C641.838 530.585 642.273 530.537 642.684 530.441C643.094 530.346 643.522 530.193 643.969 529.983V531.597C643.604 531.779 643.215 531.913 642.8 532C642.385 532.091 641.879 532.137 641.282 532.137ZM650.36 524.214C650.643 524.214 650.878 524.234 651.064 524.275L650.907 526.23C650.739 526.185 650.534 526.162 650.292 526.162C649.627 526.162 649.107 526.333 648.733 526.675C648.364 527.017 648.18 527.495 648.18 528.11V532H646.095V524.357H647.674L647.981 525.643H648.084C648.321 525.214 648.64 524.87 649.041 524.61C649.447 524.346 649.886 524.214 650.36 524.214ZM658.509 532.137C657.611 532.137 656.905 531.788 656.39 531.091C655.879 530.394 655.624 529.427 655.624 528.192C655.624 526.939 655.884 525.964 656.403 525.267C656.927 524.565 657.647 524.214 658.563 524.214C659.525 524.214 660.259 524.588 660.765 525.335H660.833C660.728 524.765 660.676 524.257 660.676 523.811V521.363H662.768V532H661.168L660.765 531.009H660.676C660.202 531.761 659.479 532.137 658.509 532.137ZM659.24 530.476C659.773 530.476 660.163 530.321 660.409 530.011C660.66 529.701 660.797 529.174 660.819 528.432V528.206C660.819 527.386 660.692 526.798 660.437 526.442C660.186 526.087 659.776 525.909 659.206 525.909C658.741 525.909 658.379 526.107 658.119 526.504C657.864 526.896 657.736 527.468 657.736 528.22C657.736 528.972 657.866 529.537 658.126 529.915C658.386 530.289 658.757 530.476 659.24 530.476ZM669.802 532L669.398 530.961H669.344C668.993 531.403 668.631 531.711 668.257 531.884C667.888 532.052 667.405 532.137 666.808 532.137C666.074 532.137 665.495 531.927 665.071 531.508C664.652 531.089 664.442 530.492 664.442 529.717C664.442 528.906 664.725 528.309 665.29 527.926C665.86 527.538 666.716 527.324 667.86 527.283L669.187 527.242V526.907C669.187 526.132 668.79 525.745 667.997 525.745C667.386 525.745 666.669 525.93 665.844 526.299L665.153 524.891C666.033 524.43 667.008 524.2 668.079 524.2C669.104 524.2 669.891 524.424 670.438 524.87C670.984 525.317 671.258 525.996 671.258 526.907V532H669.802ZM669.187 528.459L668.38 528.486C667.774 528.505 667.323 528.614 667.026 528.814C666.73 529.015 666.582 529.32 666.582 529.73C666.582 530.318 666.919 530.612 667.594 530.612C668.077 530.612 668.462 530.473 668.749 530.195C669.041 529.917 669.187 529.548 669.187 529.088V528.459ZM676.631 530.476C676.995 530.476 677.433 530.396 677.943 530.236V531.788C677.424 532.021 676.786 532.137 676.029 532.137C675.195 532.137 674.587 531.927 674.204 531.508C673.826 531.084 673.637 530.451 673.637 529.607V525.923H672.639V525.041L673.787 524.344L674.389 522.73H675.722V524.357H677.861V525.923H675.722V529.607C675.722 529.904 675.804 530.122 675.968 530.264C676.136 530.405 676.357 530.476 676.631 530.476ZM684.349 532L683.945 530.961H683.891C683.54 531.403 683.177 531.711 682.804 531.884C682.435 532.052 681.951 532.137 681.354 532.137C680.621 532.137 680.042 531.927 679.618 531.508C679.199 531.089 678.989 530.492 678.989 529.717C678.989 528.906 679.272 528.309 679.837 527.926C680.407 527.538 681.263 527.324 682.407 527.283L683.733 527.242V526.907C683.733 526.132 683.337 525.745 682.544 525.745C681.933 525.745 681.215 525.93 680.391 526.299L679.7 524.891C680.58 524.43 681.555 524.2 682.626 524.2C683.651 524.2 684.438 524.424 684.984 524.87C685.531 525.317 685.805 525.996 685.805 526.907V532H684.349ZM683.733 528.459L682.927 528.486C682.321 528.505 681.869 528.614 681.573 528.814C681.277 529.015 681.129 529.32 681.129 529.73C681.129 530.318 681.466 530.612 682.141 530.612C682.624 530.612 683.009 530.473 683.296 530.195C683.588 529.917 683.733 529.548 683.733 529.088V528.459ZM596.247 550H594.162V545.536C594.162 544.985 594.069 544.572 593.882 544.299C593.7 544.021 593.41 543.882 593.014 543.882C592.48 543.882 592.093 544.078 591.852 544.47C591.61 544.862 591.489 545.507 591.489 546.404V550H589.404V542.357H590.997L591.277 543.335H591.394C591.599 542.984 591.895 542.711 592.282 542.515C592.67 542.314 593.114 542.214 593.615 542.214C594.759 542.214 595.534 542.588 595.939 543.335H596.124C596.329 542.979 596.63 542.704 597.026 542.508C597.427 542.312 597.879 542.214 598.38 542.214C599.246 542.214 599.9 542.437 600.342 542.884C600.788 543.326 601.012 544.037 601.012 545.017V550H598.92V545.536C598.92 544.985 598.826 544.572 598.64 544.299C598.457 544.021 598.168 543.882 597.771 543.882C597.261 543.882 596.878 544.064 596.623 544.429C596.372 544.793 596.247 545.372 596.247 546.165V550ZM608.012 550L607.608 548.961H607.554C607.203 549.403 606.84 549.711 606.467 549.884C606.098 550.052 605.615 550.137 605.018 550.137C604.284 550.137 603.705 549.927 603.281 549.508C602.862 549.089 602.652 548.492 602.652 547.717C602.652 546.906 602.935 546.309 603.5 545.926C604.07 545.538 604.926 545.324 606.07 545.283L607.396 545.242V544.907C607.396 544.132 607 543.745 606.207 543.745C605.596 543.745 604.879 543.93 604.054 544.299L603.363 542.891C604.243 542.43 605.218 542.2 606.289 542.2C607.314 542.2 608.101 542.424 608.647 542.87C609.194 543.317 609.468 543.996 609.468 544.907V550H608.012ZM607.396 546.459L606.59 546.486C605.984 546.505 605.533 546.614 605.236 546.814C604.94 547.015 604.792 547.32 604.792 547.73C604.792 548.318 605.129 548.612 605.804 548.612C606.287 548.612 606.672 548.473 606.959 548.195C607.251 547.917 607.396 547.548 607.396 547.088V546.459ZM618.676 550H616.591V545.536C616.591 544.985 616.493 544.572 616.297 544.299C616.101 544.021 615.789 543.882 615.36 543.882C614.777 543.882 614.355 544.078 614.096 544.47C613.836 544.857 613.706 545.502 613.706 546.404V550H611.621V542.357H613.214L613.494 543.335H613.61C613.843 542.966 614.162 542.688 614.567 542.501C614.978 542.31 615.442 542.214 615.962 542.214C616.851 542.214 617.525 542.455 617.985 542.938C618.446 543.417 618.676 544.11 618.676 545.017V550ZM625.676 550L625.272 548.961H625.218C624.867 549.403 624.505 549.711 624.131 549.884C623.762 550.052 623.279 550.137 622.682 550.137C621.948 550.137 621.369 549.927 620.945 549.508C620.526 549.089 620.316 548.492 620.316 547.717C620.316 546.906 620.599 546.309 621.164 545.926C621.734 545.538 622.59 545.324 623.734 545.283L625.061 545.242V544.907C625.061 544.132 624.664 543.745 623.871 543.745C623.26 543.745 622.543 543.93 621.718 544.299L621.027 542.891C621.907 542.43 622.882 542.2 623.953 542.2C624.979 542.2 625.765 542.424 626.312 542.87C626.858 543.317 627.132 543.996 627.132 544.907V550H625.676ZM625.061 546.459L624.254 546.486C623.648 546.505 623.197 546.614 622.9 546.814C622.604 547.015 622.456 547.32 622.456 547.73C622.456 548.318 622.793 548.612 623.468 548.612C623.951 548.612 624.336 548.473 624.623 548.195C624.915 547.917 625.061 547.548 625.061 547.088V546.459ZM635.937 542.357V543.417L634.74 543.725C634.959 544.066 635.068 544.449 635.068 544.873C635.068 545.693 634.781 546.334 634.207 546.794C633.637 547.25 632.844 547.478 631.828 547.478L631.452 547.457L631.145 547.423C630.93 547.587 630.823 547.769 630.823 547.97C630.823 548.271 631.206 548.421 631.972 548.421H633.271C634.109 548.421 634.747 548.601 635.185 548.961C635.627 549.321 635.848 549.85 635.848 550.547C635.848 551.44 635.474 552.133 634.727 552.625C633.984 553.117 632.915 553.363 631.521 553.363C630.454 553.363 629.638 553.176 629.073 552.803C628.513 552.434 628.232 551.914 628.232 551.244C628.232 550.784 628.376 550.399 628.663 550.089C628.95 549.779 629.372 549.558 629.928 549.426C629.714 549.335 629.527 549.187 629.367 548.981C629.208 548.772 629.128 548.551 629.128 548.318C629.128 548.027 629.212 547.785 629.381 547.594C629.549 547.398 629.793 547.206 630.112 547.02C629.711 546.846 629.392 546.568 629.155 546.186C628.923 545.803 628.807 545.352 628.807 544.832C628.807 543.998 629.078 543.353 629.62 542.897C630.162 542.442 630.937 542.214 631.944 542.214C632.159 542.214 632.411 542.234 632.703 542.275C632.999 542.312 633.188 542.339 633.271 542.357H635.937ZM630.037 551.08C630.037 551.367 630.174 551.593 630.447 551.757C630.725 551.921 631.113 552.003 631.609 552.003C632.357 552.003 632.942 551.9 633.366 551.695C633.79 551.49 634.002 551.21 634.002 550.854C634.002 550.567 633.877 550.369 633.626 550.26C633.375 550.15 632.988 550.096 632.464 550.096H631.384C631.001 550.096 630.68 550.185 630.42 550.362C630.165 550.545 630.037 550.784 630.037 551.08ZM630.796 544.859C630.796 545.274 630.889 545.602 631.076 545.844C631.268 546.085 631.557 546.206 631.944 546.206C632.336 546.206 632.623 546.085 632.806 545.844C632.988 545.602 633.079 545.274 633.079 544.859C633.079 543.939 632.701 543.479 631.944 543.479C631.179 543.479 630.796 543.939 630.796 544.859ZM640.366 543.697C639.924 543.697 639.578 543.839 639.327 544.121C639.076 544.399 638.933 544.796 638.896 545.311H641.822C641.813 544.796 641.679 544.399 641.419 544.121C641.159 543.839 640.808 543.697 640.366 543.697ZM640.66 550.137C639.43 550.137 638.468 549.797 637.775 549.118C637.083 548.439 636.736 547.478 636.736 546.233C636.736 544.953 637.055 543.964 637.693 543.267C638.336 542.565 639.222 542.214 640.353 542.214C641.433 542.214 642.273 542.521 642.875 543.137C643.477 543.752 643.777 544.602 643.777 545.687V546.698H638.849C638.871 547.291 639.047 547.753 639.375 548.086C639.703 548.419 640.163 548.585 640.756 548.585C641.216 548.585 641.651 548.537 642.062 548.441C642.472 548.346 642.9 548.193 643.347 547.983V549.597C642.982 549.779 642.592 549.913 642.178 550C641.763 550.091 641.257 550.137 640.66 550.137ZM652.315 550H650.23V545.536C650.23 544.985 650.137 544.572 649.95 544.299C649.768 544.021 649.479 543.882 649.082 543.882C648.549 543.882 648.161 544.078 647.92 544.47C647.678 544.862 647.558 545.507 647.558 546.404V550H645.473V542.357H647.065L647.346 543.335H647.462C647.667 542.984 647.963 542.711 648.351 542.515C648.738 542.314 649.182 542.214 649.684 542.214C650.827 542.214 651.602 542.588 652.008 543.335H652.192C652.397 542.979 652.698 542.704 653.095 542.508C653.496 542.312 653.947 542.214 654.448 542.214C655.314 542.214 655.968 542.437 656.41 542.884C656.857 543.326 657.08 544.037 657.08 545.017V550H654.988V545.536C654.988 544.985 654.895 544.572 654.708 544.299C654.526 544.021 654.236 543.882 653.84 543.882C653.329 543.882 652.947 544.064 652.691 544.429C652.441 544.793 652.315 545.372 652.315 546.165V550ZM662.392 543.697C661.95 543.697 661.603 543.839 661.353 544.121C661.102 544.399 660.958 544.796 660.922 545.311H663.848C663.839 544.796 663.704 544.399 663.444 544.121C663.185 543.839 662.834 543.697 662.392 543.697ZM662.686 550.137C661.455 550.137 660.493 549.797 659.801 549.118C659.108 548.439 658.762 547.478 658.762 546.233C658.762 544.953 659.081 543.964 659.719 543.267C660.361 542.565 661.248 542.214 662.378 542.214C663.458 542.214 664.299 542.521 664.9 543.137C665.502 543.752 665.803 544.602 665.803 545.687V546.698H660.874C660.897 547.291 661.072 547.753 661.4 548.086C661.729 548.419 662.189 548.585 662.781 548.585C663.242 548.585 663.677 548.537 664.087 548.441C664.497 548.346 664.925 548.193 665.372 547.983V549.597C665.007 549.779 664.618 549.913 664.203 550C663.788 550.091 663.283 550.137 662.686 550.137ZM674.553 550H672.468V545.536C672.468 544.985 672.37 544.572 672.174 544.299C671.978 544.021 671.666 543.882 671.237 543.882C670.654 543.882 670.232 544.078 669.973 544.47C669.713 544.857 669.583 545.502 669.583 546.404V550H667.498V542.357H669.091L669.371 543.335H669.487C669.72 542.966 670.039 542.688 670.444 542.501C670.854 542.31 671.319 542.214 671.839 542.214C672.728 542.214 673.402 542.455 673.862 542.938C674.323 543.417 674.553 544.11 674.553 545.017V550ZM679.919 548.476C680.284 548.476 680.721 548.396 681.231 548.236V549.788C680.712 550.021 680.074 550.137 679.317 550.137C678.483 550.137 677.875 549.927 677.492 549.508C677.114 549.084 676.925 548.451 676.925 547.607V543.923H675.927V543.041L677.075 542.344L677.677 540.73H679.01V542.357H681.149V543.923H679.01V547.607C679.01 547.904 679.092 548.122 679.256 548.264C679.424 548.405 679.646 548.476 679.919 548.476Z" fill="#00032C"/>
<path d="M611.114 77.709H611.812C612.463 77.709 612.951 77.5814 613.274 77.3262C613.598 77.0664 613.76 76.6904 613.76 76.1982C613.76 75.7015 613.623 75.3346 613.35 75.0977C613.081 74.8607 612.657 74.7422 612.078 74.7422H611.114V77.709ZM615.899 76.123C615.899 77.1986 615.562 78.0212 614.888 78.5908C614.218 79.1605 613.263 79.4453 612.023 79.4453H611.114V83H608.995V73.0059H612.188C613.4 73.0059 614.32 73.2679 614.949 73.792C615.583 74.3115 615.899 75.0885 615.899 76.123ZM622.476 83L622.072 81.9609H622.018C621.667 82.403 621.304 82.7106 620.931 82.8838C620.562 83.0524 620.078 83.1367 619.481 83.1367C618.748 83.1367 618.169 82.9271 617.745 82.5078C617.326 82.0885 617.116 81.4915 617.116 80.7168C617.116 79.9056 617.399 79.3086 617.964 78.9258C618.534 78.5384 619.39 78.3242 620.534 78.2832L621.86 78.2422V77.9072C621.86 77.1325 621.464 76.7451 620.671 76.7451C620.06 76.7451 619.342 76.9297 618.518 77.2988L617.827 75.8906C618.707 75.4303 619.682 75.2002 620.753 75.2002C621.778 75.2002 622.564 75.4235 623.111 75.8701C623.658 76.3167 623.932 76.9958 623.932 77.9072V83H622.476ZM621.86 79.459L621.054 79.4863C620.448 79.5046 619.996 79.6139 619.7 79.8145C619.404 80.015 619.256 80.3203 619.256 80.7305C619.256 81.3184 619.593 81.6123 620.268 81.6123C620.751 81.6123 621.136 81.4733 621.423 81.1953C621.715 80.9173 621.86 80.5482 621.86 80.0879V79.459ZM630.351 75.2139C630.633 75.2139 630.868 75.2344 631.055 75.2754L630.897 77.2305C630.729 77.1849 630.524 77.1621 630.282 77.1621C629.617 77.1621 629.097 77.333 628.724 77.6748C628.354 78.0166 628.17 78.4951 628.17 79.1104V83H626.085V75.3574H627.664L627.972 76.6426H628.074C628.311 76.2142 628.63 75.8701 629.031 75.6104C629.437 75.346 629.877 75.2139 630.351 75.2139ZM635.662 81.4756C636.027 81.4756 636.464 81.3958 636.975 81.2363V82.7881C636.455 83.0205 635.817 83.1367 635.061 83.1367C634.227 83.1367 633.618 82.9271 633.235 82.5078C632.857 82.084 632.668 81.4505 632.668 80.6074V76.9229H631.67V76.041L632.818 75.3438L633.42 73.7305H634.753V75.3574H636.893V76.9229H634.753V80.6074C634.753 80.9036 634.835 81.1224 634.999 81.2637C635.168 81.4049 635.389 81.4756 635.662 81.4756ZM645.581 83H643.496V78.5361C643.496 77.9847 643.398 77.5723 643.202 77.2988C643.006 77.0208 642.694 76.8818 642.266 76.8818C641.682 76.8818 641.261 77.0778 641.001 77.4697C640.741 77.8571 640.611 78.502 640.611 79.4043V83H638.526V75.3574H640.119L640.399 76.335H640.516C640.748 75.9658 641.067 75.6878 641.473 75.501C641.883 75.3096 642.348 75.2139 642.867 75.2139C643.756 75.2139 644.43 75.4554 644.891 75.9385C645.351 76.417 645.581 77.1097 645.581 78.0166V83ZM650.893 76.6973C650.451 76.6973 650.104 76.8385 649.854 77.1211C649.603 77.3991 649.459 77.7956 649.423 78.3105H652.349C652.34 77.7956 652.205 77.3991 651.945 77.1211C651.686 76.8385 651.335 76.6973 650.893 76.6973ZM651.187 83.1367C649.956 83.1367 648.994 82.7972 648.302 82.1182C647.609 81.4391 647.263 80.4775 647.263 79.2334C647.263 77.9528 647.582 76.9639 648.22 76.2666C648.862 75.5648 649.749 75.2139 650.879 75.2139C651.959 75.2139 652.8 75.5215 653.401 76.1367C654.003 76.752 654.304 77.6019 654.304 78.6865V79.6982H649.375C649.398 80.2907 649.573 80.7533 649.901 81.0859C650.229 81.4186 650.69 81.585 651.282 81.585C651.743 81.585 652.178 81.5371 652.588 81.4414C652.998 81.3457 653.426 81.193 653.873 80.9834V82.5967C653.508 82.779 653.119 82.9134 652.704 83C652.289 83.0911 651.784 83.1367 651.187 83.1367ZM660.265 75.2139C660.547 75.2139 660.782 75.2344 660.969 75.2754L660.812 77.2305C660.643 77.1849 660.438 77.1621 660.196 77.1621C659.531 77.1621 659.011 77.333 658.638 77.6748C658.269 78.0166 658.084 78.4951 658.084 79.1104V83H655.999V75.3574H657.578L657.886 76.6426H657.988C658.225 76.2142 658.544 75.8701 658.945 75.6104C659.351 75.346 659.791 75.2139 660.265 75.2139Z" fill="#00032C"/>
<path d="M906.433 73.0059V79.4727C906.433 80.2109 906.266 80.8581 905.934 81.4141C905.605 81.9701 905.129 82.3962 904.505 82.6924C903.881 82.9886 903.142 83.1367 902.29 83.1367C901.005 83.1367 900.007 82.8086 899.296 82.1523C898.585 81.4915 898.229 80.5892 898.229 79.4453V73.0059H900.342V79.124C900.342 79.8942 900.497 80.4593 900.807 80.8193C901.117 81.1794 901.629 81.3594 902.345 81.3594C903.037 81.3594 903.539 81.1794 903.849 80.8193C904.163 80.4548 904.32 79.8851 904.32 79.1104V73.0059H906.433ZM908.88 83V73.0059H910.999V83H908.88ZM917.972 73.0059L914.246 83H912.353L916.078 73.0059H917.972ZM927.433 73.0059V79.4727C927.433 80.2109 927.266 80.8581 926.934 81.4141C926.605 81.9701 926.129 82.3962 925.505 82.6924C924.881 82.9886 924.142 83.1367 923.29 83.1367C922.005 83.1367 921.007 82.8086 920.296 82.1523C919.585 81.4915 919.229 80.5892 919.229 79.4453V73.0059H921.342V79.124C921.342 79.8942 921.497 80.4593 921.807 80.8193C922.117 81.1794 922.629 81.3594 923.345 81.3594C924.037 81.3594 924.539 81.1794 924.849 80.8193C925.163 80.4548 925.32 79.8851 925.32 79.1104V73.0059H927.433ZM937.96 83H935.54L933.216 79.2197L930.892 83H928.622L931.938 77.8457L928.834 73.0059H931.172L933.325 76.6016L935.438 73.0059H937.721L934.583 77.9619L937.96 83Z" fill="#00032C"/>
</svg>
