<svg width="347" height="750" viewBox="0 0 347 750" fill="none" xmlns="http://www.w3.org/2000/svg">
<path d="M165.777 200.47H167.176V193.093H165.777V200.47ZM162.047 200.47H163.446V193.093H162.047V200.47ZM158.316 200.47H159.715V193.093H158.316V200.47ZM131.477 193.883C129.922 193.883 128.627 195.201 128.627 196.781C128.627 198.362 129.922 199.68 131.477 199.68C133.031 199.68 134.326 198.362 134.326 196.781C134.326 195.201 133.031 193.883 131.477 193.883ZM131.477 198.257C130.699 198.257 130.026 197.625 130.026 196.781C130.026 195.991 130.648 195.306 131.477 195.306C132.254 195.306 132.927 195.938 132.927 196.781C132.876 197.572 132.254 198.257 131.477 198.257ZM154.586 200.47H155.984V193.093H154.586V200.47ZM149.603 203H150.026H172.513C173.86 203 175 201.893 175 200.47V193.04C175 191.67 173.912 190.51 172.513 190.51H127.487C126.14 190.51 125 191.617 125 193.04V200.47C125 201.841 126.088 203 127.487 203H148.627H149.206H149.603ZM173.549 200.47C173.549 201.05 173.083 201.524 172.513 201.524H127.487C126.917 201.524 126.451 201.05 126.451 200.47V193.04C126.451 192.46 126.917 191.986 127.487 191.986H172.513C173.083 191.986 173.549 192.46 173.549 193.04V200.47ZM169.508 200.47H170.907V193.093H169.508V200.47ZM165.777 186.242H167.176V178.864H165.777V186.242ZM169.508 186.242H170.907V178.864H169.508V186.242ZM172.513 176.334H127.487C126.14 176.334 125 177.441 125 178.864V186.294C125 187.665 126.088 188.824 127.487 188.824H172.513C173.86 188.824 175 187.717 175 186.294V178.864C174.948 177.441 173.86 176.334 172.513 176.334ZM173.549 186.242C173.549 186.821 173.083 187.296 172.513 187.296H127.487C126.917 187.296 126.451 186.821 126.451 186.242V178.811C126.451 178.231 126.917 177.757 127.487 177.757H172.513C173.083 177.757 173.549 178.231 173.549 178.811V186.242ZM131.477 179.654C129.922 179.654 128.627 180.972 128.627 182.553C128.627 184.134 129.922 185.451 131.477 185.451C133.031 185.451 134.326 184.134 134.326 182.553C134.326 180.919 133.031 179.654 131.477 179.654ZM131.477 184.028C130.699 184.028 130.026 183.396 130.026 182.553C130.026 181.762 130.648 181.077 131.477 181.077C132.254 181.077 132.927 181.71 132.927 182.553C132.876 183.343 132.254 183.976 131.477 184.028ZM158.316 186.242H159.715V178.864H158.316V186.242ZM154.586 186.242H155.984V178.864H154.586V186.242ZM162.047 186.242H163.446V178.864H162.047V186.242ZM159.715 164.582H158.316V171.96H159.715V164.582ZM167.176 164.582H165.777V171.96H167.176V164.582ZM170.907 164.582H169.508V171.96H170.907V164.582ZM163.446 164.582H162.047V171.96H163.446V164.582ZM155.984 164.582H154.586V171.96H155.984V164.582ZM127.487 174.49H172.513C173.86 174.49 175 173.383 175 171.96V164.53C175 163.159 173.912 162 172.513 162H127.487C126.14 162 125 163.107 125 164.53V171.96C125 173.383 126.14 174.49 127.487 174.49ZM126.451 164.582C126.451 164.003 126.917 163.528 127.487 163.528H172.513C173.083 163.528 173.549 164.003 173.549 164.582V172.013C173.549 172.593 173.083 173.067 172.513 173.067H127.487C126.917 173.067 126.451 172.593 126.451 172.013V164.582ZM131.477 171.17C133.031 171.17 134.326 169.852 134.326 168.271C134.326 166.69 133.031 165.373 131.477 165.373C129.922 165.373 128.627 166.69 128.627 168.271C128.627 169.905 129.87 171.17 131.477 171.17ZM131.477 166.796C132.254 166.796 132.927 167.428 132.927 168.271C132.927 169.062 132.306 169.747 131.477 169.747C130.699 169.747 130.026 169.114 130.026 168.271C130.026 167.481 130.648 166.796 131.477 166.796Z" fill="#0076FF"/>
<path d="M165.777 251.47H167.176V244.093H165.777V251.47ZM162.047 251.47H163.446V244.093H162.047V251.47ZM158.316 251.47H159.715V244.093H158.316V251.47ZM131.477 244.883C129.922 244.883 128.627 246.201 128.627 247.781C128.627 249.362 129.922 250.68 131.477 250.68C133.031 250.68 134.326 249.362 134.326 247.781C134.326 246.201 133.031 244.883 131.477 244.883ZM131.477 249.257C130.699 249.257 130.026 248.625 130.026 247.781C130.026 246.991 130.648 246.306 131.477 246.306C132.254 246.306 132.927 246.938 132.927 247.781C132.876 248.572 132.254 249.257 131.477 249.257ZM154.586 251.47H155.984V244.093H154.586V251.47ZM149.603 254H150.026H172.513C173.86 254 175 252.893 175 251.47V244.04C175 242.67 173.912 241.51 172.513 241.51H127.487C126.14 241.51 125 242.617 125 244.04V251.47C125 252.841 126.088 254 127.487 254H148.627H149.206H149.603ZM173.549 251.47C173.549 252.05 173.083 252.524 172.513 252.524H127.487C126.917 252.524 126.451 252.05 126.451 251.47V244.04C126.451 243.46 126.917 242.986 127.487 242.986H172.513C173.083 242.986 173.549 243.46 173.549 244.04V251.47ZM169.508 251.47H170.907V244.093H169.508V251.47ZM165.777 237.242H167.176V229.864H165.777V237.242ZM169.508 237.242H170.907V229.864H169.508V237.242ZM172.513 227.334H127.487C126.14 227.334 125 228.441 125 229.864V237.294C125 238.665 126.088 239.824 127.487 239.824H172.513C173.86 239.824 175 238.717 175 237.294V229.864C174.948 228.441 173.86 227.334 172.513 227.334ZM173.549 237.242C173.549 237.821 173.083 238.296 172.513 238.296H127.487C126.917 238.296 126.451 237.821 126.451 237.242V229.811C126.451 229.231 126.917 228.757 127.487 228.757H172.513C173.083 228.757 173.549 229.231 173.549 229.811V237.242ZM131.477 230.654C129.922 230.654 128.627 231.972 128.627 233.553C128.627 235.134 129.922 236.451 131.477 236.451C133.031 236.451 134.326 235.134 134.326 233.553C134.326 231.919 133.031 230.654 131.477 230.654ZM131.477 235.028C130.699 235.028 130.026 234.396 130.026 233.553C130.026 232.762 130.648 232.077 131.477 232.077C132.254 232.077 132.927 232.71 132.927 233.553C132.876 234.343 132.254 234.976 131.477 235.028ZM158.316 237.242H159.715V229.864H158.316V237.242ZM154.586 237.242H155.984V229.864H154.586V237.242ZM162.047 237.242H163.446V229.864H162.047V237.242ZM159.715 215.582H158.316V222.96H159.715V215.582ZM167.176 215.582H165.777V222.96H167.176V215.582ZM170.907 215.582H169.508V222.96H170.907V215.582ZM163.446 215.582H162.047V222.96H163.446V215.582ZM155.984 215.582H154.586V222.96H155.984V215.582ZM127.487 225.49H172.513C173.86 225.49 175 224.383 175 222.96V215.53C175 214.159 173.912 213 172.513 213H127.487C126.14 213 125 214.107 125 215.53V222.96C125 224.383 126.14 225.49 127.487 225.49ZM126.451 215.582C126.451 215.003 126.917 214.528 127.487 214.528H172.513C173.083 214.528 173.549 215.003 173.549 215.582V223.013C173.549 223.593 173.083 224.067 172.513 224.067H127.487C126.917 224.067 126.451 223.593 126.451 223.013V215.582ZM131.477 222.17C133.031 222.17 134.326 220.852 134.326 219.271C134.326 217.69 133.031 216.373 131.477 216.373C129.922 216.373 128.627 217.69 128.627 219.271C128.627 220.905 129.87 222.17 131.477 222.17ZM131.477 217.796C132.254 217.796 132.927 218.428 132.927 219.271C132.927 220.062 132.306 220.747 131.477 220.747C130.699 220.747 130.026 220.114 130.026 219.271C130.026 218.481 130.648 217.796 131.477 217.796Z" fill="#0076FF"/>
<path d="M165.777 302.47H167.176V295.093H165.777V302.47ZM162.047 302.47H163.446V295.093H162.047V302.47ZM158.316 302.47H159.715V295.093H158.316V302.47ZM131.477 295.883C129.922 295.883 128.627 297.201 128.627 298.781C128.627 300.362 129.922 301.68 131.477 301.68C133.031 301.68 134.326 300.362 134.326 298.781C134.326 297.201 133.031 295.883 131.477 295.883ZM131.477 300.257C130.699 300.257 130.026 299.625 130.026 298.781C130.026 297.991 130.648 297.306 131.477 297.306C132.254 297.306 132.927 297.938 132.927 298.781C132.876 299.572 132.254 300.257 131.477 300.257ZM154.586 302.47H155.984V295.093H154.586V302.47ZM149.603 305H150.026H172.513C173.86 305 175 303.893 175 302.47V295.04C175 293.67 173.912 292.51 172.513 292.51H127.487C126.14 292.51 125 293.617 125 295.04V302.47C125 303.841 126.088 305 127.487 305H148.627H149.206H149.603ZM173.549 302.47C173.549 303.05 173.083 303.524 172.513 303.524H127.487C126.917 303.524 126.451 303.05 126.451 302.47V295.04C126.451 294.46 126.917 293.986 127.487 293.986H172.513C173.083 293.986 173.549 294.46 173.549 295.04V302.47ZM169.508 302.47H170.907V295.093H169.508V302.47ZM165.777 288.242H167.176V280.864H165.777V288.242ZM169.508 288.242H170.907V280.864H169.508V288.242ZM172.513 278.334H127.487C126.14 278.334 125 279.441 125 280.864V288.294C125 289.665 126.088 290.824 127.487 290.824H172.513C173.86 290.824 175 289.717 175 288.294V280.864C174.948 279.441 173.86 278.334 172.513 278.334ZM173.549 288.242C173.549 288.821 173.083 289.296 172.513 289.296H127.487C126.917 289.296 126.451 288.821 126.451 288.242V280.811C126.451 280.231 126.917 279.757 127.487 279.757H172.513C173.083 279.757 173.549 280.231 173.549 280.811V288.242ZM131.477 281.654C129.922 281.654 128.627 282.972 128.627 284.553C128.627 286.134 129.922 287.451 131.477 287.451C133.031 287.451 134.326 286.134 134.326 284.553C134.326 282.919 133.031 281.654 131.477 281.654ZM131.477 286.028C130.699 286.028 130.026 285.396 130.026 284.553C130.026 283.762 130.648 283.077 131.477 283.077C132.254 283.077 132.927 283.71 132.927 284.553C132.876 285.343 132.254 285.976 131.477 286.028ZM158.316 288.242H159.715V280.864H158.316V288.242ZM154.586 288.242H155.984V280.864H154.586V288.242ZM162.047 288.242H163.446V280.864H162.047V288.242ZM159.715 266.582H158.316V273.96H159.715V266.582ZM167.176 266.582H165.777V273.96H167.176V266.582ZM170.907 266.582H169.508V273.96H170.907V266.582ZM163.446 266.582H162.047V273.96H163.446V266.582ZM155.984 266.582H154.586V273.96H155.984V266.582ZM127.487 276.49H172.513C173.86 276.49 175 275.383 175 273.96V266.53C175 265.159 173.912 264 172.513 264H127.487C126.14 264 125 265.107 125 266.53V273.96C125 275.383 126.14 276.49 127.487 276.49ZM126.451 266.582C126.451 266.003 126.917 265.528 127.487 265.528H172.513C173.083 265.528 173.549 266.003 173.549 266.582V274.013C173.549 274.593 173.083 275.067 172.513 275.067H127.487C126.917 275.067 126.451 274.593 126.451 274.013V266.582ZM131.477 273.17C133.031 273.17 134.326 271.852 134.326 270.271C134.326 268.69 133.031 267.373 131.477 267.373C129.922 267.373 128.627 268.69 128.627 270.271C128.627 271.905 129.87 273.17 131.477 273.17ZM131.477 268.796C132.254 268.796 132.927 269.428 132.927 270.271C132.927 271.062 132.306 271.747 131.477 271.747C130.699 271.747 130.026 271.114 130.026 270.271C130.026 269.481 130.648 268.796 131.477 268.796Z" fill="#0076FF"/>
<path d="M165.777 431.47H167.176V424.093H165.777V431.47ZM162.047 431.47H163.446V424.093H162.047V431.47ZM158.316 431.47H159.715V424.093H158.316V431.47ZM131.477 424.883C129.922 424.883 128.627 426.201 128.627 427.781C128.627 429.362 129.922 430.68 131.477 430.68C133.031 430.68 134.326 429.362 134.326 427.781C134.326 426.201 133.031 424.883 131.477 424.883ZM131.477 429.257C130.699 429.257 130.026 428.625 130.026 427.781C130.026 426.991 130.648 426.306 131.477 426.306C132.254 426.306 132.927 426.938 132.927 427.781C132.876 428.572 132.254 429.257 131.477 429.257ZM154.586 431.47H155.984V424.093H154.586V431.47ZM149.603 434H150.026H172.513C173.86 434 175 432.893 175 431.47V424.04C175 422.67 173.912 421.51 172.513 421.51H127.487C126.14 421.51 125 422.617 125 424.04V431.47C125 432.841 126.088 434 127.487 434H148.627H149.206H149.603ZM173.549 431.47C173.549 432.05 173.083 432.524 172.513 432.524H127.487C126.917 432.524 126.451 432.05 126.451 431.47V424.04C126.451 423.46 126.917 422.986 127.487 422.986H172.513C173.083 422.986 173.549 423.46 173.549 424.04V431.47ZM169.508 431.47H170.907V424.093H169.508V431.47ZM165.777 417.242H167.176V409.864H165.777V417.242ZM169.508 417.242H170.907V409.864H169.508V417.242ZM172.513 407.334H127.487C126.14 407.334 125 408.441 125 409.864V417.294C125 418.665 126.088 419.824 127.487 419.824H172.513C173.86 419.824 175 418.717 175 417.294V409.864C174.948 408.441 173.86 407.334 172.513 407.334ZM173.549 417.242C173.549 417.821 173.083 418.296 172.513 418.296H127.487C126.917 418.296 126.451 417.821 126.451 417.242V409.811C126.451 409.231 126.917 408.757 127.487 408.757H172.513C173.083 408.757 173.549 409.231 173.549 409.811V417.242ZM131.477 410.654C129.922 410.654 128.627 411.972 128.627 413.553C128.627 415.134 129.922 416.451 131.477 416.451C133.031 416.451 134.326 415.134 134.326 413.553C134.326 411.919 133.031 410.654 131.477 410.654ZM131.477 415.028C130.699 415.028 130.026 414.396 130.026 413.553C130.026 412.762 130.648 412.077 131.477 412.077C132.254 412.077 132.927 412.71 132.927 413.553C132.876 414.343 132.254 414.976 131.477 415.028ZM158.316 417.242H159.715V409.864H158.316V417.242ZM154.586 417.242H155.984V409.864H154.586V417.242ZM162.047 417.242H163.446V409.864H162.047V417.242ZM159.715 395.582H158.316V402.96H159.715V395.582ZM167.176 395.582H165.777V402.96H167.176V395.582ZM170.907 395.582H169.508V402.96H170.907V395.582ZM163.446 395.582H162.047V402.96H163.446V395.582ZM155.984 395.582H154.586V402.96H155.984V395.582ZM127.487 405.49H172.513C173.86 405.49 175 404.383 175 402.96V395.53C175 394.159 173.912 393 172.513 393H127.487C126.14 393 125 394.107 125 395.53V402.96C125 404.383 126.14 405.49 127.487 405.49ZM126.451 395.582C126.451 395.003 126.917 394.528 127.487 394.528H172.513C173.083 394.528 173.549 395.003 173.549 395.582V403.013C173.549 403.593 173.083 404.067 172.513 404.067H127.487C126.917 404.067 126.451 403.593 126.451 403.013V395.582ZM131.477 402.17C133.031 402.17 134.326 400.852 134.326 399.271C134.326 397.69 133.031 396.373 131.477 396.373C129.922 396.373 128.627 397.69 128.627 399.271C128.627 400.905 129.87 402.17 131.477 402.17ZM131.477 397.796C132.254 397.796 132.927 398.428 132.927 399.271C132.927 400.062 132.306 400.747 131.477 400.747C130.699 400.747 130.026 400.114 130.026 399.271C130.026 398.481 130.648 397.796 131.477 397.796Z" fill="#0076FF"/>
<path d="M305.884 382.715C304.842 378.828 297.258 375 284 375C270.742 375 263.158 378.828 262.116 382.715C262.058 382.835 262 383.014 262 383.134V416.806C262 416.926 262.058 417.105 262.116 417.225C263.158 421.651 272.479 425 284 425C295.521 425 304.842 421.711 305.884 417.285C305.942 417.165 306 416.986 306 416.866V383.134C306 382.955 306 382.835 305.884 382.715ZM304.205 405.861C304.205 405.981 304.147 406.1 304.089 406.16C304.032 406.28 304.032 406.34 303.974 406.459C303.916 406.579 303.858 406.699 303.8 406.818C303.742 406.878 303.684 406.998 303.626 407.057C303.511 407.177 303.453 407.297 303.279 407.416C303.221 407.476 303.105 407.536 303.047 407.655C302.932 407.775 302.758 407.895 302.584 408.014C302.526 408.074 302.41 408.134 302.353 408.194C302.179 408.313 301.947 408.493 301.716 408.612C301.658 408.672 301.6 408.672 301.542 408.732C301.253 408.852 301.021 409.031 300.732 409.211C300.674 409.211 300.674 409.27 300.616 409.27C300.268 409.45 299.921 409.569 299.574 409.749C299.574 409.749 299.574 409.749 299.516 409.749C297.489 410.586 294.942 411.244 291.989 411.722H291.932C291.353 411.782 290.774 411.902 290.137 411.962C290.021 411.962 289.905 411.962 289.847 412.022C289.326 412.081 288.747 412.141 288.226 412.201C287.995 412.201 287.705 412.201 287.474 412.261C287.068 412.261 286.663 412.321 286.2 412.321C285.505 412.321 284.811 412.38 284.058 412.38C283.305 412.38 282.611 412.38 281.916 412.321C281.511 412.321 281.047 412.261 280.642 412.261C280.41 412.261 280.121 412.261 279.889 412.201C279.311 412.141 278.789 412.081 278.268 412.022C278.153 412.022 278.037 412.022 277.979 411.962C277.342 411.902 276.763 411.842 276.184 411.722H276.126C273.174 411.244 270.568 410.586 268.6 409.749C268.6 409.749 268.6 409.749 268.542 409.749C268.195 409.569 267.847 409.45 267.5 409.27C267.442 409.27 267.442 409.211 267.384 409.211C267.095 409.091 266.805 408.911 266.574 408.732C266.516 408.672 266.458 408.672 266.4 408.612C266.168 408.493 265.937 408.313 265.763 408.194C265.705 408.134 265.589 408.074 265.532 408.014C265.358 407.895 265.242 407.775 265.068 407.655C265.01 407.596 264.895 407.536 264.837 407.416C264.721 407.297 264.605 407.177 264.489 407.057C264.432 406.998 264.374 406.878 264.316 406.818C264.258 406.699 264.2 406.579 264.142 406.459C264.084 406.34 264.026 406.28 264.026 406.16C263.968 406.041 263.968 405.921 263.91 405.861C263.853 405.742 263.853 405.562 263.853 405.443C263.853 405.323 263.853 405.263 263.853 405.144C263.853 405.024 263.853 404.844 263.853 404.725V397.966L263.91 398.026C264.084 398.206 264.316 398.385 264.547 398.565C267.847 401.136 274.505 403.17 284.116 403.17C293.668 403.17 300.268 401.196 303.626 398.624C303.916 398.445 304.147 398.206 304.379 398.026V404.785C304.321 404.904 304.321 405.084 304.379 405.203C304.379 405.323 304.379 405.383 304.379 405.502C304.263 405.562 304.205 405.682 304.205 405.861ZM304.263 387.022V393.78C304.205 393.9 304.205 394.019 304.263 394.199C304.263 394.318 304.263 394.378 304.263 394.498C304.263 394.617 304.205 394.797 304.205 394.916C304.205 395.036 304.147 395.156 304.089 395.215C304.032 395.275 304.032 395.395 303.974 395.514C303.916 395.634 303.858 395.754 303.8 395.873C303.742 395.933 303.684 396.053 303.626 396.112C303.511 396.232 303.453 396.352 303.279 396.471C303.221 396.531 303.105 396.591 303.047 396.711C302.932 396.83 302.758 396.95 302.584 397.069C302.526 397.129 302.41 397.189 302.353 397.249C302.179 397.368 301.947 397.548 301.716 397.667C301.658 397.727 301.6 397.727 301.542 397.787C301.253 397.966 301.021 398.086 300.732 398.266C300.674 398.266 300.674 398.325 300.616 398.325C300.268 398.505 299.921 398.624 299.574 398.804C299.574 398.804 299.574 398.804 299.516 398.804C297.489 399.641 294.942 400.299 291.989 400.778H291.932C291.353 400.837 290.774 400.957 290.137 401.017C290.021 401.017 289.905 401.017 289.847 401.077C289.326 401.136 288.747 401.196 288.226 401.196C287.995 401.196 287.705 401.256 287.474 401.256C287.068 401.256 286.663 401.316 286.2 401.316C285.505 401.316 284.811 401.376 284.058 401.376C283.305 401.376 282.611 401.376 281.916 401.316C281.511 401.316 281.047 401.256 280.642 401.256C280.41 401.256 280.121 401.256 279.889 401.196C279.311 401.136 278.789 401.077 278.268 401.017C278.153 401.017 278.037 401.017 277.979 401.017C277.342 400.957 276.763 400.837 276.184 400.778H276.126C273.174 400.299 270.568 399.641 268.6 398.804C268.6 398.804 268.6 398.804 268.542 398.804C268.195 398.624 267.847 398.505 267.5 398.325C267.442 398.325 267.442 398.266 267.384 398.266C267.095 398.146 266.805 397.966 266.574 397.847C266.516 397.787 266.458 397.787 266.4 397.727C266.168 397.608 265.937 397.428 265.763 397.309C265.705 397.249 265.589 397.189 265.532 397.129C265.358 397.01 265.242 396.89 265.068 396.77C265.01 396.711 264.895 396.651 264.837 396.531C264.721 396.411 264.605 396.292 264.489 396.172C264.432 396.112 264.374 395.993 264.316 395.933C264.258 395.813 264.2 395.694 264.142 395.574C264.084 395.514 264.026 395.395 264.026 395.275C263.968 395.155 263.968 395.036 263.91 394.976C263.853 394.856 263.853 394.677 263.853 394.557C263.853 394.438 263.853 394.378 263.853 394.258C263.853 394.139 263.853 393.959 263.853 393.84V387.081C263.968 387.201 264.084 387.261 264.2 387.38C264.258 387.44 264.316 387.5 264.374 387.56C264.663 387.799 264.953 387.978 265.242 388.218C265.3 388.278 265.358 388.278 265.416 388.337C265.647 388.517 265.937 388.636 266.226 388.816C266.342 388.876 266.458 388.935 266.574 388.995C266.921 389.175 267.21 389.354 267.616 389.474C267.674 389.474 267.732 389.533 267.789 389.533C268.195 389.713 268.658 389.892 269.121 390.072C269.237 390.132 269.353 390.132 269.526 390.191C269.874 390.311 270.279 390.431 270.626 390.55C270.742 390.61 270.916 390.61 271.032 390.67C271.553 390.789 272.074 390.969 272.653 391.088C272.711 391.088 272.826 391.148 272.884 391.148C273.347 391.268 273.868 391.388 274.389 391.447C274.563 391.507 274.737 391.507 274.91 391.567C275.432 391.627 275.895 391.746 276.474 391.806C276.589 391.806 276.763 391.866 276.879 391.866C277.516 391.926 278.21 392.045 278.905 392.105C279.079 392.105 279.253 392.105 279.426 392.165C280.005 392.225 280.526 392.225 281.105 392.285C281.337 392.285 281.511 392.285 281.742 392.285C282.495 392.285 283.305 392.345 284.058 392.345C284.868 392.345 285.621 392.344 286.374 392.285C286.605 392.285 286.779 392.285 287.01 392.285C287.589 392.225 288.168 392.225 288.689 392.165C288.863 392.165 289.037 392.165 289.211 392.105C289.905 392.045 290.6 391.986 291.237 391.866C291.353 391.866 291.526 391.806 291.642 391.806C292.163 391.746 292.684 391.687 293.205 391.567C293.379 391.567 293.553 391.507 293.726 391.447C294.247 391.328 294.768 391.268 295.232 391.148C295.289 391.148 295.405 391.088 295.463 391.088C296.042 390.969 296.563 390.849 297.084 390.67C297.2 390.61 297.374 390.61 297.489 390.55C297.895 390.431 298.242 390.311 298.589 390.191C298.705 390.132 298.821 390.132 298.995 390.072C299.458 389.892 299.863 389.713 300.326 389.533C300.384 389.533 300.442 389.474 300.5 389.474C300.847 389.294 301.195 389.175 301.542 388.995C301.658 388.935 301.774 388.876 301.889 388.816C302.179 388.636 302.468 388.517 302.7 388.337C302.758 388.278 302.816 388.278 302.874 388.218C303.163 388.038 303.453 387.799 303.742 387.56C303.8 387.5 303.858 387.44 303.916 387.38C304.032 387.261 304.147 387.141 304.263 387.022ZM284 376.794C295.926 376.794 304.263 380.383 304.263 383.612C304.263 386.842 295.926 390.431 284 390.431C272.074 390.431 263.737 386.842 263.737 383.612C263.795 380.383 272.074 376.794 284 376.794ZM304.263 416.507C304.263 416.567 304.263 416.567 304.263 416.627C303.742 419.797 295.521 423.146 284.058 423.146C272.595 423.146 264.316 419.797 263.853 416.627C263.853 416.567 263.853 416.567 263.853 416.507V408.852L263.91 408.911C264.084 409.091 264.316 409.27 264.547 409.45C267.847 412.022 274.505 414.055 284.116 414.055C293.668 414.055 300.268 412.081 303.626 409.51C303.916 409.33 304.147 409.091 304.379 408.911V416.507H304.263Z" fill="#0076FF"/>
<path d="M143.625 62L116 76.4749L127.212 84.3099L144.368 86.5674L153.891 95L188 77.2716L178.206 68.6398L161.118 66.4487L156.593 63.7264" stroke="#0076FF" stroke-width="2" stroke-miterlimit="10"/>
<path d="M127 84L140 77" stroke="#0076FF" stroke-width="2" stroke-miterlimit="10"/>
<path d="M178 68L154 81" stroke="#0076FF" stroke-width="2" stroke-miterlimit="10"/>
<path d="M150 36.9355C152.323 36.9355 154.065 38.6774 154.065 41C154.065 42.1613 153.677 43.1935 152.903 43.9032C152.129 44.6774 151.097 45.0645 150 45.0645H149.935C148.839 45.0645 147.806 44.6774 147.032 43.9032C146.258 43.129 145.871 42.0968 145.871 41C145.935 38.7419 147.677 36.9355 150 36.9355ZM150 35C146.645 35 144 37.5161 144 41C144 44.4839 146.71 47 150 47C153.29 47 156 44.4839 156 41C156 37.5161 153.355 35 150 35Z" fill="#0076FF"/>
<path d="M150 25.9835C158.267 25.9835 165 32.6612 165 40.8595C165 44.8265 164.333 47.2066 162.4 50.3141C160.667 53.0909 153.333 63.6694 150 68.4959C146.667 63.6694 139.333 53.0909 137.6 50.3141C135.667 47.2066 135 44.8265 135 40.8595C135 32.6612 141.733 25.9835 150 25.9835ZM150 24C140.6 24 133 31.5372 133 40.8595C133 44.8926 133.6 47.6694 135.933 51.3719C138.267 55.0083 150 72 150 72C150 72 161.8 55.0083 164.067 51.3719C166.4 47.7355 167 44.8926 167 40.8595C167 31.5372 159.4 24 150 24Z" fill="#0076FF"/>
<path d="M216 68V234" stroke="#0076FF" stroke-width="2" stroke-miterlimit="10"/>
<path d="M234 68V234" stroke="#0076FF" stroke-width="2" stroke-miterlimit="10"/>
<path d="M252 68V234" stroke="#0076FF" stroke-width="2" stroke-miterlimit="10"/>
<path d="M270 68V234" stroke="#0076FF" stroke-width="2" stroke-miterlimit="10"/>
<path d="M194 234H284V363" stroke="#0076FF" stroke-width="2" stroke-miterlimit="10"/>
<path d="M191 62H276" stroke="#0076FF" stroke-width="2" stroke-miterlimit="10"/>
<path d="M22.959 57.0059H25.0986L21.7012 67H19.3906L16 57.0059H18.1396L20.0195 62.9531C20.1243 63.304 20.2314 63.7142 20.3408 64.1836C20.4548 64.6484 20.5254 64.972 20.5527 65.1543C20.6029 64.735 20.7738 64.0013 21.0654 62.9531L22.959 57.0059ZM29.3643 60.6973C28.9222 60.6973 28.5758 60.8385 28.3252 61.1211C28.0745 61.3991 27.931 61.7956 27.8945 62.3105H30.8203C30.8112 61.7956 30.6768 61.3991 30.417 61.1211C30.1572 60.8385 29.8063 60.6973 29.3643 60.6973ZM29.6582 67.1367C28.4277 67.1367 27.4661 66.7972 26.7734 66.1182C26.0807 65.4391 25.7344 64.4775 25.7344 63.2334C25.7344 61.9528 26.0534 60.9639 26.6914 60.2666C27.334 59.5648 28.2204 59.2139 29.3506 59.2139C30.4307 59.2139 31.2715 59.5215 31.873 60.1367C32.4746 60.752 32.7754 61.6019 32.7754 62.6865V63.6982H27.8467C27.8695 64.2907 28.0449 64.7533 28.373 65.0859C28.7012 65.4186 29.1615 65.585 29.7539 65.585C30.2142 65.585 30.6494 65.5371 31.0596 65.4414C31.4697 65.3457 31.8981 65.193 32.3447 64.9834V66.5967C31.9801 66.779 31.5905 66.9134 31.1758 67C30.7611 67.0911 30.2552 67.1367 29.6582 67.1367ZM41.5254 67H39.4404V62.5361C39.4404 61.9847 39.3424 61.5723 39.1465 61.2988C38.9505 61.0208 38.6383 60.8818 38.21 60.8818C37.6266 60.8818 37.2051 61.0778 36.9453 61.4697C36.6855 61.8571 36.5557 62.502 36.5557 63.4043V67H34.4707V59.3574H36.0635L36.3438 60.335H36.46C36.6924 59.9658 37.0114 59.6878 37.417 59.501C37.8271 59.3096 38.292 59.2139 38.8115 59.2139C39.7002 59.2139 40.3747 59.4554 40.835 59.9385C41.2952 60.417 41.5254 61.1097 41.5254 62.0166V67ZM49.0859 67L48.8057 66.0225H48.6963C48.473 66.3779 48.1562 66.6536 47.7461 66.8496C47.3359 67.041 46.8688 67.1367 46.3447 67.1367C45.4469 67.1367 44.7702 66.8975 44.3145 66.4189C43.8587 65.9359 43.6309 65.2432 43.6309 64.3408V59.3574H45.7158V63.8213C45.7158 64.3727 45.8138 64.7874 46.0098 65.0654C46.2057 65.3389 46.5179 65.4756 46.9463 65.4756C47.5296 65.4756 47.9512 65.2819 48.2109 64.8945C48.4707 64.5026 48.6006 63.8555 48.6006 62.9531V59.3574H50.6855V67H49.0859ZM56.0381 60.6973C55.596 60.6973 55.2497 60.8385 54.999 61.1211C54.7484 61.3991 54.6048 61.7956 54.5684 62.3105H57.4941C57.485 61.7956 57.3506 61.3991 57.0908 61.1211C56.8311 60.8385 56.4801 60.6973 56.0381 60.6973ZM56.332 67.1367C55.1016 67.1367 54.14 66.7972 53.4473 66.1182C52.7546 65.4391 52.4082 64.4775 52.4082 63.2334C52.4082 61.9528 52.7272 60.9639 53.3652 60.2666C54.0078 59.5648 54.8942 59.2139 56.0244 59.2139C57.1045 59.2139 57.9453 59.5215 58.5469 60.1367C59.1484 60.752 59.4492 61.6019 59.4492 62.6865V63.6982H54.5205C54.5433 64.2907 54.7188 64.7533 55.0469 65.0859C55.375 65.4186 55.8353 65.585 56.4277 65.585C56.888 65.585 57.3232 65.5371 57.7334 65.4414C58.1436 65.3457 58.5719 65.193 59.0186 64.9834V66.5967C58.654 66.779 58.2643 66.9134 57.8496 67C57.4349 67.0911 56.929 67.1367 56.332 67.1367ZM66.4766 64.7305C66.4766 65.5143 66.2031 66.1113 65.6562 66.5215C65.1139 66.9316 64.3005 67.1367 63.2158 67.1367C62.6598 67.1367 62.1859 67.098 61.7939 67.0205C61.402 66.9476 61.0352 66.8382 60.6934 66.6924V64.9697C61.0807 65.152 61.516 65.3047 61.999 65.4277C62.4867 65.5508 62.915 65.6123 63.2842 65.6123C64.0407 65.6123 64.4189 65.3936 64.4189 64.9561C64.4189 64.792 64.3688 64.6598 64.2686 64.5596C64.1683 64.4548 63.9951 64.3385 63.749 64.2109C63.5029 64.0788 63.1748 63.9261 62.7646 63.7529C62.1768 63.5068 61.7438 63.279 61.4658 63.0693C61.1924 62.8597 60.9919 62.6204 60.8643 62.3516C60.7412 62.0781 60.6797 61.7432 60.6797 61.3467C60.6797 60.6676 60.9417 60.1436 61.4658 59.7744C61.9945 59.4007 62.7419 59.2139 63.708 59.2139C64.6286 59.2139 65.5241 59.4144 66.3945 59.8154L65.7656 61.3193C65.3828 61.1553 65.0251 61.0208 64.6924 60.916C64.3597 60.8112 64.0202 60.7588 63.6738 60.7588C63.0586 60.7588 62.751 60.9251 62.751 61.2578C62.751 61.4447 62.849 61.6064 63.0449 61.7432C63.2454 61.8799 63.6807 62.0827 64.3506 62.3516C64.9476 62.5931 65.3851 62.8187 65.6631 63.0283C65.9411 63.238 66.1462 63.4795 66.2783 63.7529C66.4105 64.0264 66.4766 64.3522 66.4766 64.7305Z" fill="#00032C"/>
<path d="M26.3291 208.989C26.3291 210.644 25.9189 211.915 25.0986 212.804C24.2783 213.692 23.1025 214.137 21.5713 214.137C20.04 214.137 18.8643 213.692 18.0439 212.804C17.2236 211.915 16.8135 210.639 16.8135 208.976C16.8135 207.312 17.2236 206.043 18.0439 205.168C18.8688 204.288 20.0492 203.849 21.585 203.849C23.1208 203.849 24.2943 204.291 25.1055 205.175C25.9212 206.059 26.3291 207.33 26.3291 208.989ZM19.0352 208.989C19.0352 210.106 19.2471 210.947 19.6709 211.512C20.0947 212.077 20.7282 212.359 21.5713 212.359C23.262 212.359 24.1074 211.236 24.1074 208.989C24.1074 206.738 23.2666 205.612 21.585 205.612C20.7419 205.612 20.1061 205.897 19.6777 206.467C19.2493 207.032 19.0352 207.873 19.0352 208.989ZM32.4336 214.137C31.5358 214.137 30.8317 213.811 30.3213 213.159H30.2119C30.2848 213.797 30.3213 214.166 30.3213 214.267V217.363H28.2363V206.357H29.9316L30.2256 207.349H30.3213C30.8089 206.592 31.5312 206.214 32.4883 206.214C33.3906 206.214 34.097 206.562 34.6074 207.26C35.1178 207.957 35.373 208.925 35.373 210.165C35.373 210.981 35.2523 211.689 35.0107 212.291C34.7738 212.893 34.4342 213.351 33.9922 213.665C33.5501 213.979 33.0306 214.137 32.4336 214.137ZM31.8184 207.882C31.3034 207.882 30.9274 208.041 30.6904 208.36C30.4535 208.675 30.3304 209.197 30.3213 209.926V210.151C30.3213 210.972 30.4421 211.56 30.6836 211.915C30.9297 212.271 31.3171 212.448 31.8457 212.448C32.7799 212.448 33.2471 211.678 33.2471 210.138C33.2471 209.386 33.1309 208.823 32.8984 208.449C32.6706 208.071 32.3105 207.882 31.8184 207.882ZM40.2607 207.697C39.8187 207.697 39.4723 207.839 39.2217 208.121C38.971 208.399 38.8275 208.796 38.791 209.311H41.7168C41.7077 208.796 41.5732 208.399 41.3135 208.121C41.0537 207.839 40.7028 207.697 40.2607 207.697ZM40.5547 214.137C39.3242 214.137 38.3626 213.797 37.6699 213.118C36.9772 212.439 36.6309 211.478 36.6309 210.233C36.6309 208.953 36.9499 207.964 37.5879 207.267C38.2305 206.565 39.1169 206.214 40.2471 206.214C41.3271 206.214 42.168 206.521 42.7695 207.137C43.3711 207.752 43.6719 208.602 43.6719 209.687V210.698H38.7432C38.766 211.291 38.9414 211.753 39.2695 212.086C39.5977 212.419 40.0579 212.585 40.6504 212.585C41.1107 212.585 41.5459 212.537 41.9561 212.441C42.3662 212.346 42.7946 212.193 43.2412 211.983V213.597C42.8766 213.779 42.487 213.913 42.0723 214C41.6576 214.091 41.1517 214.137 40.5547 214.137ZM52.4219 214H50.3369V209.536C50.3369 208.985 50.2389 208.572 50.043 208.299C49.847 208.021 49.5348 207.882 49.1064 207.882C48.5231 207.882 48.1016 208.078 47.8418 208.47C47.582 208.857 47.4521 209.502 47.4521 210.404V214H45.3672V206.357H46.96L47.2402 207.335H47.3564C47.5889 206.966 47.9079 206.688 48.3135 206.501C48.7236 206.31 49.1885 206.214 49.708 206.214C50.5967 206.214 51.2712 206.455 51.7314 206.938C52.1917 207.417 52.4219 208.11 52.4219 209.017V214ZM54.7324 204.006H57.8428C59.2601 204.006 60.2878 204.209 60.9258 204.614C61.5684 205.015 61.8896 205.656 61.8896 206.535C61.8896 207.132 61.7484 207.622 61.4658 208.005C61.1878 208.388 60.8164 208.618 60.3516 208.695V208.764C60.985 208.905 61.4408 209.169 61.7188 209.557C62.0013 209.944 62.1426 210.459 62.1426 211.102C62.1426 212.013 61.8122 212.724 61.1514 213.234C60.4951 213.745 59.6019 214 58.4717 214H54.7324V204.006ZM56.8516 207.964H58.082C58.6562 207.964 59.071 207.875 59.3262 207.697C59.5859 207.52 59.7158 207.226 59.7158 206.815C59.7158 206.433 59.5745 206.159 59.292 205.995C59.014 205.826 58.5719 205.742 57.9658 205.742H56.8516V207.964ZM56.8516 209.646V212.25H58.2324C58.8158 212.25 59.2464 212.138 59.5244 211.915C59.8024 211.692 59.9414 211.35 59.9414 210.89C59.9414 210.06 59.349 209.646 58.1641 209.646H56.8516ZM68.8281 214L68.4248 212.961H68.3701C68.0192 213.403 67.6569 213.711 67.2832 213.884C66.9141 214.052 66.431 214.137 65.834 214.137C65.1003 214.137 64.5215 213.927 64.0977 213.508C63.6784 213.089 63.4688 212.492 63.4688 211.717C63.4688 210.906 63.7513 210.309 64.3164 209.926C64.8861 209.538 65.7428 209.324 66.8867 209.283L68.2129 209.242V208.907C68.2129 208.132 67.8164 207.745 67.0234 207.745C66.4128 207.745 65.695 207.93 64.8701 208.299L64.1797 206.891C65.0592 206.43 66.0345 206.2 67.1055 206.2C68.1309 206.2 68.917 206.424 69.4639 206.87C70.0107 207.317 70.2842 207.996 70.2842 208.907V214H68.8281ZM68.2129 210.459L67.4062 210.486C66.8001 210.505 66.349 210.614 66.0527 210.814C65.7565 211.015 65.6084 211.32 65.6084 211.73C65.6084 212.318 65.9456 212.612 66.6201 212.612C67.1032 212.612 67.4883 212.473 67.7754 212.195C68.0671 211.917 68.2129 211.548 68.2129 211.088V210.459ZM79.4922 214H77.4072V209.536C77.4072 208.985 77.3092 208.572 77.1133 208.299C76.9173 208.021 76.6051 207.882 76.1768 207.882C75.5934 207.882 75.1719 208.078 74.9121 208.47C74.6523 208.857 74.5225 209.502 74.5225 210.404V214H72.4375V206.357H74.0303L74.3105 207.335H74.4268C74.6592 206.966 74.9782 206.688 75.3838 206.501C75.7939 206.31 76.2588 206.214 76.7783 206.214C77.667 206.214 78.3415 206.455 78.8018 206.938C79.262 207.417 79.4922 208.11 79.4922 209.017V214ZM83.6416 209.844L84.5508 208.682L86.6904 206.357H89.042L86.0068 209.673L89.2266 214H86.8203L84.6191 210.903L83.7236 211.621V214H81.6387V203.363H83.7236V208.107L83.6143 209.844H83.6416Z" fill="#00032C"/>
<path d="M17.374 236V226.006H18.5361V236H17.374ZM26.2402 236V231.153C26.2402 230.543 26.1012 230.087 25.8232 229.786C25.5452 229.485 25.11 229.335 24.5176 229.335C23.7337 229.335 23.1595 229.547 22.7949 229.971C22.4303 230.395 22.248 231.094 22.248 232.069V236H21.1133V228.508H22.0361L22.2207 229.533H22.2754C22.5078 229.164 22.8337 228.879 23.2529 228.679C23.6722 228.474 24.1393 228.371 24.6543 228.371C25.5566 228.371 26.2357 228.59 26.6914 229.027C27.1471 229.46 27.375 230.155 27.375 231.112V236H26.2402ZM33.0898 229.39H31.1826V236H30.0479V229.39H28.708V228.877L30.0479 228.467V228.05C30.0479 226.209 30.8522 225.288 32.4609 225.288C32.8574 225.288 33.3223 225.368 33.8555 225.527L33.5615 226.437C33.124 226.295 32.7503 226.225 32.4404 226.225C32.012 226.225 31.6953 226.368 31.4902 226.655C31.2852 226.938 31.1826 227.394 31.1826 228.022V228.508H33.0898V229.39ZM37.875 228.371C38.2077 228.371 38.5062 228.398 38.7705 228.453L38.6133 229.506C38.3034 229.438 38.0299 229.403 37.793 229.403C37.1868 229.403 36.6673 229.649 36.2344 230.142C35.806 230.634 35.5918 231.247 35.5918 231.98V236H34.457V228.508H35.3936L35.5234 229.896H35.5781C35.8561 229.408 36.1911 229.032 36.583 228.768C36.9749 228.503 37.4056 228.371 37.875 228.371ZM44.7793 236L44.5537 234.934H44.499C44.1253 235.403 43.7516 235.722 43.3779 235.891C43.0088 236.055 42.5462 236.137 41.9902 236.137C41.2474 236.137 40.6641 235.945 40.2402 235.562C39.821 235.18 39.6113 234.635 39.6113 233.929C39.6113 232.416 40.8213 231.623 43.2412 231.55L44.5127 231.509V231.044C44.5127 230.456 44.3851 230.023 44.1299 229.745C43.8792 229.463 43.4759 229.321 42.9199 229.321C42.2956 229.321 41.5892 229.513 40.8008 229.896L40.4521 229.027C40.8213 228.827 41.2246 228.67 41.6621 228.556C42.1042 228.442 42.5462 228.385 42.9883 228.385C43.8815 228.385 44.5423 228.583 44.9707 228.979C45.4036 229.376 45.6201 230.012 45.6201 230.887V236H44.7793ZM42.2158 235.2C42.9222 235.2 43.4759 235.007 43.877 234.619C44.2826 234.232 44.4854 233.689 44.4854 232.992V232.315L43.3506 232.363C42.4482 232.395 41.7965 232.536 41.3955 232.787C40.999 233.033 40.8008 233.418 40.8008 233.942C40.8008 234.353 40.9238 234.665 41.1699 234.879C41.4206 235.093 41.7692 235.2 42.2158 235.2ZM52.7979 233.956C52.7979 234.653 52.5381 235.191 52.0186 235.569C51.499 235.948 50.7699 236.137 49.8311 236.137C48.8376 236.137 48.0628 235.979 47.5068 235.665V234.612C47.8669 234.795 48.252 234.938 48.6621 235.043C49.0768 235.148 49.4756 235.2 49.8584 235.2C50.4508 235.2 50.9066 235.107 51.2256 234.92C51.5446 234.729 51.7041 234.439 51.7041 234.052C51.7041 233.76 51.5765 233.512 51.3213 233.307C51.0706 233.097 50.5785 232.851 49.8447 232.568C49.1475 232.309 48.6507 232.083 48.3545 231.892C48.0628 231.696 47.8441 231.475 47.6982 231.229C47.557 230.982 47.4863 230.688 47.4863 230.347C47.4863 229.736 47.7347 229.255 48.2314 228.904C48.7282 228.549 49.4095 228.371 50.2754 228.371C51.082 228.371 51.8704 228.535 52.6406 228.863L52.2373 229.786C51.4854 229.476 50.804 229.321 50.1934 229.321C49.6556 229.321 49.25 229.406 48.9766 229.574C48.7031 229.743 48.5664 229.975 48.5664 230.271C48.5664 230.472 48.6165 230.643 48.7168 230.784C48.8216 230.925 48.988 231.06 49.2158 231.188C49.4437 231.315 49.8812 231.5 50.5283 231.741C51.417 232.065 52.0163 232.391 52.3262 232.719C52.6406 233.047 52.7979 233.459 52.7979 233.956ZM57.0703 235.2C57.2708 235.2 57.4645 235.187 57.6514 235.159C57.8382 235.127 57.9863 235.095 58.0957 235.063V235.932C57.9727 235.991 57.7904 236.039 57.5488 236.075C57.3118 236.116 57.0977 236.137 56.9062 236.137C55.457 236.137 54.7324 235.373 54.7324 233.847V229.39H53.6592V228.843L54.7324 228.371L55.2109 226.771H55.8672V228.508H58.041V229.39H55.8672V233.799C55.8672 234.25 55.9743 234.596 56.1885 234.838C56.4027 235.079 56.6966 235.2 57.0703 235.2ZM63.0176 228.371C63.3503 228.371 63.6488 228.398 63.9131 228.453L63.7559 229.506C63.446 229.438 63.1725 229.403 62.9355 229.403C62.3294 229.403 61.8099 229.649 61.377 230.142C60.9486 230.634 60.7344 231.247 60.7344 231.98V236H59.5996V228.508H60.5361L60.666 229.896H60.7207C60.9987 229.408 61.3337 229.032 61.7256 228.768C62.1175 228.503 62.5482 228.371 63.0176 228.371ZM66.3809 228.508V233.368C66.3809 233.979 66.5199 234.435 66.7979 234.735C67.0758 235.036 67.5111 235.187 68.1035 235.187C68.8874 235.187 69.4593 234.972 69.8193 234.544C70.1839 234.116 70.3662 233.416 70.3662 232.445V228.508H71.501V236H70.5645L70.4004 234.995H70.3389C70.1064 235.364 69.7829 235.647 69.3682 235.843C68.958 236.039 68.4886 236.137 67.96 236.137C67.0485 236.137 66.3649 235.92 65.9092 235.487C65.458 235.054 65.2324 234.362 65.2324 233.409V228.508H66.3809ZM76.9082 236.137C75.8236 236.137 74.9827 235.804 74.3857 235.139C73.7933 234.469 73.4971 233.523 73.4971 232.302C73.4971 231.049 73.7979 230.08 74.3994 229.396C75.0055 228.713 75.8669 228.371 76.9834 228.371C77.3434 228.371 77.7035 228.41 78.0635 228.487C78.4235 228.565 78.7061 228.656 78.9111 228.761L78.5625 229.725C78.3118 229.624 78.0384 229.542 77.7422 229.479C77.446 229.41 77.1839 229.376 76.9561 229.376C75.4339 229.376 74.6729 230.347 74.6729 232.288C74.6729 233.209 74.8574 233.915 75.2266 234.407C75.6003 234.899 76.1517 235.146 76.8809 235.146C77.5052 235.146 78.1455 235.011 78.8018 234.742V235.747C78.3005 236.007 77.6693 236.137 76.9082 236.137ZM83.0059 235.2C83.2064 235.2 83.4001 235.187 83.5869 235.159C83.7738 235.127 83.9219 235.095 84.0312 235.063V235.932C83.9082 235.991 83.7259 236.039 83.4844 236.075C83.2474 236.116 83.0332 236.137 82.8418 236.137C81.3926 236.137 80.668 235.373 80.668 233.847V229.39H79.5947V228.843L80.668 228.371L81.1465 226.771H81.8027V228.508H83.9766V229.39H81.8027V233.799C81.8027 234.25 81.9098 234.596 82.124 234.838C82.3382 235.079 82.6322 235.2 83.0059 235.2ZM86.6016 228.508V233.368C86.6016 233.979 86.7406 234.435 87.0186 234.735C87.2965 235.036 87.7318 235.187 88.3242 235.187C89.1081 235.187 89.68 234.972 90.04 234.544C90.4046 234.116 90.5869 233.416 90.5869 232.445V228.508H91.7217V236H90.7852L90.6211 234.995H90.5596C90.3271 235.364 90.0036 235.647 89.5889 235.843C89.1787 236.039 88.7093 236.137 88.1807 236.137C87.2692 236.137 86.5856 235.92 86.1299 235.487C85.6787 235.054 85.4531 234.362 85.4531 233.409V228.508H86.6016ZM97.5527 228.371C97.8854 228.371 98.1839 228.398 98.4482 228.453L98.291 229.506C97.9811 229.438 97.7077 229.403 97.4707 229.403C96.8646 229.403 96.3451 229.649 95.9121 230.142C95.4837 230.634 95.2695 231.247 95.2695 231.98V236H94.1348V228.508H95.0713L95.2012 229.896H95.2559C95.5339 229.408 95.8688 229.032 96.2607 228.768C96.6527 228.503 97.0833 228.371 97.5527 228.371ZM103.015 236.137C101.907 236.137 101.032 235.799 100.39 235.125C99.7516 234.451 99.4326 233.514 99.4326 232.315C99.4326 231.108 99.7288 230.148 100.321 229.438C100.918 228.727 101.718 228.371 102.721 228.371C103.66 228.371 104.402 228.681 104.949 229.301C105.496 229.916 105.77 230.729 105.77 231.741V232.459H100.608C100.631 233.339 100.852 234.006 101.271 234.462C101.695 234.918 102.29 235.146 103.056 235.146C103.862 235.146 104.66 234.977 105.448 234.64V235.651C105.047 235.825 104.667 235.948 104.307 236.021C103.951 236.098 103.521 236.137 103.015 236.137ZM102.707 229.321C102.105 229.321 101.625 229.517 101.265 229.909C100.909 230.301 100.7 230.843 100.636 231.536H104.553C104.553 230.821 104.393 230.274 104.074 229.896C103.755 229.513 103.299 229.321 102.707 229.321ZM22.0361 249.956C22.0361 250.653 21.7764 251.191 21.2568 251.569C20.7373 251.948 20.0081 252.137 19.0693 252.137C18.0758 252.137 17.3011 251.979 16.7451 251.665V250.612C17.1051 250.795 17.4902 250.938 17.9004 251.043C18.3151 251.148 18.7139 251.2 19.0967 251.2C19.6891 251.2 20.1449 251.107 20.4639 250.92C20.7829 250.729 20.9424 250.439 20.9424 250.052C20.9424 249.76 20.8148 249.512 20.5596 249.307C20.3089 249.097 19.8167 248.851 19.083 248.568C18.3857 248.309 17.889 248.083 17.5928 247.892C17.3011 247.696 17.0824 247.475 16.9365 247.229C16.7952 246.982 16.7246 246.688 16.7246 246.347C16.7246 245.736 16.973 245.255 17.4697 244.904C17.9665 244.549 18.6478 244.371 19.5137 244.371C20.3203 244.371 21.1087 244.535 21.8789 244.863L21.4756 245.786C20.7236 245.476 20.0423 245.321 19.4316 245.321C18.8939 245.321 18.4883 245.406 18.2148 245.574C17.9414 245.743 17.8047 245.975 17.8047 246.271C17.8047 246.472 17.8548 246.643 17.9551 246.784C18.0599 246.925 18.2262 247.06 18.4541 247.188C18.682 247.315 19.1195 247.5 19.7666 247.741C20.6553 248.065 21.2546 248.391 21.5645 248.719C21.8789 249.047 22.0361 249.459 22.0361 249.956ZM27.0537 252.137C25.9463 252.137 25.0713 251.799 24.4287 251.125C23.7907 250.451 23.4717 249.514 23.4717 248.315C23.4717 247.108 23.7679 246.148 24.3604 245.438C24.9574 244.727 25.7572 244.371 26.7598 244.371C27.6986 244.371 28.4414 244.681 28.9883 245.301C29.5352 245.916 29.8086 246.729 29.8086 247.741V248.459H24.6475C24.6702 249.339 24.8913 250.006 25.3105 250.462C25.7344 250.918 26.3291 251.146 27.0947 251.146C27.9014 251.146 28.6989 250.977 29.4873 250.64V251.651C29.0863 251.825 28.7057 251.948 28.3457 252.021C27.9902 252.098 27.5596 252.137 27.0537 252.137ZM26.7461 245.321C26.1445 245.321 25.6637 245.517 25.3037 245.909C24.9482 246.301 24.7386 246.843 24.6748 247.536H28.5918C28.5918 246.821 28.4323 246.274 28.1133 245.896C27.7943 245.513 27.3385 245.321 26.7461 245.321ZM35.168 244.371C35.5007 244.371 35.7992 244.398 36.0635 244.453L35.9062 245.506C35.5964 245.438 35.3229 245.403 35.0859 245.403C34.4798 245.403 33.9603 245.649 33.5273 246.142C33.099 246.634 32.8848 247.247 32.8848 247.98V252H31.75V244.508H32.6865L32.8164 245.896H32.8711C33.1491 245.408 33.484 245.032 33.876 244.768C34.2679 244.503 34.6986 244.371 35.168 244.371ZM39.1055 252L36.2617 244.508H37.4785L39.0918 248.951C39.4564 249.99 39.6706 250.665 39.7344 250.975H39.7891C39.8392 250.733 39.9964 250.234 40.2607 249.478C40.5296 248.716 41.1289 247.06 42.0586 244.508H43.2754L40.4316 252H39.1055ZM47.6436 252.137C46.5361 252.137 45.6611 251.799 45.0186 251.125C44.3805 250.451 44.0615 249.514 44.0615 248.315C44.0615 247.108 44.3577 246.148 44.9502 245.438C45.5472 244.727 46.347 244.371 47.3496 244.371C48.2884 244.371 49.0312 244.681 49.5781 245.301C50.125 245.916 50.3984 246.729 50.3984 247.741V248.459H45.2373C45.2601 249.339 45.4811 250.006 45.9004 250.462C46.3242 250.918 46.9189 251.146 47.6846 251.146C48.4912 251.146 49.2887 250.977 50.0771 250.64V251.651C49.6761 251.825 49.2956 251.948 48.9355 252.021C48.5801 252.098 48.1494 252.137 47.6436 252.137ZM47.3359 245.321C46.7344 245.321 46.2536 245.517 45.8936 245.909C45.5381 246.301 45.3285 246.843 45.2646 247.536H49.1816C49.1816 246.821 49.0221 246.274 48.7031 245.896C48.3841 245.513 47.9284 245.321 47.3359 245.321ZM55.7578 244.371C56.0905 244.371 56.389 244.398 56.6533 244.453L56.4961 245.506C56.1862 245.438 55.9128 245.403 55.6758 245.403C55.0697 245.403 54.5501 245.649 54.1172 246.142C53.6888 246.634 53.4746 247.247 53.4746 247.98V252H52.3398V244.508H53.2764L53.4062 245.896H53.4609C53.7389 245.408 54.0739 245.032 54.4658 244.768C54.8577 244.503 55.2884 244.371 55.7578 244.371ZM62.8877 249.956C62.8877 250.653 62.6279 251.191 62.1084 251.569C61.5889 251.948 60.8597 252.137 59.9209 252.137C58.9274 252.137 58.1527 251.979 57.5967 251.665V250.612C57.9567 250.795 58.3418 250.938 58.752 251.043C59.1667 251.148 59.5654 251.2 59.9482 251.2C60.5407 251.2 60.9964 251.107 61.3154 250.92C61.6344 250.729 61.7939 250.439 61.7939 250.052C61.7939 249.76 61.6663 249.512 61.4111 249.307C61.1605 249.097 60.6683 248.851 59.9346 248.568C59.2373 248.309 58.7406 248.083 58.4443 247.892C58.1527 247.696 57.9339 247.475 57.7881 247.229C57.6468 246.982 57.5762 246.688 57.5762 246.347C57.5762 245.736 57.8245 245.255 58.3213 244.904C58.818 244.549 59.4993 244.371 60.3652 244.371C61.1719 244.371 61.9603 244.535 62.7305 244.863L62.3271 245.786C61.5752 245.476 60.8939 245.321 60.2832 245.321C59.7454 245.321 59.3398 245.406 59.0664 245.574C58.793 245.743 58.6562 245.975 58.6562 246.271C58.6562 246.472 58.7064 246.643 58.8066 246.784C58.9115 246.925 59.0778 247.06 59.3057 247.188C59.5335 247.315 59.971 247.5 60.6182 247.741C61.5068 248.065 62.1061 248.391 62.416 248.719C62.7305 249.047 62.8877 249.459 62.8877 249.956Z" fill="#808080"/>
<path d="M29.9209 418.006V424.473C29.9209 425.612 29.5768 426.507 28.8887 427.159C28.2005 427.811 27.2549 428.137 26.0518 428.137C24.8486 428.137 23.9167 427.809 23.2559 427.152C22.5996 426.496 22.2715 425.594 22.2715 424.445V418.006H23.4336V424.527C23.4336 425.361 23.6615 426.002 24.1172 426.448C24.5729 426.895 25.2428 427.118 26.127 427.118C26.9701 427.118 27.6195 426.895 28.0752 426.448C28.5309 425.997 28.7588 425.352 28.7588 424.514V418.006H29.9209ZM32.5732 428V418.006H33.7354V428H32.5732ZM40.1064 418.006L36.3809 428H35.2461L38.9717 418.006H40.1064ZM49.1709 418.006V424.473C49.1709 425.612 48.8268 426.507 48.1387 427.159C47.4505 427.811 46.5049 428.137 45.3018 428.137C44.0986 428.137 43.1667 427.809 42.5059 427.152C41.8496 426.496 41.5215 425.594 41.5215 424.445V418.006H42.6836V424.527C42.6836 425.361 42.9115 426.002 43.3672 426.448C43.8229 426.895 44.4928 427.118 45.377 427.118C46.2201 427.118 46.8695 426.895 47.3252 426.448C47.7809 425.997 48.0088 425.352 48.0088 424.514V418.006H49.1709ZM58.4746 428H57.1553L54.4688 423.604L51.7344 428H50.5039L53.8262 422.777L50.7295 418.006H52.0146L54.4961 421.964L56.998 418.006H58.2354L55.1387 422.736L58.4746 428ZM68.2021 425.956C68.2021 426.653 67.9424 427.191 67.4229 427.569C66.9033 427.948 66.1742 428.137 65.2354 428.137C64.2419 428.137 63.4671 427.979 62.9111 427.665V426.612C63.2712 426.795 63.6562 426.938 64.0664 427.043C64.4811 427.148 64.8799 427.2 65.2627 427.2C65.8551 427.2 66.3109 427.107 66.6299 426.92C66.9489 426.729 67.1084 426.439 67.1084 426.052C67.1084 425.76 66.9808 425.512 66.7256 425.307C66.4749 425.097 65.9827 424.851 65.249 424.568C64.5518 424.309 64.055 424.083 63.7588 423.892C63.4671 423.696 63.2484 423.475 63.1025 423.229C62.9613 422.982 62.8906 422.688 62.8906 422.347C62.8906 421.736 63.139 421.255 63.6357 420.904C64.1325 420.549 64.8138 420.371 65.6797 420.371C66.4863 420.371 67.2747 420.535 68.0449 420.863L67.6416 421.786C66.8896 421.476 66.2083 421.321 65.5977 421.321C65.0599 421.321 64.6543 421.406 64.3809 421.574C64.1074 421.743 63.9707 421.975 63.9707 422.271C63.9707 422.472 64.0208 422.643 64.1211 422.784C64.2259 422.925 64.3923 423.06 64.6201 423.188C64.848 423.315 65.2855 423.5 65.9326 423.741C66.8213 424.065 67.4206 424.391 67.7305 424.719C68.0449 425.047 68.2021 425.459 68.2021 425.956ZM73.2197 428.137C72.1123 428.137 71.2373 427.799 70.5947 427.125C69.9567 426.451 69.6377 425.514 69.6377 424.315C69.6377 423.108 69.9339 422.148 70.5264 421.438C71.1234 420.727 71.9232 420.371 72.9258 420.371C73.8646 420.371 74.6074 420.681 75.1543 421.301C75.7012 421.916 75.9746 422.729 75.9746 423.741V424.459H70.8135C70.8363 425.339 71.0573 426.006 71.4766 426.462C71.9004 426.918 72.4951 427.146 73.2607 427.146C74.0674 427.146 74.8649 426.977 75.6533 426.64V427.651C75.2523 427.825 74.8717 427.948 74.5117 428.021C74.1562 428.098 73.7256 428.137 73.2197 428.137ZM72.9121 421.321C72.3105 421.321 71.8298 421.517 71.4697 421.909C71.1143 422.301 70.9046 422.843 70.8408 423.536H74.7578C74.7578 422.821 74.5983 422.274 74.2793 421.896C73.9603 421.513 73.5046 421.321 72.9121 421.321ZM81.334 420.371C81.6667 420.371 81.9652 420.398 82.2295 420.453L82.0723 421.506C81.7624 421.438 81.4889 421.403 81.252 421.403C80.6458 421.403 80.1263 421.649 79.6934 422.142C79.265 422.634 79.0508 423.247 79.0508 423.98V428H77.916V420.508H78.8525L78.9824 421.896H79.0371C79.3151 421.408 79.6501 421.032 80.042 420.768C80.4339 420.503 80.8646 420.371 81.334 420.371ZM85.2715 428L82.4277 420.508H83.6445L85.2578 424.951C85.6224 425.99 85.8366 426.665 85.9004 426.975H85.9551C86.0052 426.733 86.1624 426.234 86.4268 425.478C86.6956 424.716 87.2949 423.06 88.2246 420.508H89.4414L86.5977 428H85.2715ZM93.8096 428.137C92.7021 428.137 91.8271 427.799 91.1846 427.125C90.5465 426.451 90.2275 425.514 90.2275 424.315C90.2275 423.108 90.5238 422.148 91.1162 421.438C91.7132 420.727 92.513 420.371 93.5156 420.371C94.4544 420.371 95.1973 420.681 95.7441 421.301C96.291 421.916 96.5645 422.729 96.5645 423.741V424.459H91.4033C91.4261 425.339 91.6471 426.006 92.0664 426.462C92.4902 426.918 93.085 427.146 93.8506 427.146C94.6572 427.146 95.4548 426.977 96.2432 426.64V427.651C95.8421 427.825 95.4616 427.948 95.1016 428.021C94.7461 428.098 94.3154 428.137 93.8096 428.137ZM93.502 421.321C92.9004 421.321 92.4196 421.517 92.0596 421.909C91.7041 422.301 91.4945 422.843 91.4307 423.536H95.3477C95.3477 422.821 95.1882 422.274 94.8691 421.896C94.5501 421.513 94.0944 421.321 93.502 421.321ZM101.924 420.371C102.257 420.371 102.555 420.398 102.819 420.453L102.662 421.506C102.352 421.438 102.079 421.403 101.842 421.403C101.236 421.403 100.716 421.649 100.283 422.142C99.8548 422.634 99.6406 423.247 99.6406 423.98V428H98.5059V420.508H99.4424L99.5723 421.896H99.627C99.9049 421.408 100.24 421.032 100.632 420.768C101.024 420.503 101.454 420.371 101.924 420.371Z" fill="#808080"/>
<path d="M247.573 433.42C246.947 433.42 246.461 433.657 246.118 434.129C245.774 434.598 245.602 435.254 245.602 436.095C245.602 437.846 246.259 438.722 247.573 438.722C248.125 438.722 248.792 438.584 249.577 438.308V439.705C248.932 439.973 248.212 440.107 247.417 440.107C246.275 440.107 245.402 439.762 244.796 439.071C244.191 438.376 243.889 437.381 243.889 436.084C243.889 435.268 244.037 434.554 244.334 433.941C244.632 433.326 245.058 432.855 245.613 432.529C246.171 432.199 246.825 432.035 247.573 432.035C248.336 432.035 249.102 432.219 249.872 432.588L249.335 433.941C249.041 433.802 248.746 433.68 248.449 433.576C248.152 433.472 247.86 433.42 247.573 433.42ZM255.377 440L255.157 439.232H255.071C254.896 439.511 254.647 439.728 254.325 439.882C254.002 440.032 253.635 440.107 253.224 440.107C252.518 440.107 251.986 439.919 251.628 439.543C251.27 439.164 251.091 438.62 251.091 437.911V433.995H252.729V437.502C252.729 437.936 252.806 438.262 252.96 438.48C253.114 438.695 253.36 438.802 253.696 438.802C254.155 438.802 254.486 438.65 254.69 438.346C254.894 438.038 254.996 437.529 254.996 436.82V433.995H256.634V440H255.377ZM262.542 438.217C262.542 438.833 262.328 439.302 261.898 439.624C261.472 439.946 260.833 440.107 259.98 440.107C259.544 440.107 259.171 440.077 258.863 440.016C258.555 439.959 258.267 439.873 257.999 439.758V438.405C258.303 438.548 258.645 438.668 259.024 438.765C259.408 438.861 259.744 438.91 260.034 438.91C260.629 438.91 260.926 438.738 260.926 438.394C260.926 438.265 260.886 438.161 260.808 438.083C260.729 438 260.593 437.909 260.399 437.809C260.206 437.705 259.948 437.585 259.626 437.449C259.164 437.255 258.824 437.076 258.605 436.912C258.391 436.747 258.233 436.559 258.133 436.348C258.036 436.133 257.988 435.87 257.988 435.558C257.988 435.025 258.194 434.613 258.605 434.323C259.021 434.029 259.608 433.882 260.367 433.882C261.09 433.882 261.794 434.04 262.478 434.355L261.984 435.537C261.683 435.408 261.402 435.302 261.141 435.22C260.879 435.137 260.612 435.096 260.34 435.096C259.857 435.096 259.615 435.227 259.615 435.488C259.615 435.635 259.692 435.762 259.846 435.87C260.004 435.977 260.346 436.136 260.872 436.348C261.341 436.537 261.685 436.715 261.903 436.879C262.122 437.044 262.283 437.234 262.387 437.449C262.491 437.664 262.542 437.92 262.542 438.217ZM266.351 438.802C266.637 438.802 266.981 438.74 267.382 438.614V439.833C266.974 440.016 266.472 440.107 265.878 440.107C265.223 440.107 264.745 439.943 264.444 439.613C264.147 439.28 263.998 438.783 263.998 438.12V435.225H263.214V434.532L264.116 433.984L264.589 432.717H265.636V433.995H267.317V435.225H265.636V438.12C265.636 438.353 265.701 438.525 265.83 438.636C265.962 438.747 266.136 438.802 266.351 438.802ZM269.906 436.987C269.906 437.581 270.003 438.031 270.196 438.335C270.393 438.639 270.712 438.792 271.152 438.792C271.589 438.792 271.903 438.641 272.092 438.34C272.286 438.036 272.382 437.585 272.382 436.987C272.382 436.392 272.286 435.947 272.092 435.649C271.899 435.352 271.582 435.204 271.142 435.204C270.705 435.204 270.39 435.352 270.196 435.649C270.003 435.943 269.906 436.389 269.906 436.987ZM274.058 436.987C274.058 437.964 273.8 438.729 273.285 439.28C272.769 439.832 272.051 440.107 271.131 440.107C270.554 440.107 270.046 439.982 269.605 439.731C269.165 439.477 268.827 439.114 268.59 438.641C268.354 438.168 268.236 437.617 268.236 436.987C268.236 436.006 268.492 435.243 269.004 434.699C269.516 434.154 270.236 433.882 271.163 433.882C271.74 433.882 272.248 434.008 272.688 434.258C273.129 434.509 273.467 434.869 273.704 435.338C273.94 435.807 274.058 436.357 274.058 436.987ZM280.788 440H279.15V436.493C279.15 436.059 279.076 435.735 278.93 435.521C278.786 435.302 278.559 435.193 278.248 435.193C277.829 435.193 277.524 435.347 277.334 435.655C277.145 435.963 277.05 436.469 277.05 437.175V440H275.412V433.995H276.663L276.883 434.763H276.975C277.136 434.487 277.368 434.273 277.673 434.119C277.977 433.961 278.326 433.882 278.72 433.882C279.619 433.882 280.228 434.176 280.546 434.763H280.691C280.853 434.484 281.089 434.267 281.4 434.113C281.715 433.959 282.07 433.882 282.464 433.882C283.144 433.882 283.658 434.058 284.005 434.409C284.356 434.756 284.532 435.315 284.532 436.084V440H282.888V436.493C282.888 436.059 282.815 435.735 282.668 435.521C282.525 435.302 282.297 435.193 281.986 435.193C281.585 435.193 281.284 435.336 281.083 435.623C280.887 435.909 280.788 436.364 280.788 436.987V440ZM288.705 435.048C288.358 435.048 288.086 435.159 287.889 435.381C287.692 435.599 287.579 435.911 287.55 436.315H289.849C289.842 435.911 289.736 435.599 289.532 435.381C289.328 435.159 289.052 435.048 288.705 435.048ZM288.936 440.107C287.969 440.107 287.214 439.841 286.669 439.307C286.125 438.774 285.853 438.018 285.853 437.041C285.853 436.034 286.104 435.257 286.605 434.709C287.11 434.158 287.806 433.882 288.694 433.882C289.543 433.882 290.204 434.124 290.676 434.607C291.149 435.091 291.385 435.759 291.385 436.611V437.406H287.513C287.531 437.871 287.668 438.235 287.926 438.496C288.184 438.757 288.546 438.888 289.011 438.888C289.373 438.888 289.715 438.851 290.037 438.775C290.359 438.7 290.696 438.58 291.047 438.416V439.683C290.76 439.826 290.454 439.932 290.128 440C289.803 440.072 289.405 440.107 288.936 440.107ZM296.069 433.882C296.291 433.882 296.475 433.898 296.622 433.931L296.499 435.467C296.366 435.431 296.205 435.413 296.015 435.413C295.492 435.413 295.084 435.547 294.791 435.816C294.5 436.084 294.355 436.46 294.355 436.944V440H292.717V433.995H293.958L294.2 435.005H294.28C294.466 434.668 294.717 434.398 295.032 434.194C295.351 433.986 295.696 433.882 296.069 433.882ZM302.471 440.107C301.766 440.107 301.211 439.833 300.806 439.286C300.405 438.738 300.205 437.979 300.205 437.008C300.205 436.024 300.409 435.257 300.817 434.709C301.229 434.158 301.794 433.882 302.514 433.882C303.27 433.882 303.846 434.176 304.244 434.763H304.297C304.215 434.316 304.174 433.916 304.174 433.565V431.643H305.817V440H304.561L304.244 439.221H304.174C303.801 439.812 303.234 440.107 302.471 440.107ZM303.046 438.802C303.465 438.802 303.771 438.681 303.964 438.437C304.161 438.194 304.269 437.78 304.287 437.196V437.019C304.287 436.375 304.186 435.913 303.986 435.633C303.789 435.354 303.467 435.214 303.019 435.214C302.654 435.214 302.369 435.37 302.165 435.682C301.965 435.99 301.864 436.439 301.864 437.03C301.864 437.621 301.966 438.065 302.17 438.362C302.375 438.655 302.666 438.802 303.046 438.802ZM311.344 440L311.027 439.184H310.984C310.709 439.531 310.424 439.773 310.13 439.909C309.84 440.041 309.461 440.107 308.992 440.107C308.415 440.107 307.96 439.943 307.627 439.613C307.298 439.284 307.133 438.815 307.133 438.206C307.133 437.569 307.355 437.1 307.799 436.799C308.247 436.494 308.92 436.326 309.819 436.294L310.861 436.262V435.999C310.861 435.39 310.549 435.085 309.926 435.085C309.446 435.085 308.882 435.23 308.234 435.521L307.692 434.414C308.383 434.052 309.149 433.872 309.991 433.872C310.796 433.872 311.414 434.047 311.844 434.398C312.273 434.749 312.488 435.282 312.488 435.999V440H311.344ZM310.861 437.218L310.227 437.239C309.751 437.254 309.396 437.34 309.164 437.497C308.931 437.655 308.814 437.895 308.814 438.217C308.814 438.679 309.079 438.91 309.609 438.91C309.989 438.91 310.292 438.8 310.517 438.582C310.746 438.364 310.861 438.074 310.861 437.712V437.218ZM316.71 438.802C316.996 438.802 317.34 438.74 317.741 438.614V439.833C317.333 440.016 316.832 440.107 316.237 440.107C315.582 440.107 315.104 439.943 314.803 439.613C314.506 439.28 314.357 438.783 314.357 438.12V435.225H313.573V434.532L314.476 433.984L314.948 432.717H315.996V433.995H317.677V435.225H315.996V438.12C315.996 438.353 316.06 438.525 316.189 438.636C316.321 438.747 316.495 438.802 316.71 438.802ZM322.774 440L322.457 439.184H322.414C322.138 439.531 321.854 439.773 321.56 439.909C321.27 440.041 320.89 440.107 320.421 440.107C319.845 440.107 319.39 439.943 319.057 439.613C318.728 439.284 318.563 438.815 318.563 438.206C318.563 437.569 318.785 437.1 319.229 436.799C319.677 436.494 320.35 436.326 321.249 436.294L322.291 436.262V435.999C322.291 435.39 321.979 435.085 321.356 435.085C320.876 435.085 320.312 435.23 319.664 435.521L319.122 434.414C319.813 434.052 320.579 433.872 321.42 433.872C322.226 433.872 322.844 434.047 323.273 434.398C323.703 434.749 323.918 435.282 323.918 435.999V440H322.774ZM322.291 437.218L321.657 437.239C321.181 437.254 320.826 437.34 320.593 437.497C320.361 437.655 320.244 437.895 320.244 438.217C320.244 438.679 320.509 438.91 321.039 438.91C321.419 438.91 321.721 438.8 321.947 438.582C322.176 438.364 322.291 438.074 322.291 437.712V437.218ZM253.551 453H251.913V449.493C251.913 449.059 251.84 448.735 251.693 448.521C251.55 448.302 251.322 448.193 251.011 448.193C250.592 448.193 250.287 448.347 250.098 448.655C249.908 448.963 249.813 449.469 249.813 450.175V453H248.175V446.995H249.426L249.646 447.763H249.738C249.899 447.487 250.132 447.273 250.436 447.119C250.74 446.961 251.09 446.882 251.483 446.882C252.382 446.882 252.991 447.176 253.31 447.763H253.455C253.616 447.484 253.852 447.267 254.164 447.113C254.479 446.959 254.833 446.882 255.227 446.882C255.907 446.882 256.421 447.058 256.769 447.409C257.119 447.756 257.295 448.315 257.295 449.084V453H255.651V449.493C255.651 449.059 255.578 448.735 255.431 448.521C255.288 448.302 255.061 448.193 254.749 448.193C254.348 448.193 254.047 448.336 253.847 448.623C253.65 448.909 253.551 449.364 253.551 449.987V453ZM262.795 453L262.478 452.184H262.435C262.159 452.531 261.875 452.773 261.581 452.909C261.291 453.041 260.911 453.107 260.442 453.107C259.866 453.107 259.411 452.943 259.078 452.613C258.749 452.284 258.584 451.815 258.584 451.206C258.584 450.569 258.806 450.1 259.25 449.799C259.698 449.494 260.371 449.326 261.27 449.294L262.312 449.262V448.999C262.312 448.39 262 448.085 261.377 448.085C260.897 448.085 260.333 448.23 259.685 448.521L259.143 447.414C259.834 447.052 260.6 446.872 261.441 446.872C262.247 446.872 262.865 447.047 263.294 447.398C263.724 447.749 263.939 448.282 263.939 448.999V453H262.795ZM262.312 450.218L261.678 450.239C261.201 450.254 260.847 450.34 260.614 450.497C260.382 450.655 260.265 450.895 260.265 451.217C260.265 451.679 260.53 451.91 261.06 451.91C261.44 451.91 261.742 451.8 261.968 451.582C262.197 451.364 262.312 451.074 262.312 450.712V450.218ZM271.174 453H269.536V449.493C269.536 449.059 269.459 448.735 269.305 448.521C269.151 448.302 268.905 448.193 268.569 448.193C268.111 448.193 267.779 448.347 267.575 448.655C267.371 448.959 267.269 449.466 267.269 450.175V453H265.631V446.995H266.882L267.103 447.763H267.194C267.376 447.473 267.627 447.255 267.946 447.108C268.268 446.958 268.633 446.882 269.042 446.882C269.74 446.882 270.27 447.072 270.631 447.452C270.993 447.828 271.174 448.372 271.174 449.084V453ZM276.674 453L276.357 452.184H276.314C276.038 452.531 275.754 452.773 275.46 452.909C275.17 453.041 274.79 453.107 274.321 453.107C273.745 453.107 273.29 452.943 272.957 452.613C272.628 452.284 272.463 451.815 272.463 451.206C272.463 450.569 272.685 450.1 273.129 449.799C273.576 449.494 274.25 449.326 275.148 449.294L276.19 449.262V448.999C276.19 448.39 275.879 448.085 275.256 448.085C274.776 448.085 274.212 448.23 273.564 448.521L273.021 447.414C273.713 447.052 274.479 446.872 275.32 446.872C276.126 446.872 276.744 447.047 277.173 447.398C277.603 447.749 277.818 448.282 277.818 448.999V453H276.674ZM276.19 450.218L275.557 450.239C275.08 450.254 274.726 450.34 274.493 450.497C274.26 450.655 274.144 450.895 274.144 451.217C274.144 451.679 274.409 451.91 274.939 451.91C275.319 451.91 275.621 451.8 275.847 451.582C276.076 451.364 276.19 451.074 276.19 450.712V450.218ZM284.736 446.995V447.828L283.796 448.069C283.968 448.338 284.054 448.639 284.054 448.972C284.054 449.616 283.828 450.119 283.377 450.481C282.929 450.839 282.306 451.018 281.508 451.018L281.212 451.002L280.971 450.975C280.802 451.104 280.718 451.247 280.718 451.405C280.718 451.641 281.019 451.759 281.621 451.759H282.641C283.3 451.759 283.801 451.901 284.145 452.184C284.492 452.466 284.666 452.882 284.666 453.43C284.666 454.132 284.372 454.676 283.785 455.062C283.201 455.449 282.362 455.643 281.266 455.643C280.428 455.643 279.787 455.496 279.343 455.202C278.903 454.912 278.683 454.504 278.683 453.978C278.683 453.616 278.795 453.313 279.021 453.07C279.247 452.826 279.578 452.653 280.015 452.549C279.846 452.477 279.7 452.361 279.574 452.2C279.449 452.035 279.386 451.861 279.386 451.679C279.386 451.45 279.452 451.26 279.585 451.109C279.717 450.955 279.909 450.805 280.16 450.658C279.845 450.522 279.594 450.304 279.408 450.003C279.225 449.702 279.134 449.348 279.134 448.939C279.134 448.284 279.347 447.778 279.773 447.419C280.199 447.061 280.808 446.882 281.599 446.882C281.767 446.882 281.966 446.898 282.195 446.931C282.428 446.959 282.577 446.981 282.641 446.995H284.736ZM280.101 453.849C280.101 454.074 280.208 454.251 280.423 454.38C280.641 454.509 280.946 454.574 281.336 454.574C281.923 454.574 282.383 454.493 282.716 454.332C283.049 454.171 283.216 453.951 283.216 453.671C283.216 453.446 283.117 453.29 282.92 453.204C282.723 453.118 282.419 453.075 282.007 453.075H281.159C280.858 453.075 280.605 453.145 280.401 453.285C280.201 453.428 280.101 453.616 280.101 453.849ZM280.697 448.961C280.697 449.287 280.77 449.545 280.917 449.734C281.067 449.924 281.295 450.019 281.599 450.019C281.907 450.019 282.133 449.924 282.276 449.734C282.419 449.545 282.491 449.287 282.491 448.961C282.491 448.238 282.194 447.876 281.599 447.876C280.998 447.876 280.697 448.238 280.697 448.961ZM288.216 448.048C287.869 448.048 287.597 448.159 287.4 448.381C287.203 448.599 287.09 448.911 287.062 449.315H289.36C289.353 448.911 289.248 448.599 289.043 448.381C288.839 448.159 288.564 448.048 288.216 448.048ZM288.447 453.107C287.48 453.107 286.725 452.841 286.181 452.307C285.636 451.774 285.364 451.018 285.364 450.041C285.364 449.034 285.615 448.257 286.116 447.709C286.621 447.158 287.318 446.882 288.206 446.882C289.054 446.882 289.715 447.124 290.188 447.607C290.66 448.091 290.896 448.759 290.896 449.611V450.406H287.024C287.042 450.871 287.18 451.235 287.438 451.496C287.695 451.757 288.057 451.888 288.522 451.888C288.884 451.888 289.226 451.851 289.548 451.775C289.871 451.7 290.207 451.58 290.558 451.416V452.683C290.272 452.826 289.965 452.932 289.64 453C289.314 453.072 288.916 453.107 288.447 453.107ZM297.605 453H295.967V449.493C295.967 449.059 295.893 448.735 295.747 448.521C295.603 448.302 295.376 448.193 295.064 448.193C294.646 448.193 294.341 448.347 294.151 448.655C293.962 448.963 293.867 449.469 293.867 450.175V453H292.229V446.995H293.48L293.7 447.763H293.792C293.953 447.487 294.185 447.273 294.49 447.119C294.794 446.961 295.143 446.882 295.537 446.882C296.436 446.882 297.045 447.176 297.363 447.763H297.508C297.669 447.484 297.906 447.267 298.217 447.113C298.532 446.959 298.887 446.882 299.281 446.882C299.961 446.882 300.475 447.058 300.822 447.409C301.173 447.756 301.349 448.315 301.349 449.084V453H299.705V449.493C299.705 449.059 299.632 448.735 299.485 448.521C299.342 448.302 299.114 448.193 298.803 448.193C298.402 448.193 298.101 448.336 297.9 448.623C297.703 448.909 297.605 449.364 297.605 449.987V453ZM305.522 448.048C305.175 448.048 304.903 448.159 304.706 448.381C304.509 448.599 304.396 448.911 304.367 449.315H306.666C306.659 448.911 306.553 448.599 306.349 448.381C306.145 448.159 305.869 448.048 305.522 448.048ZM305.753 453.107C304.786 453.107 304.031 452.841 303.486 452.307C302.942 451.774 302.67 451.018 302.67 450.041C302.67 449.034 302.921 448.257 303.422 447.709C303.927 447.158 304.623 446.882 305.511 446.882C306.36 446.882 307.021 447.124 307.493 447.607C307.966 448.091 308.202 448.759 308.202 449.611V450.406H304.33C304.347 450.871 304.485 451.235 304.743 451.496C305.001 451.757 305.363 451.888 305.828 451.888C306.19 451.888 306.532 451.851 306.854 451.775C307.176 451.7 307.513 451.58 307.864 451.416V452.683C307.577 452.826 307.271 452.932 306.945 453C306.619 453.072 306.222 453.107 305.753 453.107ZM315.077 453H313.439V449.493C313.439 449.059 313.362 448.735 313.208 448.521C313.054 448.302 312.809 448.193 312.472 448.193C312.014 448.193 311.683 448.347 311.479 448.655C311.274 448.959 311.172 449.466 311.172 450.175V453H309.534V446.995H310.786L311.006 447.763H311.097C311.28 447.473 311.53 447.255 311.849 447.108C312.171 446.958 312.537 446.882 312.945 446.882C313.643 446.882 314.173 447.072 314.535 447.452C314.896 447.828 315.077 448.372 315.077 449.084V453ZM319.293 451.802C319.58 451.802 319.924 451.74 320.325 451.614V452.833C319.917 453.016 319.415 453.107 318.821 453.107C318.166 453.107 317.688 452.943 317.387 452.613C317.09 452.28 316.941 451.783 316.941 451.12V448.225H316.157V447.532L317.059 446.984L317.532 445.717H318.579V446.995H320.26V448.225H318.579V451.12C318.579 451.353 318.644 451.525 318.772 451.636C318.905 451.747 319.079 451.802 319.293 451.802Z" fill="#00032C"/>
<path d="M24.377 401.709H25.0742C25.7259 401.709 26.2135 401.581 26.5371 401.326C26.8607 401.066 27.0225 400.69 27.0225 400.198C27.0225 399.701 26.8857 399.335 26.6123 399.098C26.3434 398.861 25.9196 398.742 25.3408 398.742H24.377V401.709ZM29.1621 400.123C29.1621 401.199 28.8249 402.021 28.1504 402.591C27.4805 403.16 26.5257 403.445 25.2861 403.445H24.377V407H22.2578V397.006H25.4502C26.6624 397.006 27.583 397.268 28.2119 397.792C28.8454 398.312 29.1621 399.089 29.1621 400.123ZM35.7383 407L35.335 405.961H35.2803C34.9294 406.403 34.5671 406.711 34.1934 406.884C33.8242 407.052 33.3411 407.137 32.7441 407.137C32.0104 407.137 31.4316 406.927 31.0078 406.508C30.5885 406.089 30.3789 405.492 30.3789 404.717C30.3789 403.906 30.6615 403.309 31.2266 402.926C31.7962 402.538 32.653 402.324 33.7969 402.283L35.123 402.242V401.907C35.123 401.132 34.7266 400.745 33.9336 400.745C33.3229 400.745 32.6051 400.93 31.7803 401.299L31.0898 399.891C31.9694 399.43 32.9447 399.2 34.0156 399.2C35.041 399.2 35.8271 399.424 36.374 399.87C36.9209 400.317 37.1943 400.996 37.1943 401.907V407H35.7383ZM35.123 403.459L34.3164 403.486C33.7103 403.505 33.2591 403.614 32.9629 403.814C32.6667 404.015 32.5186 404.32 32.5186 404.73C32.5186 405.318 32.8558 405.612 33.5303 405.612C34.0133 405.612 34.3984 405.473 34.6855 405.195C34.9772 404.917 35.123 404.548 35.123 404.088V403.459ZM43.6133 399.214C43.8958 399.214 44.1305 399.234 44.3174 399.275L44.1602 401.23C43.9915 401.185 43.7865 401.162 43.5449 401.162C42.8796 401.162 42.36 401.333 41.9863 401.675C41.6172 402.017 41.4326 402.495 41.4326 403.11V407H39.3477V399.357H40.9268L41.2344 400.643H41.3369C41.5739 400.214 41.8929 399.87 42.2939 399.61C42.6995 399.346 43.1393 399.214 43.6133 399.214ZM48.9248 405.476C49.2894 405.476 49.7269 405.396 50.2373 405.236V406.788C49.7178 407.021 49.0798 407.137 48.3232 407.137C47.4893 407.137 46.8809 406.927 46.498 406.508C46.1198 406.084 45.9307 405.451 45.9307 404.607V400.923H44.9326V400.041L46.0811 399.344L46.6826 397.73H48.0156V399.357H50.1553V400.923H48.0156V404.607C48.0156 404.904 48.0977 405.122 48.2617 405.264C48.4303 405.405 48.6514 405.476 48.9248 405.476ZM58.8438 407H56.7588V402.536C56.7588 401.985 56.6608 401.572 56.4648 401.299C56.2689 401.021 55.9567 400.882 55.5283 400.882C54.945 400.882 54.5234 401.078 54.2637 401.47C54.0039 401.857 53.874 402.502 53.874 403.404V407H51.7891V399.357H53.3818L53.6621 400.335H53.7783C54.0107 399.966 54.3298 399.688 54.7354 399.501C55.1455 399.31 55.6104 399.214 56.1299 399.214C57.0186 399.214 57.693 399.455 58.1533 399.938C58.6136 400.417 58.8438 401.11 58.8438 402.017V407ZM64.1553 400.697C63.7132 400.697 63.3669 400.839 63.1162 401.121C62.8656 401.399 62.722 401.796 62.6855 402.311H65.6113C65.6022 401.796 65.4678 401.399 65.208 401.121C64.9482 400.839 64.5973 400.697 64.1553 400.697ZM64.4492 407.137C63.2188 407.137 62.2572 406.797 61.5645 406.118C60.8717 405.439 60.5254 404.478 60.5254 403.233C60.5254 401.953 60.8444 400.964 61.4824 400.267C62.125 399.565 63.0114 399.214 64.1416 399.214C65.2217 399.214 66.0625 399.521 66.6641 400.137C67.2656 400.752 67.5664 401.602 67.5664 402.687V403.698H62.6377C62.6605 404.291 62.8359 404.753 63.1641 405.086C63.4922 405.419 63.9525 405.585 64.5449 405.585C65.0052 405.585 65.4404 405.537 65.8506 405.441C66.2607 405.346 66.6891 405.193 67.1357 404.983V406.597C66.7712 406.779 66.3815 406.913 65.9668 407C65.5521 407.091 65.0462 407.137 64.4492 407.137ZM73.5273 399.214C73.8099 399.214 74.0446 399.234 74.2314 399.275L74.0742 401.23C73.9056 401.185 73.7005 401.162 73.459 401.162C72.7936 401.162 72.2741 401.333 71.9004 401.675C71.5312 402.017 71.3467 402.495 71.3467 403.11V407H69.2617V399.357H70.8408L71.1484 400.643H71.251C71.488 400.214 71.807 399.87 72.208 399.61C72.6136 399.346 73.0534 399.214 73.5273 399.214Z" fill="#00032C"/>
<circle cx="191" cy="183" r="3.5" stroke="#0076FF"/>
<circle cx="191" cy="234" r="3.5" stroke="#0076FF"/>
<circle cx="191" cy="285" r="3.5" stroke="#0076FF"/>
<path d="M175 183H187" stroke="#0076FF"/>
<path d="M175 234H187" stroke="#0076FF"/>
<path d="M175 285H187" stroke="#0076FF"/>
<path d="M191 282V237" stroke="#0076FF"/>
<path d="M191 230.5V187" stroke="#0076FF"/>
<path d="M216 56C219.333 56 222 58.6667 222 62C222 65.3333 219.333 68 216 68C212.667 68 210 65.3333 210 62C210 58.7333 212.667 56 216 56Z" fill="#ECEFF5" stroke="#0076FF" stroke-width="2" stroke-miterlimit="10"/>
<path d="M234 56C237.333 56 240 58.6667 240 62C240 65.3333 237.333 68 234 68C230.667 68 228 65.3333 228 62C228 58.7333 230.667 56 234 56Z" fill="#ECEFF5" stroke="#0076FF" stroke-width="2" stroke-miterlimit="10"/>
<path d="M252 56C255.333 56 258 58.6667 258 62C258 65.3333 255.333 68 252 68C248.667 68 246 65.3333 246 62C246 58.7333 248.733 56 252 56Z" fill="#ECEFF5" stroke="#0076FF" stroke-width="2" stroke-miterlimit="10"/>
<path d="M270 56C273.333 56 276 58.6667 276 62C276 65.3333 273.333 68 270 68C266.667 68 264 65.3333 264 62C264 58.7333 266.667 56 270 56Z" fill="#ECEFF5" stroke="#0076FF" stroke-width="2" stroke-miterlimit="10"/>
<path d="M284 471L284 542" stroke="#0076FF" stroke-width="2"/>
<path d="M287.922 550.218C287.743 550.64 287.743 551.114 287.922 551.483C288.1 551.8 288.517 552.221 289.528 552.221C291.73 552.221 292.444 554.383 292.503 554.488L292.801 555.49C292.92 555.753 293.217 555.964 293.515 555.964C293.574 555.964 293.634 555.964 293.693 555.964C294.11 555.859 294.288 555.49 294.229 555.174L293.931 554.225C293.574 553.118 292.206 551.009 289.588 551.009C289.469 551.009 289.35 551.009 289.29 551.009C289.29 550.745 289.647 550.165 290.004 549.691C290.242 549.427 290.183 549.006 289.885 548.795C288.636 547.951 286.375 549.691 285.125 550.798C280.96 554.541 278.52 553.856 278.461 553.803C278.104 553.697 277.687 553.803 277.509 554.172C277.33 554.488 277.509 554.91 277.925 555.015C278.282 555.121 281.258 556.07 286.196 551.694C286.91 550.903 287.505 550.482 287.922 550.218Z" fill="#0076FF"/>
<path d="M303.38 574.743L291.828 571.016L290.804 569.1V568.248C291.657 567.928 293.194 567.13 293.421 565.745C293.592 565 293.763 563.882 293.99 562.977H294.047C294.673 563.03 295.356 562.657 295.982 561.859C296.779 560.9 297.12 559.569 296.893 558.398C296.722 557.653 296.437 557.12 295.925 556.854C295.698 556.748 295.527 556.694 295.356 556.641C295.413 556.428 295.47 556.215 295.527 556.002C295.698 555.31 295.811 554.139 295.811 554.139V554.086C295.811 546.738 291.543 542 284.885 542C278.227 542 273.959 546.738 273.959 554.086C273.959 554.139 274.016 555.417 274.243 556.269C274.3 556.375 274.3 556.535 274.357 556.641C274.13 556.641 273.902 556.748 273.674 556.854C273.219 557.12 272.878 557.653 272.707 558.398C272.479 559.569 272.821 560.9 273.617 561.859C274.243 562.657 274.869 563.03 275.552 562.977C275.723 563.775 275.951 564.627 276.178 565.532C276.463 566.65 277.487 567.769 278.625 568.248V568.78C278.568 568.833 278.511 568.887 278.511 568.94L277.316 571.123L266.618 574.743C265.024 575.329 264 576.713 264 578.31V585.285C264 586.775 265.309 588 266.902 588H303.096C304.689 588 305.998 586.775 305.998 585.285V578.363C306.055 576.766 304.974 575.329 303.38 574.743ZM285.397 579.162L287.275 586.669H282.154L284.031 579.162C284.088 579.002 284.032 578.896 283.975 578.736L282.78 576.021L284.601 574.264L286.649 576.127L285.511 578.683C285.397 578.896 285.397 579.056 285.397 579.162ZM288.015 575.595C287.958 575.542 287.958 575.542 287.901 575.488L285.909 573.678L288.641 572.507C289.324 572.188 289.893 571.708 290.291 571.123L291.088 572.613C291.316 572.986 291.316 573.199 291.031 573.678L288.527 576.127L288.015 575.595ZM277.544 565.213C277.316 564.308 276.804 562.444 276.747 561.486C276.747 561.113 276.406 560.847 276.064 560.847C275.666 560.847 275.382 561.167 275.382 561.486V561.593C275.268 561.539 275.04 561.38 274.812 561.06C274.3 560.421 274.016 559.516 274.186 558.718C274.243 558.292 274.414 558.025 274.471 557.972C274.642 557.866 274.926 558.132 274.926 558.132C275.154 558.398 275.495 558.451 275.78 558.292C276.064 558.132 276.235 557.812 276.121 557.546C276.121 557.546 275.78 556.481 275.609 555.896C275.438 555.31 275.382 554.352 275.382 554.086C275.382 549.134 277.885 543.331 284.885 543.331C291.885 543.331 294.389 549.081 294.389 554.032C294.389 554.192 294.275 555.15 294.161 555.736C293.99 556.428 293.706 557.28 293.706 557.333C293.592 557.6 293.706 557.919 293.99 558.079C294.275 558.238 294.616 558.185 294.844 558.025C295.015 557.866 295.185 557.972 295.242 558.025C295.299 558.079 295.47 558.292 295.527 558.771C295.641 559.569 295.413 560.475 294.901 561.113C294.616 561.486 294.389 561.646 294.275 561.699C294.218 561.433 293.99 561.22 293.706 561.167C293.364 561.113 293.023 561.326 292.909 561.646C292.625 562.551 292.34 564.095 292.055 565.586C291.885 566.438 290.405 567.076 289.893 567.236C289.608 567.343 289.381 567.556 289.381 567.875V569.792C289.267 570.484 288.755 571.069 288.072 571.389L284.771 572.826L281.186 571.282C280.674 571.069 280.276 570.644 280.048 570.164V567.875C280.048 567.556 279.82 567.343 279.536 567.236C278.739 566.97 277.772 566.012 277.544 565.213ZM278.967 571.016C279.365 571.602 279.934 572.081 280.617 572.4L283.406 573.572L280.845 575.968L278.17 573.465C277.942 573.252 277.829 573.146 278.17 572.507L278.967 571.016ZM265.423 585.231V578.257C265.423 577.192 266.106 576.287 267.13 575.914L276.577 572.72C276.463 573.199 276.577 573.838 277.203 574.37L280.332 577.352C280.446 577.458 280.617 577.565 280.845 577.565C281.072 577.565 281.186 577.512 281.357 577.352L281.755 576.979L282.666 579.002L280.788 586.616H266.902C266.106 586.669 265.423 586.03 265.423 585.231ZM304.632 585.285C304.632 586.083 303.949 586.669 303.152 586.669H288.755L286.82 579.056L287.674 577.139L288.072 577.512C288.186 577.618 288.356 577.725 288.584 577.725C288.755 577.725 288.926 577.671 289.096 577.512L292.169 574.53C292.226 574.477 292.226 574.477 292.283 574.424C292.738 573.785 292.852 573.252 292.738 572.667L302.982 575.968C304.006 576.34 304.689 577.299 304.689 578.31V585.285H304.632Z" fill="#0076FF"/>
<path d="M287.922 608.218C287.743 608.64 287.743 609.114 287.922 609.483C288.1 609.8 288.517 610.221 289.528 610.221C291.73 610.221 292.444 612.383 292.503 612.488L292.801 613.49C292.92 613.753 293.217 613.964 293.515 613.964C293.574 613.964 293.634 613.964 293.693 613.964C294.11 613.859 294.288 613.49 294.229 613.174L293.931 612.225C293.574 611.118 292.206 609.009 289.588 609.009C289.469 609.009 289.35 609.009 289.29 609.009C289.29 608.745 289.647 608.165 290.004 607.691C290.242 607.427 290.183 607.006 289.885 606.795C288.636 605.951 286.375 607.691 285.125 608.798C280.96 612.541 278.52 611.856 278.461 611.803C278.104 611.697 277.687 611.803 277.509 612.172C277.33 612.488 277.509 612.91 277.925 613.015C278.282 613.121 281.258 614.07 286.196 609.694C286.91 608.903 287.505 608.482 287.922 608.218Z" fill="#0076FF"/>
<path d="M303.38 632.743L291.828 629.016L290.804 627.1V626.248C291.657 625.928 293.194 625.13 293.421 623.745C293.592 623 293.763 621.882 293.99 620.977H294.047C294.673 621.03 295.356 620.657 295.982 619.859C296.779 618.9 297.12 617.569 296.893 616.398C296.722 615.653 296.437 615.12 295.925 614.854C295.698 614.748 295.527 614.694 295.356 614.641C295.413 614.428 295.47 614.215 295.527 614.002C295.698 613.31 295.811 612.139 295.811 612.139V612.086C295.811 604.738 291.543 600 284.885 600C278.227 600 273.959 604.738 273.959 612.086C273.959 612.139 274.016 613.417 274.243 614.269C274.3 614.375 274.3 614.535 274.357 614.641C274.13 614.641 273.902 614.748 273.674 614.854C273.219 615.12 272.878 615.653 272.707 616.398C272.479 617.569 272.821 618.9 273.617 619.859C274.243 620.657 274.869 621.03 275.552 620.977C275.723 621.775 275.951 622.627 276.178 623.532C276.463 624.65 277.487 625.769 278.625 626.248V626.78C278.568 626.833 278.511 626.887 278.511 626.94L277.316 629.123L266.618 632.743C265.024 633.329 264 634.713 264 636.31V643.285C264 644.775 265.309 646 266.902 646H303.096C304.689 646 305.998 644.775 305.998 643.285V636.363C306.055 634.766 304.974 633.329 303.38 632.743ZM285.397 637.162L287.275 644.669H282.154L284.031 637.162C284.088 637.002 284.032 636.896 283.975 636.736L282.78 634.021L284.601 632.264L286.649 634.127L285.511 636.683C285.397 636.896 285.397 637.056 285.397 637.162ZM288.015 633.595C287.958 633.542 287.958 633.542 287.901 633.488L285.909 631.678L288.641 630.507C289.324 630.188 289.893 629.708 290.291 629.123L291.088 630.613C291.316 630.986 291.316 631.199 291.031 631.678L288.527 634.127L288.015 633.595ZM277.544 623.213C277.316 622.308 276.804 620.444 276.747 619.486C276.747 619.113 276.406 618.847 276.064 618.847C275.666 618.847 275.382 619.167 275.382 619.486V619.593C275.268 619.539 275.04 619.38 274.812 619.06C274.3 618.421 274.016 617.516 274.186 616.718C274.243 616.292 274.414 616.025 274.471 615.972C274.642 615.866 274.926 616.132 274.926 616.132C275.154 616.398 275.495 616.451 275.78 616.292C276.064 616.132 276.235 615.812 276.121 615.546C276.121 615.546 275.78 614.481 275.609 613.896C275.438 613.31 275.382 612.352 275.382 612.086C275.382 607.134 277.885 601.331 284.885 601.331C291.885 601.331 294.389 607.081 294.389 612.032C294.389 612.192 294.275 613.15 294.161 613.736C293.99 614.428 293.706 615.28 293.706 615.333C293.592 615.6 293.706 615.919 293.99 616.079C294.275 616.238 294.616 616.185 294.844 616.025C295.015 615.866 295.185 615.972 295.242 616.025C295.299 616.079 295.47 616.292 295.527 616.771C295.641 617.569 295.413 618.475 294.901 619.113C294.616 619.486 294.389 619.646 294.275 619.699C294.218 619.433 293.99 619.22 293.706 619.167C293.364 619.113 293.023 619.326 292.909 619.646C292.625 620.551 292.34 622.095 292.055 623.586C291.885 624.438 290.405 625.076 289.893 625.236C289.608 625.343 289.381 625.556 289.381 625.875V627.792C289.267 628.484 288.755 629.069 288.072 629.389L284.771 630.826L281.186 629.282C280.674 629.069 280.276 628.644 280.048 628.164V625.875C280.048 625.556 279.82 625.343 279.536 625.236C278.739 624.97 277.772 624.012 277.544 623.213ZM278.967 629.016C279.365 629.602 279.934 630.081 280.617 630.4L283.406 631.572L280.845 633.968L278.17 631.465C277.942 631.252 277.829 631.146 278.17 630.507L278.967 629.016ZM265.423 643.231V636.257C265.423 635.192 266.106 634.287 267.13 633.914L276.577 630.72C276.463 631.199 276.577 631.838 277.203 632.37L280.332 635.352C280.446 635.458 280.617 635.565 280.845 635.565C281.072 635.565 281.186 635.512 281.357 635.352L281.755 634.979L282.666 637.002L280.788 644.616H266.902C266.106 644.669 265.423 644.03 265.423 643.231ZM304.632 643.285C304.632 644.083 303.949 644.669 303.152 644.669H288.755L286.82 637.056L287.674 635.139L288.072 635.512C288.186 635.618 288.356 635.725 288.584 635.725C288.755 635.725 288.926 635.671 289.096 635.512L292.169 632.53C292.226 632.477 292.226 632.477 292.283 632.424C292.738 631.785 292.852 631.252 292.738 630.667L302.982 633.968C304.006 634.34 304.689 635.299 304.689 636.31V643.285H304.632Z" fill="#0076FF"/>
<path d="M287.922 666.218C287.743 666.64 287.743 667.114 287.922 667.483C288.1 667.8 288.517 668.221 289.528 668.221C291.73 668.221 292.444 670.383 292.503 670.488L292.801 671.49C292.92 671.753 293.217 671.964 293.515 671.964C293.574 671.964 293.634 671.964 293.693 671.964C294.11 671.859 294.288 671.49 294.229 671.174L293.931 670.225C293.574 669.118 292.206 667.009 289.588 667.009C289.469 667.009 289.35 667.009 289.29 667.009C289.29 666.745 289.647 666.165 290.004 665.691C290.242 665.427 290.183 665.006 289.885 664.795C288.636 663.951 286.375 665.691 285.125 666.798C280.96 670.541 278.52 669.856 278.461 669.803C278.104 669.697 277.687 669.803 277.509 670.172C277.33 670.488 277.509 670.91 277.925 671.015C278.282 671.121 281.258 672.07 286.196 667.694C286.91 666.903 287.505 666.482 287.922 666.218Z" fill="#0076FF"/>
<path d="M303.38 690.743L291.828 687.016L290.804 685.1V684.248C291.657 683.928 293.194 683.13 293.421 681.745C293.592 681 293.763 679.882 293.99 678.977H294.047C294.673 679.03 295.356 678.657 295.982 677.859C296.779 676.9 297.12 675.569 296.893 674.398C296.722 673.653 296.437 673.12 295.925 672.854C295.698 672.748 295.527 672.694 295.356 672.641C295.413 672.428 295.47 672.215 295.527 672.002C295.698 671.31 295.811 670.139 295.811 670.139V670.086C295.811 662.738 291.543 658 284.885 658C278.227 658 273.959 662.738 273.959 670.086C273.959 670.139 274.016 671.417 274.243 672.269C274.3 672.375 274.3 672.535 274.357 672.641C274.13 672.641 273.902 672.748 273.674 672.854C273.219 673.12 272.878 673.653 272.707 674.398C272.479 675.569 272.821 676.9 273.617 677.859C274.243 678.657 274.869 679.03 275.552 678.977C275.723 679.775 275.951 680.627 276.178 681.532C276.463 682.65 277.487 683.769 278.625 684.248V684.78C278.568 684.833 278.511 684.887 278.511 684.94L277.316 687.123L266.618 690.743C265.024 691.329 264 692.713 264 694.31V701.285C264 702.775 265.309 704 266.902 704H303.096C304.689 704 305.998 702.775 305.998 701.285V694.363C306.055 692.766 304.974 691.329 303.38 690.743ZM285.397 695.162L287.275 702.669H282.154L284.031 695.162C284.088 695.002 284.032 694.896 283.975 694.736L282.78 692.021L284.601 690.264L286.649 692.127L285.511 694.683C285.397 694.896 285.397 695.056 285.397 695.162ZM288.015 691.595C287.958 691.542 287.958 691.542 287.901 691.488L285.909 689.678L288.641 688.507C289.324 688.188 289.893 687.708 290.291 687.123L291.088 688.613C291.316 688.986 291.316 689.199 291.031 689.678L288.527 692.127L288.015 691.595ZM277.544 681.213C277.316 680.308 276.804 678.444 276.747 677.486C276.747 677.113 276.406 676.847 276.064 676.847C275.666 676.847 275.382 677.167 275.382 677.486V677.593C275.268 677.539 275.04 677.38 274.812 677.06C274.3 676.421 274.016 675.516 274.186 674.718C274.243 674.292 274.414 674.025 274.471 673.972C274.642 673.866 274.926 674.132 274.926 674.132C275.154 674.398 275.495 674.451 275.78 674.292C276.064 674.132 276.235 673.812 276.121 673.546C276.121 673.546 275.78 672.481 275.609 671.896C275.438 671.31 275.382 670.352 275.382 670.086C275.382 665.134 277.885 659.331 284.885 659.331C291.885 659.331 294.389 665.081 294.389 670.032C294.389 670.192 294.275 671.15 294.161 671.736C293.99 672.428 293.706 673.28 293.706 673.333C293.592 673.6 293.706 673.919 293.99 674.079C294.275 674.238 294.616 674.185 294.844 674.025C295.015 673.866 295.185 673.972 295.242 674.025C295.299 674.079 295.47 674.292 295.527 674.771C295.641 675.569 295.413 676.475 294.901 677.113C294.616 677.486 294.389 677.646 294.275 677.699C294.218 677.433 293.99 677.22 293.706 677.167C293.364 677.113 293.023 677.326 292.909 677.646C292.625 678.551 292.34 680.095 292.055 681.586C291.885 682.438 290.405 683.076 289.893 683.236C289.608 683.343 289.381 683.556 289.381 683.875V685.792C289.267 686.484 288.755 687.069 288.072 687.389L284.771 688.826L281.186 687.282C280.674 687.069 280.276 686.644 280.048 686.164V683.875C280.048 683.556 279.82 683.343 279.536 683.236C278.739 682.97 277.772 682.012 277.544 681.213ZM278.967 687.016C279.365 687.602 279.934 688.081 280.617 688.4L283.406 689.572L280.845 691.968L278.17 689.465C277.942 689.252 277.829 689.146 278.17 688.507L278.967 687.016ZM265.423 701.231V694.257C265.423 693.192 266.106 692.287 267.13 691.914L276.577 688.72C276.463 689.199 276.577 689.838 277.203 690.37L280.332 693.352C280.446 693.458 280.617 693.565 280.845 693.565C281.072 693.565 281.186 693.512 281.357 693.352L281.755 692.979L282.666 695.002L280.788 702.616H266.902C266.106 702.669 265.423 702.03 265.423 701.231ZM304.632 701.285C304.632 702.083 303.949 702.669 303.152 702.669H288.755L286.82 695.056L287.674 693.139L288.072 693.512C288.186 693.618 288.356 693.725 288.584 693.725C288.755 693.725 288.926 693.671 289.096 693.512L292.169 690.53C292.226 690.477 292.226 690.477 292.283 690.424C292.738 689.785 292.852 689.252 292.738 688.667L302.982 691.968C304.006 692.34 304.689 693.299 304.689 694.31V701.285H304.632Z" fill="#0076FF"/>
<path d="M30.3926 616.006V622.473C30.3926 623.211 30.2262 623.858 29.8936 624.414C29.5654 624.97 29.0892 625.396 28.4648 625.692C27.8405 625.989 27.1022 626.137 26.25 626.137C24.9648 626.137 23.9668 625.809 23.2559 625.152C22.5449 624.492 22.1895 623.589 22.1895 622.445V616.006H24.3018V622.124C24.3018 622.894 24.4567 623.459 24.7666 623.819C25.0765 624.179 25.5892 624.359 26.3047 624.359C26.9974 624.359 27.4987 624.179 27.8086 623.819C28.123 623.455 28.2803 622.885 28.2803 622.11V616.006H30.3926ZM32.8398 626V616.006H34.959V626H32.8398ZM41.9316 616.006L38.2061 626H36.3125L40.0381 616.006H41.9316ZM51.3926 616.006V622.473C51.3926 623.211 51.2262 623.858 50.8936 624.414C50.5654 624.97 50.0892 625.396 49.4648 625.692C48.8405 625.989 48.1022 626.137 47.25 626.137C45.9648 626.137 44.9668 625.809 44.2559 625.152C43.5449 624.492 43.1895 623.589 43.1895 622.445V616.006H45.3018V622.124C45.3018 622.894 45.4567 623.459 45.7666 623.819C46.0765 624.179 46.5892 624.359 47.3047 624.359C47.9974 624.359 48.4987 624.179 48.8086 623.819C49.123 623.455 49.2803 622.885 49.2803 622.11V616.006H51.3926ZM61.9199 626H59.5L57.1758 622.22L54.8516 626H52.582L55.8975 620.846L52.7939 616.006H55.1318L57.2852 619.602L59.3975 616.006H61.6807L58.543 620.962L61.9199 626Z" fill="#00032C"/>
<path fill-rule="evenodd" clip-rule="evenodd" d="M181.878 589H116.122C113.832 589 112 590.862 112 593.19V619H113.57V596.316H184.299V601H186V593.19C185.935 590.862 184.103 589 181.878 589ZM161 645V643.337H125V645H161ZM161 638.283V637.485H125V638.283H161ZM116.057 590.663H181.813C183.187 590.663 184.299 591.793 184.299 593.19V595.518H113.57V593.19C113.636 591.793 114.683 590.663 116.057 590.663Z" fill="#0076FF"/>
<path d="M158.98 655.333C157.143 655.333 155.7 653.8 155.7 652V647H154.06V652C154.06 653.267 154.519 654.467 155.306 655.333H143.694C144.481 654.467 144.94 653.267 144.94 652V647H143.3V652C143.3 653.867 141.791 655.333 140.02 655.333H136.28H133V657H136.28H140.02H158.98H162.72H166V655.333H162.72H158.98Z" fill="#0076FF"/>
<path d="M149 594C149.562 594 150 593.562 150 593C150 592.438 149.562 592 149 592C148.437 592 148 592.438 148 593C148 593.562 148.437 594 149 594Z" fill="#0076FF"/>
<path d="M154 640C153.437 640 153 640.438 153 641C153 641.562 153.437 642 154 642C154.563 642 155 641.562 155 641C154.937 640.438 154.5 640 154 640Z" fill="#0076FF"/>
<path d="M150 640C149.437 640 149 640.438 149 641C149 641.562 149.437 642 150 642C150.562 642 151 641.562 151 641C151 640.438 150.562 640 150 640Z" fill="#0076FF"/>
<path d="M146 640C145.437 640 145 640.438 145 641C145 641.562 145.437 642 146 642C146.563 642 147 641.562 147 641C147 640.438 146.563 640 146 640Z" fill="#0076FF"/>
<path d="M112 651C110.889 651 110 651.889 110 653C110 654.111 110.889 655 112 655C113.111 655 114 654.111 114 653C113.926 651.889 113.037 651 112 651ZM112 654.037C111.407 654.037 110.963 653.593 110.963 653C110.963 652.407 111.407 651.963 112 651.963C112.593 651.963 113.037 652.407 113.037 653C113.037 653.519 112.518 654.037 112 654.037Z" fill="#0076FF"/>
<path d="M117.593 622H106.407C103.966 622 102 623.89 102 626.237V652.763C102 655.11 103.966 657 106.407 657H117.593C120.034 657 122 655.11 122 652.763V626.237C122 623.89 120.034 622 117.593 622ZM106.407 623.629H117.593C119.085 623.629 120.305 624.803 120.305 626.237V626.302H103.763V626.237C103.695 624.803 104.915 623.629 106.407 623.629ZM120.305 649.505H103.763V627.149H120.305V649.505ZM117.593 655.371H106.407C104.915 655.371 103.695 654.197 103.695 652.763V650.352H120.237V652.763C120.305 654.197 119.085 655.371 117.593 655.371Z" fill="#0076FF"/>
<path d="M114 624H110V625H114V624Z" fill="#0076FF"/>
<path d="M182.5 650C181.143 650 180 651.071 180 652.5C180 653.929 181.143 655 182.5 655C183.857 655 185 653.929 185 652.5C184.929 651.143 183.857 650 182.5 650ZM182.5 654.071C181.643 654.071 180.929 653.357 180.929 652.5C180.929 651.643 181.643 650.929 182.5 650.929C183.357 650.929 184.071 651.643 184.071 652.5C184.071 653.357 183.357 654.071 182.5 654.071Z" fill="#0076FF"/>
<path d="M186 608H179V609H186V608Z" fill="#0076FF"/>
<path d="M196.671 604H167.329C164.924 604 163 605.86 163 608.184V652.816C163 655.14 164.924 657 167.329 657H196.671C199.076 657 201 655.14 201 652.816V608.184C201 605.86 199.076 604 196.671 604ZM167.329 605.66H196.671C198.114 605.66 199.282 606.789 199.282 608.184V609.446H164.718V608.184C164.718 606.789 165.886 605.66 167.329 605.66ZM199.282 648.034H164.718V610.243H199.282V648.034ZM196.671 655.34H167.329C165.886 655.34 164.718 654.211 164.718 652.816V648.831H199.282V652.816C199.282 654.211 198.114 655.34 196.671 655.34Z" fill="#0076FF"/>
<path d="M150 434L150 589" stroke="#0076FF" stroke-width="2"/>
<path d="M346 1H1V124.872H346V1Z" stroke="#808080" stroke-width="1.001" stroke-miterlimit="10"/>
<path d="M346 132.871H1V336.871H346V132.871Z" stroke="#808080" stroke-width="1.001" stroke-miterlimit="10"/>
<path d="M346 345.871H1V482.871H346V345.871Z" stroke="#808080" stroke-width="1.001" stroke-miterlimit="10"/>
<path d="M346 497.871H1V748.871H346V497.871Z" stroke="#808080" stroke-width="1.001" stroke-miterlimit="10"/>
</svg>
