<svg width="103" height="74" viewBox="0 0 103 74" fill="none" xmlns="http://www.w3.org/2000/svg">
<path d="M51.4919 16.1107C47.5825 16.1107 44.4234 12.9515 44.4234 9.05533C44.4234 5.1591 47.5825 2 51.4919 2C55.4013 2 58.5604 5.1591 58.5604 9.05533C58.5604 12.9515 55.4013 16.1107 51.4919 16.1107Z" fill="#00032C"/>
<path d="M58.5759 26.2454C58.5759 22.3492 55.4168 19.1901 51.5074 19.1901C47.598 19.1901 44.4389 22.3492 44.4389 26.2454V54.7958H58.5759V26.2454Z" fill="#00032C"/>
<path d="M83.5593 2H69.4223V54.7965H83.5593V2Z" fill="#00032C"/>
<path d="M94.9308 33.1327C91.0214 33.1327 87.8623 29.9736 87.8623 26.0773C87.8623 22.1811 91.0214 19.022 94.9308 19.022C98.8402 19.022 101.999 22.1811 101.999 26.0773C101.999 29.9736 98.827 33.1327 94.9308 33.1327Z" fill="#00032C"/>
<path d="M87.8623 9.05533C87.8623 12.9515 91.0346 16.1107 94.9308 16.1107C98.8402 16.1107 101.999 12.9515 101.999 9.05533V2H87.8623V9.05533Z" fill="#00032C"/>
<path d="M33.5635 2H19.4265V54.7965H33.5635V2Z" fill="#00032C"/>
<path d="M8.06849 23.6509C11.9779 23.6509 15.137 26.81 15.137 30.7062C15.137 34.6024 11.9779 37.7615 8.06849 37.7615C4.1591 37.7615 1 34.6024 1 30.7062C1 26.81 4.17226 23.6509 8.06849 23.6509Z" fill="#00032C"/>
<path d="M15.137 47.7417C15.137 43.8455 11.9647 40.6864 8.06849 40.6864C4.1591 40.6864 1 43.8455 1 47.7417V54.7971H15.137V47.7417Z" fill="#00032C"/>
<path d="M10 64.8953H12.0897C13.4255 64.8953 14.3645 65.1805 15.039 65.7652C15.7797 66.4069 16.1897 67.4051 16.1897 68.7741C16.1897 70.1431 15.7797 71.1556 15.039 71.7973C14.3645 72.382 13.4255 72.6672 12.0897 72.6672H10V64.8953ZM10.7142 72.0112H11.9574C13.1742 72.0112 13.981 71.8116 14.5497 71.3267C15.1581 70.7991 15.4755 69.9435 15.4755 68.7741C15.4755 67.6048 15.1581 66.7634 14.5497 66.2358C13.981 65.7509 13.1742 65.5513 11.9574 65.5513H10.7142V72.0112Z" fill="#00032C"/>
<path d="M20.0781 72.6529H19.3639V64.8953H20.0781V72.6529Z" fill="#00032C"/>
<path d="M28.0268 64.8953V65.5228H24.3765V68.2893H27.6168V68.9167H24.3765V72.6529H23.6623V64.8953H28.0268Z" fill="#00032C"/>
<path d="M41.7816 66.1075C41.6097 66.3641 41.1071 67.1199 40.7235 67.6903L39.1761 69.9292H38.7265C38.6206 69.9292 38.5942 69.9007 38.5281 69.8294L37.0468 67.7189C36.65 67.1627 36.24 66.578 35.9755 66.1217V72.6672H35.2613V64.9096H35.7374C35.83 64.9096 35.8565 64.9239 35.9226 65.0094L38.8852 69.2305H38.8984L41.8213 65.0094C41.8874 64.9096 41.9139 64.9096 42.0197 64.9096H42.4694V72.6672H41.7816V66.1075Z" fill="#00032C"/>
<path d="M51.5026 72.6529C51.41 72.6529 51.3835 72.6244 51.3571 72.5531L50.6165 70.6707H46.8471L46.1461 72.5531C46.1197 72.6387 46.1065 72.6529 46.0006 72.6529H45.3658L48.3548 64.8953H48.9368C49.0426 64.8953 49.069 64.9239 49.0955 64.9952L52.1374 72.6386H51.5026V72.6529ZM47.0852 70.0433H50.3652L49.5848 68.0469C49.2277 67.1342 48.9236 66.3641 48.6987 65.6939H48.6855C48.4871 66.2786 48.1168 67.3481 47.839 68.0611L47.0852 70.0433Z" fill="#00032C"/>
<path d="M59.901 72.6529C59.8084 72.6529 59.7687 72.6244 59.729 72.5531L58.261 69.8009C58.2081 69.701 58.1684 69.6725 58.0626 69.6725H55.7348V72.6529H55.0206V64.8953H57.5335C58.5519 64.8953 59.1735 65.1235 59.5835 65.5941C59.9406 65.9934 60.139 66.5638 60.139 67.2483C60.139 68.3178 59.6365 69.1591 58.8694 69.5584L60.5358 72.6529H59.901ZM55.7481 69.0451H58.2345C58.6048 69.0451 58.7635 68.988 58.9619 68.7599C59.2661 68.4034 59.4248 67.8187 59.4248 67.2768C59.4248 66.7206 59.3058 66.2928 59.0677 66.0076C58.7768 65.6511 58.3139 65.5228 57.5864 65.5228H55.7481V69.0451Z" fill="#00032C"/>
<path d="M66.2361 67.9755L69.2913 72.6386H68.63C68.511 72.6386 68.4845 72.6101 68.4184 72.5246L65.7336 68.4176C65.231 68.9025 64.6623 69.4301 64.2919 69.7296V72.6386H63.5777V64.8811H64.2919V69.0165L68.6035 64.8383L69.0003 65.2946L66.2361 67.9755Z" fill="#00032C"/>
<path d="M76.4729 65.5228H72.7565V68.2893H76.0894V68.9167H72.7565V72.0112H76.6052V72.6386H72.029V64.8811H76.4729V65.5228Z" fill="#00032C"/>
<path d="M79.1313 65.537V64.8953H84.7787V65.537H82.3187V72.6529H81.6045V65.537H79.1313Z" fill="#00032C"/>
<path d="M87.1726 71.5976L87.8074 71.783C88.429 71.9684 89.011 72.0825 89.4739 72.0825C90.7964 72.0825 91.3123 71.398 91.3123 70.5424C91.3123 69.7438 90.9155 69.3873 89.8971 68.988L88.9977 68.6315C87.8603 68.1894 87.1329 67.6761 87.1329 66.6208C87.1329 65.4087 88.2042 64.7812 89.54 64.7812C90.2013 64.7812 91.0477 64.9524 91.6958 65.2233L91.59 65.6939L91.1271 65.6226C90.5716 65.537 90.0161 65.4657 89.5797 65.4657C88.5348 65.4657 87.8074 65.7652 87.8074 66.6066C87.8074 67.2768 88.2836 67.6048 89.2226 67.9755L90.0955 68.3178C91.1932 68.7456 92 69.259 92 70.5424C92 72.0112 90.889 72.7812 89.5135 72.7812C88.72 72.7812 87.6487 72.4818 86.9874 72.0397L87.1726 71.5976Z" fill="#00032C"/>
<path d="M58.5604 9.05533H58.4354H58.5604ZM44.4389 54.7958H44.3139V54.9208H44.4389V54.7958ZM58.5759 54.7958V54.9208H58.7009V54.7958H58.5759ZM69.4223 2V1.875H69.2973V2H69.4223ZM83.5593 2H83.6843V1.875H83.5593V2ZM83.5593 54.7965V54.9215H83.6843V54.7965H83.5593ZM69.4223 54.7965H69.2973V54.9215H69.4223V54.7965ZM101.999 2H102.124V1.875H101.999V2ZM87.8623 2V1.875H87.7373V2H87.8623ZM19.4265 2V1.875H19.3015V2H19.4265ZM33.5635 2H33.6885V1.875H33.5635V2ZM33.5635 54.7965V54.9215H33.6885V54.7965H33.5635ZM19.4265 54.7965H19.3015V54.9215H19.4265V54.7965ZM1 30.7062H0.875H1ZM1 54.7971H0.875V54.9221H1V54.7971ZM15.137 54.7971V54.9221H15.262V54.7971H15.137ZM10 64.8953V64.7703H9.875V64.8953H10ZM15.039 65.7652L14.9572 65.8597L14.9572 65.8597L15.039 65.7652ZM15.039 71.7973L14.9572 71.7028L14.9572 71.7028L15.039 71.7973ZM10 72.6672H9.875V72.7922H10V72.6672ZM10.7142 72.0112H10.5892V72.1362H10.7142V72.0112ZM14.5497 71.3267L14.6308 71.4218L14.6316 71.4211L14.5497 71.3267ZM14.5497 66.2358L14.6316 66.1414L14.6308 66.1407L14.5497 66.2358ZM10.7142 65.5513V65.4263H10.5892V65.5513H10.7142ZM20.0781 72.6529V72.7779H20.2031V72.6529H20.0781ZM19.3639 72.6529H19.2389V72.7779H19.3639V72.6529ZM19.3639 64.8953V64.7703H19.2389V64.8953H19.3639ZM20.0781 64.8953H20.2031V64.7703H20.0781V64.8953ZM28.0268 64.8953H28.1518V64.7703H28.0268V64.8953ZM28.0268 65.5228V65.6478H28.1518V65.5228H28.0268ZM24.3765 65.5228V65.3978H24.2515V65.5228H24.3765ZM24.3765 68.2893H24.2515V68.4143H24.3765V68.2893ZM27.6168 68.2893H27.7418V68.1643H27.6168V68.2893ZM27.6168 68.9167V69.0417H27.7418V68.9167H27.6168ZM24.3765 68.9167V68.7917H24.2515V68.9167H24.3765ZM24.3765 72.6529V72.7779H24.5015V72.6529H24.3765ZM23.6623 72.6529H23.5373V72.7779H23.6623V72.6529ZM23.6623 64.8953V64.7703H23.5373V64.8953H23.6623ZM41.7816 66.1075H41.9066V65.6962L41.6778 66.0379L41.7816 66.1075ZM40.7235 67.6903L40.8264 67.7614L40.8273 67.7601L40.7235 67.6903ZM39.1761 69.9292V70.0542H39.2417L39.279 70.0003L39.1761 69.9292ZM38.5281 69.8294L38.4258 69.9012L38.4306 69.9082L38.4364 69.9144L38.5281 69.8294ZM37.0468 67.7189L37.1491 67.647L37.1485 67.6463L37.0468 67.7189ZM35.9755 66.1217L36.0836 66.059L35.8505 65.6568V66.1217H35.9755ZM35.9755 72.6672V72.7922H36.1005V72.6672H35.9755ZM35.2613 72.6672H35.1363V72.7922H35.2613V72.6672ZM35.2613 64.9096V64.7846H35.1363V64.9096H35.2613ZM35.9226 65.0094L36.025 64.9375L36.0215 64.933L35.9226 65.0094ZM38.8852 69.2305L38.7828 69.3023L38.8202 69.3555H38.8852V69.2305ZM38.8984 69.2305V69.3555H38.9639L39.0012 69.3016L38.8984 69.2305ZM41.8213 65.0094L41.9241 65.0806L41.9255 65.0784L41.8213 65.0094ZM42.4694 64.9096H42.5944V64.7846H42.4694V64.9096ZM42.4694 72.6672V72.7922H42.5944V72.6672H42.4694ZM41.7816 72.6672H41.6566V72.7922H41.7816V72.6672ZM51.5026 72.6529V72.7779H51.6276V72.6529H51.5026ZM51.3571 72.5531L51.4743 72.5096L51.4734 72.5073L51.3571 72.5531ZM50.6165 70.6707L50.7328 70.625L50.7016 70.5457H50.6165V70.6707ZM46.8471 70.6707V70.5457H46.7603L46.73 70.6271L46.8471 70.6707ZM46.1461 72.5531L46.0288 72.5094L46.0267 72.5162L46.1461 72.5531ZM45.3658 72.6529L45.2492 72.608L45.1837 72.7779H45.3658V72.6529ZM48.3548 64.8953V64.7703H48.269L48.2382 64.8504L48.3548 64.8953ZM49.0955 64.9952L48.9783 65.0386L48.9793 65.0414L49.0955 64.9952ZM52.1374 72.6386V72.7636H52.3217L52.2536 72.5924L52.1374 72.6386ZM51.5026 72.6386V72.5136H51.3776V72.6386H51.5026ZM47.0852 70.0433L46.9683 69.9989L46.9039 70.1683H47.0852V70.0433ZM50.3652 70.0433V70.1683H50.5482L50.4816 69.9978L50.3652 70.0433ZM49.5848 68.0469L49.7013 68.0013L49.7012 68.0013L49.5848 68.0469ZM48.6987 65.6939L48.8172 65.6541L48.7886 65.5689H48.6987V65.6939ZM48.6855 65.6939V65.5689H48.5959L48.5671 65.6537L48.6855 65.6939ZM47.839 68.0611L47.7226 68.0157L47.7222 68.0167L47.839 68.0611ZM59.729 72.5531L59.6187 72.6119L59.6198 72.6139L59.729 72.5531ZM58.261 69.8009L58.1505 69.8594L58.1507 69.8597L58.261 69.8009ZM55.7348 69.6725V69.5475H55.6098V69.6725H55.7348ZM55.7348 72.6529V72.7779H55.8598V72.6529H55.7348ZM55.0206 72.6529H54.8956V72.7779H55.0206V72.6529ZM55.0206 64.8953V64.7703H54.8956V64.8953H55.0206ZM59.5835 65.5941L59.4893 65.6762L59.4904 65.6774L59.5835 65.5941ZM58.8694 69.5584L58.8116 69.4476L58.6992 69.5061L58.7593 69.6177L58.8694 69.5584ZM60.5358 72.6529V72.7779H60.7451L60.6459 72.5936L60.5358 72.6529ZM55.7481 69.0451H55.6231V69.1701H55.7481V69.0451ZM58.9619 68.7599L59.0563 68.8419L59.057 68.841L58.9619 68.7599ZM59.0677 66.0076L58.9709 66.0867L58.9718 66.0877L59.0677 66.0076ZM55.7481 65.5228V65.3978H55.6231V65.5228H55.7481ZM66.2361 67.9755L66.1491 67.8858L66.075 67.9577L66.1316 68.0441L66.2361 67.9755ZM69.2913 72.6386V72.7636H69.5226L69.3958 72.5701L69.2913 72.6386ZM68.4184 72.5246L68.3134 72.5932L68.3195 72.601L68.4184 72.5246ZM65.7336 68.4176L65.8382 68.3492L65.7555 68.2228L65.6468 68.3277L65.7336 68.4176ZM64.2919 69.7296L64.2133 69.6324L64.1669 69.6699V69.7296H64.2919ZM64.2919 72.6386V72.7636H64.4169V72.6386H64.2919ZM63.5777 72.6386H63.4527V72.7636H63.5777V72.6386ZM63.5777 64.8811V64.7561H63.4527V64.8811H63.5777ZM64.2919 64.8811H64.4169V64.7561H64.2919V64.8811ZM64.2919 69.0165H64.1669V69.3117L64.3789 69.1063L64.2919 69.0165ZM68.6035 64.8383L68.6979 64.7563L68.6113 64.6567L68.5166 64.7485L68.6035 64.8383ZM69.0003 65.2946L69.0873 65.3843L69.1723 65.3019L69.0946 65.2126L69.0003 65.2946ZM76.4729 65.5228V65.6478H76.5979V65.5228H76.4729ZM72.7565 65.5228V65.3978H72.6315V65.5228H72.7565ZM72.7565 68.2893H72.6315V68.4143H72.7565V68.2893ZM76.0894 68.2893H76.2144V68.1643H76.0894V68.2893ZM76.0894 68.9167V69.0417H76.2144V68.9167H76.0894ZM72.7565 68.9167V68.7917H72.6315V68.9167H72.7565ZM72.7565 72.0112H72.6315V72.1362H72.7565V72.0112ZM76.6052 72.0112H76.7302V71.8862H76.6052V72.0112ZM76.6052 72.6386V72.7636H76.7302V72.6386H76.6052ZM72.029 72.6386H71.904V72.7636H72.029V72.6386ZM72.029 64.8811V64.7561H71.904V64.8811H72.029ZM76.4729 64.8811H76.5979V64.7561H76.4729V64.8811ZM79.1313 65.537H79.0063V65.662H79.1313V65.537ZM79.1313 64.8953V64.7703H79.0063V64.8953H79.1313ZM84.7787 64.8953H84.9037V64.7703H84.7787V64.8953ZM84.7787 65.537V65.662H84.9037V65.537H84.7787ZM82.3187 65.537V65.412H82.1937V65.537H82.3187ZM82.3187 72.6529V72.7779H82.4437V72.6529H82.3187ZM81.6045 72.6529H81.4795V72.7779H81.6045V72.6529ZM81.6045 65.537H81.7295V65.412H81.6045V65.537ZM87.1726 71.5976L87.2076 71.4777L87.1004 71.4464L87.0573 71.5494L87.1726 71.5976ZM87.8074 71.783L87.8431 71.6632L87.8425 71.663L87.8074 71.783ZM89.8971 68.988L89.851 69.1042L89.8515 69.1044L89.8971 68.988ZM88.9977 68.6315L89.0438 68.5153L89.043 68.515L88.9977 68.6315ZM91.6958 65.2233L91.8178 65.2507L91.8408 65.1484L91.744 65.108L91.6958 65.2233ZM91.59 65.6939L91.571 65.8174L91.6864 65.8352L91.712 65.7213L91.59 65.6939ZM91.1271 65.6226L91.1081 65.7461L91.1081 65.7461L91.1271 65.6226ZM89.2226 67.9755L89.1767 68.0918L89.177 68.0919L89.2226 67.9755ZM90.0955 68.3178L90.0498 68.4342L90.0501 68.4343L90.0955 68.3178ZM86.9874 72.0397L86.8721 71.9914L86.8323 72.0864L86.9179 72.1436L86.9874 72.0397ZM51.4919 15.9857C47.6514 15.9857 44.5484 12.8824 44.5484 9.05533H44.2984C44.2984 13.0207 47.5136 16.2357 51.4919 16.2357V15.9857ZM44.5484 9.05533C44.5484 5.22829 47.6514 2.125 51.4919 2.125V1.875C47.5136 1.875 44.2984 5.08991 44.2984 9.05533H44.5484ZM51.4919 2.125C55.3324 2.125 58.4354 5.22829 58.4354 9.05533H58.6854C58.6854 5.08991 55.4702 1.875 51.4919 1.875V2.125ZM58.4354 9.05533C58.4354 12.8824 55.3324 15.9857 51.4919 15.9857V16.2357C55.4702 16.2357 58.6854 13.0207 58.6854 9.05533H58.4354ZM58.7009 26.2454C58.7009 22.28 55.4856 19.0651 51.5074 19.0651V19.3151C55.3479 19.3151 58.4509 22.4184 58.4509 26.2454H58.7009ZM51.5074 19.0651C47.5291 19.0651 44.3139 22.28 44.3139 26.2454H44.5639C44.5639 22.4184 47.6669 19.3151 51.5074 19.3151V19.0651ZM44.3139 26.2454V54.7958H44.5639V26.2454H44.3139ZM44.4389 54.9208H58.5759V54.6708H44.4389V54.9208ZM58.7009 54.7958V26.2454H58.4509V54.7958H58.7009ZM69.4223 2.125H83.5593V1.875H69.4223V2.125ZM83.4343 2V54.7965H83.6843V2H83.4343ZM83.5593 54.6715H69.4223V54.9215H83.5593V54.6715ZM69.5473 54.7965V2H69.2973V54.7965H69.5473ZM94.9308 33.0077C91.0903 33.0077 87.9873 29.9044 87.9873 26.0773H87.7373C87.7373 30.0428 90.9525 33.2577 94.9308 33.2577V33.0077ZM87.9873 26.0773C87.9873 22.2503 91.0903 19.147 94.9308 19.147V18.897C90.9525 18.897 87.7373 22.1119 87.7373 26.0773H87.9873ZM94.9308 19.147C98.7713 19.147 101.874 22.2503 101.874 26.0773H102.124C102.124 22.1119 98.9091 18.897 94.9308 18.897V19.147ZM101.874 26.0773C101.874 29.9042 98.7583 33.0077 94.9308 33.0077V33.2577C98.8958 33.2577 102.124 30.0429 102.124 26.0773H101.874ZM87.7373 9.05533C87.7373 13.0209 90.9658 16.2357 94.9308 16.2357V15.9857C91.1033 15.9857 87.9873 12.8822 87.9873 9.05533H87.7373ZM94.9308 16.2357C98.9091 16.2357 102.124 13.0207 102.124 9.05533H101.874C101.874 12.8824 98.7713 15.9857 94.9308 15.9857V16.2357ZM102.124 9.05533V2H101.874V9.05533H102.124ZM101.999 1.875H87.8623V2.125H101.999V1.875ZM87.7373 2V9.05533H87.9873V2H87.7373ZM19.4265 2.125H33.5635V1.875H19.4265V2.125ZM33.4385 2V54.7965H33.6885V2H33.4385ZM33.5635 54.6715H19.4265V54.9215H33.5635V54.6715ZM19.5515 54.7965V2H19.3015V54.7965H19.5515ZM8.06849 23.7759C11.909 23.7759 15.012 26.8791 15.012 30.7062H15.262C15.262 26.7408 12.0468 23.5259 8.06849 23.5259V23.7759ZM15.012 30.7062C15.012 34.5332 11.909 37.6365 8.06849 37.6365V37.8865C12.0468 37.8865 15.262 34.6716 15.262 30.7062H15.012ZM8.06849 37.6365C4.22799 37.6365 1.125 34.5332 1.125 30.7062H0.875C0.875 34.6716 4.09022 37.8865 8.06849 37.8865V37.6365ZM1.125 30.7062C1.125 26.8793 4.241 23.7759 8.06849 23.7759V23.5259C4.10353 23.5259 0.875 26.7406 0.875 30.7062H1.125ZM15.262 47.7417C15.262 43.7762 12.0334 40.5614 8.06849 40.5614V40.8114C11.896 40.8114 15.012 43.9148 15.012 47.7417H15.262ZM8.06849 40.5614C4.09022 40.5614 0.875 43.7763 0.875 47.7417H1.125C1.125 43.9147 4.22799 40.8114 8.06849 40.8114V40.5614ZM0.875 47.7417V54.7971H1.125V47.7417H0.875ZM1 54.9221H15.137V54.6721H1V54.9221ZM15.262 54.7971V47.7417H15.012V54.7971H15.262ZM10 65.0203H12.0897V64.7703H10V65.0203ZM12.0897 65.0203C13.4087 65.0203 14.3137 65.3019 14.9572 65.8597L15.1209 65.6708C14.4153 65.0592 13.4423 64.7703 12.0897 64.7703V65.0203ZM14.9572 65.8597C15.663 66.4712 16.0647 67.4303 16.0647 68.7741H16.3147C16.3147 67.38 15.8963 66.3426 15.1209 65.6707L14.9572 65.8597ZM16.0647 68.7741C16.0647 70.1184 15.6627 71.0915 14.9572 71.7028L15.1209 71.8918C15.8966 71.2197 16.3147 70.1678 16.3147 68.7741H16.0647ZM14.9572 71.7028C14.3137 72.2606 13.4087 72.5422 12.0897 72.5422V72.7922C13.4423 72.7922 14.4153 72.5033 15.1209 71.8917L14.9572 71.7028ZM12.0897 72.5422H10V72.7922H12.0897V72.5422ZM10.7142 72.1362H11.9574V71.8862H10.7142V72.1362ZM11.9574 72.1362C13.1841 72.1362 14.0279 71.9358 14.6308 71.4218L14.4686 71.2316C13.934 71.6873 13.1643 71.8862 11.9574 71.8862V72.1362ZM14.6316 71.4211C15.2772 70.8612 15.6005 69.9641 15.6005 68.7741H15.3505C15.3505 69.9228 15.0389 70.737 14.4678 71.2323L14.6316 71.4211ZM15.6005 68.7741C15.6005 67.5835 15.2769 66.7011 14.6316 66.1414L14.4678 66.3302C15.0392 66.8258 15.3505 67.626 15.3505 68.7741H15.6005ZM14.6308 66.1407C14.0279 65.6267 13.1841 65.4263 11.9574 65.4263V65.6763C13.1643 65.6763 13.934 65.8752 14.4686 66.3309L14.6308 66.1407ZM11.9574 65.4263H10.7142V65.6763H11.9574V65.4263ZM10.5892 65.5513V72.0112H10.8392V65.5513H10.5892ZM20.0781 72.5279H19.3639V72.7779H20.0781V72.5279ZM19.4889 72.6529V64.8953H19.2389V72.6529H19.4889ZM19.3639 65.0203H20.0781V64.7703H19.3639V65.0203ZM19.9531 64.8953V72.6529H20.2031V64.8953H19.9531ZM27.9018 64.8953V65.5228H28.1518V64.8953H27.9018ZM28.0268 65.3978H24.3765V65.6478H28.0268V65.3978ZM24.2515 65.5228V68.2893H24.5015V65.5228H24.2515ZM24.3765 68.4143H27.6168V68.1643H24.3765V68.4143ZM27.4918 68.2893V68.9167H27.7418V68.2893H27.4918ZM27.6168 68.7917H24.3765V69.0417H27.6168V68.7917ZM24.2515 68.9167V72.6529H24.5015V68.9167H24.2515ZM24.3765 72.5279H23.6623V72.7779H24.3765V72.5279ZM23.7873 72.6529V64.8953H23.5373V72.6529H23.7873ZM23.6623 65.0203H28.0268V64.7703H23.6623V65.0203ZM41.6778 66.0379C41.5053 66.2954 41.0034 67.0501 40.6198 67.6206L40.8273 67.7601C41.2107 67.1898 41.7141 66.4329 41.8855 66.177L41.6778 66.0379ZM40.6207 67.6193L39.0733 69.8581L39.279 70.0003L40.8264 67.7614L40.6207 67.6193ZM39.1761 69.8042H38.7265V70.0542H39.1761V69.8042ZM38.7265 69.8042C38.6846 69.8042 38.676 69.7984 38.6743 69.7975C38.6718 69.796 38.6671 69.7929 38.658 69.7842C38.6481 69.7749 38.6371 69.7631 38.6197 69.7444L38.4364 69.9144C38.4654 69.9456 38.5022 69.9871 38.5504 70.0146C38.6049 70.0457 38.6625 70.0542 38.7265 70.0542V69.8042ZM38.6304 69.7576L37.1491 67.647L36.9445 67.7907L38.4258 69.9012L38.6304 69.7576ZM37.1485 67.6463C36.7511 67.0892 36.3447 66.5094 36.0836 66.059L35.8673 66.1844C36.1353 66.6467 36.5489 67.2362 36.945 67.7915L37.1485 67.6463ZM35.8505 66.1217V72.6672H36.1005V66.1217H35.8505ZM35.9755 72.5422H35.2613V72.7922H35.9755V72.5422ZM35.3863 72.6672V64.9096H35.1363V72.6672H35.3863ZM35.2613 65.0346H35.7374V64.7846H35.2613V65.0346ZM35.7374 65.0346C35.7805 65.0346 35.7832 65.0389 35.7806 65.0374C35.78 65.0371 35.7827 65.0383 35.7899 65.0456C35.7977 65.0535 35.8081 65.0657 35.8237 65.0859L36.0215 64.933C35.9887 64.8905 35.9515 64.8455 35.8992 64.8174C35.8437 64.7874 35.7869 64.7846 35.7374 64.7846V65.0346ZM35.8203 65.0812L38.7828 69.3023L38.9875 69.1586L36.0249 64.9376L35.8203 65.0812ZM38.8852 69.3555H38.8984V69.1055H38.8852V69.3555ZM39.0012 69.3016L41.9241 65.0806L41.7185 64.9383L38.7956 69.1593L39.0012 69.3016ZM41.9255 65.0784C41.9574 65.0304 41.9637 65.033 41.9563 65.0363C41.9532 65.0377 41.9535 65.0366 41.9639 65.0357C41.9759 65.0347 41.9915 65.0346 42.0197 65.0346V64.7846C41.9766 64.7846 41.9126 64.7822 41.8549 64.8078C41.7913 64.8361 41.7514 64.8886 41.7171 64.9404L41.9255 65.0784ZM42.0197 65.0346H42.4694V64.7846H42.0197V65.0346ZM42.3444 64.9096V72.6672H42.5944V64.9096H42.3444ZM42.4694 72.5422H41.7816V72.7922H42.4694V72.5422ZM41.9066 72.6672V66.1075H41.6566V72.6672H41.9066ZM51.5026 72.5279C51.4852 72.5279 51.4767 72.5265 51.4735 72.5257C51.4712 72.5252 51.4747 72.5258 51.4798 72.5296C51.4848 72.5333 51.4863 72.5364 51.4851 72.5343C51.4832 72.5313 51.4798 72.5244 51.4743 72.5096L51.2399 72.5966C51.2544 72.6357 51.2779 72.6908 51.3303 72.7299C51.384 72.77 51.4466 72.7779 51.5026 72.7779V72.5279ZM51.4734 72.5073L50.7328 70.625L50.5001 70.7165L51.2408 72.5989L51.4734 72.5073ZM50.6165 70.5457H46.8471V70.7957H50.6165V70.5457ZM46.73 70.6271L46.029 72.5095L46.2633 72.5967L46.9642 70.7144L46.73 70.6271ZM46.0267 72.5162C46.0236 72.5262 46.0212 72.5336 46.0191 72.5395C46.0169 72.5454 46.0156 72.5483 46.0151 72.5494C46.0146 72.5504 46.0154 72.5485 46.018 72.5452C46.0207 72.5417 46.0248 72.5375 46.0302 72.5336C46.0413 72.5256 46.0494 72.5251 46.0443 72.526C46.0418 72.5264 46.0372 72.5269 46.0296 72.5273C46.022 72.5277 46.0126 72.5279 46.0006 72.5279V72.7779C46.0471 72.7779 46.1186 72.7779 46.1761 72.7366C46.2357 72.6938 46.2549 72.6246 46.2656 72.59L46.0267 72.5162ZM46.0006 72.5279H45.3658V72.7779H46.0006V72.5279ZM45.4824 72.6979L48.4715 64.9403L48.2382 64.8504L45.2492 72.608L45.4824 72.6979ZM48.3548 65.0203H48.9368V64.7703H48.3548V65.0203ZM48.9368 65.0203C48.9583 65.0203 48.9703 65.0218 48.9764 65.0232C48.9817 65.0243 48.9795 65.0246 48.9747 65.0212C48.9695 65.0177 48.9674 65.0142 48.9681 65.0152C48.9695 65.0175 48.9727 65.0237 48.9783 65.0386L49.2127 64.9517C49.1981 64.9123 49.1739 64.8552 49.1171 64.8158C49.0617 64.7774 48.9965 64.7703 48.9368 64.7703V65.0203ZM48.9793 65.0414L52.0213 72.6849L52.2536 72.5924L49.2116 64.9489L48.9793 65.0414ZM52.1374 72.5136H51.5026V72.7636H52.1374V72.5136ZM51.3776 72.6386V72.6529H51.6276V72.6386H51.3776ZM47.0852 70.1683H50.3652V69.9183H47.0852V70.1683ZM50.4816 69.9978L49.7013 68.0013L49.4684 68.0924L50.2487 70.0888L50.4816 69.9978ZM49.7012 68.0013C49.3436 67.0873 49.0408 66.3207 48.8172 65.6541L48.5802 65.7337C48.8063 66.4075 49.1119 67.1811 49.4684 68.0924L49.7012 68.0013ZM48.6987 65.5689H48.6855V65.8189H48.6987V65.5689ZM48.5671 65.6537C48.3687 66.2384 47.9992 67.3056 47.7226 68.0157L47.9555 68.1065C48.2344 67.3906 48.6055 66.3188 48.8039 65.7341L48.5671 65.6537ZM47.7222 68.0167L46.9683 69.9989L47.202 70.0877L47.9559 68.1055L47.7222 68.0167ZM59.901 72.5279C59.8839 72.5279 59.8735 72.5266 59.8673 72.5252C59.8617 72.524 59.86 72.5229 59.86 72.5229C59.86 72.5229 59.8584 72.522 59.855 72.518C59.8513 72.5136 59.8458 72.5059 59.8383 72.4923L59.6198 72.6139C59.6441 72.6576 59.677 72.7043 59.7303 72.7366C59.784 72.7692 59.8428 72.7779 59.901 72.7779V72.5279ZM59.8393 72.4943L58.3713 69.742L58.1507 69.8597L59.6187 72.6119L59.8393 72.4943ZM58.3714 69.7423C58.343 69.6887 58.3077 69.6326 58.2504 69.5949C58.1905 69.5554 58.1249 69.5475 58.0626 69.5475V69.7975C58.084 69.7975 58.0966 69.799 58.1042 69.8007C58.1106 69.8021 58.1125 69.8034 58.1128 69.8036C58.115 69.8051 58.1261 69.8132 58.1505 69.8594L58.3714 69.7423ZM58.0626 69.5475H55.7348V69.7975H58.0626V69.5475ZM55.6098 69.6725V72.6529H55.8598V69.6725H55.6098ZM55.7348 72.5279H55.0206V72.7779H55.7348V72.5279ZM55.1456 72.6529V64.8953H54.8956V72.6529H55.1456ZM55.0206 65.0203H57.5335V64.7703H55.0206V65.0203ZM57.5335 65.0203C58.5346 65.0203 59.1131 65.2444 59.4893 65.6762L59.6778 65.512C59.234 65.0026 58.5693 64.7703 57.5335 64.7703V65.0203ZM59.4904 65.6774C59.8227 66.049 60.014 66.5874 60.014 67.2483H60.264C60.264 66.5402 60.0586 65.9378 59.6767 65.5108L59.4904 65.6774ZM60.014 67.2483C60.014 68.2778 59.5318 69.0727 58.8116 69.4476L58.9271 69.6693C59.7411 69.2456 60.264 68.3578 60.264 67.2483H60.014ZM58.7593 69.6177L60.4258 72.7122L60.6459 72.5936L58.9794 69.4992L58.7593 69.6177ZM60.5358 72.5279H59.901V72.7779H60.5358V72.5279ZM55.7481 69.1701H58.2345V68.9201H55.7481V69.1701ZM58.2345 69.1701C58.4238 69.1701 58.5749 69.1559 58.7077 69.1046C58.844 69.052 58.9492 68.965 59.0563 68.8419L58.8676 68.6778C58.7763 68.7829 58.7029 68.8385 58.6177 68.8714C58.529 68.9057 58.4156 68.9201 58.2345 68.9201V69.1701ZM59.057 68.841C59.387 68.4543 59.5498 67.8367 59.5498 67.2768H59.2998C59.2998 67.8007 59.1453 68.3524 58.8668 68.6787L59.057 68.841ZM59.5498 67.2768C59.5498 66.7059 59.4281 66.2443 59.1637 65.9275L58.9718 66.0877C59.1835 66.3414 59.2998 66.7354 59.2998 67.2768H59.5498ZM59.1646 65.9286C58.8362 65.5262 58.3224 65.3978 57.5864 65.3978V65.6478C58.3053 65.6478 58.7174 65.776 58.9709 66.0867L59.1646 65.9286ZM57.5864 65.3978H55.7481V65.6478H57.5864V65.3978ZM55.6231 65.5228V69.0451H55.8731V65.5228H55.6231ZM66.1316 68.0441L69.1867 72.7072L69.3958 72.5701L66.3407 67.907L66.1316 68.0441ZM69.2913 72.5136H68.63V72.7636H69.2913V72.5136ZM68.63 72.5136C68.5785 72.5136 68.5694 72.5069 68.5686 72.5065C68.5627 72.5029 68.5534 72.4949 68.5173 72.4481L68.3195 72.601C68.3495 72.6398 68.3865 72.6888 68.4401 72.7209C68.4988 72.7561 68.5624 72.7636 68.63 72.7636V72.5136ZM68.523 72.4562L65.8382 68.3492L65.6289 68.486L68.3138 72.593L68.523 72.4562ZM65.6468 68.3277C65.1443 68.8124 64.579 69.3366 64.2133 69.6324L64.3705 69.8268C64.7455 69.5235 65.3176 68.9925 65.8203 68.5076L65.6468 68.3277ZM64.1669 69.7296V72.6386H64.4169V69.7296H64.1669ZM64.2919 72.5136H63.5777V72.7636H64.2919V72.5136ZM63.7027 72.6386V64.8811H63.4527V72.6386H63.7027ZM63.5777 65.0061H64.2919V64.7561H63.5777V65.0061ZM64.1669 64.8811V69.0165H64.4169V64.8811H64.1669ZM64.3789 69.1063L68.6905 64.9281L68.5166 64.7485L64.2049 68.9268L64.3789 69.1063ZM68.5092 64.9203L68.906 65.3766L69.0946 65.2126L68.6979 64.7563L68.5092 64.9203ZM68.9133 65.2049L66.1491 67.8858L66.3232 68.0653L69.0873 65.3843L68.9133 65.2049ZM76.4729 65.3978H72.7565V65.6478H76.4729V65.3978ZM72.6315 65.5228V68.2893H72.8815V65.5228H72.6315ZM72.7565 68.4143H76.0894V68.1643H72.7565V68.4143ZM75.9644 68.2893V68.9167H76.2144V68.2893H75.9644ZM76.0894 68.7917H72.7565V69.0417H76.0894V68.7917ZM72.6315 68.9167V72.0112H72.8815V68.9167H72.6315ZM72.7565 72.1362H76.6052V71.8862H72.7565V72.1362ZM76.4802 72.0112V72.6386H76.7302V72.0112H76.4802ZM76.6052 72.5136H72.029V72.7636H76.6052V72.5136ZM72.154 72.6386V64.8811H71.904V72.6386H72.154ZM72.029 65.0061H76.4729V64.7561H72.029V65.0061ZM79.2563 65.537V64.8953H79.0063V65.537H79.2563ZM79.1313 65.0203H84.7787V64.7703H79.1313V65.0203ZM84.6537 64.8953V65.537H84.9037V64.8953H84.6537ZM84.7787 65.412H82.3187V65.662H84.7787V65.412ZM82.1937 65.537V72.6529H82.4437V65.537H82.1937ZM82.3187 72.5279H81.6045V72.7779H82.3187V72.5279ZM81.7295 72.6529V65.537H81.4795V72.6529H81.7295ZM87.1375 71.7176L87.7724 71.903L87.8425 71.663L87.2076 71.4777L87.1375 71.7176ZM87.7717 71.9028C88.3982 72.0897 88.9934 72.2075 89.4739 72.2075V71.9575C89.0285 71.9575 88.4599 71.8472 87.8431 71.6632L87.7717 71.9028ZM89.4739 72.2075C90.1557 72.2075 90.6503 72.0309 90.9749 71.7242C91.3002 71.4167 91.4373 70.9952 91.4373 70.5424H91.1873C91.1873 70.9452 91.0664 71.2937 90.8032 71.5425C90.5392 71.7919 90.1146 71.9575 89.4739 71.9575V72.2075ZM91.4373 70.5424C91.4373 70.1193 91.3308 69.7969 91.0773 69.5295C90.8306 69.2693 90.4544 69.0723 89.9427 68.8716L89.8515 69.1044C90.3582 69.3031 90.6895 69.4839 90.8959 69.7015C91.0953 69.9118 91.1873 70.1669 91.1873 70.5424H91.4373ZM89.9432 68.8718L89.0438 68.5153L88.9517 68.7477L89.851 69.1042L89.9432 68.8718ZM89.043 68.515C88.4782 68.2955 88.0314 68.064 87.726 67.7666C87.4261 67.4745 87.2579 67.1146 87.2579 66.6208H87.0079C87.0079 67.1823 87.2034 67.6067 87.5516 67.9457C87.8942 68.2793 88.3799 68.5255 88.9525 68.748L89.043 68.515ZM87.2579 66.6208C87.2579 66.0571 87.5046 65.6345 87.9078 65.3485C88.3155 65.0593 88.8896 64.9062 89.54 64.9062V64.6562C88.8546 64.6562 88.2251 64.8169 87.7632 65.1445C87.2969 65.4753 87.0079 65.9724 87.0079 66.6208H87.2579ZM89.54 64.9062C90.1842 64.9062 91.0143 65.0739 91.6476 65.3386L91.744 65.108C91.0812 64.8309 90.2184 64.6562 89.54 64.6562V64.9062ZM91.5739 65.1959L91.468 65.6665L91.712 65.7213L91.8178 65.2507L91.5739 65.1959ZM91.609 65.5704L91.1461 65.4991L91.1081 65.7461L91.571 65.8174L91.609 65.5704ZM91.1461 65.4991C90.5907 65.4135 90.0267 65.3407 89.5797 65.3407V65.5907C90.0056 65.5907 90.5526 65.6606 91.1081 65.7461L91.1461 65.4991ZM89.5797 65.3407C89.0494 65.3407 88.5801 65.416 88.2393 65.6123C87.8881 65.8147 87.6824 66.1413 87.6824 66.6066H87.9324C87.9324 66.2305 88.0905 65.9866 88.3641 65.8289C88.6483 65.6652 89.0651 65.5907 89.5797 65.5907V65.3407ZM87.6824 66.6066C87.6824 66.9783 87.8174 67.2613 88.0794 67.4964C88.3338 67.7246 88.706 67.906 89.1767 68.0918L89.2685 67.8593C88.8001 67.6744 88.4648 67.5063 88.2463 67.3103C88.0355 67.1212 87.9324 66.9051 87.9324 66.6066H87.6824ZM89.177 68.0919L90.0498 68.4342L90.1411 68.2014L89.2682 67.8592L89.177 68.0919ZM90.0501 68.4343C90.596 68.647 91.0511 68.8746 91.3706 69.1972C91.6845 69.5142 91.875 69.9309 91.875 70.5424H92.125C92.125 69.8704 91.9121 69.3888 91.5482 69.0213C91.1898 68.6594 90.6927 68.4164 90.1409 68.2013L90.0501 68.4343ZM91.875 70.5424C91.875 71.2423 91.6118 71.766 91.1924 72.1167C90.7702 72.4699 90.1792 72.6562 89.5135 72.6562V72.9062C90.2234 72.9062 90.8756 72.7076 91.3528 72.3085C91.8327 71.9071 92.125 71.3113 92.125 70.5424H91.875ZM89.5135 72.6562C88.7424 72.6562 87.6958 72.3629 87.0569 71.9358L86.9179 72.1436C87.6016 72.6007 88.6976 72.9062 89.5135 72.9062V72.6562ZM87.1027 72.088L87.2879 71.6459L87.0573 71.5494L86.8721 71.9914L87.1027 72.088ZM10.125 72.6672V64.8953H9.875V72.6672H10.125ZM76.3479 64.8811V65.5228H76.5979V64.8811H76.3479ZM81.6045 65.412H79.1313V65.662H81.6045V65.412Z" fill="#00032C"/>
</svg>
