<?xml version="1.0" encoding="utf-8"?>
<!-- Generator: Adobe Illustrator 19.0.1, SVG Export Plug-In . SVG Version: 6.00 Build 0)  -->
<svg version="1.1" id="Medium" xmlns="http://www.w3.org/2000/svg" xmlns:xlink="http://www.w3.org/1999/xlink" x="0px" y="0px"
	 viewBox="0 0 43 43" style="enable-background:new 0 0 43 43;" xml:space="preserve">
<style type="text/css">
	.st0{opacity:0.5;fill:#E442EA;}
	.st1{fill:#E442EA;}
	.st2{fill:#FF78FF;}
	.st3{fill:#FFFFFF;}
</style>
<g>
	<g>
		<rect x="0" y="0" class="st0" width="43" height="43"/>
		<polygon class="st1" points="43,43 0,43 0,21.5 23.7,26.2 43,14.6 		"/>
		<polygon class="st2" points="0,21.5 0,0 23.7,26.2 		"/>
	</g>
	<g>
		<path class="st3" d="M7.4,33.1c-1.5,0-1.8,1.9-1.4,3c0.4,1.4,1.9,1.2,3,0.8V38c-2.3,1-4.5-0.3-4.4-2.8c0-2.6,2.4-3.8,4.7-2.7
			l-0.4,1.1C8.3,33.3,7.8,33.1,7.4,33.1z"/>
		<path class="st3" d="M11.4,38.3h-1.3v-6.1h3.5v1.1h-2.2v1.6h2.1v1.1h-2.1V38.3z"/>
		<path class="st3" d="M19.8,35.1c0,2-1.4,3.1-3.4,3.1h-1.7v-6.1h1.9C18.5,32.1,19.8,33.2,19.8,35.1z M18.4,35.2c0-1.3-0.6-2-1.7-2
			H16v4h0.6C17.8,37.2,18.4,36.5,18.4,35.2z"/>
	</g>
</g>
</svg>
