<?xml version="1.0" encoding="utf-8"?>
<!-- Generator: Adobe Illustrator 19.0.1, SVG Export Plug-In . SVG Version: 6.00 Build 0)  -->
<svg version="1.1" id="Medium" xmlns="http://www.w3.org/2000/svg" xmlns:xlink="http://www.w3.org/1999/xlink" x="0px" y="0px"
	 viewBox="0 0 43 43" style="enable-background:new 0 0 43 43;" xml:space="preserve">
<style type="text/css">
	.st0{opacity:0.5;fill:#FFC231;}
	.st1{fill:#FFC231;}
	.st2{fill:#FFFF64;}
	.st3{fill:#FFFFFF;}
</style>
<g>
	<rect class="st0" width="43" height="43"/>
	<polygon class="st1" points="43,43 0,43 0,23.6 28.4,15.7 43,19.1 	"/>
	<polygon class="st2" points="43,0 28.4,15.7 43,19.2 	"/>
	<g>
		<path class="st3" d="M8.3,38.3H4.7v-6.1h3.5v1.1H6v1.3h2.1v1.1H6v1.6h2.2V38.3z"/>
		<path class="st3" d="M15,35.2c0,1.1-0.4,2.4-1.5,2.9c0.5,0.5,1,1.1,1.5,1.6h-1.7l-1.1-1.4h-0.1c-2.7,0-3.9-3.4-2.2-5.4
			c0.8-0.9,2.3-1.1,3.4-0.7C14.5,32.6,15,33.9,15,35.2z M10.5,35.2c0,0.9,0.4,2,1.5,2.1c1.2,0,1.6-1.1,1.6-2.1c0-1-0.4-2.1-1.6-2.1
			C10.9,33.1,10.5,34.2,10.5,35.2z"/>
	</g>
</g>
</svg>
