<?xml version="1.0" encoding="utf-8"?>
<!-- Generator: Adobe Illustrator 19.0.1, SVG Export Plug-In . SVG Version: 6.00 Build 0)  -->
<svg version="1.1" id="Medium" xmlns="http://www.w3.org/2000/svg" xmlns:xlink="http://www.w3.org/1999/xlink" x="0px" y="0px"
	 viewBox="0 0 43 43" style="enable-background:new 0 0 43 43;" xml:space="preserve">
<style type="text/css">
	.st0{opacity:0.5;fill:#07BE32;}
	.st1{fill:#07BE32;}
	.st2{fill:#0EF080;}
	.st3{fill:#FFFFFF;}
</style>
<g>
	<g>
		<rect x="0" class="st0" width="43" height="43"/>
		<polygon class="st1" points="0,43 43,43 43,21.9 28.3,12.9 0,22.2 		"/>
		<polygon class="st2" points="28.3,12.9 43,0 43,21.9 		"/>
	</g>
	<g>
		<path class="st3" d="M6,38.3H4.7v-6.1h3.5v1.1H6v1.6h2.1v1.1H6V38.3z"/>
		<path class="st3" d="M14.6,38.3h-1.5l-1.4-2.3l-1.4,2.3H8.8l2-3.2l-1.9-3h1.4l1.3,2.2l1.3-2.2h1.4l-1.9,3L14.6,38.3z"/>
		<path class="st3" d="M20.7,35.2c0,1.8-1,3.2-2.9,3.2c-1.9,0-2.9-1.4-2.9-3.2c0-1.8,1-3.1,2.8-3.1C19.5,31.9,20.7,33.3,20.7,35.2z
			 M16.2,35.2c0,1.1,0.5,2.2,1.8,2.1c1-0.1,1.3-1.1,1.3-2.1c0-0.9-0.3-1.9-1.3-2.1C16.7,32.9,16.2,34.1,16.2,35.2z"/>
	</g>
</g>
</svg>
