<svg data-name="Layer 1" xmlns="http://www.w3.org/2000/svg" xmlns:xlink="http://www.w3.org/1999/xlink" viewBox="0 0 63.33 76.14"><defs><style>.cls-1{fill:none;}.cls-2{clip-path:url(#clip-path);}.cls-3{fill:#1b50a3;}.cls-4{fill:#2e5ba9;}.cls-5{fill:#0f4aa0;}.cls-6{fill:#fff;}</style><clipPath id="clip-path" transform="translate(-274 -357.89)"><rect class="cls-1" x="274" y="358" width="63.33" height="76.03"/></clipPath></defs><title>Icon_SAXOSELECT_balancedportfolios</title><g class="cls-2"><polyline class="cls-3" points="63.33 0 0 0 0 76 63.33 76 63.33 0"/></g><polygon class="cls-4" points="63.33 76.14 0 76.14 0 38.11 34.86 46.37 63.33 25.94 63.33 76.14 63.33 76.14"/><polygon class="cls-5" points="0 38.25 0 0.25 34.86 46.51 0 38.25 0 38.25"/><path class="cls-6" d="M281.53,412.38a1.37,1.37,0,0,1-.53,1.13,2.18,2.18,0,0,1-1.4.42,4.38,4.38,0,0,1-1.61-.23v-.4a4.06,4.06,0,0,0,1.57.26,1.76,1.76,0,0,0,1.12-.32,1,1,0,0,0,.41-.85,1,1,0,0,0-.14-.54,1.25,1.25,0,0,0-.45-.39,5.51,5.51,0,0,0-.91-.38,3.09,3.09,0,0,1-1.21-.65,1.39,1.39,0,0,1,.17-2,2,2,0,0,1,1.29-.4,3.78,3.78,0,0,1,1.51.3l-.14.34a3.52,3.52,0,0,0-1.36-.3,1.59,1.59,0,0,0-1,.29,1,1,0,0,0-.37.8,1,1,0,0,0,.12.52,1.06,1.06,0,0,0,.38.37,5.16,5.16,0,0,0,.9.39,4.83,4.83,0,0,1,1,.45,1.43,1.43,0,0,1,.49.49A1.34,1.34,0,0,1,281.53,412.38Z" transform="translate(-274 -357.89)"/><path class="cls-6" d="M285.75,411.84h-2.32l-.8,2h-.44l2.3-5.73h.25l2.25,5.73h-.45Zm-2.18-.36h2l-.78-2.06c-.06-.16-.14-.39-.23-.67a6.23,6.23,0,0,1-.23.68Z" transform="translate(-274 -357.89)"/><path class="cls-6" d="M291.93,413.86h-.46l-1.69-2.66-1.72,2.66h-.44l1.92-3-1.75-2.73h.45l1.54,2.45,1.57-2.45h.43L290,410.87Z" transform="translate(-274 -357.89)"/><path class="cls-6" d="M297.59,411a3.19,3.19,0,0,1-.68,2.15,2.61,2.61,0,0,1-3.75,0,3.2,3.2,0,0,1-.68-2.16,3.15,3.15,0,0,1,.69-2.15,2.36,2.36,0,0,1,1.87-.78,2.34,2.34,0,0,1,1.87.79A3.19,3.19,0,0,1,297.59,411Zm-4.67,0a2.92,2.92,0,0,0,.55,1.9,2.19,2.19,0,0,0,3.15,0,2.93,2.93,0,0,0,.54-1.9,2.9,2.9,0,0,0-.54-1.89,2.2,2.2,0,0,0-3.14,0A2.87,2.87,0,0,0,292.92,411Z" transform="translate(-274 -357.89)"/><path class="cls-6" d="M302.1,412.38a1.37,1.37,0,0,1-.53,1.13,2.18,2.18,0,0,1-1.4.42,4.38,4.38,0,0,1-1.61-.23v-.4a4.06,4.06,0,0,0,1.57.26,1.76,1.76,0,0,0,1.12-.32,1,1,0,0,0,.41-.85,1,1,0,0,0-.14-.54,1.25,1.25,0,0,0-.45-.39,5.51,5.51,0,0,0-.91-.38,3.09,3.09,0,0,1-1.21-.65,1.39,1.39,0,0,1,.17-2,2,2,0,0,1,1.29-.4,3.78,3.78,0,0,1,1.51.3l-.14.34a3.52,3.52,0,0,0-1.36-.3,1.59,1.59,0,0,0-1,.29,1,1,0,0,0-.37.8,1,1,0,0,0,.12.52,1.06,1.06,0,0,0,.38.37,5.16,5.16,0,0,0,.9.39,4.83,4.83,0,0,1,1,.45,1.43,1.43,0,0,1,.49.49A1.34,1.34,0,0,1,302.1,412.38Z" transform="translate(-274 -357.89)"/><path class="cls-6" d="M306.48,413.86h-3.12v-5.71h3.12v.37h-2.72v2.16h2.57V411h-2.57v2.45h2.72Z" transform="translate(-274 -357.89)"/><path class="cls-6" d="M307.83,413.86v-5.71h.4v5.34H311v.38Z" transform="translate(-274 -357.89)"/><path class="cls-6" d="M315.23,413.86h-3.12v-5.71h3.12v.37h-2.72v2.16h2.57V411h-2.57v2.45h2.72Z" transform="translate(-274 -357.89)"/><path class="cls-6" d="M319.07,408.42a2.16,2.16,0,0,0-1.69.69,2.72,2.72,0,0,0-.62,1.88,2.82,2.82,0,0,0,.58,1.9,2.08,2.08,0,0,0,1.66.68,4.52,4.52,0,0,0,1.32-.18v.35a4.31,4.31,0,0,1-1.41.2,2.41,2.41,0,0,1-1.89-.78,3.16,3.16,0,0,1-.69-2.17,3.41,3.41,0,0,1,.33-1.54,2.39,2.39,0,0,1,.95-1,2.8,2.8,0,0,1,1.44-.36,3.46,3.46,0,0,1,1.5.31l-.16.36A2.9,2.9,0,0,0,319.07,408.42Z" transform="translate(-274 -357.89)"/><path class="cls-6" d="M323.58,413.86h-.4v-5.34h-1.86v-.37h4.11v.38h-1.86Z" transform="translate(-274 -357.89)"/><path class="cls-6" d="M278.33,416.15H280a3.21,3.21,0,0,1,1.71.34,1.2,1.2,0,0,1,.53,1.09,1.32,1.32,0,0,1-.26.83,1.15,1.15,0,0,1-.74.42v0a1.47,1.47,0,0,1,.88.45,1.35,1.35,0,0,1,.28.9,1.47,1.47,0,0,1-.54,1.21,2.31,2.31,0,0,1-1.49.44h-2.06Zm.93,2.36h.9a1.54,1.54,0,0,0,.86-.19.71.71,0,0,0,.27-.63.63.63,0,0,0-.29-.58,1.81,1.81,0,0,0-.92-.18h-.81Zm0,.76v1.81h1a1.46,1.46,0,0,0,.88-.22.83.83,0,0,0,.3-.71.75.75,0,0,0-.3-.66,1.61,1.61,0,0,0-.93-.21Z" transform="translate(-274 -357.89)"/><path class="cls-6" d="M287.35,421.86l-.57-1.59H284.6l-.56,1.59h-1l2.14-5.73h1l2.14,5.73Zm-.82-2.39-.54-1.55q-.06-.16-.16-.49t-.14-.49a8.77,8.77,0,0,1-.31,1.05l-.52,1.49Z" transform="translate(-274 -357.89)"/><path class="cls-6" d="M289.34,421.86v-5.71h.93v4.91h2.42v.8Z" transform="translate(-274 -357.89)"/><path class="cls-6" d="M297.71,421.86l-.57-1.59H295l-.56,1.59h-1l2.14-5.73h1l2.14,5.73Zm-.82-2.39-.54-1.55q-.06-.16-.16-.49t-.14-.49a8.77,8.77,0,0,1-.31,1.05l-.52,1.49Z" transform="translate(-274 -357.89)"/><path class="cls-6" d="M304.47,421.86h-1.14l-2.81-4.55h0l0,.25q.05.73.05,1.33v3h-.85v-5.71h1.13l2.8,4.53h0c0-.06,0-.28,0-.65s0-.67,0-.88v-3h.86Z" transform="translate(-274 -357.89)"/><path class="cls-6" d="M308.54,416.86a1.54,1.54,0,0,0-1.27.57,3,3,0,0,0,0,3.16,1.56,1.56,0,0,0,1.28.54,3.39,3.39,0,0,0,.7-.07c.23,0,.46-.11.71-.19v.8a4.3,4.3,0,0,1-1.52.25,2.43,2.43,0,0,1-1.93-.76,3.18,3.18,0,0,1-.67-2.17,3.51,3.51,0,0,1,.33-1.56,2.32,2.32,0,0,1,.94-1,2.85,2.85,0,0,1,1.45-.36,3.6,3.6,0,0,1,1.62.37l-.34.78a5.17,5.17,0,0,0-.61-.24A2.2,2.2,0,0,0,308.54,416.86Z" transform="translate(-274 -357.89)"/><path class="cls-6" d="M314.55,421.86h-3.23v-5.71h3.23v.79h-2.3v1.55h2.15v.78h-2.15v1.79h2.3Z" transform="translate(-274 -357.89)"/><path class="cls-6" d="M320.56,418.95a2.85,2.85,0,0,1-.79,2.16,3.15,3.15,0,0,1-2.26.75h-1.6v-5.71h1.77a2.92,2.92,0,0,1,2.12.73A2.75,2.75,0,0,1,320.56,418.95Zm-1,0q0-2.05-1.92-2.05h-.81v4.14h.66A1.84,1.84,0,0,0,319.58,419Z" transform="translate(-274 -357.89)"/><path class="cls-6" d="M282.11,425.87a1.66,1.66,0,0,1-.59,1.37,2.58,2.58,0,0,1-1.67.48h-.59v2.14h-.93v-5.71H280a2.49,2.49,0,0,1,1.6.44A1.57,1.57,0,0,1,282.11,425.87Zm-2.85,1.06h.5a1.78,1.78,0,0,0,1.05-.25.91.91,0,0,0,.34-.78.89.89,0,0,0-.3-.73,1.49,1.49,0,0,0-.94-.24h-.65Z" transform="translate(-274 -357.89)"/><path class="cls-6" d="M288.48,427a3.12,3.12,0,0,1-.7,2.17,2.93,2.93,0,0,1-4,0,3.14,3.14,0,0,1-.69-2.18,3.09,3.09,0,0,1,.7-2.17,2.57,2.57,0,0,1,2-.76,2.52,2.52,0,0,1,2,.77A3.12,3.12,0,0,1,288.48,427Zm-4.36,0a2.56,2.56,0,0,0,.43,1.6,1.73,1.73,0,0,0,2.52,0,3.24,3.24,0,0,0,0-3.2,1.48,1.48,0,0,0-1.25-.54,1.51,1.51,0,0,0-1.27.54A2.54,2.54,0,0,0,284.12,427Z" transform="translate(-274 -357.89)"/><path class="cls-6" d="M290.8,427.58v2.28h-.93v-5.71h1.61a2.65,2.65,0,0,1,1.64.41,1.49,1.49,0,0,1,.53,1.25,1.56,1.56,0,0,1-1.11,1.52l1.61,2.53h-1.06l-1.37-2.28Zm0-.77h.65a1.48,1.48,0,0,0,.95-.24.88.88,0,0,0,.29-.72.77.77,0,0,0-.32-.7,1.74,1.74,0,0,0-1-.21h-.62Z" transform="translate(-274 -357.89)"/><path class="cls-6" d="M297.11,429.86h-.93v-4.91H294.5v-.8h4.29v.8h-1.68Z" transform="translate(-274 -357.89)"/><path class="cls-6" d="M300.75,429.86h-.93v-5.71H303v.79h-2.3v1.79h2.15v.79h-2.15Z" transform="translate(-274 -357.89)"/><path class="cls-6" d="M309.31,427a3.12,3.12,0,0,1-.7,2.17,2.93,2.93,0,0,1-4,0A3.14,3.14,0,0,1,304,427a3.09,3.09,0,0,1,.7-2.17,2.57,2.57,0,0,1,2-.76,2.52,2.52,0,0,1,2,.77A3.12,3.12,0,0,1,309.31,427ZM305,427a2.56,2.56,0,0,0,.43,1.6,1.73,1.73,0,0,0,2.52,0,3.24,3.24,0,0,0,0-3.2,1.48,1.48,0,0,0-1.25-.54,1.51,1.51,0,0,0-1.27.54A2.54,2.54,0,0,0,305,427Z" transform="translate(-274 -357.89)"/><path class="cls-6" d="M310.7,429.86v-5.71h.93v4.91h2.42v.8Z" transform="translate(-274 -357.89)"/><path class="cls-6" d="M315.2,429.86v-5.71h.93v5.71Z" transform="translate(-274 -357.89)"/><path class="cls-6" d="M322.87,427a3.12,3.12,0,0,1-.7,2.17,2.93,2.93,0,0,1-4,0,3.15,3.15,0,0,1-.69-2.18,3.09,3.09,0,0,1,.7-2.17,2.57,2.57,0,0,1,2-.76,2.52,2.52,0,0,1,2,.77A3.12,3.12,0,0,1,322.87,427Zm-4.36,0a2.56,2.56,0,0,0,.43,1.6,1.73,1.73,0,0,0,2.52,0,3.24,3.24,0,0,0,0-3.2,1.48,1.48,0,0,0-1.25-.54,1.52,1.52,0,0,0-1.27.54A2.54,2.54,0,0,0,318.51,427Z" transform="translate(-274 -357.89)"/><path class="cls-6" d="M327.55,428.31a1.44,1.44,0,0,1-.55,1.2,2.4,2.4,0,0,1-1.52.43,3.63,3.63,0,0,1-1.59-.3v-.88a4.34,4.34,0,0,0,.83.29,3.52,3.52,0,0,0,.82.11,1.3,1.3,0,0,0,.82-.21.69.69,0,0,0,.26-.57.71.71,0,0,0-.24-.54,3.65,3.65,0,0,0-1-.53,2.65,2.65,0,0,1-1.1-.72,1.53,1.53,0,0,1-.32-1,1.37,1.37,0,0,1,.51-1.12,2.11,2.11,0,0,1,1.36-.41,4,4,0,0,1,1.63.36l-.3.76a3.56,3.56,0,0,0-1.36-.32,1,1,0,0,0-.69.2.65.65,0,0,0-.23.52.73.73,0,0,0,.09.38,1,1,0,0,0,.31.3,5.22,5.22,0,0,0,.77.37,4.24,4.24,0,0,1,.92.49,1.43,1.43,0,0,1,.43.51A1.54,1.54,0,0,1,327.55,428.31Z" transform="translate(-274 -357.89)"/></svg>