<svg data-name="Layer 1" xmlns="http://www.w3.org/2000/svg" xmlns:xlink="http://www.w3.org/1999/xlink" viewBox="0 0 63.33 76.13"><defs><style>.cls-1{fill:none;}.cls-2{clip-path:url(#clip-path);}.cls-3{fill:#1b50a3;}.cls-4{clip-path:url(#clip-path-2);}.cls-5{fill:#2e5ba9;}.cls-6{fill:#0f4aa0;}.cls-10,.cls-11,.cls-12,.cls-13,.cls-14,.cls-15,.cls-16,.cls-17,.cls-7,.cls-8,.cls-9{font-size:8px;fill:#fff;}.cls-10,.cls-7,.cls-8,.cls-9{font-family:OpenSans-Light, Open Sans;}.cls-7{letter-spacing:0.03em;}.cls-8{letter-spacing:0.01em;}.cls-9{letter-spacing:0.02em;}.cls-10{letter-spacing:0.06em;}.cls-11,.cls-12,.cls-13,.cls-14,.cls-15,.cls-16,.cls-17{font-family:OpenSans-Semibold, Open Sans;font-weight:700;}.cls-11{letter-spacing:0.02em;}.cls-12{letter-spacing:0.03em;}.cls-13{letter-spacing:0.02em;}.cls-15{letter-spacing:0.04em;}.cls-16{letter-spacing:0.07em;}.cls-17{letter-spacing:0.02em;}</style><clipPath id="clip-path" transform="translate(-274 -357.89)"><rect class="cls-1" x="274" y="358" width="63.33" height="75.89"/></clipPath><clipPath id="clip-path-2" transform="translate(-274 -357.89)"><rect class="cls-1" x="274" y="358" width="63.33" height="76.03"/></clipPath></defs><title>Icon_SAXOSELECT_tradingstrategies</title><g class="cls-2"><polyline class="cls-3" points="63.34 0 0 0 0 76 63.33 76 63.33 0"/></g><g class="cls-4"><polygon class="cls-5" points="63.33 76.13 0 76.13 0 30.55 18.87 34.37 63.33 0 63.33 76.13 63.33 76.13"/><polygon class="cls-6" points="0 30.55 0 0.01 18.87 34.37 0 30.55 0 30.55"/></g><text class="cls-7" transform="translate(3.88 56.06)">SA</text><text class="cls-8" transform="translate(13.93 56.06)">XOSE</text><text class="cls-9" transform="translate(33.33 56.06)">LE</text><text class="cls-10" transform="translate(42.12 56.06)">CT</text><text class="cls-11" transform="translate(3.88 64.06)">TR</text><text class="cls-12" transform="translate(14.27 64.06)">AD</text><text class="cls-13" transform="translate(25.82 64.06)">IN</text><text class="cls-14" transform="translate(34.78 64.06)">G</text><text class="cls-15" transform="translate(3.88 72.06)">ST</text><text class="cls-16" transform="translate(13.33 72.06)">RA</text><text class="cls-11" transform="translate(24.07 72.06)">TE</text><text class="cls-17" transform="translate(33.32 72.06)">GIES</text></svg>