<svg xmlns="http://www.w3.org/2000/svg" viewBox="0 0 63 76"><path fill="#042EAB" d="M0 0v20.2l47-5.8 16 14.1V76 0" opacity=".6"/><path fill="#042EAB" d="M47 14.4L0 40.2V76h63V28.5"/><path fill="#042EAB" d="M0 20.2v20l47-25.8" opacity=".8"/><path fill="#FFF" d="M9.8 64.9h4.7v5.9c-1.2.5-2.6.8-4.2.8-2 0-3.6-.6-4.7-1.7S4 67.1 4 65c0-1.3.3-2.5.8-3.5s1.3-1.8 2.3-2.3 2.1-.8 3.4-.8c1.4 0 2.7.3 3.8.8l-.4.8c-1.1-.5-2.3-.8-3.5-.8-1.7 0-3 .5-4 1.6-1 1-1.5 2.5-1.5 4.2 0 1.9.5 3.4 1.4 4.4s2.3 1.5 4.2 1.5c1.2 0 2.2-.2 3-.5v-4.5H9.8v-1zm18.6 0c0 2-.5 3.7-1.5 4.8-1 1.2-2.4 1.8-4.2 1.8s-3.2-.6-4.2-1.8c-1-1.2-1.5-2.8-1.5-4.9 0-2 .5-3.7 1.5-4.8s2.4-1.8 4.2-1.8c1.8 0 3.2.6 4.2 1.8 1 1.3 1.5 2.9 1.5 4.9zm-10.5 0c0 1.8.4 3.3 1.2 4.3.8 1 2 1.5 3.5 1.5s2.7-.5 3.5-1.5 1.2-2.4 1.2-4.3-.4-3.3-1.2-4.3c-.8-1-2-1.5-3.5-1.5s-2.7.5-3.5 1.5-1.2 2.5-1.2 4.3zm7.2-12c0 .9-.3 1.7-.8 2.2s-1.3.7-2.3.7h-1.6v-5.7h1.8c.9 0 1.6.2 2.1.7s.8 1.2.8 2.1zm-1 .1c0-1.4-.6-2.1-1.9-2.1h-.8V55h.7c1.3 0 2-.6 2-2zm5.6 2.8h-3.2v-5.7h3.2v.8h-2.3v1.6h2.2v.8h-2.2V55h2.3v.8zm2.3-2.2v2.3h-.9v-5.7h1.6c.7 0 1.3.1 1.6.4s.5.7.5 1.2c0 .7-.4 1.2-1.1 1.5l1.6 2.5h-1.1l-1.4-2.3-.8.1zm0-.8h.6c.4 0 .8-.1.9-.2s.3-.4.3-.7-.1-.6-.3-.7-.5-.2-1-.2H32v1.8zm-13.5 3l-.6-1.6h-2.2l-.6 1.6h-1l2.1-5.7h1l2.1 5.7h-.8zm-.8-2.4l-.5-1.6c0-.1-.1-.3-.2-.5s-.1-.4-.1-.5c-.1.3-.2.7-.3 1.1l-.6 1.5h1.7zM6.5 55.8h-.9v-4.9H3.9v-.8h4.3v.8H6.5v4.9zm3.7-2.2v2.3h-.9v-5.7h1.6c.7 0 1.3.1 1.6.4s.5.7.5 1.2c0 .7-.4 1.2-1.1 1.5l1.6 2.5h-1.1L11 53.5l-.8.1zm0-.8h.6c.4 0 .8-.1.9-.2s.3-.4.3-.7-.1-.6-.3-.7-.5-.2-1-.2h-.6v1.8h.1zm9.1-5h-1.1l-1.4-2.3-1.4 2.3h-1l1.9-3-1.8-2.8h1l1.3 2.2 1.3-2.2h1l-1.8 2.8 2 3zm5.8-2.8c0 .9-.2 1.7-.7 2.2s-1.1.8-2 .8-1.5-.3-2-.8-.7-1.2-.7-2.2.2-1.7.7-2.2 1.1-.8 2-.8c.8 0 1.5.3 2 .8s.7 1.2.7 2.2zm-4.3 0c0 .7.1 1.2.4 1.6s.7.5 1.3.5c.6 0 1-.2 1.3-.5s.4-.9.4-1.6c0-.7-.1-1.2-.4-1.6s-.7-.5-1.3-.5c-.6 0-1 .2-1.3.5s-.4.9-.4 1.6zm-13 1.3c0 .5-.2.9-.6 1.2s-.9.4-1.5.4-1.2-.1-1.6-.3v-.9c.4.1.6.2.9.3s.6.1.8.1c.4 0 .6-.1.8-.2s.3-.3.3-.6c0-.2-.1-.4-.2-.5s-.5-.3-1-.5-.9-.5-1.1-.7-.3-.6-.3-1c0-.5.2-.9.5-1.1s.8-.5 1.3-.5 1.1.1 1.6.4l-.3.8c-.5-.2-1-.3-1.4-.3-.3 0-.5.1-.7.2s-.2.3-.2.5c0 .1 0 .3.1.4l.3.3.8.4s.7.3.9.5.3.3.4.5.2.3.2.6zm4.9 1.5l-.6-1.6H10l-.6 1.6h-1l2.1-5.7h1l2.1 5.7h-.9zm-.8-2.4l-.5-1.6c0-.1-.1-.3-.2-.5s-.1-.4-.1-.5c-.1.3-.2.7-.3 1.1l-.5 1.5h1.6z"/></svg>