<svg width="64" height="64" viewBox="0 0 64 64" fill="none" xmlns="http://www.w3.org/2000/svg">
<path d="M38.2857 53C38.2857 53 47.7143 53 47.7143 41.75H51.1714C51.9216 41.75 52.6411 41.4452 53.1715 40.9027C53.702 40.3602 54 39.6244 54 38.8571V30.1786C54 29.4113 53.702 28.6755 53.1715 28.133C52.6411 27.5905 51.9216 27.2857 51.1714 27.2857H47.7143V24.0714C47.7143 15.196 41.4639 8 32.7857 8H31.2143C22.5345 8 16.2857 15.196 16.2857 24.0714V27.2857H12.8286C12.0784 27.2857 11.3589 27.5905 10.8285 28.133C10.298 28.6755 10 29.4113 10 30.1786V38.8571C10 39.6244 10.298 40.3602 10.8285 40.9027C11.3589 41.4452 12.0784 41.75 12.8286 41.75H14.7143" stroke="#202020" stroke-width="2" stroke-miterlimit="10" stroke-linecap="round" stroke-linejoin="round"/>
<path d="M38 53C38 52.2044 37.6839 51.4413 37.1213 50.8787C36.5587 50.3161 35.7956 50 35 50H32C31.2044 50 30.4413 50.3161 29.8787 50.8787C29.3161 51.4413 29 52.2044 29 53C29 53.7956 29.3161 54.5587 29.8787 55.1213C30.4413 55.6839 31.2044 56 32 56H35C35.7956 56 36.5587 55.6839 37.1213 55.1213C37.6839 54.5587 38 53.7956 38 53Z" stroke="#202020" stroke-width="2" stroke-miterlimit="10" stroke-linecap="round" stroke-linejoin="round"/>
<path d="M38.6 26L33.8 37.2H45M41.8 32.4V42M21 27.24C21.9016 26.4367 23.0729 26.0027 24.2803 26.0246C25.4877 26.0465 26.6424 26.5227 27.5143 27.3582C28.3862 28.1937 28.9111 29.3272 28.9843 30.5326C29.0576 31.7379 28.6739 32.9266 27.9096 33.8616L21 42H30.6" stroke="#202020" stroke-width="2" stroke-miterlimit="10" stroke-linecap="round" stroke-linejoin="round"/>
</svg>
