<svg width="54" height="54" viewBox="0 0 54 54" fill="none" xmlns="http://www.w3.org/2000/svg">
<path d="M35.6507 3.98055C36.1481 3.74045 36.3567 3.14261 36.1166 2.64525C35.8764 2.14789 35.2786 1.93934 34.7812 2.17945L35.6507 3.98055ZM34.904 22.008L34.9073 21.008C34.8939 21.008 34.8804 21.0082 34.867 21.0087L34.904 22.008ZM42.6 18.784L41.8928 18.0768L41.8849 18.085L42.6 18.784ZM44.0351 18.7631C44.4256 18.3726 44.4256 17.7394 44.0351 17.3489C43.6446 16.9584 43.0114 16.9584 42.6209 17.3489L44.0351 18.7631ZM34.7812 2.17945C33.3072 2.89105 31.9376 3.44561 30.6924 3.94177C29.4633 4.43148 28.3161 4.87891 27.3588 5.35757C26.4015 5.8362 25.5334 6.39307 24.9078 7.15442C24.2562 7.94753 23.92 8.89778 23.92 10.048H25.92C25.92 9.32622 26.1168 8.83347 26.4532 8.42408C26.8156 7.98293 27.3905 7.5778 28.2532 7.14643C29.1159 6.71509 30.1657 6.30452 31.4326 5.79973C32.6834 5.30139 34.1088 4.72495 35.6507 3.98055L34.7812 2.17945ZM23.92 10.048C23.92 11.279 24.3907 12.1482 25.1634 12.7301C25.8427 13.2419 26.7116 13.4845 27.3383 13.6713C28.0554 13.8851 28.5371 14.0449 28.8685 14.3031C29.1131 14.4935 29.328 14.7772 29.328 15.456H31.328C31.328 14.2108 30.8669 13.3245 30.0975 12.7252C29.4149 12.1936 28.5445 11.9439 27.9097 11.7547C27.1844 11.5385 26.7013 11.3846 26.3666 11.1326C26.1253 10.9508 25.92 10.689 25.92 10.048H23.92ZM29.328 15.456C29.328 17.0099 28.487 18.3439 27.3306 19.0866C26.1785 19.8265 24.816 19.9267 23.7 19.1955L22.604 20.8685C24.504 22.1133 26.7295 21.8495 28.4114 20.7694C30.0889 19.6921 31.328 17.7501 31.328 15.456H29.328ZM23.7 19.1955C22.1109 18.1544 20.1034 17.2505 17.9294 17.3562C15.6968 17.4647 13.4885 18.6261 11.528 21.3148L13.144 22.4932C14.8235 20.1899 16.5152 19.4273 18.0266 19.3538C19.5966 19.2775 21.1771 19.9336 22.604 20.8685L23.7 19.1955ZM11.528 21.3148C9.53107 24.0535 9.16758 27.0549 9.69669 29.3918C9.95981 30.554 10.4523 31.5885 11.1153 32.3465C11.7724 33.0978 12.6779 33.6572 13.728 33.6152L13.648 31.6168C13.3981 31.6268 13.0296 31.4972 12.6207 31.0298C12.2177 30.569 11.8522 29.855 11.6473 28.9502C11.2404 27.1531 11.5009 24.7465 13.144 22.4932L11.528 21.3148ZM13.728 33.6152C14.5149 33.5837 15.2554 33.3811 15.8813 33.1853C16.5563 32.9741 17.0365 32.7953 17.505 32.6982C17.9527 32.6054 18.1721 32.6416 18.301 32.7061C18.4153 32.7632 18.6484 32.9386 18.8851 33.5843L20.7629 32.8957C20.4276 31.9814 19.9327 31.2858 19.1955 30.9172C18.4729 30.5559 17.7173 30.6116 17.099 30.7398C16.5015 30.8637 15.8247 31.1074 15.2842 31.2765C14.6946 31.4609 14.1611 31.5963 13.648 31.6168L13.728 33.6152ZM18.8851 33.5843C19.4464 35.115 19.8278 36.0332 20.2613 36.6335C20.7569 37.3197 21.3187 37.5769 21.8411 37.8619L22.7989 36.1061C22.1773 35.7671 22.0631 35.7123 21.8827 35.4625C21.6402 35.1268 21.3456 34.485 20.7629 32.8957L18.8851 33.5843ZM21.8411 37.8619C22.1097 38.0084 22.2664 38.221 22.3375 38.6077C22.4177 39.0446 22.3745 39.6664 22.1786 40.499L24.1254 40.957C24.3455 40.0216 24.4583 39.0834 24.3045 38.2463C24.1416 37.359 23.6743 36.5836 22.7989 36.1061L21.8411 37.8619ZM22.1786 40.499C22.0179 41.1817 22.1338 42.045 22.3249 42.8313C22.5261 43.6593 22.8524 44.5646 23.2484 45.4052C23.6417 46.2402 24.1249 47.0561 24.6585 47.6808C25.1418 48.2467 25.8757 48.904 26.792 48.904V46.904C26.8243 46.904 26.6092 46.8853 26.1793 46.3819C25.7996 45.9374 25.4053 45.2908 25.0576 44.5528C24.7126 43.8204 24.4344 43.0422 24.2683 42.359C24.0922 41.634 24.0781 41.1583 24.1254 40.957L22.1786 40.499ZM26.792 48.904C27.795 48.904 28.9195 48.7 29.8327 47.9479C30.7671 47.1784 31.3123 45.9759 31.4295 44.3352L29.4345 44.1927C29.3437 45.4641 28.9529 46.0816 28.5613 46.4041C28.1485 46.744 27.557 46.904 26.792 46.904V48.904ZM31.4295 44.3352C31.511 43.1939 31.9425 42.7078 32.4115 42.3778C32.6857 42.1849 32.9889 42.0363 33.3555 41.8581C33.6862 41.6973 34.1253 41.4876 34.4887 41.1969L33.2393 39.6351C33.0827 39.7604 32.8588 39.8757 32.481 40.0594C32.1391 40.2257 31.6883 40.4411 31.2605 40.7422C30.3255 41.4002 29.561 42.4221 29.4345 44.1927L31.4295 44.3352ZM34.4887 41.1969C35.1161 40.6949 35.2069 39.9455 35.218 39.4555C35.2291 38.9638 35.1545 38.33 35.1215 37.8626C35.0456 36.7865 35.1137 35.9345 35.734 35.2797L34.282 33.9043C33.0303 35.2255 33.0464 36.8695 33.1265 38.0034C33.1715 38.641 33.2269 39.0407 33.2185 39.4102C33.2101 39.7815 33.1319 39.7211 33.2393 39.6351L34.4887 41.1969ZM35.734 35.2797C36.6006 34.3649 38.1978 32.8471 39.0953 31.4728C39.5297 30.8075 39.9642 29.9429 39.8623 29.0654C39.8063 28.583 39.5924 28.1391 39.2159 27.7828C38.857 27.4433 38.3925 27.2218 37.8787 27.0773L37.3373 29.0026C37.6555 29.0922 37.7922 29.1892 37.8413 29.2356C37.8726 29.2653 37.8732 29.2748 37.8757 29.2961C37.8908 29.4261 37.8183 29.7705 37.4207 30.3792C36.6542 31.5529 35.2873 32.8431 34.282 33.9043L35.734 35.2797ZM37.8787 27.0773C36.2173 26.6101 35.6847 26.2766 35.4626 26.041C35.3685 25.9412 35.3006 25.8271 35.2229 25.6226C35.1811 25.5127 35.1413 25.3902 35.0897 25.2288C35.0402 25.0739 34.9814 24.8884 34.9097 24.6877L33.0263 25.3603C33.0846 25.5236 33.133 25.6761 33.1847 25.8377C33.2342 25.9927 33.2895 26.1652 33.3534 26.3332C33.4869 26.6844 33.6725 27.0578 34.0074 27.413C34.6433 28.0874 35.6707 28.5339 37.3373 29.0026L37.8787 27.0773ZM34.9097 24.6877C34.7609 24.271 34.5448 23.8348 34.4102 23.539C34.2483 23.1831 34.192 23.0055 34.1837 22.9164C34.1814 22.8921 34.19 22.9369 34.1586 23.0116C34.1233 23.0957 34.0702 23.1401 34.0559 23.1496C34.0534 23.1513 34.1041 23.1179 34.2585 23.0827C34.4103 23.0481 34.6306 23.0188 34.941 23.0073L34.867 21.0087C34.1224 21.0363 33.4445 21.1525 32.9441 21.4871C32.6698 21.6705 32.4477 21.9205 32.3149 22.2366C32.186 22.5432 32.1686 22.8464 32.1923 23.1016C32.236 23.5715 32.4397 24.0374 32.5898 24.3673C32.7672 24.7572 32.9151 25.049 33.0263 25.3603L34.9097 24.6877ZM34.9007 23.008C36.4677 23.0132 38.0199 22.704 39.4652 22.0985L38.6924 20.2538C37.4939 20.7559 36.2068 21.0124 34.9073 21.008L34.9007 23.008ZM39.4652 22.0985C40.9105 21.493 42.2197 20.6036 43.3151 19.483L41.8849 18.085C40.9766 19.0142 39.891 19.7517 38.6924 20.2538L39.4652 22.0985ZM43.3071 19.4911L44.0351 18.7631L42.6209 17.3489L41.8929 18.0769L43.3071 19.4911ZM52 27C52 40.8071 40.8071 52 27 52V54C41.9117 54 54 41.9117 54 27H52ZM27 52C13.1929 52 2 40.8071 2 27H0C0 41.9117 12.0883 54 27 54V52ZM2 27C2 13.1929 13.1929 2 27 2V0C12.0883 0 0 12.0883 0 27H2ZM27 2C40.8071 2 52 13.1929 52 27H54C54 12.0883 41.9117 0 27 0V2Z" fill="#313131"/>
</svg>
