<svg width="64" height="64" viewBox="0 0 64 64" fill="none" xmlns="http://www.w3.org/2000/svg">
<path d="M15.5534 38.5302C18.8425 37.7972 18.8425 36.657 18.8425 35.8426V34.6209C18.0737 33.8989 17.4647 33.0266 17.0542 32.0592C16.6437 31.0918 16.4407 30.0505 16.4579 29.0013V25.3363C16.6258 23.952 17.3001 22.6767 18.3531 21.7515C19.4062 20.8263 20.765 20.3154 22.1726 20.3154C23.5803 20.3154 24.9391 20.8263 25.9921 21.7515C27.0452 22.6767 27.7195 23.952 27.8874 25.3363V29.0013C27.8941 30.0565 27.6782 31.1015 27.2534 32.0692C26.8286 33.037 26.2043 33.9061 25.4206 34.6209V35.8426C25.4206 36.5756 25.4206 37.7972 28.7919 38.5302C32.1632 39.2632 31.9987 42.6839 31.9987 42.6839H12.2643C12.2415 41.7212 12.5571 40.7806 13.157 40.023C13.757 39.2653 14.6041 38.7376 15.5534 38.5302Z" stroke="#00032C" stroke-width="2" stroke-miterlimit="10" stroke-linecap="round" stroke-linejoin="round"/>
<path d="M50.4211 21.6313H37.2632M45.4869 28.6489H37.2632M48.7763 34.7892H37.2632" stroke="#00032C" stroke-width="2" stroke-miterlimit="10" stroke-linecap="round" stroke-linejoin="round"/>
<rect x="7" y="12.4209" width="50" height="38.1579" rx="1" stroke="#00032C" stroke-width="2"/>
</svg>
