<svg width="64" height="64" viewBox="0 0 64 64" fill="none" xmlns="http://www.w3.org/2000/svg">
<path d="M50.125 53.025C48.3125 53.025 36.6219 58.2812 30.1875 58.2812C26.3813 58.2812 23.0281 56.2875 15.6875 52.8438C12.2438 51.2125 4.8125 46.8625 4.8125 43.7812C4.8125 40.7 14.6906 44.7781 23.0281 47.4062M50.125 36.5312H59.1875V56.4688H50.125V36.5312Z" stroke="#00032C" stroke-width="2" stroke-miterlimit="10" stroke-linecap="round" stroke-linejoin="round"/>
<path d="M33.9031 20.2188C37.9071 20.2188 41.1531 16.9728 41.1531 12.9688C41.1531 8.96469 37.9071 5.71875 33.9031 5.71875C29.899 5.71875 26.6531 8.96469 26.6531 12.9688C26.6531 16.9728 29.899 20.2188 33.9031 20.2188Z" stroke="#00032C" stroke-width="2" stroke-miterlimit="10" stroke-linecap="round" stroke-linejoin="round"/>
<path d="M21.125 36.5312C25.1291 36.5312 28.375 33.2853 28.375 29.2812C28.375 25.2772 25.1291 22.0312 21.125 22.0312C17.1209 22.0312 13.875 25.2772 13.875 29.2812C13.875 33.2853 17.1209 36.5312 21.125 36.5312Z" stroke="#00032C" stroke-width="2" stroke-miterlimit="10" stroke-linecap="round" stroke-linejoin="round"/>
<path d="M35.7156 51.0312H26.6531C25.6917 51.0312 24.7696 50.6493 24.0898 49.9695C23.41 49.2897 23.0281 48.3677 23.0281 47.4062C23.0281 46.4448 23.41 45.5228 24.0898 44.843C24.7696 44.1632 25.6917 43.7812 26.6531 43.7812H30.2781C41.1531 43.7812 37.5281 38.3438 50.2156 38.3438" stroke="#00032C" stroke-width="2" stroke-miterlimit="10" stroke-linecap="round" stroke-linejoin="round"/>
</svg>
