<svg xmlns="http://www.w3.org/2000/svg" viewBox="0 0 70 47">
    <style>.st0{fill-rule:evenodd;clip-rule:evenodd;fill:#3058D0;} .st1{display:none;} .st2{display:inline;fill:#FFFFFF;} .st3{fill-rule:evenodd;clip-rule:evenodd;fill:#FFFFFF;} .st4{fill-rule:evenodd;clip-rule:evenodd;fill:#FE3F55;} .st5{fill:#FFFFFF;}</style>
    <g>
        <path d="M0 0h70v47H0V0z" class="st0" />
        <g class="st1">
            <path d="M50.2 28.9c-.2.2-.4.1-.3-.2l.2-1c.1-.3-.1-.7-.3-.8l-.7-.6c-.2-.2-.2-.3.1-.3h1c.3 0 .6-.2.7-.5l.3-1.1c.1-.3.2-.3.3 0l.4 1.1c.1.3.4.5.7.5h1.1c.3 0 .3.2.1.3l-.8.7c-.2.2-.3.6-.2.8l.3.9c.1.3-.1.4-.3.2l-.9-.5c-.2-.1-.6-.1-.9 0l-.8.5zM11.1 39.9c-.4.3-.7.1-.5-.4l.4-1.8c.1-.5-.1-1.2-.5-1.5L9.2 35c-.4-.3-.3-.6.2-.6l1.9-.1c.5 0 1-.4 1.2-.9l.6-2c.1-.5.4-.5.6 0l.7 2c.2.5.7.9 1.2.9h1.9c.5 0 .6.3.2.6l-1.5 1.3c-.4.3-.6 1-.4 1.5l.5 1.6c.1.5-.1.7-.5.4l-1.6-1c-.4-.3-1.1-.2-1.5 0l-1.6 1.2zM35.7 23.9c-.3.2-.5.1-.4-.3l.3-1.4c.1-.4-.1-.9-.4-1.2l-1-.9c-.3-.3-.2-.5.2-.5h1.5c.4 0 .8-.3.9-.7l.5-1.6c.1-.4.3-.4.4 0l.6 1.5c.1.4.6.7 1 .7h1.5c.4 0 .5.2.2.5l-1.1 1c-.3.3-.4.8-.3 1.2l.4 1.3c.1.4-.1.5-.4.3l-1.5-.8c-.3-.2-.9-.2-1.2 0l-1.2.9zM53.7 16.9c-.3.2-.5.1-.4-.3l.3-1.4c.1-.4-.1-.9-.4-1.2l-1-.9c-.3-.3-.2-.5.2-.5h1.5c.4 0 .8-.3.9-.7l.5-1.6c.1-.4.3-.4.4 0l.6 1.5c.1.4.6.7 1 .7h1.5c.4 0 .5.2.2.5l-1.1 1c-.3.3-.4.8-.3 1.2l.4 1.3c.1.4-.1.5-.4.3l-1.5-.8c-.3-.2-.9-.2-1.2 0l-1.2.9zM41.7 12.9c-.3.2-.5.1-.4-.3l.3-1.4c.1-.4-.1-.9-.4-1.2l-1-.9c-.3-.3-.2-.5.2-.5h1.5c.4 0 .8-.3.9-.7l.5-1.6c.1-.4.3-.4.4 0l.6 1.5c.1.4.6.7 1 .7h1.5c.4 0 .5.2.2.5l-1.1 1c-.3.3-.4.8-.3 1.2l.4 1.3c.1.4-.1.5-.4.3l-1.5-.8c-.3-.2-.9-.2-1.2 0l-1.2.9z" class="st2" />
        </g>
        <path d="M0 0v24.1h35.9V0H0z" class="st0" />
        <path d="M35.9 0h-1.4L18 10.6 1.4 0H0v2.1l15.6 10.1L0 22.2v1.9h1.9L18 13.7l16.1 10.4h1.8v-1.9l-15.6-10 15.6-10z" class="st3" />
        <path d="M35.9 1.7V0h-.6L18.4 10.9l-.4.3-.4-.3L.6 0H0v1.6l16 10.3.4.3-.4.2L0 22.7v1.4h1.1l16.5-10.7.4-.2.4.2 16.5 10.7h1v-1.4l-16-10.3-.3-.2.3-.3z" class="st4" />
        <path d="M35.9 9.2H21V0h-6.1v9.2H0v6.2h14.9v8.7H21v-8.7h14.9z" class="st3" />
        <path d="M35.9 10.2H20V0h-4.1v10.2H0v4.1h15.9v9.8H20v-9.8h15.9z" class="st4" />
        <path d="M53 9.4l.6 1.5 1.6-.5-.9 1.4 1.4.9-1.6.3.1 1.6-1.2-1.1-1.2 1.1.1-1.6-1.6-.3 1.3-.9-.8-1.4 1.6.5zM53 31.4l.6 1.5 1.6-.5-.9 1.4 1.4 1-1.6.2.1 1.6-1.2-1.1-1.2 1.1.1-1.6-1.6-.2 1.3-1-.8-1.4 1.6.5zM61.1 16l.6 1.5 1.5-.5-.8 1.4 1.4.9-1.7.3.2 1.6-1.2-1.1-1.2 1.1.1-1.6-1.6-.3 1.3-.9-.8-1.4 1.6.5zM44.9 18.9l.6 1.5 1.6-.5-.8 1.5 1.3.9-1.6.2.1 1.7-1.2-1.1-1.2 1.1.1-1.7-1.6-.2 1.4-.9-.8-1.5 1.5.5zM18.3 31.1l1 2.6 2.6-.8-1.4 2.3 2.3 1.6-2.7.4.2 2.7-2-1.8-2 1.8.2-2.7-2.7-.4 2.3-1.6-1.4-2.3 2.6.8zM58.3 23.4l.3.6.7.1-.5.5.2.7-.7-.3-.6.3.1-.7-.5-.5.7-.1z" class="st5" />
    </g>
</svg>