<svg xmlns="http://www.w3.org/2000/svg" viewBox="0 0 70 47">
    <defs>
        <style>.cls-1{fill:#fff;}.cls-2{mask:url(#canada-flag-mask);}.cls-3,.cls-4{fill:#fe3f55;}.cls-4{fill-rule:evenodd;}</style>
        <mask id="canada-flag-mask" width="70" height="47.35" x="0" y="0" maskUnits="userSpaceOnUse">
            <path d="M0 0h70v47.35H0z" class="cls-1" />
        </mask>
    </defs>
    <g class="cls-2">
        <g>
            <path d="M17.5 0h35v47h-35z" class="cls-1" />
            <path d="M0 0h17.5v47H0zM52.5 0H70v47H52.5z" class="cls-3" />
            <path d="M35.53 35.23c-.14-2.49-.2-3.76-.25-5.18 0-.61.51-.55.9-.49l4.82.74c-1.71-3.22 2.58-4.78 4.78-6.65-1.71-.58-1.48-.37-.38-4.47-3.56 1.13-3.27.8-4-1l-2.51 2.83a.43.43 0 0 1-.74-.43c1.16-5.75 1.22-6 1.22-6-2.26 1.37-2.18 1.44-2.54.74C35.59 13 35 11.77 35 11.77s-.59 1.23-1.83 3.61c-.36.71-.27.63-2.54-.74 0 0 .06.23 1.22 6a.43.43 0 0 1-.74.43l-2.5-2.83c-.76 1.77-.46 2.1-4 1 1.1 4.1 1.33 3.89-.38 4.47 2.2 1.87 6.49 3.43 4.78 6.65l4.84-.75c.39-.06.93-.12.9.49-.05 1.43-.11 2.69-.25 5.18h1.06z" class="cls-4" />
        </g>
    </g>
</svg>