<svg xmlns="http://www.w3.org/2000/svg" viewBox="0 0 70 47">
    <style>.st0{fill-rule:evenodd;clip-rule:evenodd;fill:#FE3F55;} .st1{display:none;fill:#FFCB29;} .st2{fill:#FFCB29;}</style>
    <g>
        <path d="M0 0h70v47H0V0z" class="st0" />
        <path d="M34.4 16.4c-.3.2-.4.1-.4-.3l.3-1.3c.1-.3-.1-.8-.3-1l-.9-.8c-.3-.2-.2-.4.1-.4h1.3c.3 0 .7-.3.8-.6l.4-1.4c.1-.3.3-.3.4 0l.5 1.4c.1.3.5.6.8.6h1.3c.3 0 .4.2.2.4l-1 .9c-.3.2-.4.7-.3 1l.3 1.1c.1.3-.1.5-.4.3l-1.1-.7c-.3-.2-.8-.2-1 0l-1 .8zM34.4 23.5c-.3.2-.4.1-.4-.3l.3-1.3c.1-.3-.1-.8-.3-1l-.9-.8c-.3-.2-.2-.4.1-.4h1.3c.3 0 .7-.3.8-.6l.4-1.4c.1-.3.3-.3.4 0l.5 1.4c.1.3.5.6.8.6h1.3c.3 0 .4.2.2.4l-1 .9c-.3.2-.4.7-.3 1l.3 1.1c.1.3-.1.5-.4.3l-1.1-.7c-.3-.2-.8-.2-1 0l-1 .8zM27.4 28.9c-.3.2-.4.1-.4-.3l.3-1.3c.1-.3-.1-.8-.3-1l-.9-.8c-.3-.2-.2-.4.1-.4h1.3c.3 0 .7-.3.8-.6l.4-1.4c.1-.3.3-.3.4 0l.5 1.4c.1.3.5.6.8.6h1.3c.3 0 .4.2.2.4l-1 .9c-.3.2-.4.7-.3 1l.3 1.1c.1.3-.1.5-.4.3l-1.1-.7c-.3-.2-.8-.2-1 0l-1 .8zM27.4 10.1c-.3.2-.4.1-.4-.3l.3-1.3c.1-.3-.1-.8-.3-1l-.9-.8c-.3-.2-.2-.4.1-.4h1.3c.3 0 .7-.3.8-.6l.4-1.4c.1-.3.3-.3.4 0l.5 1.4c.1.3.5.6.8.6h1.3c.3 0 .4.2.2.4l-1 .9c-.3.2-.4.7-.3 1l.3 1.1c.1.3-.1.5-.4.3l-1.1-.7c-.3-.2-.8-.2-1 0l-1 .8zM10.3 25.7c-.8.6-1.3.3-1.1-.7l.9-3.7c.2-1-.2-2.3-1-3L6.5 16c-.8-.7-.6-1.2.4-1.3l3.8-.1c1 0 2.1-.9 2.4-1.8l1.2-4c.3-1 .8-1 1.1 0l1.4 4c.3 1 1.4 1.7 2.5 1.8h3.8c1 0 1.2.6.4 1.2l-2.9 2.6c-.8.7-1.2 2-.9 3l.9 3.2c.3 1-.2 1.3-1.1.8l-3.1-1.9c-.9-.5-2.2-.5-3.1.1l-3 2.1z" class="st1" />
        <path d="M15 8.9l2.7 5.4 6 .9-4.4 4.2 1.1 6-5.4-2.8-5.4 2.8 1.1-6-4.4-4.2 6-.9zM29 4.3l.9 1.9 2.1.3-1.5 1.4.3 2.1L29 9l-1.9 1 .3-2.1-1.5-1.4 2.1-.3zM36 10.3l.9 1.9 2.1.3-1.5 1.4.3 2.1-1.8-1-1.9 1 .3-2.1-1.5-1.4 2.1-.3zM36 17.3l.9 1.9 2.1.3-1.5 1.4.3 2.1-1.8-1-1.9 1 .3-2.1-1.5-1.4 2.1-.3zM29 23.3l.9 1.9 2.1.3-1.5 1.4.3 2.1-1.8-1-1.9 1 .3-2.1-1.5-1.4 2.1-.3z" class="st2" />
    </g>
</svg>