<svg xmlns="http://www.w3.org/2000/svg" viewBox="0 0 70 47">
    <style>.st0{fill-rule:evenodd;clip-rule:evenodd;fill:#FE3F55;} .st1{display:none;fill-rule:evenodd;clip-rule:evenodd;fill:#FFFFFF;} .st2{fill:#FAFFFF;} .st3{fill-rule:evenodd;clip-rule:evenodd;fill:#FAFFFF;} .st4{fill-rule:evenodd;clip-rule:evenodd;fill:#FFFFFF;} .st5{fill-rule:evenodd;clip-rule:evenodd;fill:#3058D0;} .st6{display:none;fill:#FFFFFF;} .st7{fill:#FFFFFF;} .st8{opacity:0.2;} .st9{fill-rule:evenodd;clip-rule:evenodd;fill:#FFDC3D;} .st10{fill-rule:evenodd;clip-rule:evenodd;fill:#FFCB29;} .st11{fill-rule:evenodd;clip-rule:evenodd;fill:#323D4E;} .st12{fill-rule:evenodd;clip-rule:evenodd;fill:#FFE74C;} .st13{fill-rule:evenodd;clip-rule:evenodd;fill:#40BB56;} .st14{display:none;fill:#FE3F55;} .st15{fill:#FE3F55;} .st16{fill:#3058D0;} .st17{fill:#1679DB;} .st18{fill:#FFC400;} .st19{display:none;} .st20{display:inline;fill:#FFFFFF;} .st21{display:none;fill:#FFCB29;} .st22{fill:#FFCB29;} .st23{fill-rule:evenodd;clip-rule:evenodd;fill:#44D155;} .st24{filter:url(#Adobe_OpacityMaskFilter);} .st25{mask:url(#cypress_1_);} .st26{fill:#40BB56;} .st27{fill:#4286F5;} .st28{clip-path:url(#SVGID_2_);} .st29{fill:url(#SVGID_3_);} .st30{fill:url(#SVGID_4_);} .st31{fill:url(#SVGID_5_);} .st32{fill-rule:evenodd;clip-rule:evenodd;fill:#FF6F28;} .st33{fill:#FFDC3D;} .st34{fill:url(#SVGID_6_);}</style>
    <g>
        <path d="M0 0h70v47H0z" class="st5" />
        <path d="M20 14.8l.6 2h2.1L21 18l.6 1.9-1.6-1.2-1.6 1.2.6-1.9-1.7-1.2h2.1zM26.5 8.8l.6 1.9h2l-1.6 1.2.6 1.9-1.6-1.2-1.7 1.2.7-1.9-1.7-1.2h2.1zM35 6.4l.6 2h2.1L36 9.6l.6 1.9-1.6-1.2-1.6 1.2.6-1.9-1.7-1.2h2.1zM43.5 8.8l.6 1.9h2.1l-1.7 1.2.7 1.9-1.7-1.2-1.6 1.2.6-1.9-1.6-1.2h2zM50 14.8l.6 2h2.1L51 18l.6 1.9-1.6-1.2-1.6 1.2.6-1.9-1.7-1.2h2.1zM20 26.2l.6 2h2.1L21 29.4l.6 1.9-1.6-1.2-1.6 1.2.6-1.9-1.7-1.2h2.1zM50 26.2l.6 2h2.1L51 29.4l.6 1.9-1.6-1.2-1.6 1.2.6-1.9-1.7-1.2h2.1zM26.5 33.2l.6 1.9h2l-1.6 1.2.6 1.9-1.6-1.1-1.7 1.1.7-1.9-1.7-1.2h2.1zM35 35.5l.6 1.9h2.1L36 38.6l.6 2-1.6-1.2-1.6 1.2.6-2-1.7-1.2h2.1zM43.5 33.2l.6 1.9h2.1l-1.7 1.2.7 1.9-1.7-1.1-1.6 1.1.6-1.9-1.6-1.2h2z" class="st33" />
    </g>
</svg>