<svg xmlns="http://www.w3.org/2000/svg" viewBox="0 0 70 47">
    <style>.st0{fill:#3058D0;} .st1{fill:#FFFFFF;}</style>
    <g>
        <path class="st0" d="M0 0h70v47H0V0z" />
        <path class="st1" d="M35 8.5c-8.3 0-15 6.7-15 15s6.7 15 15 15 15-6.7 15-15-6.7-15-15-15zM49 24c0 .7-.1 1.3-.2 1.9.1-.6.2-1.3.2-1.9zm-2.8 7.6c-1.3-1-2.9-1.7-4.7-2.3v-.2c.3-1.6.5-3.3.5-5h6.8c-.1 2.7-1 5.3-2.6 7.5zm2.6-8.7H42c0-1.8-.2-3.6-.5-5.2 1.8-.6 3.4-1.3 4.7-2.3 1.6 2.2 2.5 4.8 2.6 7.5zm-9.3 9.3c-1 2.7-2.5 4.7-3.9 5.1v-7.7c1.5 0 3.1.2 4.6.6-.2.7-.4 1.4-.7 2zM41 24c0 1.5-.1 2.8-.3 4.1.2-1.4.3-2.7.3-4.1zm-.6 5c-1.5-.4-3.1-.6-4.8-.6V24h5.3c0 1.8-.2 3.4-.5 5zm-.2-12.2c-1.5.4-3 .6-4.6.6V9.7c1.6.4 3.2 2.7 4.2 5.9.2.4.3.8.4 1.2zm-4.6 1.7c1.7 0 3.3-.2 4.8-.6.2 1 .3 2 .4 3.1.1.6.1 1.3.1 1.9h-5.3v-4.4zm9.9-4c-1.2.9-2.6 1.5-4.3 2-.7-2.9-1.8-5.2-3.2-6.6 2.9.7 5.5 2.3 7.5 4.6zM38 37c1.4-1.4 2.5-3.7 3.2-6.6 1.7.6 3.1 1.2 4.3 2.1-2 2.2-4.6 3.8-7.5 4.5zm10.8-10.9c0 .1 0 .2-.1.3 0-.1.1-.2.1-.3zm-14.4-7.5v4.3h-5.3c0-1.7.2-3.4.5-4.9 1.5.4 3.1.6 4.8.6zM29 23c0-1.9.2-3.6.5-5.1-.3 1.6-.5 3.3-.5 5.1zm5.4 5.5c-1.7 0-3.3.2-4.8.6-.3-1.6-.5-3.2-.5-4.9h5.3v4.3zm-4.5 1.6c1.4-.3 3-.5 4.6-.6v7.7c-1.9-.5-3.6-3.2-4.6-7.1zm-5.4 2.4c1.1-.8 2.3-1.3 3.7-1.9.2-.1.4-.1.6-.2.7 2.8 1.8 5.1 3.1 6.5h.1c-1.4-1.4-2.5-3.7-3.2-6.6h.1c.7 3 1.9 5.4 3.4 6.8-.1 0-.2 0-.3-.1 0 0-.1-.1-.1-.2-2.9-.4-5.5-2-7.4-4.3zm-.7-17.2c1.3 1 3 1.8 4.7 2.3-.3 1.7-.5 3.5-.5 5.3h-6.8c.1-2.7 1-5.3 2.6-7.6zm4.7 14c-1.8.6-3.4 1.3-4.7 2.3-1.6-2.2-2.5-4.8-2.6-7.5V24H28c0 1.9.2 3.6.5 5.3zM31.9 10c-1.4 1.4-2.5 3.7-3.1 6.5-1.7-.5-3.1-1.1-4.3-2 1.6-1.9 3.6-3.3 5.9-4.1.5-.2 1-.3 1.5-.4zm-3.1 6.7c-1.7-.5-3.2-1.2-4.5-2.1l.1-.1c1.2.9 2.7 1.7 4.4 2.2zm-7.7 5.2zm8.8-5c.9-3.9 2.7-6.7 4.6-7.2v7.8c-1.6 0-3.1-.2-4.6-.6z" />
    </g>
</svg>