<svg xmlns="http://www.w3.org/2000/svg" viewBox="0 0 70 47">
    <style>.st0{fill-rule:evenodd;clip-rule:evenodd;fill:#FE3F55;} .st1{display:none;fill-rule:evenodd;clip-rule:evenodd;fill:#FFFFFF;} .st2{fill-rule:evenodd;clip-rule:evenodd;fill:#FAFFFF;}</style>
    <g>
        <path d="M0 0h70v47H0V0z" class="st0" />
        <path d="M37.7 8.9c-1.4.7-2 2.3-1 3.7.4.6.6 1.4.6 2.2-.1.8-.3 1.6-1 2.4-1 1.4-2.9 1.5-3.3 3.5-.1 1 .1 1.9.7 2.7-1.1-1-1.7-2.1-2-3.4-.2-1.3 0-2.7.9-4.3l-.2-.1c-.9 1.6-1.1 3.1-.9 4.4.2 1.3 1 2.5 2.1 3.5-1.9-1.1-3.2-2.5-4-4.6-1.1-3.9.7-8.1 4.5-9.6 1.2-.3 2.4-.5 3.6-.4zM21.2 16c-.5 1.2-.7 2.3-.6 3.6.4 4.1 3.8 7.1 7.8 7.2 2.3-.2 3.9-1 5.6-2.5-1.3.8-2.6 1.1-3.9 1-1.3-.2-2.6-.8-3.9-2.2l.1-.1c1.2 1.3 2.5 2 3.8 2.1 1.2.1 2.5-.2 3.8-.9-1 .4-1.9.3-2.8-.1-1.8-1-1.4-2.8-2.4-4.2-.5-.9-1.2-1.3-2-1.6-.8-.3-1.6-.3-2.3-.1-1.5.4-2.9-.6-3.2-2.2zm3.4 4.6l.7.6.7-.5-.3.8.7.6-.9-.1-.3.8-.2-.8-.9-.1.7-.5-.2-.8zm15.5 17.5c1.1-.6 1.9-1.5 2.5-2.5 2.1-3.5 1.1-7.9-2.1-10.4-1.9-1.2-3.7-1.6-5.9-1.3 1.5.2 2.8.7 3.7 1.6 1 .9 1.6 2.3 1.9 4.1H40c-.3-1.8-.9-3.1-1.8-4-.9-.9-2.1-1.3-3.6-1.5 1 .3 1.7.9 2.2 1.8.9 1.9-.5 3.1-.6 4.8-.1 1 .2 1.8.6 2.5.5.7 1.1 1.2 1.8 1.4 1.7.4 2.2 2.1 1.5 3.5zm0-5.7l-.2-.9H39l.7-.5-.2-.9.7.6.7-.5-.3.8.7.6-.9-.1-.3.9zm9.2-9.6c-.2-1.2-.7-2.3-1.5-3.3-2.6-3.2-7-3.7-10.4-1.6-1.8 1.4-2.7 3-3.2 5.2.7-1.4 1.6-2.4 2.7-3 1.2-.6 2.6-.8 4.4-.4v.2c-1.7-.4-3.2-.2-4.3.4-1.1.6-2 1.6-2.6 2.9.6-.9 1.5-1.3 2.4-1.5 2.1-.2 2.7 1.6 4.3 2.2.9.4 1.7.4 2.5.3.8-.2 1.5-.6 1.9-1.2 1.1-1.5 2.8-1.4 3.8-.2zM44 20.9l-.9-.1-.4.8-.2-.9-.9-.1.8-.4-.2-.9.6.6.8-.4-.4.8.8.6zM22.5 33.8c1.6.3 3-.7 3.1-2.3 0-.7.3-1.5.9-2.1.5-.6 1.2-1.1 2.2-1.3 1.6-.5 3.2.6 4.7-.8.6-.7 1.1-1.5 1.1-2.6.2 1.5.1 2.8-.5 3.9-.6 1.2-1.6 2.1-3.3 2.9l.1.2c1.7-.8 2.7-1.8 3.3-3 .6-1.2.7-2.5.5-4.1.8 2.1 1 3.9.4 6.1-1.5 3.8-5.4 6-9.3 4.9-1.3-.3-2.3-.9-3.2-1.8zm5.4-1.6l.9.1.2.9.4-.8.9.1-.7-.6.4-.8-.8.4-.6-.6.2.9-.9.4zm6.5-18.6l-.8.4-.6-.6.2.9-.7.5.9.1.2.9.3-.8.9.1-.7-.6.3-.9z" class="st1" />
        <path d="M33.7 23.7l.1-.2c-.7-.9-.8-1.8-.7-2.7.4-2.1 2.2-2.1 3.3-3.5.7-.8.9-1.6 1-2.4 0-.8-.2-1.6-.6-2.2-1-1.4-.4-3 1-3.7-1.2-.1-2.4 0-3.5.5-3.7 1.6-5.5 5.7-4.5 9.6.8 2.1 2 3.5 3.9 4.6z" class="st2" />
        <path d="M28.4 26.8c2.3-.2 3.9-1 5.6-2.5l-.2-.1-.5.2h-.1c.2-.1.3-.2.5-.2-1 .4-1.9.3-2.8-.1-1.8-1-1.4-2.8-2.4-4.2-.5-.9-1.2-1.3-2-1.6-.8-.3-1.6-.3-2.3-.1-1.6.5-3-.5-3.2-2.1-.5 1.2-.7 2.3-.6 3.6.7 4 4 7 8 7.1zM40.6 25.1c-1.7-1.1-3.3-1.5-5.2-1.4l-.7.1.1.2c1 .3 1.7.9 2.2 1.8.9 1.9-.5 3.1-.6 4.8-.1 1 .2 1.8.6 2.5.5.7 1.1 1.2 1.8 1.4 1.6.6 2.1 2.2 1.4 3.6 1.1-.6 1.9-1.5 2.5-2.5 2.1-3.6 1.1-8-2.1-10.5zM47.8 19.5c-2.6-3.2-7-3.7-10.4-1.6-1.8 1.4-2.7 3-3.2 5.2h.2c.6-.9 1.5-1.3 2.4-1.5 2.1-.2 2.7 1.6 4.3 2.2.9.4 1.7.4 2.5.3.8-.2 1.5-.6 1.9-1.2 1.1-1.3 2.7-1.2 3.8-.1-.2-1.3-.7-2.4-1.5-3.3zM34.4 24.7c0 1.1-.4 1.9-1.1 2.6-1.5 1.4-3.1.3-4.7.8-1 .2-1.7.7-2.2 1.3-.5.6-.8 1.4-.9 2.1-.1 1.7-1.5 2.6-3.1 2.3.9.8 1.9 1.5 3.1 1.8 3.9 1 7.8-1.2 9.3-4.9.6-2.2.5-4.1-.4-6.1v.1z" class="st2" />
    </g>
</svg>