<svg xmlns="http://www.w3.org/2000/svg" baseProfile="basic" viewBox="0 0 70 47">
    <style>.st0{fill:#FAFFFF;} .st1{fill:#FF6F28;} .st2{fill:#40BB56;} .st3{fill:#3058D0;}</style>
    <path d="M70 31H0V15h70v16z" class="st0" />
    <path d="M70 15H0V0h70v15z" class="st1" />
    <path d="M70 47H0V31h70v16z" class="st2" />
    <path d="M35 17.3c3 0 5.4 2.4 5.4 5.4S38 28.1 35 28.1s-5.4-2.4-5.4-5.4 2.4-5.4 5.4-5.4zm0 10c2.6 0 4.6-2.1 4.6-4.6s-2.1-4.6-4.6-4.6-4.6 2.1-4.6 4.6c0 2.6 2 4.6 4.6 4.6 0 0 0 .1 0 0z" class="st3" />
    <path d="M30.7 21.9l3.5.5-2.7-2.3 2.9 2-1.4-3.2 1.8 3 .1-3.5.3 3.5 1.6-3.1-1.3 3.2 2.8-2.1-2.5 2.4 3.4-.7-3.3 1 3.4.9-3.5-.5 2.7 2.2-2.9-1.9 1.4 3.2-1.8-3-.1 3.5-.3-3.5-1.6 3.1 1.2-3.3-2.8 2.1 2.5-2.4-3.4.7 3.3-1.1c.1.2-3.3-.7-3.3-.7z" class="st3" />
</svg>