<svg id="Layer_2" xmlns="http://www.w3.org/2000/svg" viewBox="0 0 70 47"><style>.st1{fill:#fff}.st2{fill:#cc142b}.st3{fill:#cf142b}</style><path fill="#00247d" d="M0 0h70v47H0z"/><path class="st1" d="M56 8.2h-2.7l-.8-2.6-.8 2.6H49l2.2 1.6-.9 2.5 2.2-1.5 2.2 1.5-.9-2.5L56 8.2z"/><path class="st2" d="M54.8 8.6h-1.7l-.6-1.7-.6 1.7h-1.7l1.4 1-.5 1.7 1.4-1 1.4 1-.5-1.7 1.4-1z"/><path class="st1" d="M64.9 16.3h-2.4l-.8-2.2-.7 2.2h-2.4l1.9 1.5-.7 2.2 1.9-1.4 2 1.4-.8-2.2 2-1.5z"/><path class="st2" d="M63.7 16.7h-1.5l-.5-1.4-.4 1.4h-1.5l1.2.9-.5 1.4 1.2-.9 1.2.9-.4-1.4 1.2-.9z"/><path class="st1" d="M45.2 19h-2.6l-.9-2.5-.8 2.5h-2.7l2.2 1.6-.9 2.6 2.2-1.6 2.2 1.6-.8-2.6 2.1-1.6z"/><path class="st2" d="M44 19.4h.1-1.8l-.6-1.7-.5 1.7h-1.8l1.4 1.1-.5 1.7 1.4-1.1 1.5 1.1-.6-1.7 1.4-1.1z"/><path class="st1" d="M56.4 36.1h-3l-.9-2.9-.9 2.9h-3l2.4 1.7-.9 2.9 2.4-1.8 2.4 1.8-.9-2.9 2.4-1.7z"/><path class="st2" d="M55.2 36.4h-2.1l-.6-1.9-.6 1.9h-2.1l1.7 1.3-.7 1.9 1.7-1.2 1.7 1.2-.7-1.9 1.7-1.3z"/><path class="st1" d="M35 0h-3.9L20.4 7.1V0h-5.8v7.1L3.9 0H0v2.6l7.8 5.2H0v7.8h7.8L0 20.7v2.6h3.9l10.7-7.1v7.1h5.8v-7.1l10.7 7.1H35v-2.6l-7.8-5.1H35V7.8h-7.8L35 2.6z"/><path class="st3" d="M11.7 7.8L0 0v1.7l9.1 6.1zM0 23.3h2.6l11.7-7.7h-2.6zM35 0h-2.6L20.7 7.8h2.6zM23.3 15.6L35 23.3v-1.7l-9.1-6z"/><path class="st3" d="M19.2 0h-3.4v9.3H0V14h15.8v9.3h3.4V14H35V9.3H19.2z"/></svg>