<svg xmlns="http://www.w3.org/2000/svg" viewBox="0 0 70 47">
    <style>.st0{fill-rule:evenodd;clip-rule:evenodd;fill:#FAFFFF;} .st1{opacity:0.2;} .st2{fill-rule:evenodd;clip-rule:evenodd;fill:#FE3F55;} .st3{fill:#FAFFFF;} .st4{fill:#FFFFFF;}</style>
    <g>
        <path d="M0 0h70v47H0V0z" class="st0" />
        <path d="M70 47H0V0h70v47zM.5 46.5h69V.5H.5v46z" class="st1" />
        <path d="M0 21V0h70v21H0z" class="st2" />
        <path d="M16.1 15c-.3.1-.6.3-.9.4-2.8.9-5.9-.5-6.8-3.2-.2-.5-.3-1.1-.3-1.6s0-1.1.2-1.6c.8-2.8 3.8-4.4 6.6-3.6l.9.3c.1 0 .2 0 .2-.1s0-.2-.1-.2c-.7-.5-1.5-.9-2.4-1.2-3.6-1-7.3 1.1-8.3 4.5-.1.7-.2 1.3-.2 2 0 .6.1 1.3.4 1.9 1.2 3.4 5 5.2 8.6 4.1.9-.3 1.7-.7 2.3-1.3.1 0 .1-.1.1-.2-.1-.1-.2-.2-.3-.2z" class="st3" />
        <path d="M20.3 5.8l.4.8.8.1-.6.6.2.9-.8-.4-.8.4.2-.9-.7-.6.9-.1zM17.2 8.5l.4.8.9.1-.6.6.1.9-.8-.4-.7.4.1-.9-.6-.6.8-.1zM23.3 8.5l.4.8.9.1-.7.6.2.9-.8-.4-.7.4.1-.9-.6-.6.8-.1zM22.2 11.9l.4.8.8.2-.6.6.1.8-.7-.4-.8.4.1-.8-.6-.6.9-.2zM18.4 11.9l.4.8.9.2-.7.6.2.8-.8-.4-.7.4.1-.8-.6-.6.8-.2z" class="st4" />
    </g>
</svg>