<svg xmlns="http://www.w3.org/2000/svg" viewBox="0 0 70 47">
    <style>.st0{fill-rule:evenodd;clip-rule:evenodd;fill:#FAFFFF;} .st1{opacity:0.2;} .st2{fill-rule:evenodd;clip-rule:evenodd;fill:#3058D0;} .st3{fill-rule:evenodd;clip-rule:evenodd;fill:#FE3F55;} .st4{fill:#FE3F55;} .st5{fill:#FFFFFF;} .st6{fill:#3058D0;}</style>
    <g>
        <path d="M0 0h70v16H0V0z" class="st0" />
        <path d="M70 47H0V0h70v47zM.5 46.5h69V.5H.5v46z" class="st1" />
        <path d="M0 16h70v15H0V16z" class="st2" />
        <path d="M0 31h70v16H0V31z" class="st3" />
        <path d="M19 33.9c-.2-.1-5.8-1.8-8.2-4.9-2.8-3.6-1.7-11.5-.1-15.7l.1-.3h16.6l.1.3c1.6 4.2 2.7 12-.1 15.6-2.4 3.2-8 4.9-8.2 4.9h-.1l-.1.1z" class="st4" />
        <path d="M27.1 13.5c1.5 4 2.6 11.8 0 15.2-2.4 3.1-8 4.8-8 4.8s-5.6-1.7-8-4.8c-2.6-3.4-1.5-11.2 0-15.2h16m.6-.8h-17l-.2.5c-1.6 4.3-2.7 12.3.1 16 2.6 3.3 8.4 5.1 8.6 5.1h.2c.2-.1 5.9-1.8 8.4-5.1 2.8-3.7 1.7-11.7.1-16l-.2-.5z" class="st5" />
        <path d="M26.6 29.3c-2.6 2.7-7.5 4.2-7.5 4.2s-4.9-1.5-7.5-4.2c.6-.9 1.5-1.4 2.7-1.4.7 0 1.3.2 1.8.6.4-1.2 1.6-2.2 3-2.2s2.6.9 3 2.2c.5-.4 1.1-.6 1.8-.6 1.1 0 2.1.6 2.7 1.4z" class="st6" />
        <path d="M23.3 21.3c-.6.2-1.3.2-1.9.2H20v-2.4c.6 0 1.2.1 1.8.2l2.2.6v-3.2l-2.2.6c-.5.1-1.1.2-1.6.2l.6-3.2h-3.2l.6 3.2c-.5 0-1.1-.1-1.6-.2l-2.2-.6v3.2l2.2-.6c.6-.1 1.2-.2 1.8-.2v2.4H17c-.7 0-1.3-.1-1.9-.2l-2.2-.6v3.2l2.2-.6c.6-.2 1.3-.2 1.9-.2h1.4v3.2H20v-3.2h1.4c.7 0 1.3.1 1.9.2l2.2.6v-3.2l-2.2.6z" class="st5" />
    </g>
</svg>