<svg xmlns="http://www.w3.org/2000/svg" xmlns:xlink="http://www.w3.org/1999/xlink" viewBox="0 0 70 47">
    <style>.st0{clip-path:url(#south-africa-flag-clip-path);} .st1{fill:url(#south-africa-flag-gradient-1);} .st2{fill:#FE3F55;} .st3{fill:#3058D0;} .st4{fill:url(#south-africa-flag-gradient-2);} .st5{fill:url(#south-africa-flag-gradient-3);} .st6{fill:#40BB56;}</style>
    <g>
        <defs>
            <path id="south-africa-flag-path" d="M0 0v47h70V0H0z" />
        </defs>
        <clipPath id="south-africa-flag-clip-path">
            <use xlink:href="#south-africa-flag-path" overflow="visible" />
        </clipPath>
        <g class="st0">
            <linearGradient id="south-africa-flag-gradient-1" x1="35" x2="35" y1="48.874" y2="-1.874" gradientUnits="userSpaceOnUse">
                <stop offset="0" stop-color="#F0F0F0" />
                <stop offset="1" stop-color="#FFF" />
            </linearGradient>
            <path d="M-.5-1.9h71v50.7h-71z" class="st1" />
            <path d="M70.5 16.2H35L11.9-1.9h58.6z" class="st2" />
            <path d="M70.5 30.8H35L11.9 48.9h58.6z" class="st3" />
            <linearGradient id="south-africa-flag-gradient-2" x1="15.828" x2="15.828" y1="48.874" y2="-1.874" gradientUnits="userSpaceOnUse">
                <stop offset="0" stop-color="#FFC32D" />
                <stop offset="1" stop-color="#FFD246" />
            </linearGradient>
            <path d="M-.5-1.9l32.7 25.4L-.5 48.9z" class="st4" />
            <linearGradient id="south-africa-flag-gradient-3" x1="9.626" x2="9.626" y1="39.288" y2="7.712" gradientUnits="userSpaceOnUse">
                <stop offset="0" stop-color="#0C0C0C" />
                <stop offset="1" stop-color="#282828" />
            </linearGradient>
            <path d="M-.5 7.7l20.3 15.8L-.5 39.3z" class="st5" />
            <path d="M70.5 18.4H33.8L2.1-6.4l-6.3 8 28 21.9-28 21.9 6.3 8 31.7-24.8h36.7z" class="st6" />
        </g>
    </g>
</svg>