<svg version="1.1" xmlns="http://www.w3.org/2000/svg" xmlns:xlink="http://www.w3.org/1999/xlink" x="0px" y="0px" viewBox="0 0 150 150" style="enable-background:new 0 0 150 150;" xml:space="preserve">
	<g class="fill-primary" fill="#FFFFFF">
		<path d="M71.9,36.5l1.8,0.3c0.2,0,1,0.2,2.3,0.2c4.4,0,12.9-1.4,20.6-10.7c9.6-11.5,7.7-23.5,7.7-24L103.9,0l-2.3,0C101,0,87.7,0.2,78,13c-8.6,11.4-6.5,21.3-6.4,21.8L71.9,36.5z M76.7,31.6c0-3,0.7-8.8,5.6-15.3C88,8.8,95.1,6.4,99.1,5.7c-0.1,3.7-1,10.4-6.6,17.1C86.5,30,80.1,31.4,76.7,31.6z"/>
		<path d="M135.6,105.2c-0.7-0.3-17.9-7.3-17.9-27.2c0-17.6,13.7-24.9,14.3-25.2l2.7-1.4l-1.5-2.6c-0.4-0.7-9.2-16.2-31.3-16.2c-7.9,0-14.6,2.7-19.6,4.7c-2.7,1.1-5.2,2.1-6.6,2.1c-1.9,0-4.6-1-7.7-2.2C63.1,35.3,57.1,33,50.1,33c-18.6,0-38.3,16.6-38.3,47.5c0,31.2,22.9,69.6,41.5,69.6c3.2,0,6.8-1.3,10.6-2.7c4.3-1.6,9.1-3.3,13.7-3.3c4.1,0,7.6,1.3,11.5,2.8c4,1.5,8.1,3,12.8,3c8.6,0,17-6.7,25.2-19.9c6.1-9.9,9.7-19.9,10.1-21l0.9-2.7L135.6,105.2z M111.8,78c0,18.8,13.1,28.1,19.1,31.3c-5.1,13-16.8,34.6-28.9,34.6c-3.7,0-7.1-1.3-10.8-2.7c-4.1-1.5-8.4-3.1-13.5-3.1c-5.6,0-11,1.9-15.7,3.7c-3.3,1.2-6.4,2.3-8.6,2.3c-16.6,0-35.7-38.6-35.7-63.7c0-20.2,11.4-41.6,32.4-41.6c5.9,0,11.1,2,15.8,3.8c3.7,1.4,6.8,2.6,9.8,2.6c2.5,0,5.3-1.1,8.8-2.5c4.7-1.9,10.7-4.3,17.4-4.3c14.1,0,21.8,7.4,24.6,10.9C121.8,52.7,111.8,61.7,111.8,78z"/>
	</g>
</svg>