<svg version="1.1" xmlns="http://www.w3.org/2000/svg" xmlns:xlink="http://www.w3.org/1999/xlink" x="0px" y="0px" viewBox="0 0 150 150" style="enable-background:new 0 0 150 150;" xml:space="preserve">
	<g class="fill-primary" fill="#FFFFFF">
		<path d="M109.1,75l13.7,13.7l0.4,55.3H27V88.6L41.6,75H109.1z M111.6,69H39.2L21,86v64h108.2l-0.5-63.8L111.6,69L111.6,69z"/>
		<path d="M75,6.6c12.6,0,22.9,10.3,22.9,22.9S87.6,52.4,75,52.4S52.1,42.1,52.1,29.5S62.4,6.6,75,6.6 M75,0C58.7,0,45.5,13.2,45.5,29.5S58.7,59,75,59s29.5-13.2,29.5-29.5S91.3,0,75,0L75,0z"/>
	</g>
</svg>