<svg version="1.1" xmlns="http://www.w3.org/2000/svg" xmlns:xlink="http://www.w3.org/1999/xlink" x="0px" y="0px" viewBox="0 0 150 150" style="enable-background:new 0 0 150 150;" xml:space="preserve">
	<g class="fill-primary" fill="#FFFFFF">
		<path d="M75,6.6c12.6,0,22.9,10.3,22.9,22.9S87.6,52.4,75,52.4S52.1,42.1,52.1,29.5S62.4,6.6,75,6.6 M75,0C58.7,0,45.5,13.2,45.5,29.5S58.7,59,75,59s29.5-13.2,29.5-29.5S91.3,0,75,0L75,0z"/>
		<polygon points="120.3,86 109.1,75 41.6,75 27,88.6 27,144 87,144 87,150 21,150 21,86 39.2,69 111.6,69 128.8,86 	"/>
		<polygon points="148,124 129,124 129,102 123,102 123,124 102,124 102,130 123,130 123,149 129,149 129,130 148,130 	"/>
	</g>
</svg>