<svg version="1.1" xmlns="http://www.w3.org/2000/svg" xmlns:xlink="http://www.w3.org/1999/xlink" x="0px" y="0px" viewBox="0 0 150 150" style="enable-background:new 0 0 150 150;" xml:space="preserve">
	<g class="fill-primary" fill="#FFFFFF">
		<path d="M111,9.2c-15,0-27.5,1.5-35.7,3.9C68,10.7,54,9.2,39,9.2c-17.1,0-31,2-39,4.9v114.8c8-2.9,21.9-4.9,39-4.9c13,0,25.2,1.1,33,3c1.2,0.3,2.3,0.6,3.3,0.9c0.9-0.2,1.8-0.5,2.7-0.7c8.2-1.9,19.6-3.2,33-3.2c17.1,0,33.8,2,39,4.9V14.1C144.8,11.2,128.1,9.2,111,9.2z M72,120.8c-8-1.8-20.3-2.9-33-2.9c-12.7,0-24,1.1-33,2.9V18.5c8-2,19.9-3.3,33-3.3c14.5,0,27,1.5,33,3.2V120.8z M144,120.7c-7.2-1.6-18.2-2.8-33-2.8c-12.6,0-24,1.1-33,3V18.6c8-2.2,20.1-3.4,33-3.4c15.6,0,27.4,1.6,33,3.1V120.7z"/>
		<path d="M112.2,132c-0.7,0-1.4,0-2.1,0c-1.4,0-2.9,0-4.3,0c-0.2,0-0.4,0-0.6,0c-1.2,0-2.4,0.1-3.5,0.1c-0.6,0-1.1,0-1.7,0.1c-0.8,0-1.5,0.1-2.2,0.1c-8.1,0.5-15.2,1.5-20.7,2.8c-0.9,0.2-1.9,0.5-2.7,0.7c-1-0.3-2.1-0.6-3.3-0.9c-7.8-1.8-20-3-33-3c-1.4,0-2.7,0-4.1,0c-0.5,0-0.9,0-1.4,0c-0.8,0-1.5,0-2.3,0.1c-4.4,0.2-8.3,0.5-12.3,0.9v6c6-0.7,12.7-1,20.1-1c13,0,25.2,1.1,33,3c1.2,0.3,2.3,0.6,3.3,0.9c0.9-0.2,1.8-0.5,2.7-0.7c8.2-1.9,19.7-3.2,33.1-3.2c7.3,0,13.9,0.4,20.9,1v-6C125,132.4,118.7,132,112.2,132z"/>
	</g>
</svg>