<svg version="1.1" xmlns="http://www.w3.org/2000/svg" xmlns:xlink="http://www.w3.org/1999/xlink" x="0px" y="0px" viewBox="0 0 150 150" style="enable-background:new 0 0 150 150;" xml:space="preserve">
	<g class="fill-primary" fill="#FFFFFF">
		<path d="M133.3,85l0,0.5c-1.4,15.8-8.6,30.6-20.3,41.4c-11.8,10.9-27.1,16.9-43.1,16.9c-35.1,0-63.7-28.6-63.7-63.7c0-16,6-31.3,16.9-43.1c10.8-11.7,25.7-18.9,41.5-20.3l0.5,0v-6.1l-0.6,0C47,12,30.7,19.8,18.7,32.7C6.7,45.6,0,62.5,0,80.2C0,118.7,31.3,150,69.8,150c17.7,0,34.5-6.6,47.4-18.6c12.9-11.9,20.7-28.3,22.1-45.8l0-0.6H133.3z"/>
		<path d="M150,74.8c-2.6-40.1-34.7-72.2-74.8-74.9L75,0v75h75L150,74.8z M143.2,69H81V6.8C113,11.6,138.4,37,143.2,69z"/>
	</g>
</svg>