<svg version="1.1" xmlns="http://www.w3.org/2000/svg" xmlns:xlink="http://www.w3.org/1999/xlink" x="0px" y="0px" viewBox="0 0 150 150" style="enable-background:new 0 0 150 150;" xml:space="preserve">
	<path class="fill-primary" fill="#FFFFFF" d="M75,0c20.7,0,39.5,8.4,53,22c13.6,13.6,22,32.3,22,53c0,20.7-8.4,39.5-22,53c-13.6,13.6-32.3,22-53,22c-20.7,0-39.5-8.4-53-22C8.4,114.5,0,95.7,0,75c0-20.7,8.4-39.5,22-53C35.5,8.4,54.3,0,75,0L75,0z M143.6,86.5L76,77.9l-48.2,48.2c12.4,11.5,29,18.5,47.2,18.5c19.2,0,36.6-7.8,49.2-20.4C134.2,114.2,141.2,101.1,143.6,86.5L143.6,86.5z M23.9,122.2L71.1,75L23.9,27.8C12.5,40.2,5.4,56.8,5.4,75C5.4,93.2,12.5,109.8,23.9,122.2L23.9,122.2z M27.8,23.9l44.5,44.5V5.5C55.1,6.2,39.6,13,27.8,23.9L27.8,23.9z M77.7,5.5v67.1l66.6,8.5c0.2-2,0.3-4.1,0.3-6.1c0-19.2-7.8-36.6-20.4-49.2C112.2,13.8,95.8,6.2,77.7,5.5z"/>
</svg>