<svg version="1.1" xmlns="http://www.w3.org/2000/svg" xmlns:xlink="http://www.w3.org/1999/xlink" x="0px" y="0px" viewBox="0 0 150 150" style="enable-background:new 0 0 150 150;" xml:space="preserve">
	<g class="fill-primary" fill="#FFFFFF">
		<g>
			<path d="M76,148.9c-39.4,0-71.8-30.9-73.7-70.3l6.8-0.3c1.7,35.8,31.1,63.8,66.9,63.8c37,0,67.1-30.1,67.1-67.1S113,7.9,76,7.9V1.1c41,0,73.9,33.1,73.9,73.9S116.8,148.9,76,148.9z"/>
		</g>
		<g>
			<path d="M8.5,30.5c2.7,0,4.8,0.7,6.4,2.1s2.4,3.4,2.4,5.8c0,2.9-0.9,5.1-2.7,6.7c-1.8,1.6-4.3,2.4-7.6,2.4c-3,0-5.3-0.5-7-1.4v-3.9c1,0.6,2.1,1,3.4,1.3S5.8,44,6.9,44c1.9,0,3.4-0.4,4.4-1.3s1.5-2.1,1.5-3.8c0-3.2-2-4.8-6.1-4.8c-0.6,0-1.3,0.1-2.1,0.2c-0.8,0.1-1.6,0.2-2.2,0.4l-1.9-1.1l1-13.1h13.9v3.8H5.3l-0.6,6.6c0.4-0.1,0.9-0.2,1.6-0.3C6.8,30.5,7.6,30.5,8.5,30.5z"/>
			<path d="M39.2,47.2h-4.3V34.7c0-1.5-0.3-2.7-0.9-3.5c-0.6-0.8-1.5-1.1-2.7-1.1c-1.7,0-2.9,0.5-3.6,1.6c-0.8,1.1-1.2,2.9-1.2,5.4v10.1h-4.3V27h3.4l0.6,2.7h0.2c0.6-1,1.4-1.7,2.4-2.2c1.1-0.5,2.2-0.8,3.5-0.8c3.1,0,5.2,1.1,6.2,3.2h0.3c0.6-1,1.4-1.8,2.5-2.3c1.1-0.6,2.3-0.8,3.7-0.8c2.4,0,4.2,0.6,5.3,1.8c1.1,1.2,1.7,3.1,1.7,5.6v13.2h-4.3V34.7c0-1.5-0.3-2.7-0.9-3.5c-0.6-0.8-1.5-1.1-2.8-1.1c-1.7,0-2.9,0.5-3.7,1.6c-0.8,1-1.2,2.6-1.2,4.8V47.2z"/>
		</g>
		<g>
			<polygon points="111.9,104.9 72,83.9 72,31 79,31 79,79.8 115,98.9 		"/>
		</g>
	</g>
</svg>