<svg width="20" height="20" viewBox="0 0 20 20" fill="none" xmlns="http://www.w3.org/2000/svg">
<path fill-rule="evenodd" clip-rule="evenodd" d="M12.377 9.99956L19.5077 2.86882C20.1641 2.21242 20.1641 1.1482 19.5077 0.491901C18.8513 -0.164493 17.7872 -0.164493 17.1308 0.491901L9.99998 7.62274L2.86914 0.491807C2.21275 -0.164587 1.14862 -0.164587 0.492225 0.491807C-0.164075 1.1482 -0.164075 2.21242 0.492225 2.86872L7.62306 9.99946L0.492225 17.1303C-0.164075 17.7867 -0.164075 18.8509 0.492225 19.5072C1.14862 20.1636 2.21275 20.1636 2.86914 19.5072L9.99998 12.3764L17.1308 19.5072C17.7871 20.1636 18.8513 20.1636 19.5077 19.5072C20.1641 18.8508 20.1641 17.7867 19.5077 17.1303L12.377 9.99956Z" fill="black"/>
</svg>
