<svg version="1.1" xmlns="http://www.w3.org/2000/svg" xmlns:xlink="http://www.w3.org/1999/xlink" x="0px" y="0px" viewBox="0 0 150 150" style="enable-background:new 0 0 150 150;" xml:space="preserve">
	<g class="fill-primary" fill="#FFFFFF">
		<path d="M144,6V144H6V6H144 M150,0H0v150h150V0L150,0z"/>
		<g>
			<g>
				<path class="st2" d="M48.1,21.7c-7.1,0-11.5,4.5-13.2,13.4h16.9v4.3H34.4l-0.1,1.9v2.1l0.1,1.5h15.4v4.3H34.9c0.8,4,2.4,7.1,4.6,9.3c2.2,2.2,5.3,3.3,9,3.3c3.5,0,6.9-0.7,10.3-2.2v5c-3.2,1.4-6.7,2.2-10.5,2.2c-5.3,0-9.5-1.5-12.7-4.5c-3.2-3-5.3-7.3-6.3-13h-5.5v-4.3h5.1l-0.1-1.4v-1.5l0.1-2.7h-5.1v-4.3h5.5c0.9-5.8,2.9-10.3,6.1-13.5c3.2-3.2,7.5-4.9,12.7-4.9c4.5,0,8.5,1.1,12.2,3.2l-2.4,4.6C54.2,22.7,50.9,21.7,48.1,21.7z"/>
			</g>
			<g>
				<path class="st2" d="M107.5,40.8l12.8-24.6h5.9l-14.1,26.1h8.9v4.3h-10.7v5.8h10.7v4.3h-10.7v9.1h-5.6v-9.1H94.1v-4.3h10.7v-5.8H94.1v-4.3h8.7L88.8,16.2h6L107.5,40.8z"/>
			</g>
			<g>
				<path class="st2" d="M122.6,114.6c0,3.1-1.1,5.6-3.4,7.6c-2.3,2-5.5,3.2-9.6,3.8v7.8h-4.4v-7.5c-2.5,0-5-0.2-7.3-0.6c-2.4-0.4-4.3-0.9-5.8-1.6v-5.3c1.9,0.8,4,1.5,6.5,2c2.4,0.5,4.7,0.8,6.7,0.8v-14.8c-4.6-1.5-7.8-3.2-9.7-5.1c-1.9-1.9-2.8-4.4-2.8-7.5c0-2.9,1.1-5.4,3.4-7.3c2.3-1.9,5.3-3,9.1-3.4v-6.1h4.4v6.1c4.1,0.1,8.1,0.9,12,2.5l-1.8,4.4c-3.4-1.3-6.8-2.1-10.2-2.4v14.6c3.5,1.1,6.2,2.2,7.9,3.3c1.8,1.1,3,2.3,3.9,3.7C122.2,111,122.6,112.7,122.6,114.6z M98.4,94.1c0,1.7,0.5,3.1,1.5,4.1c1,1,2.8,2,5.3,2.9V88.1c-2.2,0.4-3.9,1.1-5.1,2.1C99,91.3,98.4,92.6,98.4,94.1z M116.9,115.1c0-1.6-0.5-2.9-1.5-3.9c-1-1-2.9-2-5.8-3v13.1C114.4,120.6,116.9,118.5,116.9,115.1z"/>
			</g>
			<g>
				<path class="st2" d="M46.3,83.1c4.3,0,8.4,1,12.3,2.9l-2.1,4.6c-3.5-1.8-6.9-2.6-10.2-2.6c-2.8,0-4.9,0.7-6.3,2.1c-1.4,1.4-2.1,3.7-2.1,6.9V107h14.4v4.3H37.8v7.6c0,2.3-0.4,4.2-1.1,5.7c-0.7,1.6-2,2.8-3.6,3.8h27.2v5.3H25.1V129c4.7-1.1,7-4.4,7-10v-7.6h-6.8V107h6.8V96.2c0-4.1,1.3-7.3,3.8-9.6C38.5,84.3,41.9,83.1,46.3,83.1z"/>
			</g>
		</g>
	</g>
</svg>