<svg version="1.1" xmlns="http://www.w3.org/2000/svg" xmlns:xlink="http://www.w3.org/1999/xlink" x="0px" y="0px" viewBox="0 0 150 150" style="enable-background:new 0 0 150 150;" xml:space="preserve">
	<g class="fill-primary" fill="#FFFFFF">
		<path d="M20.3,0C9.1,0-0.2,9.1-0.2,20.3C-0.2,30.4,7,38.9,17,40.3V150h6V40.3c10-1.4,17.5-10,17.5-20.1C40.5,9.1,31.5,0,20.3,0z M34.8,20.3c0,8-6.5,14.6-14.6,14.6S5.7,28.3,5.7,20.3c0-8,6.5-14.6,14.6-14.6S34.8,12.2,34.8,20.3z"/>
		<path d="M78,64.9V0h-6v64.9c-10,1.4-17.3,10-17.3,20.1c0,11.2,9.1,20.3,20.3,20.3c11.2,0,20.4-9.1,20.4-20.3C95.3,74.9,88,66.3,78,64.9z M75,99.5c-8,0-14.6-6.5-14.6-14.6c0-8,6.5-14.6,14.6-14.6c8,0,14.6,6.5,14.6,14.6C89.6,93,83,99.5,75,99.5z"/>
		<path d="M133,109.7V0h-6v109.7c-10,1.4-17.5,10-17.5,20.1c0,11.2,9.1,20.3,20.2,20.3c11.2,0,20.5-9.1,20.5-20.3C150.2,119.6,143,111.1,133,109.7z M144.3,129.7c0,8-6.5,14.6-14.6,14.6c-8,0-14.6-6.5-14.6-14.6c0-8,6.5-14.6,14.6-14.6C137.8,115.2,144.3,121.7,144.3,129.7z"/>
		<rect x="72" y="104" width="6" height="46"/>
	</g>
</svg>