<svg version="1.1" xmlns="http://www.w3.org/2000/svg" xmlns:xlink="http://www.w3.org/1999/xlink" x="0px" y="0px" viewBox="0 0 150 150" style="enable-background:new 0 0 150 150;" xml:space="preserve">
	<g class="fill-primary" fill="#FFFFFF">
		<path d="M108.3,33H101v-9.7C101,10,91.7,0,79,0H26v3v147h99.2h2.8V52.6C128,39.8,121.3,33,108.3,33z M32,6h47c0.9,0,1.7,0.1,2.5,0.2C88.5,7.4,94,13.6,95,21c0.1,0.8,0.1,0,0.1,3H95v15h13.3c9.4,0,13.8,3,13.8,15H122v90H32V6z M108.4,36L108.4,36C108.4,36,108.4,36,108.4,36C108.4,36,108.4,36,108.4,36z M98.2,23.3L98.2,23.3L98.2,23.3L98.2,23.3z M79,3C79,3,79,3,79,3C79,3,79,3,79,3C79,3,79,3,79,3z"/>
		<polygon points="92.6,86.7 80,98.8 80,60 74,60 74,98.8 61.4,86.7 57.2,91 77,110.1 96.8,91 	"/>
	</g>
</svg>