<svg version="1.1" xmlns="http://www.w3.org/2000/svg" xmlns:xlink="http://www.w3.org/1999/xlink" x="0px" y="0px" viewBox="0 0 150 150" style="enable-background:new 0 0 150 150;" xml:space="preserve">
	<g class="fill-primary" fill="#FFFFFF">
		<g>
			<path d="M106.3,33H99v-9.7C99,10,89.7,0,77,0H24v3v147h99.2h2.8V52.6C126,39.8,119.3,33,106.3,33z M30,6h47c0.9,0,1.7,0.1,2.5,0.2C86.5,7.4,92,13.6,93,21c0.1,0.8,0.1,0,0.1,3H93v15h13.3c9.4,0,13.8,3,13.8,15H120v90H30V6z M106.4,36L106.4,36C106.4,36,106.4,36,106.4,36C106.4,36,106.4,36,106.4,36z M96.2,23.3L96.2,23.3L96.2,23.3L96.2,23.3z M77,3C77,3,77,3,77,3C77,3,77,3,77,3C77,3,77,3,77,3z"/>
		</g>
		<g>
			<g>
				<g>
					<rect x="51" y="84" width="48" height="6"/>
				</g>
				<g>
					<rect x="51" y="66" width="48" height="6"/>
				</g>
				<g>
					<rect x="51" y="102" width="48" height="6"/>
				</g>
			</g>
		</g>
	</g>
</svg>