<svg version="1.1" xmlns="http://www.w3.org/2000/svg" xmlns:xlink="http://www.w3.org/1999/xlink" x="0px" y="0px" viewBox="0 0 150 150" style="enable-background:new 0 0 150 150;" xml:space="preserve">
	<path class="fill-primary" fill="#FFFFFF" d="M136.9,72.3L15.2,0.4c-1-0.6-1.4-0.6-2.4,0C11.8,1,12,2,12,3.1v143.8c0,1.1-0.2,2.2,0.8,2.7c0.5,0.3,0.6,0.4,1.2,0.4c0.5,0,0.9-0.1,1.4-0.4L137,77.7c1-0.6,1.5-1.6,1.5-2.7S137.9,72.9,136.9,72.3z M18,139V11l60.2,64L18,139z M81.2,79.6l14.4,15.3L30.9,133L81.2,79.6z M30.9,17l64.7,38.2L81.2,70.4L30.9,17z M101.1,91.6L85.4,75l15.6-16.6L129.2,75L101.1,91.6z"/>
</svg>