<svg version="1.1" xmlns="http://www.w3.org/2000/svg" xmlns:xlink="http://www.w3.org/1999/xlink" x="0px" y="0px" viewBox="0 0 150 150" style="enable-background:new 0 0 150 150;" xml:space="preserve">
	<path class="fill-primary" fill="#FFFFFF" d="M149.6,44.1L74.7,19.6L-0.1,44.2L24,52v1v4.1v57.7l1.2,0.9c0.3,0.2,22.5,14.6,50.1,14.6c14,0,29.1-3.7,43.7-14.8l1-0.9V53.8l14-4.4V96h6V47.1L149.6,44.1z M114,111.7c-36,26.1-76,4.5-84-0.2V53.7l45.3,14.8L114,55.8V111.7z M75.3,62.2L19.5,44.1L74.9,26l55.6,18.1L75.3,62.2z"/>
</svg>