<svg version="1.1" xmlns="http://www.w3.org/2000/svg" xmlns:xlink="http://www.w3.org/1999/xlink" x="0px" y="0px" viewBox="0 0 150 150" style="enable-background:new 0 0 150 150;" xml:space="preserve">
	<g class="fill-primary" fill="#FFFFFF">
		<path d="M69.2,0H0v69.2L79.7,150L150,80.8L69.2,0z M5.8,66.9V5.8h61.1l75,75l-62.1,61.1L5.8,66.9z"/>
		<path d="M49,26C36.3,26,26,36.3,26,49S36.3,72.1,49,72.1c12.7,0,23.1-10.3,23.1-23.1S61.8,26,49,26z M49,66.3c-9.5,0-17.3-7.8-17.3-17.3S39.5,31.7,49,31.7c9.5,0,17.3,7.8,17.3,17.3S58.6,66.3,49,66.3z"/>
	</g>
</svg>