<svg version="1.1" xmlns="http://www.w3.org/2000/svg" xmlns:xlink="http://www.w3.org/1999/xlink" x="0px" y="0px" viewBox="0 0 150 150" style="enable-background:new 0 0 150 150;" xml:space="preserve">
	<g class="fill-primary" fill="#FFFFFF">
		<g>
			<g>
				<path d="M143.5,85.4l-11.1-27.5c-0.3-2.5-1.4-12.2-2.5-16.3C124.1,18.8,97,0.2,69.3,0l-0.4,0c-0.7,0-1.2,0-1.9,0l-0.5,0c-1.2,0.1-2.4,0.2-3.5,0.3C30.2,5,5.8,32.8,5.8,65.1C5.8,90,20,107.9,29,115.2V137l72,13v-23h4.8c19.7,0,22.2-6,22.2-20V96h8.3c4.2,0,7.8-3.3,7.8-7.5C144.2,88,144.1,86.7,143.5,85.4z M68,6.1c0,0,0.7,0,1.2,0l0.2,0c24.7,0.2,49.7,17.1,54.7,37c1.1,4.3,2.3,16,2.4,16.1l0,0.6L138.1,88c0,0.2,0.1,0.3,0.1,0.5c0,0.8-0.8,1.5-1.8,1.5H122v17c0,11.2-0.3,14-16.2,14H95v23l-60-13v-18.4l-1.3-0.9C20,98.9,12,81.5,12,65.1C12,36.6,32,12,62,6.8C62,6.8,65.7,6.2,68,6.1z"/>
			</g>
		</g>
		<path d="M70.1,33.3c13,0,23.6,10.6,23.6,23.6c0,8.2-4.1,15.7-11,20L80,78.7V82v13H60V82v-3.3l-2.6-1.8c-6.9-4.4-11-11.8-11-20C46.4,43.9,57.1,33.3,70.1,33.3 M70.1,27.3c-16.3,0-29.8,13.3-29.8,29.6C40.3,67.5,46,76.8,54,82v19h32V82c8-5.2,13.8-14.5,13.8-25.1C99.8,40.6,86.5,27.3,70.1,27.3L70.1,27.3z"/>
	</g>
</svg>