<svg version="1.1" xmlns="http://www.w3.org/2000/svg" xmlns:xlink="http://www.w3.org/1999/xlink" x="0px" y="0px" viewBox="0 0 150 150" style="enable-background:new 0 0 150 150;" xml:space="preserve">
	<g class="fill-primary" fill="#FFFFFF">
		<g>
			<g>
				<path d="M143.5,85.4l-11.1-27.5c-0.3-2.5-1.4-12.2-2.5-16.3C124.1,18.8,97,0.2,69.3,0l-0.4,0c-0.7,0-1.2,0-1.9,0l-0.5,0c-1.2,0.1-2.4,0.2-3.5,0.3C30.2,5,5.8,32.8,5.8,65.1C5.8,90,20,107.9,29,115.2V137l72,13v-23h4.8c19.7,0,22.2-6,22.2-20V96h8.3c4.2,0,7.8-3.3,7.8-7.5C144.2,88,144.1,86.7,143.5,85.4z M68,6.1c0,0,0.7,0,1.2,0l0.2,0c24.7,0.2,49.7,17.1,54.7,37c1.1,4.3,2.3,16,2.4,16.1l0,0.6L138.1,88c0,0.2,0.1,0.3,0.1,0.5c0,0.8-0.8,1.5-1.8,1.5H122v17c0,11.2-0.3,14-16.2,14H95v23l-60-13v-18.4l-1.3-0.9C20,98.9,12,81.5,12,65.1C12,36.6,32,12,62,6.8C62,6.8,65.7,6.2,68,6.1z"/>
			</g>
		</g>
		<g>
			<path d="M67,102.8c-2.7-0.3-5.4-0.8-8-1.7l1.8-5.7c2.2,0.7,4.5,1.2,6.8,1.4L67,102.8z M75.2,102.8l-0.6-6c2.3-0.2,4.6-0.7,6.8-1.4l1.9,5.7C80.6,101.9,77.9,102.5,75.2,102.8z M51.6,97.8c-2.4-1.4-4.6-3-6.6-4.8l4-4.5c1.7,1.5,3.6,2.9,5.6,4.1L51.6,97.8z M90.6,97.8l-3-5.2c2-1.2,3.9-2.5,5.6-4.1l4,4.5C95.2,94.8,92.9,96.4,90.6,97.8z M39.5,87c-1.6-2.2-3-4.6-4.1-7.1l5.5-2.5c0.9,2.1,2.1,4.1,3.5,6L39.5,87z M102.6,86.9l-4.9-3.5c1.4-1.9,2.5-3.9,3.5-6l5.5,2.4C105.6,82.3,104.2,84.7,102.6,86.9z M32.9,72.1C32.3,69.5,32,66.8,32,64l6,0c0,2.3,0.2,4.6,0.7,6.9L32.9,72.1z M109.2,72.1l-5.9-1.2c0.5-2.2,0.7-4.6,0.7-6.9v0h6v0C110,66.7,109.8,69.4,109.2,72.1z M38.7,57.2l-5.9-1.2c0.6-2.7,1.4-5.3,2.5-7.8l5.5,2.4C39.9,52.7,39.2,54.9,38.7,57.2z M103.3,57c-0.5-2.2-1.2-4.5-2.2-6.6l5.5-2.5c1.1,2.5,2,5.1,2.6,7.8L103.3,57z M44.3,44.6l-4.9-3.5c1.6-2.2,3.4-4.2,5.4-6.1l4,4.4C47.2,41,45.6,42.7,44.3,44.6z M97.7,44.4c-1.4-1.9-2.9-3.6-4.6-5.1l4-4.5c2,1.8,3.9,3.8,5.5,6L97.7,44.4z M54.4,35.4l-3-5.2c2.4-1.4,4.9-2.5,7.4-3.3l1.9,5.7C58.6,33.3,56.4,34.2,54.4,35.4z M87.5,35.3c-2-1.1-4.1-2.1-6.3-2.8l1.8-5.7c2.6,0.8,5.1,1.9,7.5,3.3L87.5,35.3z M67.5,31.1l-0.6-6c1.4-0.1,2.8-0.3,4.2-0.2c1.3,0,2.6,0.1,4,0.2l-0.6,6C73.3,31,72.2,31,71,31c0,0,0,0,0,0C69.9,31,68.7,31,67.5,31.1z"/>
		</g>
	</g>
</svg>