<svg version="1.1" xmlns="http://www.w3.org/2000/svg" xmlns:xlink="http://www.w3.org/1999/xlink" x="0px" y="0px" viewBox="0 0 150 150" style="enable-background:new 0 0 150 150;" xml:space="preserve">
	<path class="fill-primary" fill="#FFFFFF" d="M33,144H3V51h30V144z M17.6,39h-0.2C6.8,39,0,31.6,0,22.6C0,13.4,7,6.2,17.8,6.2c10.7,0,17.3,7.2,17.6,16.4C35.3,31.6,28.5,39,17.6,39z M150,144h-33V95c0-12.6-5.5-21.2-16.8-21.2c-8.7,0-13.3,5.8-15.6,11.4c-0.8,2-0.5,4.8-0.5,7.6V144H50.6c0,0,0.4-87,0-93H84v13.7c3-6.4,12.4-15.5,29.1-15.5c20.7,0,36.9,13.4,36.9,42.3V144z"/>
</svg>