<svg version="1.1" xmlns="http://www.w3.org/2000/svg" xmlns:xlink="http://www.w3.org/1999/xlink" x="0px" y="0px" viewBox="0 0 150 150" style="enable-background:new 0 0 150 150;" xml:space="preserve">
	<g class="fill-primary" fill="#FFFFFF">
		<g>
			<path d="M17.3,6.6l0,125c0,3.1-2.5,5.6-5.6,5.6c-3.1,0-5.6-2.5-5.6-5.6V25.6H0v106.1c0,6.4,5.2,11.7,11.7,11.7h126.7
				c6.4,0,11.6-5.3,11.6-11.7V6.6H17.3z M143.9,12.7v119c0,3.1-2.5,5.6-5.6,5.6H22.1l0.6-1.7c0.4-1.2,0.7-2.6,0.7-3.9v-119H143.9z"/>
		</g>
		<g>
			<rect x="47.1" y="94.4" width="73.1" height="6"/>
		</g>
		<g>
			<rect x="47.1" y="70.5" width="73.1" height="6"/>
		</g>
		<g>
			<rect x="47.1" y="46.6" width="73.1" height="6"/>
		</g>
	</g>
</svg>