<svg version="1.1" xmlns="http://www.w3.org/2000/svg" xmlns:xlink="http://www.w3.org/1999/xlink" x="0px" y="0px" viewBox="0 0 150 150" style="enable-background:new 0 0 150 150;" xml:space="preserve">
	<g class="fill-primary" fill="#FFFFFF">
		<g>
			<path d="M23.4,7c9,0,16.4,7.4,16.4,16.4s-7.4,16.4-16.4,16.4S7,32.5,7,23.4S14.4,7,23.4,7 M23.4,0C10.5,0,0,10.5,0,23.4c0,12.9,10.5,23.4,23.4,23.4s23.4-10.5,23.4-23.4C46.8,10.5,36.3,0,23.4,0L23.4,0z"/>
			<g>
				<rect y="49" width="7" height="101"/>
			</g>
			<g>
				<polygon points="23,150 16,150 16,69 69,69 69,76 23,76 			"/>
			</g>
		</g>
		<g>
			<path d="M126.6,7c9,0,16.4,7.4,16.4,16.4s-7.4,16.4-16.4,16.4s-16.4-7.4-16.4-16.4S117.5,7,126.6,7 M126.6,0c-12.9,0-23.4,10.5-23.4,23.4c0,12.9,10.5,23.4,23.4,23.4S150,36.3,150,23.4C150,10.5,139.5,0,126.6,0L126.6,0z"/>
			<g>
				<rect x="143" y="49" width="7" height="101"/>
			</g>
			<g>
				<polygon points="134,150 127,150 127,76 81,76 81,69 134,69 			"/>
			</g>
		</g>
	</g>
</svg>