<svg version="1.1" xmlns="http://www.w3.org/2000/svg" xmlns:xlink="http://www.w3.org/1999/xlink" x="0px" y="0px" viewBox="0 0 150 150" style="enable-background:new 0 0 150 150;" xml:space="preserve">
	<g class="fill-primary" fill="#FFFFFF">
			<path d="M26.2,150v-25H0V0h150v125H55.8L26.2,150z M6,119h26.2v18.2L53.6,119H144V6H6V119z"/>
			<path d="M71,77v-3.4c0-3.1-0.2-5.6,0.7-7.6c0.9-2,2.4-4.1,4.9-6.3c3.6-3,5.6-5.3,6.6-6.8s1.3-3.4,1.3-5.5c0-2.7-0.9-4.7-2.6-6.2c-1.7-1.5-4.2-2.2-7.4-2.2c-2.1,0-4.1,0.2-6.1,0.7c-2,0.5-4.2,1.4-6.8,2.7l-2.3-5.3c5-2.6,10.1-3.9,15.5-3.9c5,0,8.9,1.2,11.7,3.7c2.8,2.5,4.2,5.9,4.2,10.4c0,1.9-0.3,3.6-0.8,5.1c-0.5,1.5-1.3,2.8-2.3,4.1c-1,1.3-3.1,3.4-6.5,6.3c-2.6,2.3-3.7,4.1-4.6,5.6C75.8,70,76,72,76,74.5V77H71z M67.7,87.4c0-3.6,1.6-5.3,4.7-5.3c1.5,0,2.7,0.5,3.5,1.4c0.8,0.9,1.2,2.2,1.2,4c0,1.7-0.4,3-1.3,3.9c-0.8,0.9-2,1.4-3.5,1.4c-1.4,0-2.5-0.4-3.4-1.2C68.1,90.7,67.7,89.3,67.7,87.4z"/>
	</g>
</svg>