<svg version="1.1" xmlns="http://www.w3.org/2000/svg" xmlns:xlink="http://www.w3.org/1999/xlink" x="0px" y="0px" viewBox="0 0 150 150" style="enable-background:new 0 0 150 150;" xml:space="preserve">
	<g class="fill-primary" fill="#FFFFFF">
		<g>
			<path d="M75,150l-1.4-0.7c-5.8-2.9-17.2-8.9-28.5-17.1c-9.2-6.7-16.4-13.4-21.6-19.9c-6.1-7.7-9.1-15.3-9.1-22.3V11.1L75,0l60.6,11.1V90c0,7.1-3.1,14.6-9.1,22.3c-5.2,6.6-12.4,13.3-21.6,19.9c-11.3,8.2-22.7,14.2-28.5,17.1L75,150z M20.6,16.4V90c0,5.6,2.6,11.8,7.8,18.5c4.8,6.1,11.6,12.4,20.4,18.7C58.9,134.5,69.1,140,75,143c5.9-3,16.1-8.5,26.2-15.8c8.7-6.3,15.5-12.6,20.3-18.7c5.2-6.6,7.8-12.8,7.8-18.5V16.4L75,6.4L20.6,16.4z"/>
		</g>
		<g>
			<g>
				<polygon points="65,85.4 49.5,69.9 53.9,65.4 65,76.5 96.1,45.5 100.5,49.9 			"/>
			</g>
		</g>
	</g>
</svg>