<svg version="1.1" xmlns="http://www.w3.org/2000/svg" xmlns:xlink="http://www.w3.org/1999/xlink" x="0px" y="0px" viewBox="0 0 150 150" style="enable-background:new 0 0 150 150;" xml:space="preserve">
	<g class="fill-primary" fill="#FFFFFF">
		<path d="M74,9.3c-25.8,0-48.6,15.4-58.8,39L5.8,28.7L0,31.4l12.6,26.5c0.5,1.1,1.7,1.8,2.9,1.8c0.3,0,0.6,0,0.9-0.1L43.8,52L42,45.8l-21.4,5.9c9-21.8,29.8-36,53.3-36c25.5,0,47.8,16.7,55.4,41.6l6.1-1.9C127.1,27.8,102.4,9.3,74,9.3z"/>
		<path d="M150,115.6l-13.8-26.8c-0.7-1.4-2.5-2.1-4-1.5l-27.1,10.1l2.3,6l21-7.9c-8.3,23.1-29.8,38.7-54.4,38.7c-26.4,0-49.5-18.2-56.1-44.3l-6.2,1.6c7.4,28.9,33,49.1,62.3,49.1c27,0,50.6-17,60.1-42.1l10.2,19.9L150,115.6z"/>
	</g>
</svg>