<svg viewBox="0 0 12 12" version="1.1" xmlns="http://www.w3.org/2000/svg" xmlns:xlink="http://www.w3.org/1999/xlink">    
    <g class="fill-primary" fill="#FFFFFF">
        <path d="M4.514,8.049 C5.452,8.049 6.335,7.683 6.998,7.018 C8.37,5.643 8.37,3.407 6.998,2.033 C6.335,1.367 5.452,1.001 4.514,1.001 C3.575,1.001 2.692,1.367 2.029,2.033 C0.657,3.407 0.657,5.643 2.029,7.018 C2.692,7.683 3.575,8.049 4.514,8.049 Z M12,11.293 L11.291,12 L7.348,8.047 C6.548,8.697 5.558,9.05 4.514,9.05 C3.307,9.05 2.172,8.58 1.32,7.724 C-0.44,5.96 -0.44,3.09 1.32,1.326 C2.174,0.471 3.307,0 4.514,0 C5.72,0 6.853,0.471 7.707,1.326 C9.343,2.966 9.457,5.561 8.052,7.335 L12,11.293 Z"></path>
    </g>
</svg>