<svg width="30" height="30" viewBox="0 0 30 30" fill="white" style="background:transparent;" xmlns="http://www.w3.org/2000/svg">
<circle cx="15" cy="15" r="15" fill="#0076FF"/>
<g clip-path="url(#clip0)">
<path d="M23.6447 15.4951L19.3449 19.7948C19.0713 20.0684 18.6279 20.0684 18.3545 19.7948C18.0811 19.5213 18.0811 19.0779 18.3545 18.8045L22.1592 14.9999L18.3546 11.1955C18.0812 10.922 18.0812 10.4786 18.3546 10.2051C18.628 9.93162 19.0714 9.93162 19.345 10.2051L23.6448 14.5049C23.7815 14.6417 23.8498 14.8208 23.8498 14.9999C23.8498 15.1791 23.7814 15.3583 23.6447 15.4951Z" fill="white"/>
</g>
<g clip-path="url(#clip1)">
<path d="M6.3553 15.4951L10.6551 19.7948C10.9287 20.0684 11.3721 20.0684 11.6455 19.7948C11.9189 19.5213 11.9189 19.0779 11.6455 18.8045L7.84082 14.9999L11.6454 11.1955C11.9188 10.922 11.9188 10.4786 11.6454 10.2051C11.372 9.93162 10.9286 9.93162 10.655 10.2051L6.35519 14.5049C6.21848 14.6417 6.1502 14.8208 6.1502 14.9999C6.1502 15.1791 6.21861 15.3583 6.3553 15.4951Z" fill="white"/>
</g>
<defs>
<clipPath id="clip0">
<rect width="10" height="10" fill="white" transform="translate(16 10)"/>
</clipPath>
<clipPath id="clip1">
<rect width="10" height="10" fill="white" transform="matrix(-1 0 0 1 14 10)"/>
</clipPath>
</defs>
</svg>
