<svg version="1.1" xmlns="http://www.w3.org/2000/svg" xmlns:xlink="http://www.w3.org/1999/xlink" x="0px" y="0px" viewBox="0 0 150 150" style="enable-background:new 0 0 150 150;" xml:space="preserve">
	<g class="fill-primary" fill="#FFFFFF">
		<g>
			<polygon points="92.2,54.3 60.4,78.8 79.1,92.3 		"/>
		</g>
		<path d="M75,0C33.6,0,0,33.6,0,75s33.6,75,75,75s75-33.6,75-75S116.4,0,75,0z M75,144.3c-25.1,0-47-13.3-59.2-33.3h118.4C122,131,100.1,144.3,75,144.3z M144.2,78.5c0,0.1,0,0.1,0,0.2c-0.1,2.2-0.3,4.5-0.7,6.7c0,0.2-0.1,0.4-0.1,0.6c-0.1,0.9-0.3,1.8-0.5,2.8c0,0.1,0,0.2-0.1,0.4c-0.4,1.9-0.8,3.9-1.4,5.9h-0.1c-1,3.4-2.3,7-3.8,10H12.5c-1.5-3-2.8-6.6-3.8-10H8.5c-0.5-2-1-4-1.4-5.9c0-0.2-0.1-0.3-0.1-0.5c-0.2-0.9-0.3-1.7-0.5-2.6c0-0.3-0.1-0.5-0.1-0.8c-0.2-1.1-0.3-2.1-0.4-3.1c0-0.1,0-0.2,0-0.3c-0.1-1-0.2-2-0.2-3c0-0.2,0.1-0.3,0.1-0.5c0-1,0.1-2.1,0.1-3.1c0,0,0,0,0,0c0-0.1-0.3-0.1-0.3-0.2h0c0-13.1,3.8-25.9,10.8-36.9L31,52.5l4-4.1L19.7,33.2C32.3,16.6,51,6.6,72,5.8V26h6V5.8c21,0.9,40.7,11.4,53.3,28.8l-13.8,13.7l4,4l12.9-12.9c6.4,10.6,9.8,23.1,9.8,35.5h0c0,0,0,0.1,0,0.1c0,0,0,0.1,0,0.1C144.3,76.3,144.2,77.4,144.2,78.5z"/>
	</g>
</svg>