<svg width="431" height="20" viewBox="0 0 431 20" fill="none" xmlns="http://www.w3.org/2000/svg">
<path d="M13.3357 17.4639V3.99994H16.6547V17.4639H13.3357ZM77.8496 12.4336C77.8496 9.17989 75.1175 7.1602 71.9201 7.1602C68.7026 7.1602 65.9909 9.19864 65.9909 12.4336C65.9909 15.6872 68.723 17.7257 71.9201 17.7257C75.1175 17.7257 77.8496 15.6688 77.8496 12.4336ZM74.5712 12.4336C74.5712 14.1352 73.3369 15.089 71.9 15.089C70.4632 15.089 69.2289 14.1352 69.2289 12.4336C69.2289 10.7132 70.4632 9.79688 71.9 9.79688C73.3369 9.79688 74.5712 10.7132 74.5712 12.4336ZM12.0003 13.5929C12.0003 12.0784 11.1503 10.919 9.63245 10.3955C11.0693 9.66598 11.5751 8.71221 11.5751 7.59039C11.5751 5.62694 10.0372 3.99994 6.59708 4.01869H0V17.4826H6.88037C10.3408 17.4639 12.0003 15.8744 12.0003 13.5929ZM8.05399 7.98307C8.05399 8.89935 7.42676 9.42294 6.2126 9.42294H3.46042V6.61787H6.2126C7.32559 6.61787 8.05399 7.0668 8.05399 7.98307ZM8.35763 13.3873C8.35763 14.2661 7.68985 14.8459 6.45541 14.8459H3.46042V11.9287H6.45541C7.64938 11.9287 8.35763 12.4898 8.35763 13.3873ZM40.898 9.90903C39.987 8.15147 38.2874 7.17895 35.7173 7.17895C32.6819 7.17895 29.9703 8.93685 29.9703 12.4336C29.9703 15.8369 32.3579 17.7257 35.6768 17.7257C38.0039 17.7257 39.967 16.8656 40.898 15.0143L38.2265 13.7425C37.7411 14.5654 36.9922 15.089 35.7984 15.089C34.2604 15.089 33.2688 14.0793 33.2688 12.4336C33.2688 10.7881 34.402 9.79688 35.7779 9.79688C36.8506 9.79688 37.66 10.2458 38.1659 11.218L40.898 9.90903ZM89.8091 9.90903C88.8985 8.15147 87.1989 7.17895 84.6288 7.17895C81.5934 7.17895 78.8814 8.93685 78.8814 12.4336C78.8814 15.8369 81.2693 17.7257 84.5883 17.7257C86.9153 17.7257 88.8784 16.8656 89.8091 15.0143L87.1379 13.7425C86.6525 14.5654 85.9036 15.089 84.7098 15.089C83.1715 15.089 82.1803 14.0793 82.1803 12.4336C82.1803 10.7881 83.3135 9.79688 84.6894 9.79688C85.762 9.79688 86.5715 10.2458 87.0773 11.218L89.8091 9.90903ZM61.984 17.4639L59.2118 12.9384H57.087V17.4639H53.6669V3.99994H59.8391C63.1782 3.99994 65.5052 5.47729 65.5052 8.37577C65.5052 10.2271 64.5136 11.536 62.753 12.3402L65.9504 17.4639H61.984ZM57.107 10.2646H59.657C61.2355 10.2646 62.0045 9.44169 62.0045 8.46917C62.0045 7.30985 61.276 6.67411 59.657 6.67411H57.107V10.2646ZM29.4236 17.2955V15.1824C29.282 15.2199 29.0798 15.2574 28.8572 15.2574C28.4323 15.2574 28.2097 15.0515 28.2097 14.6963V11.1992C28.2097 8.58132 26.3072 7.1977 23.1707 7.1977C21.1269 7.1977 19.3864 7.88968 18.2937 8.7872L20.1353 10.6944C20.8638 10.0962 21.8349 9.72223 22.7864 9.72223C24.2433 9.72223 24.9313 10.3955 24.9313 11.4985V11.8166C24.2433 11.6669 23.3729 11.5173 22.3207 11.5173C19.67 11.5173 17.9496 12.6954 17.9496 14.6401C17.9496 16.641 19.3864 17.6882 21.6127 17.6882C23.1302 17.6882 24.486 17.1087 25.1944 16.3605C25.6192 17.3517 26.5502 17.6135 27.4608 17.6135C28.0882 17.6323 28.8167 17.5385 29.4236 17.2955ZM24.9514 14.1352C24.9514 15.0515 24.0003 15.6501 22.9076 15.6501C21.8755 15.6501 21.3696 15.1636 21.3696 14.4907C21.3696 13.78 21.9364 13.2564 23.0897 13.2564C23.7981 13.2564 24.4254 13.3686 24.9514 13.4807V14.1352ZM101.668 17.4639L97.7623 11.1992L101.425 7.5154H97.7419L93.8766 11.4798V4.01869H90.5781V17.4826H93.8766V15.0515L95.455 13.4995L97.924 17.4826H101.668V17.4639ZM52.7968 17.4639L48.891 11.1992L52.5541 7.5154H48.8304L45.0056 11.4798V4.01869H41.7071V17.4826H45.0056V15.0515L46.5841 13.4995L49.0531 17.4826H52.7968V17.4639ZM103.691 15.5938C104.379 15.5938 104.784 15.9865 104.784 16.5851C104.784 17.1833 104.379 17.576 103.691 17.576C103.004 17.576 102.599 17.1833 102.599 16.5851C102.599 15.9865 103.004 15.5938 103.691 15.5938ZM103.691 17.4451C104.238 17.4451 104.602 17.1458 104.602 16.5851C104.602 16.024 104.217 15.7247 103.691 15.7247C103.145 15.7247 102.781 16.024 102.781 16.5851C102.76 17.1646 103.145 17.4451 103.691 17.4451ZM103.266 16.0799H103.712C103.975 16.0799 104.116 16.2108 104.116 16.3979C104.116 16.5663 104.035 16.6597 103.894 16.716L104.096 17.0712H103.894L103.712 16.7531H103.469V17.0712H103.266V16.0799ZM103.469 16.2296V16.5851H103.691C103.833 16.5851 103.914 16.5476 103.914 16.4167C103.914 16.3045 103.853 16.2483 103.712 16.2483H103.469V16.2296Z" fill="black"/>
<path d="M167.733 1.47246H166.216V18.4036H167.733V1.47246Z" fill="#FF0000"/>
<path d="M187.088 1.47246H191.927V2.88237H190.284V18.4036H188.758V2.88237H187.088V1.47246Z" fill="#FF0000"/>
<path d="M164.835 1.47246V18.4036H163.247L160.975 8.11921V18.4036H159.485V1.47246H160.856L163.345 12.6866V1.47246H164.835Z" fill="#FF0000"/>
<path d="M131.881 1.47246V18.4036H130.39V3.89068L128.551 18.4036H127.311L125.5 3.89068V18.4036H124V1.47246H126.538L127.992 11.678L129.362 1.47246H131.881Z" fill="#FF0000"/>
<path d="M150.334 18.396C151.513 16.7726 152.21 14.7659 152.21 12.5939C152.21 7.18472 147.892 2.80087 142.567 2.80087C137.241 2.80087 132.924 7.18564 132.924 12.5939C132.924 14.7653 133.62 16.7726 134.797 18.396H136.803C135.347 16.9057 134.448 14.8578 134.448 12.5939C134.448 8.0394 138.084 4.34696 142.568 4.34696C147.052 4.34696 150.689 8.04032 150.689 12.5939C150.689 14.8562 149.79 16.9066 148.337 18.396H150.334Z" fill="#FF0000"/>
<path d="M197.416 18.4036H195.933L195.541 14.5889H193.322L192.96 18.4036H191.447L193.158 1.47246H195.47L197.416 18.4036ZM195.403 13.0605L194.394 3.72417L193.463 13.0605H195.403Z" fill="#FF0000"/>
<path d="M179.306 16.275C179.306 17.0363 178.864 17.4261 178.359 17.4261C177.854 17.4261 177.412 17.0363 177.412 16.275V3.49709C177.412 2.73479 177.854 2.3445 178.359 2.3445C178.864 2.3445 179.306 2.73519 179.306 3.49709L179.303 4.10802V7.29723H180.826V4.83889L180.822 4.1283C180.812 2.0203 179.999 1.01543 178.305 1.01543C176.796 1.01543 175.814 2.10282 175.814 3.77039L175.816 4.39189V14.9807L175.814 15.6664C175.814 17.8344 176.642 18.8916 178.341 18.8916C180.036 18.8916 180.826 17.8526 180.826 15.6209V9.4671H178.027V10.9485H179.303V15.714L179.306 16.275Z" fill="#FF0000"/>
<path d="M185.552 15.8704V11.4696L182.079 8.83703V3.92064C182.079 1.98828 182.937 0.999939 184.613 0.999939C186.316 0.999939 187.089 1.9815 187.103 4.1529L187.105 4.82755V7.32153H185.553V3.97594L185.549 3.49641C185.549 2.73365 185.111 2.34383 184.611 2.34383C184.112 2.34383 183.674 2.73451 183.674 3.49641V3.9913V8.10247L187.104 10.7335V15.8204C187.104 17.8108 186.233 18.8762 184.602 18.8762C182.953 18.8762 182.093 17.8707 182.083 15.9306L182.078 15.2606V11.9497H183.671V15.828V16.276C183.671 17.0369 184.11 17.4274 184.609 17.4274C185.11 17.4274 185.547 17.0369 185.547 16.276L185.552 15.8704Z" fill="#FF0000"/>
<path d="M158.569 18.4027H157.048C156.841 17.8328 156.75 17.2967 156.739 16.5812L156.728 15.7148L156.721 15.2767V11.9705C156.721 11.2777 156.306 10.9619 155.825 10.9619H154.743V18.4036H153.255V1.47246H155.196C157.377 1.47246 158.218 2.28216 158.218 4.44797V7.62613C158.218 9.05161 157.983 9.64792 156.884 10.0596C156.9 10.0654 156.915 10.07 156.929 10.0759C157.967 10.3819 158.199 10.7819 158.212 12.1185L158.217 12.7311V15.8233C158.218 16.9498 158.3 17.5603 158.569 18.4027ZM154.743 2.80449V9.50967H155.278C156.26 9.50967 156.722 9.05161 156.722 8.07988V4.62954C156.722 3.23877 156.404 2.80406 155.391 2.80406L154.743 2.80449ZM203.121 18.4027H201.6C201.393 17.8328 201.302 17.2967 201.293 16.5812L201.28 15.7148L201.275 15.2767V11.9705C201.275 11.2777 200.859 10.9619 200.379 10.9619H199.296V18.4036H197.807V1.47246H199.749C201.93 1.47246 202.769 2.28216 202.769 4.44797V7.62613C202.769 9.05161 202.535 9.64792 201.437 10.0596C201.453 10.0654 201.468 10.07 201.483 10.0759C202.52 10.3819 202.753 10.7819 202.764 12.1185L202.769 12.7311V15.8233C202.77 16.9498 202.852 17.5603 203.121 18.4027ZM199.296 2.80449V9.50967H199.83C200.813 9.50967 201.275 9.05161 201.275 8.07988V4.62954C201.275 3.23877 200.958 2.80406 199.943 2.80406L199.296 2.80449Z" fill="#FF0000"/>
<path d="M174.445 1.47246V18.4036H172.857L170.584 8.11921V18.4036H169.095V1.47246H170.464L172.954 12.6866V1.47246H174.445Z" fill="#FF0000"/>
<path d="M203.672 2.92443C203.672 3.76454 204.344 4.44779 205.171 4.44779C205.999 4.44779 206.672 3.76516 206.672 2.92443C206.672 2.08379 205.999 1.40063 205.171 1.40063C204.344 1.40063 203.672 2.08379 203.672 2.92443ZM203.825 2.92443C203.825 2.17055 204.43 1.55682 205.171 1.55682C205.915 1.55682 206.519 2.17098 206.519 2.92443C206.519 3.67871 205.915 4.29172 205.171 4.29172C204.43 4.2908 203.825 3.67828 203.825 2.92443ZM204.648 2.18072H205.317C205.55 2.18072 205.793 2.27171 205.793 2.61331C205.793 2.8059 205.707 2.99088 205.45 3.03404L205.857 3.6842H205.62L205.221 3.04633H204.843V3.6842H204.648V2.18072H204.648ZM204.843 2.87318H205.286C205.468 2.87318 205.599 2.81352 205.599 2.61331C205.599 2.41479 205.469 2.35383 205.286 2.35383H204.843V2.87318Z" fill="#FF0000"/>
<path d="M287.677 14.9364C284.785 14.9364 282.988 13.5617 282.988 11.3458C282.988 9.04612 284.646 7.61536 287.317 7.61536H287.541C287.876 7.61536 288.337 7.62433 288.967 7.68888V4.91302H290.853V14.6862C290.853 14.6862 289.061 14.9364 287.677 14.9364ZM287.66 8.83402C285.833 8.83402 284.944 9.64333 284.944 11.3073C284.944 12.8012 286.017 13.7298 287.739 13.7298C288.07 13.7298 288.449 13.7119 288.966 13.6755V8.93356C288.45 8.86541 288.034 8.83402 287.66 8.83402ZM261.838 14.7122L256.743 7.41584L256.741 14.7122H254.965V5.47528H257.451L262.547 12.7066L262.545 5.47528H264.344V14.7122H261.838ZM278.069 14.8543C277.212 14.8543 276.317 14.7754 275.252 14.6073L275.137 14.5893V13.2989L275.305 13.3285C276.244 13.4931 277.055 13.6334 277.867 13.6334C278.522 13.6334 280.048 13.5491 280.048 12.7577C280.048 12.0942 278.994 11.9274 278.147 11.7942L278.093 11.7852C277.935 11.761 277.785 11.7364 277.66 11.7103C276.417 11.4458 275.091 11.0481 275.091 9.6819C275.091 8.34934 276.377 7.58577 278.618 7.58577C279.694 7.58577 280.475 7.67991 281.103 7.75704L281.408 7.79381V9.04612L281.245 9.02189C280.535 8.91473 279.702 8.80443 278.902 8.80443C278.012 8.80443 276.955 8.94119 276.955 9.59088C276.955 10.1303 277.82 10.2845 278.821 10.4634C280.221 10.7118 281.956 11.0239 281.956 12.5914C281.956 14.0293 280.541 14.8543 278.069 14.8543ZM296.149 14.8543C294.196 14.8543 292.388 14.5718 292.388 12.5264C292.388 10.3002 295.184 10.3002 296.856 10.3002C297.022 10.3002 297.808 10.3303 298.049 10.3388C298.047 9.09005 298.028 8.79233 295.821 8.79233C294.946 8.79233 293.974 8.93401 293.116 9.06045L292.952 9.08468V7.85166L293.063 7.83238C294.057 7.66647 295.016 7.58577 295.994 7.58577C298.133 7.58577 299.945 7.76243 299.945 9.93971V14.688L299.815 14.7001C298.333 14.8364 297.157 14.8543 296.15 14.8543H296.149ZM296.809 11.4019C295.197 11.4019 294.198 11.5964 294.198 12.5649C294.198 13.6859 295.473 13.7787 296.668 13.7787C297.114 13.7787 297.917 13.7316 298.162 13.7172V11.4404C297.817 11.4283 296.918 11.4019 296.809 11.4019ZM269.68 14.8543C267.725 14.8543 265.918 14.5718 265.918 12.5264C265.918 10.3002 268.714 10.3002 270.385 10.3002C270.551 10.3002 271.339 10.3303 271.58 10.3388C271.578 9.09005 271.557 8.79233 269.35 8.79233C268.474 8.79233 267.503 8.93401 266.645 9.06045L266.481 9.08468V7.85166L266.594 7.83238C267.558 7.66889 268.539 7.58624 269.523 7.58577C271.661 7.58577 273.474 7.76243 273.474 9.93971V14.688L273.343 14.7001C271.862 14.8364 270.686 14.8543 269.68 14.8543ZM270.338 11.4019C268.726 11.4019 267.729 11.5964 267.729 12.5649C267.729 13.6859 269.002 13.7787 270.197 13.7787C270.646 13.7787 271.448 13.7316 271.694 13.7172V11.4404C271.346 11.4283 270.447 11.4019 270.338 11.4019" fill="#313131"/>
<mask id="mask0" mask-type="alpha" maskUnits="userSpaceOnUse" x="301" y="7" width="9" height="11">
<path d="M301.176 7.16693H309.388V17.9279H301.176V7.16693Z" fill="white"/>
</mask>
<g mask="url(#mask0)">
<path d="M307.456 17.8513V14.8212C306.72 14.9055 306.329 14.9055 306.013 14.9055C305.266 14.9055 304.436 14.7723 303.793 14.5499C302.354 14.0589 301.496 12.8125 301.496 11.2131C301.496 10.415 301.733 8.95556 303.319 8.16911C304.116 7.77904 305.055 7.61224 306.468 7.61224C306.973 7.61224 307.656 7.64362 308.316 7.67501L309.388 7.72075V17.1491L307.456 17.8513ZM306.327 8.83135C304.41 8.83091 303.439 9.63351 303.439 11.2131C303.439 13.2469 304.888 13.6742 306.106 13.6742C306.403 13.6742 306.736 13.6742 307.474 13.5971V8.87531C306.897 8.84393 306.629 8.83135 306.326 8.83135H306.327Z" fill="#313131"/>
</g>
<mask id="mask1" mask-type="alpha" maskUnits="userSpaceOnUse" x="238" y="0" width="16" height="15">
<path d="M238.881 -6.10352e-05H253.635V14.789H238.881V-6.10352e-05Z" fill="white"/>
</mask>
<g mask="url(#mask1)">
<path d="M246.538 -6.10352e-05L240.298 14.0654C240.221 14.2386 240.086 14.3904 239.909 14.5036C239.731 14.6167 239.519 14.6866 239.295 14.7052V14.7119H245.891C246.407 14.7119 246.849 14.4425 247.014 14.0658L253.255 -6.10352e-05H246.538Z" fill="#0996C7"/>
<path d="M238.756 14.4987C239.139 14.4987 239.474 14.3427 239.679 14.1064C239.7 14.0817 239.775 13.9957 239.828 13.8786L242.117 8.71699L240.778 5.70258C240.7 5.54993 240.573 5.41717 240.412 5.31806C240.25 5.21894 240.059 5.15707 239.859 5.13887C239.658 5.12067 239.456 5.14679 239.272 5.21452C239.088 5.28226 238.929 5.38916 238.812 5.52413C238.79 5.54877 238.701 5.65862 238.663 5.7519L236.374 10.9118L237.719 13.9383C237.807 14.1046 237.951 14.2464 238.136 14.346C238.32 14.4456 238.536 14.4987 238.756 14.4987Z" fill="#0996C7"/>
</g>
<mask id="mask2" mask-type="alpha" maskUnits="userSpaceOnUse" x="224" y="4" width="16" height="16">
<path d="M224.672 4.4765H239.427V19.6301H224.672V4.4765Z" fill="white"/>
</mask>
<g mask="url(#mask2)">
<path d="M239.245 4.91742H232.577C232.06 4.91742 231.618 5.18554 231.452 5.56398L225.212 19.6294H231.93L238.17 5.56443C238.251 5.38143 238.396 5.22237 238.588 5.10747C238.779 4.99255 239.008 4.92702 239.245 4.91921V4.91742Z" fill="#0996C7"/>
</g>
<path d="M342.062 13.8881C337.708 13.8881 333.362 13.8881 329 13.8881C329 9.59596 329 5.31201 329 1.01604C333.354 1.01604 337.7 1.01604 342.062 1.01604C342.062 5.29617 342.062 9.58042 342.062 13.8881ZM329.994 12.8896C331.67 12.8699 333.314 12.8582 334.955 12.8306C335.765 12.8151 336.563 12.6854 337.325 12.3944C338.363 11.9975 339.225 11.3804 339.688 10.339C340.003 9.62765 340.071 8.89634 339.684 8.1891C339.388 7.65053 338.89 7.34398 338.323 7.13953C338.123 7.06883 337.92 7.01779 337.664 6.93918C337.736 6.91542 337.76 6.90779 337.784 6.89987C338.219 6.76611 338.67 6.67194 339.081 6.49506C340.091 6.06649 340.742 5.35132 340.869 4.21932C340.961 3.38594 340.546 2.65904 339.736 2.33666C339.165 2.11255 338.566 2.03394 337.964 2.02602C336.535 2.01047 335.102 2.0222 333.674 2.0222C333.602 2.0222 333.526 2.01838 333.454 2.03393C333.414 2.04185 333.358 2.08498 333.346 2.12047C333.306 2.25013 333.282 2.38389 333.251 2.5332C333.346 2.54494 333.45 2.55285 333.55 2.5725C333.729 2.6077 333.917 2.63147 334.089 2.69043C334.34 2.76904 334.428 2.90251 334.416 3.15801C334.408 3.30732 334.388 3.45693 334.344 3.59832C334.096 4.40002 333.841 5.19791 333.585 5.99579C333.127 7.43815 332.668 8.88462 332.197 10.3232C332.053 10.7673 331.889 11.2076 331.706 11.64C331.566 11.9741 331.303 12.1824 330.932 12.2451C330.68 12.2883 330.425 12.3317 330.169 12.3748C330.114 12.5361 330.057 12.6934 329.994 12.8896Z" fill="#0B3B62"/>
<path d="M380.337 10.0562C380.536 10.0404 380.712 10.0327 380.892 10.009C381.147 9.96966 381.251 9.87139 381.287 9.62C381.31 9.43901 381.319 9.25449 381.319 9.0735C381.319 8.10284 381.322 7.13599 381.307 6.16503C381.303 5.90953 381.251 5.64641 381.179 5.39473C381.059 4.96645 380.716 4.74233 380.261 4.72649C379.926 4.71476 379.602 4.75788 379.307 4.92713C378.88 5.17061 378.728 5.56779 378.724 6.01572C378.712 7.15564 378.721 8.29527 378.721 9.43519C378.721 9.53346 378.736 9.63173 378.764 9.72589C378.808 9.87931 378.9 9.99342 379.084 10.0011C379.223 10.009 379.363 10.0365 379.499 10.0327C379.678 10.0248 379.742 10.0993 379.718 10.2645C379.714 10.292 379.714 10.3155 379.718 10.3431C379.738 10.5041 379.65 10.5514 379.507 10.5434C379.124 10.52 378.736 10.4845 378.353 10.4845C377.703 10.4845 377.052 10.512 376.402 10.5279C376.382 10.5279 376.362 10.5317 376.342 10.5317C376.039 10.5593 375.911 10.3941 376.027 10.119C376.043 10.0758 376.126 10.0445 376.182 10.0404C376.374 10.0207 376.565 10.0207 376.757 10.0011C376.948 9.9855 377.06 9.87139 377.084 9.69069C377.112 9.48242 377.132 9.27415 377.132 9.06558C377.132 7.78838 377.128 6.51088 377.128 5.23368C377.128 5.20229 377.128 5.1668 377.128 5.13541C377.104 4.69892 376.964 4.57718 376.521 4.56926C376.366 4.56544 376.206 4.52614 376.051 4.53787C375.799 4.55753 375.608 4.70684 375.508 4.91922C375.32 5.3123 375.149 5.713 375.005 6.12192C374.598 7.30085 374.207 8.488 373.808 9.67104C373.732 9.89105 373.664 10.1152 373.596 10.3393C373.56 10.461 373.496 10.5161 373.357 10.5082C373.073 10.4924 372.786 10.4845 372.506 10.512C372.303 10.5317 372.235 10.4334 372.187 10.2762C372.028 9.76139 371.864 9.24657 371.708 8.73176C371.413 7.76872 371.122 6.80569 370.826 5.84294C370.814 5.80745 370.798 5.77196 370.77 5.70537C370.599 6.22018 370.435 6.70361 370.271 7.19084C369.928 8.22076 369.577 9.24658 369.242 10.2803C369.182 10.4572 369.102 10.5317 368.907 10.5162C368.655 10.4965 368.404 10.5082 368.148 10.512C367.933 10.512 367.869 10.4689 367.805 10.2645C367.59 9.56485 367.378 8.86142 367.159 8.1618C366.859 7.20668 366.552 6.25157 366.245 5.29645C366.213 5.19818 366.169 5.10402 366.125 5.00956C365.989 4.71857 365.778 4.5458 365.438 4.52614C365.171 4.5103 365.067 4.33342 365.175 4.08202C365.195 4.03098 365.315 3.99959 365.387 3.99959C365.838 4.00341 366.288 4.03479 366.74 4.03098C367.342 4.03098 367.949 4.00722 368.551 3.99167C368.763 3.98757 368.791 4.00722 368.791 4.21549C368.791 4.29821 368.791 4.38475 368.791 4.47891C368.627 4.49857 368.476 4.5144 368.328 4.53787C368.029 4.5851 367.865 4.75788 367.913 5.05269C367.977 5.43403 368.08 5.81127 368.188 6.18469C368.464 7.13981 368.751 8.09111 369.046 9.08935C369.138 8.80246 369.222 8.55869 369.302 8.307C369.737 6.93945 370.172 5.57161 370.599 4.19995C370.643 4.06619 370.703 4.01514 370.85 4.01924C371.15 4.03098 371.449 4.03479 371.748 4.01924C371.908 4.01132 371.96 4.07029 372.004 4.21168C372.474 5.8271 372.953 7.43843 373.428 9.05385C373.428 9.05796 373.436 9.06177 373.468 9.08935C373.512 8.93212 373.552 8.78662 373.592 8.64523C373.907 7.47011 374.231 6.2988 374.542 5.12368C374.626 4.80511 374.486 4.60475 374.163 4.53787C374.083 4.52232 374.003 4.51822 373.927 4.49856C373.851 4.47891 373.716 4.46336 373.712 4.42406C373.688 4.29821 373.696 4.16445 373.72 4.0389C373.724 4.01133 373.851 3.99549 373.919 3.99549C374.502 4.00341 375.089 4.01924 375.671 4.02687C375.803 4.02687 375.939 4.00341 376.071 4.01133C376.298 4.02306 376.525 4.06618 376.753 4.06237C377.316 4.05063 377.882 4.01133 378.445 3.99167C378.701 3.97994 378.704 3.98757 378.704 4.23515C378.704 4.40441 378.704 4.57337 378.704 4.7658C378.764 4.72649 378.804 4.70683 378.832 4.67926C379.495 4.02687 380.321 3.83826 381.223 3.90133C381.462 3.91688 381.706 3.97584 381.933 4.05445C382.536 4.27064 382.831 4.73441 382.871 5.33957C382.911 5.94092 382.911 6.54227 382.915 7.14361C382.923 7.85907 382.915 8.57042 382.919 9.28588C382.919 9.42346 382.935 9.56104 382.963 9.69451C382.999 9.86758 383.102 9.98931 383.294 10.0052C383.486 10.0169 383.677 10.0365 383.869 10.0365C383.992 10.0365 384.04 10.0838 384.029 10.1976C384.024 10.2172 384.029 10.2369 384.029 10.2565C384.029 10.5434 384 10.5475 383.705 10.5396C382.951 10.5162 382.193 10.5041 381.434 10.5003C381.155 10.4965 380.875 10.5279 380.6 10.5396C380.357 10.5514 380.329 10.5279 380.329 10.2803C380.321 10.2055 380.329 10.1307 380.337 10.0562Z" fill="#040404"/>
<path d="M345.535 1.49549C345.535 1.36554 345.535 1.23999 345.535 1.11034C345.535 0.992414 345.623 1.00004 345.707 1.00004C346.034 1.00796 346.357 1.01969 346.684 1.01969C347.622 1.0238 348.556 1.01969 349.494 1.0238C350.136 1.02761 350.787 0.988302 351.421 1.05137C352.547 1.16137 353.269 1.80203 353.297 3.02819C353.313 3.67677 353.178 4.27401 352.671 4.73397C352.32 5.05635 351.885 5.22913 351.426 5.35497C351.286 5.39428 351.146 5.42185 350.986 5.45705C351.358 5.53185 351.717 5.587 352.068 5.67735C353.058 5.93666 353.517 6.62836 353.569 7.57175C353.593 7.98037 353.585 8.3931 353.469 8.79791C353.241 9.58024 352.707 10.0596 351.94 10.3151C351.354 10.5078 350.747 10.555 350.136 10.543C349.486 10.5354 348.835 10.4961 348.185 10.4961C347.383 10.4961 346.58 10.5233 345.778 10.543C345.563 10.5471 345.539 10.5274 345.535 10.323C345.535 10.2758 345.535 10.2326 345.531 10.1854C345.519 10.0519 345.583 10.0006 345.718 10.0006C345.882 10.0006 346.05 9.98886 346.213 9.96539C346.592 9.91025 346.716 9.78441 346.744 9.40336C346.768 9.10444 346.788 8.80201 346.792 8.5031C346.796 6.67559 346.796 4.84808 346.792 3.02438C346.792 2.74512 346.78 2.46234 346.748 2.18308C346.684 1.64861 346.604 1.63688 346.113 1.55446C345.942 1.52278 345.762 1.51514 345.535 1.49549ZM348.58 9.87886C349.139 9.93783 349.67 9.95367 350.2 9.87886C350.863 9.78441 351.354 9.4544 351.529 8.79028C351.685 8.20066 351.685 7.60313 351.549 7.00589C351.401 6.36905 350.978 6.01146 350.348 5.8777C349.757 5.75186 349.163 5.78354 348.58 5.83458C348.58 7.18658 348.58 8.53067 348.58 9.87886ZM348.568 5.23323C349.183 5.2567 349.805 5.28809 350.404 5.0719C350.871 4.90293 351.174 4.58084 351.298 4.10504C351.418 3.64919 351.418 3.18924 351.342 2.72957C351.238 2.12412 350.875 1.74688 350.264 1.63688C349.705 1.5348 349.147 1.62104 348.564 1.63688C348.568 2.83957 348.568 4.03054 348.568 5.23323Z" fill="#040404"/>
<path d="M391.059 3.95609C391.519 3.95609 391.965 3.96019 392.409 3.95609C393.267 3.94435 394.125 3.91678 394.978 3.92089C395.617 3.9247 396.208 4.09367 396.659 4.58501C396.986 4.9467 397.174 5.37498 397.261 5.84286C397.373 6.43629 397.409 7.02972 397.361 7.63488C397.325 8.10657 397.265 8.56653 397.11 9.01446C396.795 9.93438 396.068 10.4647 395.086 10.4923C394.152 10.5199 393.215 10.4727 392.281 10.4689C391.806 10.4689 391.327 10.4964 390.852 10.5002C390.612 10.5002 390.373 10.4689 390.138 10.4689C389.727 10.4727 389.315 10.4923 388.904 10.5041C388.84 10.5041 388.777 10.5041 388.697 10.5041C388.689 10.402 388.681 10.3233 388.673 10.2251C388.832 10.2016 388.98 10.1779 389.128 10.1623C389.423 10.1268 389.563 9.94993 389.467 9.67478C389.252 9.06169 389.016 8.45242 388.793 7.84345C388.773 7.7883 388.753 7.73315 388.729 7.6783C388.701 7.67419 388.673 7.67038 388.649 7.67038C387.891 7.67038 387.132 7.67038 386.338 7.67038C386.127 8.28757 385.891 8.90446 385.7 9.53338C385.572 9.95403 385.747 10.1623 386.194 10.2016C386.286 10.2095 386.378 10.2016 386.486 10.2016C386.486 10.2999 386.486 10.3864 386.486 10.4844C385.727 10.4844 384.977 10.4844 384.211 10.4844C384.211 10.3981 384.211 10.3195 384.211 10.233C384.223 10.2251 384.243 10.2133 384.259 10.2095C384.702 10.1899 384.965 9.95403 385.133 9.55685C385.448 8.79446 385.787 8.03999 386.111 7.2773C386.506 6.33392 386.893 5.38672 387.28 4.44363C387.336 4.31397 387.396 4.1802 387.432 4.04263C387.472 3.8854 387.567 3.84608 387.719 3.84608C388.226 3.85019 388.182 3.78713 388.365 4.29813C388.617 4.99393 388.884 5.68562 389.152 6.37732C389.527 7.34799 389.91 8.31484 390.289 9.28169C390.357 9.45476 390.429 9.63165 390.513 9.80062C390.672 10.1151 391.02 10.2527 391.467 10.1937C391.842 10.1427 391.91 10.0758 391.942 9.69854C391.961 9.49026 391.974 9.28169 391.974 9.07342C391.977 7.7883 391.977 6.50698 391.974 5.22185C391.974 4.99393 391.949 4.76571 391.91 4.54189C391.87 4.3257 391.77 4.26263 391.55 4.2509C391.458 4.24708 391.367 4.24297 391.271 4.23916C391.028 4.23124 391 4.19604 391.059 3.95609ZM392.823 10.123C393.482 10.123 394.108 10.174 394.723 10.1113C395.502 10.0326 396.056 9.61992 396.208 8.81792C396.291 8.37791 396.355 7.92969 396.387 7.48557C396.431 6.82937 396.403 6.16906 396.204 5.53221C396.02 4.95052 395.681 4.49848 395.054 4.35709C394.679 4.27466 394.28 4.25882 393.893 4.2509C393.542 4.24708 393.187 4.29431 392.823 4.32159C392.823 6.27495 392.823 8.18519 392.823 10.123ZM388.609 7.32452C388.25 6.44421 387.903 5.59118 387.556 4.74225C387.539 4.74606 387.524 4.75016 387.507 4.75397C387.176 5.6029 386.845 6.45183 386.502 7.32452C387.212 7.32452 387.887 7.32452 388.609 7.32452Z" fill="#0B3B62"/>
<path d="M342.07 15.837C342.07 16.4897 342.07 17.1304 342.07 17.7828C337.712 17.7828 333.362 17.7828 329 17.7828C329 17.138 329 16.4935 329 15.837C333.35 15.837 337.7 15.837 342.07 15.837Z" fill="#0B3B62"/>
<path d="M362.652 3.84915C363.047 3.92777 363.494 3.98292 363.925 4.10876C364.668 4.32085 365.171 4.82011 365.418 5.53528C365.789 6.61243 365.809 7.71685 365.494 8.80925C365.223 9.74472 364.572 10.3029 363.614 10.5191C362.78 10.7116 361.942 10.7157 361.116 10.5033C360.162 10.2598 359.567 9.63471 359.328 8.69925C359.08 7.7324 359.092 6.75763 359.332 5.79078C359.591 4.74942 360.33 4.195 361.359 3.99465C361.762 3.91603 362.181 3.90049 362.652 3.84915ZM364.001 7.41794C363.953 6.77728 363.925 6.23108 363.866 5.68488C363.83 5.3625 363.73 5.04804 363.486 4.80427C363.091 4.40357 362.588 4.35634 362.066 4.43877C361.69 4.49773 361.363 4.6667 361.2 5.01665C361.084 5.26012 360.984 5.53146 360.964 5.79488C360.908 6.46282 360.884 7.13897 360.884 7.81102C360.884 8.19236 360.94 8.57751 361 8.95886C361.048 9.26921 361.164 9.56784 361.411 9.78403C362.245 10.5074 363.594 10.0985 363.822 9.03748C363.937 8.47925 363.949 7.90137 364.001 7.41794Z" fill="#040404"/>
<path d="M401.524 4.22325C401.524 4.11706 401.524 4.03082 401.524 3.93637C403.097 3.93637 404.653 3.93637 406.234 3.93637C406.238 4.01498 406.242 4.10151 406.246 4.21152C406.078 4.22736 405.918 4.25082 405.763 4.25082C405.531 4.25082 405.408 4.35291 405.368 4.62425C405.34 4.81287 405.328 5.00148 405.328 5.1901C405.324 6.55795 405.324 7.92961 405.328 9.29746C405.328 9.50573 405.368 9.71019 405.391 9.91846C405.412 10.0836 405.527 10.1464 405.679 10.166C405.855 10.1857 406.034 10.2015 406.226 10.2212C406.226 10.3036 406.226 10.3902 406.226 10.4884C405.344 10.4884 404.466 10.4884 403.572 10.4884C403.572 10.4057 403.572 10.3195 403.572 10.225C403.759 10.2092 403.935 10.1857 404.11 10.1778C404.29 10.166 404.394 10.0757 404.422 9.90262C404.446 9.72984 404.474 9.55296 404.474 9.37607C404.478 7.95337 404.478 6.53449 404.47 5.11149C404.47 4.89941 404.442 4.68321 404.402 4.47494C404.374 4.32563 404.246 4.25464 404.091 4.25875C403.859 4.25875 403.628 4.25874 403.396 4.25464C403.213 4.25082 403.089 4.34909 403.017 4.49459C402.841 4.85598 402.67 5.2256 402.522 5.59902C402.231 6.32621 401.947 7.06103 401.668 7.79614C401.333 8.67645 401.005 9.56087 400.67 10.445C400.658 10.4767 400.642 10.504 400.622 10.5433C400.447 10.5433 400.271 10.5395 400.092 10.5433C399.968 10.5474 399.936 10.457 399.908 10.3743C399.808 10.0992 399.72 9.82019 399.621 9.54503C399.301 8.66472 398.982 7.78411 398.651 6.90791C398.387 6.20829 398.104 5.51629 397.829 4.82078C397.677 4.43944 397.438 4.1684 396.967 4.21533C396.967 4.11325 396.967 4.03082 396.967 3.92463C397.118 3.92463 397.262 3.92463 397.406 3.92463C398.076 3.92463 398.747 3.92082 399.417 3.92082C399.513 3.92082 399.625 3.8774 399.641 4.03463C399.657 4.17602 399.585 4.23117 399.453 4.24701C399.333 4.25874 399.218 4.2784 399.102 4.30598C398.83 4.36875 398.719 4.53771 398.802 4.79702C398.962 5.29629 399.134 5.79556 399.317 6.2869C399.7 7.32034 400.092 8.35407 400.483 9.38399C400.511 9.45468 400.543 9.52157 400.619 9.59608C400.718 9.34058 400.826 9.08508 400.918 8.82577C401.321 7.67822 401.724 6.53038 402.119 5.38283C402.191 5.17456 402.251 4.95837 402.267 4.74218C402.291 4.45529 402.135 4.29805 401.844 4.25464C401.74 4.2429 401.632 4.23499 401.524 4.22325Z" fill="#0B3B62"/>
<path d="M353.613 4.08546C353.669 4.07783 353.701 4.0658 353.729 4.0658C354.487 4.03852 355.241 4.01476 355.999 3.99129C356.259 3.98337 356.279 4.00684 356.283 4.26645C356.283 4.41576 356.283 4.56888 356.283 4.74577C356.414 4.59264 356.522 4.45096 356.65 4.32922C357.097 3.90094 357.64 3.77891 358.231 3.92822C358.721 4.05025 358.961 4.41957 359.037 4.89126C359.065 5.05231 359.061 5.21746 359.049 5.37879C359.021 5.71672 358.889 5.84257 358.55 5.86985C358.41 5.88188 358.27 5.88188 358.131 5.86603C357.875 5.84257 357.787 5.7443 357.764 5.49261C357.752 5.36295 357.747 5.22919 357.716 5.10364C357.616 4.71849 357.233 4.58091 356.889 4.7971C356.574 5.00126 356.463 5.32746 356.407 5.66157C356.347 6.0391 356.311 6.42807 356.303 6.80941C356.291 7.72111 356.303 8.629 356.315 9.541C356.319 9.86719 356.451 9.98102 356.778 10.0007C356.977 10.0127 357.177 10.0282 357.376 10.0323C357.484 10.0323 357.536 10.0755 357.536 10.1817C357.536 10.1934 357.536 10.2092 357.536 10.221C357.54 10.5354 357.512 10.5627 357.189 10.5392C356.079 10.4606 354.974 10.4489 353.864 10.5392C353.637 10.5589 353.605 10.5275 353.605 10.2955C353.605 10.2169 353.605 10.1423 353.605 10.0558C353.852 10.04 354.076 10.0323 354.295 10.0048C354.555 9.97338 354.654 9.87101 354.683 9.61962C354.703 9.41135 354.723 9.20278 354.723 8.9945C354.726 7.86661 354.726 6.74254 354.723 5.61435C354.723 5.41018 354.706 5.20953 354.686 5.00918C354.659 4.73021 354.527 4.60056 354.239 4.58472C354.088 4.57299 353.932 4.58091 353.781 4.58091C353.661 4.58091 353.593 4.53749 353.605 4.40402C353.617 4.29783 353.613 4.19164 353.613 4.08546Z" fill="#040404"/>
<path d="M418.805 7.1396C418.789 7.72511 418.733 8.29918 418.55 8.85711C418.235 9.80431 417.552 10.327 416.586 10.5315C415.908 10.677 415.217 10.7046 414.531 10.6101C413.936 10.5277 413.37 10.3467 412.947 9.89085C412.659 9.58431 412.472 9.2188 412.356 8.8178C412.08 7.85506 412.053 6.8803 412.272 5.90142C412.52 4.78526 413.234 4.11702 414.355 3.88528C415.213 3.7084 416.075 3.70459 416.93 3.94807C417.907 4.22322 418.582 5.00145 418.698 5.98795C418.741 6.3731 418.769 6.75826 418.805 7.1396ZM417.796 7.19857C417.811 7.19857 417.823 7.19476 417.84 7.19476C417.788 6.7348 417.764 6.27103 417.68 5.81899C417.556 5.14695 417.221 4.59283 416.554 4.30975C416.08 4.1094 415.581 4.06598 415.058 4.12905C414.1 4.23905 413.561 4.80491 413.31 5.65003C413.126 6.26311 413.094 6.89584 413.122 7.52887C413.142 8.02784 413.198 8.52711 413.358 9.01053C413.549 9.58812 413.924 9.98119 414.507 10.1895C415.014 10.3663 415.537 10.3784 416.051 10.276C416.798 10.1305 417.321 9.71396 417.564 8.97504C417.752 8.39334 417.816 7.80373 417.796 7.19857Z" fill="#0B3B62"/>
<path d="M421.488 10.2053C421.488 10.3195 421.488 10.4019 421.488 10.4884C420.606 10.4884 419.731 10.4884 418.846 10.4884C418.846 10.4057 418.846 10.3195 418.846 10.2288C419.013 10.2092 419.177 10.1857 419.34 10.174C419.568 10.1622 419.692 10.0678 419.708 9.75741C419.731 9.32503 419.744 8.89646 419.744 8.46407C419.748 7.42271 419.751 6.38106 419.744 5.33941C419.74 5.06836 419.704 4.79703 419.676 4.52217C419.656 4.32944 419.52 4.26666 419.345 4.25463C419.181 4.2429 419.013 4.23117 418.838 4.21943C418.838 4.12498 418.838 4.04255 418.838 3.92463C418.949 3.92463 419.065 3.92463 419.181 3.92463C419.943 3.92463 420.709 3.92081 421.472 3.93255C421.983 3.94047 422.493 3.94428 423 4.00324C423.595 4.07394 423.882 4.42771 423.998 4.98975C424.05 5.23733 424.026 5.50456 424.014 5.76416C423.986 6.28279 423.443 6.82929 422.741 6.97068C422.621 6.99414 422.501 7.02172 422.354 7.05311C422.573 7.38722 422.777 7.68995 422.976 7.99268C423.323 8.50749 423.671 9.0223 424.022 9.53711C424.122 9.68261 424.238 9.82019 424.357 9.94985C424.537 10.1426 424.776 10.2133 425.039 10.2133C425.039 10.3154 425.039 10.3981 425.039 10.5081C424.892 10.5001 424.748 10.4884 424.604 10.4884C424.317 10.4884 424.034 10.4922 423.751 10.504C423.655 10.5081 423.595 10.4805 423.543 10.3981C422.972 9.51364 422.394 8.63334 421.815 7.75273C421.671 7.53272 421.52 7.29687 421.236 7.25375C421.029 7.22207 420.817 7.24583 420.582 7.24583C420.582 7.32033 420.582 7.39895 420.582 7.48168C420.594 8.2206 420.602 8.95953 420.618 9.69845C420.621 9.9695 420.709 10.1188 420.877 10.1502C421.013 10.1778 421.152 10.1857 421.292 10.1974C421.348 10.2092 421.408 10.2053 421.488 10.2053ZM420.602 6.91172C421.188 6.89206 421.791 6.99414 422.37 6.7583C422.625 6.6524 422.829 6.48725 422.944 6.24348C423.148 5.81902 423.176 5.3749 423.024 4.93078C422.908 4.59285 422.669 4.36083 422.306 4.30186C421.747 4.2077 421.184 4.25463 420.602 4.27839C420.602 5.15871 420.602 6.01938 420.602 6.91172Z" fill="#0B3B62"/>
<path d="M411.227 4.10934C411.227 4.64762 411.227 5.16654 411.227 5.701C411.055 5.701 410.891 5.701 410.712 5.701C410.692 5.52823 410.676 5.35515 410.656 5.18237C410.648 5.10376 410.628 5.02896 410.616 4.95035C410.56 4.47866 410.253 4.24281 409.814 4.15657C409.363 4.06593 408.92 4.07384 408.497 4.28211C408.066 4.49449 407.85 4.84416 407.854 5.30411C407.854 5.75205 408.05 6.12165 408.481 6.31027C408.888 6.48715 409.311 6.62855 409.73 6.78989C410.161 6.95474 410.592 7.11989 410.959 7.40678C411.594 7.90194 411.653 8.73151 411.382 9.40355C411.103 10.0991 410.516 10.4373 409.81 10.5787C408.824 10.779 407.866 10.6376 406.936 10.268C406.829 10.2249 406.773 10.1659 406.78 10.0363C406.801 9.57251 406.809 9.10874 406.824 8.64497C406.824 8.60156 406.856 8.51912 406.876 8.51912C407.032 8.5112 407.192 8.5112 407.347 8.52294C407.371 8.52705 407.395 8.61358 407.403 8.66462C407.447 8.97498 407.479 9.28563 407.535 9.59217C407.583 9.84356 407.751 10.0363 407.986 10.1346C408.712 10.4373 409.427 10.4294 410.113 10.0166C410.879 9.54905 410.919 8.27947 409.985 7.84298C409.514 7.62708 409.015 7.46985 408.533 7.28504C408.078 7.11197 407.631 6.92746 407.351 6.50681C406.745 5.60274 407.008 4.24691 408.409 3.88904C409.291 3.66111 410.34 3.78314 411.227 4.10934Z" fill="#0B3B62"/>
<path d="M427.071 3.93631C427.071 4.02284 427.071 4.10938 427.071 4.19181C426.883 4.23903 426.696 4.27042 426.52 4.3373C426.277 4.43176 426.205 4.5928 426.328 4.82072C426.52 5.17831 426.736 5.52035 426.947 5.8662C427.234 6.33378 427.526 6.80166 427.817 7.26543C427.833 7.293 427.857 7.31266 427.893 7.35988C428.092 7.00993 428.284 6.67581 428.472 6.3458C428.723 5.90169 428.971 5.45757 429.218 5.01345C429.266 4.92692 429.314 4.84038 429.35 4.75003C429.449 4.47869 429.338 4.29799 429.05 4.25869C428.939 4.24285 428.827 4.23111 428.707 4.21556C428.707 4.12111 428.707 4.02666 428.707 3.94041C429.405 3.94041 430.088 3.94041 430.766 3.94041C430.814 4.20765 430.806 4.18007 430.575 4.2625C430.391 4.32938 430.2 4.44731 430.076 4.5928C429.82 4.90727 429.597 5.249 429.377 5.59104C428.962 6.23962 428.559 6.89993 428.144 7.55232C428.049 7.70573 427.989 7.85886 427.993 8.04747C428.005 8.53882 427.993 9.03017 427.997 9.52152C427.997 9.65118 428.02 9.78083 428.044 9.90667C428.072 10.0677 428.18 10.1543 428.344 10.166C428.555 10.1856 428.763 10.2015 428.994 10.2249C428.998 10.3115 429.002 10.4018 429.006 10.4884C428.02 10.4884 427.067 10.4884 426.101 10.4884C426.101 10.4018 426.101 10.3115 426.101 10.2249C426.328 10.2053 426.552 10.1856 426.775 10.1622C426.987 10.1425 427.063 10.0756 427.087 9.87529C427.11 9.68256 427.127 9.48602 427.131 9.28948C427.139 8.87675 427.122 8.46431 427.139 8.05158C427.147 7.804 427.087 7.58371 426.951 7.38717C426.324 6.45963 425.698 5.53208 425.063 4.60835C424.92 4.40007 424.708 4.28626 424.457 4.24695C424.205 4.21146 424.193 4.1918 424.249 3.92838C425.187 3.9363 426.125 3.93631 427.071 3.93631Z" fill="#0B3B62"/>
<path d="M347.372 13.6408C347.064 13.6563 346.773 13.6722 346.482 13.6877C346.278 13.6956 346.15 13.8097 346.074 13.9825C346.011 14.1318 345.959 14.2853 345.895 14.4504C345.831 14.4504 345.763 14.4504 345.671 14.4504C345.699 14.0456 345.731 13.6446 345.759 13.2163C345.823 13.2319 345.903 13.2239 345.935 13.2594C346.051 13.3812 346.19 13.3812 346.338 13.3812C347.355 13.3774 348.373 13.3812 349.391 13.3774C349.503 13.3774 349.614 13.3577 349.726 13.338C349.762 13.3301 349.818 13.2946 349.818 13.2753C349.802 13.0864 349.954 13.1022 350.065 13.0667C350.165 13.0353 350.265 13.0077 350.385 12.9725C350.385 13.7074 350.385 14.4228 350.385 15.1735C350.509 15.0831 350.604 15.0083 350.704 14.9456C350.971 14.7725 351.259 14.6783 351.586 14.7332C352.113 14.8238 352.316 15.2363 352.336 15.7C352.356 16.1444 352.34 16.5924 352.34 17.0365C352.34 17.453 352.392 17.512 352.811 17.5592C352.815 17.622 352.819 17.6851 352.819 17.7637C352.324 17.7637 351.837 17.7637 351.335 17.7637C351.335 17.7006 351.335 17.6378 351.335 17.5789C351.35 17.5671 351.359 17.5554 351.37 17.5554C351.734 17.5082 351.782 17.4571 351.782 17.0916C351.782 16.6906 351.782 16.2938 351.782 15.8928C351.782 15.8141 351.773 15.7355 351.758 15.661C351.666 15.1893 351.335 15.0597 350.856 15.1852C350.716 15.2207 350.592 15.3269 350.472 15.4172C350.429 15.4486 350.389 15.5234 350.389 15.5824C350.389 16.101 350.381 16.6158 350.401 17.1348C350.417 17.4965 350.453 17.5161 350.836 17.563C350.84 17.5985 350.852 17.634 350.852 17.6692C350.852 17.7006 350.844 17.7323 350.84 17.7716C350.341 17.7716 349.854 17.7716 349.351 17.7716C349.351 17.7006 349.351 17.6378 349.351 17.5751C349.363 17.5671 349.371 17.5554 349.383 17.5554C349.774 17.5161 349.826 17.4648 349.826 17.0875C349.826 15.9676 349.826 14.8473 349.826 13.6956C349.211 13.6956 348.605 13.6956 347.978 13.6956C347.978 13.7311 347.978 13.7939 347.978 13.857C347.978 14.8708 347.982 15.8889 347.978 16.9027C347.974 17.5003 348.078 17.4844 348.541 17.5475C348.577 17.5513 348.617 17.5554 348.661 17.5592C348.661 17.634 348.661 17.6968 348.661 17.7716C348.01 17.7716 347.36 17.7716 346.701 17.7716C346.697 17.7047 346.693 17.6417 346.689 17.5671C346.805 17.5513 346.912 17.5316 347.024 17.5161C347.244 17.4844 347.328 17.4099 347.355 17.1937C347.364 17.1309 347.372 17.0641 347.372 16.9972C347.372 15.8889 347.372 14.7804 347.372 13.6408Z" fill="#040404"/>
<path d="M401.968 17.8375C401.816 17.7041 401.653 17.59 401.529 17.4448C401.393 17.2834 401.441 17.1775 401.621 17.0672C401.764 16.981 401.896 16.8707 402.02 16.7765C401.876 16.6389 401.728 16.5369 401.629 16.3993C401.313 15.959 401.425 15.3262 401.864 15.0039C402.251 14.7208 402.682 14.6225 403.137 14.7994C403.381 14.8977 403.616 14.878 403.859 14.8584C404.011 14.8428 404.159 14.8232 404.311 14.8073C404.342 15.0825 404.107 15.2318 403.716 15.2004C403.764 15.3694 403.839 15.5345 403.851 15.7073C403.915 16.4621 403.277 16.8158 402.778 16.8393C402.646 16.8472 402.511 16.8355 402.379 16.8355C402.231 16.8355 402.1 16.9376 402.088 17.0713C402.076 17.2206 402.179 17.2993 402.299 17.311C402.57 17.3345 402.842 17.3268 403.113 17.3386C403.317 17.3503 403.528 17.3503 403.72 17.4054C404.243 17.5627 404.362 18.0854 404.139 18.5568C403.768 19.3391 402.535 19.7202 401.768 19.2998C401.692 19.2605 401.625 19.2054 401.561 19.1505C401.206 18.8361 401.21 18.4626 401.577 18.152C401.712 18.0382 401.852 17.932 401.968 17.8375ZM403.748 18.3682C403.744 18.1324 403.64 17.9792 403.401 17.9044C403.057 17.7982 402.706 17.7944 402.359 17.8768C402.135 17.9282 401.888 18.2347 401.864 18.4468C401.844 18.6592 401.996 18.8871 402.263 19.0009C402.646 19.1623 403.037 19.1505 403.409 18.954C403.632 18.8281 403.748 18.6237 403.748 18.3682ZM403.269 15.8176C403.273 15.5463 403.209 15.3025 403.005 15.106C402.798 14.9056 402.479 14.9056 402.279 15.1139C401.96 15.4401 401.996 16.1752 402.343 16.4738C402.566 16.6665 402.842 16.6545 403.053 16.4503C403.229 16.2734 403.269 16.0532 403.269 15.8176Z" fill="#040404"/>
<path d="M363.207 14.8037C363.043 15.1772 362.96 15.2244 362.532 15.2009C362.564 15.2716 362.596 15.3306 362.624 15.3934C362.896 16.0851 362.409 16.8043 361.65 16.836C361.511 16.8398 361.371 16.836 361.231 16.836C361.084 16.8319 360.924 16.946 360.924 17.0757C360.924 17.2132 361.02 17.2998 361.148 17.3074C361.411 17.3271 361.674 17.3232 361.938 17.3391C362.121 17.3467 362.309 17.3546 362.488 17.3901C363.019 17.4963 363.167 17.9363 363.039 18.3963C362.903 18.8835 362.524 19.1587 362.07 19.3318C361.563 19.5242 361.044 19.5597 360.565 19.2611C360.413 19.1666 360.285 19.0056 360.198 18.8442C360.086 18.64 360.13 18.4239 360.309 18.2549C360.473 18.1015 360.645 17.9639 360.812 17.8184C360.681 17.7163 360.553 17.6219 360.433 17.516C360.381 17.4687 360.353 17.398 360.321 17.335C360.253 17.2132 360.29 17.1464 360.417 17.0757C360.585 16.9891 360.728 16.8633 360.9 16.7454C360.401 16.494 360.253 16.1009 360.302 15.7196C360.369 15.1968 360.708 14.8589 361.223 14.741C361.483 14.682 361.742 14.6741 361.982 14.7841C362.237 14.902 362.493 14.8627 362.756 14.8392C362.896 14.8392 363.035 14.8234 363.207 14.8037ZM361.678 17.8146C361.355 17.8105 361.06 17.8656 360.844 18.1408C360.645 18.3922 360.673 18.699 360.932 18.8953C361.303 19.1783 361.981 19.1783 362.341 18.8835C362.536 18.7225 362.628 18.5142 362.576 18.2587C362.528 18.0229 362.349 17.9167 362.129 17.8694C361.982 17.8381 361.83 17.8301 361.678 17.8146ZM362.133 15.8219C362.101 15.6764 362.082 15.5192 362.03 15.3737C361.946 15.1261 361.706 14.9492 361.487 14.9572C361.231 14.9651 361.068 15.1106 360.984 15.3344C360.86 15.6606 360.872 15.9909 361.044 16.2974C361.16 16.5019 361.339 16.6354 361.598 16.604C361.842 16.5726 361.986 16.4154 362.057 16.1953C362.089 16.0774 362.105 15.9554 362.133 15.8219Z" fill="#040404"/>
<path d="M364.384 15.134C364.659 15.0002 364.903 14.8471 365.17 14.7567C365.553 14.6271 366.104 14.8037 366.26 15.3502C366.312 15.5309 366.332 15.7236 366.34 15.9081C366.352 16.2856 366.344 16.6667 366.344 17.048C366.344 17.4725 366.367 17.5 366.794 17.5669C366.799 17.6259 366.802 17.6887 366.807 17.7635C366.312 17.7635 365.837 17.7635 365.346 17.7635C365.346 17.7004 365.346 17.6338 365.346 17.5669C365.761 17.4842 365.793 17.4528 365.789 17.0401C365.785 16.596 365.793 16.148 365.757 15.7077C365.717 15.2205 365.342 15.0712 364.895 15.1695C364.799 15.1891 364.711 15.2402 364.627 15.2871C364.468 15.3777 364.384 15.4915 364.392 15.696C364.412 16.1518 364.396 16.6118 364.396 17.0715C364.396 17.4607 364.44 17.508 364.839 17.5628C364.843 17.6218 364.847 17.6848 364.851 17.7635C364.348 17.7635 363.861 17.7635 363.37 17.7635C363.37 17.6925 363.37 17.6297 363.37 17.559C363.41 17.5552 363.442 17.5511 363.474 17.5473C363.773 17.508 363.833 17.4449 363.837 17.1463C363.837 16.0615 363.837 14.9729 363.837 13.8881C363.837 13.483 363.805 13.4517 363.374 13.4123C363.37 13.3534 363.366 13.2944 363.362 13.2316C363.709 13.153 364.041 13.0744 364.392 12.9958C364.384 13.7113 364.384 14.4305 364.384 15.134Z" fill="#040404"/>
<path d="M382.128 14.7286C382.128 14.8821 382.128 15.0314 382.128 15.2121C382.308 15.098 382.468 15 382.623 14.8976C382.934 14.6931 383.262 14.6462 383.597 14.8269C383.936 15.0076 384.044 15.3262 384.052 15.6796C384.064 16.1513 384.052 16.623 384.06 17.0947C384.064 17.4799 384.096 17.5074 384.491 17.5623C384.495 17.6254 384.499 17.6881 384.503 17.7629C384.02 17.7629 383.545 17.7629 383.054 17.7629C383.054 17.6999 383.054 17.6371 383.054 17.5623C383.086 17.5585 383.114 17.5506 383.146 17.5467C383.405 17.5074 383.485 17.4523 383.489 17.2009C383.501 16.7057 383.489 16.2065 383.473 15.7113C383.457 15.2121 383.014 15.0352 382.571 15.2121C382.535 15.2279 382.499 15.2476 382.464 15.2593C382.224 15.3614 382.1 15.5107 382.12 15.7976C382.148 16.2223 382.124 16.6468 382.128 17.0751C382.132 17.4719 382.172 17.5113 382.567 17.5585C382.571 17.6174 382.575 17.6802 382.583 17.7588C382.076 17.7588 381.586 17.7588 381.079 17.7588C381.075 17.6961 381.075 17.6333 381.071 17.5781C381.091 17.5623 381.099 17.5506 381.111 17.5506C381.514 17.5154 381.554 17.4837 381.566 17.0947C381.578 16.6034 381.578 16.112 381.566 15.621C381.558 15.2476 381.538 15.2355 381.163 15.1569C381.158 15.1059 381.155 15.0469 381.155 14.9921C381.474 14.9093 381.789 14.8231 382.128 14.7286Z" fill="#040404"/>
<path d="M397.545 17.7675C397.541 17.6968 397.537 17.6378 397.533 17.5827C397.561 17.5671 397.569 17.5554 397.581 17.5513C397.992 17.5082 398.031 17.4647 398.031 17.0523C398.031 16.5686 398.031 16.0852 398.031 15.5979C398.031 15.2914 398.007 15.2717 397.708 15.1814C397.668 15.1696 397.616 15.1028 397.621 15.0673C397.624 15.028 397.676 14.969 397.72 14.9573C398.004 14.8787 398.291 14.8118 398.586 14.7373C398.586 14.8825 398.586 15.0359 398.586 15.2245C398.794 15.0948 398.973 14.9731 399.161 14.859C399.66 14.5604 400.346 14.7373 400.494 15.429C400.522 15.5624 400.526 15.7 400.526 15.8376C400.53 16.2582 400.526 16.6748 400.526 17.0954C400.526 17.4647 400.566 17.512 400.949 17.5592C400.949 17.622 400.949 17.6889 400.949 17.7754C400.706 17.7754 400.466 17.7754 400.231 17.7754C399.999 17.7754 399.767 17.7754 399.524 17.7754C399.524 17.7006 399.524 17.6378 399.524 17.5592C399.576 17.5513 399.624 17.5475 399.676 17.5395C399.879 17.5002 399.947 17.4254 399.951 17.2213C399.955 16.7299 399.959 16.2386 399.947 15.7472C399.935 15.2914 399.592 15.0555 399.145 15.1814C399.093 15.1969 399.045 15.2128 398.997 15.2324C398.722 15.3462 398.55 15.4997 398.582 15.8417C398.622 16.2503 398.59 16.6669 398.59 17.0796C398.59 17.4727 398.63 17.5161 399.037 17.563C399.037 17.6261 399.037 17.693 399.037 17.7713C398.534 17.7675 398.047 17.7675 397.545 17.7675Z" fill="#040404"/>
<path d="M356.415 15.0513C356.415 14.9844 356.415 14.9334 356.415 14.8744C356.742 14.839 357.061 14.8038 357.401 14.7683C357.401 14.902 357.401 15.0434 357.401 15.1848C357.401 15.7154 357.393 16.2461 357.405 16.7727C357.417 17.2485 357.764 17.4881 358.227 17.3584C358.335 17.3271 358.434 17.2798 358.534 17.2288C358.67 17.154 358.734 17.0519 358.73 16.8829C358.714 16.4268 358.726 15.9671 358.726 15.5072C358.726 15.1651 358.722 15.1575 358.374 15.0865C358.323 15.0748 358.271 15.0669 358.207 15.0551C358.203 15.0003 358.203 14.9451 358.199 14.902C358.211 14.8862 358.215 14.8744 358.219 14.8744C358.566 14.839 358.917 14.8038 359.292 14.7683C359.292 14.8193 359.292 14.8744 359.292 14.9293C359.292 15.6213 359.292 16.3168 359.292 17.0085C359.292 17.3271 359.352 17.3819 359.676 17.386C359.716 17.386 359.751 17.3898 359.803 17.3936C359.803 17.4646 359.803 17.5274 359.803 17.5864C359.46 17.6688 359.121 17.7515 358.746 17.8419C358.746 17.6805 358.746 17.5236 358.746 17.3426C358.522 17.4843 358.339 17.6098 358.143 17.7122C357.484 18.0581 356.85 17.6805 356.838 16.9419C356.834 16.5213 356.838 16.1047 356.838 15.6841C356.838 15.6448 356.838 15.6055 356.838 15.5661C356.834 15.1693 356.818 15.1455 356.415 15.0513Z" fill="#040404"/>
<path d="M371.421 15.0511C371.421 14.9959 371.421 14.9408 371.421 14.8742C371.748 14.8387 372.072 14.8032 372.411 14.768C372.411 14.9801 372.411 15.2004 372.411 15.4204C372.411 15.8528 372.411 16.2852 372.411 16.7176C372.415 17.2599 372.806 17.5272 373.321 17.3424C373.656 17.2206 373.748 17.0948 373.744 16.7448C373.74 16.3007 373.74 15.8566 373.728 15.4087C373.724 15.1611 373.7 15.1453 373.441 15.098C373.369 15.0863 373.297 15.0707 373.213 15.0511C373.209 15.0039 373.205 14.9487 373.201 14.8742C373.568 14.8387 373.927 14.8032 374.299 14.7639C374.299 15.2553 374.299 15.7466 374.299 16.2379C374.299 16.521 374.291 16.8 374.306 17.0831C374.322 17.3386 374.382 17.3817 374.642 17.3855C374.694 17.3855 374.746 17.3896 374.809 17.3934C374.809 17.4641 374.809 17.5272 374.809 17.59C374.462 17.6727 374.123 17.7551 373.76 17.8416C373.752 17.6882 373.744 17.5351 373.736 17.3503C373.676 17.3934 373.632 17.4248 373.588 17.4524C373.377 17.5744 373.177 17.7313 372.954 17.8061C372.375 17.991 371.864 17.5979 371.852 16.9807C371.844 16.5169 371.848 16.0493 371.848 15.5856C371.848 15.1649 371.84 15.1532 371.421 15.0511Z" fill="#040404"/>
<path d="M354.714 14.7174C355.548 14.7526 356.211 15.3539 356.195 16.2659C356.179 17.2997 355.468 17.842 354.658 17.8497C353.8 17.8576 353.146 17.1776 353.154 16.3328C353.166 15.2439 353.988 14.7291 354.714 14.7174ZM355.552 16.4232C355.528 16.0577 355.485 15.6998 355.285 15.3853C355.121 15.126 354.898 14.965 354.566 14.9884C354.263 15.0081 354.08 15.1891 353.972 15.4405C353.705 16.0535 353.772 16.6549 354.108 17.221C354.275 17.5038 354.563 17.6493 354.906 17.5824C355.221 17.5235 355.381 17.2917 355.453 17.0007C355.493 16.8083 355.516 16.6156 355.552 16.4232Z" fill="#040404"/>
<path d="M369.74 14.7965C369.736 14.1676 369.935 13.6486 370.438 13.2714C370.718 13.0631 371.021 12.9021 371.392 13.0276C371.472 13.0552 371.552 13.0945 371.616 13.1456C371.783 13.2755 371.751 13.5583 371.56 13.6331C371.504 13.6566 371.412 13.6214 371.348 13.5897C371.248 13.5427 371.165 13.46 371.061 13.4169C370.758 13.2872 370.482 13.3934 370.41 13.7076C370.33 14.0537 370.315 14.4151 370.271 14.7924C370.578 14.7924 370.841 14.7924 371.101 14.7924C371.157 15.0675 371.129 15.103 370.877 15.103C370.694 15.103 370.51 15.103 370.315 15.103C370.315 15.8185 370.315 16.5178 370.315 17.2136C370.315 17.4022 370.418 17.5005 370.602 17.5243C370.694 17.536 370.785 17.5477 370.893 17.5595C370.897 17.6184 370.901 17.6812 370.905 17.7598C370.35 17.7598 369.812 17.7598 369.261 17.7598C369.261 17.697 369.261 17.6343 369.261 17.5674C369.273 17.5595 369.281 17.5477 369.293 17.5477C369.696 17.5163 369.74 17.4729 369.74 17.0681C369.74 16.4198 369.74 15.7751 369.74 15.0992C369.616 15.0992 369.5 15.103 369.385 15.0951C369.341 15.0913 369.297 15.0637 369.253 15.0441C369.269 15.0048 369.285 14.9654 369.301 14.93C369.397 14.7572 369.572 14.812 369.74 14.7965Z" fill="#040404"/>
<path d="M388.318 16.1281C388.33 16.5919 388.442 16.9967 388.869 17.2325C389.328 17.488 389.731 17.3425 390.102 17.036C390.242 17.1343 390.246 17.2246 390.122 17.3387C389.891 17.5587 389.639 17.7473 389.32 17.8221C388.721 17.9597 388.135 17.6373 387.879 17.0477C387.512 16.1988 387.927 15.1651 388.769 14.8154C389.488 14.5165 390.274 15.0237 390.266 15.7743C390.266 15.9433 390.194 16.0061 390.03 16.0181C389.472 16.0495 388.909 16.0888 388.318 16.1281ZM388.362 15.7782C388.761 15.7782 389.153 15.7823 389.544 15.7743C389.583 15.7743 389.643 15.7154 389.651 15.6761C389.695 15.4678 389.547 15.1847 389.344 15.0668C389.148 14.9568 388.921 14.9685 388.733 15.114C388.51 15.2909 388.398 15.5268 388.362 15.7782Z" fill="#040404"/>
<path d="M378.844 13.6016C378.844 13.5306 378.844 13.4716 378.844 13.3971C379.45 13.3971 380.057 13.3971 380.68 13.3971C380.68 13.4561 380.68 13.5268 380.68 13.6016C380.596 13.6133 380.512 13.625 380.428 13.6368C380.149 13.6802 380.077 13.7705 380.073 14.0612C380.069 15.0753 380.069 16.0894 380.073 17.1034C380.073 17.3824 380.169 17.4769 380.448 17.5083C380.52 17.5162 380.592 17.5317 380.684 17.5476C380.688 17.6144 380.692 17.681 380.696 17.7638C380.073 17.7638 379.474 17.7638 378.852 17.7638C378.848 17.6969 378.844 17.63 378.84 17.5476C378.952 17.5317 379.047 17.52 379.143 17.5083C379.311 17.4845 379.43 17.41 379.447 17.2293C379.454 17.1386 379.47 17.0483 379.47 16.9579C379.47 16.0225 379.47 15.087 379.47 14.1516C379.47 14.1005 379.47 14.0457 379.462 13.9943C379.419 13.735 379.375 13.6957 379.115 13.6409C379.031 13.6212 378.948 13.6171 378.844 13.6016Z" fill="#040404"/>
<path d="M390.781 16.8197C390.865 16.8 390.924 16.7845 390.976 16.7686C391.092 16.9652 391.192 17.1617 391.32 17.3386C391.439 17.5037 391.615 17.5941 391.83 17.5941C392.046 17.5941 392.193 17.4958 392.285 17.3072C392.373 17.1262 392.325 16.9572 392.198 16.8238C392.106 16.7255 391.982 16.6545 391.862 16.5879C391.706 16.5014 391.543 16.4345 391.387 16.348C391.064 16.1635 390.868 15.9039 390.916 15.5149C390.964 15.118 391.22 14.8898 391.587 14.776C391.87 14.6856 392.158 14.7091 392.445 14.7915C392.564 14.827 392.616 14.8939 392.64 15.0039C392.676 15.1887 392.712 15.3732 392.752 15.5659C392.68 15.5894 392.621 15.6132 392.553 15.6366C392.493 15.5187 392.445 15.4087 392.381 15.3025C392.285 15.1376 392.149 15.0197 391.954 14.9842C391.735 14.9449 391.547 15.0235 391.455 15.2083C391.363 15.3929 391.395 15.609 391.567 15.739C391.715 15.849 391.882 15.9235 392.046 16.01C392.185 16.0849 392.337 16.1397 392.465 16.2262C393.039 16.6035 393.008 17.3621 392.397 17.6844C391.938 17.9241 391.467 17.9124 391.008 17.6765C390.948 17.6451 390.892 17.5665 390.88 17.5037C390.836 17.2796 390.813 17.0517 390.781 16.8197Z" fill="#040404"/>
<path d="M376.673 17.559C376.673 17.6338 376.673 17.6966 376.673 17.7673C376.162 17.7673 375.651 17.7673 375.132 17.7673C375.132 17.6966 375.132 17.6338 375.132 17.5748C375.148 17.5669 375.156 17.5552 375.168 17.5511C375.543 17.5159 375.603 17.4645 375.603 17.0952C375.611 16.0339 375.607 14.9729 375.607 13.9116C375.607 13.4792 375.579 13.4517 375.136 13.4047C375.136 13.3458 375.136 13.2827 375.136 13.2278C375.475 13.153 375.811 13.0782 376.166 12.9958C376.166 13.0706 376.166 13.1451 376.166 13.2199C376.166 14.4775 376.166 15.7353 376.166 16.9931C376.166 17.0049 376.166 17.0204 376.166 17.0325C376.166 17.4528 376.23 17.5197 376.673 17.559Z" fill="#040404"/>
<path d="M386.131 17.8181C386.059 17.8181 385.987 17.8181 385.915 17.8181C385.616 17.0833 385.317 16.3561 385.017 15.6289C384.994 15.574 384.97 15.5227 384.95 15.4678C384.858 15.2082 384.702 15.0237 384.391 15.0237C384.391 14.9451 384.391 14.8861 384.391 14.8113C384.862 14.8113 385.325 14.8113 385.803 14.8113C385.803 14.8744 385.803 14.9372 385.803 14.9923C385.784 15.0041 385.776 15.0196 385.764 15.0196C385.444 15.0668 385.429 15.0865 385.54 15.3892C385.74 15.9158 385.947 16.4426 386.171 17.0123C386.227 16.875 386.27 16.7767 386.31 16.6784C386.458 16.2892 386.61 15.9002 386.753 15.5071C386.889 15.1258 386.865 15.0865 386.47 15.0041C386.47 14.9451 386.47 14.882 386.47 14.8075C386.877 14.8075 387.284 14.8075 387.703 14.8075C387.703 14.8703 387.703 14.941 387.703 15.0196C387.4 15.012 387.244 15.1886 387.141 15.4364C386.821 16.1909 386.502 16.9495 386.179 17.7043C386.163 17.7436 386.147 17.7788 386.131 17.8181Z" fill="#040404"/>
<path d="M367.421 15.0825C367.241 15.0825 367.078 15.0825 366.898 15.0825C367.034 14.8232 367.058 14.8111 367.433 14.7956C367.297 14.3908 367.561 14.1508 367.824 13.9191C367.856 13.8915 367.912 13.8915 367.976 13.8719C367.976 14.1901 367.976 14.4849 367.976 14.7915C368.239 14.7915 368.495 14.7915 368.746 14.7915C368.842 15.0235 368.794 15.1021 368.574 15.1021C368.383 15.1021 368.191 15.1021 367.98 15.1021C367.98 15.4166 367.98 15.7231 367.98 16.0259C367.98 16.2931 367.976 16.5641 367.98 16.8314C367.98 16.922 367.992 17.0124 368.016 17.1027C368.092 17.3896 368.259 17.4799 368.55 17.4013C368.626 17.3817 368.702 17.3541 368.79 17.3268C368.814 17.3817 368.838 17.4368 368.87 17.5113C368.674 17.6137 368.49 17.7354 368.291 17.8061C367.88 17.9478 367.433 17.7275 367.421 17.1499C367.409 16.5093 367.417 15.8686 367.417 15.228C367.421 15.1925 367.421 15.1532 367.421 15.0825Z" fill="#040404"/>
<path d="M395.175 17.3188C395.199 17.3816 395.219 17.4367 395.255 17.5271C395.007 17.633 394.775 17.7706 394.52 17.8374C394.153 17.9319 393.81 17.5978 393.806 17.1654C393.798 16.5641 393.802 15.9627 393.802 15.3575C393.802 15.2789 393.802 15.2003 393.802 15.1138C393.63 15.102 393.459 15.0862 393.275 15.0745C393.383 14.819 393.554 14.76 393.814 14.8111C393.694 14.3238 393.961 14.0721 394.301 13.8639C394.321 13.8718 394.34 13.8797 394.36 13.8876C394.36 14.1862 394.36 14.4849 394.36 14.7914C394.628 14.7914 394.879 14.7914 395.123 14.7914C395.219 15.0193 395.171 15.0979 394.939 15.0979C394.756 15.0979 394.568 15.0979 394.365 15.0979C394.365 15.4989 394.365 15.8879 394.365 16.2772C394.365 16.4934 394.36 16.7095 394.365 16.9257C394.377 17.3344 394.624 17.5074 395.011 17.3778C395.063 17.3658 395.115 17.3423 395.175 17.3188Z" fill="#040404"/>
<path d="M397.146 17.5668C397.146 17.6296 397.146 17.6926 397.146 17.7671C396.635 17.7671 396.128 17.7671 395.613 17.7671C395.613 17.6964 395.613 17.6337 395.613 17.5706C395.641 17.5627 395.657 17.5509 395.677 17.5509C396.033 17.5195 396.092 17.4568 396.096 17.0989C396.1 16.5958 396.1 16.0927 396.1 15.5858C396.1 15.2752 396.064 15.2438 395.673 15.1614C395.673 15.1024 395.673 15.0394 395.673 14.9883C396.004 14.9018 396.328 14.8193 396.663 14.729C396.667 14.7762 396.671 14.8273 396.671 14.8745C396.671 15.5858 396.671 16.301 396.671 17.0127C396.667 17.4723 396.687 17.4961 397.146 17.5668Z" fill="#040404"/>
<path d="M405.375 17.4444C405.371 17.6723 405.188 17.8533 404.96 17.8571C404.729 17.8612 404.537 17.6647 404.541 17.4288C404.545 17.2009 404.729 17.0199 404.956 17.0199C405.196 17.0161 405.379 17.2047 405.375 17.4444Z" fill="#040404"/>
<path d="M396.34 14.0883C396.137 14.0883 395.969 13.9349 395.965 13.7386C395.961 13.5459 396.149 13.3414 396.332 13.3455C396.528 13.3455 396.707 13.53 396.711 13.7307C396.711 13.9231 396.54 14.0883 396.34 14.0883Z" fill="#040404"/>
<path d="M335.573 7.35586C336.028 7.35204 336.471 7.41101 336.886 7.59963C337.461 7.86305 337.764 8.31479 337.8 8.92025C337.872 10.1464 337.238 11.4239 335.976 11.9898C335.458 12.2218 334.915 12.3004 334.348 12.198C334.017 12.1391 333.773 11.8994 333.785 11.5653C333.797 11.2901 333.841 11.0071 333.921 10.7398C334.252 9.65917 334.603 8.58202 334.947 7.50136C334.979 7.39898 335.014 7.32829 335.15 7.34794C335.29 7.37171 335.433 7.35586 335.573 7.35586Z" fill="#0B3B62"/>
<path d="M335.219 6.71868C335.318 6.39659 335.406 6.11352 335.494 5.82664C335.737 5.04459 335.973 4.26225 336.224 3.4802C336.452 2.77266 336.739 2.59197 337.489 2.65885C337.98 2.70197 338.411 2.8592 338.671 3.30332C338.854 3.61367 338.878 3.96363 338.838 4.30948C338.767 4.96979 338.523 5.5594 338 6.00733C337.557 6.38868 337.034 6.59695 336.456 6.65591C336.057 6.69903 335.654 6.69903 335.219 6.71868Z" fill="#0B3B62"/>
</svg>
