<svg width="110" height="41" viewBox="0 0 110 41" fill="none" xmlns="http://www.w3.org/2000/svg">
<path d="M0.0665898 20.7583L1.56645 21.4481V21.477L0.0221966 22.0513L0 22.6128L2.25454 22.6994L2.27039 22.2566L0.764197 22.1989V22.1732L2.1721 21.6438L2.18478 21.3262L0.818103 20.6941V20.6685L2.32747 20.723L2.34333 20.2803L0.0887864 20.1968L0.0665898 20.7583Z" fill="black"/>
<path d="M0.345795 18.4354L2.42274 19.6321L2.50836 19.1605L2.01054 18.8878L2.15639 18.0985L2.71765 18.0279L2.80958 17.521L0.447248 17.8836L0.345795 18.4354ZM0.856312 18.2461L1.77903 18.1306L1.67123 18.721L0.853138 18.275L0.856312 18.2461Z" fill="black"/>
<path d="M2.82203 14.8645L2.67935 15.3072C2.78675 15.3649 2.86937 15.4606 2.91148 15.576C2.9536 15.6914 2.95224 15.8184 2.90765 15.9329C2.79984 16.2762 2.45104 16.3949 2.00077 16.2537C1.55049 16.1125 1.33487 15.8045 1.44585 15.4644C1.47934 15.3435 1.55579 15.2392 1.66053 15.1717C1.76527 15.1042 1.8909 15.0782 2.01342 15.0987L2.15297 14.6559C1.91819 14.6021 1.67194 14.6427 1.4661 14.7689C1.26026 14.8952 1.11091 15.0974 1.04948 15.3329C0.849715 15.9746 1.15413 16.4911 1.85174 16.7189C2.54935 16.9467 3.12011 16.6965 3.30402 16.0772C3.39826 15.8517 3.40048 15.5975 3.31018 15.3703C3.21987 15.1431 3.04438 14.9612 2.82203 14.8645Z" fill="black"/>
<path d="M4.02719 14.0046L3.28833 13.6517L3.45323 13.2956L4.37598 13.2699L4.60428 12.779L3.59594 12.8271C3.59915 12.6919 3.56258 12.5587 3.49089 12.4444C3.4192 12.3302 3.3156 12.2401 3.19323 12.1855C3.10188 12.1376 3.0013 12.1104 2.89851 12.1059C2.79571 12.1014 2.69316 12.1196 2.59806 12.1593C2.50295 12.199 2.41757 12.2593 2.34785 12.3358C2.27812 12.4124 2.22574 12.5034 2.19437 12.6026L1.78531 13.4688L3.82424 14.4506L4.02719 14.0046ZM3.13931 13.1127L2.96176 13.4913L2.32757 13.1897L2.50195 12.8143C2.5183 12.7674 2.54435 12.7246 2.57835 12.6887C2.61236 12.6528 2.65355 12.6246 2.69916 12.6061C2.74478 12.5876 2.79378 12.5791 2.84288 12.5813C2.89199 12.5834 2.94008 12.5961 2.98393 12.6186C3.02929 12.6372 3.07002 12.6656 3.10327 12.7019C3.13652 12.7383 3.16144 12.7815 3.17627 12.8287C3.19111 12.8759 3.19552 12.9258 3.18912 12.9749C3.18273 13.024 3.16571 13.071 3.13931 13.1127Z" fill="black"/>
<path d="M3.93502 11.64C4.54701 12.0443 5.15583 11.9416 5.52049 11.3705C5.88515 10.7994 5.72977 10.1995 5.11777 9.79842C4.50578 9.39737 3.89379 9.50005 3.5323 10.0647C3.17082 10.6294 3.31986 11.2358 3.93502 11.64ZM3.8811 10.2925C4.0777 9.97168 4.45823 9.94601 4.8546 10.2059C5.25097 10.4658 5.37463 10.8315 5.17169 11.1427C4.96875 11.4539 4.58822 11.4892 4.19502 11.2294C3.80182 10.9695 3.68133 10.6037 3.8811 10.2925Z" fill="black"/>
<path d="M7.86727 8.31932C8.33975 7.83165 8.31438 7.26376 7.788 6.744C7.26162 6.22424 6.72254 6.23707 6.25324 6.72154L5.61905 7.36322L7.22991 8.96741L7.86727 8.31932ZM6.49106 7.06163C6.55301 6.9955 6.62821 6.94348 6.71158 6.90902C6.79495 6.87457 6.8846 6.85847 6.9746 6.86181C7.06459 6.86515 7.15286 6.88784 7.23351 6.92838C7.31417 6.96892 7.38534 7.02638 7.44234 7.09693C7.7848 7.41777 7.80386 7.78673 7.51213 8.08832L7.27114 8.33536L6.23741 7.30868L6.49106 7.06163Z" fill="black"/>
<path d="M8.09115 5.02039L7.72842 5.32671L9.17309 7.07802L9.53582 6.7717L8.09115 5.02039Z" fill="black"/>
<path d="M10.1028 5.10771L10.3787 4.99221C10.6419 4.88313 10.7814 4.88954 10.8607 4.99221C10.94 5.09488 10.8829 5.3323 10.68 5.47347C10.477 5.61464 10.2424 5.63389 10.1219 5.49272L9.74769 5.75581C9.99819 6.0959 10.4358 6.11515 10.8766 5.80714C11.3173 5.49914 11.4727 5.05317 11.2158 4.67137C11.0161 4.38262 10.7466 4.33128 10.3185 4.51095L10.0616 4.62004C9.8111 4.72271 9.67794 4.7195 9.59866 4.604C9.51939 4.4885 9.57013 4.28316 9.76356 4.14199C9.83352 4.07796 9.92447 4.0425 10.0188 4.0425C10.1131 4.0425 10.2041 4.07796 10.2741 4.14199L10.6387 3.88852C10.4009 3.56769 9.9538 3.53239 9.54474 3.81794C9.13569 4.10349 8.993 4.54303 9.22765 4.89917C9.27143 4.97116 9.32887 5.0337 9.39661 5.08318C9.46435 5.13266 9.54111 5.16811 9.62243 5.18749C9.70376 5.20687 9.78806 5.20979 9.87051 5.1961C9.95296 5.18241 10.0319 5.15237 10.1028 5.10771Z" fill="black"/>
<path d="M13.1023 4.48852C13.324 4.39603 13.5005 4.21879 13.5938 3.99532C13.687 3.77184 13.6893 3.52018 13.6002 3.295L13.1911 3.50675C13.226 3.62487 13.2169 3.75182 13.1654 3.86357C13.114 3.97533 13.0238 4.06412 12.912 4.11313C12.5949 4.27676 12.2779 4.11313 12.0496 3.68321C11.8212 3.25329 11.8942 2.88753 12.2113 2.72069C12.3198 2.65836 12.4473 2.63894 12.5691 2.66621C12.6909 2.69347 12.7985 2.76547 12.8709 2.86829L13.2799 2.65653C13.1529 2.44476 12.9484 2.29225 12.7109 2.23217C12.4734 2.17209 12.2221 2.2093 12.0115 2.33569C11.4281 2.63728 11.2758 3.22763 11.6088 3.89176C11.9417 4.5559 12.5189 4.79011 13.1023 4.48852Z" fill="black"/>
<path d="M15.0523 3.54848L14.7796 2.77205L15.1443 2.6405L15.8134 3.28218L16.3144 3.10251L15.5692 2.41592C15.671 2.32405 15.7421 2.20252 15.7727 2.06807C15.8034 1.93362 15.7921 1.79286 15.7405 1.66516C15.7094 1.56655 15.6575 1.47597 15.5883 1.39974C15.5191 1.32351 15.4343 1.26345 15.3398 1.22375C15.2453 1.18405 15.1434 1.16566 15.0412 1.16986C14.939 1.17406 14.8389 1.20074 14.7479 1.24806L13.8569 1.5689L14.6084 3.71531L15.0523 3.54848ZM14.8114 1.62345C14.8552 1.60115 14.9032 1.58873 14.9522 1.58703C15.0013 1.58534 15.05 1.59441 15.0952 1.61362C15.1404 1.63283 15.181 1.66172 15.2141 1.69831C15.2472 1.7349 15.2721 1.77832 15.287 1.82558C15.309 1.87089 15.3201 1.92081 15.3195 1.97128C15.3188 2.02176 15.3064 2.07136 15.2832 2.11606C15.2601 2.16077 15.2268 2.19931 15.1861 2.22856C15.1455 2.2578 15.0986 2.27693 15.0492 2.28438L14.6592 2.42233L14.4277 1.76141L14.8114 1.62345Z" fill="black"/>
<path d="M18.4394 2.59237L18.3537 2.19453L17.3549 2.41911L17.2376 1.8769L18.1793 1.66514L18.0969 1.29618L17.1551 1.50793L17.041 0.988173L18.0398 0.763586L17.951 0.365746L16.4956 0.69621L16.9839 2.91962L18.4394 2.59237Z" fill="black"/>
<path d="M19.5713 0.548659L19.7552 2.40952L20.2245 2.36461L20.0405 0.500533L20.7128 0.433157L20.6716 0.0289001L18.8578 0.211778L18.899 0.616035L19.5713 0.548659Z" fill="black"/>
<path d="M22.0475 0.00737452L21.5751 0.0147171L21.6097 2.29562L22.0821 2.28827L22.0475 0.00737452Z" fill="black"/>
<path d="M23.8993 2.43513C24.5652 2.4993 25.025 2.08221 25.0947 1.34428C25.1645 0.606349 24.7776 0.109043 24.1434 0.0448753C23.5092 -0.0192924 23.0177 0.394594 22.948 1.13252C22.8782 1.87045 23.2334 2.37096 23.8993 2.43513ZM23.4141 1.18065C23.4585 0.702598 23.7312 0.426679 24.0895 0.461972C24.4478 0.497264 24.6603 0.821303 24.6127 1.29614C24.5652 1.77099 24.2956 2.05332 23.9405 2.01803C23.5853 1.98274 23.3666 1.65549 23.4141 1.18065Z" fill="black"/>
<path d="M26.4585 1.3315L26.487 1.33791L27.1656 2.97419L27.5461 3.06723L28.0788 0.850237L27.6381 0.741152L27.3083 2.12397L27.2798 2.11755L26.6012 0.487689L26.2207 0.394646L25.688 2.61164L26.1287 2.72073L26.4585 1.3315Z" fill="black"/>
<path d="M28.9858 2.99018L29.7246 3.28535L29.6866 3.85323L30.1622 4.04254L30.2574 1.62661L29.7405 1.42128L28.1867 3.25969L28.6275 3.43294L28.9858 2.99018ZM29.8007 1.95709H29.8261L29.7627 2.89393L29.2141 2.67576L29.8007 1.95709Z" fill="black"/>
<path d="M31.5606 3.84361L31.8999 4.0329L31.8745 4.96334L32.3407 5.22322V4.20296C32.4757 4.21836 32.6121 4.19118 32.7313 4.12514C32.8505 4.05909 32.9467 3.9574 33.0066 3.83398C33.0592 3.7446 33.0919 3.64468 33.1024 3.5412C33.1129 3.43771 33.101 3.33315 33.0675 3.2348C33.034 3.13645 32.9797 3.04668 32.9084 2.97174C32.8371 2.8968 32.7504 2.83849 32.6546 2.80088L31.827 2.33887L30.7362 4.3377L31.1515 4.56871L31.5606 3.84361ZM32.0711 2.90677L32.4295 3.1089C32.4748 3.1275 32.5157 3.15572 32.5494 3.19166C32.583 3.2276 32.6087 3.27042 32.6246 3.31724C32.6405 3.36406 32.6464 3.41379 32.6417 3.46308C32.637 3.51237 32.6219 3.56008 32.5975 3.60298C32.576 3.6474 32.5451 3.68649 32.5069 3.71746C32.4688 3.74842 32.4244 3.7705 32.3769 3.78214C32.3294 3.79378 32.2799 3.79469 32.232 3.78479C32.1841 3.7749 32.1389 3.75445 32.0997 3.7249L31.735 3.52277L32.0711 2.90677Z" fill="black"/>
<path d="M34.2303 5.54085L35.7017 4.84142L35.2894 4.53662L34.335 5.01467L34.3096 4.99863L34.465 3.93024L34.0528 3.62544L33.8498 5.25851L33.3615 5.93869L33.742 6.21782L34.2303 5.54085Z" fill="black"/>
<path d="M36.428 8.64978L37.7694 7.3568L38.2355 7.8541L38.5272 7.57176L37.2683 6.23386L36.9735 6.51299L37.4428 7.01029L36.1014 8.30327L36.428 8.64978Z" fill="black"/>
<path d="M37.62 10.0743L38.2765 9.58346L38.5048 9.9043L38.0989 10.7385L38.416 11.1748L38.8504 10.254C38.9671 10.3242 39.1023 10.3566 39.2378 10.3468C39.3732 10.3371 39.5025 10.2857 39.6082 10.1995C39.693 10.1409 39.764 10.0643 39.8164 9.97502C39.8688 9.88574 39.9013 9.78595 39.9115 9.68264C39.9218 9.57933 39.9096 9.475 39.8759 9.37695C39.8421 9.2789 39.7875 9.18952 39.716 9.11504L39.1548 8.34182L37.3378 9.69896L37.62 10.0743ZM39.1262 8.945L39.3704 9.26584C39.4038 9.30236 39.4291 9.34568 39.4447 9.39291C39.4602 9.44013 39.4656 9.49016 39.4605 9.53967C39.4554 9.58917 39.44 9.637 39.4151 9.67997C39.3903 9.72293 39.3566 9.76003 39.3165 9.7888C39.2799 9.82277 39.2359 9.84756 39.1881 9.86117C39.1402 9.87478 39.0899 9.87682 39.0412 9.86715C38.9924 9.85747 38.9466 9.83634 38.9074 9.80545C38.8682 9.77457 38.8367 9.73479 38.8155 9.68934L38.5682 9.3685L39.1262 8.945Z" fill="black"/>
<path d="M38.9395 12.0187L39.4912 11.9064L39.8781 12.6058L39.4912 13.0197L39.7386 13.4721L41.324 11.6721L41.0545 11.1813L38.7048 11.5984L38.9395 12.0187ZM40.7691 11.6304V11.6561L40.1349 12.3395L39.8464 11.8165L40.7691 11.6304Z" fill="black"/>
<path d="M40.3341 14.9287C40.5815 15.5703 41.1046 15.7725 41.7864 15.503C42.4681 15.2334 42.6806 14.7265 42.4206 14.0945L42.1035 13.2571L40.0012 14.0913L40.3341 14.9287ZM41.9196 13.8506L42.0433 14.1715C42.0801 14.2572 42.0979 14.3501 42.0956 14.4435C42.0932 14.537 42.0707 14.6288 42.0296 14.7125C41.9886 14.7962 41.9299 14.8699 41.8578 14.9283C41.7856 14.9867 41.7017 15.0284 41.612 15.0506C41.168 15.227 40.8446 15.1019 40.6924 14.7073L40.5688 14.3864L41.9196 13.8506Z" fill="black"/>
<path d="M43.0851 16.0175L40.9152 16.6247L41.0411 17.0855L43.211 16.4782L43.0851 16.0175Z" fill="black"/>
<path d="M43.7302 19L42.3414 19.2375L42.3382 19.2118L43.5495 17.9349L43.4861 17.5402L41.2569 17.922L41.333 18.3744L42.7282 18.137L42.7314 18.1627L41.5106 19.4428L41.5772 19.8342L43.8063 19.4524L43.7302 19Z" fill="black"/>
<path d="M42.7826 20.5209C42.047 20.5433 41.6094 20.9732 41.6284 21.6502C41.6203 21.7849 41.6413 21.9197 41.6899 22.0454C41.7385 22.171 41.8135 22.2844 41.9097 22.3778C42.0059 22.4712 42.1211 22.5423 42.2472 22.5862C42.3733 22.6301 42.5073 22.6457 42.6399 22.632H42.9253L42.8968 21.6695H42.5416V22.1636H42.5004C42.4349 22.1624 42.3702 22.1478 42.3105 22.1205C42.2507 22.0932 42.1971 22.0539 42.1529 22.005C42.1087 21.956 42.0748 21.8985 42.0533 21.8358C42.0318 21.7732 42.0232 21.7067 42.0279 21.6406C42.0279 21.262 42.3038 21.0182 42.789 20.9989C43.2741 20.9797 43.5563 21.201 43.569 21.57C43.5794 21.686 43.5511 21.8023 43.4884 21.9C43.4257 21.9978 43.3324 22.0714 43.2234 22.109L43.2392 22.5839C43.4681 22.5386 43.6718 22.4079 43.8099 22.2177C43.9479 22.0275 44.0102 21.7917 43.9844 21.5572C43.9781 20.9027 43.5088 20.4952 42.7826 20.5209Z" fill="black"/>
<path d="M33.9641 7.81885C30.8768 5.20377 27.0326 3.67564 23.0117 3.46507C22.6946 3.46507 22.3775 3.4426 22.0604 3.4426C21.886 3.4426 21.7116 3.4426 21.5372 3.4426C20.0361 3.48187 18.5454 3.70597 17.0979 4.10995C16.9266 4.15808 16.7554 4.20621 16.5873 4.26075C16.0293 4.43828 15.4828 4.63827 14.948 4.86072C13.2066 5.58887 11.5855 6.58211 10.1408 7.80601C9.73174 8.14931 9.33538 8.51186 8.95804 8.89366C7.22348 10.6385 5.84699 12.7131 4.90769 14.9982C3.96839 17.2833 3.48483 19.7337 3.48483 22.2085C3.48483 24.6833 3.96839 27.1337 4.90769 29.4187C5.84699 31.7038 7.22348 33.7784 8.95804 35.5233C9.21806 35.7832 9.48759 36.0334 9.7603 36.2773C9.88713 36.3895 10.0108 36.5018 10.1408 36.5981C13.1117 39.1265 16.7988 40.6363 20.6715 40.9102C20.9537 40.9326 21.2359 40.9519 21.5213 40.9615C21.6957 40.9615 21.8701 40.9615 22.0445 40.9615C22.3616 40.9615 22.6787 40.9615 22.9958 40.9358C27.0171 40.7294 30.8622 39.202 33.9483 36.5853C34.3573 36.2388 34.7537 35.8762 35.131 35.4976C36.8656 33.7528 38.2421 31.6781 39.1814 29.3931C40.1207 27.108 40.6043 24.6576 40.6043 22.1828C40.6043 19.708 40.1207 17.2576 39.1814 14.9725C38.2421 12.6875 36.8656 10.6129 35.131 8.86799C34.7695 8.52469 34.3731 8.16857 33.9641 7.81885ZM32.7655 8.90649C32.1716 9.39697 31.5455 9.84611 30.8915 10.2508C29.4578 8.34354 27.6962 6.71329 25.6911 5.43822C28.2855 6.01668 30.709 7.20479 32.7655 8.90649ZM18.8134 5.37726C18.9021 5.35801 18.9877 5.33556 19.0734 5.32272L18.9053 5.43181C18.5375 5.66602 18.176 5.91306 17.8208 6.16973L17.2342 5.76869C17.7585 5.61041 18.288 5.4778 18.8228 5.37085L18.8134 5.37726ZM19.4031 15.6762C19.4031 15.6762 19.8439 15.997 20.6715 15.4516C21.4991 14.9062 21.8226 16.3467 22.5297 16.6612C23.2368 16.9756 23.5476 17.3317 24.521 17.6012C25.4945 17.8707 24.1247 18.4065 23.1512 18.137C22.1777 17.8675 21.423 17.9606 21.5657 18.4579C21.7084 18.9552 22.0984 19.5327 21.3025 20.4727C20.6907 21.2077 20.2815 22.0931 20.1166 23.0394C20.0723 23.3011 20.0542 23.5666 20.0627 23.8319C20.1071 24.9516 19.7456 26.251 19.0004 26.9665C18.2553 27.682 17.805 27.5504 17.0535 27.0114C16.302 26.4724 15.2397 26.1612 15.1509 24.8618C15.0621 23.5624 15.3285 23.6105 14.7958 23.2576C14.6994 23.1931 14.6072 23.1224 14.5199 23.0459C14.2535 22.8149 14.2218 22.6769 14.2218 22.6769C14.2068 22.7993 14.1994 22.9225 14.1996 23.0459C14.1963 23.2566 14.234 23.4659 14.3106 23.6619C14.4882 24.0629 14.355 24.6019 14.133 25.7634C13.9111 26.9248 14.0886 27.2424 15.9912 27.8681C17.5187 28.4669 18.9723 29.2432 20.3227 30.1813C21.0008 30.6155 21.6284 31.1257 22.1936 31.7021C22.2747 31.789 22.3459 31.8847 22.406 31.9876C23.0402 33.0624 22.276 32.8828 22.6724 33.2421C23.0687 33.6015 24.0898 34.5255 24.0454 35.3436C24.001 36.1618 23.7283 36.1521 22.5836 36.2837C21.4389 36.4152 20.5035 36.5532 20.2403 35.703C19.9771 34.8527 19.6631 34.9875 19.178 34.9426C18.6928 34.8977 18.6897 34.9426 18.5438 33.9127C18.3979 32.8828 18.3694 32.7929 18.0587 32.5684C17.9794 32.5138 17.843 32.4015 17.6464 32.286C17.0598 31.9395 15.9341 31.5353 14.1996 32.286L14.0315 31.9267C12.3641 29.26 11.4152 26.1984 11.2792 23.0459V21.4417C11.407 18.4596 12.2633 15.5561 13.7715 12.9908C15.7572 13.6366 17.6529 14.5369 19.4126 15.6698L19.4031 15.6762ZM8.30484 12.1855C9.616 12.1001 10.9323 12.218 12.2083 12.5352C10.6934 15.257 9.84019 18.3043 9.71907 21.4256H5.10533C5.25499 18.0931 6.36743 14.8782 8.30484 12.1791V12.1855ZM10.1535 34.4549L10.1091 34.4068C7.08886 31.3844 5.30267 27.3232 5.10533 23.0298H9.71907C9.85049 26.4467 10.8604 29.7698 12.649 32.671C11.793 33.182 10.9786 33.7614 10.2138 34.4036L10.1535 34.4549ZM11.3521 35.5425C12.0413 34.9736 12.774 34.4608 13.5432 34.0089C15.047 36.064 16.9278 37.8069 19.0829 39.1424C16.2442 38.6269 13.583 37.3855 11.3521 35.5361V35.5425ZM22.2887 38.9916C19.2392 37.624 16.5658 35.5237 14.5008 32.8732C16.229 32.4015 18.084 32.5523 17.916 34.1341C17.7479 35.7158 19.216 35.658 20.0976 36.6045C20.9791 37.551 22.8024 36.6591 23.9027 36.7649C25.003 36.8708 25.4089 34.9233 24.5369 34.1982C24.2478 33.943 24.0122 33.6319 23.8439 33.2831C23.6756 32.9342 23.5781 32.5549 23.5571 32.1673C23.4274 31.3758 23.0401 30.6509 22.4568 30.1075C21.927 29.4699 21.3549 28.8696 20.7444 28.3108C19.7932 27.4702 19.9644 27.0499 20.2752 26.4179C20.4627 26.1018 20.5196 25.7238 20.4337 25.3655C20.9061 25.4511 21.3928 25.3965 21.8352 25.2083C22.444 24.9186 22.97 24.477 23.3636 23.925C23.5835 23.6438 23.7828 23.3468 23.9598 23.0362L24.7684 21.432L24.9523 21.0406C25.0598 20.8322 25.1784 20.6298 25.3074 20.4342C25.7476 19.7095 26.3575 19.1056 27.0832 18.676C27.7617 18.3552 28.0725 17.9926 27.8632 17.8322C27.6539 17.6718 27.5017 17.5691 27.9679 16.8344C28.434 16.0997 29.8894 17.6237 30.6695 18.2012C30.9013 18.3612 31.1774 18.4425 31.4578 18.4333C31.7383 18.4241 32.0086 18.3248 32.2296 18.1499C32.2296 18.1499 30.6695 16.6227 29.788 15.7821C28.9065 14.9415 29.8387 15.2046 29.3726 14.4153C28.9975 14.0242 28.5165 13.754 27.99 13.6389C27.8403 13.6185 27.692 13.5885 27.5461 13.549C26.6582 13.3148 25.6689 12.3876 25.6689 12.3876C24.3625 10.8925 21.404 8.6819 19.2478 7.1515C19.641 6.8852 20.0437 6.63816 20.4527 6.40074C21.0537 6.05424 21.6741 5.74357 22.3109 5.47031C25.1346 6.68389 27.6072 8.60381 29.4962 11.0497C28.6431 11.4685 27.7563 11.813 26.8453 12.0796C27.3654 12.5705 27.4795 12.548 28.063 12.548C28.5066 12.5568 28.9416 12.6734 29.3313 12.8881C29.7055 12.7277 30.0733 12.5673 30.4348 12.3748C31.388 13.8631 32.1208 15.4844 32.6101 17.1873C32.9835 17.6058 33.4215 17.9601 33.907 18.2365C34.6681 18.6632 33.9451 19.0546 33.0667 19.2247C33.1892 19.9559 33.2665 20.6942 33.2982 21.4353H26.2207C25.9797 21.9101 25.6911 22.4587 25.3296 23.0394H33.2982C33.1637 26.2623 32.1783 29.3898 30.4443 32.0967C29.0749 31.3976 27.6239 30.8759 26.1255 30.5439C25.4046 30.3845 24.6751 30.2677 23.9407 30.1942C24.2465 30.7232 24.4731 31.2951 24.613 31.8914C25.2542 31.9871 25.8894 32.1199 26.5155 32.2892C27.5488 32.5679 28.5533 32.9461 29.5153 33.4186C27.885 35.5103 25.8235 37.2172 23.4746 38.4205C23.0846 38.6226 22.6914 38.8119 22.2887 38.9851V38.9916ZM25.6911 38.9916C27.6969 37.7174 29.4587 36.087 30.8915 34.179C31.5455 34.5848 32.1716 35.035 32.7655 35.5265C30.71 37.2279 28.2877 38.4161 25.6943 38.9948L25.6911 38.9916ZM33.9641 34.4453C33.2813 33.8667 32.5586 33.3381 31.8015 32.8635C33.6662 29.9153 34.7213 26.5177 34.8583 23.0202H39.0122C38.816 27.3379 37.0125 31.4206 33.9641 34.4485V34.4453ZM34.8615 21.416C34.725 17.9184 33.6698 14.5207 31.8047 11.5727C32.5618 11.0981 33.2845 10.5695 33.9673 9.99093C37.015 13.019 38.8174 17.1018 39.0122 21.4192L34.8615 21.416Z" fill="black"/>
<path d="M21.3024 27.2263C21.9122 27.7411 22.4923 28.2906 23.0401 28.8723V25.6863C23.0401 25.6863 22.3171 26.3697 21.6608 26.3537C21.2739 26.344 21.0963 27.0467 21.3024 27.2263Z" fill="black"/>
<path d="M75.0078 15.9761V40.9761H80.0078V29.9761H89.0078L86.0078 25.9761H80.0078V19.9761H92.0078V15.9761H75.0078Z" fill="#159D4C"/>
<path d="M92.5078 32.9761L87.0078 25.9761H91.0078L96.5078 32.9761L91.0078 40.4761H87.0078L92.5078 32.9761Z" fill="#159D4C"/>
<path d="M96.5078 32.9761L102.008 25.9761H98.0078L92.5078 32.9761L98.0078 40.4761H102.008L96.5078 32.9761Z" fill="#159D4C"/>
<path d="M73.3945 12.9761L71.1172 6.41797H71.0742C71.1351 7.39193 71.1655 8.30501 71.1655 9.15723V12.9761H70V5.12354H71.8101L73.9907 11.3701H74.0229L76.2681 5.12354H78.0835V12.9761H76.8481V9.09277C76.8481 8.70247 76.8571 8.19401 76.875 7.56738C76.8965 6.94076 76.9144 6.5612 76.9287 6.42871H76.8857L74.5278 12.9761H73.3945Z" fill="#898989"/>
<path d="M85.0229 12.9761L84.2388 10.7954H81.2363L80.4683 12.9761H79.1147L82.0527 5.09131H83.4492L86.3872 12.9761H85.0229ZM83.9004 9.68896L83.1646 7.55127C83.1108 7.40804 83.0356 7.18245 82.939 6.87451C82.8459 6.56657 82.7814 6.34098 82.7456 6.19775C82.6489 6.63818 82.5075 7.11979 82.3213 7.64258L81.6123 9.68896H83.9004Z" fill="#898989"/>
<path d="M90.7646 6.11182C90.027 6.11182 89.4469 6.37321 89.0244 6.896C88.6019 7.41878 88.3906 8.1403 88.3906 9.06055C88.3906 10.0238 88.5929 10.7524 88.9976 11.2466C89.4058 11.7407 89.9948 11.9878 90.7646 11.9878C91.0977 11.9878 91.4199 11.9556 91.7314 11.8911C92.043 11.8231 92.367 11.7371 92.7036 11.6333V12.7344C92.0877 12.9671 91.3895 13.0835 90.6089 13.0835C89.4595 13.0835 88.5768 12.7362 87.9609 12.0415C87.3451 11.3433 87.0371 10.346 87.0371 9.0498C87.0371 8.2334 87.1857 7.51904 87.4829 6.90674C87.7837 6.29443 88.217 5.82536 88.7827 5.49951C89.3485 5.17367 90.0127 5.01074 90.7754 5.01074C91.5775 5.01074 92.3187 5.17904 92.999 5.51562L92.5371 6.58447C92.2721 6.45915 91.991 6.34993 91.6938 6.25684C91.4002 6.16016 91.0905 6.11182 90.7646 6.11182Z" fill="#898989"/>
<path d="M95.6792 8.77588H96.5708C97.1688 8.77588 97.6021 8.66488 97.8706 8.44287C98.1392 8.22087 98.2734 7.89144 98.2734 7.45459C98.2734 7.01058 98.1284 6.69189 97.8384 6.49854C97.5483 6.30518 97.1115 6.2085 96.5278 6.2085H95.6792V8.77588ZM95.6792 9.83936V12.9761H94.3955V5.12354H96.6138C97.6271 5.12354 98.3773 5.31331 98.8643 5.69287C99.3512 6.07243 99.5947 6.64534 99.5947 7.41162C99.5947 8.38916 99.0863 9.08561 98.0693 9.50098L100.288 12.9761H98.8267L96.9468 9.83936H95.6792Z" fill="#898989"/>
<path d="M108.403 9.03906C108.403 10.3174 108.083 11.311 107.442 12.02C106.805 12.729 105.9 13.0835 104.729 13.0835C103.544 13.0835 102.633 12.7326 101.996 12.0308C101.362 11.3254 101.045 10.3245 101.045 9.02832C101.045 7.7321 101.364 6.73665 102.001 6.04199C102.642 5.34733 103.555 5 104.74 5C105.908 5 106.81 5.3527 107.447 6.05811C108.085 6.76351 108.403 7.75716 108.403 9.03906ZM102.409 9.03906C102.409 10.0059 102.604 10.7399 102.995 11.2412C103.385 11.7389 103.963 11.9878 104.729 11.9878C105.492 11.9878 106.067 11.7407 106.454 11.2466C106.844 10.7524 107.039 10.0166 107.039 9.03906C107.039 8.07585 106.846 7.34538 106.459 6.84766C106.076 6.34993 105.503 6.10107 104.74 6.10107C103.97 6.10107 103.389 6.34993 102.995 6.84766C102.604 7.34538 102.409 8.07585 102.409 9.03906Z" fill="#898989"/>
</svg>
