<?xml version="1.0" encoding="utf-8"?>
<!-- Generator: Adobe Illustrator 22.1.0, SVG Export Plug-In . SVG Version: 6.00 Build 0)  -->
<svg version="1.1" id="Layer_1" xmlns="http://www.w3.org/2000/svg" xmlns:xlink="http://www.w3.org/1999/xlink" x="0px" y="0px"
	 viewBox="0 0 98 32" style="enable-background:new 0 0 98 32;" xml:space="preserve">
<style type="text/css">
	.st0{opacity:0.44;}
	.st1{fill:#4B4B4B;}
</style>
<g class="st0">
	<path class="st1" d="M3.8,4.5C2.3,4.7,1,5.4,0,6.3C0.5,6.1,1,6,1.6,5.9C6.7,5,11.6,8.5,12.5,13.7c0,0.1,0,0.1,0,0.2
		c0.2-1,0.3-2,0.1-3.1C11.9,6.6,8,3.8,3.8,4.5L3.8,4.5z M12.7,3.5c-1.4-1.1-3-1.8-4.6-2c0.5,0.3,1.1,0.7,1.6,1.1
		c4.9,4,5.6,11.1,1.6,15.9c0,0.1-0.1,0.1-0.1,0.2c1.1-0.6,2-1.3,2.9-2.3C17.2,12.5,16.7,6.7,12.7,3.5L12.7,3.5z M16.4,0
		c0.7,1.4,1.1,2.9,1.4,4.6c1.1,6.8-1.8,13.3-7,17.2c6.7-1.1,11.2-7.4,10.1-14.1C20.3,4.5,18.7,1.8,16.4,0z M24,5.9
		c0.1,8.8-6.2,16.6-15.1,18.1c-1.7,0.3-3.4,0.3-5,0.1c2.7,1.4,5.9,2,9.1,1.5c7.9-1.3,13.2-8.7,11.9-16.6C24.7,7.9,24.4,6.9,24,5.9
		L24,5.9z"/>
	<path d="M63,25.9c-0.3,0-6.1,0-6.1,0l0-16.7c0-1.3-0.1-1.7-0.5-2c-0.3-0.2-1.5-0.2-2.1-0.2l0.2-0.7h6.6c3.9-0.1,6.7,0.7,7.2,4
		c0.3,2.1-1,4.1-3.7,4.8c4.5,0.6,5.2,3.7,5.2,5C69.8,23.2,68.1,25.9,63,25.9L63,25.9z M61.2,7.2l-1.3,0l0,7.6l1.9,0
		c2.1,0,3.5-0.8,3.5-4C65.3,7.8,63.6,7.3,61.2,7.2z M61.7,15.6h-1.8l0,7c0,0.7-0.1,1.8,0.3,2c0.2,0.2,0.9,0.5,1.9,0.5
		c3.8,0,4.5-1.9,4.5-4.6C66.6,18,65.6,15.7,61.7,15.6L61.7,15.6z M82.8,18.7h-8.3c-0.3,3.6,1.6,6.5,4.3,6.5c2.3,0,3.7-1.3,3.7-1.3
		l0.2,0.8c0,0-1.5,1.7-5,1.6c-3.1-0.1-6.3-2.6-6-7.2c0.2-2.9,2.1-6.9,6.2-6.9c4,0,5.1,3,5.1,5.5C82.9,18.3,82.8,18.7,82.8,18.7
		L82.8,18.7z M77.7,13.1c-1.2,0-2.8,1-3.2,4.7h4.8c0.8,0,0.8,0,0.8-0.9C80.1,14.9,79.5,13.1,77.7,13.1z M90.3,25.8l-4.6,0l0-17.1
		c0-1-0.3-1.4-0.8-1.6c-0.4-0.2-1.2-0.3-1.7-0.3l0.2-0.6h4.7V23c0,1.2,0.3,1.7,0.8,2c0.3,0.1,1,0.3,1.5,0.3L90.3,25.8L90.3,25.8z
		 M97.4,25.8l-4.6,0V8.8c0-1-0.3-1.4-0.8-1.6c-0.4-0.2-1.2-0.3-1.7-0.3l0.2-0.6h4.7V23c0,1.2,0.3,1.7,0.8,2c0.3,0.1,1,0.3,1.5,0.3
		L97.4,25.8z M42.2,23.3c0,0-1.2-3.3-2.5-6.8c-1.4-4-3.4-10.2-3.4-10.2l-2.4,0l-6.6,17.8c-0.4,0.8-0.9,1-1.9,1l-0.2,0.7h4.7l0.2-0.6
		c0,0-1.2,0-1.4-0.2c-0.3-0.2-0.2-0.8,0.2-1.9l1.6-4.4l7.2,0l2.3,7.2h4.6l0.2-0.6C43.6,25.1,42.8,24.8,42.2,23.3L42.2,23.3z
		 M30.8,17.4c0,0,2.8-7.2,3.5-8.8c0.7,1.8,2.9,8.8,2.9,8.8H30.8L30.8,17.4z M51.1,24.3c0,4.3-1.8,6.7-5.6,6.7c-0.2,0-0.5,0-0.6,0
		l-0.3-0.8c0.7,0.1,1.5,0,2.1-0.4c0.6-0.3,1.2-1,1.3-2.7c0.1-1.6,0-3.4,0-5.2V9.3c0-1.3-0.1-1.7-0.5-2c-0.3-0.2-1.5-0.2-2.1-0.2
		l0.2-0.7h5.4L51.1,24.3z"/>
</g>
</svg>
