<?xml version="1.0" encoding="utf-8"?>
<!-- Generator: Adobe Illustrator 22.1.0, SVG Export Plug-In . SVG Version: 6.00 Build 0)  -->
<svg version="1.1" id="Layer_1" xmlns="http://www.w3.org/2000/svg" xmlns:xlink="http://www.w3.org/1999/xlink" x="0px" y="0px"
	 viewBox="0 0 400 400" style="enable-background:new 0 0 400 400;" xml:space="preserve">
<style type="text/css">
	.st0{fill:#A7A9AC;}
	.st1{fill:#FFFFFF;}
</style>
<title>IG_digital_logo_2016</title>
<rect class="st0" width="400" height="400"/>
<path class="st1" d="M343.1,224.7H263l-40.1,39.5h75.2c-16.6,41.3-63.5,61.4-104.9,44.9c-41.3-16.6-61.4-63.5-44.9-104.9
	s63.5-61.4,104.9-44.9c16.9,6.8,31.1,19.1,40.1,34.9l28.8-28.8c-37.9-54.6-112.9-68.1-167.6-30.2s-68.1,112.9-30.2,167.6
	s112.9,68.1,167.6,30.2c32.4-22.5,51.7-59.4,51.7-98.9C343.5,231,343.4,227.8,343.1,224.7z"/>
<path class="st1" d="M41.9,117.6v191.2c9.7,18.5,23.2,34.8,39.8,46.5V117.6H41.9z"/>
</svg>
