<svg width="90" height="30" viewBox="0 0 90 30" fill="none" xmlns="http://www.w3.org/2000/svg">
<g style="mix-blend-mode:luminosity" opacity="0.44">
<path fill-rule="evenodd" clip-rule="evenodd" d="M68.8604 22.7759H70.4628V24.099C70.7127 23.1288 71.5359 22.6877 72.2857 22.6877C72.5356 22.6877 72.7414 22.7025 72.9178 22.7465V24.2166C72.6678 24.1872 72.5356 24.1872 72.2857 24.1872C71.1537 24.1872 70.4628 25.0398 70.4628 26.5979V29.6261H68.8604V22.7759Z" fill="black"/>
<path d="M66.0082 26.2011C66.0082 24.9516 65.2879 24.0255 63.9942 24.0255C62.7005 24.0255 61.9803 24.9516 61.9803 26.2011C61.9803 27.4505 62.7005 28.3766 63.9942 28.3766C65.2879 28.3766 66.0082 27.4505 66.0082 26.2011ZM60.3779 26.2011C60.3779 24.1872 61.7303 22.5996 63.9942 22.5996C66.258 22.5996 67.6107 24.1872 67.6107 26.2011C67.6107 28.215 66.258 29.8026 63.9942 29.8026C61.7303 29.8026 60.3779 28.215 60.3779 26.2011Z" fill="black"/>
<path fill-rule="evenodd" clip-rule="evenodd" d="M59.7174 28.2147V29.626C59.4676 29.67 58.9972 29.7142 58.5267 29.7142C57.7475 29.7142 56.307 29.6112 56.307 27.3033V24.1134H55.1455V22.7758H56.307V20.7031H57.9091V22.7758H59.4822V24.1134H57.9091V26.9359C57.9091 28.1265 58.2769 28.2735 58.909 28.2735C59.1588 28.2735 59.5558 28.2441 59.7174 28.2147Z" fill="black"/>
<path fill-rule="evenodd" clip-rule="evenodd" d="M48.8682 27.5239H50.4705C50.4705 28.1119 51.0439 28.5235 51.867 28.5235C52.4698 28.5235 52.8519 28.2001 52.8519 27.7149C52.8519 27.3328 52.6903 27.0975 51.9552 26.9065L50.5881 26.539C49.6326 26.2744 49.0886 25.5834 49.0886 24.6134C49.0886 23.452 50.1911 22.5994 51.72 22.5994C53.3959 22.5994 54.425 23.4079 54.425 24.731H52.8519C52.8519 24.1576 52.411 23.8196 51.6612 23.8196C51.0879 23.8196 50.6763 24.1134 50.6763 24.5252C50.6763 24.8926 50.8969 25.1424 51.529 25.3188L52.8961 25.7157C53.8664 25.995 54.4838 26.7007 54.4838 27.6709C54.4838 29.0085 53.44 29.8023 51.7788 29.8023C50.1029 29.8023 48.8682 28.8321 48.8682 27.5239Z" fill="black"/>
<path d="M46.5602 25.5101C46.5456 24.4518 45.9282 23.8637 44.8255 23.8637C43.6936 23.8637 43.0172 24.54 43.0027 25.5101H46.5602ZM41.415 26.2011C41.415 24.0107 42.7674 22.5996 44.8549 22.5996C46.8101 22.5996 48.1332 23.9225 48.1332 25.8483C48.1332 26.1275 48.1184 26.3481 48.089 26.7302H43.0027C43.0468 27.818 43.7524 28.406 44.9137 28.406C45.7076 28.406 46.178 28.1562 46.4426 27.627H48.0596C47.8538 28.9058 46.5602 29.8026 44.9137 29.8026C42.7528 29.8026 41.415 28.4208 41.415 26.2011Z" fill="black"/>
<path fill-rule="evenodd" clip-rule="evenodd" d="M33.9619 22.7759H35.6819L37.5782 27.4798L39.4747 22.7759H41.1945L38.2251 29.626H36.9314L33.9619 22.7759Z" fill="black"/>
<path fill-rule="evenodd" clip-rule="evenodd" d="M26.9648 22.776H28.5672V23.7315C28.9934 22.9964 29.7873 22.5996 30.8016 22.5996C32.4482 22.5996 33.3007 23.5258 33.3007 25.3191V29.6262H31.6983V26.0541C31.6983 24.5988 31.3162 23.9667 30.1989 23.9667C29.1552 23.9667 28.5672 24.6576 28.5672 25.8631V29.6262H26.9648V22.776Z" fill="black"/>
<path d="M23.3129 29.6261H24.9006V22.776H23.3129V29.6261ZM22.916 20.6005C22.916 19.9389 23.4011 19.4097 24.1067 19.4097C24.8124 19.4097 25.2976 19.9389 25.2976 20.6005C25.2976 21.2619 24.8124 21.7911 24.1067 21.7911C23.4011 21.7911 22.916 21.2619 22.916 20.6005Z" fill="black"/>
<path d="M88.4264 12.2545C88.4118 11.1961 87.7944 10.6081 86.6919 10.6081C85.5598 10.6081 84.8836 11.2843 84.869 12.2545H88.4264ZM83.2812 12.9455C83.2812 10.7551 84.6337 9.34399 86.7213 9.34399C88.6763 9.34399 89.9995 10.6669 89.9995 12.5925C89.9995 12.8719 89.9847 13.0925 89.9553 13.4745H84.869C84.913 14.5624 85.6186 15.1504 86.7801 15.1504C87.5738 15.1504 88.0442 14.9005 88.3088 14.3713H89.9259C89.7201 15.6502 88.4264 16.5468 86.7801 16.5468C84.6191 16.5468 83.2812 15.165 83.2812 12.9455Z" fill="black"/>
<path d="M75.8281 9.52026H77.5482L79.4444 14.2242L81.3409 9.52026H83.0609L80.0913 16.3704H78.7976L75.8281 9.52026Z" fill="black"/>
<path d="M73.5064 16.3705H75.0939V9.52034H73.5064V16.3705ZM73.1094 7.3447C73.1094 6.68326 73.5946 6.15405 74.3002 6.15405C75.0059 6.15405 75.4909 6.68326 75.4909 7.3447C75.4909 8.00614 75.0059 8.53535 74.3002 8.53535C73.5946 8.53535 73.1094 8.00614 73.1094 7.3447Z" fill="black"/>
<path fill-rule="evenodd" clip-rule="evenodd" d="M72.3297 14.9591V16.3703C72.0797 16.4144 71.6093 16.4585 71.1389 16.4585C70.3598 16.4585 68.9191 16.3556 68.9191 14.0477V10.8578H67.7578V9.52017H68.9191V7.44751H70.5215V9.52017H72.0944V10.8578H70.5215V13.6803C70.5215 14.8709 70.889 15.0179 71.5211 15.0179C71.771 15.0179 72.168 14.9885 72.3297 14.9591Z" fill="black"/>
<path fill-rule="evenodd" clip-rule="evenodd" d="M60.5107 12.9455C60.5107 10.814 61.7897 9.34399 63.9212 9.34399C65.8324 9.34399 67.0231 10.3876 67.1701 11.9606H65.5677C65.3913 11.1815 64.8916 10.7698 63.9212 10.7698C62.7893 10.7698 62.1131 11.549 62.1131 12.9455C62.1131 14.3419 62.7893 15.121 63.9212 15.121C64.8916 15.121 65.3913 14.7241 65.5677 14.0038H67.1701C67.0231 15.5326 65.8324 16.547 63.9212 16.547C61.7897 16.547 60.5107 15.0769 60.5107 12.9455Z" fill="black"/>
<path d="M57.7329 12.9455C57.7329 11.7695 57.0713 10.7698 55.7042 10.7698C54.4546 10.7698 53.7049 11.696 53.7049 12.9455C53.7049 14.1949 54.4546 15.121 55.7042 15.121C57.0713 15.121 57.7329 14.1214 57.7329 12.9455ZM52.1025 12.9455C52.1025 10.9316 53.3815 9.34399 55.5132 9.34399C56.4245 9.34399 57.2477 9.7556 57.6741 10.4464V9.5204H59.2617V16.3706H57.6741V15.4444C57.2477 16.1354 56.3069 16.547 55.469 16.547C53.2638 16.547 52.1025 14.9593 52.1025 12.9455Z" fill="black"/>
<path fill-rule="evenodd" clip-rule="evenodd" d="M47.5303 9.52033H49.1327V10.8434C49.3826 9.87314 50.2058 9.43213 50.9555 9.43213C51.2055 9.43213 51.4113 9.4469 51.5877 9.49093V10.961C51.3378 10.9316 51.2055 10.9316 50.9555 10.9316C49.8236 10.9316 49.1327 11.7842 49.1327 13.3423V16.3705H47.5303V9.52033Z" fill="black"/>
<path d="M44.7087 12.2545C44.694 11.1961 44.0766 10.6081 42.974 10.6081C41.8421 10.6081 41.1658 11.2843 41.1512 12.2545H44.7087ZM39.5635 12.9455C39.5635 10.7551 40.916 9.34399 43.0034 9.34399C44.9585 9.34399 46.2817 10.6669 46.2817 12.5925C46.2817 12.8719 46.267 13.0925 46.2376 13.4745H41.1512C41.1952 14.5624 41.9009 15.1504 43.0622 15.1504C43.856 15.1504 44.3264 14.9005 44.5911 14.3713H46.2082C46.0024 15.6502 44.7087 16.5468 43.0622 16.5468C40.9013 16.5468 39.5635 15.165 39.5635 12.9455Z" fill="black"/>
<path fill-rule="evenodd" clip-rule="evenodd" d="M38.9009 14.9591V16.3703C38.651 16.4144 38.1806 16.4585 37.7102 16.4585C36.9311 16.4585 35.4904 16.3556 35.4904 14.0477V10.8578H34.3291V9.52017H35.4904V7.44751H37.0927V9.52017H38.6657V10.8578H37.0927V13.6803C37.0927 14.8709 37.4603 15.0179 38.0924 15.0179C38.3422 15.0179 38.7392 14.9885 38.9009 14.9591Z" fill="black"/>
<path fill-rule="evenodd" clip-rule="evenodd" d="M26.9648 9.5204H28.5672V10.4758C28.9934 9.74083 29.7873 9.34399 30.8016 9.34399C32.4482 9.34399 33.3007 10.2702 33.3007 12.0635V16.3706H31.6983V12.7985C31.6983 11.3432 31.3162 10.711 30.1989 10.711C29.1552 10.711 28.5672 11.4019 28.5672 12.6073V16.3706H26.9648V9.5204Z" fill="black"/>
<path d="M23.3129 16.3705H24.9006V9.52034H23.3129V16.3705ZM22.916 7.3447C22.916 6.68326 23.4011 6.15405 24.1067 6.15405C24.8124 6.15405 25.2976 6.68326 25.2976 7.3447C25.2976 8.00614 24.8124 8.53535 24.1067 8.53535C23.4011 8.53535 22.916 8.00614 22.916 7.3447Z" fill="black"/>
<path fill-rule="evenodd" clip-rule="evenodd" d="M10.876 29.6261H16.8999V9.52026H10.876V29.6261Z" fill="black"/>
<path fill-rule="evenodd" clip-rule="evenodd" d="M17.6739 3.78549C17.6739 5.87616 15.979 7.57097 13.8882 7.57097C11.7974 7.57097 10.1025 5.87616 10.1025 3.78549C10.1025 1.69482 11.7974 0 13.8882 0C15.979 0 17.6739 1.69482 17.6739 3.78549Z" fill="black"/>
<path fill-rule="evenodd" clip-rule="evenodd" d="M7.57134 9.75863C7.57134 11.8493 5.87644 13.5441 3.78567 13.5441C1.69504 13.5441 0 11.8493 0 9.75863C0 7.66796 1.69504 5.97314 3.78567 5.97314C5.87644 5.97314 7.57134 7.66796 7.57134 9.75863Z" fill="black"/>
<path fill-rule="evenodd" clip-rule="evenodd" d="M0.773438 29.626H6.79745V15.4514H0.773438V29.626Z" fill="black"/>
</g>
</svg>
