<svg width="80" height="33" viewBox="0 0 80 33" fill="none" xmlns="http://www.w3.org/2000/svg">
<path fill-rule="evenodd" clip-rule="evenodd" d="M4.35067 6.13793C4.35067 7.60859 5.46161 8.29669 8.03572 9.28163L8.02217 9.29512C11.355 10.5229 13.0214 12.196 13.0214 14.9349C13.0214 17.9976 10.664 20.6826 5.67837 20.6826C4.71647 20.6826 3.40232 20.5881 0.706273 19.7516C0.679177 19.7516 0.638533 19.7381 0.611437 19.7111C0.584341 19.6977 0.557245 19.6707 0.543697 19.6437C0.53015 19.6167 0.516602 19.5762 0.516602 19.5492C0.516602 19.5223 0.516602 19.4818 0.53015 19.4548C0.570793 19.3469 0.895944 18.3349 1.11271 17.6873C1.20755 17.404 1.27529 17.1746 1.28884 17.1341C1.30238 17.1071 1.31593 17.0667 1.34303 17.0532C1.37012 17.0262 1.39722 17.0127 1.42431 16.9992C1.45141 16.9857 1.49205 16.9722 1.51915 16.9722C1.54625 16.9722 1.58689 16.9722 1.61399 16.9857C4.22874 17.7683 5.25839 17.8087 5.93578 17.8087C8.18475 17.8087 9.44471 16.7563 9.44471 15.2047C9.44471 13.7611 8.4828 12.8976 6.03062 12.034C2.8333 10.8872 0.814657 9.21417 0.814657 6.47524C0.814657 3.35852 3.42941 0.983887 7.60218 0.983887C8.63183 0.983887 9.68857 1.05135 11.8698 1.6585C11.8969 1.6585 11.9375 1.67199 11.9646 1.69898C11.9917 1.71247 12.0188 1.73945 12.0324 1.76644C12.0459 1.79342 12.0595 1.82041 12.0595 1.86088C12.0595 1.88787 12.0595 1.92834 12.0459 1.95533C12.0053 2.13073 11.4498 4.12758 11.4092 4.276C11.3956 4.30298 11.3821 4.34346 11.3685 4.37044C11.355 4.39743 11.3279 4.42441 11.3008 4.43791C11.2737 4.4514 11.2466 4.46489 11.2059 4.46489C11.1788 4.46489 11.1382 4.46489 11.1111 4.4514C8.94343 3.87123 8.26603 3.84425 7.56154 3.84425C5.31258 3.84425 4.35067 5.03157 4.35067 6.13793ZM29.2925 1.37516C29.3331 1.40215 29.3602 1.44262 29.3873 1.49659V1.51008C29.4279 1.60453 35.4026 19.8596 35.4703 20.0754C35.4839 20.1159 35.4839 20.1564 35.4839 20.1834C35.4839 20.2239 35.4568 20.2508 35.4432 20.2913C35.4297 20.3318 35.389 20.3453 35.3484 20.3588C35.3078 20.3723 35.2671 20.3723 35.24 20.3723H32.0021C31.9479 20.3723 31.8937 20.3588 31.8395 20.3183C31.7988 20.2778 31.7582 20.2239 31.7582 20.1699C31.7175 20.035 30.3628 15.7984 30.3628 15.7984H23.7784L22.4507 20.1159C22.4372 20.1834 22.3966 20.2508 22.3424 20.2913C22.2882 20.3318 22.2204 20.3588 22.1391 20.3588H19.0909C19.0502 20.3588 19.0096 20.3453 18.9825 20.3318C18.9418 20.3183 18.9147 20.2913 18.9012 20.2643C18.8741 20.2373 18.8605 20.1969 18.8605 20.1564C18.8605 20.1159 18.8605 20.0754 18.8741 20.0485C18.9012 19.9675 20.7979 14.0714 22.4507 8.95781V8.94432C23.7243 5.01807 24.8352 1.55056 24.8487 1.49659C24.8623 1.44262 24.8894 1.40215 24.93 1.37516C24.9707 1.34818 25.0249 1.33469 25.079 1.34818H29.1705C29.1976 1.33469 29.2518 1.34818 29.2925 1.37516ZM25.9461 7.66256C25.6616 8.68797 24.2662 13.4912 24.2662 13.4912H29.7802C29.7802 13.4912 28.6015 9.59195 28.0461 7.66256C27.6396 6.27285 27.2738 4.92363 27.0977 4.26251C27.03 4.00615 26.908 4.00615 26.8403 4.26251C26.6913 4.88315 26.3797 6.16491 25.9461 7.66256ZM51.5111 10.2396C51.5111 10.4689 51.5653 10.6983 51.7008 10.8872V10.8737C51.8363 11.1436 53.4078 14.0174 54.7626 16.473C55.7652 18.2945 56.6322 19.8865 56.6864 19.981C56.8084 20.2104 56.7 20.3318 56.4697 20.3318H53.0285C52.8795 20.3318 52.7846 20.2778 52.6762 20.0754C52.5679 19.8596 49.506 13.842 48.8964 12.6412C48.7609 12.3444 48.5441 12.3579 48.4086 12.6412C47.3519 14.746 44.7507 19.8731 44.6423 20.0754C44.6152 20.1564 44.5475 20.2373 44.4662 20.2778C44.3849 20.3318 44.2901 20.3453 44.2088 20.3318H41.0521C40.8624 20.3318 40.7405 20.1969 40.8624 19.981C40.9844 19.7651 45.4281 11.3999 45.6719 10.9412C45.7939 10.7388 45.8616 10.4959 45.8481 10.2531C45.8345 10.0102 45.7668 9.78084 45.6178 9.57846C45.4823 9.3356 41.2011 1.94184 41.0656 1.69898C40.9302 1.44262 41.0792 1.32119 41.3231 1.32119H44.5881C44.6965 1.3077 44.7913 1.33469 44.8862 1.38865C44.981 1.44262 45.0487 1.52358 45.0894 1.61802L48.4222 8.37765C48.5983 8.72844 48.7609 8.71495 48.937 8.37765C50.075 6.1919 52.3511 1.72596 52.4324 1.55056C52.473 1.46961 52.5272 1.40215 52.6085 1.36167C52.6898 1.32119 52.7711 1.3077 52.8659 1.32119H55.7787C56.0226 1.32119 56.1039 1.49659 55.9684 1.73945C55.8329 1.96882 52.3375 8.44511 51.7821 9.47052L51.7279 9.57846C51.5924 9.78084 51.5247 10.0102 51.5111 10.2396ZM62.4172 10.6174C62.4172 5.32839 65.5468 1.09182 71.0202 1.09182C76.5071 1.09182 79.6231 5.32839 79.6231 10.6174C79.6231 16.0547 77.0897 20.3318 71.6976 20.6556V19.077C71.6976 18.9961 71.7653 18.9151 71.8466 18.9016C74.5697 18.4833 76.5748 16.1222 76.5748 13.3563V11.6023C76.5748 11.211 76.2632 10.9007 75.8839 10.9007C75.5046 10.9007 75.1929 11.211 75.1929 11.6023V13.3563C75.1929 15.677 73.3233 17.5659 71.0066 17.5659C68.6899 17.5659 66.8203 15.677 66.8203 13.3563V11.6023C66.8203 11.211 66.5087 10.9007 66.1294 10.9007C65.75 10.9007 65.4384 11.211 65.4384 11.6023V13.3563C65.4384 16.1222 67.4571 18.4699 70.1667 18.9016C70.2479 18.9151 70.3157 18.9826 70.3157 19.077V20.6556C64.9371 20.3048 62.4172 16.0278 62.4172 10.6174ZM74.1362 13.3563C74.1362 15.0968 72.7272 16.5135 70.9931 16.5135C69.2589 16.5135 67.8635 15.0968 67.85 13.3563V12.1825C67.8771 12.1825 67.9177 12.196 67.9448 12.196H69.1099C69.3944 12.196 69.6112 11.9666 69.6112 11.6967C69.6112 11.4134 69.3809 11.1975 69.1099 11.1975H67.9448C67.9177 11.1975 67.8771 11.1975 67.85 11.211V10.4689C67.8771 10.4689 67.9177 10.4824 67.9448 10.4824H69.1099C69.3944 10.4824 69.6112 10.2531 69.6112 9.98322C69.6112 9.69989 69.3809 9.48401 69.1099 9.48401H67.9448C67.9177 9.48401 67.8771 9.48401 67.85 9.4975V8.47209C67.85 6.73159 69.2589 5.3149 70.9931 5.3149C72.7272 5.3149 74.1362 6.73159 74.1362 8.47209V9.48401H73.0253C72.7408 9.48401 72.524 9.71338 72.524 9.98322C72.524 10.2666 72.7543 10.4824 73.0253 10.4824H74.1362V11.1975H73.0253C72.7408 11.1975 72.524 11.4269 72.524 11.6967C72.524 11.9801 72.7543 12.196 73.0253 12.196H74.1362V13.3563Z" fill="white"/>
<path d="M2.49831 32.2388L1.32169 28.1135H1.28945C1.3378 28.8198 1.37004 29.3655 1.37004 29.7508V32.2388H0V26.5083H2.06312L3.25586 30.5694H3.2881L4.46472 26.5083H6.54396V32.2388H5.10944V29.7347C5.10944 29.6063 5.10944 29.4618 5.10944 29.3013C5.10944 29.1408 5.12556 28.7556 5.1578 28.1295H5.12556L3.96506 32.2549H2.49831V32.2388Z" fill="white"/>
<path d="M13.7326 32.2389L13.4424 31.1634H11.5727L11.2826 32.2389H9.59021L11.4599 26.4923H13.5391L15.4411 32.2389H13.7326ZM13.1362 29.8953L12.8944 28.9482C12.8299 28.7396 12.7655 28.4667 12.6849 28.1296C12.6043 27.7925 12.5398 27.5678 12.5237 27.4233C12.5076 27.5517 12.4592 27.7765 12.3786 28.0814C12.3142 28.3864 12.153 28.9964 11.9112 29.8953H13.1362Z" fill="white"/>
<path d="M20.0347 30.1682V32.2549H18.4874V26.5244H20.3732C21.9367 26.5244 22.7264 27.0862 22.7264 28.2099C22.7264 28.868 22.4041 29.3816 21.7432 29.7508L23.4195 32.2549H21.6627L20.4377 30.1682H20.0347ZM20.0347 28.9964H20.3249C20.8729 28.9964 21.1469 28.7556 21.1469 28.2741C21.1469 27.8728 20.8729 27.6801 20.341 27.6801H20.0347V28.9964Z" fill="white"/>
<path d="M31.253 32.2388H29.4961L28.3517 30.0558L27.8843 30.3286V32.2388H26.3208V26.5083H27.8843V28.9963C27.9649 28.8358 28.126 28.595 28.3678 28.258L29.5767 26.5083H31.2691L29.4477 29.0766L31.253 32.2388Z" fill="white"/>
<path d="M37.7163 32.2388H34.2993V26.5083H37.7163V27.7443H35.8627V28.6432H37.5874V29.8792H35.8627V30.9547H37.7163V32.2388Z" fill="white"/>
<path d="M43.6803 32.2388H42.1329V27.7764H40.7307V26.5083H45.0986V27.7764H43.6803V32.2388Z" fill="white"/>
<path d="M55.3977 27.6962C55.027 27.6962 54.7369 27.8407 54.5274 28.1456C54.3178 28.4506 54.2211 28.868 54.2211 29.3977C54.2211 30.5053 54.6402 31.051 55.4783 31.051C55.7362 31.051 55.978 31.0189 56.2198 30.9387C56.4615 30.8745 56.7033 30.7781 56.9451 30.6818V31.9981C56.4615 32.2068 55.9296 32.3191 55.3172 32.3191C54.4468 32.3191 53.7859 32.0623 53.3185 31.5647C52.8511 31.0671 52.6254 30.3447 52.6254 29.3977C52.6254 28.8038 52.7383 28.2901 52.9639 27.8407C53.1896 27.3912 53.5119 27.0381 53.931 26.7973C54.3501 26.5565 54.8497 26.4281 55.4139 26.4281C56.0425 26.4281 56.6227 26.5565 57.203 26.8294L56.7194 28.0493C56.5099 27.953 56.3004 27.8728 56.0747 27.7925C55.8652 27.7444 55.6395 27.6962 55.3977 27.6962Z" fill="white"/>
<path d="M64.0049 32.2389L63.7148 31.1634H61.8451L61.5549 32.2389H59.8464L61.7322 26.4923H63.8115L65.7134 32.2389H64.0049ZM63.4085 29.8953L63.1667 28.9482C63.1023 28.7396 63.0378 28.4667 62.9572 28.1296C62.8766 27.7925 62.8122 27.5678 62.796 27.4233C62.7799 27.5517 62.7316 27.7765 62.651 28.0814C62.5865 28.3864 62.4253 28.9964 62.1835 29.8953H63.4085Z" fill="white"/>
<path d="M68.7438 32.2388V26.5083H70.2911V30.9868H72.4993V32.2388H68.7438Z" fill="white"/>
<path d="M75.8517 32.2388V26.5083H77.399V30.9868H79.6233V32.2388H75.8517Z" fill="white"/>
</svg>
