<svg width="80" height="32" viewBox="0 0 80 32" fill="none" xmlns="http://www.w3.org/2000/svg">
<path fill-rule="evenodd" clip-rule="evenodd" d="M4.7286 5.15404C4.7286 6.6247 5.83954 7.31281 8.41365 8.29774L8.4001 8.31123C11.7329 9.53903 13.3993 11.2121 13.3993 13.951C13.3993 17.0137 11.042 19.6987 6.0563 19.6987C5.0944 19.6987 3.78025 19.6043 1.0842 18.7677C1.05711 18.7677 1.01646 18.7542 0.989367 18.7273C0.962271 18.7138 0.935175 18.6868 0.921627 18.6598C0.908079 18.6328 0.894531 18.5923 0.894531 18.5654C0.894531 18.5384 0.894531 18.4979 0.908079 18.4709C0.948723 18.363 1.27387 17.351 1.49064 16.7034C1.58548 16.4201 1.65322 16.1907 1.66676 16.1502C1.68031 16.1233 1.69386 16.0828 1.72096 16.0693C1.74805 16.0423 1.77515 16.0288 1.80224 16.0153C1.82934 16.0018 1.86998 15.9883 1.89708 15.9883C1.92418 15.9883 1.96482 15.9883 1.99192 16.0018C4.60667 16.7844 5.63632 16.8248 6.31371 16.8248C8.56268 16.8248 9.82264 15.7725 9.82264 14.2208C9.82264 12.7772 8.86073 11.9137 6.40855 11.0502C3.21123 9.90332 1.19259 8.23028 1.19259 5.49135C1.19259 2.37464 3.80734 0 7.98011 0C9.00976 0 10.0665 0.0674613 12.2477 0.674613C12.2748 0.674613 12.3155 0.688105 12.3426 0.71509C12.3697 0.728582 12.3967 0.755567 12.4103 0.782551C12.4238 0.809536 12.4374 0.83652 12.4374 0.876997C12.4374 0.903982 12.4374 0.944458 12.4238 0.971443C12.3832 1.14684 11.8277 3.1437 11.7871 3.29211C11.7735 3.3191 11.76 3.35957 11.7464 3.38656C11.7329 3.41354 11.7058 3.44053 11.6787 3.45402C11.6516 3.46751 11.6245 3.481 11.5839 3.481C11.5568 3.481 11.5161 3.481 11.489 3.46751C9.32136 2.88734 8.64396 2.86036 7.93947 2.86036C5.69051 2.86036 4.7286 4.04768 4.7286 5.15404ZM29.6704 0.391276C29.711 0.41826 29.7381 0.458737 29.7652 0.512706V0.526198C29.8059 0.620644 35.7805 18.8757 35.8483 19.0915C35.8618 19.132 35.8618 19.1725 35.8618 19.1995C35.8618 19.24 35.8347 19.2669 35.8212 19.3074C35.8076 19.3479 35.767 19.3614 35.7263 19.3749C35.6857 19.3884 35.645 19.3884 35.6179 19.3884H32.38C32.3258 19.3884 32.2716 19.3749 32.2174 19.3344C32.1768 19.2939 32.1361 19.24 32.1361 19.186C32.0955 19.0511 30.7407 14.8145 30.7407 14.8145H24.1564L22.8287 19.132C22.8151 19.1995 22.7745 19.2669 22.7203 19.3074C22.6661 19.3479 22.5984 19.3749 22.5171 19.3749H19.4688C19.4281 19.3749 19.3875 19.3614 19.3604 19.3479C19.3198 19.3344 19.2927 19.3074 19.2791 19.2804C19.252 19.2535 19.2385 19.213 19.2385 19.1725C19.2385 19.132 19.2385 19.0915 19.252 19.0646C19.2791 18.9836 21.1758 13.0875 22.8287 7.97393V7.96043C24.1022 4.03419 25.2131 0.566675 25.2267 0.512706C25.2402 0.458737 25.2673 0.41826 25.308 0.391276C25.3486 0.364291 25.4028 0.350799 25.457 0.364291H29.5485C29.5756 0.350799 29.6298 0.364291 29.6704 0.391276ZM26.324 6.67867C26.0395 7.70408 24.6441 12.5073 24.6441 12.5073H30.1581C30.1581 12.5073 28.9794 8.60806 28.424 6.67867C28.0175 5.28897 27.6517 3.93974 27.4756 3.27862C27.4079 3.02227 27.286 3.02227 27.2182 3.27862C27.0692 3.89926 26.7576 5.18103 26.324 6.67867ZM51.889 9.25569C51.889 9.48506 51.9432 9.71443 52.0787 9.90332V9.88983C52.2142 10.1597 53.7858 13.0335 55.1406 15.4891C56.1431 17.3106 57.0102 18.9027 57.0644 18.9971C57.1863 19.2265 57.0779 19.3479 56.8476 19.3479H53.4064C53.2574 19.3479 53.1626 19.2939 53.0542 19.0915C52.9458 18.8757 49.8839 12.8581 49.2743 11.6573C49.1388 11.3605 48.922 11.374 48.7866 11.6573C47.7298 13.7621 45.1286 18.8892 45.0202 19.0915C44.9931 19.1725 44.9254 19.2535 44.8441 19.2939C44.7628 19.3479 44.668 19.3614 44.5867 19.3479H41.43C41.2403 19.3479 41.1184 19.213 41.2403 18.9971C41.3623 18.7812 45.806 10.416 46.0499 9.95729C46.1718 9.7549 46.2395 9.51204 46.226 9.26918C46.2125 9.02632 46.1447 8.79695 45.9957 8.59457C45.8602 8.35171 41.579 0.957951 41.4436 0.71509C41.3081 0.458737 41.4571 0.337307 41.701 0.337307H44.966C45.0744 0.323814 45.1693 0.350799 45.2641 0.404768C45.3589 0.458737 45.4267 0.53969 45.4673 0.634136L48.8001 7.39376C48.9762 7.74456 49.1388 7.73107 49.3149 7.39376C50.453 5.20801 52.729 0.742074 52.8103 0.566675C52.8509 0.485721 52.9051 0.41826 52.9864 0.377783C53.0677 0.337306 53.149 0.323814 53.2438 0.337307H56.1567C56.4005 0.337307 56.4818 0.512706 56.3463 0.755567C56.2108 0.984935 52.7155 7.46122 52.16 8.48663L52.1058 8.59457C51.9703 8.79695 51.9026 9.02632 51.889 9.25569ZM62.7952 9.63347C62.7952 4.34451 65.9247 0.107938 71.3981 0.107938C76.885 0.107938 80.0011 4.34451 80.0011 9.63347C80.0011 15.0709 77.4676 19.3479 72.0755 19.6717V18.0931C72.0755 18.0122 72.1432 17.9312 72.2245 17.9177C74.9477 17.4995 76.9528 15.1383 76.9528 12.3724V10.6184C76.9528 10.2271 76.6412 9.91681 76.2618 9.91681C75.8825 9.91681 75.5709 10.2271 75.5709 10.6184V12.3724C75.5709 14.6931 73.7013 16.582 71.3846 16.582C69.0679 16.582 67.1982 14.6931 67.1982 12.3724V10.6184C67.1982 10.2271 66.8866 9.91681 66.5073 9.91681C66.128 9.91681 65.8163 10.2271 65.8163 10.6184V12.3724C65.8163 15.1383 67.835 17.486 70.5446 17.9177C70.6259 17.9312 70.6936 17.9987 70.6936 18.0931V19.6717C65.3151 19.3209 62.7952 15.0439 62.7952 9.63347ZM74.5141 12.3724C74.5141 14.1129 73.1051 15.5296 71.371 15.5296C69.6369 15.5296 68.2414 14.1129 68.2279 12.3724V11.1986C68.255 11.1986 68.2956 11.2121 68.3227 11.2121H69.4878C69.7723 11.2121 69.9891 10.9827 69.9891 10.7129C69.9891 10.4295 69.7588 10.2136 69.4878 10.2136H68.3227C68.2956 10.2136 68.255 10.2136 68.2279 10.2271V9.48506C68.255 9.48506 68.2956 9.49855 68.3227 9.49855H69.4878C69.7723 9.49855 69.9891 9.26918 69.9891 8.99934C69.9891 8.716 69.7588 8.50012 69.4878 8.50012H68.3227C68.2956 8.50012 68.255 8.50012 68.2279 8.51362V7.4882C68.2279 5.7477 69.6369 4.33102 71.371 4.33102C73.1051 4.33102 74.5141 5.7477 74.5141 7.4882V8.50012H73.4032C73.1187 8.50012 72.9019 8.72949 72.9019 8.99934C72.9019 9.28267 73.1322 9.49855 73.4032 9.49855H74.5141V10.2136H73.4032C73.1187 10.2136 72.9019 10.443 72.9019 10.7129C72.9019 10.9962 73.1322 11.2121 73.4032 11.2121H74.5141V12.3724Z" fill="#11131B"/>
<path d="M2.87526 31.2549L1.69864 27.1296H1.6664C1.71476 27.8359 1.74699 28.3816 1.74699 28.7669V31.2549H0.376953V25.5244H2.44007L3.63281 29.5855H3.66505L4.84167 25.5244H6.92091V31.2549H5.4864V28.7508C5.4864 28.6224 5.4864 28.478 5.4864 28.3174C5.4864 28.1569 5.50251 27.7717 5.53475 27.1456H5.50251L4.34201 31.271H2.87526V31.2549Z" fill="#11131B"/>
<path d="M14.1091 31.255L13.819 30.1795H11.9493L11.6592 31.255H9.9668L11.8365 25.5084H13.9157L15.8177 31.255H14.1091ZM13.5128 28.9114L13.271 27.9644C13.2065 27.7557 13.1421 27.4828 13.0615 27.1457C12.9809 26.8086 12.9164 26.5839 12.9003 26.4394C12.8842 26.5678 12.8358 26.7926 12.7552 27.0976C12.6908 27.4025 12.5296 28.0125 12.2878 28.9114H13.5128Z" fill="#11131B"/>
<path d="M20.4126 29.1843V31.271H18.8652V25.5405H20.751C22.3145 25.5405 23.1043 26.1023 23.1043 27.226C23.1043 27.8841 22.7819 28.3978 22.1211 28.7669L23.7974 31.271H22.0405L20.8155 29.1843H20.4126ZM20.4126 28.0125H20.7027C21.2507 28.0125 21.5247 27.7717 21.5247 27.2902C21.5247 26.8889 21.2507 26.6963 20.7188 26.6963H20.4126V28.0125Z" fill="#11131B"/>
<path d="M31.6294 31.2549H29.8725L28.7282 29.0719L28.2607 29.3447V31.2549H26.6973V25.5244H28.2607V28.0124C28.3413 27.8519 28.5025 27.6112 28.7443 27.2741L29.9531 25.5244H31.6455L29.8242 28.0927L31.6294 31.2549Z" fill="#11131B"/>
<path d="M38.0928 31.2549H34.6758V25.5244H38.0928V26.7604H36.2392V27.6593H37.9639V28.8953H36.2392V29.9708H38.0928V31.2549Z" fill="#11131B"/>
<path d="M44.057 31.2549H42.5097V26.7925H41.1074V25.5244H45.4754V26.7925H44.057V31.2549Z" fill="#11131B"/>
<path d="M55.7743 26.7123C55.4036 26.7123 55.1134 26.8568 54.9039 27.1618C54.6944 27.4667 54.5976 27.8841 54.5976 28.4138C54.5976 29.5214 55.0167 30.0671 55.8549 30.0671C56.1127 30.0671 56.3545 30.035 56.5963 29.9548C56.8381 29.8906 57.0798 29.7943 57.3216 29.6979V31.0142C56.8381 31.2229 56.3062 31.3352 55.6937 31.3352C54.8233 31.3352 54.1625 31.0784 53.695 30.5808C53.2276 30.0832 53.002 29.3609 53.002 28.4138C53.002 27.8199 53.1148 27.3062 53.3404 26.8568C53.5661 26.4073 53.8884 26.0542 54.3075 25.8134C54.7266 25.5726 55.2262 25.4442 55.7904 25.4442C56.419 25.4442 56.9992 25.5726 57.5795 25.8455L57.0959 27.0654C56.8864 26.9691 56.6769 26.8889 56.4512 26.8086C56.2417 26.7605 56.016 26.7123 55.7743 26.7123Z" fill="#11131B"/>
<path d="M64.3811 31.255L64.091 30.1795H62.2213L61.9312 31.255H60.2227L62.1085 25.5084H64.1877L66.0896 31.255H64.3811ZM63.7847 28.9114L63.543 27.9644C63.4785 27.7557 63.414 27.4828 63.3334 27.1457C63.2528 26.8086 63.1884 26.5839 63.1723 26.4394C63.1561 26.5678 63.1078 26.7926 63.0272 27.0976C62.9627 27.4025 62.8015 28.0125 62.5598 28.9114H63.7847Z" fill="#11131B"/>
<path d="M69.1211 31.2549V25.5244H70.6684V30.0029H72.8766V31.2549H69.1211Z" fill="#11131B"/>
<path d="M76.2285 31.2549V25.5244H77.7758V30.0029H80.0001V31.2549H76.2285Z" fill="#11131B"/>
</svg>
