<svg width="16" height="14" viewBox="0 0 16 14" fill="none" xmlns="http://www.w3.org/2000/svg">
<path d="M5.03168 13.0526C11.0694 13.0526 14.3718 8.03046 14.3718 3.67526C14.3718 3.53261 14.3718 3.39061 14.3622 3.24925C15.0047 2.7827 15.5593 2.20503 16 1.54328C15.4009 1.80981 14.7653 1.9846 14.1146 2.06181C14.7998 1.64993 15.3127 1.0021 15.5578 0.2389C14.9134 0.622795 14.2084 0.893345 13.4733 1.03887C12.9783 0.510496 12.3237 0.160617 11.6108 0.0433807C10.8978 -0.0738558 10.1663 0.0480861 9.52931 0.390337C8.89234 0.732587 8.38548 1.27607 8.08716 1.93667C7.78884 2.59727 7.71569 3.33818 7.87904 4.04472C6.57392 3.97903 5.29715 3.63852 4.13161 3.04529C2.96607 2.45207 1.93782 1.61938 1.1136 0.601298C0.693819 1.32684 0.565248 2.18574 0.754066 3.00311C0.942885 3.82048 1.43489 4.53488 2.12992 5.00084C1.60751 4.98529 1.0965 4.84381 0.64 4.58832C0.64 4.60181 0.64 4.61595 0.64 4.63009C0.640207 5.391 0.902567 6.12843 1.38258 6.71728C1.86259 7.30613 2.53071 7.71016 3.2736 7.86083C2.79032 7.99315 2.28325 8.0125 1.79136 7.91737C2.00113 8.57224 2.40951 9.14491 2.95941 9.55528C3.5093 9.96566 4.17319 10.1932 4.85824 10.2061C3.69583 11.1233 2.25988 11.6212 0.78144 11.6197C0.520258 11.6192 0.259331 11.6034 0 11.5722C1.50121 12.5394 3.24794 13.0524 5.03168 13.0501" fill="#0076FF"/>
</svg>
