<svg width="16" height="16" viewBox="0 0 16 16" fill="none" xmlns="http://www.w3.org/2000/svg">
<rect width="16" height="16" rx="2" fill="#505F82"/>
<path d="M3.22754 6.41113C2.88574 6.41113 2.62109 6.54004 2.43359 6.79785C2.24609 7.05371 2.15234 7.41113 2.15234 7.87012C2.15234 8.8252 2.51074 9.30273 3.22754 9.30273C3.52832 9.30273 3.89258 9.22754 4.32031 9.07715V9.83887C3.96875 9.98535 3.57617 10.0586 3.14258 10.0586C2.51953 10.0586 2.04297 9.87012 1.71289 9.49316C1.38281 9.11426 1.21777 8.57129 1.21777 7.86426C1.21777 7.41895 1.29883 7.0293 1.46094 6.69531C1.62305 6.35938 1.85547 6.10254 2.1582 5.9248C2.46289 5.74512 2.81934 5.65527 3.22754 5.65527C3.64355 5.65527 4.06152 5.75586 4.48145 5.95703L4.18848 6.69531C4.02832 6.61914 3.86719 6.55273 3.70508 6.49609C3.54297 6.43945 3.38379 6.41113 3.22754 6.41113ZM9.12207 7.85254C9.12207 8.56152 8.94629 9.10645 8.59473 9.4873C8.24316 9.86816 7.73926 10.0586 7.08301 10.0586C6.42676 10.0586 5.92285 9.86816 5.57129 9.4873C5.21973 9.10645 5.04395 8.55957 5.04395 7.84668C5.04395 7.13379 5.21973 6.58984 5.57129 6.21484C5.9248 5.83789 6.43066 5.64941 7.08887 5.64941C7.74707 5.64941 8.25 5.83887 8.59766 6.21777C8.94727 6.59668 9.12207 7.1416 9.12207 7.85254ZM5.99609 7.85254C5.99609 8.33105 6.08691 8.69141 6.26855 8.93359C6.4502 9.17578 6.72168 9.29688 7.08301 9.29688C7.80762 9.29688 8.16992 8.81543 8.16992 7.85254C8.16992 6.8877 7.80957 6.40527 7.08887 6.40527C6.72754 6.40527 6.45508 6.52734 6.27148 6.77148C6.08789 7.01367 5.99609 7.37402 5.99609 7.85254ZM11.8232 10L10.792 6.63965H10.7656C10.8027 7.32324 10.8213 7.7793 10.8213 8.00781V10H10.0098V5.7168H11.2461L12.2598 8.99219H12.2773L13.3525 5.7168H14.5889V10H13.7422V7.97266C13.7422 7.87695 13.7432 7.7666 13.7451 7.6416C13.749 7.5166 13.7627 7.18457 13.7861 6.64551H13.7598L12.6553 10H11.8232Z" fill="white"/>
</svg>
