<svg width="100" height="100" viewBox="0 0 100 100" fill="none" xmlns="http://www.w3.org/2000/svg" xmlns:xlink="http://www.w3.org/1999/xlink">
<rect width="100" height="100" rx="16" fill="#6946A0"/>
<path d="M37.6982 42.2705C35.5335 42.2705 33.8574 43.0869 32.6699 44.7197C31.4824 46.3402 30.8887 48.6038 30.8887 51.5107C30.8887 57.5596 33.1585 60.584 37.6982 60.584C39.6032 60.584 41.9102 60.1077 44.6191 59.1553V63.9795C42.3926 64.9072 39.9062 65.3711 37.1602 65.3711C33.2142 65.3711 30.196 64.1774 28.1055 61.79C26.015 59.3903 24.9697 55.9515 24.9697 51.4736C24.9697 48.6533 25.4831 46.1855 26.5098 44.0703C27.5365 41.9427 29.0085 40.3161 30.9258 39.1904C32.8555 38.0524 35.113 37.4834 37.6982 37.4834C40.333 37.4834 42.9801 38.1204 45.6396 39.3945L43.7842 44.0703C42.7699 43.5879 41.7493 43.1673 40.7227 42.8086C39.696 42.4499 38.6878 42.2705 37.6982 42.2705ZM75.0303 51.3994C75.0303 55.8896 73.917 59.3408 71.6904 61.7529C69.4639 64.165 66.2725 65.3711 62.1162 65.3711C57.96 65.3711 54.7686 64.165 52.542 61.7529C50.3154 59.3408 49.2021 55.8773 49.2021 51.3623C49.2021 46.8473 50.3154 43.4023 52.542 41.0273C54.7809 38.64 57.9847 37.4463 62.1533 37.4463C66.3219 37.4463 69.5072 38.6462 71.709 41.0459C73.9232 43.4456 75.0303 46.8968 75.0303 51.3994ZM55.2324 51.3994C55.2324 54.43 55.8076 56.7122 56.958 58.2461C58.1084 59.7799 59.8278 60.5469 62.1162 60.5469C66.7054 60.5469 69 57.4977 69 51.3994C69 45.2887 66.7178 42.2334 62.1533 42.2334C59.8649 42.2334 58.1393 43.0065 56.9766 44.5527C55.8138 46.0866 55.2324 48.3688 55.2324 51.3994Z" fill="white"/>
</svg>
