<svg width="100" height="100" viewBox="0 0 100 100" fill="none" xmlns="http://www.w3.org/2000/svg" xmlns:xlink="http://www.w3.org/1999/xlink">
<rect width="100" height="100" rx="16" fill="#FF6905"/>
<path d="M28.1426 65H12.5195V37.873H28.1426V42.5859H18.2715V48.542H27.4561V53.2549H18.2715V60.25H28.1426V65ZM58.4424 51.3994C58.4424 54.5908 57.8734 57.2689 56.7354 59.4336C55.6097 61.5859 53.9521 63.1631 51.7627 64.165L58.2939 71.457H50.9277L45.9551 65.3711H45.5283C41.3721 65.3711 38.1807 64.165 35.9541 61.7529C33.7275 59.3408 32.6143 55.8773 32.6143 51.3623C32.6143 46.8473 33.7275 43.4023 35.9541 41.0273C38.193 38.64 41.3968 37.4463 45.5654 37.4463C49.734 37.4463 52.9193 38.6462 55.1211 41.0459C57.3353 43.4456 58.4424 46.8968 58.4424 51.3994ZM38.6445 51.3994C38.6445 54.43 39.2197 56.7122 40.3701 58.2461C41.5205 59.7799 43.2399 60.5469 45.5283 60.5469C50.1175 60.5469 52.4121 57.4977 52.4121 51.3994C52.4121 45.2887 50.1299 42.2334 45.5654 42.2334C43.277 42.2334 41.5514 43.0065 40.3887 44.5527C39.2259 46.0866 38.6445 48.3688 38.6445 51.3994ZM88.6865 51.3994C88.6865 55.8896 87.5732 59.3408 85.3467 61.7529C83.1201 64.165 79.9287 65.3711 75.7725 65.3711C71.6162 65.3711 68.4248 64.165 66.1982 61.7529C63.9717 59.3408 62.8584 55.8773 62.8584 51.3623C62.8584 46.8473 63.9717 43.4023 66.1982 41.0273C68.4372 38.64 71.641 37.4463 75.8096 37.4463C79.9782 37.4463 83.1634 38.6462 85.3652 41.0459C87.5794 43.4456 88.6865 46.8968 88.6865 51.3994ZM68.8887 51.3994C68.8887 54.43 69.4639 56.7122 70.6143 58.2461C71.7646 59.7799 73.484 60.5469 75.7725 60.5469C80.3617 60.5469 82.6562 57.4977 82.6562 51.3994C82.6562 45.2887 80.374 42.2334 75.8096 42.2334C73.5212 42.2334 71.7956 43.0065 70.6328 44.5527C69.4701 46.0866 68.8887 48.3688 68.8887 51.3994Z" fill="white"/>
</svg>
