<svg width="100" height="100" viewBox="0 0 100 100" fill="none" xmlns="http://www.w3.org/2000/svg" xmlns:xlink="http://www.w3.org/1999/xlink">
<rect width="100" height="100" rx="16" fill="#E6A028"/>
<path d="M35.2676 65H19.6445V37.873H35.2676V42.5859H25.3965V48.542H34.5811V53.2549H25.3965V60.25H35.2676V65ZM51.4102 65H45.6582V42.6602H38.292V37.873H58.7764V42.6602H51.4102V65ZM74.4736 42.2705C72.3089 42.2705 70.6328 43.0869 69.4453 44.7197C68.2578 46.3402 67.6641 48.6038 67.6641 51.5107C67.6641 57.5596 69.9339 60.584 74.4736 60.584C76.3786 60.584 78.6855 60.1077 81.3945 59.1553V63.9795C79.168 64.9072 76.6816 65.3711 73.9355 65.3711C69.9896 65.3711 66.9714 64.1774 64.8809 61.79C62.7904 59.3903 61.7451 55.9515 61.7451 51.4736C61.7451 48.6533 62.2585 46.1855 63.2852 44.0703C64.3118 41.9427 65.7839 40.3161 67.7012 39.1904C69.6309 38.0524 71.8883 37.4834 74.4736 37.4834C77.1084 37.4834 79.7555 38.1204 82.415 39.3945L80.5596 44.0703C79.5452 43.5879 78.5247 43.1673 77.498 42.8086C76.4714 42.4499 75.4632 42.2705 74.4736 42.2705Z" fill="white"/>
</svg>
