<svg width="100" height="100" viewBox="0 0 100 100" fill="none" xmlns="http://www.w3.org/2000/svg" xmlns:xlink="http://www.w3.org/1999/xlink">
<rect width="100" height="100" rx="16" fill="#FF6905"/>
<path d="M27.5488 65V37.873H33.3008V60.25H44.3037V65H27.5488ZM73.6572 51.3994C73.6572 55.8896 72.5439 59.3408 70.3174 61.7529C68.0908 64.165 64.8994 65.3711 60.7432 65.3711C56.5869 65.3711 53.3955 64.165 51.1689 61.7529C48.9424 59.3408 47.8291 55.8773 47.8291 51.3623C47.8291 46.8473 48.9424 43.4023 51.1689 41.0273C53.4079 38.64 56.6117 37.4463 60.7803 37.4463C64.9489 37.4463 68.1341 38.6462 70.3359 41.0459C72.5501 43.4456 73.6572 46.8968 73.6572 51.3994ZM53.8594 51.3994C53.8594 54.43 54.4346 56.7122 55.585 58.2461C56.7354 59.7799 58.4548 60.5469 60.7432 60.5469C65.3324 60.5469 67.627 57.4977 67.627 51.3994C67.627 45.2887 65.3447 42.2334 60.7803 42.2334C58.4919 42.2334 56.7663 43.0065 55.6035 44.5527C54.4408 46.0866 53.8594 48.3688 53.8594 51.3994Z" fill="white"/>
	</svg>
