<?xml version="1.0" standalone="no"?>
<!DOCTYPE svg PUBLIC "-//W3C//DTD SVG 20010904//EN"
 "http://www.w3.org/TR/2001/REC-SVG-20010904/DTD/svg10.dtd">
<svg version="1.0" xmlns="http://www.w3.org/2000/svg"
 width="1280.000000pt" height="1280.000000pt" viewBox="0 0 1280.000000 1280.000000"
 preserveAspectRatio="xMidYMid meet">
<metadata>
Created by potrace 1.11, written by Peter Selinger 2001-2013
</metadata>
<g transform="translate(0.000000,1280.000000) scale(0.100000,-0.100000)"
fill="#000000" stroke="none">
<path d="M0 6400 l0 -4800 6400 0 6400 0 0 4800 0 4800 -6400 0 -6400 0 0
-4800z m10618 3335 c442 -72 757 -400 863 -900 21 -96 24 -138 24 -330 0 -318
-35 -498 -140 -720 -180 -379 -503 -575 -946 -575 -580 0 -956 340 -1070 966
-30 160 -32 473 -6 609 104 529 411 867 862 948 107 20 299 20 413 2z m-8023
-16 c81 -12 266 -58 278 -69 11 -10 -74 -318 -89 -324 -7 -3 -41 4 -76 15
-236 72 -492 79 -624 17 -192 -90 -236 -317 -88 -464 53 -54 139 -101 343
-189 211 -92 257 -115 358 -181 311 -206 412 -578 243 -903 -114 -219 -336
-357 -645 -401 -93 -13 -334 -13 -432 1 -94 13 -265 52 -351 80 -75 25 -74 7
-10 212 34 109 46 137 61 137 9 0 70 -15 135 -34 211 -62 265 -71 417 -71 159
1 227 18 322 80 128 84 174 251 111 398 -43 99 -184 194 -433 292 -222 87
-362 172 -466 282 -114 122 -169 259 -169 428 0 335 240 612 595 685 141 30
355 33 520 9z m2520 -61 c10 -35 75 -241 145 -458 71 -217 178 -552 240 -745
62 -192 140 -438 175 -545 35 -107 93 -292 130 -410 36 -118 68 -220 70 -227
9 -29 -24 -33 -245 -31 l-223 3 -8 25 c-93 305 -174 558 -182 568 -7 9 -105
12 -427 12 l-418 0 -21 -67 c-12 -38 -48 -165 -82 -283 -33 -118 -62 -221 -64
-227 -6 -20 -434 -18 -441 1 -5 12 77 282 216 711 27 83 87 274 135 425 141
449 244 776 290 920 24 74 60 189 80 255 21 66 39 123 42 128 2 4 132 7 287 7
l283 0 18 -62z m1964 39 c17 -9 64 -99 182 -347 253 -531 287 -600 302 -600 8
0 19 6 24 13 6 6 105 199 221 427 266 525 255 504 267 512 6 4 99 8 208 8 165
0 199 -2 203 -15 5 -13 -62 -147 -351 -695 -181 -343 -205 -395 -205 -440 0
-45 4 -54 220 -460 261 -491 440 -839 440 -857 0 -6 -7 -14 -16 -17 -22 -9
-467 -7 -480 2 -7 4 -123 227 -258 497 -136 269 -255 498 -264 508 -11 11 -25
15 -35 11 -10 -3 -124 -220 -271 -513 l-254 -506 -221 -3 c-189 -2 -222 0
-227 13 -3 8 55 131 134 282 77 147 218 419 315 603 96 184 180 353 186 375
11 42 4 91 -19 135 -14 29 -215 386 -431 768 -82 144 -149 271 -149 281 0 11
6 22 13 24 6 3 109 6 227 6 152 1 222 -3 239 -12z m167 -4324 c36 -82 247
-539 379 -823 178 -383 321 -713 416 -965 37 -99 73 -181 80 -184 9 -3 10 38
5 175 -28 743 -37 1809 -14 1832 8 8 65 12 193 12 l180 0 -3 -1237 c-1 -681
-4 -1244 -7 -1251 -3 -10 -64 -12 -277 -10 l-272 3 -68 155 c-38 85 -95 214
-128 285 -311 686 -514 1154 -658 1518 -75 191 -99 216 -89 95 19 -237 28
-672 25 -1313 l-3 -720 -190 0 -190 0 -3 1230 c-1 677 0 1236 3 1243 3 9 73
12 300 12 l296 0 25 -57z m-2179 35 c4 -7 25 -67 46 -133 21 -66 87 -273 147
-460 60 -187 170 -533 245 -770 75 -236 158 -497 185 -580 71 -221 149 -475
156 -514 5 -23 3 -36 -7 -42 -17 -10 -429 -12 -445 -1 -6 4 -51 135 -99 292
-48 157 -91 293 -96 303 -9 16 -40 17 -434 17 l-424 0 -35 -112 c-19 -62 -56
-189 -81 -283 -26 -93 -51 -178 -56 -188 -9 -16 -27 -17 -222 -15 -205 3 -212
4 -215 23 -2 12 33 133 76 270 44 138 121 383 172 545 51 162 120 385 155 495
35 110 97 310 140 445 181 580 219 696 228 708 7 9 76 12 283 12 207 0 275 -3
281 -12z m-2641 -18 c191 -24 331 -85 435 -189 106 -107 146 -216 136 -371
-16 -236 -151 -410 -404 -522 -40 -17 -72 -37 -70 -42 2 -6 32 -16 68 -22 218
-37 386 -148 471 -310 54 -103 71 -185 65 -319 -12 -290 -174 -511 -459 -629
-103 -42 -205 -64 -362 -76 -133 -11 -815 -14 -840 -4 -14 6 -16 124 -16 1243
0 681 3 1241 7 1244 10 11 881 8 969 -3z m7616 8 c2 -2 5 -244 8 -538 5 -487
6 -535 22 -538 18 -4 4 -20 526 614 204 248 378 454 387 458 25 9 443 7 449
-2 3 -5 -74 -103 -170 -218 -754 -899 -777 -927 -766 -945 9 -14 541 -686 899
-1137 92 -115 114 -148 111 -170 l-3 -27 -251 -3 -251 -2 -27 41 c-28 41 -246
337 -526 714 -86 116 -197 266 -247 335 -98 135 -126 166 -142 155 -8 -4 -11
-193 -11 -605 0 -531 -2 -600 -16 -614 -13 -13 -45 -16 -199 -16 -101 0 -190
3 -199 6 -14 6 -16 124 -16 1243 0 681 3 1241 7 1244 6 6 410 10 415 5z"/>
<path d="M10290 9393 c-166 -29 -293 -127 -378 -290 -88 -171 -117 -343 -109
-658 6 -226 22 -346 61 -462 63 -186 159 -308 288 -367 93 -43 156 -56 268
-56 112 0 175 13 269 56 146 67 254 214 305 415 69 273 56 739 -27 977 -70
199 -209 334 -388 377 -60 14 -228 19 -289 8z"/>
<path d="M4766 9308 c-8 -29 -33 -127 -56 -218 -38 -153 -108 -411 -216 -792
-24 -87 -44 -160 -44 -163 0 -3 158 -5 350 -5 255 0 350 3 350 11 0 12 -17 70
-115 389 -64 207 -184 647 -219 803 -10 44 -33 32 -50 -25z"/>
<path d="M4741 5013 c-6 -21 -28 -111 -50 -200 -43 -176 -143 -545 -222 -819
-27 -95 -49 -175 -49 -178 0 -3 160 -6 356 -6 306 0 355 2 351 14 -3 8 -11 33
-17 55 -6 22 -37 127 -70 233 -59 187 -214 752 -242 873 -16 74 -41 87 -57 28z"/>
<path d="M1890 4750 l0 -380 106 0 c60 0 136 7 177 16 147 33 278 126 342 244
28 51 30 62 30 160 0 122 -14 160 -81 225 -90 88 -187 115 -411 115 l-163 0 0
-380z"/>
<path d="M1890 3645 l0 -435 173 0 c171 1 228 8 325 44 94 34 180 115 230 216
25 51 27 65 27 175 0 114 -2 123 -31 186 -43 90 -90 139 -176 183 -109 55
-167 65 -370 66 l-178 0 0 -435z"/>
</g>
</svg>
