<svg width="176" height="32" viewBox="0 0 176 32" fill="none" xmlns="http://www.w3.org/2000/svg">
<path d="M22.5858 22.3159C15.0572 22.3159 7.5424 22.3159 0 22.3159C0 14.8841 0 7.46595 0 0.0273438C7.5286 0.0273438 15.0434 0.0273438 22.5858 0.0273438C22.5858 7.43873 22.5858 14.8569 22.5858 22.3159ZM1.71826 20.5873C4.61653 20.5533 7.45959 20.5329 10.2958 20.4852C11.6966 20.458 13.0767 20.2334 14.3947 19.7298C16.1889 19.0424 17.6794 17.9739 18.4799 16.1704C19.0251 14.9386 19.1424 13.6727 18.473 12.4477C17.9624 11.5153 17.0998 10.9845 16.1199 10.6306C15.7749 10.5081 15.4229 10.4196 14.9813 10.2835C15.1055 10.2427 15.1469 10.2291 15.1883 10.2154C15.9405 9.98405 16.7203 9.82072 17.431 9.51446C19.1769 8.77264 20.3017 7.53401 20.5225 5.57397C20.6812 4.13117 19.9636 2.87212 18.5627 2.31405C17.5759 1.92613 16.5408 1.79002 15.4988 1.7764C13.0284 1.74918 10.5511 1.7696 8.08065 1.7696C7.95644 1.7696 7.82533 1.76279 7.70111 1.79002C7.63211 1.80363 7.5355 1.87849 7.5148 1.93974C7.44579 2.16433 7.40439 2.39572 7.34918 2.65434C7.5148 2.67475 7.69421 2.68836 7.86673 2.72239C8.17726 2.78364 8.50159 2.82448 8.79832 2.92656C9.23306 3.06268 9.38487 3.29407 9.36417 3.73644C9.35037 3.99506 9.31587 4.25367 9.23996 4.49868C8.81212 5.88703 8.37048 7.26859 7.92884 8.65014C7.13526 11.1478 6.34169 13.6523 5.52741 16.1432C5.27899 16.9122 4.99606 17.6745 4.67863 18.4231C4.43711 19.0016 3.98167 19.3623 3.33991 19.4712C2.90517 19.546 2.46353 19.6209 2.02189 19.6958C1.92528 19.9748 1.82867 20.247 1.71826 20.5873Z" fill="#0B3B62"/>
<path d="M88.7628 15.6804C89.1078 15.6532 89.4114 15.6395 89.7219 15.5987C90.1636 15.5307 90.343 15.3605 90.4051 14.9249C90.4465 14.6119 90.4603 14.292 90.4603 13.979C90.4603 12.298 90.4672 10.6238 90.4396 8.94275C90.4327 8.50038 90.343 8.0444 90.2188 7.60884C90.0118 6.86702 89.4183 6.4791 88.6316 6.45187C88.052 6.43146 87.493 6.50632 86.9824 6.79896C86.244 7.22091 85.9818 7.90829 85.9749 8.68414C85.9542 10.6578 85.968 12.6314 85.968 14.6051C85.968 14.7752 85.9956 14.9454 86.0439 15.1087C86.1198 15.3741 86.2785 15.5715 86.596 15.5851C86.8375 15.5987 87.079 15.6463 87.3136 15.6395C87.6241 15.6259 87.7346 15.7552 87.6932 16.0411C87.6863 16.0887 87.6863 16.1296 87.6932 16.1772C87.7277 16.4562 87.5758 16.5379 87.3274 16.5243C86.665 16.4834 85.9956 16.4222 85.3331 16.4222C84.2083 16.4222 83.0835 16.4698 81.9587 16.4971C81.9242 16.4971 81.8897 16.5039 81.8552 16.5039C81.3308 16.5515 81.1099 16.2657 81.3101 15.7893C81.3377 15.7144 81.4826 15.66 81.5792 15.6532C81.9104 15.6191 82.2417 15.6191 82.5729 15.5851C82.9041 15.5579 83.0973 15.3605 83.1387 15.0474C83.187 14.6867 83.2215 14.326 83.2215 13.9653C83.2215 11.7535 83.2146 9.54165 83.2146 7.32981C83.2146 7.27536 83.2146 7.21411 83.2146 7.15966C83.1732 6.40423 82.9317 6.19326 82.1657 6.17965C81.8966 6.17284 81.6206 6.10478 81.3515 6.1252C80.9167 6.15923 80.5855 6.41784 80.413 6.78535C80.0887 7.46592 79.7919 8.1601 79.5435 8.86789C78.8396 10.9096 78.1634 12.9649 77.4733 15.0134C77.3422 15.3945 77.2249 15.7825 77.1076 16.1704C77.0455 16.3814 76.9351 16.4766 76.6935 16.463C76.2036 16.4358 75.7067 16.4222 75.2237 16.4698C74.8718 16.5039 74.7545 16.3337 74.6717 16.0615C74.3956 15.1699 74.1127 14.2784 73.8436 13.3869C73.3329 11.7195 72.8292 10.0521 72.3185 8.38469C72.2978 8.32344 72.2702 8.26219 72.2219 8.14649C71.9252 9.03803 71.6423 9.87513 71.3593 10.719C70.7659 12.5021 70.1586 14.2784 69.579 16.0683C69.4755 16.3746 69.3375 16.5039 68.9993 16.4766C68.5646 16.4426 68.1298 16.463 67.6882 16.4698C67.3156 16.4698 67.2052 16.395 67.0947 16.0411C66.7221 14.8297 66.3564 13.6115 65.9768 12.4C65.4593 10.7463 64.9279 9.09248 64.3966 7.4387C64.3414 7.26855 64.2655 7.10522 64.1896 6.94188C63.955 6.43826 63.5892 6.13881 63.0027 6.10478C62.5403 6.07756 62.3609 5.7713 62.5472 5.33574C62.5817 5.24727 62.7887 5.19282 62.913 5.19282C63.6927 5.19963 64.4725 5.25407 65.2523 5.24727C66.2943 5.24727 67.3432 5.20643 68.3852 5.17921C68.7509 5.17241 68.7992 5.20643 68.7992 5.56713C68.7992 5.71005 68.7992 5.85978 68.7992 6.02312C68.5163 6.05714 68.2541 6.08437 67.9987 6.1252C67.4812 6.20687 67.1983 6.50632 67.2811 7.01675C67.3915 7.6769 67.5709 8.33024 67.7572 8.97678C68.2334 10.6306 68.7302 12.2775 69.2408 14.0062C69.3996 13.5094 69.5445 13.0874 69.6825 12.6518C70.4347 10.2835 71.1868 7.91509 71.9252 5.53991C72.0011 5.30852 72.1046 5.22005 72.3599 5.22685C72.8775 5.24727 73.395 5.25407 73.9126 5.22685C74.1886 5.21324 74.2783 5.31532 74.3542 5.56033C75.1685 8.35746 75.9966 11.1478 76.8178 13.9449C76.8178 13.9517 76.8316 13.9585 76.8868 14.0062C76.9627 13.734 77.0317 13.4821 77.1007 13.2371C77.6458 11.2022 78.2048 9.17414 78.743 7.13925C78.8879 6.58799 78.6464 6.2409 78.0875 6.1252C77.9495 6.09798 77.8114 6.09117 77.6803 6.05714C77.5492 6.02312 77.3146 5.99589 77.3077 5.92784C77.2663 5.71005 77.2801 5.47866 77.3215 5.26088C77.3284 5.21324 77.5492 5.18602 77.6665 5.18602C78.674 5.19963 79.6884 5.22685 80.6959 5.24046C80.9236 5.24046 81.1583 5.19963 81.386 5.21324C81.7793 5.23366 82.1726 5.30852 82.566 5.30171C83.539 5.2813 84.5189 5.21324 85.4919 5.17921C85.9335 5.15879 85.9404 5.17241 85.9404 5.60116C85.9404 5.89381 85.9404 6.18645 85.9404 6.51993C86.0439 6.45187 86.1129 6.41785 86.1612 6.37021C87.3067 5.24046 88.7352 4.91379 90.2947 5.02268C90.7087 5.0499 91.1297 5.15199 91.523 5.2881C92.565 5.66241 93.0757 6.46548 93.1447 7.51356C93.2137 8.55483 93.2137 9.5961 93.2206 10.6374C93.2344 11.876 93.2206 13.1078 93.2275 14.3465C93.2275 14.5847 93.2551 14.8229 93.3034 15.0543C93.3655 15.3537 93.5449 15.5647 93.8761 15.5919C94.2074 15.6123 94.5386 15.6463 94.8698 15.6463C95.0837 15.6463 95.1665 15.728 95.1458 15.9254C95.1389 15.9594 95.1458 15.9934 95.1458 16.0275C95.1458 16.5243 95.0975 16.5311 94.5869 16.5175C93.2827 16.4766 91.9716 16.4562 90.6604 16.4494C90.1774 16.4426 89.6943 16.4971 89.2182 16.5175C88.7973 16.5379 88.749 16.4971 88.749 16.0683C88.7352 15.939 88.749 15.8097 88.7628 15.6804Z" fill="#040404"/>
<path d="M28.5894 0.857705C28.5894 0.633117 28.5894 0.415335 28.5894 0.190748C28.5894 -0.0134228 28.7412 0.000188385 28.8862 0.000188385C29.452 0.0137997 30.011 0.0342168 30.5768 0.0342168C32.1985 0.0410225 33.8132 0.0342172 35.4349 0.0410229C36.5459 0.0478286 37.6707 -0.0202284 38.7679 0.0886624C40.7139 0.279221 41.9629 1.38855 42.0112 3.51192C42.0388 4.63486 41.8042 5.66932 40.9278 6.46558C40.3205 7.02365 39.5684 7.3231 38.7748 7.54088C38.5333 7.60894 38.2917 7.65658 38.0157 7.71783C38.6575 7.84714 39.2785 7.94242 39.8858 8.09895C41.5971 8.54812 42.3907 9.74592 42.4804 11.3793C42.5218 12.0871 42.508 12.8017 42.3079 13.5027C41.9146 14.857 40.9899 15.6873 39.665 16.1297C38.6506 16.4631 37.6017 16.5448 36.5459 16.5244C35.4211 16.5108 34.2963 16.4427 33.1715 16.4427C31.7844 16.4427 30.3974 16.4903 29.0104 16.5244C28.6377 16.5312 28.5963 16.4972 28.5894 16.1433C28.5894 16.0616 28.5894 15.9867 28.5825 15.9051C28.5618 15.6737 28.6722 15.5852 28.9069 15.5852C29.1898 15.5852 29.4796 15.5648 29.7625 15.5239C30.4181 15.4287 30.632 15.2109 30.6803 14.5507C30.7217 14.0335 30.7562 13.5095 30.7631 12.9922C30.77 9.82759 30.77 6.66295 30.7631 3.50511C30.7631 3.02191 30.7424 2.5319 30.6872 2.0487C30.5768 1.12313 30.4388 1.10271 29.59 0.95979C29.2933 0.905344 28.9828 0.891733 28.5894 0.857705ZM33.8546 15.3742C34.8207 15.4763 35.7385 15.5035 36.6563 15.3742C37.8018 15.2109 38.6506 14.6392 38.9542 13.489C39.2233 12.4682 39.2233 11.4337 38.9887 10.3993C38.7334 9.29675 38.0019 8.67743 36.9116 8.44604C35.8903 8.22826 34.8621 8.2827 33.8546 8.37117C33.8546 10.7123 33.8546 13.0399 33.8546 15.3742ZM33.8339 7.32991C34.8966 7.37074 35.9731 7.42519 37.0082 7.05087C37.8156 6.75823 38.34 6.20016 38.554 5.37668C38.761 4.58722 38.761 3.79095 38.6299 2.99469C38.4504 1.94661 37.8225 1.29327 36.7667 1.10271C35.8006 0.925761 34.8345 1.07549 33.827 1.10271C33.8339 3.18525 33.8339 5.24737 33.8339 7.32991Z" fill="#040404"/>
<path d="M107.304 5.11819C108.098 5.11819 108.871 5.12499 109.637 5.11819C111.12 5.09777 112.604 5.05013 114.081 5.05693C115.185 5.06374 116.206 5.35638 116.986 6.20709C117.552 6.83322 117.876 7.57504 118.028 8.38491C118.221 9.41257 118.283 10.4402 118.2 11.4883C118.138 12.305 118.035 13.1012 117.766 13.8771C117.221 15.4696 115.965 16.3884 114.267 16.436C112.652 16.4837 111.031 16.402 109.416 16.3952C108.595 16.3952 107.767 16.4428 106.946 16.4496C106.532 16.4496 106.117 16.3952 105.71 16.3952C105 16.402 104.289 16.436 103.578 16.4564C103.468 16.4564 103.357 16.4564 103.219 16.4564C103.205 16.2795 103.192 16.1434 103.178 15.9732C103.454 15.9324 103.709 15.8916 103.964 15.8644C104.475 15.8031 104.717 15.4968 104.551 15.0205C104.178 13.9588 103.771 12.9039 103.385 11.849C103.35 11.7537 103.316 11.6584 103.274 11.5632C103.226 11.5564 103.178 11.5496 103.136 11.5496C101.825 11.5496 100.514 11.5496 99.1409 11.5496C98.7752 12.618 98.3681 13.6865 98.0368 14.7754C97.816 15.5037 98.1196 15.8644 98.8925 15.9324C99.0512 15.946 99.2099 15.9324 99.3963 15.9324C99.3963 16.1026 99.3963 16.2523 99.3963 16.4224C98.0851 16.4224 96.7878 16.4224 95.4629 16.4224C95.4629 16.2727 95.4629 16.1366 95.4629 15.9869C95.4836 15.9732 95.5181 15.9528 95.5457 15.946C96.3117 15.912 96.7671 15.5037 97.0569 14.8163C97.6021 13.496 98.1886 12.1893 98.7476 10.869C99.4308 9.23562 100.1 7.59545 100.769 5.96209C100.866 5.7375 100.97 5.50611 101.032 5.26791C101.101 4.99568 101.266 4.92763 101.529 4.92763C102.405 4.93443 102.329 4.82554 102.646 5.71028C103.081 6.91488 103.544 8.11268 104.006 9.31048C104.655 10.9915 105.317 12.6657 105.973 14.3399C106.09 14.6393 106.214 14.9456 106.359 15.2382C106.635 15.7827 107.235 16.0209 108.008 15.9188C108.657 15.8303 108.774 15.7146 108.829 15.0613C108.864 14.7006 108.885 14.3399 108.885 13.9792C108.892 11.7537 108.892 9.53507 108.885 7.30961C108.885 6.91488 108.843 6.52016 108.774 6.13223C108.705 5.75792 108.533 5.64903 108.153 5.62861C107.994 5.62181 107.836 5.615 107.67 5.60819C107.249 5.59458 107.201 5.53333 107.304 5.11819ZM110.354 15.7963C111.493 15.7963 112.576 15.8848 113.639 15.7759C114.985 15.6398 115.944 14.9252 116.206 13.5368C116.351 12.7746 116.462 11.9987 116.517 11.2297C116.593 10.0931 116.544 8.94978 116.199 7.84726C115.882 6.84002 115.295 6.05737 114.212 5.81236C113.563 5.66944 112.873 5.64222 112.204 5.62861C111.597 5.62181 110.982 5.70347 110.354 5.75111C110.354 9.13354 110.354 12.4411 110.354 15.7963ZM103.067 10.9507C102.446 9.42618 101.846 7.94935 101.246 6.47932C101.218 6.48613 101.19 6.49293 101.163 6.49974C100.59 7.96977 100.017 9.43979 99.4239 10.9507C100.652 10.9507 101.818 10.9507 103.067 10.9507Z" fill="#0B3B62"/>
<path d="M22.5996 25.6917C22.5996 26.8214 22.5996 27.9307 22.5996 29.0605C15.0641 29.0605 7.5424 29.0605 0 29.0605C0 27.9443 0 26.8282 0 25.6917C7.5217 25.6917 15.0434 25.6917 22.5996 25.6917Z" fill="#0B3B62"/>
<path d="M58.1856 4.93433C58.8687 5.07044 59.6416 5.16572 60.3869 5.3835C61.6704 5.75101 62.5399 6.61533 62.9677 7.85396C63.6095 9.71872 63.644 11.6311 63.0988 13.5231C62.6296 15.1428 61.5048 16.1093 59.8486 16.4836C58.4064 16.817 56.9573 16.8238 55.5288 16.4563C53.8796 16.0344 52.8514 14.9523 52.4373 13.3325C52.0095 11.6583 52.0302 9.97053 52.4442 8.29633C52.8928 6.49283 54.1694 5.53323 55.9498 5.18614C56.6467 5.05002 57.3713 5.0228 58.1856 4.93433ZM60.518 11.1139C60.4352 10.0046 60.3869 9.05857 60.2834 8.11258C60.2213 7.55451 60.0487 7.01006 59.6278 6.58811C58.9446 5.89393 58.0752 5.81226 57.1712 5.95518C56.5225 6.05726 55.9567 6.34991 55.6737 6.95561C55.4736 7.37757 55.3011 7.84716 55.2666 8.30314C55.17 9.4601 55.1286 10.6307 55.1286 11.7945C55.1286 12.4546 55.2252 13.1216 55.3287 13.7817C55.4115 14.3194 55.6116 14.8366 56.0395 15.2109C57.4817 16.4631 59.8141 15.7554 60.2075 13.9178C60.4076 12.9514 60.4283 11.951 60.518 11.1139Z" fill="#040404"/>
<path d="M125.398 5.58083C125.398 5.39707 125.398 5.24735 125.398 5.08401C128.117 5.08401 130.808 5.08401 133.541 5.08401C133.548 5.22013 133.555 5.36985 133.562 5.56041C133.272 5.58763 132.996 5.62847 132.727 5.62847C132.326 5.62847 132.112 5.80541 132.043 6.27501C131.995 6.60168 131.974 6.92835 131.974 7.25502C131.968 9.6234 131.968 11.9986 131.974 14.367C131.974 14.7277 132.043 15.0816 132.085 15.4423C132.119 15.7281 132.319 15.837 132.582 15.871C132.885 15.905 133.196 15.9323 133.527 15.9663C133.527 16.1092 133.527 16.2589 133.527 16.4291C132.002 16.4291 130.484 16.4291 128.938 16.4291C128.938 16.2862 128.938 16.1364 128.938 15.9731C129.262 15.9459 129.566 15.905 129.87 15.8914C130.18 15.871 130.36 15.7145 130.408 15.415C130.449 15.1156 130.498 14.8093 130.498 14.5031C130.505 12.0394 130.505 9.58257 130.491 7.11891C130.491 6.7514 130.442 6.37709 130.373 6.01639C130.325 5.75777 130.104 5.63527 129.835 5.64208C129.435 5.64208 129.035 5.64208 128.635 5.63527C128.317 5.62847 128.103 5.79861 127.979 6.05042C127.675 6.67654 127.379 7.31627 127.123 7.96281C126.62 9.22187 126.13 10.4945 125.647 11.7672C125.067 13.2917 124.501 14.8229 123.921 16.3542C123.901 16.4087 123.873 16.4563 123.839 16.5244C123.535 16.5244 123.231 16.5176 122.921 16.5244C122.707 16.5312 122.652 16.3746 122.603 16.2317C122.431 15.7553 122.279 15.2721 122.107 14.7957C121.554 13.2712 121.002 11.7468 120.43 10.2291C119.974 9.01769 119.484 7.8199 119.008 6.61529C118.746 5.95514 118.332 5.48555 117.518 5.56722C117.518 5.39027 117.518 5.24735 117.518 5.06359C117.78 5.06359 118.028 5.06359 118.277 5.06359C119.436 5.06359 120.595 5.05679 121.755 5.05679C121.92 5.05679 122.113 4.98193 122.141 5.25415C122.169 5.49916 122.044 5.59444 121.817 5.62166C121.61 5.64208 121.41 5.67611 121.209 5.72375C120.74 5.83264 120.547 6.12528 120.692 6.57446C120.968 7.43878 121.265 8.3031 121.582 9.15381C122.245 10.9437 122.921 12.7336 123.597 14.5167C123.645 14.6392 123.701 14.7549 123.832 14.8842C124.004 14.4418 124.19 13.9995 124.349 13.5503C125.046 11.563 125.743 9.57576 126.426 7.5885C126.551 7.2278 126.654 6.85349 126.682 6.47918C126.723 5.98236 126.454 5.71013 125.95 5.63527C125.771 5.61486 125.584 5.60124 125.398 5.58083Z" fill="#0B3B62"/>
<path d="M42.5572 5.34264C42.6538 5.32903 42.709 5.30862 42.7573 5.30862C44.0684 5.26098 45.3726 5.22014 46.6837 5.17931C47.1323 5.1657 47.1668 5.20653 47.1737 5.65571C47.1737 5.91432 47.1737 6.17974 47.1737 6.486C47.4014 6.22058 47.5877 5.97557 47.8086 5.7646C48.5814 5.02278 49.5199 4.8118 50.5412 5.07042C51.39 5.28139 51.804 5.92113 51.9351 6.73781C51.9834 7.01684 51.9765 7.30268 51.9558 7.58171C51.9075 8.167 51.6798 8.38478 51.0933 8.43242C50.8517 8.45284 50.6102 8.45284 50.3687 8.42562C49.927 8.38478 49.7752 8.21464 49.7338 7.77908C49.7131 7.55449 49.7062 7.3231 49.651 7.10532C49.4785 6.43836 48.816 6.20016 48.2226 6.57447C47.6774 6.92837 47.4842 7.49324 47.3876 8.07172C47.2841 8.72507 47.222 9.39883 47.2082 10.059C47.1875 11.6379 47.2082 13.21 47.2289 14.7889C47.2358 15.3538 47.4635 15.5512 48.0294 15.5852C48.3744 15.6056 48.7194 15.6328 49.0645 15.6396C49.2508 15.6396 49.3405 15.7145 49.3405 15.8983C49.3405 15.9187 49.3405 15.9459 49.3405 15.9663C49.3474 16.5108 49.2991 16.5584 48.7401 16.5176C46.8218 16.3815 44.9103 16.361 42.9919 16.5176C42.5986 16.5516 42.5434 16.4972 42.5434 16.0956C42.5434 15.9595 42.5434 15.8302 42.5434 15.6805C42.9712 15.6532 43.3576 15.6396 43.7372 15.592C44.1857 15.5376 44.3582 15.3606 44.4065 14.925C44.441 14.5643 44.4755 14.2036 44.4755 13.8429C44.4824 11.8897 44.4824 9.94328 44.4755 7.99005C44.4755 7.63616 44.4479 7.28907 44.4134 6.94198C44.3651 6.45878 44.1374 6.23419 43.6406 6.20697C43.3783 6.18655 43.1092 6.20016 42.847 6.20016C42.64 6.20016 42.5227 6.1253 42.5434 5.89391C42.5641 5.71015 42.5572 5.5264 42.5572 5.34264Z" fill="#040404"/>
<path d="M155.277 10.6307C155.25 11.6448 155.153 12.6384 154.836 13.6048C154.291 15.245 153.111 16.1501 151.441 16.504C150.268 16.7558 149.074 16.8035 147.887 16.6401C146.859 16.4972 145.879 16.1842 145.147 15.3947C144.65 14.8639 144.326 14.2309 144.126 13.5367C143.65 11.8694 143.601 10.1815 143.981 8.48693C144.409 6.55412 145.644 5.39715 147.583 4.99561C149.067 4.68936 150.557 4.68255 152.034 5.10451C153.725 5.5809 154.891 6.92843 155.091 8.63665C155.167 9.30361 155.215 9.97057 155.277 10.6307ZM153.532 10.7328C153.559 10.7328 153.58 10.726 153.607 10.726C153.518 9.92973 153.476 9.12666 153.331 8.34401C153.117 7.18024 152.538 6.22064 151.385 5.73063C150.564 5.38354 149.702 5.30868 148.798 5.41757C147.142 5.60813 146.21 6.58814 145.775 8.05136C145.458 9.11305 145.403 10.2088 145.451 11.3045C145.485 12.1688 145.582 13.0331 145.858 13.8702C146.189 14.8707 146.838 15.5512 147.845 15.9119C148.722 16.2182 149.626 16.2386 150.516 16.0617C151.806 15.8098 152.71 15.0884 153.131 13.809C153.456 12.8017 153.566 11.7809 153.532 10.7328Z" fill="#0B3B62"/>
<path d="M159.916 15.9391C159.916 16.1364 159.916 16.2793 159.916 16.4291C158.391 16.4291 156.88 16.4291 155.348 16.4291C155.348 16.2862 155.348 16.1364 155.348 15.9799C155.638 15.9459 155.921 15.905 156.203 15.8846C156.597 15.8642 156.811 15.7009 156.838 15.1632C156.88 14.4146 156.9 13.6728 156.9 12.9241C156.907 11.1206 156.914 9.31714 156.9 7.51363C156.894 7.04404 156.831 6.57445 156.783 6.09805C156.749 5.76457 156.514 5.65568 156.21 5.63527C155.927 5.61485 155.638 5.59443 155.334 5.57401C155.334 5.41068 155.334 5.26776 155.334 5.06359C155.527 5.06359 155.727 5.06359 155.927 5.06359C157.245 5.06359 158.57 5.05678 159.888 5.0772C160.772 5.09081 161.655 5.09762 162.531 5.1997C163.56 5.3222 164.056 5.93472 164.256 6.90793C164.346 7.33669 164.305 7.79947 164.284 8.24865C164.236 9.147 163.297 10.093 162.083 10.338C161.876 10.3788 161.669 10.4265 161.413 10.4809C161.793 11.0594 162.145 11.5834 162.49 12.1075C163.09 12.999 163.691 13.8906 164.298 14.7821C164.47 15.0339 164.671 15.2721 164.878 15.4967C165.188 15.8302 165.602 15.9527 166.058 15.9527C166.058 16.1296 166.058 16.2725 166.058 16.4631C165.802 16.4495 165.554 16.4291 165.305 16.4291C164.809 16.4291 164.319 16.4359 163.829 16.4563C163.663 16.4631 163.56 16.4155 163.47 16.2725C162.483 14.7413 161.482 13.2168 160.482 11.6923C160.233 11.3112 159.971 10.9029 159.481 10.828C159.122 10.7736 158.757 10.8144 158.35 10.8144C158.35 10.9437 158.35 11.0798 158.35 11.2227C158.37 12.5022 158.384 13.7817 158.412 15.0611C158.419 15.5307 158.57 15.7893 158.86 15.8438C159.095 15.8914 159.336 15.905 159.578 15.9255C159.674 15.9459 159.778 15.9391 159.916 15.9391ZM158.384 10.2359C159.398 10.2019 160.44 10.3788 161.441 9.97048C161.883 9.78673 162.235 9.50089 162.435 9.07894C162.787 8.34393 162.835 7.57488 162.573 6.80584C162.373 6.22055 161.959 5.81902 161.331 5.71693C160.365 5.5536 159.392 5.63527 158.384 5.6761C158.384 7.20057 158.384 8.69102 158.384 10.2359Z" fill="#0B3B62"/>
<path d="M142.173 5.38335C142.173 6.31573 142.173 7.21408 142.173 8.13965C141.876 8.13965 141.593 8.13965 141.283 8.13965C141.248 7.8402 141.221 7.54075 141.186 7.2413C141.172 7.10518 141.138 6.97588 141.117 6.83976C141.021 6.02308 140.489 5.61474 139.73 5.46502C138.95 5.30849 138.184 5.3221 137.453 5.6828C136.708 6.0503 136.335 6.65601 136.342 7.45227C136.342 8.22812 136.68 8.86786 137.425 9.19453C138.129 9.50078 138.861 9.74579 139.585 10.0248C140.331 10.3107 141.076 10.5965 141.711 11.0933C142.808 11.9508 142.911 13.3868 142.442 14.5506C141.959 15.7552 140.945 16.3405 139.723 16.5855C138.019 16.9326 136.363 16.6876 134.755 16.0478C134.568 15.973 134.472 15.8709 134.486 15.6463C134.52 14.8432 134.534 14.0402 134.562 13.2371C134.562 13.1622 134.617 13.0193 134.651 13.0193C134.92 13.0057 135.196 13.0057 135.466 13.0261C135.507 13.0329 135.548 13.1827 135.562 13.2711C135.638 13.8088 135.693 14.3464 135.79 14.8773C135.873 15.3128 136.163 15.6463 136.57 15.8165C137.826 16.3405 139.061 16.3269 140.248 15.6123C141.573 14.8024 141.642 12.6042 140.027 11.8487C139.213 11.4744 138.35 11.2022 137.515 10.8823C136.728 10.5829 135.956 10.263 135.472 9.53481C134.424 7.96951 134.879 5.62155 137.301 5.00223C138.826 4.6075 140.641 4.81848 142.173 5.38335Z" fill="#0B3B62"/>
<path d="M169.569 5.08417C169.569 5.23389 169.569 5.38362 169.569 5.52654C169.244 5.60821 168.92 5.66265 168.616 5.77835C168.195 5.94168 168.071 6.22072 168.285 6.61545C168.616 7.23476 168.989 7.82686 169.355 8.42576C169.852 9.23563 170.355 10.0455 170.859 10.8486C170.887 10.8962 170.928 10.9302 170.99 11.0119C171.335 10.4062 171.666 9.82773 171.991 9.25605C172.425 8.48701 172.853 7.71797 173.281 6.94892C173.364 6.7992 173.447 6.64947 173.509 6.49294C173.681 6.02335 173.488 5.71029 172.991 5.64223C172.798 5.61501 172.605 5.59459 172.398 5.56737C172.398 5.40404 172.398 5.2407 172.398 5.09097C173.605 5.09097 174.785 5.09097 175.959 5.09097C176.041 5.55376 176.028 5.50612 175.627 5.64904C175.31 5.76474 174.979 5.96891 174.765 6.22072C174.323 6.76517 173.937 7.35726 173.557 7.94936C172.839 9.0723 172.143 10.2157 171.425 11.3454C171.259 11.6108 171.156 11.8762 171.163 12.2029C171.183 13.0536 171.163 13.9043 171.17 14.755C171.17 14.9796 171.211 15.2042 171.252 15.422C171.301 15.701 171.487 15.8508 171.77 15.8712C172.136 15.9052 172.494 15.9324 172.895 15.9733C172.902 16.123 172.909 16.2795 172.915 16.4292C171.211 16.4292 169.562 16.4292 167.892 16.4292C167.892 16.2795 167.892 16.123 167.892 15.9733C168.285 15.9392 168.672 15.9052 169.058 15.8644C169.424 15.8303 169.555 15.7146 169.596 15.3676C169.638 15.0341 169.665 14.6938 169.672 14.3535C169.686 13.6389 169.658 12.9243 169.686 12.2097C169.7 11.781 169.596 11.3998 169.362 11.0596C168.278 9.45341 167.195 7.84727 166.098 6.24794C165.849 5.88724 165.483 5.68987 165.049 5.62182C164.614 5.56057 164.593 5.52654 164.69 5.07056C166.311 5.08417 167.933 5.08417 169.569 5.08417Z" fill="#0B3B62"/>
<path d="M31.7639 21.8872C31.2325 21.9144 30.7288 21.9416 30.225 21.9689C29.8731 21.9825 29.6523 22.1798 29.5212 22.4793C29.4108 22.7379 29.3211 23.0033 29.2107 23.2892C29.1002 23.2892 28.9829 23.2892 28.8242 23.2892C28.8725 22.5882 28.9277 21.894 28.976 21.1522C29.0864 21.1794 29.2245 21.1658 29.2797 21.227C29.4798 21.438 29.7213 21.438 29.9766 21.438C31.7363 21.4312 33.496 21.438 35.2556 21.4312C35.4488 21.4312 35.642 21.3972 35.8353 21.3632C35.8974 21.3495 35.994 21.2883 35.994 21.2543C35.9664 20.9276 36.2286 20.9548 36.4218 20.8936C36.5943 20.8391 36.7669 20.7915 36.9739 20.7302C36.9739 22.0029 36.9739 23.2415 36.9739 24.5414C37.1878 24.3849 37.3534 24.2556 37.5259 24.1467C37.9883 23.8472 38.4851 23.6839 39.051 23.7792C39.9618 23.9357 40.3138 24.6503 40.3483 25.4534C40.3828 26.2224 40.3552 26.9983 40.3552 27.7673C40.3552 28.4887 40.4449 28.5908 41.1695 28.6725C41.1764 28.7813 41.1833 28.8902 41.1833 29.0263C40.3276 29.0263 39.4857 29.0263 38.6162 29.0263C38.6162 28.9175 38.6162 28.8086 38.6162 28.7065C38.6438 28.6861 38.6576 28.6656 38.6783 28.6656C39.3063 28.584 39.3891 28.4955 39.3891 27.8626C39.3891 27.1684 39.3891 26.481 39.3891 25.7868C39.3891 25.6507 39.3753 25.5146 39.3477 25.3853C39.189 24.5686 38.6162 24.344 37.7881 24.5618C37.5466 24.6231 37.3327 24.8068 37.1257 24.9634C37.0498 25.0178 36.9808 25.1471 36.9808 25.2492C36.9808 26.1475 36.967 27.0391 37.0015 27.9374C37.0291 28.5636 37.0912 28.5976 37.7536 28.6793C37.7605 28.7405 37.7812 28.8018 37.7812 28.863C37.7812 28.9175 37.7674 28.9719 37.7605 29.04C36.898 29.04 36.0561 29.04 35.1866 29.04C35.1866 28.9175 35.1866 28.8086 35.1866 28.6997C35.2073 28.6861 35.2211 28.6656 35.2418 28.6656C35.9181 28.5976 36.0078 28.5091 36.0078 27.8558C36.0078 25.9162 36.0078 23.9765 36.0078 21.9825C34.9451 21.9825 33.8962 21.9825 32.8128 21.9825C32.8128 22.0437 32.8128 22.1526 32.8128 22.2615C32.8128 24.0174 32.8197 25.78 32.8128 27.5359C32.8059 28.5704 32.9853 28.5431 33.7858 28.652C33.8479 28.6588 33.9169 28.6656 33.9928 28.6725C33.9928 28.8018 33.9928 28.9107 33.9928 29.04C32.868 29.04 31.7432 29.04 30.6046 29.04C30.5977 28.9243 30.5908 28.8154 30.5839 28.6861C30.784 28.6588 30.9703 28.6248 31.1635 28.5976C31.5431 28.5431 31.688 28.4138 31.7363 28.0395C31.7501 27.9306 31.7639 27.8149 31.7639 27.6992C31.7639 25.78 31.7639 23.8608 31.7639 21.8872Z" fill="#040404"/>
<path d="M126.164 29.1558C125.902 28.9244 125.619 28.7271 125.405 28.4752C125.171 28.1962 125.254 28.0125 125.564 27.8219C125.812 27.6722 126.04 27.4816 126.254 27.3183C126.006 27.0801 125.75 26.9031 125.578 26.6649C125.033 25.9027 125.226 24.807 125.985 24.2489C126.654 23.7589 127.4 23.5888 128.186 23.895C128.607 24.0652 129.014 24.0311 129.435 23.9971C129.698 23.9699 129.953 23.9359 130.215 23.9086C130.27 24.385 129.863 24.6436 129.187 24.5892C129.27 24.8818 129.401 25.1677 129.421 25.4671C129.532 26.7738 128.428 27.3863 127.565 27.4272C127.338 27.4408 127.103 27.4204 126.875 27.4204C126.62 27.4204 126.392 27.5973 126.371 27.8287C126.351 28.0873 126.53 28.2234 126.737 28.2438C127.206 28.2847 127.676 28.2711 128.145 28.2915C128.497 28.3119 128.863 28.3119 129.194 28.4072C130.098 28.6794 130.305 29.5846 129.918 30.4012C129.277 31.7556 127.144 32.4157 125.819 31.6875C125.688 31.6195 125.571 31.5242 125.461 31.4289C124.846 30.8844 124.853 30.2379 125.488 29.7003C125.723 29.5029 125.964 29.3191 126.164 29.1558ZM129.242 30.0746C129.235 29.6662 129.056 29.4008 128.642 29.2715C128.048 29.0877 127.441 29.0809 126.841 29.2239C126.454 29.3123 126.026 29.8432 125.985 30.2107C125.95 30.5782 126.213 30.9729 126.675 31.1703C127.337 31.4493 128.014 31.4289 128.656 31.0886C129.042 30.8708 129.242 30.5169 129.242 30.0746ZM128.414 25.6577C128.421 25.1881 128.31 24.7661 127.959 24.4259C127.6 24.0788 127.048 24.0788 126.703 24.4395C126.151 25.0043 126.213 26.277 126.813 26.7942C127.199 27.1277 127.676 27.1073 128.041 26.7534C128.345 26.4471 128.414 26.066 128.414 25.6577Z" fill="#040404"/>
<path d="M59.1447 23.9017C58.8618 24.5482 58.7169 24.6299 57.9785 24.589C58.0337 24.7115 58.0889 24.8136 58.1372 24.9225C58.6065 26.1203 57.7646 27.3658 56.4535 27.4202C56.2119 27.427 55.9704 27.4202 55.7289 27.4202C55.4736 27.4134 55.1975 27.6108 55.1975 27.8353C55.1975 28.0735 55.3632 28.2233 55.584 28.2369C56.0394 28.2709 56.4949 28.2641 56.9503 28.2913C57.2677 28.3049 57.5921 28.3185 57.9026 28.3798C58.8204 28.5635 59.0757 29.3258 58.8549 30.122C58.6203 30.966 57.9647 31.4424 57.178 31.7418C56.3017 32.0753 55.4046 32.1365 54.5765 31.6193C54.3143 31.456 54.0934 31.1769 53.9416 30.8979C53.7484 30.544 53.8243 30.1697 54.1348 29.877C54.4178 29.6116 54.7145 29.3734 55.0043 29.1216C54.7766 28.9447 54.5558 28.7813 54.3488 28.5976C54.2591 28.5159 54.2108 28.3934 54.1556 28.2845C54.0382 28.0735 54.1003 27.9578 54.3212 27.8353C54.611 27.6856 54.8594 27.4678 55.1561 27.2637C54.2936 26.8281 54.0382 26.1475 54.121 25.4874C54.2384 24.5822 54.8249 23.9969 55.7151 23.7928C56.1636 23.6907 56.6122 23.6771 57.0262 23.8676C57.4679 24.0718 57.9095 24.0037 58.3649 23.9629C58.6065 23.9629 58.848 23.9357 59.1447 23.9017ZM56.5018 29.1148C55.9428 29.108 55.4322 29.2033 55.0595 29.6797C54.7145 30.1152 54.7628 30.6461 55.2113 30.9864C55.8531 31.4764 57.0262 31.4764 57.6473 30.966C57.9854 30.6869 58.1441 30.3262 58.0544 29.8838C57.9716 29.4755 57.6611 29.2918 57.2815 29.2101C57.0262 29.1556 56.764 29.142 56.5018 29.1148ZM57.2884 25.6643C57.2332 25.4125 57.1987 25.1403 57.109 24.8885C56.9641 24.4597 56.5501 24.1535 56.1705 24.1671C55.7289 24.1807 55.446 24.4325 55.3011 24.8204C55.0871 25.3853 55.1078 25.957 55.4046 26.4878C55.6047 26.8417 55.9152 27.0731 56.3638 27.0187C56.7847 26.9642 57.0331 26.692 57.1573 26.3109C57.2125 26.1067 57.2401 25.8957 57.2884 25.6643Z" fill="#040404"/>
<path d="M61.1806 24.4733C61.6568 24.2419 62.0777 23.9765 62.5401 23.8199C63.2025 23.5954 64.1548 23.9016 64.4239 24.8476C64.5136 25.1607 64.5481 25.4941 64.5619 25.814C64.5826 26.4673 64.5688 27.1275 64.5688 27.7877C64.5688 28.5227 64.6102 28.5703 65.3486 28.686C65.3555 28.7881 65.3624 28.897 65.3693 29.0263C64.5136 29.0263 63.6925 29.0263 62.8437 29.0263C62.8437 28.9174 62.8437 28.8017 62.8437 28.686C63.5614 28.5431 63.6166 28.4886 63.6097 27.774C63.6028 27.005 63.6166 26.2292 63.5544 25.4669C63.4854 24.623 62.8368 24.3644 62.0639 24.5345C61.8983 24.5686 61.7465 24.657 61.6016 24.7387C61.3255 24.8952 61.1806 25.0926 61.1944 25.4465C61.2289 26.236 61.2013 27.0322 61.2013 27.8285C61.2013 28.5022 61.2772 28.5839 61.9673 28.6792C61.9742 28.7813 61.9811 28.8902 61.988 29.0263C61.1185 29.0263 60.2766 29.0263 59.4279 29.0263C59.4279 28.9038 59.4279 28.7949 59.4279 28.6724C59.4969 28.6656 59.5521 28.6588 59.6073 28.652C60.1248 28.5839 60.2283 28.475 60.2352 27.9578C60.2352 26.0794 60.2352 24.1943 60.2352 22.3159C60.2352 21.6149 60.18 21.5605 59.4348 21.4924C59.4279 21.3903 59.421 21.2882 59.4141 21.1793C60.0144 21.0432 60.5872 20.9071 61.1944 20.771C61.1806 22.0096 61.1806 23.2551 61.1806 24.4733Z" fill="#040404"/>
<path d="M91.8619 23.7723C91.8619 24.0377 91.8619 24.2964 91.8619 24.6094C92.1724 24.4121 92.4484 24.2419 92.7176 24.065C93.2558 23.7111 93.8217 23.6294 94.4013 23.9425C94.9879 24.2555 95.1742 24.8068 95.188 25.4193C95.2087 26.236 95.188 27.0527 95.2018 27.8693C95.2087 28.5363 95.2639 28.5839 95.947 28.6792C95.954 28.7881 95.9609 28.897 95.9678 29.0263C95.1328 29.0263 94.3116 29.0263 93.4628 29.0263C93.4628 28.9174 93.4628 28.8085 93.4628 28.6792C93.518 28.6724 93.5663 28.6588 93.6215 28.652C94.0701 28.5839 94.2081 28.4887 94.215 28.0531C94.2357 27.1956 94.215 26.3313 94.1874 25.4737C94.1598 24.6094 93.3938 24.3032 92.6278 24.6094C92.5657 24.6366 92.5036 24.6707 92.4415 24.6911C92.0275 24.868 91.8136 25.1267 91.8481 25.6235C91.8964 26.3585 91.855 27.0935 91.8619 27.8353C91.8688 28.5227 91.9378 28.5907 92.6209 28.6724C92.6278 28.7745 92.6347 28.8834 92.6485 29.0195C91.7722 29.0195 90.9234 29.0195 90.047 29.0195C90.0401 28.9106 90.0401 28.8017 90.0332 28.7064C90.0677 28.6792 90.0815 28.6588 90.1022 28.6588C90.7992 28.5975 90.8682 28.5431 90.8889 27.8693C90.9096 27.0186 90.9096 26.1679 90.8889 25.3172C90.8751 24.6707 90.8406 24.6503 90.1919 24.5141C90.185 24.4257 90.1781 24.3236 90.1781 24.2283C90.7302 24.0854 91.2753 23.9357 91.8619 23.7723Z" fill="#040404"/>
<path d="M118.519 29.0332C118.512 28.9107 118.505 28.8086 118.498 28.7133C118.546 28.6861 118.56 28.6657 118.581 28.6588C119.292 28.584 119.361 28.5091 119.361 27.7945C119.361 26.9574 119.361 26.1203 119.361 25.2764C119.361 24.7456 119.319 24.7116 118.802 24.555C118.733 24.5346 118.643 24.4189 118.65 24.3577C118.657 24.2896 118.746 24.1875 118.822 24.1671C119.312 24.031 119.809 23.9153 120.32 23.786C120.32 24.0378 120.32 24.3032 120.32 24.6299C120.679 24.4053 120.989 24.1943 121.314 23.997C122.176 23.4797 123.363 23.786 123.618 24.9838C123.667 25.2152 123.674 25.4534 123.674 25.6916C123.68 26.4198 123.674 27.1412 123.674 27.8694C123.674 28.5091 123.743 28.5908 124.405 28.6725C124.405 28.7813 124.405 28.897 124.405 29.0468C123.984 29.0468 123.57 29.0468 123.163 29.0468C122.763 29.0468 122.362 29.0468 121.941 29.0468C121.941 28.9175 121.941 28.8086 121.941 28.6725C122.031 28.6588 122.114 28.652 122.204 28.6384C122.556 28.5704 122.673 28.4411 122.68 28.0872C122.687 27.2365 122.694 26.3858 122.673 25.535C122.652 24.7456 122.059 24.3372 121.286 24.555C121.196 24.5822 121.113 24.6095 121.031 24.6435C120.554 24.8409 120.258 25.1063 120.313 25.6984C120.382 26.4062 120.327 27.1276 120.327 27.8422C120.327 28.5227 120.396 28.5976 121.1 28.6793C121.1 28.7882 121.1 28.9039 121.1 29.04C120.23 29.0332 119.388 29.0332 118.519 29.0332Z" fill="#040404"/>
<path d="M47.4004 24.3306C47.4004 24.2149 47.4004 24.1264 47.4004 24.0243C47.9662 23.9631 48.5183 23.9018 49.1048 23.8406C49.1048 24.072 49.1048 24.317 49.1048 24.562C49.1048 25.4807 49.091 26.3995 49.1118 27.3115C49.1325 28.135 49.7328 28.5501 50.5333 28.3255C50.7196 28.2711 50.8921 28.1894 51.0646 28.1009C51.2993 27.9716 51.4097 27.7947 51.4028 27.502C51.3752 26.7126 51.3959 25.9163 51.3959 25.12C51.3959 24.5279 51.389 24.5143 50.7886 24.3918C50.6989 24.3714 50.6092 24.3578 50.4988 24.3374C50.4919 24.2421 50.4919 24.1468 50.485 24.072C50.5057 24.0447 50.5126 24.0243 50.5195 24.0243C51.1198 23.9631 51.7271 23.9018 52.3758 23.8406C52.3758 23.9291 52.3758 24.0243 52.3758 24.1196C52.3758 25.3174 52.3758 26.522 52.3758 27.7198C52.3758 28.2711 52.4793 28.3664 53.0382 28.3732C53.1072 28.3732 53.1693 28.38 53.259 28.3868C53.259 28.5093 53.259 28.6182 53.259 28.7202C52.6656 28.8632 52.079 29.0061 51.4304 29.1626C51.4304 28.8836 51.4304 28.6114 51.4304 28.2983C51.0439 28.5433 50.7265 28.7611 50.3884 28.938C49.2498 29.5369 48.1526 28.8836 48.1319 27.6041C48.125 26.8759 48.1319 26.1545 48.1319 25.4263C48.1319 25.3582 48.1319 25.2902 48.1319 25.2221C48.125 24.5348 48.0974 24.4939 47.4004 24.3306Z" fill="#040404"/>
<path d="M73.3477 24.3306C73.3477 24.2353 73.3477 24.14 73.3477 24.0243C73.9135 23.963 74.4725 23.9018 75.059 23.8405C75.059 24.2081 75.059 24.5892 75.059 24.9703C75.059 25.7189 75.059 26.4675 75.059 27.2162C75.0659 28.1553 75.7422 28.6181 76.6324 28.2983C77.212 28.0873 77.3707 27.8695 77.3638 27.2638C77.3569 26.4948 77.3569 25.7257 77.3362 24.9499C77.3293 24.5211 77.2879 24.4939 76.8394 24.4122C76.7152 24.3918 76.591 24.3646 76.446 24.3306C76.4391 24.2489 76.4322 24.1536 76.4253 24.0243C77.0602 23.963 77.6813 23.9018 78.323 23.8337C78.323 24.6845 78.323 25.5352 78.323 26.3859C78.323 26.8759 78.3092 27.3591 78.3368 27.8491C78.3644 28.2915 78.4679 28.3663 78.9165 28.3731C79.0062 28.3731 79.0959 28.3799 79.2063 28.3867C79.2063 28.5092 79.2063 28.6181 79.2063 28.727C78.6059 28.8699 78.0194 29.0129 77.3914 29.1626C77.3776 28.8972 77.3638 28.6317 77.35 28.3119C77.2465 28.3867 77.1706 28.4412 77.0947 28.4888C76.729 28.6998 76.3839 28.972 75.9975 29.1013C74.9969 29.4212 74.1136 28.7406 74.0929 27.6721C74.0791 26.8691 74.086 26.0592 74.086 25.2561C74.086 24.5279 74.0722 24.5075 73.3477 24.3306Z" fill="#040404"/>
<path d="M44.46 23.752C45.9022 23.8132 47.0477 24.8545 47.0201 26.4334C46.9925 28.2233 45.7642 29.1625 44.3634 29.1761C42.8797 29.1897 41.748 28.0123 41.7618 26.5491C41.7825 24.6639 43.2041 23.7724 44.46 23.752ZM45.9091 26.7056C45.8677 26.0727 45.7918 25.4534 45.4468 24.9089C45.1639 24.4597 44.7774 24.1807 44.2047 24.2215C43.6802 24.2556 43.3628 24.5686 43.1765 25.0042C42.7141 26.0659 42.8314 27.1072 43.4111 28.0872C43.7009 28.5772 44.1978 28.829 44.7912 28.7133C45.3364 28.6112 45.6124 28.2097 45.7366 27.7061C45.8056 27.3726 45.847 27.0391 45.9091 26.7056Z" fill="#040404"/>
<path d="M70.4415 23.8883C70.4346 22.7994 70.7796 21.901 71.6491 21.2477C72.1321 20.887 72.6566 20.608 73.2983 20.8257C73.4364 20.8734 73.5744 20.9414 73.6848 21.0299C73.9746 21.2545 73.9194 21.7445 73.5882 21.8738C73.4916 21.9146 73.3329 21.8534 73.2224 21.7989C73.0499 21.7173 72.905 21.5744 72.7256 21.4995C72.2011 21.2749 71.725 21.4587 71.6008 22.0031C71.4628 22.602 71.4352 23.2281 71.3593 23.8815C71.8906 23.8815 72.3461 23.8815 72.7946 23.8815C72.8912 24.3579 72.8429 24.4191 72.4082 24.4191C72.0907 24.4191 71.7733 24.4191 71.4352 24.4191C71.4352 25.6578 71.4352 26.8692 71.4352 28.0738C71.4352 28.4005 71.6146 28.5706 71.932 28.6114C72.0907 28.6319 72.2495 28.6523 72.4358 28.6727C72.4427 28.7748 72.4496 28.8837 72.4565 29.0198C71.4973 29.0198 70.5657 29.0198 69.6134 29.0198C69.6134 28.9109 69.6134 28.802 69.6134 28.6863C69.6341 28.6727 69.6479 28.6523 69.6686 28.6523C70.3656 28.5978 70.4415 28.523 70.4415 27.822C70.4415 26.699 70.4415 25.5829 70.4415 24.4123C70.2276 24.4123 70.0274 24.4191 69.8273 24.4055C69.7514 24.3987 69.6755 24.3511 69.5996 24.317C69.6272 24.249 69.6548 24.1809 69.6824 24.1197C69.848 23.8202 70.1517 23.9155 70.4415 23.8883Z" fill="#040404"/>
<path d="M102.563 26.1953C102.584 26.9984 102.777 27.6993 103.516 28.1077C104.309 28.5501 105.006 28.2982 105.648 27.7674C105.89 27.9375 105.896 28.0941 105.683 28.2914C105.282 28.6726 104.848 28.9992 104.296 29.1285C103.26 29.3667 102.246 28.8087 101.804 27.7878C101.17 26.3178 101.887 24.5279 103.343 23.9222C104.585 23.405 105.945 24.2829 105.931 25.5828C105.931 25.8754 105.807 25.9843 105.524 26.0047C104.558 26.0592 103.585 26.1272 102.563 26.1953ZM102.639 25.5896C103.329 25.5896 104.006 25.5964 104.682 25.5828C104.751 25.5828 104.854 25.4807 104.868 25.4126C104.944 25.0519 104.689 24.5619 104.337 24.3578C103.999 24.1672 103.605 24.1876 103.281 24.4394C102.895 24.7457 102.701 25.154 102.639 25.5896Z" fill="#040404"/>
<path d="M86.1827 21.8192C86.1827 21.6967 86.1827 21.5946 86.1827 21.4653C87.2316 21.4653 88.2805 21.4653 89.357 21.4653C89.357 21.5674 89.357 21.6899 89.357 21.8192C89.2121 21.8396 89.0671 21.8601 88.9222 21.8805C88.4392 21.9553 88.315 22.1119 88.3081 22.6155C88.3012 24.3714 88.3012 26.1272 88.3081 27.8831C88.3081 28.3663 88.4737 28.5296 88.9567 28.5841C89.081 28.5977 89.2052 28.6249 89.3639 28.6521C89.3708 28.7678 89.3777 28.8835 89.3846 29.0264C88.3081 29.0264 87.273 29.0264 86.1965 29.0264C86.1896 28.9107 86.1827 28.7951 86.1758 28.6521C86.369 28.6249 86.5346 28.6045 86.7002 28.5841C86.9901 28.5432 87.1971 28.4139 87.2247 28.1009C87.2385 27.9443 87.2661 27.7878 87.2661 27.6313C87.2661 26.0115 87.2661 24.3918 87.2661 22.772C87.2661 22.6835 87.2661 22.5883 87.2523 22.4998C87.1764 22.0506 87.1005 21.9826 86.6519 21.8873C86.507 21.8533 86.3621 21.8465 86.1827 21.8192Z" fill="#040404"/>
<path d="M106.822 27.3932C106.967 27.3592 107.071 27.332 107.16 27.3047C107.361 27.645 107.533 27.9853 107.754 28.2916C107.961 28.5774 108.264 28.7339 108.637 28.7339C109.01 28.7339 109.265 28.5638 109.424 28.2371C109.576 27.9241 109.493 27.6314 109.272 27.4C109.113 27.2299 108.899 27.1074 108.692 26.9917C108.423 26.842 108.14 26.7263 107.871 26.5765C107.312 26.2567 106.974 25.8075 107.057 25.1337C107.14 24.4464 107.581 24.0516 108.216 23.8543C108.706 23.6977 109.203 23.7386 109.7 23.8815C109.907 23.9427 109.997 24.0584 110.038 24.249C110.1 24.5689 110.162 24.8887 110.231 25.2222C110.107 25.263 110.003 25.3039 109.886 25.3447C109.783 25.1405 109.7 24.95 109.589 24.7662C109.424 24.4804 109.189 24.2762 108.851 24.215C108.472 24.1469 108.147 24.283 107.988 24.6029C107.83 24.9228 107.885 25.2971 108.182 25.5217C108.437 25.7122 108.727 25.8415 109.01 25.9913C109.251 26.1206 109.514 26.2158 109.734 26.3656C110.728 27.0189 110.673 28.3324 109.617 28.8905C108.823 29.3056 108.009 29.2852 107.216 28.8769C107.112 28.8224 107.015 28.6863 106.995 28.5774C106.919 28.1895 106.877 27.7948 106.822 27.3932Z" fill="#040404"/>
<path d="M82.4293 28.6724C82.4293 28.8017 82.4293 28.9106 82.4293 29.0331C81.546 29.0331 80.6627 29.0331 79.7656 29.0331C79.7656 28.9106 79.7656 28.8017 79.7656 28.6996C79.7932 28.686 79.807 28.6656 79.8277 28.6588C80.4764 28.5975 80.5799 28.5091 80.5799 27.8693C80.5937 26.0318 80.5868 24.1943 80.5868 22.3567C80.5868 21.6081 80.5385 21.5605 79.7725 21.4788C79.7725 21.3767 79.7725 21.2678 79.7725 21.1725C80.3591 21.0432 80.9387 20.9139 81.5529 20.771C81.5529 20.9003 81.5529 21.0296 81.5529 21.1589C81.5529 23.3367 81.5529 25.5146 81.5529 27.6924C81.5529 27.7128 81.5529 27.74 81.5529 27.7604C81.5529 28.4886 81.6633 28.6043 82.4293 28.6724Z" fill="#040404"/>
<path d="M98.7821 29.1216C98.6579 29.1216 98.5337 29.1216 98.4095 29.1216C97.8919 27.8489 97.3744 26.5899 96.8568 25.3308C96.8154 25.2356 96.774 25.1471 96.7395 25.0518C96.5808 24.6026 96.3117 24.2828 95.7734 24.2828C95.7734 24.1466 95.7734 24.0446 95.7734 23.9153C96.5877 23.9153 97.3882 23.9153 98.2163 23.9153C98.2163 24.0241 98.2163 24.133 98.2163 24.2283C98.1818 24.2487 98.168 24.276 98.1473 24.276C97.5952 24.3576 97.5676 24.3916 97.7608 24.9157C98.1059 25.8276 98.4647 26.7396 98.8511 27.7264C98.9477 27.4882 99.0236 27.3181 99.0926 27.148C99.348 26.4742 99.6102 25.8004 99.8586 25.1199C100.093 24.4597 100.052 24.3917 99.3687 24.2487C99.3687 24.1466 99.3687 24.0378 99.3687 23.9084C100.073 23.9084 100.776 23.9084 101.501 23.9084C101.501 24.0173 101.501 24.1398 101.501 24.276C100.977 24.2623 100.707 24.5686 100.528 24.9974C99.9759 26.304 99.4239 27.6175 98.8649 28.9242C98.8373 28.9923 98.8097 29.0535 98.7821 29.1216Z" fill="#040404"/>
<path d="M66.4313 24.385C66.1208 24.385 65.8379 24.385 65.5273 24.385C65.762 23.9358 65.8034 23.9154 66.452 23.8882C66.2174 23.1872 66.6728 22.772 67.1283 22.3705C67.1835 22.3228 67.2801 22.3228 67.3905 22.2888C67.3905 22.8401 67.3905 23.3505 67.3905 23.8813C67.846 23.8813 68.2876 23.8813 68.7223 23.8813C68.888 24.2829 68.8051 24.419 68.4256 24.419C68.0944 24.419 67.7631 24.419 67.3974 24.419C67.3974 24.9634 67.3974 25.4943 67.3974 26.0183C67.3974 26.4811 67.3905 26.9507 67.3974 27.4135C67.3974 27.57 67.4181 27.7266 67.4595 27.8831C67.5906 28.3799 67.8805 28.5364 68.3842 28.4003C68.5153 28.3663 68.6464 28.3187 68.7982 28.271C68.8396 28.3663 68.8811 28.4616 68.9363 28.5909C68.5981 28.7678 68.2807 28.9788 67.9357 29.1013C67.2249 29.3463 66.452 28.9652 66.4313 27.9648C66.4106 26.8554 66.4244 25.7461 66.4244 24.6368C66.4313 24.5755 66.4313 24.5075 66.4313 24.385Z" fill="#040404"/>
<path d="M114.419 28.2573C114.461 28.3662 114.495 28.4615 114.557 28.618C114.13 28.8018 113.729 29.04 113.288 29.1557C112.653 29.319 112.059 28.7405 112.053 27.9919C112.039 26.9506 112.046 25.9094 112.046 24.8613C112.046 24.7252 112.046 24.5891 112.046 24.4394C111.749 24.4189 111.452 24.3917 111.135 24.3713C111.321 23.9289 111.618 23.8268 112.066 23.9153C111.859 23.0714 112.322 22.6358 112.908 22.2751C112.943 22.2888 112.977 22.3024 113.012 22.316C113.012 22.8332 113.012 23.3504 113.012 23.8813C113.474 23.8813 113.909 23.8813 114.33 23.8813C114.495 24.276 114.413 24.4121 114.012 24.4121C113.695 24.4121 113.371 24.4121 113.019 24.4121C113.019 25.1063 113.019 25.7801 113.019 26.4538C113.019 26.8281 113.012 27.2025 113.019 27.5768C113.039 28.2846 113.467 28.584 114.137 28.3594C114.226 28.339 114.316 28.2982 114.419 28.2573Z" fill="#040404"/>
<path d="M117.828 28.6862C117.828 28.7951 117.828 28.9039 117.828 29.0333C116.944 29.0333 116.068 29.0333 115.178 29.0333C115.178 28.9107 115.178 28.8019 115.178 28.693C115.226 28.6794 115.254 28.6589 115.288 28.6589C115.902 28.6045 116.006 28.4956 116.013 27.8763C116.02 27.0052 116.02 26.134 116.02 25.2561C116.02 24.7184 115.958 24.664 115.281 24.5211C115.281 24.419 115.281 24.3101 115.281 24.2216C115.854 24.0719 116.413 23.929 116.993 23.7725C116.999 23.8541 117.006 23.9426 117.006 24.0243C117.006 25.2561 117.006 26.4947 117.006 27.7266C116.999 28.5228 117.034 28.5637 117.828 28.6862Z" fill="#040404"/>
<path d="M132.058 28.4751C132.051 28.8698 131.733 29.1829 131.34 29.1897C130.94 29.1965 130.608 28.8562 130.615 28.4479C130.622 28.0532 130.94 27.7401 131.333 27.7401C131.747 27.7333 132.064 28.06 132.058 28.4751Z" fill="#040404"/>
<path d="M116.436 22.6631C116.084 22.6631 115.794 22.3977 115.787 22.0574C115.78 21.7239 116.105 21.37 116.422 21.3768C116.76 21.3768 117.071 21.6967 117.078 22.0438C117.078 22.3772 116.781 22.6631 116.436 22.6631Z" fill="#040404"/>
<path d="M11.3657 11.0049C12.1523 10.9981 12.9183 11.1002 13.636 11.4268C14.6297 11.8828 15.1541 12.6655 15.2162 13.7136C15.3404 15.8369 14.2432 18.0488 12.0626 19.0288C11.1655 19.4303 10.227 19.5664 9.24716 19.3895C8.6744 19.2874 8.25347 18.8723 8.27417 18.2938C8.29487 17.8174 8.37078 17.3274 8.50879 16.8646C9.08154 14.993 9.6888 13.1283 10.2823 11.2567C10.3375 11.0798 10.3996 10.9573 10.6342 10.9913C10.8757 11.0321 11.1241 11.0049 11.3657 11.0049Z" fill="#0B3B62"/>
<path d="M10.752 9.90247C10.9245 9.3444 11.0763 8.85439 11.2281 8.35758C11.649 7.00325 12.0562 5.64892 12.4909 4.29459C12.8842 3.06956 13.3811 2.7565 14.6784 2.8722C15.5272 2.94706 16.2725 3.21929 16.721 3.98833C17.0384 4.52598 17.0798 5.13169 17.0108 5.73059C16.8866 6.87394 16.4657 7.89479 15.5617 8.67064C14.7957 9.33079 13.8917 9.69149 12.8912 9.79358C12.2011 9.86844 11.5041 9.86844 10.752 9.90247Z" fill="#0B3B62"/>
</svg>
