<svg width="286" height="315" viewBox="0 0 286 315" fill="none" xmlns="http://www.w3.org/2000/svg">
<rect x="32" y="53" width="218" height="218" rx="109" fill="white"/>
<path d="M99.7833 170.66C99.7833 179.387 98.3477 185.847 95.4767 190.04C92.6283 194.232 88.2306 196.329 82.2833 196.329C76.5183 196.329 72.1661 194.164 69.2267 189.834C66.31 185.505 64.8517 179.113 64.8517 170.66C64.8517 161.841 66.2758 155.347 69.1241 151.177C71.9724 146.985 76.3588 144.888 82.2833 144.888C88.0483 144.888 92.4005 147.076 95.3399 151.451C98.3022 155.826 99.7833 162.229 99.7833 170.66ZM75.3448 170.66C75.3448 176.789 75.8689 181.187 76.9171 183.853C77.988 186.496 79.7768 187.818 82.2833 187.818C84.7442 187.818 86.5216 186.473 87.6153 183.785C88.7091 181.096 89.256 176.721 89.256 170.66C89.256 164.53 88.6977 160.132 87.5811 157.466C86.4874 154.778 84.7214 153.433 82.2833 153.433C79.7996 153.433 78.0222 154.778 76.9513 157.466C75.8803 160.132 75.3448 164.53 75.3448 170.66ZM102.812 190.757C102.812 188.843 103.324 187.396 104.35 186.417C105.375 185.437 106.868 184.947 108.827 184.947C110.719 184.947 112.177 185.448 113.202 186.451C114.25 187.453 114.775 188.889 114.775 190.757C114.775 192.557 114.25 193.982 113.202 195.03C112.154 196.055 110.696 196.568 108.827 196.568C106.913 196.568 105.432 196.067 104.384 195.064C103.336 194.039 102.812 192.603 102.812 190.757ZM152.803 167.002C152.803 176.846 150.729 184.195 146.582 189.048C142.435 193.902 136.157 196.329 127.749 196.329C124.787 196.329 122.542 196.169 121.016 195.85V187.374C122.93 187.852 124.935 188.091 127.031 188.091C130.563 188.091 133.469 187.579 135.747 186.553C138.026 185.505 139.769 183.876 140.977 181.666C142.184 179.432 142.879 176.368 143.062 172.471H142.651C141.33 174.613 139.803 176.117 138.071 176.983C136.34 177.849 134.175 178.282 131.577 178.282C127.225 178.282 123.796 176.892 121.289 174.112C118.783 171.309 117.529 167.424 117.529 162.457C117.529 157.102 119.045 152.875 122.075 149.776C125.129 146.654 129.276 145.093 134.517 145.093C138.208 145.093 141.432 145.959 144.19 147.691C146.969 149.423 149.1 151.941 150.581 155.245C152.062 158.526 152.803 162.445 152.803 167.002ZM134.722 153.57C132.534 153.57 130.825 154.322 129.595 155.826C128.364 157.33 127.749 159.494 127.749 162.32C127.749 164.735 128.307 166.649 129.424 168.062C130.54 169.475 132.238 170.181 134.517 170.181C136.659 170.181 138.493 169.486 140.02 168.096C141.546 166.683 142.31 165.066 142.31 163.243C142.31 160.531 141.592 158.241 140.156 156.373C138.744 154.504 136.932 153.57 134.722 153.57ZM171.793 145.025C176.578 145.025 180.429 146.119 183.346 148.306C186.285 150.471 187.755 153.399 187.755 157.09C187.755 159.642 187.049 161.921 185.636 163.926C184.223 165.909 181.944 167.686 178.8 169.258C182.537 171.264 185.214 173.36 186.832 175.547C188.473 177.712 189.293 180.093 189.293 182.691C189.293 186.792 187.687 190.097 184.474 192.603C181.261 195.087 177.034 196.329 171.793 196.329C166.324 196.329 162.029 195.167 158.907 192.842C155.786 190.518 154.225 187.225 154.225 182.964C154.225 180.116 154.977 177.587 156.481 175.376C158.007 173.166 160.445 171.218 163.795 169.532C160.947 167.732 158.896 165.806 157.643 163.755C156.389 161.705 155.763 159.46 155.763 157.022C155.763 153.444 157.244 150.551 160.206 148.34C163.168 146.13 167.031 145.025 171.793 145.025ZM164 182.349C164 184.309 164.684 185.835 166.051 186.929C167.418 188.023 169.287 188.57 171.656 188.57C174.277 188.57 176.236 188.012 177.535 186.895C178.834 185.756 179.483 184.263 179.483 182.417C179.483 180.891 178.834 179.467 177.535 178.145C176.259 176.801 174.174 175.376 171.28 173.873C166.427 176.106 164 178.931 164 182.349ZM171.725 152.75C169.925 152.75 168.466 153.217 167.35 154.151C166.256 155.062 165.709 156.293 165.709 157.842C165.709 159.209 166.142 160.44 167.008 161.534C167.897 162.605 169.492 163.71 171.793 164.849C174.026 163.801 175.587 162.73 176.476 161.636C177.364 160.542 177.809 159.278 177.809 157.842C177.809 156.27 177.239 155.028 176.1 154.117C174.96 153.205 173.502 152.75 171.725 152.75Z" fill="black"/>
<path d="M200.152 175C200.152 176.654 200.296 177.891 200.582 178.711C200.882 179.518 201.357 179.922 202.008 179.922C203.258 179.922 203.883 178.281 203.883 175C203.883 171.745 203.258 170.117 202.008 170.117C201.357 170.117 200.882 170.521 200.582 171.328C200.296 172.122 200.152 173.346 200.152 175ZM208.805 174.961C208.805 177.956 208.225 180.208 207.066 181.719C205.908 183.216 204.208 183.965 201.969 183.965C199.82 183.965 198.16 183.197 196.988 181.66C195.816 180.111 195.23 177.878 195.23 174.961C195.23 169.01 197.477 166.035 201.969 166.035C204.169 166.035 205.855 166.81 207.027 168.359C208.212 169.896 208.805 172.096 208.805 174.961ZM222.242 166.445L206.402 195H201.715L217.555 166.445H222.242ZM220.152 186.406C220.152 188.06 220.296 189.297 220.582 190.117C220.882 190.924 221.357 191.328 222.008 191.328C223.258 191.328 223.883 189.688 223.883 186.406C223.883 183.151 223.258 181.523 222.008 181.523C221.357 181.523 220.882 181.927 220.582 182.734C220.296 183.529 220.152 184.753 220.152 186.406ZM228.805 186.367C228.805 189.349 228.225 191.595 227.066 193.105C225.908 194.603 224.208 195.352 221.969 195.352C219.82 195.352 218.16 194.583 216.988 193.047C215.816 191.497 215.23 189.271 215.23 186.367C215.23 180.417 217.477 177.441 221.969 177.441C224.169 177.441 225.855 178.216 227.027 179.766C228.212 181.302 228.805 183.503 228.805 186.367Z" fill="black"/>
<path d="M285.434 171.297C285.434 250.116 221.537 314.012 142.717 314.012C63.8966 314.012 0 250.116 0 171.297C0 92.4772 63.8966 28.5815 142.717 28.5815C221.537 28.5815 285.434 92.4772 285.434 171.297ZM47.7152 171.297C47.7152 223.764 90.249 266.297 142.717 266.297C195.185 266.297 237.719 223.764 237.719 171.297C237.719 118.829 195.185 76.296 142.717 76.296C90.249 76.296 47.7152 118.829 47.7152 171.297Z" fill="#0076FF"/>
<path d="M184.491 6.25508C174.626 3.70443 169.973 2.92249 159.887 1.4822L147.558 102.776C152.605 103.496 157.05 105.005 161.692 105.657L184.491 6.25508Z" fill="white"/>
<path d="M174.914 24.4918C170.829 23.4354 169.107 23.2392 166.448 22.9363C165.248 22.7994 163.856 22.6409 161.969 22.3715L154.557 83.2701C156.094 83.4896 157.26 83.7481 158.398 84.0007C159.508 84.2468 160.592 84.4873 161.969 84.6805L174.914 24.4918Z" fill="black"/>
<path d="M174.914 24.4918C170.829 23.4354 169.107 23.2392 166.448 22.9363C165.248 22.7994 163.856 22.6409 161.969 22.3715L154.557 83.2701C156.094 83.4896 157.26 83.7481 158.398 84.0007C159.508 84.2468 160.592 84.4873 161.969 84.6805L174.914 24.4918Z" stroke="#0076FF"/>
</svg>
