<svg width="286" height="315" viewBox="0 0 286 315" fill="none" xmlns="http://www.w3.org/2000/svg">
<rect x="32" y="53" width="218" height="218" rx="109" fill="white"/>
<path d="M100.783 166.66C100.783 175.387 99.3477 181.847 96.4767 186.04C93.6283 190.232 89.2306 192.329 83.2833 192.329C77.5183 192.329 73.1661 190.164 70.2267 185.834C67.31 181.505 65.8517 175.113 65.8517 166.66C65.8517 157.841 67.2758 151.347 70.1241 147.177C72.9724 142.985 77.3588 140.888 83.2833 140.888C89.0483 140.888 93.4005 143.076 96.3399 147.451C99.3022 151.826 100.783 158.229 100.783 166.66ZM76.3448 166.66C76.3448 172.789 76.8689 177.187 77.9171 179.853C78.988 182.496 80.7768 183.818 83.2833 183.818C85.7442 183.818 87.5216 182.473 88.6153 179.785C89.7091 177.096 90.256 172.721 90.256 166.66C90.256 160.53 89.6977 156.132 88.5811 153.466C87.4874 150.778 85.7214 149.433 83.2833 149.433C80.7996 149.433 79.0222 150.778 77.9513 153.466C76.8803 156.132 76.3448 160.53 76.3448 166.66ZM103.812 186.757C103.812 184.843 104.324 183.396 105.35 182.417C106.375 181.437 107.868 180.947 109.827 180.947C111.719 180.947 113.177 181.448 114.202 182.451C115.25 183.453 115.775 184.889 115.775 186.757C115.775 188.557 115.25 189.982 114.202 191.03C113.154 192.055 111.696 192.568 109.827 192.568C107.913 192.568 106.432 192.067 105.384 191.064C104.336 190.039 103.812 188.603 103.812 186.757ZM153.803 163.002C153.803 172.846 151.729 180.195 147.582 185.048C143.435 189.902 137.157 192.329 128.749 192.329C125.787 192.329 123.542 192.169 122.016 191.85V183.374C123.93 183.852 125.935 184.091 128.031 184.091C131.563 184.091 134.469 183.579 136.747 182.553C139.026 181.505 140.769 179.876 141.977 177.666C143.184 175.432 143.879 172.368 144.062 168.471H143.651C142.33 170.613 140.803 172.117 139.071 172.983C137.34 173.849 135.175 174.282 132.577 174.282C128.225 174.282 124.796 172.892 122.289 170.112C119.783 167.309 118.529 163.424 118.529 158.457C118.529 153.102 120.045 148.875 123.075 145.776C126.129 142.654 130.276 141.093 135.517 141.093C139.208 141.093 142.432 141.959 145.19 143.691C147.969 145.423 150.1 147.941 151.581 151.245C153.062 154.526 153.803 158.445 153.803 163.002ZM135.722 149.57C133.534 149.57 131.825 150.322 130.595 151.826C129.364 153.33 128.749 155.494 128.749 158.32C128.749 160.735 129.307 162.649 130.424 164.062C131.54 165.475 133.238 166.181 135.517 166.181C137.659 166.181 139.493 165.486 141.02 164.096C142.546 162.683 143.31 161.066 143.31 159.243C143.31 156.531 142.592 154.241 141.156 152.373C139.744 150.504 137.932 149.57 135.722 149.57ZM173.75 159.721C178.581 159.721 182.42 161.077 185.269 163.789C188.14 166.5 189.575 170.214 189.575 174.931C189.575 180.514 187.855 184.809 184.414 187.817C180.973 190.825 176.052 192.329 169.649 192.329C164.089 192.329 159.6 191.429 156.182 189.628V180.502C157.982 181.459 160.078 182.246 162.471 182.861C164.863 183.453 167.131 183.75 169.273 183.75C175.721 183.75 178.945 181.106 178.945 175.82C178.945 170.784 175.607 168.266 168.931 168.266C167.723 168.266 166.39 168.391 164.932 168.642C163.473 168.87 162.289 169.121 161.377 169.394L157.173 167.138L159.053 141.674H186.157V150.629H168.316L167.393 160.439L168.589 160.2C169.979 159.881 171.699 159.721 173.75 159.721Z" fill="black"/>
<path d="M199.152 171C199.152 172.654 199.296 173.891 199.582 174.711C199.882 175.518 200.357 175.922 201.008 175.922C202.258 175.922 202.883 174.281 202.883 171C202.883 167.745 202.258 166.117 201.008 166.117C200.357 166.117 199.882 166.521 199.582 167.328C199.296 168.122 199.152 169.346 199.152 171ZM207.805 170.961C207.805 173.956 207.225 176.208 206.066 177.719C204.908 179.216 203.208 179.965 200.969 179.965C198.82 179.965 197.16 179.197 195.988 177.66C194.816 176.111 194.23 173.878 194.23 170.961C194.23 165.01 196.477 162.035 200.969 162.035C203.169 162.035 204.855 162.81 206.027 164.359C207.212 165.896 207.805 168.096 207.805 170.961ZM221.242 162.445L205.402 191H200.715L216.555 162.445H221.242ZM219.152 182.406C219.152 184.06 219.296 185.297 219.582 186.117C219.882 186.924 220.357 187.328 221.008 187.328C222.258 187.328 222.883 185.688 222.883 182.406C222.883 179.151 222.258 177.523 221.008 177.523C220.357 177.523 219.882 177.927 219.582 178.734C219.296 179.529 219.152 180.753 219.152 182.406ZM227.805 182.367C227.805 185.349 227.225 187.595 226.066 189.105C224.908 190.603 223.208 191.352 220.969 191.352C218.82 191.352 217.16 190.583 215.988 189.047C214.816 187.497 214.23 185.271 214.23 182.367C214.23 176.417 216.477 173.441 220.969 173.441C223.169 173.441 224.855 174.216 226.027 175.766C227.212 177.302 227.805 179.503 227.805 182.367Z" fill="black"/>
<path d="M285.434 171.297C285.434 250.116 221.537 314.012 142.717 314.012C63.8966 314.012 0 250.116 0 171.297C0 92.4772 63.8966 28.5815 142.717 28.5815C221.537 28.5815 285.434 92.4772 285.434 171.297ZM47.7152 171.297C47.7152 223.764 90.249 266.297 142.717 266.297C195.185 266.297 237.719 223.764 237.719 171.297C237.719 118.829 195.185 76.296 142.717 76.296C90.249 76.296 47.7152 118.829 47.7152 171.297Z" fill="#0076FF"/>
<path d="M184.491 6.25508C174.626 3.70443 169.973 2.92249 159.887 1.4822L147.558 102.776C152.605 103.496 157.05 105.005 161.692 105.657L184.491 6.25508Z" fill="white"/>
<path d="M174.914 24.4918C170.829 23.4354 169.107 23.2392 166.448 22.9363C165.248 22.7994 163.856 22.6409 161.969 22.3715L154.557 83.2701C156.094 83.4896 157.26 83.7481 158.398 84.0007C159.508 84.2468 160.592 84.4873 161.969 84.6805L174.914 24.4918Z" fill="black"/>
<path d="M174.914 24.4918C170.829 23.4354 169.107 23.2392 166.448 22.9363C165.248 22.7994 163.856 22.6409 161.969 22.3715L154.557 83.2701C156.094 83.4896 157.26 83.7481 158.398 84.0007C159.508 84.2468 160.592 84.4873 161.969 84.6805L174.914 24.4918Z" stroke="#0076FF"/>
</svg>
