<svg width="550" height="466" viewBox="0 0 550 466" fill="none" xmlns="http://www.w3.org/2000/svg">
<line opacity="0.1" x1="23.6631" y1="374.156" x2="538.311" y2="374.156" stroke="#11131B" stroke-dasharray="4 5"/>
<line opacity="0.1" x1="23.6631" y1="326.131" x2="538.311" y2="326.131" stroke="#11131B" stroke-dasharray="4 5"/>
<line opacity="0.1" x1="23.6631" y1="277.2" x2="538.311" y2="277.2" stroke="#11131B" stroke-dasharray="4 5"/>
<line opacity="0.1" x1="23.6631" y1="229.175" x2="538.311" y2="229.175" stroke="#11131B" stroke-dasharray="4 5"/>
<line opacity="0.1" x1="23.6631" y1="180.244" x2="538.311" y2="180.244" stroke="#11131B" stroke-dasharray="4 5"/>
<line opacity="0.1" x1="23.6631" y1="132.219" x2="538.311" y2="132.219" stroke="#11131B" stroke-dasharray="4 5"/>
<path opacity="0.6" d="M22.0107 410.017L34.0548 419.613L46.0989 364.959L57.8811 350.357L69.9252 378.518L81.9692 412.52L94.0133 399.796L105.796 385.819L117.84 375.806L129.884 359.118L141.928 352.443L153.71 327.619L165.754 335.546L177.798 332.834L189.842 349.94L201.624 338.049L213.668 317.189L225.713 322.613L237.757 288.402L249.539 279.849L261.583 280.058L273.627 275.051L285.671 284.021L297.715 282.353L309.497 283.187L321.541 272.131L333.585 250.854L345.63 246.473L357.412 240.006L369.456 233.748L381.5 244.178L393.544 262.535L405.326 242.301L417.37 235.417L429.414 236.669L441.458 222.275L453.241 218.312L465.285 215.391L477.329 259.198L489.373 252.314L501.155 303.004L513.199 253.774L525.243 232.497L537.287 212.471" stroke="#F2F2F5" stroke-width="3" stroke-linecap="round"/>
<path opacity="0.4" d="M22.0664 410.434L34.1105 415.405L46.1545 382.678L57.9368 371.907L69.9808 391.585L82.0249 410.02L94.069 399.042L105.851 391.792L117.895 382.678L129.939 374.186L141.983 365.486L153.766 350.365L165.81 359.893L177.854 357.408L189.898 373.15L201.68 370.664L213.724 360.722L225.768 369.007L237.812 350.365L249.594 349.122L261.639 350.158L273.683 346.844L285.727 352.022L297.771 352.229L309.553 350.987L321.597 348.708L333.641 338.973L345.685 336.28L357.467 335.452L369.511 336.487L381.556 344.151L393.6 349.122L405.382 342.08L417.426 344.773L429.47 343.116L441.514 338.766L453.296 340.009L465.34 338.766L477.384 359.686L489.428 355.544L501.211 377.086L513.255 351.815L525.299 342.287L537.343 326.752" stroke="#F2F2F5" stroke-width="2" stroke-linecap="round"/>
<path d="M21.9717 410.989L34.0157 420.789L46.0598 350.108L57.842 335.305L69.8861 364.286L81.9302 414.117L93.9742 392.433L105.756 368.248L117.801 352.193L129.845 332.595L141.889 326.131L153.671 293.606L165.715 302.571L177.759 299.027L189.803 319.876L201.585 302.154L213.629 277.135L225.673 282.347L237.718 236.895L249.5 226.887L261.544 227.929L273.588 223.759L285.632 233.767L297.676 231.265L309.458 231.474L321.502 217.296L333.546 189.775L345.59 183.103L357.373 173.095L369.417 161.002L381.461 178.307L393.505 203.744L405.287 176.848L417.331 162.461L429.375 165.589L441.419 146.407L453.202 139.11L465.246 135.565L477.29 189.149L489.334 180.809L501.116 248.779L513.16 184.979L525.204 154.956L537.248 131.812" stroke="#F2F2F5" stroke-width="2" stroke-linecap="round" stroke-linejoin="round"/>
<rect x="23" y="411" width="514" height="22" fill="url(#paint0_linear)"/>
<line x1="23.0576" y1="412.5" x2="537.289" y2="412.5" stroke="#0076FF" stroke-width="3" stroke-dasharray="7 5"/>
<path opacity="0.5" d="M44.793 158.996H87.0465" stroke="#AAAAAA" stroke-width="3" stroke-linecap="round" stroke-linejoin="round"/>
<path d="M104.268 159.686C104.268 160.736 104.096 161.678 103.752 162.51C103.408 163.338 102.916 163.98 102.275 164.438C101.635 164.891 100.895 165.117 100.055 165.117C99.0547 165.117 98.2754 164.826 97.7168 164.244C97.1582 163.658 96.8789 162.838 96.8789 161.783C96.8789 160.752 97.0664 159.811 97.4414 158.959C97.8164 158.107 98.3301 157.451 98.9824 156.99C99.6387 156.529 100.377 156.299 101.197 156.299C102.15 156.299 102.9 156.6 103.447 157.201C103.994 157.803 104.268 158.631 104.268 159.686ZM101.121 157.189C100.508 157.189 99.959 157.387 99.4746 157.781C98.9902 158.176 98.6133 158.725 98.3438 159.428C98.0781 160.131 97.9453 160.908 97.9453 161.76C97.9453 162.537 98.1367 163.145 98.5195 163.582C98.9023 164.016 99.4219 164.232 100.078 164.232C100.672 164.232 101.203 164.043 101.672 163.664C102.145 163.281 102.518 162.734 102.791 162.023C103.064 161.312 103.201 160.525 103.201 159.662C103.201 158.885 103.018 158.279 102.65 157.846C102.283 157.408 101.773 157.189 101.121 157.189ZM106.963 164.314C107.178 164.314 107.459 164.264 107.807 164.162V164.918C107.674 164.973 107.51 165.02 107.314 165.059C107.119 165.098 106.963 165.117 106.846 165.117C106.357 165.117 105.982 165.002 105.721 164.771C105.463 164.537 105.334 164.189 105.334 163.729C105.334 163.471 105.369 163.178 105.439 162.85L106.184 159.322H105.176L105.258 158.895L106.342 158.438L107.074 157.102H107.648L107.326 158.578H108.932L108.779 159.322H107.18L106.424 162.861C106.354 163.201 106.318 163.459 106.318 163.635C106.318 163.854 106.375 164.021 106.488 164.139C106.602 164.256 106.76 164.314 106.963 164.314ZM112.811 165L113.678 160.945C113.748 160.578 113.783 160.314 113.783 160.154C113.783 159.576 113.496 159.287 112.922 159.287C112.574 159.287 112.234 159.402 111.902 159.633C111.574 159.863 111.283 160.199 111.029 160.641C110.779 161.078 110.59 161.607 110.461 162.229L109.869 165H108.885L110.818 155.883H111.803C111.732 156.203 111.664 156.514 111.598 156.814C111.535 157.115 111.469 157.422 111.398 157.734C111.332 158.043 111.258 158.367 111.176 158.707C111.098 159.047 111.006 159.416 110.9 159.814H110.965C111.332 159.334 111.693 158.99 112.049 158.783C112.408 158.576 112.783 158.473 113.174 158.473C113.686 158.473 114.08 158.613 114.357 158.895C114.639 159.176 114.779 159.574 114.779 160.09C114.779 160.332 114.734 160.656 114.645 161.062C114.492 161.816 114.209 163.129 113.795 165H112.811ZM118.348 165.117C117.629 165.117 117.064 164.904 116.654 164.479C116.244 164.053 116.039 163.463 116.039 162.709C116.039 161.975 116.184 161.271 116.473 160.6C116.766 159.924 117.152 159.398 117.633 159.023C118.113 158.648 118.643 158.461 119.221 158.461C119.818 158.461 120.268 158.592 120.568 158.854C120.869 159.111 121.02 159.473 121.02 159.938C121.02 160.641 120.695 161.193 120.047 161.596C119.398 161.994 118.471 162.193 117.264 162.193H117.07L117.047 162.662C117.047 163.174 117.166 163.574 117.404 163.863C117.646 164.148 118.02 164.291 118.523 164.291C118.77 164.291 119.021 164.256 119.279 164.186C119.541 164.115 119.865 163.986 120.252 163.799V164.654C119.885 164.826 119.561 164.945 119.279 165.012C118.998 165.082 118.688 165.117 118.348 165.117ZM119.162 159.299C118.76 159.299 118.381 159.482 118.025 159.85C117.674 160.217 117.404 160.727 117.217 161.379H117.287C118.178 161.379 118.859 161.264 119.332 161.033C119.809 160.799 120.047 160.461 120.047 160.02C120.047 159.812 119.975 159.641 119.83 159.504C119.689 159.367 119.467 159.299 119.162 159.299ZM125.789 158.461C126.059 158.461 126.293 158.488 126.492 158.543L126.281 159.422C126.074 159.371 125.869 159.346 125.666 159.346C125.311 159.346 124.977 159.463 124.664 159.697C124.355 159.932 124.084 160.258 123.85 160.676C123.619 161.09 123.449 161.551 123.34 162.059L122.713 165H121.729L123.1 158.578H123.914L123.785 159.768H123.844C124.125 159.396 124.357 159.131 124.541 158.971C124.725 158.807 124.916 158.682 125.115 158.596C125.318 158.506 125.543 158.461 125.789 158.461ZM133.664 158.461C133.934 158.461 134.168 158.488 134.367 158.543L134.156 159.422C133.949 159.371 133.744 159.346 133.541 159.346C133.186 159.346 132.852 159.463 132.539 159.697C132.23 159.932 131.959 160.258 131.725 160.676C131.494 161.09 131.324 161.551 131.215 162.059L130.588 165H129.604L130.975 158.578H131.789L131.66 159.768H131.719C132 159.396 132.232 159.131 132.416 158.971C132.6 158.807 132.791 158.682 132.99 158.596C133.193 158.506 133.418 158.461 133.664 158.461ZM135.346 165H134.361L135.732 158.578H136.717L135.346 165ZM136.008 156.938C136.008 156.719 136.07 156.541 136.195 156.404C136.32 156.264 136.482 156.193 136.682 156.193C137.025 156.193 137.197 156.369 137.197 156.721C137.197 156.936 137.131 157.117 136.998 157.266C136.869 157.414 136.719 157.488 136.547 157.488C136.391 157.488 136.262 157.441 136.16 157.348C136.059 157.25 136.008 157.113 136.008 156.938ZM141.369 163.178C141.369 163.787 141.152 164.264 140.719 164.607C140.289 164.947 139.682 165.117 138.896 165.117C138.236 165.117 137.641 164.982 137.109 164.713V163.787C137.383 163.951 137.678 164.078 137.994 164.168C138.311 164.258 138.604 164.303 138.873 164.303C139.365 164.303 139.736 164.205 139.986 164.01C140.236 163.814 140.361 163.564 140.361 163.26C140.361 163.037 140.293 162.85 140.156 162.697C140.02 162.545 139.725 162.336 139.271 162.07C138.764 161.785 138.404 161.506 138.193 161.232C137.982 160.959 137.877 160.635 137.877 160.26C137.877 159.721 138.074 159.287 138.469 158.959C138.863 158.627 139.383 158.461 140.027 158.461C140.695 158.461 141.34 158.605 141.961 158.895L141.645 159.697L141.316 159.551C140.922 159.383 140.492 159.299 140.027 159.299C139.664 159.299 139.379 159.385 139.172 159.557C138.965 159.725 138.861 159.943 138.861 160.213C138.861 160.432 138.93 160.619 139.066 160.775C139.207 160.932 139.494 161.133 139.928 161.379C140.346 161.613 140.645 161.814 140.824 161.982C141.008 162.15 141.145 162.332 141.234 162.527C141.324 162.719 141.369 162.936 141.369 163.178ZM144.141 161.725L147.223 158.578H148.4L145.652 161.314L147.381 165H146.285L144.908 161.93L144.018 162.65L143.537 165H142.541L144.475 155.883H145.471C145.189 157.195 144.938 158.371 144.715 159.41C144.492 160.449 144.293 161.221 144.117 161.725H144.141ZM154.377 165.117C153.998 165.117 153.666 165.02 153.381 164.824C153.096 164.629 152.875 164.355 152.719 164.004H152.66L152.637 164.227C152.625 164.324 152.604 164.461 152.572 164.637C152.545 164.812 152.322 165.895 151.904 167.883H150.932L152.9 158.578H153.715L153.562 159.803H153.609C154.309 158.916 155.035 158.473 155.789 158.473C156.324 158.473 156.746 158.664 157.055 159.047C157.363 159.426 157.518 159.959 157.518 160.646C157.518 161.475 157.383 162.234 157.113 162.926C156.844 163.617 156.471 164.156 155.994 164.543C155.518 164.926 154.979 165.117 154.377 165.117ZM155.467 159.287C155.092 159.287 154.709 159.473 154.318 159.844C153.932 160.215 153.623 160.682 153.393 161.244C153.166 161.807 153.053 162.383 153.053 162.973C153.053 163.402 153.16 163.732 153.375 163.963C153.594 164.189 153.908 164.303 154.318 164.303C154.705 164.303 155.064 164.145 155.396 163.828C155.732 163.512 156.002 163.062 156.205 162.48C156.408 161.895 156.51 161.273 156.51 160.617C156.51 159.73 156.162 159.287 155.467 159.287ZM162.516 158.461C162.785 158.461 163.02 158.488 163.219 158.543L163.008 159.422C162.801 159.371 162.596 159.346 162.393 159.346C162.037 159.346 161.703 159.463 161.391 159.697C161.082 159.932 160.811 160.258 160.576 160.676C160.346 161.09 160.176 161.551 160.066 162.059L159.439 165H158.455L159.826 158.578H160.641L160.512 159.768H160.57C160.852 159.396 161.084 159.131 161.268 158.971C161.451 158.807 161.643 158.682 161.842 158.596C162.045 158.506 162.27 158.461 162.516 158.461ZM166.635 158.496C167.377 158.496 167.963 158.717 168.393 159.158C168.822 159.596 169.037 160.199 169.037 160.969C169.037 161.703 168.896 162.396 168.615 163.049C168.334 163.701 167.953 164.205 167.473 164.561C166.992 164.916 166.449 165.094 165.844 165.094C165.094 165.094 164.506 164.873 164.08 164.432C163.654 163.99 163.441 163.387 163.441 162.621C163.441 161.879 163.584 161.182 163.869 160.529C164.154 159.873 164.539 159.371 165.023 159.023C165.508 158.672 166.045 158.496 166.635 158.496ZM168.018 160.834C168.018 160.385 167.895 160.021 167.648 159.744C167.406 159.463 167.076 159.322 166.658 159.322C166.232 159.322 165.85 159.467 165.51 159.756C165.174 160.045 164.912 160.447 164.725 160.963C164.541 161.475 164.449 162.045 164.449 162.674C164.449 163.186 164.572 163.582 164.818 163.863C165.068 164.141 165.426 164.279 165.891 164.279C166.297 164.279 166.662 164.137 166.986 163.852C167.311 163.566 167.562 163.162 167.742 162.639C167.926 162.111 168.018 161.51 168.018 160.834ZM168.996 167.883C168.727 167.883 168.482 167.842 168.264 167.76V166.934C168.514 167.02 168.732 167.062 168.92 167.062C169.217 167.062 169.445 166.941 169.605 166.699C169.766 166.457 169.895 166.111 169.992 165.662L171.322 159.322H170.191L170.268 158.93L171.475 158.543L171.609 157.957C171.789 157.176 172.037 156.625 172.354 156.305C172.674 155.98 173.146 155.818 173.771 155.818C173.928 155.818 174.119 155.842 174.346 155.889C174.572 155.932 174.748 155.98 174.873 156.035L174.621 156.791C174.324 156.678 174.057 156.621 173.818 156.621C173.479 156.621 173.217 156.717 173.033 156.908C172.854 157.096 172.707 157.441 172.594 157.945L172.447 158.578H173.842L173.695 159.322H172.307L170.947 165.756C170.795 166.494 170.561 167.033 170.244 167.373C169.928 167.713 169.512 167.883 168.996 167.883ZM174.703 165H173.719L175.09 158.578H176.074L174.703 165ZM175.365 156.938C175.365 156.719 175.428 156.541 175.553 156.404C175.678 156.264 175.84 156.193 176.039 156.193C176.383 156.193 176.555 156.369 176.555 156.721C176.555 156.936 176.488 157.117 176.355 157.266C176.227 157.414 176.076 157.488 175.904 157.488C175.748 157.488 175.619 157.441 175.518 157.348C175.416 157.25 175.365 157.113 175.365 156.938ZM177.756 165H176.771L178.717 155.883H179.701L177.756 165ZM182.367 165.117C181.648 165.117 181.084 164.904 180.674 164.479C180.264 164.053 180.059 163.463 180.059 162.709C180.059 161.975 180.203 161.271 180.492 160.6C180.785 159.924 181.172 159.398 181.652 159.023C182.133 158.648 182.662 158.461 183.24 158.461C183.838 158.461 184.287 158.592 184.588 158.854C184.889 159.111 185.039 159.473 185.039 159.938C185.039 160.641 184.715 161.193 184.066 161.596C183.418 161.994 182.49 162.193 181.283 162.193H181.09L181.066 162.662C181.066 163.174 181.186 163.574 181.424 163.863C181.666 164.148 182.039 164.291 182.543 164.291C182.789 164.291 183.041 164.256 183.299 164.186C183.561 164.115 183.885 163.986 184.271 163.799V164.654C183.904 164.826 183.58 164.945 183.299 165.012C183.018 165.082 182.707 165.117 182.367 165.117ZM183.182 159.299C182.779 159.299 182.4 159.482 182.045 159.85C181.693 160.217 181.424 160.727 181.236 161.379H181.307C182.197 161.379 182.879 161.264 183.352 161.033C183.828 160.799 184.066 160.461 184.066 160.02C184.066 159.812 183.994 159.641 183.85 159.504C183.709 159.367 183.486 159.299 183.182 159.299ZM189.709 163.178C189.709 163.787 189.492 164.264 189.059 164.607C188.629 164.947 188.021 165.117 187.236 165.117C186.576 165.117 185.98 164.982 185.449 164.713V163.787C185.723 163.951 186.018 164.078 186.334 164.168C186.65 164.258 186.943 164.303 187.213 164.303C187.705 164.303 188.076 164.205 188.326 164.01C188.576 163.814 188.701 163.564 188.701 163.26C188.701 163.037 188.633 162.85 188.496 162.697C188.359 162.545 188.064 162.336 187.611 162.07C187.104 161.785 186.744 161.506 186.533 161.232C186.322 160.959 186.217 160.635 186.217 160.26C186.217 159.721 186.414 159.287 186.809 158.959C187.203 158.627 187.723 158.461 188.367 158.461C189.035 158.461 189.68 158.605 190.301 158.895L189.984 159.697L189.656 159.551C189.262 159.383 188.832 159.299 188.367 159.299C188.004 159.299 187.719 159.385 187.512 159.557C187.305 159.725 187.201 159.943 187.201 160.213C187.201 160.432 187.27 160.619 187.406 160.775C187.547 160.932 187.834 161.133 188.268 161.379C188.686 161.613 188.984 161.814 189.164 161.982C189.348 162.15 189.484 162.332 189.574 162.527C189.664 162.719 189.709 162.936 189.709 163.178Z" fill="#313131"/>
<path d="M44.793 139.062H87.0465" stroke="#11131B" stroke-width="3" stroke-linecap="round" stroke-linejoin="round"/>
<path d="M98.2646 143V134.434H100.081V141.5H103.556V143H98.2646ZM106.333 139.713C106.333 140.361 106.438 140.852 106.649 141.184C106.864 141.516 107.212 141.682 107.692 141.682C108.169 141.682 108.511 141.518 108.718 141.189C108.929 140.857 109.034 140.365 109.034 139.713C109.034 139.064 108.929 138.578 108.718 138.254C108.507 137.93 108.161 137.768 107.681 137.768C107.204 137.768 106.86 137.93 106.649 138.254C106.438 138.574 106.333 139.061 106.333 139.713ZM110.862 139.713C110.862 140.779 110.581 141.613 110.019 142.215C109.456 142.816 108.673 143.117 107.669 143.117C107.04 143.117 106.485 142.98 106.005 142.707C105.524 142.43 105.155 142.033 104.897 141.518C104.64 141.002 104.511 140.4 104.511 139.713C104.511 138.643 104.79 137.811 105.349 137.217C105.907 136.623 106.692 136.326 107.704 136.326C108.333 136.326 108.888 136.463 109.368 136.736C109.849 137.01 110.218 137.402 110.476 137.914C110.733 138.426 110.862 139.025 110.862 139.713ZM117.724 143L117.22 140.709L116.54 137.814H116.499L115.304 143H113.382L111.519 136.449H113.3L114.056 139.35C114.177 139.869 114.3 140.586 114.425 141.5H114.46C114.476 141.203 114.544 140.732 114.665 140.088L114.759 139.59L115.567 136.449H117.536L118.304 139.59C118.319 139.676 118.343 139.803 118.374 139.971C118.409 140.139 118.442 140.318 118.474 140.51C118.505 140.697 118.532 140.883 118.556 141.066C118.583 141.246 118.599 141.391 118.603 141.5H118.638C118.673 141.219 118.735 140.834 118.825 140.346C118.915 139.854 118.979 139.521 119.019 139.35L119.804 136.449H121.556L119.669 143H117.724ZM129.39 136.326C129.632 136.326 129.833 136.344 129.993 136.379L129.858 138.055C129.714 138.016 129.538 137.996 129.331 137.996C128.761 137.996 128.315 138.143 127.995 138.436C127.679 138.729 127.521 139.139 127.521 139.666V143H125.733V136.449H127.087L127.351 137.551H127.438C127.642 137.184 127.915 136.889 128.259 136.666C128.606 136.439 128.983 136.326 129.39 136.326ZM131.106 134.756C131.106 134.174 131.431 133.883 132.079 133.883C132.728 133.883 133.052 134.174 133.052 134.756C133.052 135.033 132.97 135.25 132.806 135.406C132.646 135.559 132.403 135.635 132.079 135.635C131.431 135.635 131.106 135.342 131.106 134.756ZM132.97 143H131.183V136.449H132.97V143ZM139.421 141.055C139.421 141.727 139.187 142.238 138.718 142.59C138.253 142.941 137.556 143.117 136.626 143.117C136.149 143.117 135.743 143.084 135.407 143.018C135.071 142.955 134.757 142.861 134.464 142.736V141.26C134.796 141.416 135.169 141.547 135.583 141.652C136.001 141.758 136.368 141.811 136.685 141.811C137.333 141.811 137.657 141.623 137.657 141.248C137.657 141.107 137.614 140.994 137.528 140.908C137.442 140.818 137.294 140.719 137.083 140.609C136.872 140.496 136.591 140.365 136.239 140.217C135.735 140.006 135.364 139.811 135.126 139.631C134.892 139.451 134.72 139.246 134.61 139.016C134.505 138.781 134.452 138.494 134.452 138.154C134.452 137.572 134.677 137.123 135.126 136.807C135.579 136.486 136.22 136.326 137.048 136.326C137.837 136.326 138.604 136.498 139.351 136.842L138.812 138.131C138.483 137.99 138.177 137.875 137.892 137.785C137.606 137.695 137.315 137.65 137.019 137.65C136.491 137.65 136.228 137.793 136.228 138.078C136.228 138.238 136.312 138.377 136.479 138.494C136.651 138.611 137.024 138.785 137.599 139.016C138.11 139.223 138.485 139.416 138.724 139.596C138.962 139.775 139.138 139.982 139.251 140.217C139.364 140.451 139.421 140.73 139.421 141.055ZM142.532 139.438L143.312 138.441L145.146 136.449H147.161L144.56 139.291L147.319 143H145.257L143.37 140.346L142.603 140.961V143H140.815V133.883H142.603V137.949L142.509 139.438H142.532Z" fill="#313131"/>
<path d="M44.793 178.956H87.0465" stroke="#0076FF" stroke-width="3" stroke-linecap="round" stroke-linejoin="round" stroke-dasharray="4 7"/>
<path d="M101.879 176.532C101.199 176.532 100.59 176.722 100.051 177.101C99.5156 177.479 99.0898 178.036 98.7734 178.771C98.4609 179.501 98.3047 180.298 98.3047 181.161C98.3047 181.892 98.4941 182.476 98.873 182.913C99.2559 183.347 99.7812 183.563 100.449 183.563C100.992 183.563 101.621 183.452 102.336 183.229V184.103C102 184.224 101.68 184.312 101.375 184.366C101.07 184.421 100.703 184.448 100.273 184.448C99.3281 184.448 98.5859 184.157 98.0469 183.575C97.5078 182.989 97.2383 182.192 97.2383 181.185C97.2383 180.165 97.4434 179.218 97.8535 178.343C98.2676 177.464 98.8223 176.794 99.5176 176.333C100.213 175.872 101 175.642 101.879 175.642C102.648 175.642 103.328 175.798 103.918 176.11L103.514 176.937C102.975 176.667 102.43 176.532 101.879 176.532ZM107.123 177.792C107.482 177.792 107.803 177.89 108.084 178.085C108.365 178.276 108.584 178.554 108.74 178.917H108.805L109.197 177.909H109.941L108.576 184.331H107.797L107.949 183.106H107.902C107.203 184.001 106.467 184.448 105.693 184.448C105.15 184.448 104.725 184.255 104.416 183.868C104.107 183.481 103.953 182.952 103.953 182.28C103.953 181.468 104.092 180.714 104.369 180.019C104.646 179.323 105.029 178.778 105.518 178.384C106.006 177.989 106.541 177.792 107.123 177.792ZM106.01 183.634C106.389 183.634 106.766 183.454 107.141 183.095C107.516 182.731 107.82 182.261 108.055 181.683C108.289 181.101 108.406 180.519 108.406 179.937C108.406 179.534 108.297 179.214 108.078 178.976C107.859 178.737 107.572 178.618 107.217 178.618C106.811 178.618 106.432 178.786 106.08 179.122C105.732 179.458 105.459 179.913 105.26 180.487C105.061 181.062 104.961 181.667 104.961 182.304C104.961 182.749 105.053 183.083 105.236 183.306C105.42 183.524 105.678 183.634 106.01 183.634ZM114.471 182.509C114.471 183.118 114.254 183.595 113.82 183.938C113.391 184.278 112.783 184.448 111.998 184.448C111.338 184.448 110.742 184.313 110.211 184.044V183.118C110.484 183.282 110.779 183.409 111.096 183.499C111.412 183.589 111.705 183.634 111.975 183.634C112.467 183.634 112.838 183.536 113.088 183.341C113.338 183.146 113.463 182.896 113.463 182.591C113.463 182.368 113.395 182.181 113.258 182.028C113.121 181.876 112.826 181.667 112.373 181.401C111.865 181.116 111.506 180.837 111.295 180.563C111.084 180.29 110.979 179.966 110.979 179.591C110.979 179.052 111.176 178.618 111.57 178.29C111.965 177.958 112.484 177.792 113.129 177.792C113.797 177.792 114.441 177.937 115.062 178.226L114.746 179.028L114.418 178.882C114.023 178.714 113.594 178.63 113.129 178.63C112.766 178.63 112.48 178.716 112.273 178.888C112.066 179.056 111.963 179.274 111.963 179.544C111.963 179.763 112.031 179.95 112.168 180.106C112.309 180.263 112.596 180.464 113.029 180.71C113.447 180.944 113.746 181.146 113.926 181.313C114.109 181.481 114.246 181.663 114.336 181.858C114.426 182.05 114.471 182.267 114.471 182.509ZM119.58 184.331L120.447 180.276C120.518 179.909 120.553 179.646 120.553 179.485C120.553 178.907 120.266 178.618 119.691 178.618C119.344 178.618 119.004 178.733 118.672 178.964C118.344 179.194 118.053 179.53 117.799 179.972C117.549 180.409 117.359 180.938 117.23 181.56L116.639 184.331H115.654L117.588 175.214H118.572C118.502 175.534 118.434 175.845 118.367 176.146C118.305 176.446 118.238 176.753 118.168 177.065C118.102 177.374 118.027 177.698 117.945 178.038C117.867 178.378 117.775 178.747 117.67 179.146H117.734C118.102 178.665 118.463 178.321 118.818 178.114C119.178 177.907 119.553 177.804 119.943 177.804C120.455 177.804 120.85 177.944 121.127 178.226C121.408 178.507 121.549 178.905 121.549 179.421C121.549 179.663 121.504 179.987 121.414 180.394C121.262 181.147 120.979 182.46 120.564 184.331H119.58Z" fill="#313131"/>
<path opacity="0.5" d="M22.0107 412.736L34.0548 422.332L46.0989 367.678L57.8811 353.076L69.9252 381.237L81.9692 415.239L94.0133 402.514L105.796 388.538L117.84 378.525L129.884 361.837L141.928 355.162L153.71 330.338L165.754 338.265L177.798 335.553L189.842 352.658L201.624 340.768L213.668 319.908L225.713 325.332L237.757 291.121L249.539 282.568L261.583 282.777L273.627 277.77L285.671 286.74L297.715 285.071L309.497 285.906L321.541 274.85L333.585 253.572L345.63 249.192L357.412 242.725L369.456 236.467L381.5 246.897L393.544 265.254L405.326 245.02L417.37 238.136L429.414 239.387L441.458 224.994L453.241 221.03L465.285 218.11L477.329 261.916L489.373 255.033L501.155 305.723L513.199 256.493L525.243 235.215L537.287 215.189" stroke="#AAAAAA" stroke-width="2" stroke-miterlimit="6.07152"/>
<path d="M22.0654 412.247L34.1095 417.218L46.1536 384.491L57.9358 373.72L69.9799 393.397L82.0239 411.832L94.068 400.854L105.85 393.605L117.894 384.491L129.938 375.998L141.982 367.299L153.765 352.178L165.809 361.706L177.853 359.22L189.897 374.963L201.679 372.477L213.723 362.534L225.767 370.82L237.811 352.178L249.594 350.935L261.638 351.971L273.682 348.656L285.726 353.835L297.77 354.042L309.552 352.799L321.596 350.521L333.64 340.785L345.684 338.093L357.466 337.264L369.51 338.3L381.555 345.964L393.599 350.935L405.381 343.892L417.425 346.585L429.469 344.928L441.513 340.578L453.295 341.821L465.339 340.578L477.383 361.499L489.427 357.356L501.21 378.898L513.254 353.628L525.298 344.1L537.342 328.564" stroke="#11131B" stroke-width="2.5" stroke-miterlimit="6.07152"/>
<path opacity="0.5" d="M21.9717 412.802L34.0157 422.601L46.0598 351.921L57.842 337.118L69.8861 366.099L81.9302 415.929L93.9742 394.246L105.756 370.06L117.801 354.006L129.845 334.407L141.889 327.944L153.671 295.418L165.715 304.384L177.759 300.839L189.803 321.689L201.585 303.967L213.629 278.947L225.673 284.159L237.718 238.707L249.5 228.699L261.544 229.742L273.588 225.572L285.632 235.58L297.676 233.078L309.458 233.286L321.502 219.109L333.546 191.587L345.59 184.915L357.373 174.907L369.417 162.815L381.461 180.12L393.505 205.556L405.287 178.66L417.331 164.274L429.375 167.401L441.419 148.22L453.202 140.922L465.246 137.378L477.29 190.962L489.334 182.622L501.116 250.592L513.16 186.792L525.204 156.768L537.248 133.625" stroke="#AAAAAA" stroke-width="2" stroke-miterlimit="6.07152"/>
<path d="M370.072 462.053V452.059H371.234V462.053H370.072ZM378.939 462.053V457.206C378.939 456.595 378.8 456.14 378.522 455.839C378.244 455.538 377.808 455.388 377.216 455.388C376.432 455.388 375.858 455.6 375.493 456.023C375.129 456.447 374.946 457.147 374.946 458.122V462.053H373.812V454.561H374.734L374.919 455.586H374.974C375.206 455.217 375.532 454.932 375.951 454.731C376.371 454.526 376.838 454.424 377.353 454.424C378.255 454.424 378.934 454.643 379.39 455.08C379.845 455.513 380.073 456.208 380.073 457.165V462.053H378.939ZM384.052 462.053L381.208 454.561H382.425L384.038 459.004C384.403 460.043 384.617 460.717 384.681 461.027H384.735C384.786 460.786 384.943 460.287 385.207 459.53C385.476 458.769 386.075 457.113 387.005 454.561H388.222L385.378 462.053H384.052ZM392.59 462.189C391.483 462.189 390.608 461.852 389.965 461.178C389.327 460.503 389.008 459.567 389.008 458.368C389.008 457.16 389.304 456.201 389.897 455.49C390.494 454.779 391.293 454.424 392.296 454.424C393.235 454.424 393.978 454.734 394.525 455.354C395.071 455.969 395.345 456.782 395.345 457.794V458.512H390.184C390.206 459.391 390.428 460.059 390.847 460.515C391.271 460.97 391.865 461.198 392.631 461.198C393.438 461.198 394.235 461.03 395.024 460.692V461.704C394.623 461.877 394.242 462 393.882 462.073C393.526 462.151 393.096 462.189 392.59 462.189ZM392.282 455.374C391.681 455.374 391.2 455.57 390.84 455.962C390.484 456.354 390.275 456.896 390.211 457.589H394.128C394.128 456.873 393.969 456.326 393.65 455.948C393.331 455.565 392.875 455.374 392.282 455.374ZM402.119 460.009C402.119 460.706 401.859 461.244 401.34 461.622C400.82 462 400.091 462.189 399.152 462.189C398.159 462.189 397.384 462.032 396.828 461.718V460.665C397.188 460.847 397.573 460.991 397.984 461.096C398.398 461.201 398.797 461.253 399.18 461.253C399.772 461.253 400.228 461.16 400.547 460.973C400.866 460.781 401.025 460.492 401.025 460.104C401.025 459.813 400.898 459.564 400.643 459.359C400.392 459.15 399.9 458.904 399.166 458.621C398.469 458.361 397.972 458.136 397.676 457.944C397.384 457.748 397.165 457.527 397.02 457.281C396.878 457.035 396.808 456.741 396.808 456.399C396.808 455.789 397.056 455.308 397.553 454.957C398.05 454.602 398.731 454.424 399.597 454.424C400.403 454.424 401.192 454.588 401.962 454.916L401.559 455.839C400.807 455.529 400.125 455.374 399.515 455.374C398.977 455.374 398.571 455.458 398.298 455.627C398.025 455.796 397.888 456.028 397.888 456.324C397.888 456.525 397.938 456.696 398.038 456.837C398.143 456.978 398.309 457.113 398.537 457.24C398.765 457.368 399.203 457.552 399.85 457.794C400.738 458.118 401.338 458.443 401.648 458.771C401.962 459.1 402.119 459.512 402.119 460.009ZM406.392 461.253C406.592 461.253 406.786 461.239 406.973 461.212C407.16 461.18 407.308 461.148 407.417 461.116V461.984C407.294 462.044 407.112 462.091 406.87 462.128C406.633 462.169 406.419 462.189 406.228 462.189C404.778 462.189 404.054 461.426 404.054 459.899V455.442H402.981V454.896L404.054 454.424L404.532 452.824H405.189V454.561H407.362V455.442H405.189V459.852C405.189 460.303 405.296 460.649 405.51 460.891C405.724 461.132 406.018 461.253 406.392 461.253ZM418.471 462.053V457.179C418.471 456.582 418.343 456.135 418.088 455.839C417.833 455.538 417.436 455.388 416.899 455.388C416.192 455.388 415.67 455.59 415.333 455.996C414.996 456.402 414.827 457.026 414.827 457.869V462.053H413.692V457.179C413.692 456.582 413.565 456.135 413.31 455.839C413.054 455.538 412.656 455.388 412.113 455.388C411.402 455.388 410.881 455.602 410.548 456.03C410.22 456.454 410.056 457.151 410.056 458.122V462.053H408.921V454.561H409.844L410.028 455.586H410.083C410.297 455.221 410.598 454.937 410.985 454.731C411.377 454.526 411.815 454.424 412.298 454.424C413.469 454.424 414.235 454.848 414.595 455.695H414.65C414.873 455.303 415.196 454.993 415.62 454.766C416.044 454.538 416.527 454.424 417.069 454.424C417.917 454.424 418.551 454.643 418.97 455.08C419.394 455.513 419.606 456.208 419.606 457.165V462.053H418.471ZM425.115 462.189C424.008 462.189 423.133 461.852 422.49 461.178C421.852 460.503 421.533 459.567 421.533 458.368C421.533 457.16 421.83 456.201 422.422 455.49C423.019 454.779 423.819 454.424 424.821 454.424C425.76 454.424 426.503 454.734 427.05 455.354C427.597 455.969 427.87 456.782 427.87 457.794V458.512H422.709C422.732 459.391 422.953 460.059 423.372 460.515C423.796 460.97 424.391 461.198 425.156 461.198C425.963 461.198 426.761 461.03 427.549 460.692V461.704C427.148 461.877 426.767 462 426.407 462.073C426.052 462.151 425.621 462.189 425.115 462.189ZM424.808 455.374C424.206 455.374 423.725 455.57 423.365 455.962C423.01 456.354 422.8 456.896 422.736 457.589H426.653C426.653 456.873 426.494 456.326 426.175 455.948C425.856 455.565 425.4 455.374 424.808 455.374ZM434.939 462.053V457.206C434.939 456.595 434.8 456.14 434.522 455.839C434.244 455.538 433.808 455.388 433.216 455.388C432.432 455.388 431.858 455.6 431.493 456.023C431.129 456.447 430.946 457.147 430.946 458.122V462.053H429.812V454.561H430.734L430.919 455.586H430.974C431.206 455.217 431.532 454.932 431.951 454.731C432.371 454.526 432.838 454.424 433.353 454.424C434.255 454.424 434.934 454.643 435.39 455.08C435.845 455.513 436.073 456.208 436.073 457.165V462.053H434.939ZM440.831 461.253C441.032 461.253 441.225 461.239 441.412 461.212C441.599 461.18 441.747 461.148 441.857 461.116V461.984C441.734 462.044 441.551 462.091 441.31 462.128C441.073 462.169 440.859 462.189 440.667 462.189C439.218 462.189 438.493 461.426 438.493 459.899V455.442H437.42V454.896L438.493 454.424L438.972 452.824H439.628V454.561H441.802V455.442H439.628V459.852C439.628 460.303 439.735 460.649 439.949 460.891C440.164 461.132 440.457 461.253 440.831 461.253ZM450.484 462.189C449.996 462.189 449.549 462.101 449.144 461.923C448.743 461.741 448.405 461.463 448.132 461.089H448.05C448.105 461.526 448.132 461.941 448.132 462.333V465.416H446.997V454.561H447.92L448.077 455.586H448.132C448.424 455.176 448.763 454.88 449.15 454.697C449.538 454.515 449.982 454.424 450.484 454.424C451.477 454.424 452.243 454.763 452.78 455.442C453.323 456.121 453.594 457.074 453.594 458.3C453.594 459.53 453.318 460.487 452.767 461.171C452.22 461.85 451.459 462.189 450.484 462.189ZM450.319 455.388C449.554 455.388 449 455.6 448.658 456.023C448.317 456.447 448.141 457.122 448.132 458.047V458.3C448.132 459.353 448.307 460.107 448.658 460.562C449.009 461.014 449.572 461.239 450.347 461.239C450.994 461.239 451.5 460.977 451.864 460.453C452.234 459.929 452.418 459.207 452.418 458.286C452.418 457.352 452.234 456.636 451.864 456.14C451.5 455.638 450.985 455.388 450.319 455.388ZM458.748 462.189C457.641 462.189 456.766 461.852 456.123 461.178C455.485 460.503 455.166 459.567 455.166 458.368C455.166 457.16 455.462 456.201 456.055 455.49C456.652 454.779 457.452 454.424 458.454 454.424C459.393 454.424 460.136 454.734 460.683 455.354C461.23 455.969 461.503 456.782 461.503 457.794V458.512H456.342C456.365 459.391 456.586 460.059 457.005 460.515C457.429 460.97 458.024 461.198 458.789 461.198C459.596 461.198 460.393 461.03 461.182 460.692V461.704C460.781 461.877 460.4 462 460.04 462.073C459.685 462.151 459.254 462.189 458.748 462.189ZM458.441 455.374C457.839 455.374 457.358 455.57 456.998 455.962C456.643 456.354 456.433 456.896 456.369 457.589H460.286C460.286 456.873 460.127 456.326 459.808 455.948C459.489 455.565 459.033 455.374 458.441 455.374ZM466.862 454.424C467.195 454.424 467.494 454.451 467.758 454.506L467.601 455.559C467.291 455.49 467.017 455.456 466.78 455.456C466.174 455.456 465.655 455.702 465.222 456.194C464.793 456.687 464.579 457.299 464.579 458.033V462.053H463.444V454.561H464.381L464.511 455.948H464.566C464.844 455.461 465.178 455.085 465.57 454.82C465.962 454.556 466.393 454.424 466.862 454.424ZM470.294 462.053H469.159V454.561H470.294V462.053ZM469.064 452.53C469.064 452.271 469.127 452.081 469.255 451.963C469.383 451.84 469.542 451.778 469.734 451.778C469.916 451.778 470.073 451.84 470.205 451.963C470.337 452.086 470.403 452.275 470.403 452.53C470.403 452.785 470.337 452.977 470.205 453.104C470.073 453.228 469.916 453.289 469.734 453.289C469.542 453.289 469.383 453.228 469.255 453.104C469.127 452.977 469.064 452.785 469.064 452.53ZM479.167 458.3C479.167 459.521 478.859 460.476 478.244 461.164C477.629 461.848 476.779 462.189 475.694 462.189C475.025 462.189 474.43 462.032 473.91 461.718C473.391 461.403 472.99 460.952 472.707 460.364C472.425 459.776 472.283 459.088 472.283 458.3C472.283 457.078 472.589 456.128 473.199 455.449C473.81 454.766 474.658 454.424 475.742 454.424C476.79 454.424 477.622 454.772 478.237 455.47C478.857 456.167 479.167 457.11 479.167 458.3ZM473.459 458.3C473.459 459.257 473.65 459.986 474.033 460.487C474.416 460.989 474.979 461.239 475.722 461.239C476.465 461.239 477.027 460.991 477.41 460.494C477.798 459.993 477.991 459.261 477.991 458.3C477.991 457.347 477.798 456.625 477.41 456.133C477.027 455.636 476.46 455.388 475.708 455.388C474.965 455.388 474.405 455.632 474.026 456.119C473.648 456.607 473.459 457.334 473.459 458.3ZM486.263 461.048H486.201C485.677 461.809 484.893 462.189 483.85 462.189C482.87 462.189 482.107 461.854 481.56 461.185C481.017 460.515 480.746 459.562 480.746 458.327C480.746 457.092 481.02 456.133 481.567 455.449C482.113 454.766 482.874 454.424 483.85 454.424C484.866 454.424 485.645 454.793 486.188 455.531H486.276L486.229 454.991L486.201 454.465V451.416H487.336V462.053H486.413L486.263 461.048ZM483.993 461.239C484.768 461.239 485.329 461.03 485.675 460.61C486.026 460.187 486.201 459.505 486.201 458.566V458.327C486.201 457.265 486.024 456.509 485.668 456.058C485.317 455.602 484.754 455.374 483.98 455.374C483.314 455.374 482.804 455.634 482.448 456.153C482.097 456.668 481.922 457.397 481.922 458.341C481.922 459.298 482.097 460.02 482.448 460.508C482.799 460.995 483.314 461.239 483.993 461.239ZM492.743 458.218C492.743 457.01 492.919 455.88 493.27 454.827C493.625 453.774 494.136 452.852 494.801 452.059H495.908C495.252 452.938 494.758 453.904 494.425 454.957C494.097 456.01 493.933 457.092 493.933 458.204C493.933 459.298 494.101 460.367 494.439 461.41C494.776 462.454 495.261 463.406 495.895 464.268H494.801C494.131 463.493 493.621 462.588 493.27 461.554C492.919 460.519 492.743 459.407 492.743 458.218ZM500.242 457.056L502.908 452.059H504.166L500.83 458.177V462.053H499.654V458.231L496.325 452.059H497.597L500.242 457.056ZM508.541 462.189C507.434 462.189 506.559 461.852 505.916 461.178C505.278 460.503 504.959 459.567 504.959 458.368C504.959 457.16 505.255 456.201 505.848 455.49C506.445 454.779 507.245 454.424 508.247 454.424C509.186 454.424 509.929 454.734 510.476 455.354C511.023 455.969 511.296 456.782 511.296 457.794V458.512H506.135C506.158 459.391 506.379 460.059 506.798 460.515C507.222 460.97 507.817 461.198 508.582 461.198C509.389 461.198 510.186 461.03 510.975 460.692V461.704C510.574 461.877 510.193 462 509.833 462.073C509.478 462.151 509.047 462.189 508.541 462.189ZM508.234 455.374C507.632 455.374 507.151 455.57 506.791 455.962C506.436 456.354 506.226 456.896 506.162 457.589H510.079C510.079 456.873 509.92 456.326 509.601 455.948C509.282 455.565 508.826 455.374 508.234 455.374ZM517.845 462.053L517.619 460.986H517.565C517.191 461.456 516.817 461.775 516.443 461.943C516.074 462.107 515.612 462.189 515.056 462.189C514.313 462.189 513.73 461.998 513.306 461.615C512.887 461.232 512.677 460.688 512.677 459.981C512.677 458.468 513.887 457.675 516.307 457.603L517.578 457.562V457.097C517.578 456.509 517.451 456.076 517.195 455.798C516.945 455.515 516.541 455.374 515.985 455.374C515.361 455.374 514.655 455.565 513.866 455.948L513.518 455.08C513.887 454.88 514.29 454.722 514.728 454.608C515.17 454.494 515.612 454.438 516.054 454.438C516.947 454.438 517.608 454.636 518.036 455.032C518.469 455.429 518.686 456.064 518.686 456.939V462.053H517.845ZM515.281 461.253C515.988 461.253 516.541 461.059 516.942 460.672C517.348 460.285 517.551 459.742 517.551 459.045V458.368L516.416 458.416C515.514 458.448 514.862 458.589 514.461 458.84C514.065 459.086 513.866 459.471 513.866 459.995C513.866 460.405 513.989 460.717 514.235 460.932C514.486 461.146 514.835 461.253 515.281 461.253ZM524.448 454.424C524.781 454.424 525.08 454.451 525.344 454.506L525.187 455.559C524.877 455.49 524.603 455.456 524.366 455.456C523.76 455.456 523.241 455.702 522.808 456.194C522.379 456.687 522.165 457.299 522.165 458.033V462.053H521.03V454.561H521.967L522.097 455.948H522.151C522.429 455.461 522.764 455.085 523.156 454.82C523.548 454.556 523.979 454.424 524.448 454.424ZM531.578 460.009C531.578 460.706 531.318 461.244 530.799 461.622C530.279 462 529.55 462.189 528.611 462.189C527.618 462.189 526.843 462.032 526.287 461.718V460.665C526.647 460.847 527.032 460.991 527.442 461.096C527.857 461.201 528.256 461.253 528.639 461.253C529.231 461.253 529.687 461.16 530.006 460.973C530.325 460.781 530.484 460.492 530.484 460.104C530.484 459.813 530.357 459.564 530.102 459.359C529.851 459.15 529.359 458.904 528.625 458.621C527.928 458.361 527.431 458.136 527.135 457.944C526.843 457.748 526.624 457.527 526.479 457.281C526.337 457.035 526.267 456.741 526.267 456.399C526.267 455.789 526.515 455.308 527.012 454.957C527.509 454.602 528.19 454.424 529.056 454.424C529.862 454.424 530.651 454.588 531.421 454.916L531.018 455.839C530.266 455.529 529.584 455.374 528.974 455.374C528.436 455.374 528.03 455.458 527.757 455.627C527.484 455.796 527.347 456.028 527.347 456.324C527.347 456.525 527.397 456.696 527.497 456.837C527.602 456.978 527.768 457.113 527.996 457.24C528.224 457.368 528.662 457.552 529.309 457.794C530.197 458.118 530.797 458.443 531.107 458.771C531.421 459.1 531.578 459.512 531.578 460.009ZM535.81 458.218C535.81 459.416 535.632 460.533 535.276 461.567C534.926 462.602 534.417 463.502 533.752 464.268H532.658C533.292 463.411 533.777 462.461 534.114 461.417C534.452 460.369 534.62 459.298 534.62 458.204C534.62 457.092 534.454 456.01 534.121 454.957C533.793 453.904 533.301 452.938 532.645 452.059H533.752C534.422 452.856 534.932 453.784 535.283 454.841C535.634 455.894 535.81 457.019 535.81 458.218Z" fill="#545454"/>
<path d="M9.84375 190.63L14 190.63L14 191.792L4.00586 191.792L4.00586 189.051C4.00586 187.825 4.24056 186.92 4.70996 186.337C5.17936 185.749 5.88574 185.455 6.8291 185.455C8.15072 185.455 9.04394 186.125 9.50879 187.465L14 184.751L14 186.125L9.84375 188.545L9.84375 190.63ZM8.8457 190.63L8.8457 189.037C8.8457 188.217 8.68392 187.615 8.36035 187.232C8.03223 186.849 7.54232 186.658 6.89062 186.658C6.22982 186.658 5.75358 186.854 5.46191 187.246C5.17025 187.633 5.02441 188.258 5.02441 189.119L5.02441 190.63L8.8457 190.63ZM14.1367 180.143C14.1367 181.251 13.7995 182.126 13.125 182.768C12.4505 183.406 11.514 183.725 10.3154 183.725C9.10775 183.725 8.14844 183.429 7.4375 182.837C6.72656 182.24 6.37109 181.44 6.37109 180.437C6.37109 179.499 6.68099 178.756 7.30078 178.209C7.91601 177.662 8.72949 177.389 9.74121 177.389L10.459 177.389L10.459 182.55C11.3385 182.527 12.0062 182.306 12.4619 181.887C12.9176 181.463 13.1455 180.868 13.1455 180.102C13.1455 179.296 12.9769 178.498 12.6396 177.71L13.6514 177.71C13.8245 178.111 13.9476 178.491 14.0205 178.851C14.098 179.207 14.1367 179.638 14.1367 180.143ZM7.32129 180.451C7.32129 181.053 7.51725 181.533 7.90918 181.893C8.30111 182.249 8.84342 182.458 9.53613 182.522L9.53613 178.605C8.82064 178.605 8.27376 178.765 7.89551 179.084C7.51269 179.403 7.32129 179.859 7.32129 180.451ZM13.2002 173.027C13.2002 172.827 13.1865 172.633 13.1592 172.446C13.1273 172.259 13.0954 172.111 13.0635 172.002L13.9316 172.002C13.9909 172.125 14.0387 172.307 14.0752 172.549C14.1162 172.786 14.1367 173 14.1367 173.191C14.1367 174.64 13.3734 175.365 11.8467 175.365L7.38965 175.365L7.38965 176.438L6.84277 176.438L6.37109 175.365L4.77148 174.887L4.77148 174.23L6.50781 174.23L6.50781 172.056L7.38965 172.056L7.38965 174.23L11.7988 174.23C12.25 174.23 12.5964 174.123 12.8379 173.909C13.0794 173.695 13.2002 173.401 13.2002 173.027ZM6.50781 169.431L11.3682 169.431C11.9788 169.431 12.4346 169.292 12.7354 169.014C13.0361 168.736 13.1865 168.301 13.1865 167.709C13.1865 166.925 12.9723 166.353 12.5439 165.993C12.1156 165.628 11.416 165.446 10.4453 165.446L6.50781 165.446L6.50781 164.311L14 164.311L14 165.248L12.9951 165.412L12.9951 165.473C13.3643 165.706 13.6468 166.029 13.8428 166.444C14.0387 166.854 14.1367 167.324 14.1367 167.852C14.1367 168.764 13.9202 169.447 13.4873 169.903C13.0544 170.354 12.3617 170.58 11.4092 170.58L6.50781 170.58L6.50781 169.431ZM6.37109 158.48C6.37109 158.148 6.39844 157.849 6.45312 157.585L7.50586 157.742C7.4375 158.052 7.40332 158.325 7.40332 158.562C7.40332 159.168 7.64941 159.688 8.1416 160.121C8.63379 160.549 9.24674 160.764 9.98047 160.764L14 160.764L14 161.898L6.50781 161.898L6.50781 160.962L7.89551 160.832L7.89551 160.777C7.40788 160.499 7.0319 160.164 6.76758 159.772C6.50325 159.38 6.37109 158.95 6.37109 158.48ZM14 151.056L9.15332 151.056C8.54264 151.056 8.08691 151.195 7.78613 151.473C7.48535 151.751 7.33496 152.187 7.33496 152.779C7.33496 153.563 7.54687 154.137 7.9707 154.502C8.39453 154.866 9.09407 155.049 10.0693 155.049L14 155.049L14 156.183L6.50781 156.183L6.50781 155.261L7.5332 155.076L7.5332 155.021C7.16406 154.789 6.87923 154.463 6.67871 154.044C6.47363 153.625 6.37109 153.157 6.37109 152.642C6.37109 151.74 6.58984 151.061 7.02734 150.605C7.46028 150.15 8.15527 149.922 9.1123 149.922L14 149.922L14 151.056ZM6.98633 143.496C7.76107 143.496 8.34212 143.412 8.72949 143.243C9.11686 143.074 9.31054 142.801 9.31054 142.423C9.31054 141.675 8.5358 141.302 6.98633 141.302C5.44596 141.302 4.67578 141.675 4.67578 142.423C4.67578 142.801 4.86718 143.074 5.25 143.243C5.63281 143.412 6.21159 143.496 6.98633 143.496ZM6.98633 140.365C8.02539 140.365 8.81152 140.541 9.34472 140.891C9.87337 141.238 10.1377 141.748 10.1377 142.423C10.1377 143.061 9.86653 143.557 9.32422 143.913C8.7819 144.264 8.0026 144.439 6.98633 144.439C5.95182 144.439 5.17252 144.271 4.64843 143.933C4.12435 143.592 3.8623 143.088 3.8623 142.423C3.8623 141.762 4.13346 141.254 4.67578 140.898C5.2181 140.543 5.98828 140.365 6.98633 140.365ZM10.9922 137.48C11.7715 137.48 12.3548 137.396 12.7422 137.227C13.125 137.059 13.3164 136.783 13.3164 136.4C13.3164 136.017 13.1273 135.735 12.749 135.553C12.3662 135.37 11.7806 135.279 10.9922 135.279C10.2129 135.279 9.63639 135.37 9.26269 135.553C8.88444 135.735 8.69531 136.017 8.69531 136.4C8.69531 136.783 8.88444 137.059 9.26269 137.227C9.63639 137.396 10.2129 137.48 10.9922 137.48ZM10.9922 134.343C12.0267 134.343 12.8105 134.518 13.3437 134.869C13.8724 135.215 14.1367 135.726 14.1367 136.4C14.1367 137.047 13.8656 137.546 13.3232 137.897C12.7809 138.244 12.0039 138.417 10.9922 138.417C9.95768 138.417 9.17838 138.248 8.65429 137.911C8.13021 137.569 7.86816 137.066 7.86816 136.4C7.86816 135.753 8.13704 135.25 8.6748 134.889C9.208 134.525 9.98047 134.343 10.9922 134.343ZM4.00586 136.106L14 141.65L14 142.655L4.00586 137.111L4.00586 136.106Z" fill="#545454"/>
<path d="M22.8154 433.555V437.179M513.801 433.555V437.179V433.555ZM478.553 433.555V437.179V433.555ZM443.56 433.555V437.179V433.555ZM408.546 433.555V437.179V433.555ZM373.297 433.555V437.179V433.555ZM338.305 433.555V437.179V433.555ZM303.354 433.555V437.179V433.555ZM268.34 433.555V437.179V433.555ZM233.028 433.555V437.179V433.555ZM198.035 433.555V437.179V433.555ZM163.042 433.555V437.179V433.555ZM128.05 433.555V437.179V433.555ZM92.801 433.555V437.179V433.555ZM57.8082 433.555V437.179V433.555Z" stroke="#AAAAAA" stroke-width="2" stroke-linecap="round" stroke-linejoin="round"/>
<path d="M22.7988 133.356V433.461H536.752" stroke="#AAAAAA" stroke-width="2"/>
<defs>
<linearGradient id="paint0_linear" x1="280" y1="384.387" x2="280" y2="433" gradientUnits="userSpaceOnUse">
<stop stop-color="#0076FF" stop-opacity="0.75"/>
<stop offset="1" stop-color="#F2F2F5"/>
</linearGradient>
</defs>
</svg>
