<svg width="539" height="336" viewBox="0 0 539 336" fill="none" xmlns="http://www.w3.org/2000/svg">
<line opacity="0.1" x1="23.6631" y1="244.156" x2="538.311" y2="244.156" stroke="#11131B" stroke-dasharray="4 5"/>
<line opacity="0.1" x1="23.6631" y1="196.131" x2="538.311" y2="196.131" stroke="#11131B" stroke-dasharray="4 5"/>
<line opacity="0.1" x1="23.6631" y1="147.2" x2="538.311" y2="147.2" stroke="#11131B" stroke-dasharray="4 5"/>
<line opacity="0.1" x1="23.6631" y1="99.1748" x2="538.311" y2="99.1748" stroke="#11131B" stroke-dasharray="4 5"/>
<line opacity="0.1" x1="23.6631" y1="50.2441" x2="538.311" y2="50.2441" stroke="#11131B" stroke-dasharray="4 5"/>
<line opacity="0.1" x1="23.6631" y1="2.21875" x2="538.311" y2="2.21875" stroke="#11131B" stroke-dasharray="4 5"/>
<path opacity="0.6" d="M22.0107 280.017L34.0548 289.613L46.0989 234.959L57.8811 220.357L69.9252 248.518L81.9692 282.52L94.0133 269.796L105.796 255.819L117.84 245.806L129.884 229.118L141.928 222.443L153.71 197.619L165.754 205.546L177.798 202.834L189.842 219.94L201.624 208.049L213.668 187.189L225.713 192.613L237.757 158.402L249.539 149.849L261.583 150.058L273.627 145.051L285.671 154.021L297.715 152.353L309.497 153.187L321.541 142.131L333.585 120.854L345.63 116.473L357.412 110.006L369.456 103.748L381.5 114.178L393.544 132.535L405.326 112.301L417.37 105.417L429.414 106.669L441.458 92.275L453.241 88.3116L465.285 85.3911L477.329 129.198L489.373 122.314L501.155 173.004L513.199 123.774L525.243 102.497L537.287 82.4707" stroke="#F2F2F5" stroke-width="3" stroke-linecap="round"/>
<path opacity="0.4" d="M22.0664 280.434L34.1105 285.405L46.1545 252.678L57.9368 241.907L69.9808 261.585L82.0249 280.02L94.069 269.042L105.851 261.792L117.895 252.678L129.939 244.186L141.983 235.486L153.766 220.365L165.81 229.893L177.854 227.408L189.898 243.15L201.68 240.664L213.724 230.722L225.768 239.007L237.812 220.365L249.594 219.122L261.639 220.158L273.683 216.844L285.727 222.022L297.771 222.229L309.553 220.987L321.597 218.708L333.641 208.973L345.685 206.28L357.467 205.452L369.511 206.487L381.556 214.151L393.6 219.122L405.382 212.08L417.426 214.773L429.47 213.116L441.514 208.766L453.296 210.009L465.34 208.766L477.384 229.686L489.428 225.544L501.211 247.086L513.255 221.815L525.299 212.287L537.343 196.752" stroke="#F2F2F5" stroke-width="2" stroke-linecap="round"/>
<path d="M21.9717 280.989L34.0157 290.789L46.0598 220.108L57.842 205.305L69.8861 234.286L81.9302 284.117L93.9742 262.433L105.756 238.248L117.801 222.193L129.845 202.595L141.889 196.131L153.671 163.606L165.715 172.571L177.759 169.027L189.803 189.876L201.585 172.154L213.629 147.135L225.673 152.347L237.718 106.895L249.5 96.8869L261.544 97.9294L273.588 93.7595L285.632 103.767L297.676 101.265L309.458 101.474L321.502 87.2961L333.546 59.7745L345.59 53.1026L357.373 43.0948L369.417 31.002L381.461 48.3072L393.505 73.7438L405.287 46.8477L417.331 32.4615L429.375 35.5889L441.419 16.4073L453.202 9.10988L465.246 5.56544L477.29 59.149L489.334 50.8092L501.116 118.779L513.16 54.9791L525.204 24.9556L537.248 1.8125" stroke="#F2F2F5" stroke-width="2" stroke-linecap="round" stroke-linejoin="round"/>
<rect x="23" y="281" width="514" height="22" fill="url(#paint0_linear)"/>
<line x1="23.0576" y1="282.5" x2="537.289" y2="282.5" stroke="#0076FF" stroke-width="3" stroke-dasharray="7 5"/>
<path opacity="0.5" d="M44.793 28.9961H87.0465" stroke="#AAAAAA" stroke-width="3" stroke-linecap="round" stroke-linejoin="round"/>
<path d="M104.268 29.6855C104.268 30.7363 104.096 31.6777 103.752 32.5098C103.408 33.3379 102.916 33.9805 102.275 34.4375C101.635 34.8906 100.895 35.1172 100.055 35.1172C99.0547 35.1172 98.2754 34.8262 97.7168 34.2441C97.1582 33.6582 96.8789 32.8379 96.8789 31.7832C96.8789 30.752 97.0664 29.8105 97.4414 28.959C97.8164 28.1074 98.3301 27.4512 98.9824 26.9902C99.6387 26.5293 100.377 26.2988 101.197 26.2988C102.15 26.2988 102.9 26.5996 103.447 27.2012C103.994 27.8027 104.268 28.6309 104.268 29.6855ZM101.121 27.1895C100.508 27.1895 99.959 27.3867 99.4746 27.7812C98.9902 28.1758 98.6133 28.7246 98.3438 29.4277C98.0781 30.1309 97.9453 30.9082 97.9453 31.7598C97.9453 32.5371 98.1367 33.1445 98.5195 33.582C98.9023 34.0156 99.4219 34.2324 100.078 34.2324C100.672 34.2324 101.203 34.043 101.672 33.6641C102.145 33.2812 102.518 32.7344 102.791 32.0234C103.064 31.3125 103.201 30.5254 103.201 29.6621C103.201 28.8848 103.018 28.2793 102.65 27.8457C102.283 27.4082 101.773 27.1895 101.121 27.1895ZM106.963 34.3145C107.178 34.3145 107.459 34.2637 107.807 34.1621V34.918C107.674 34.9727 107.51 35.0195 107.314 35.0586C107.119 35.0977 106.963 35.1172 106.846 35.1172C106.357 35.1172 105.982 35.002 105.721 34.7715C105.463 34.5371 105.334 34.1895 105.334 33.7285C105.334 33.4707 105.369 33.1777 105.439 32.8496L106.184 29.3223H105.176L105.258 28.8945L106.342 28.4375L107.074 27.1016H107.648L107.326 28.5781H108.932L108.779 29.3223H107.18L106.424 32.8613C106.354 33.2012 106.318 33.459 106.318 33.6348C106.318 33.8535 106.375 34.0215 106.488 34.1387C106.602 34.2559 106.76 34.3145 106.963 34.3145ZM112.811 35L113.678 30.9453C113.748 30.5781 113.783 30.3145 113.783 30.1543C113.783 29.5762 113.496 29.2871 112.922 29.2871C112.574 29.2871 112.234 29.4023 111.902 29.6328C111.574 29.8633 111.283 30.1992 111.029 30.6406C110.779 31.0781 110.59 31.6074 110.461 32.2285L109.869 35H108.885L110.818 25.8828H111.803C111.732 26.2031 111.664 26.5137 111.598 26.8145C111.535 27.1152 111.469 27.4219 111.398 27.7344C111.332 28.043 111.258 28.3672 111.176 28.707C111.098 29.0469 111.006 29.416 110.9 29.8145H110.965C111.332 29.334 111.693 28.9902 112.049 28.7832C112.408 28.5762 112.783 28.4727 113.174 28.4727C113.686 28.4727 114.08 28.6133 114.357 28.8945C114.639 29.1758 114.779 29.5742 114.779 30.0898C114.779 30.332 114.734 30.6562 114.645 31.0625C114.492 31.8164 114.209 33.1289 113.795 35H112.811ZM118.348 35.1172C117.629 35.1172 117.064 34.9043 116.654 34.4785C116.244 34.0527 116.039 33.4629 116.039 32.709C116.039 31.9746 116.184 31.2715 116.473 30.5996C116.766 29.9238 117.152 29.3984 117.633 29.0234C118.113 28.6484 118.643 28.4609 119.221 28.4609C119.818 28.4609 120.268 28.5918 120.568 28.8535C120.869 29.1113 121.02 29.4727 121.02 29.9375C121.02 30.6406 120.695 31.1934 120.047 31.5957C119.398 31.9941 118.471 32.1934 117.264 32.1934H117.07L117.047 32.6621C117.047 33.1738 117.166 33.5742 117.404 33.8633C117.646 34.1484 118.02 34.291 118.523 34.291C118.77 34.291 119.021 34.2559 119.279 34.1855C119.541 34.1152 119.865 33.9863 120.252 33.7988V34.6543C119.885 34.8262 119.561 34.9453 119.279 35.0117C118.998 35.082 118.688 35.1172 118.348 35.1172ZM119.162 29.2988C118.76 29.2988 118.381 29.4824 118.025 29.8496C117.674 30.2168 117.404 30.7266 117.217 31.3789H117.287C118.178 31.3789 118.859 31.2637 119.332 31.0332C119.809 30.7988 120.047 30.4609 120.047 30.0195C120.047 29.8125 119.975 29.6406 119.83 29.5039C119.689 29.3672 119.467 29.2988 119.162 29.2988ZM125.789 28.4609C126.059 28.4609 126.293 28.4883 126.492 28.543L126.281 29.4219C126.074 29.3711 125.869 29.3457 125.666 29.3457C125.311 29.3457 124.977 29.4629 124.664 29.6973C124.355 29.9316 124.084 30.2578 123.85 30.6758C123.619 31.0898 123.449 31.5508 123.34 32.0586L122.713 35H121.729L123.1 28.5781H123.914L123.785 29.7676H123.844C124.125 29.3965 124.357 29.1309 124.541 28.9707C124.725 28.8066 124.916 28.6816 125.115 28.5957C125.318 28.5059 125.543 28.4609 125.789 28.4609ZM133.664 28.4609C133.934 28.4609 134.168 28.4883 134.367 28.543L134.156 29.4219C133.949 29.3711 133.744 29.3457 133.541 29.3457C133.186 29.3457 132.852 29.4629 132.539 29.6973C132.23 29.9316 131.959 30.2578 131.725 30.6758C131.494 31.0898 131.324 31.5508 131.215 32.0586L130.588 35H129.604L130.975 28.5781H131.789L131.66 29.7676H131.719C132 29.3965 132.232 29.1309 132.416 28.9707C132.6 28.8066 132.791 28.6816 132.99 28.5957C133.193 28.5059 133.418 28.4609 133.664 28.4609ZM135.346 35H134.361L135.732 28.5781H136.717L135.346 35ZM136.008 26.9375C136.008 26.7188 136.07 26.541 136.195 26.4043C136.32 26.2637 136.482 26.1934 136.682 26.1934C137.025 26.1934 137.197 26.3691 137.197 26.7207C137.197 26.9355 137.131 27.1172 136.998 27.2656C136.869 27.4141 136.719 27.4883 136.547 27.4883C136.391 27.4883 136.262 27.4414 136.16 27.3477C136.059 27.25 136.008 27.1133 136.008 26.9375ZM141.369 33.1777C141.369 33.7871 141.152 34.2637 140.719 34.6074C140.289 34.9473 139.682 35.1172 138.896 35.1172C138.236 35.1172 137.641 34.9824 137.109 34.7129V33.7871C137.383 33.9512 137.678 34.0781 137.994 34.168C138.311 34.2578 138.604 34.3027 138.873 34.3027C139.365 34.3027 139.736 34.2051 139.986 34.0098C140.236 33.8145 140.361 33.5645 140.361 33.2598C140.361 33.0371 140.293 32.8496 140.156 32.6973C140.02 32.5449 139.725 32.3359 139.271 32.0703C138.764 31.7852 138.404 31.5059 138.193 31.2324C137.982 30.959 137.877 30.6348 137.877 30.2598C137.877 29.7207 138.074 29.2871 138.469 28.959C138.863 28.627 139.383 28.4609 140.027 28.4609C140.695 28.4609 141.34 28.6055 141.961 28.8945L141.645 29.6973L141.316 29.5508C140.922 29.3828 140.492 29.2988 140.027 29.2988C139.664 29.2988 139.379 29.3848 139.172 29.5566C138.965 29.7246 138.861 29.9434 138.861 30.2129C138.861 30.4316 138.93 30.6191 139.066 30.7754C139.207 30.9316 139.494 31.1328 139.928 31.3789C140.346 31.6133 140.645 31.8145 140.824 31.9824C141.008 32.1504 141.145 32.332 141.234 32.5273C141.324 32.7188 141.369 32.9355 141.369 33.1777ZM144.141 31.7246L147.223 28.5781H148.4L145.652 31.3145L147.381 35H146.285L144.908 31.9297L144.018 32.6504L143.537 35H142.541L144.475 25.8828H145.471C145.189 27.1953 144.938 28.3711 144.715 29.4102C144.492 30.4492 144.293 31.2207 144.117 31.7246H144.141ZM154.377 35.1172C153.998 35.1172 153.666 35.0195 153.381 34.8242C153.096 34.6289 152.875 34.3555 152.719 34.0039H152.66L152.637 34.2266C152.625 34.3242 152.604 34.4609 152.572 34.6367C152.545 34.8125 152.322 35.8945 151.904 37.8828H150.932L152.9 28.5781H153.715L153.562 29.8027H153.609C154.309 28.916 155.035 28.4727 155.789 28.4727C156.324 28.4727 156.746 28.6641 157.055 29.0469C157.363 29.4258 157.518 29.959 157.518 30.6465C157.518 31.4746 157.383 32.2344 157.113 32.9258C156.844 33.6172 156.471 34.1562 155.994 34.543C155.518 34.9258 154.979 35.1172 154.377 35.1172ZM155.467 29.2871C155.092 29.2871 154.709 29.4727 154.318 29.8438C153.932 30.2148 153.623 30.6816 153.393 31.2441C153.166 31.8066 153.053 32.3828 153.053 32.9727C153.053 33.4023 153.16 33.7324 153.375 33.9629C153.594 34.1895 153.908 34.3027 154.318 34.3027C154.705 34.3027 155.064 34.1445 155.396 33.8281C155.732 33.5117 156.002 33.0625 156.205 32.4805C156.408 31.8945 156.51 31.2734 156.51 30.6172C156.51 29.7305 156.162 29.2871 155.467 29.2871ZM162.516 28.4609C162.785 28.4609 163.02 28.4883 163.219 28.543L163.008 29.4219C162.801 29.3711 162.596 29.3457 162.393 29.3457C162.037 29.3457 161.703 29.4629 161.391 29.6973C161.082 29.9316 160.811 30.2578 160.576 30.6758C160.346 31.0898 160.176 31.5508 160.066 32.0586L159.439 35H158.455L159.826 28.5781H160.641L160.512 29.7676H160.57C160.852 29.3965 161.084 29.1309 161.268 28.9707C161.451 28.8066 161.643 28.6816 161.842 28.5957C162.045 28.5059 162.27 28.4609 162.516 28.4609ZM166.635 28.4961C167.377 28.4961 167.963 28.7168 168.393 29.1582C168.822 29.5957 169.037 30.1992 169.037 30.9688C169.037 31.7031 168.896 32.3965 168.615 33.0488C168.334 33.7012 167.953 34.2051 167.473 34.5605C166.992 34.916 166.449 35.0938 165.844 35.0938C165.094 35.0938 164.506 34.873 164.08 34.4316C163.654 33.9902 163.441 33.3867 163.441 32.6211C163.441 31.8789 163.584 31.1816 163.869 30.5293C164.154 29.873 164.539 29.3711 165.023 29.0234C165.508 28.6719 166.045 28.4961 166.635 28.4961ZM168.018 30.834C168.018 30.3848 167.895 30.0215 167.648 29.7441C167.406 29.4629 167.076 29.3223 166.658 29.3223C166.232 29.3223 165.85 29.4668 165.51 29.7559C165.174 30.0449 164.912 30.4473 164.725 30.9629C164.541 31.4746 164.449 32.0449 164.449 32.6738C164.449 33.1855 164.572 33.582 164.818 33.8633C165.068 34.1406 165.426 34.2793 165.891 34.2793C166.297 34.2793 166.662 34.1367 166.986 33.8516C167.311 33.5664 167.562 33.1621 167.742 32.6387C167.926 32.1113 168.018 31.5098 168.018 30.834ZM168.996 37.8828C168.727 37.8828 168.482 37.8418 168.264 37.7598V36.9336C168.514 37.0195 168.732 37.0625 168.92 37.0625C169.217 37.0625 169.445 36.9414 169.605 36.6992C169.766 36.457 169.895 36.1113 169.992 35.6621L171.322 29.3223H170.191L170.268 28.9297L171.475 28.543L171.609 27.957C171.789 27.1758 172.037 26.625 172.354 26.3047C172.674 25.9805 173.146 25.8184 173.771 25.8184C173.928 25.8184 174.119 25.8418 174.346 25.8887C174.572 25.9316 174.748 25.9805 174.873 26.0352L174.621 26.791C174.324 26.6777 174.057 26.6211 173.818 26.6211C173.479 26.6211 173.217 26.7168 173.033 26.9082C172.854 27.0957 172.707 27.4414 172.594 27.9453L172.447 28.5781H173.842L173.695 29.3223H172.307L170.947 35.7559C170.795 36.4941 170.561 37.0332 170.244 37.373C169.928 37.7129 169.512 37.8828 168.996 37.8828ZM174.703 35H173.719L175.09 28.5781H176.074L174.703 35ZM175.365 26.9375C175.365 26.7188 175.428 26.541 175.553 26.4043C175.678 26.2637 175.84 26.1934 176.039 26.1934C176.383 26.1934 176.555 26.3691 176.555 26.7207C176.555 26.9355 176.488 27.1172 176.355 27.2656C176.227 27.4141 176.076 27.4883 175.904 27.4883C175.748 27.4883 175.619 27.4414 175.518 27.3477C175.416 27.25 175.365 27.1133 175.365 26.9375ZM177.756 35H176.771L178.717 25.8828H179.701L177.756 35ZM182.367 35.1172C181.648 35.1172 181.084 34.9043 180.674 34.4785C180.264 34.0527 180.059 33.4629 180.059 32.709C180.059 31.9746 180.203 31.2715 180.492 30.5996C180.785 29.9238 181.172 29.3984 181.652 29.0234C182.133 28.6484 182.662 28.4609 183.24 28.4609C183.838 28.4609 184.287 28.5918 184.588 28.8535C184.889 29.1113 185.039 29.4727 185.039 29.9375C185.039 30.6406 184.715 31.1934 184.066 31.5957C183.418 31.9941 182.49 32.1934 181.283 32.1934H181.09L181.066 32.6621C181.066 33.1738 181.186 33.5742 181.424 33.8633C181.666 34.1484 182.039 34.291 182.543 34.291C182.789 34.291 183.041 34.2559 183.299 34.1855C183.561 34.1152 183.885 33.9863 184.271 33.7988V34.6543C183.904 34.8262 183.58 34.9453 183.299 35.0117C183.018 35.082 182.707 35.1172 182.367 35.1172ZM183.182 29.2988C182.779 29.2988 182.4 29.4824 182.045 29.8496C181.693 30.2168 181.424 30.7266 181.236 31.3789H181.307C182.197 31.3789 182.879 31.2637 183.352 31.0332C183.828 30.7988 184.066 30.4609 184.066 30.0195C184.066 29.8125 183.994 29.6406 183.85 29.5039C183.709 29.3672 183.486 29.2988 183.182 29.2988ZM189.709 33.1777C189.709 33.7871 189.492 34.2637 189.059 34.6074C188.629 34.9473 188.021 35.1172 187.236 35.1172C186.576 35.1172 185.98 34.9824 185.449 34.7129V33.7871C185.723 33.9512 186.018 34.0781 186.334 34.168C186.65 34.2578 186.943 34.3027 187.213 34.3027C187.705 34.3027 188.076 34.2051 188.326 34.0098C188.576 33.8145 188.701 33.5645 188.701 33.2598C188.701 33.0371 188.633 32.8496 188.496 32.6973C188.359 32.5449 188.064 32.3359 187.611 32.0703C187.104 31.7852 186.744 31.5059 186.533 31.2324C186.322 30.959 186.217 30.6348 186.217 30.2598C186.217 29.7207 186.414 29.2871 186.809 28.959C187.203 28.627 187.723 28.4609 188.367 28.4609C189.035 28.4609 189.68 28.6055 190.301 28.8945L189.984 29.6973L189.656 29.5508C189.262 29.3828 188.832 29.2988 188.367 29.2988C188.004 29.2988 187.719 29.3848 187.512 29.5566C187.305 29.7246 187.201 29.9434 187.201 30.2129C187.201 30.4316 187.27 30.6191 187.406 30.7754C187.547 30.9316 187.834 31.1328 188.268 31.3789C188.686 31.6133 188.984 31.8145 189.164 31.9824C189.348 32.1504 189.484 32.332 189.574 32.5273C189.664 32.7188 189.709 32.9355 189.709 33.1777Z" fill="#313131"/>
<path d="M44.793 9.06152H87.0465" stroke="#11131B" stroke-width="3" stroke-linecap="round" stroke-linejoin="round"/>
<path d="M98.2646 13V4.43359H100.081V11.5H103.556V13H98.2646ZM106.333 9.71289C106.333 10.3613 106.438 10.8516 106.649 11.1836C106.864 11.5156 107.212 11.6816 107.692 11.6816C108.169 11.6816 108.511 11.5176 108.718 11.1895C108.929 10.8574 109.034 10.3652 109.034 9.71289C109.034 9.06445 108.929 8.57812 108.718 8.25391C108.507 7.92969 108.161 7.76758 107.681 7.76758C107.204 7.76758 106.86 7.92969 106.649 8.25391C106.438 8.57422 106.333 9.06055 106.333 9.71289ZM110.862 9.71289C110.862 10.7793 110.581 11.6133 110.019 12.2148C109.456 12.8164 108.673 13.1172 107.669 13.1172C107.04 13.1172 106.485 12.9805 106.005 12.707C105.524 12.4297 105.155 12.0332 104.897 11.5176C104.64 11.002 104.511 10.4004 104.511 9.71289C104.511 8.64258 104.79 7.81055 105.349 7.2168C105.907 6.62305 106.692 6.32617 107.704 6.32617C108.333 6.32617 108.888 6.46289 109.368 6.73633C109.849 7.00977 110.218 7.40234 110.476 7.91406C110.733 8.42578 110.862 9.02539 110.862 9.71289ZM117.724 13L117.22 10.709L116.54 7.81445H116.499L115.304 13H113.382L111.519 6.44922H113.3L114.056 9.34961C114.177 9.86914 114.3 10.5859 114.425 11.5H114.46C114.476 11.2031 114.544 10.7324 114.665 10.0879L114.759 9.58984L115.567 6.44922H117.536L118.304 9.58984C118.319 9.67578 118.343 9.80273 118.374 9.9707C118.409 10.1387 118.442 10.3184 118.474 10.5098C118.505 10.6973 118.532 10.8828 118.556 11.0664C118.583 11.2461 118.599 11.3906 118.603 11.5H118.638C118.673 11.2188 118.735 10.834 118.825 10.3457C118.915 9.85352 118.979 9.52148 119.019 9.34961L119.804 6.44922H121.556L119.669 13H117.724ZM129.39 6.32617C129.632 6.32617 129.833 6.34375 129.993 6.37891L129.858 8.05469C129.714 8.01562 129.538 7.99609 129.331 7.99609C128.761 7.99609 128.315 8.14258 127.995 8.43555C127.679 8.72852 127.521 9.13867 127.521 9.66602V13H125.733V6.44922H127.087L127.351 7.55078H127.438C127.642 7.18359 127.915 6.88867 128.259 6.66602C128.606 6.43945 128.983 6.32617 129.39 6.32617ZM131.106 4.75586C131.106 4.17383 131.431 3.88281 132.079 3.88281C132.728 3.88281 133.052 4.17383 133.052 4.75586C133.052 5.0332 132.97 5.25 132.806 5.40625C132.646 5.55859 132.403 5.63477 132.079 5.63477C131.431 5.63477 131.106 5.3418 131.106 4.75586ZM132.97 13H131.183V6.44922H132.97V13ZM139.421 11.0547C139.421 11.7266 139.187 12.2383 138.718 12.5898C138.253 12.9414 137.556 13.1172 136.626 13.1172C136.149 13.1172 135.743 13.084 135.407 13.0176C135.071 12.9551 134.757 12.8613 134.464 12.7363V11.2598C134.796 11.416 135.169 11.5469 135.583 11.6523C136.001 11.7578 136.368 11.8105 136.685 11.8105C137.333 11.8105 137.657 11.623 137.657 11.248C137.657 11.1074 137.614 10.9941 137.528 10.9082C137.442 10.8184 137.294 10.7188 137.083 10.6094C136.872 10.4961 136.591 10.3652 136.239 10.2168C135.735 10.0059 135.364 9.81055 135.126 9.63086C134.892 9.45117 134.72 9.24609 134.61 9.01562C134.505 8.78125 134.452 8.49414 134.452 8.1543C134.452 7.57227 134.677 7.12305 135.126 6.80664C135.579 6.48633 136.22 6.32617 137.048 6.32617C137.837 6.32617 138.604 6.49805 139.351 6.8418L138.812 8.13086C138.483 7.99023 138.177 7.875 137.892 7.78516C137.606 7.69531 137.315 7.65039 137.019 7.65039C136.491 7.65039 136.228 7.79297 136.228 8.07812C136.228 8.23828 136.312 8.37695 136.479 8.49414C136.651 8.61133 137.024 8.78516 137.599 9.01562C138.11 9.22266 138.485 9.41602 138.724 9.5957C138.962 9.77539 139.138 9.98242 139.251 10.2168C139.364 10.4512 139.421 10.7305 139.421 11.0547ZM142.532 9.4375L143.312 8.44141L145.146 6.44922H147.161L144.56 9.29102L147.319 13H145.257L143.37 10.3457L142.603 10.9609V13H140.815V3.88281H142.603V7.94922L142.509 9.4375H142.532Z" fill="#313131"/>
<path d="M44.793 48.9561H87.0465" stroke="#0076FF" stroke-width="3" stroke-linecap="round" stroke-linejoin="round" stroke-dasharray="4 7"/>
<path d="M101.879 46.5322C101.199 46.5322 100.59 46.7217 100.051 47.1006C99.5156 47.4795 99.0898 48.0361 98.7734 48.7705C98.4609 49.501 98.3047 50.2979 98.3047 51.1611C98.3047 51.8916 98.4941 52.4756 98.873 52.9131C99.2559 53.3467 99.7812 53.5635 100.449 53.5635C100.992 53.5635 101.621 53.4521 102.336 53.2295V54.1025C102 54.2236 101.68 54.3115 101.375 54.3662C101.07 54.4209 100.703 54.4482 100.273 54.4482C99.3281 54.4482 98.5859 54.1572 98.0469 53.5752C97.5078 52.9893 97.2383 52.1924 97.2383 51.1846C97.2383 50.165 97.4434 49.2178 97.8535 48.3428C98.2676 47.4639 98.8223 46.7939 99.5176 46.333C100.213 45.8721 101 45.6416 101.879 45.6416C102.648 45.6416 103.328 45.7979 103.918 46.1104L103.514 46.9365C102.975 46.667 102.43 46.5322 101.879 46.5322ZM107.123 47.792C107.482 47.792 107.803 47.8896 108.084 48.085C108.365 48.2764 108.584 48.5537 108.74 48.917H108.805L109.197 47.9092H109.941L108.576 54.3311H107.797L107.949 53.1064H107.902C107.203 54.001 106.467 54.4482 105.693 54.4482C105.15 54.4482 104.725 54.2549 104.416 53.8682C104.107 53.4814 103.953 52.9521 103.953 52.2803C103.953 51.4678 104.092 50.7139 104.369 50.0186C104.646 49.3232 105.029 48.7783 105.518 48.3838C106.006 47.9893 106.541 47.792 107.123 47.792ZM106.01 53.6338C106.389 53.6338 106.766 53.4541 107.141 53.0947C107.516 52.7314 107.82 52.2607 108.055 51.6826C108.289 51.1006 108.406 50.5186 108.406 49.9365C108.406 49.5342 108.297 49.2139 108.078 48.9756C107.859 48.7373 107.572 48.6182 107.217 48.6182C106.811 48.6182 106.432 48.7861 106.08 49.1221C105.732 49.458 105.459 49.9131 105.26 50.4873C105.061 51.0615 104.961 51.667 104.961 52.3037C104.961 52.749 105.053 53.083 105.236 53.3057C105.42 53.5244 105.678 53.6338 106.01 53.6338ZM114.471 52.5088C114.471 53.1182 114.254 53.5947 113.82 53.9385C113.391 54.2783 112.783 54.4482 111.998 54.4482C111.338 54.4482 110.742 54.3135 110.211 54.0439V53.1182C110.484 53.2822 110.779 53.4092 111.096 53.499C111.412 53.5889 111.705 53.6338 111.975 53.6338C112.467 53.6338 112.838 53.5361 113.088 53.3408C113.338 53.1455 113.463 52.8955 113.463 52.5908C113.463 52.3682 113.395 52.1807 113.258 52.0283C113.121 51.876 112.826 51.667 112.373 51.4014C111.865 51.1162 111.506 50.8369 111.295 50.5635C111.084 50.29 110.979 49.9658 110.979 49.5908C110.979 49.0518 111.176 48.6182 111.57 48.29C111.965 47.958 112.484 47.792 113.129 47.792C113.797 47.792 114.441 47.9365 115.062 48.2256L114.746 49.0283L114.418 48.8818C114.023 48.7139 113.594 48.6299 113.129 48.6299C112.766 48.6299 112.48 48.7158 112.273 48.8877C112.066 49.0557 111.963 49.2744 111.963 49.5439C111.963 49.7627 112.031 49.9502 112.168 50.1064C112.309 50.2627 112.596 50.4639 113.029 50.71C113.447 50.9443 113.746 51.1455 113.926 51.3135C114.109 51.4814 114.246 51.6631 114.336 51.8584C114.426 52.0498 114.471 52.2666 114.471 52.5088ZM119.58 54.3311L120.447 50.2764C120.518 49.9092 120.553 49.6455 120.553 49.4854C120.553 48.9072 120.266 48.6182 119.691 48.6182C119.344 48.6182 119.004 48.7334 118.672 48.9639C118.344 49.1943 118.053 49.5303 117.799 49.9717C117.549 50.4092 117.359 50.9385 117.23 51.5596L116.639 54.3311H115.654L117.588 45.2139H118.572C118.502 45.5342 118.434 45.8447 118.367 46.1455C118.305 46.4463 118.238 46.7529 118.168 47.0654C118.102 47.374 118.027 47.6982 117.945 48.0381C117.867 48.3779 117.775 48.7471 117.67 49.1455H117.734C118.102 48.665 118.463 48.3213 118.818 48.1143C119.178 47.9072 119.553 47.8037 119.943 47.8037C120.455 47.8037 120.85 47.9443 121.127 48.2256C121.408 48.5068 121.549 48.9053 121.549 49.4209C121.549 49.6631 121.504 49.9873 121.414 50.3936C121.262 51.1475 120.979 52.46 120.564 54.3311H119.58Z" fill="#313131"/>
<path opacity="0.5" d="M22.0107 282.736L34.0548 292.332L46.0989 237.678L57.8811 223.076L69.9252 251.237L81.9692 285.239L94.0133 272.514L105.796 258.538L117.84 248.525L129.884 231.837L141.928 225.162L153.71 200.338L165.754 208.265L177.798 205.553L189.842 222.658L201.624 210.768L213.668 189.908L225.713 195.332L237.757 161.121L249.539 152.568L261.583 152.777L273.627 147.77L285.671 156.74L297.715 155.071L309.497 155.906L321.541 144.85L333.585 123.572L345.63 119.192L357.412 112.725L369.456 106.467L381.5 116.897L393.544 135.254L405.326 115.02L417.37 108.136L429.414 109.387L441.458 94.9938L453.241 91.0303L465.285 88.1099L477.329 131.916L489.373 125.033L501.155 175.723L513.199 126.493L525.243 105.215L537.287 85.1895" stroke="#AAAAAA" stroke-width="2" stroke-miterlimit="6.07152"/>
<path d="M22.0654 282.247L34.1095 287.218L46.1536 254.491L57.9358 243.72L69.9799 263.397L82.0239 281.832L94.068 270.854L105.85 263.605L117.894 254.491L129.938 245.998L141.982 237.299L153.765 222.178L165.809 231.706L177.853 229.22L189.897 244.963L201.679 242.477L213.723 232.534L225.767 240.82L237.811 222.178L249.594 220.935L261.638 221.971L273.682 218.656L285.726 223.835L297.77 224.042L309.552 222.799L321.596 220.521L333.64 210.785L345.684 208.093L357.466 207.264L369.51 208.3L381.555 215.964L393.599 220.935L405.381 213.892L417.425 216.585L429.469 214.928L441.513 210.578L453.295 211.821L465.339 210.578L477.383 231.499L489.427 227.356L501.21 248.898L513.254 223.628L525.298 214.1L537.342 198.564" stroke="#11131B" stroke-width="2.5" stroke-miterlimit="6.07152"/>
<path opacity="0.5" d="M21.9717 282.802L34.0157 292.601L46.0598 221.921L57.842 207.118L69.8861 236.099L81.9302 285.929L93.9742 264.246L105.756 240.06L117.801 224.006L129.845 204.407L141.889 197.944L153.671 165.418L165.715 174.384L177.759 170.839L189.803 191.689L201.585 173.967L213.629 148.947L225.673 154.159L237.718 108.707L249.5 98.6994L261.544 99.7419L273.588 95.572L285.632 105.58L297.676 103.078L309.458 103.286L321.502 89.1086L333.546 61.587L345.59 54.9151L357.373 44.9073L369.417 32.8145L381.461 50.1197L393.505 75.5563L405.287 48.6602L417.331 34.274L429.375 37.4014L441.419 18.2198L453.202 10.9224L465.246 7.37794L477.29 60.9615L489.334 52.6217L501.116 120.592L513.16 56.7916L525.204 26.7681L537.248 3.625" stroke="#AAAAAA" stroke-width="2" stroke-miterlimit="6.07152"/>
<path d="M370.072 332.053V322.059H371.234V332.053H370.072ZM378.939 332.053V327.206C378.939 326.595 378.8 326.14 378.522 325.839C378.244 325.538 377.808 325.388 377.216 325.388C376.432 325.388 375.858 325.6 375.493 326.023C375.129 326.447 374.946 327.147 374.946 328.122V332.053H373.812V324.561H374.734L374.919 325.586H374.974C375.206 325.217 375.532 324.932 375.951 324.731C376.371 324.526 376.838 324.424 377.353 324.424C378.255 324.424 378.934 324.643 379.39 325.08C379.845 325.513 380.073 326.208 380.073 327.165V332.053H378.939ZM384.052 332.053L381.208 324.561H382.425L384.038 329.004C384.403 330.043 384.617 330.717 384.681 331.027H384.735C384.786 330.786 384.943 330.287 385.207 329.53C385.476 328.769 386.075 327.113 387.005 324.561H388.222L385.378 332.053H384.052ZM392.59 332.189C391.483 332.189 390.608 331.852 389.965 331.178C389.327 330.503 389.008 329.567 389.008 328.368C389.008 327.16 389.304 326.201 389.897 325.49C390.494 324.779 391.293 324.424 392.296 324.424C393.235 324.424 393.978 324.734 394.525 325.354C395.071 325.969 395.345 326.782 395.345 327.794V328.512H390.184C390.206 329.391 390.428 330.059 390.847 330.515C391.271 330.97 391.865 331.198 392.631 331.198C393.438 331.198 394.235 331.03 395.024 330.692V331.704C394.623 331.877 394.242 332 393.882 332.073C393.526 332.151 393.096 332.189 392.59 332.189ZM392.282 325.374C391.681 325.374 391.2 325.57 390.84 325.962C390.484 326.354 390.275 326.896 390.211 327.589H394.128C394.128 326.873 393.969 326.326 393.65 325.948C393.331 325.565 392.875 325.374 392.282 325.374ZM402.119 330.009C402.119 330.706 401.859 331.244 401.34 331.622C400.82 332 400.091 332.189 399.152 332.189C398.159 332.189 397.384 332.032 396.828 331.718V330.665C397.188 330.847 397.573 330.991 397.984 331.096C398.398 331.201 398.797 331.253 399.18 331.253C399.772 331.253 400.228 331.16 400.547 330.973C400.866 330.781 401.025 330.492 401.025 330.104C401.025 329.813 400.898 329.564 400.643 329.359C400.392 329.15 399.9 328.904 399.166 328.621C398.469 328.361 397.972 328.136 397.676 327.944C397.384 327.748 397.165 327.527 397.02 327.281C396.878 327.035 396.808 326.741 396.808 326.399C396.808 325.789 397.056 325.308 397.553 324.957C398.05 324.602 398.731 324.424 399.597 324.424C400.403 324.424 401.192 324.588 401.962 324.916L401.559 325.839C400.807 325.529 400.125 325.374 399.515 325.374C398.977 325.374 398.571 325.458 398.298 325.627C398.025 325.796 397.888 326.028 397.888 326.324C397.888 326.525 397.938 326.696 398.038 326.837C398.143 326.978 398.309 327.113 398.537 327.24C398.765 327.368 399.203 327.552 399.85 327.794C400.738 328.118 401.338 328.443 401.648 328.771C401.962 329.1 402.119 329.512 402.119 330.009ZM406.392 331.253C406.592 331.253 406.786 331.239 406.973 331.212C407.16 331.18 407.308 331.148 407.417 331.116V331.984C407.294 332.044 407.112 332.091 406.87 332.128C406.633 332.169 406.419 332.189 406.228 332.189C404.778 332.189 404.054 331.426 404.054 329.899V325.442H402.981V324.896L404.054 324.424L404.532 322.824H405.189V324.561H407.362V325.442H405.189V329.852C405.189 330.303 405.296 330.649 405.51 330.891C405.724 331.132 406.018 331.253 406.392 331.253ZM418.471 332.053V327.179C418.471 326.582 418.343 326.135 418.088 325.839C417.833 325.538 417.436 325.388 416.899 325.388C416.192 325.388 415.67 325.59 415.333 325.996C414.996 326.402 414.827 327.026 414.827 327.869V332.053H413.692V327.179C413.692 326.582 413.565 326.135 413.31 325.839C413.054 325.538 412.656 325.388 412.113 325.388C411.402 325.388 410.881 325.602 410.548 326.03C410.22 326.454 410.056 327.151 410.056 328.122V332.053H408.921V324.561H409.844L410.028 325.586H410.083C410.297 325.221 410.598 324.937 410.985 324.731C411.377 324.526 411.815 324.424 412.298 324.424C413.469 324.424 414.235 324.848 414.595 325.695H414.65C414.873 325.303 415.196 324.993 415.62 324.766C416.044 324.538 416.527 324.424 417.069 324.424C417.917 324.424 418.551 324.643 418.97 325.08C419.394 325.513 419.606 326.208 419.606 327.165V332.053H418.471ZM425.115 332.189C424.008 332.189 423.133 331.852 422.49 331.178C421.852 330.503 421.533 329.567 421.533 328.368C421.533 327.16 421.83 326.201 422.422 325.49C423.019 324.779 423.819 324.424 424.821 324.424C425.76 324.424 426.503 324.734 427.05 325.354C427.597 325.969 427.87 326.782 427.87 327.794V328.512H422.709C422.732 329.391 422.953 330.059 423.372 330.515C423.796 330.97 424.391 331.198 425.156 331.198C425.963 331.198 426.761 331.03 427.549 330.692V331.704C427.148 331.877 426.767 332 426.407 332.073C426.052 332.151 425.621 332.189 425.115 332.189ZM424.808 325.374C424.206 325.374 423.725 325.57 423.365 325.962C423.01 326.354 422.8 326.896 422.736 327.589H426.653C426.653 326.873 426.494 326.326 426.175 325.948C425.856 325.565 425.4 325.374 424.808 325.374ZM434.939 332.053V327.206C434.939 326.595 434.8 326.14 434.522 325.839C434.244 325.538 433.808 325.388 433.216 325.388C432.432 325.388 431.858 325.6 431.493 326.023C431.129 326.447 430.946 327.147 430.946 328.122V332.053H429.812V324.561H430.734L430.919 325.586H430.974C431.206 325.217 431.532 324.932 431.951 324.731C432.371 324.526 432.838 324.424 433.353 324.424C434.255 324.424 434.934 324.643 435.39 325.08C435.845 325.513 436.073 326.208 436.073 327.165V332.053H434.939ZM440.831 331.253C441.032 331.253 441.225 331.239 441.412 331.212C441.599 331.18 441.747 331.148 441.857 331.116V331.984C441.734 332.044 441.551 332.091 441.31 332.128C441.073 332.169 440.859 332.189 440.667 332.189C439.218 332.189 438.493 331.426 438.493 329.899V325.442H437.42V324.896L438.493 324.424L438.972 322.824H439.628V324.561H441.802V325.442H439.628V329.852C439.628 330.303 439.735 330.649 439.949 330.891C440.164 331.132 440.457 331.253 440.831 331.253ZM450.484 332.189C449.996 332.189 449.549 332.101 449.144 331.923C448.743 331.741 448.405 331.463 448.132 331.089H448.05C448.105 331.526 448.132 331.941 448.132 332.333V335.416H446.997V324.561H447.92L448.077 325.586H448.132C448.424 325.176 448.763 324.88 449.15 324.697C449.538 324.515 449.982 324.424 450.484 324.424C451.477 324.424 452.243 324.763 452.78 325.442C453.323 326.121 453.594 327.074 453.594 328.3C453.594 329.53 453.318 330.487 452.767 331.171C452.22 331.85 451.459 332.189 450.484 332.189ZM450.319 325.388C449.554 325.388 449 325.6 448.658 326.023C448.317 326.447 448.141 327.122 448.132 328.047V328.3C448.132 329.353 448.307 330.107 448.658 330.562C449.009 331.014 449.572 331.239 450.347 331.239C450.994 331.239 451.5 330.977 451.864 330.453C452.234 329.929 452.418 329.207 452.418 328.286C452.418 327.352 452.234 326.636 451.864 326.14C451.5 325.638 450.985 325.388 450.319 325.388ZM458.748 332.189C457.641 332.189 456.766 331.852 456.123 331.178C455.485 330.503 455.166 329.567 455.166 328.368C455.166 327.16 455.462 326.201 456.055 325.49C456.652 324.779 457.452 324.424 458.454 324.424C459.393 324.424 460.136 324.734 460.683 325.354C461.23 325.969 461.503 326.782 461.503 327.794V328.512H456.342C456.365 329.391 456.586 330.059 457.005 330.515C457.429 330.97 458.024 331.198 458.789 331.198C459.596 331.198 460.393 331.03 461.182 330.692V331.704C460.781 331.877 460.4 332 460.04 332.073C459.685 332.151 459.254 332.189 458.748 332.189ZM458.441 325.374C457.839 325.374 457.358 325.57 456.998 325.962C456.643 326.354 456.433 326.896 456.369 327.589H460.286C460.286 326.873 460.127 326.326 459.808 325.948C459.489 325.565 459.033 325.374 458.441 325.374ZM466.862 324.424C467.195 324.424 467.494 324.451 467.758 324.506L467.601 325.559C467.291 325.49 467.017 325.456 466.78 325.456C466.174 325.456 465.655 325.702 465.222 326.194C464.793 326.687 464.579 327.299 464.579 328.033V332.053H463.444V324.561H464.381L464.511 325.948H464.566C464.844 325.461 465.178 325.085 465.57 324.82C465.962 324.556 466.393 324.424 466.862 324.424ZM470.294 332.053H469.159V324.561H470.294V332.053ZM469.064 322.53C469.064 322.271 469.127 322.081 469.255 321.963C469.383 321.84 469.542 321.778 469.734 321.778C469.916 321.778 470.073 321.84 470.205 321.963C470.337 322.086 470.403 322.275 470.403 322.53C470.403 322.785 470.337 322.977 470.205 323.104C470.073 323.228 469.916 323.289 469.734 323.289C469.542 323.289 469.383 323.228 469.255 323.104C469.127 322.977 469.064 322.785 469.064 322.53ZM479.167 328.3C479.167 329.521 478.859 330.476 478.244 331.164C477.629 331.848 476.779 332.189 475.694 332.189C475.025 332.189 474.43 332.032 473.91 331.718C473.391 331.403 472.99 330.952 472.707 330.364C472.425 329.776 472.283 329.088 472.283 328.3C472.283 327.078 472.589 326.128 473.199 325.449C473.81 324.766 474.658 324.424 475.742 324.424C476.79 324.424 477.622 324.772 478.237 325.47C478.857 326.167 479.167 327.11 479.167 328.3ZM473.459 328.3C473.459 329.257 473.65 329.986 474.033 330.487C474.416 330.989 474.979 331.239 475.722 331.239C476.465 331.239 477.027 330.991 477.41 330.494C477.798 329.993 477.991 329.261 477.991 328.3C477.991 327.347 477.798 326.625 477.41 326.133C477.027 325.636 476.46 325.388 475.708 325.388C474.965 325.388 474.405 325.632 474.026 326.119C473.648 326.607 473.459 327.334 473.459 328.3ZM486.263 331.048H486.201C485.677 331.809 484.893 332.189 483.85 332.189C482.87 332.189 482.107 331.854 481.56 331.185C481.017 330.515 480.746 329.562 480.746 328.327C480.746 327.092 481.02 326.133 481.567 325.449C482.113 324.766 482.874 324.424 483.85 324.424C484.866 324.424 485.645 324.793 486.188 325.531H486.276L486.229 324.991L486.201 324.465V321.416H487.336V332.053H486.413L486.263 331.048ZM483.993 331.239C484.768 331.239 485.329 331.03 485.675 330.61C486.026 330.187 486.201 329.505 486.201 328.566V328.327C486.201 327.265 486.024 326.509 485.668 326.058C485.317 325.602 484.754 325.374 483.98 325.374C483.314 325.374 482.804 325.634 482.448 326.153C482.097 326.668 481.922 327.397 481.922 328.341C481.922 329.298 482.097 330.02 482.448 330.508C482.799 330.995 483.314 331.239 483.993 331.239ZM492.743 328.218C492.743 327.01 492.919 325.88 493.27 324.827C493.625 323.774 494.136 322.852 494.801 322.059H495.908C495.252 322.938 494.758 323.904 494.425 324.957C494.097 326.01 493.933 327.092 493.933 328.204C493.933 329.298 494.101 330.367 494.439 331.41C494.776 332.454 495.261 333.406 495.895 334.268H494.801C494.131 333.493 493.621 332.588 493.27 331.554C492.919 330.519 492.743 329.407 492.743 328.218ZM500.242 327.056L502.908 322.059H504.166L500.83 328.177V332.053H499.654V328.231L496.325 322.059H497.597L500.242 327.056ZM508.541 332.189C507.434 332.189 506.559 331.852 505.916 331.178C505.278 330.503 504.959 329.567 504.959 328.368C504.959 327.16 505.255 326.201 505.848 325.49C506.445 324.779 507.245 324.424 508.247 324.424C509.186 324.424 509.929 324.734 510.476 325.354C511.023 325.969 511.296 326.782 511.296 327.794V328.512H506.135C506.158 329.391 506.379 330.059 506.798 330.515C507.222 330.97 507.817 331.198 508.582 331.198C509.389 331.198 510.186 331.03 510.975 330.692V331.704C510.574 331.877 510.193 332 509.833 332.073C509.478 332.151 509.047 332.189 508.541 332.189ZM508.234 325.374C507.632 325.374 507.151 325.57 506.791 325.962C506.436 326.354 506.226 326.896 506.162 327.589H510.079C510.079 326.873 509.92 326.326 509.601 325.948C509.282 325.565 508.826 325.374 508.234 325.374ZM517.845 332.053L517.619 330.986H517.565C517.191 331.456 516.817 331.775 516.443 331.943C516.074 332.107 515.612 332.189 515.056 332.189C514.313 332.189 513.73 331.998 513.306 331.615C512.887 331.232 512.677 330.688 512.677 329.981C512.677 328.468 513.887 327.675 516.307 327.603L517.578 327.562V327.097C517.578 326.509 517.451 326.076 517.195 325.798C516.945 325.515 516.541 325.374 515.985 325.374C515.361 325.374 514.655 325.565 513.866 325.948L513.518 325.08C513.887 324.88 514.29 324.722 514.728 324.608C515.17 324.494 515.612 324.438 516.054 324.438C516.947 324.438 517.608 324.636 518.036 325.032C518.469 325.429 518.686 326.064 518.686 326.939V332.053H517.845ZM515.281 331.253C515.988 331.253 516.541 331.059 516.942 330.672C517.348 330.285 517.551 329.742 517.551 329.045V328.368L516.416 328.416C515.514 328.448 514.862 328.589 514.461 328.84C514.065 329.086 513.866 329.471 513.866 329.995C513.866 330.405 513.989 330.717 514.235 330.932C514.486 331.146 514.835 331.253 515.281 331.253ZM524.448 324.424C524.781 324.424 525.08 324.451 525.344 324.506L525.187 325.559C524.877 325.49 524.603 325.456 524.366 325.456C523.76 325.456 523.241 325.702 522.808 326.194C522.379 326.687 522.165 327.299 522.165 328.033V332.053H521.03V324.561H521.967L522.097 325.948H522.151C522.429 325.461 522.764 325.085 523.156 324.82C523.548 324.556 523.979 324.424 524.448 324.424ZM531.578 330.009C531.578 330.706 531.318 331.244 530.799 331.622C530.279 332 529.55 332.189 528.611 332.189C527.618 332.189 526.843 332.032 526.287 331.718V330.665C526.647 330.847 527.032 330.991 527.442 331.096C527.857 331.201 528.256 331.253 528.639 331.253C529.231 331.253 529.687 331.16 530.006 330.973C530.325 330.781 530.484 330.492 530.484 330.104C530.484 329.813 530.357 329.564 530.102 329.359C529.851 329.15 529.359 328.904 528.625 328.621C527.928 328.361 527.431 328.136 527.135 327.944C526.843 327.748 526.624 327.527 526.479 327.281C526.337 327.035 526.267 326.741 526.267 326.399C526.267 325.789 526.515 325.308 527.012 324.957C527.509 324.602 528.19 324.424 529.056 324.424C529.862 324.424 530.651 324.588 531.421 324.916L531.018 325.839C530.266 325.529 529.584 325.374 528.974 325.374C528.436 325.374 528.03 325.458 527.757 325.627C527.484 325.796 527.347 326.028 527.347 326.324C527.347 326.525 527.397 326.696 527.497 326.837C527.602 326.978 527.768 327.113 527.996 327.24C528.224 327.368 528.662 327.552 529.309 327.794C530.197 328.118 530.797 328.443 531.107 328.771C531.421 329.1 531.578 329.512 531.578 330.009ZM535.81 328.218C535.81 329.416 535.632 330.533 535.276 331.567C534.926 332.602 534.417 333.502 533.752 334.268H532.658C533.292 333.411 533.777 332.461 534.114 331.417C534.452 330.369 534.62 329.298 534.62 328.204C534.62 327.092 534.454 326.01 534.121 324.957C533.793 323.904 533.301 322.938 532.645 322.059H533.752C534.422 322.856 534.932 323.784 535.283 324.841C535.634 325.894 535.81 327.019 535.81 328.218Z" fill="#545454"/>
<path d="M9.84375 60.6297L14 60.6297L14 61.7918L4.00586 61.7918L4.00586 59.0506C4.00586 57.8247 4.24056 56.9201 4.70996 56.3368C5.17936 55.7489 5.88574 55.4549 6.8291 55.4549C8.15072 55.4549 9.04394 56.1248 9.50879 57.4647L14 54.7508L14 56.1248L9.84375 58.5448L9.84375 60.6297ZM8.8457 60.6297L8.8457 59.0369C8.8457 58.2166 8.68392 57.6151 8.36035 57.2323C8.03223 56.8494 7.54232 56.658 6.89062 56.658C6.22982 56.658 5.75358 56.854 5.46191 57.2459C5.17025 57.6333 5.02441 58.2577 5.02441 59.119L5.02441 60.6297L8.8457 60.6297ZM14.1367 50.1434C14.1367 51.2508 13.7995 52.1258 13.125 52.7684C12.4505 53.4064 11.514 53.7254 10.3154 53.7254C9.10775 53.7254 8.14844 53.4292 7.4375 52.8368C6.72656 52.2397 6.37109 51.4399 6.37109 50.4373C6.37109 49.4985 6.68099 48.7557 7.30078 48.2088C7.91601 47.6619 8.72949 47.3885 9.74121 47.3885L10.459 47.3885L10.459 52.5496C11.3385 52.5269 12.0062 52.3058 12.4619 51.8866C12.9176 51.4627 13.1455 50.868 13.1455 50.1024C13.1455 49.2957 12.9769 48.4982 12.6396 47.7098L13.6514 47.7098C13.8245 48.1108 13.9476 48.4914 14.0205 48.8514C14.098 49.2069 14.1367 49.6375 14.1367 50.1434ZM7.32129 50.451C7.32129 51.0526 7.51725 51.5334 7.90918 51.8934C8.30111 52.2489 8.84342 52.4585 9.53613 52.5223L9.53613 48.6053C8.82064 48.6053 8.27376 48.7648 7.89551 49.0838C7.51269 49.4028 7.32129 49.8586 7.32129 50.451ZM13.2002 43.0272C13.2002 42.8267 13.1865 42.633 13.1592 42.4461C13.1273 42.2593 13.0954 42.1112 13.0635 42.0018L13.9316 42.0018C13.9909 42.1248 14.0387 42.3071 14.0752 42.5487C14.1162 42.7856 14.1367 42.9998 14.1367 43.1912C14.1367 44.6405 13.3734 45.3651 11.8467 45.3651L7.38965 45.3651L7.38965 46.4383L6.84277 46.4383L6.37109 45.3651L4.77148 44.8866L4.77148 44.2303L6.50781 44.2303L6.50781 42.0565L7.38965 42.0565L7.38965 44.2303L11.7988 44.2303C12.25 44.2303 12.5964 44.1232 12.8379 43.909C13.0794 43.6948 13.2002 43.4009 13.2002 43.0272ZM6.50781 39.4315L11.3682 39.4315C11.9788 39.4315 12.4346 39.2925 12.7354 39.0145C13.0361 38.7365 13.1865 38.3013 13.1865 37.7088C13.1865 36.925 12.9723 36.353 12.5439 35.993C12.1156 35.6284 11.416 35.4461 10.4453 35.4461L6.50781 35.4461L6.50781 34.3114L14 34.3114L14 35.2479L12.9951 35.4119L12.9951 35.4735C13.3643 35.7059 13.6468 36.0295 13.8428 36.4442C14.0387 36.8543 14.1367 37.3237 14.1367 37.8524C14.1367 38.7638 13.9202 39.4474 13.4873 39.9032C13.0544 40.3543 12.3617 40.5799 11.4092 40.5799L6.50781 40.5799L6.50781 39.4315ZM6.37109 28.4803C6.37109 28.1476 6.39844 27.8491 6.45312 27.5848L7.50586 27.742C7.4375 28.0519 7.40332 28.3254 7.40332 28.5623C7.40332 29.1685 7.64941 29.688 8.1416 30.1209C8.63379 30.5493 9.24674 30.7635 9.98047 30.7635L14 30.7635L14 31.8983L6.50781 31.8983L6.50781 30.9618L7.89551 30.8319L7.89551 30.7772C7.40788 30.4992 7.0319 30.1642 6.76758 29.7723C6.50325 29.3804 6.37109 28.9497 6.37109 28.4803ZM14 21.0565L9.15332 21.0565C8.54264 21.0565 8.08691 21.1955 7.78613 21.4735C7.48535 21.7515 7.33496 22.1867 7.33496 22.7791C7.33496 23.563 7.54687 24.1372 7.9707 24.5018C8.39453 24.8664 9.09407 25.0487 10.0693 25.0487L14 25.0487L14 26.1834L6.50781 26.1834L6.50781 25.2606L7.5332 25.076L7.5332 25.0213C7.16406 24.7889 6.87923 24.4631 6.67871 24.0438C6.47363 23.6245 6.37109 23.1574 6.37109 22.6424C6.37109 21.7401 6.58984 21.061 7.02734 20.6053C7.46028 20.1496 8.15527 19.9217 9.1123 19.9217L14 19.9217L14 21.0565ZM6.98633 13.4959C7.76107 13.4959 8.34212 13.4116 8.72949 13.243C9.11686 13.0744 9.31054 12.8009 9.31054 12.4227C9.31054 11.6753 8.5358 11.3016 6.98633 11.3016C5.44596 11.3016 4.67578 11.6753 4.67578 12.4227C4.67578 12.8009 4.86718 13.0744 5.25 13.243C5.63281 13.4116 6.21159 13.4959 6.98633 13.4959ZM6.98633 10.3651C8.02539 10.3651 8.81152 10.5405 9.34472 10.8914C9.87337 11.2378 10.1377 11.7482 10.1377 12.4227C10.1377 13.0607 9.86653 13.5575 9.32422 13.9129C8.7819 14.2638 8.0026 14.4393 6.98633 14.4393C5.95182 14.4393 5.17252 14.2707 4.64843 13.9334C4.12435 13.5916 3.8623 13.0881 3.8623 12.4227C3.8623 11.7619 4.13346 11.2537 4.67578 10.8983C5.2181 10.5428 5.98828 10.3651 6.98633 10.3651ZM10.9922 7.48031C11.7715 7.48031 12.3548 7.396 12.7422 7.22738C13.125 7.05876 13.3164 6.78304 13.3164 6.40023C13.3164 6.01742 13.1273 5.73487 12.749 5.55257C12.3662 5.37028 11.7806 5.27914 10.9922 5.27914C10.2129 5.27914 9.63639 5.37028 9.26269 5.55257C8.88444 5.73487 8.69531 6.01742 8.69531 6.40023C8.69531 6.78304 8.88444 7.05876 9.26269 7.22738C9.63639 7.396 10.2129 7.48031 10.9922 7.48031ZM10.9922 4.34261C12.0267 4.34261 12.8105 4.51807 13.3437 4.86898C13.8724 5.21533 14.1367 5.72575 14.1367 6.40023C14.1367 7.04737 13.8656 7.54639 13.3232 7.8973C12.7809 8.24365 12.0039 8.41683 10.9922 8.41683C9.95768 8.41683 9.17838 8.24821 8.65429 7.91097C8.13021 7.56918 7.86816 7.06559 7.86816 6.40023C7.86816 5.75309 8.13704 5.24951 8.6748 4.88949C9.208 4.5249 9.98047 4.34261 10.9922 4.34261ZM4.00586 6.10628L14 11.6502L14 12.6551L4.00586 7.11117L4.00586 6.10628Z" fill="#545454"/>
<path d="M22.8154 303.555V307.179M513.801 303.555V307.179V303.555ZM478.553 303.555V307.179V303.555ZM443.56 303.555V307.179V303.555ZM408.546 303.555V307.179V303.555ZM373.297 303.555V307.179V303.555ZM338.305 303.555V307.179V303.555ZM303.354 303.555V307.179V303.555ZM268.34 303.555V307.179V303.555ZM233.028 303.555V307.179V303.555ZM198.035 303.555V307.179V303.555ZM163.042 303.555V307.179V303.555ZM128.05 303.555V307.179V303.555ZM92.801 303.555V307.179V303.555ZM57.8082 303.555V307.179V303.555Z" stroke="#AAAAAA" stroke-width="2" stroke-linecap="round" stroke-linejoin="round"/>
<path d="M22.7988 3.35645V303.461H536.752" stroke="#AAAAAA" stroke-width="2"/>
<defs>
<linearGradient id="paint0_linear" x1="280" y1="254.387" x2="280" y2="303" gradientUnits="userSpaceOnUse">
<stop stop-color="#0076FF" stop-opacity="0.75"/>
<stop offset="1" stop-color="#F2F2F5"/>
</linearGradient>
</defs>
</svg>
