<svg width="550" height="466" viewBox="0 0 550 466" fill="none" xmlns="http://www.w3.org/2000/svg">
<line opacity="0.1" x1="24.6631" y1="374.156" x2="539.311" y2="374.156" stroke="#11131B" stroke-dasharray="4 5"/>
<line opacity="0.1" x1="24.6631" y1="326.131" x2="539.311" y2="326.131" stroke="#11131B" stroke-dasharray="4 5"/>
<line opacity="0.1" x1="24.6631" y1="277.2" x2="539.311" y2="277.2" stroke="#11131B" stroke-dasharray="4 5"/>
<line opacity="0.1" x1="24.6631" y1="229.175" x2="539.311" y2="229.175" stroke="#11131B" stroke-dasharray="4 5"/>
<line opacity="0.1" x1="24.6631" y1="180.244" x2="539.311" y2="180.244" stroke="#11131B" stroke-dasharray="4 5"/>
<line opacity="0.1" x1="24.6631" y1="132.219" x2="539.311" y2="132.219" stroke="#11131B" stroke-dasharray="4 5"/>
<path opacity="0.6" d="M23.0107 410.017L35.0548 419.613L47.0989 364.959L58.8811 350.357L70.9252 378.518L82.9692 412.52L95.0133 399.796L106.796 385.819L118.84 375.806L130.884 359.118L142.928 352.443L154.71 327.619L166.754 335.546L178.798 332.834L190.842 349.94L202.624 338.049L214.668 317.189L226.713 322.613L238.757 288.402L250.539 279.849L262.583 280.058L274.627 275.051L286.671 284.021L298.715 282.353L310.497 283.187L322.541 272.131L334.585 250.854L346.63 246.473L358.412 240.006L370.456 233.748L382.5 244.178L394.544 262.535L406.326 242.301L418.37 235.417L430.414 236.669L442.458 222.275L454.241 218.312L466.285 215.391L478.329 259.198L490.373 252.314L502.155 303.004L514.199 253.774L526.243 232.497L538.287 212.471" stroke="#F2F2F5" stroke-width="3" stroke-linecap="round"/>
<path opacity="0.4" d="M23.0664 410.434L35.1105 415.405L47.1545 382.678L58.9368 371.907L70.9808 391.585L83.0249 410.02L95.069 399.042L106.851 391.792L118.895 382.678L130.939 374.186L142.983 365.486L154.766 350.365L166.81 359.893L178.854 357.408L190.898 373.15L202.68 370.664L214.724 360.722L226.768 369.007L238.812 350.365L250.594 349.122L262.639 350.158L274.683 346.844L286.727 352.022L298.771 352.229L310.553 350.987L322.597 348.708L334.641 338.973L346.685 336.28L358.467 335.452L370.511 336.487L382.556 344.151L394.6 349.122L406.382 342.08L418.426 344.773L430.47 343.116L442.514 338.766L454.296 340.009L466.34 338.766L478.384 359.686L490.428 355.544L502.211 377.086L514.255 351.815L526.299 342.287L538.343 326.752" stroke="#AAAAAA" stroke-width="2" stroke-linecap="round"/>
<path d="M22.9717 410.989L35.0157 420.789L47.0598 350.108L58.842 335.305L70.8861 364.286L82.9302 414.117L94.9742 392.433L106.756 368.248L118.801 352.193L130.845 332.595L142.889 326.131L154.671 293.606L166.715 302.571L178.759 299.027L190.803 319.876L202.585 302.154L214.629 277.135L226.673 282.347L238.718 236.895L250.5 226.887L262.544 227.929L274.588 223.759L286.632 233.767L298.676 231.265L310.458 231.474L322.502 217.296L334.546 189.775L346.59 183.103L358.373 173.095L370.417 161.002L382.461 178.307L394.505 203.744L406.287 176.848L418.331 162.461L430.375 165.589L442.419 146.407L454.202 139.11L466.246 135.565L478.29 189.149L490.334 180.809L502.116 248.779L514.16 184.979L526.204 154.956L538.248 131.812" stroke="#F2F2F5" stroke-width="2" stroke-linecap="round" stroke-linejoin="round"/>
<rect x="24" y="411" width="514" height="22" fill="url(#paint0_linear)"/>
<line x1="24.0576" y1="412.5" x2="538.289" y2="412.5" stroke="#0076FF" stroke-width="3" stroke-dasharray="7 5"/>
<path opacity="0.5" d="M45.793 158.996H88.0465" stroke="#AAAAAA" stroke-width="3" stroke-linecap="round" stroke-linejoin="round"/>
<path d="M105.268 159.686C105.268 160.736 105.096 161.678 104.752 162.51C104.408 163.338 103.916 163.98 103.275 164.438C102.635 164.891 101.895 165.117 101.055 165.117C100.055 165.117 99.2754 164.826 98.7168 164.244C98.1582 163.658 97.8789 162.838 97.8789 161.783C97.8789 160.752 98.0664 159.811 98.4414 158.959C98.8164 158.107 99.3301 157.451 99.9824 156.99C100.639 156.529 101.377 156.299 102.197 156.299C103.15 156.299 103.9 156.6 104.447 157.201C104.994 157.803 105.268 158.631 105.268 159.686ZM102.121 157.189C101.508 157.189 100.959 157.387 100.475 157.781C99.9902 158.176 99.6133 158.725 99.3438 159.428C99.0781 160.131 98.9453 160.908 98.9453 161.76C98.9453 162.537 99.1367 163.145 99.5195 163.582C99.9023 164.016 100.422 164.232 101.078 164.232C101.672 164.232 102.203 164.043 102.672 163.664C103.145 163.281 103.518 162.734 103.791 162.023C104.064 161.312 104.201 160.525 104.201 159.662C104.201 158.885 104.018 158.279 103.65 157.846C103.283 157.408 102.773 157.189 102.121 157.189ZM107.963 164.314C108.178 164.314 108.459 164.264 108.807 164.162V164.918C108.674 164.973 108.51 165.02 108.314 165.059C108.119 165.098 107.963 165.117 107.846 165.117C107.357 165.117 106.982 165.002 106.721 164.771C106.463 164.537 106.334 164.189 106.334 163.729C106.334 163.471 106.369 163.178 106.439 162.85L107.184 159.322H106.176L106.258 158.895L107.342 158.438L108.074 157.102H108.648L108.326 158.578H109.932L109.779 159.322H108.18L107.424 162.861C107.354 163.201 107.318 163.459 107.318 163.635C107.318 163.854 107.375 164.021 107.488 164.139C107.602 164.256 107.76 164.314 107.963 164.314ZM113.811 165L114.678 160.945C114.748 160.578 114.783 160.314 114.783 160.154C114.783 159.576 114.496 159.287 113.922 159.287C113.574 159.287 113.234 159.402 112.902 159.633C112.574 159.863 112.283 160.199 112.029 160.641C111.779 161.078 111.59 161.607 111.461 162.229L110.869 165H109.885L111.818 155.883H112.803C112.732 156.203 112.664 156.514 112.598 156.814C112.535 157.115 112.469 157.422 112.398 157.734C112.332 158.043 112.258 158.367 112.176 158.707C112.098 159.047 112.006 159.416 111.9 159.814H111.965C112.332 159.334 112.693 158.99 113.049 158.783C113.408 158.576 113.783 158.473 114.174 158.473C114.686 158.473 115.08 158.613 115.357 158.895C115.639 159.176 115.779 159.574 115.779 160.09C115.779 160.332 115.734 160.656 115.645 161.062C115.492 161.816 115.209 163.129 114.795 165H113.811ZM119.348 165.117C118.629 165.117 118.064 164.904 117.654 164.479C117.244 164.053 117.039 163.463 117.039 162.709C117.039 161.975 117.184 161.271 117.473 160.6C117.766 159.924 118.152 159.398 118.633 159.023C119.113 158.648 119.643 158.461 120.221 158.461C120.818 158.461 121.268 158.592 121.568 158.854C121.869 159.111 122.02 159.473 122.02 159.938C122.02 160.641 121.695 161.193 121.047 161.596C120.398 161.994 119.471 162.193 118.264 162.193H118.07L118.047 162.662C118.047 163.174 118.166 163.574 118.404 163.863C118.646 164.148 119.02 164.291 119.523 164.291C119.77 164.291 120.021 164.256 120.279 164.186C120.541 164.115 120.865 163.986 121.252 163.799V164.654C120.885 164.826 120.561 164.945 120.279 165.012C119.998 165.082 119.688 165.117 119.348 165.117ZM120.162 159.299C119.76 159.299 119.381 159.482 119.025 159.85C118.674 160.217 118.404 160.727 118.217 161.379H118.287C119.178 161.379 119.859 161.264 120.332 161.033C120.809 160.799 121.047 160.461 121.047 160.02C121.047 159.812 120.975 159.641 120.83 159.504C120.689 159.367 120.467 159.299 120.162 159.299ZM126.789 158.461C127.059 158.461 127.293 158.488 127.492 158.543L127.281 159.422C127.074 159.371 126.869 159.346 126.666 159.346C126.311 159.346 125.977 159.463 125.664 159.697C125.355 159.932 125.084 160.258 124.85 160.676C124.619 161.09 124.449 161.551 124.34 162.059L123.713 165H122.729L124.1 158.578H124.914L124.785 159.768H124.844C125.125 159.396 125.357 159.131 125.541 158.971C125.725 158.807 125.916 158.682 126.115 158.596C126.318 158.506 126.543 158.461 126.789 158.461ZM134.664 158.461C134.934 158.461 135.168 158.488 135.367 158.543L135.156 159.422C134.949 159.371 134.744 159.346 134.541 159.346C134.186 159.346 133.852 159.463 133.539 159.697C133.23 159.932 132.959 160.258 132.725 160.676C132.494 161.09 132.324 161.551 132.215 162.059L131.588 165H130.604L131.975 158.578H132.789L132.66 159.768H132.719C133 159.396 133.232 159.131 133.416 158.971C133.6 158.807 133.791 158.682 133.99 158.596C134.193 158.506 134.418 158.461 134.664 158.461ZM136.346 165H135.361L136.732 158.578H137.717L136.346 165ZM137.008 156.938C137.008 156.719 137.07 156.541 137.195 156.404C137.32 156.264 137.482 156.193 137.682 156.193C138.025 156.193 138.197 156.369 138.197 156.721C138.197 156.936 138.131 157.117 137.998 157.266C137.869 157.414 137.719 157.488 137.547 157.488C137.391 157.488 137.262 157.441 137.16 157.348C137.059 157.25 137.008 157.113 137.008 156.938ZM142.369 163.178C142.369 163.787 142.152 164.264 141.719 164.607C141.289 164.947 140.682 165.117 139.896 165.117C139.236 165.117 138.641 164.982 138.109 164.713V163.787C138.383 163.951 138.678 164.078 138.994 164.168C139.311 164.258 139.604 164.303 139.873 164.303C140.365 164.303 140.736 164.205 140.986 164.01C141.236 163.814 141.361 163.564 141.361 163.26C141.361 163.037 141.293 162.85 141.156 162.697C141.02 162.545 140.725 162.336 140.271 162.07C139.764 161.785 139.404 161.506 139.193 161.232C138.982 160.959 138.877 160.635 138.877 160.26C138.877 159.721 139.074 159.287 139.469 158.959C139.863 158.627 140.383 158.461 141.027 158.461C141.695 158.461 142.34 158.605 142.961 158.895L142.645 159.697L142.316 159.551C141.922 159.383 141.492 159.299 141.027 159.299C140.664 159.299 140.379 159.385 140.172 159.557C139.965 159.725 139.861 159.943 139.861 160.213C139.861 160.432 139.93 160.619 140.066 160.775C140.207 160.932 140.494 161.133 140.928 161.379C141.346 161.613 141.645 161.814 141.824 161.982C142.008 162.15 142.145 162.332 142.234 162.527C142.324 162.719 142.369 162.936 142.369 163.178ZM145.141 161.725L148.223 158.578H149.4L146.652 161.314L148.381 165H147.285L145.908 161.93L145.018 162.65L144.537 165H143.541L145.475 155.883H146.471C146.189 157.195 145.938 158.371 145.715 159.41C145.492 160.449 145.293 161.221 145.117 161.725H145.141ZM155.377 165.117C154.998 165.117 154.666 165.02 154.381 164.824C154.096 164.629 153.875 164.355 153.719 164.004H153.66L153.637 164.227C153.625 164.324 153.604 164.461 153.572 164.637C153.545 164.812 153.322 165.895 152.904 167.883H151.932L153.9 158.578H154.715L154.562 159.803H154.609C155.309 158.916 156.035 158.473 156.789 158.473C157.324 158.473 157.746 158.664 158.055 159.047C158.363 159.426 158.518 159.959 158.518 160.646C158.518 161.475 158.383 162.234 158.113 162.926C157.844 163.617 157.471 164.156 156.994 164.543C156.518 164.926 155.979 165.117 155.377 165.117ZM156.467 159.287C156.092 159.287 155.709 159.473 155.318 159.844C154.932 160.215 154.623 160.682 154.393 161.244C154.166 161.807 154.053 162.383 154.053 162.973C154.053 163.402 154.16 163.732 154.375 163.963C154.594 164.189 154.908 164.303 155.318 164.303C155.705 164.303 156.064 164.145 156.396 163.828C156.732 163.512 157.002 163.062 157.205 162.48C157.408 161.895 157.51 161.273 157.51 160.617C157.51 159.73 157.162 159.287 156.467 159.287ZM163.516 158.461C163.785 158.461 164.02 158.488 164.219 158.543L164.008 159.422C163.801 159.371 163.596 159.346 163.393 159.346C163.037 159.346 162.703 159.463 162.391 159.697C162.082 159.932 161.811 160.258 161.576 160.676C161.346 161.09 161.176 161.551 161.066 162.059L160.439 165H159.455L160.826 158.578H161.641L161.512 159.768H161.57C161.852 159.396 162.084 159.131 162.268 158.971C162.451 158.807 162.643 158.682 162.842 158.596C163.045 158.506 163.27 158.461 163.516 158.461ZM167.635 158.496C168.377 158.496 168.963 158.717 169.393 159.158C169.822 159.596 170.037 160.199 170.037 160.969C170.037 161.703 169.896 162.396 169.615 163.049C169.334 163.701 168.953 164.205 168.473 164.561C167.992 164.916 167.449 165.094 166.844 165.094C166.094 165.094 165.506 164.873 165.08 164.432C164.654 163.99 164.441 163.387 164.441 162.621C164.441 161.879 164.584 161.182 164.869 160.529C165.154 159.873 165.539 159.371 166.023 159.023C166.508 158.672 167.045 158.496 167.635 158.496ZM169.018 160.834C169.018 160.385 168.895 160.021 168.648 159.744C168.406 159.463 168.076 159.322 167.658 159.322C167.232 159.322 166.85 159.467 166.51 159.756C166.174 160.045 165.912 160.447 165.725 160.963C165.541 161.475 165.449 162.045 165.449 162.674C165.449 163.186 165.572 163.582 165.818 163.863C166.068 164.141 166.426 164.279 166.891 164.279C167.297 164.279 167.662 164.137 167.986 163.852C168.311 163.566 168.562 163.162 168.742 162.639C168.926 162.111 169.018 161.51 169.018 160.834ZM169.996 167.883C169.727 167.883 169.482 167.842 169.264 167.76V166.934C169.514 167.02 169.732 167.062 169.92 167.062C170.217 167.062 170.445 166.941 170.605 166.699C170.766 166.457 170.895 166.111 170.992 165.662L172.322 159.322H171.191L171.268 158.93L172.475 158.543L172.609 157.957C172.789 157.176 173.037 156.625 173.354 156.305C173.674 155.98 174.146 155.818 174.771 155.818C174.928 155.818 175.119 155.842 175.346 155.889C175.572 155.932 175.748 155.98 175.873 156.035L175.621 156.791C175.324 156.678 175.057 156.621 174.818 156.621C174.479 156.621 174.217 156.717 174.033 156.908C173.854 157.096 173.707 157.441 173.594 157.945L173.447 158.578H174.842L174.695 159.322H173.307L171.947 165.756C171.795 166.494 171.561 167.033 171.244 167.373C170.928 167.713 170.512 167.883 169.996 167.883ZM175.703 165H174.719L176.09 158.578H177.074L175.703 165ZM176.365 156.938C176.365 156.719 176.428 156.541 176.553 156.404C176.678 156.264 176.84 156.193 177.039 156.193C177.383 156.193 177.555 156.369 177.555 156.721C177.555 156.936 177.488 157.117 177.355 157.266C177.227 157.414 177.076 157.488 176.904 157.488C176.748 157.488 176.619 157.441 176.518 157.348C176.416 157.25 176.365 157.113 176.365 156.938ZM178.756 165H177.771L179.717 155.883H180.701L178.756 165ZM183.367 165.117C182.648 165.117 182.084 164.904 181.674 164.479C181.264 164.053 181.059 163.463 181.059 162.709C181.059 161.975 181.203 161.271 181.492 160.6C181.785 159.924 182.172 159.398 182.652 159.023C183.133 158.648 183.662 158.461 184.24 158.461C184.838 158.461 185.287 158.592 185.588 158.854C185.889 159.111 186.039 159.473 186.039 159.938C186.039 160.641 185.715 161.193 185.066 161.596C184.418 161.994 183.49 162.193 182.283 162.193H182.09L182.066 162.662C182.066 163.174 182.186 163.574 182.424 163.863C182.666 164.148 183.039 164.291 183.543 164.291C183.789 164.291 184.041 164.256 184.299 164.186C184.561 164.115 184.885 163.986 185.271 163.799V164.654C184.904 164.826 184.58 164.945 184.299 165.012C184.018 165.082 183.707 165.117 183.367 165.117ZM184.182 159.299C183.779 159.299 183.4 159.482 183.045 159.85C182.693 160.217 182.424 160.727 182.236 161.379H182.307C183.197 161.379 183.879 161.264 184.352 161.033C184.828 160.799 185.066 160.461 185.066 160.02C185.066 159.812 184.994 159.641 184.85 159.504C184.709 159.367 184.486 159.299 184.182 159.299ZM190.709 163.178C190.709 163.787 190.492 164.264 190.059 164.607C189.629 164.947 189.021 165.117 188.236 165.117C187.576 165.117 186.98 164.982 186.449 164.713V163.787C186.723 163.951 187.018 164.078 187.334 164.168C187.65 164.258 187.943 164.303 188.213 164.303C188.705 164.303 189.076 164.205 189.326 164.01C189.576 163.814 189.701 163.564 189.701 163.26C189.701 163.037 189.633 162.85 189.496 162.697C189.359 162.545 189.064 162.336 188.611 162.07C188.104 161.785 187.744 161.506 187.533 161.232C187.322 160.959 187.217 160.635 187.217 160.26C187.217 159.721 187.414 159.287 187.809 158.959C188.203 158.627 188.723 158.461 189.367 158.461C190.035 158.461 190.68 158.605 191.301 158.895L190.984 159.697L190.656 159.551C190.262 159.383 189.832 159.299 189.367 159.299C189.004 159.299 188.719 159.385 188.512 159.557C188.305 159.725 188.201 159.943 188.201 160.213C188.201 160.432 188.27 160.619 188.406 160.775C188.547 160.932 188.834 161.133 189.268 161.379C189.686 161.613 189.984 161.814 190.164 161.982C190.348 162.15 190.484 162.332 190.574 162.527C190.664 162.719 190.709 162.936 190.709 163.178Z" fill="#313131"/>
<path d="M45.793 139.062H88.0465" stroke="#11131B" stroke-width="3" stroke-linecap="round" stroke-linejoin="round"/>
<path d="M102.892 143L100.829 136.279H100.776C100.851 137.646 100.888 138.559 100.888 139.016V143H99.2646V134.434H101.737L103.765 140.984H103.8L105.95 134.434H108.423V143H106.729V138.945C106.729 138.754 106.731 138.533 106.735 138.283C106.743 138.033 106.771 137.369 106.817 136.291H106.765L104.556 143H102.892ZM113.157 137.598C112.778 137.598 112.481 137.719 112.267 137.961C112.052 138.199 111.929 138.539 111.897 138.98H114.405C114.397 138.539 114.282 138.199 114.06 137.961C113.837 137.719 113.536 137.598 113.157 137.598ZM113.409 143.117C112.354 143.117 111.53 142.826 110.937 142.244C110.343 141.662 110.046 140.838 110.046 139.771C110.046 138.674 110.319 137.826 110.866 137.229C111.417 136.627 112.177 136.326 113.146 136.326C114.071 136.326 114.792 136.59 115.308 137.117C115.823 137.645 116.081 138.373 116.081 139.303V140.17H111.856C111.876 140.678 112.026 141.074 112.308 141.359C112.589 141.645 112.983 141.787 113.491 141.787C113.886 141.787 114.259 141.746 114.61 141.664C114.962 141.582 115.329 141.451 115.712 141.271V142.654C115.399 142.811 115.065 142.926 114.71 143C114.354 143.078 113.921 143.117 113.409 143.117ZM119.608 143.117C118.839 143.117 118.233 142.818 117.792 142.221C117.354 141.623 117.136 140.795 117.136 139.736C117.136 138.662 117.358 137.826 117.804 137.229C118.253 136.627 118.87 136.326 119.655 136.326C120.479 136.326 121.108 136.646 121.542 137.287H121.601C121.511 136.799 121.466 136.363 121.466 135.98V133.883H123.259V143H121.888L121.542 142.15H121.466C121.06 142.795 120.44 143.117 119.608 143.117ZM120.235 141.693C120.692 141.693 121.026 141.561 121.237 141.295C121.452 141.029 121.569 140.578 121.589 139.941V139.748C121.589 139.045 121.479 138.541 121.261 138.236C121.046 137.932 120.694 137.779 120.206 137.779C119.808 137.779 119.497 137.949 119.274 138.289C119.056 138.625 118.946 139.115 118.946 139.76C118.946 140.404 119.058 140.889 119.28 141.213C119.503 141.533 119.821 141.693 120.235 141.693ZM125.052 134.756C125.052 134.174 125.376 133.883 126.024 133.883C126.673 133.883 126.997 134.174 126.997 134.756C126.997 135.033 126.915 135.25 126.751 135.406C126.591 135.559 126.349 135.635 126.024 135.635C125.376 135.635 125.052 135.342 125.052 134.756ZM126.915 143H125.128V136.449H126.915V143ZM133.437 143L133.196 142.162H133.103C132.911 142.467 132.64 142.703 132.288 142.871C131.937 143.035 131.536 143.117 131.087 143.117C130.317 143.117 129.737 142.912 129.347 142.502C128.956 142.088 128.761 141.494 128.761 140.721V136.449H130.548V140.275C130.548 140.748 130.632 141.104 130.8 141.342C130.968 141.576 131.235 141.693 131.603 141.693C132.103 141.693 132.464 141.527 132.687 141.195C132.909 140.859 133.021 140.305 133.021 139.531V136.449H134.808V143H133.437ZM142.548 143H140.761V139.174C140.761 138.701 140.681 138.348 140.521 138.113C140.364 137.875 140.116 137.756 139.776 137.756C139.319 137.756 138.987 137.924 138.78 138.26C138.573 138.596 138.47 139.148 138.47 139.918V143H136.683V136.449H138.048L138.288 137.287H138.388C138.563 136.986 138.817 136.752 139.149 136.584C139.481 136.412 139.862 136.326 140.292 136.326C141.272 136.326 141.937 136.646 142.284 137.287H142.442C142.618 136.982 142.876 136.746 143.216 136.578C143.56 136.41 143.946 136.326 144.376 136.326C145.118 136.326 145.679 136.518 146.058 136.9C146.44 137.279 146.632 137.889 146.632 138.729V143H144.839V139.174C144.839 138.701 144.759 138.348 144.599 138.113C144.442 137.875 144.194 137.756 143.854 137.756C143.417 137.756 143.089 137.912 142.87 138.225C142.655 138.537 142.548 139.033 142.548 139.713V143ZM155.245 136.326C155.487 136.326 155.688 136.344 155.849 136.379L155.714 138.055C155.569 138.016 155.394 137.996 155.187 137.996C154.616 137.996 154.171 138.143 153.851 138.436C153.534 138.729 153.376 139.139 153.376 139.666V143H151.589V136.449H152.942L153.206 137.551H153.294C153.497 137.184 153.771 136.889 154.114 136.666C154.462 136.439 154.839 136.326 155.245 136.326ZM156.962 134.756C156.962 134.174 157.286 133.883 157.935 133.883C158.583 133.883 158.907 134.174 158.907 134.756C158.907 135.033 158.825 135.25 158.661 135.406C158.501 135.559 158.259 135.635 157.935 135.635C157.286 135.635 156.962 135.342 156.962 134.756ZM158.825 143H157.038V136.449H158.825V143ZM165.276 141.055C165.276 141.727 165.042 142.238 164.573 142.59C164.108 142.941 163.411 143.117 162.481 143.117C162.005 143.117 161.599 143.084 161.263 143.018C160.927 142.955 160.612 142.861 160.319 142.736V141.26C160.651 141.416 161.024 141.547 161.438 141.652C161.856 141.758 162.224 141.811 162.54 141.811C163.188 141.811 163.513 141.623 163.513 141.248C163.513 141.107 163.47 140.994 163.384 140.908C163.298 140.818 163.149 140.719 162.938 140.609C162.728 140.496 162.446 140.365 162.095 140.217C161.591 140.006 161.22 139.811 160.981 139.631C160.747 139.451 160.575 139.246 160.466 139.016C160.36 138.781 160.308 138.494 160.308 138.154C160.308 137.572 160.532 137.123 160.981 136.807C161.435 136.486 162.075 136.326 162.903 136.326C163.692 136.326 164.46 136.498 165.206 136.842L164.667 138.131C164.339 137.99 164.032 137.875 163.747 137.785C163.462 137.695 163.171 137.65 162.874 137.65C162.347 137.65 162.083 137.793 162.083 138.078C162.083 138.238 162.167 138.377 162.335 138.494C162.507 138.611 162.88 138.785 163.454 139.016C163.966 139.223 164.341 139.416 164.579 139.596C164.817 139.775 164.993 139.982 165.106 140.217C165.22 140.451 165.276 140.73 165.276 141.055ZM168.388 139.438L169.167 138.441L171.001 136.449H173.017L170.415 139.291L173.175 143H171.112L169.226 140.346L168.458 140.961V143H166.671V133.883H168.458V137.949L168.364 139.438H168.388Z" fill="#313131"/>
<path d="M45.793 178.956H88.0465" stroke="#0076FF" stroke-width="3" stroke-linecap="round" stroke-linejoin="round" stroke-dasharray="4 7"/>
<path d="M102.879 176.532C102.199 176.532 101.59 176.722 101.051 177.101C100.516 177.479 100.09 178.036 99.7734 178.771C99.4609 179.501 99.3047 180.298 99.3047 181.161C99.3047 181.892 99.4941 182.476 99.873 182.913C100.256 183.347 100.781 183.563 101.449 183.563C101.992 183.563 102.621 183.452 103.336 183.229V184.103C103 184.224 102.68 184.312 102.375 184.366C102.07 184.421 101.703 184.448 101.273 184.448C100.328 184.448 99.5859 184.157 99.0469 183.575C98.5078 182.989 98.2383 182.192 98.2383 181.185C98.2383 180.165 98.4434 179.218 98.8535 178.343C99.2676 177.464 99.8223 176.794 100.518 176.333C101.213 175.872 102 175.642 102.879 175.642C103.648 175.642 104.328 175.798 104.918 176.11L104.514 176.937C103.975 176.667 103.43 176.532 102.879 176.532ZM108.123 177.792C108.482 177.792 108.803 177.89 109.084 178.085C109.365 178.276 109.584 178.554 109.74 178.917H109.805L110.197 177.909H110.941L109.576 184.331H108.797L108.949 183.106H108.902C108.203 184.001 107.467 184.448 106.693 184.448C106.15 184.448 105.725 184.255 105.416 183.868C105.107 183.481 104.953 182.952 104.953 182.28C104.953 181.468 105.092 180.714 105.369 180.019C105.646 179.323 106.029 178.778 106.518 178.384C107.006 177.989 107.541 177.792 108.123 177.792ZM107.01 183.634C107.389 183.634 107.766 183.454 108.141 183.095C108.516 182.731 108.82 182.261 109.055 181.683C109.289 181.101 109.406 180.519 109.406 179.937C109.406 179.534 109.297 179.214 109.078 178.976C108.859 178.737 108.572 178.618 108.217 178.618C107.811 178.618 107.432 178.786 107.08 179.122C106.732 179.458 106.459 179.913 106.26 180.487C106.061 181.062 105.961 181.667 105.961 182.304C105.961 182.749 106.053 183.083 106.236 183.306C106.42 183.524 106.678 183.634 107.01 183.634ZM115.471 182.509C115.471 183.118 115.254 183.595 114.82 183.938C114.391 184.278 113.783 184.448 112.998 184.448C112.338 184.448 111.742 184.313 111.211 184.044V183.118C111.484 183.282 111.779 183.409 112.096 183.499C112.412 183.589 112.705 183.634 112.975 183.634C113.467 183.634 113.838 183.536 114.088 183.341C114.338 183.146 114.463 182.896 114.463 182.591C114.463 182.368 114.395 182.181 114.258 182.028C114.121 181.876 113.826 181.667 113.373 181.401C112.865 181.116 112.506 180.837 112.295 180.563C112.084 180.29 111.979 179.966 111.979 179.591C111.979 179.052 112.176 178.618 112.57 178.29C112.965 177.958 113.484 177.792 114.129 177.792C114.797 177.792 115.441 177.937 116.062 178.226L115.746 179.028L115.418 178.882C115.023 178.714 114.594 178.63 114.129 178.63C113.766 178.63 113.48 178.716 113.273 178.888C113.066 179.056 112.963 179.274 112.963 179.544C112.963 179.763 113.031 179.95 113.168 180.106C113.309 180.263 113.596 180.464 114.029 180.71C114.447 180.944 114.746 181.146 114.926 181.313C115.109 181.481 115.246 181.663 115.336 181.858C115.426 182.05 115.471 182.267 115.471 182.509ZM120.58 184.331L121.447 180.276C121.518 179.909 121.553 179.646 121.553 179.485C121.553 178.907 121.266 178.618 120.691 178.618C120.344 178.618 120.004 178.733 119.672 178.964C119.344 179.194 119.053 179.53 118.799 179.972C118.549 180.409 118.359 180.938 118.23 181.56L117.639 184.331H116.654L118.588 175.214H119.572C119.502 175.534 119.434 175.845 119.367 176.146C119.305 176.446 119.238 176.753 119.168 177.065C119.102 177.374 119.027 177.698 118.945 178.038C118.867 178.378 118.775 178.747 118.67 179.146H118.734C119.102 178.665 119.463 178.321 119.818 178.114C120.178 177.907 120.553 177.804 120.943 177.804C121.455 177.804 121.85 177.944 122.127 178.226C122.408 178.507 122.549 178.905 122.549 179.421C122.549 179.663 122.504 179.987 122.414 180.394C122.262 181.147 121.979 182.46 121.564 184.331H120.58Z" fill="#313131"/>
<path d="M23.0107 412.736L35.0548 422.332L47.0989 367.678L58.8811 353.076L70.9252 381.237L82.9692 415.239L95.0133 402.514L106.796 388.538L118.84 378.525L130.884 361.837L142.928 355.162L154.71 330.338L166.754 338.265L178.798 335.553L190.842 352.658L202.624 340.768L214.668 319.908L226.713 325.332L238.757 291.121L250.539 282.568L262.583 282.777L274.627 277.77L286.671 286.74L298.715 285.071L310.497 285.906L322.541 274.85L334.585 253.572L346.63 249.192L358.412 242.725L370.456 236.467L382.5 246.897L394.544 265.254L406.326 245.02L418.37 238.136L430.414 239.387L442.458 224.994L454.241 221.03L466.285 218.11L478.329 261.916L490.373 255.033L502.155 305.723L514.199 256.493L526.243 235.215L538.287 215.189" stroke="#11131B" stroke-width="2.5" stroke-miterlimit="6.07152"/>
<path opacity="0.4" d="M23.0654 412.247L35.1095 417.218L47.1536 384.491L58.9358 373.72L70.9799 393.397L83.0239 411.832L95.068 400.854L106.85 393.605L118.894 384.491L130.938 375.998L142.982 367.299L154.765 352.178L166.809 361.706L178.853 359.22L190.897 374.963L202.679 372.477L214.723 362.534L226.767 370.82L238.811 352.178L250.594 350.935L262.638 351.971L274.682 348.656L286.726 353.835L298.77 354.042L310.552 352.799L322.596 350.521L334.64 340.785L346.684 338.093L358.466 337.264L370.51 338.3L382.555 345.964L394.599 350.935L406.381 343.892L418.425 346.585L430.469 344.928L442.513 340.578L454.295 341.821L466.339 340.578L478.383 361.499L490.427 357.356L502.21 378.898L514.254 353.628L526.298 344.1L538.342 328.564" stroke="#AAAAAA" stroke-width="2" stroke-miterlimit="6.07152"/>
<path opacity="0.5" d="M22.9717 412.802L35.0157 422.601L47.0598 351.921L58.842 337.118L70.8861 366.099L82.9302 415.929L94.9742 394.246L106.756 370.06L118.801 354.006L130.845 334.407L142.889 327.944L154.671 295.418L166.715 304.384L178.759 300.839L190.803 321.689L202.585 303.967L214.629 278.947L226.673 284.159L238.718 238.707L250.5 228.699L262.544 229.742L274.588 225.572L286.632 235.58L298.676 233.078L310.458 233.286L322.502 219.109L334.546 191.587L346.59 184.915L358.373 174.907L370.417 162.815L382.461 180.12L394.505 205.556L406.287 178.66L418.331 164.274L430.375 167.401L442.419 148.22L454.202 140.922L466.246 137.378L478.29 190.962L490.334 182.622L502.116 250.592L514.16 186.792L526.204 156.768L538.248 133.625" stroke="#AAAAAA" stroke-width="2" stroke-miterlimit="6.07152"/>
<path d="M371.072 462.053V452.059H372.234V462.053H371.072ZM379.939 462.053V457.206C379.939 456.595 379.8 456.14 379.522 455.839C379.244 455.538 378.808 455.388 378.216 455.388C377.432 455.388 376.858 455.6 376.493 456.023C376.129 456.447 375.946 457.147 375.946 458.122V462.053H374.812V454.561H375.734L375.919 455.586H375.974C376.206 455.217 376.532 454.932 376.951 454.731C377.371 454.526 377.838 454.424 378.353 454.424C379.255 454.424 379.934 454.643 380.39 455.08C380.845 455.513 381.073 456.208 381.073 457.165V462.053H379.939ZM385.052 462.053L382.208 454.561H383.425L385.038 459.004C385.403 460.043 385.617 460.717 385.681 461.027H385.735C385.786 460.786 385.943 460.287 386.207 459.53C386.476 458.769 387.075 457.113 388.005 454.561H389.222L386.378 462.053H385.052ZM393.59 462.189C392.483 462.189 391.608 461.852 390.965 461.178C390.327 460.503 390.008 459.567 390.008 458.368C390.008 457.16 390.304 456.201 390.897 455.49C391.494 454.779 392.293 454.424 393.296 454.424C394.235 454.424 394.978 454.734 395.525 455.354C396.071 455.969 396.345 456.782 396.345 457.794V458.512H391.184C391.206 459.391 391.428 460.059 391.847 460.515C392.271 460.97 392.865 461.198 393.631 461.198C394.438 461.198 395.235 461.03 396.024 460.692V461.704C395.623 461.877 395.242 462 394.882 462.073C394.526 462.151 394.096 462.189 393.59 462.189ZM393.282 455.374C392.681 455.374 392.2 455.57 391.84 455.962C391.484 456.354 391.275 456.896 391.211 457.589H395.128C395.128 456.873 394.969 456.326 394.65 455.948C394.331 455.565 393.875 455.374 393.282 455.374ZM403.119 460.009C403.119 460.706 402.859 461.244 402.34 461.622C401.82 462 401.091 462.189 400.152 462.189C399.159 462.189 398.384 462.032 397.828 461.718V460.665C398.188 460.847 398.573 460.991 398.984 461.096C399.398 461.201 399.797 461.253 400.18 461.253C400.772 461.253 401.228 461.16 401.547 460.973C401.866 460.781 402.025 460.492 402.025 460.104C402.025 459.813 401.898 459.564 401.643 459.359C401.392 459.15 400.9 458.904 400.166 458.621C399.469 458.361 398.972 458.136 398.676 457.944C398.384 457.748 398.165 457.527 398.02 457.281C397.878 457.035 397.808 456.741 397.808 456.399C397.808 455.789 398.056 455.308 398.553 454.957C399.05 454.602 399.731 454.424 400.597 454.424C401.403 454.424 402.192 454.588 402.962 454.916L402.559 455.839C401.807 455.529 401.125 455.374 400.515 455.374C399.977 455.374 399.571 455.458 399.298 455.627C399.025 455.796 398.888 456.028 398.888 456.324C398.888 456.525 398.938 456.696 399.038 456.837C399.143 456.978 399.309 457.113 399.537 457.24C399.765 457.368 400.203 457.552 400.85 457.794C401.738 458.118 402.338 458.443 402.648 458.771C402.962 459.1 403.119 459.512 403.119 460.009ZM407.392 461.253C407.592 461.253 407.786 461.239 407.973 461.212C408.16 461.18 408.308 461.148 408.417 461.116V461.984C408.294 462.044 408.112 462.091 407.87 462.128C407.633 462.169 407.419 462.189 407.228 462.189C405.778 462.189 405.054 461.426 405.054 459.899V455.442H403.981V454.896L405.054 454.424L405.532 452.824H406.189V454.561H408.362V455.442H406.189V459.852C406.189 460.303 406.296 460.649 406.51 460.891C406.724 461.132 407.018 461.253 407.392 461.253ZM419.471 462.053V457.179C419.471 456.582 419.343 456.135 419.088 455.839C418.833 455.538 418.436 455.388 417.899 455.388C417.192 455.388 416.67 455.59 416.333 455.996C415.996 456.402 415.827 457.026 415.827 457.869V462.053H414.692V457.179C414.692 456.582 414.565 456.135 414.31 455.839C414.054 455.538 413.656 455.388 413.113 455.388C412.402 455.388 411.881 455.602 411.548 456.03C411.22 456.454 411.056 457.151 411.056 458.122V462.053H409.921V454.561H410.844L411.028 455.586H411.083C411.297 455.221 411.598 454.937 411.985 454.731C412.377 454.526 412.815 454.424 413.298 454.424C414.469 454.424 415.235 454.848 415.595 455.695H415.65C415.873 455.303 416.196 454.993 416.62 454.766C417.044 454.538 417.527 454.424 418.069 454.424C418.917 454.424 419.551 454.643 419.97 455.08C420.394 455.513 420.606 456.208 420.606 457.165V462.053H419.471ZM426.115 462.189C425.008 462.189 424.133 461.852 423.49 461.178C422.852 460.503 422.533 459.567 422.533 458.368C422.533 457.16 422.83 456.201 423.422 455.49C424.019 454.779 424.819 454.424 425.821 454.424C426.76 454.424 427.503 454.734 428.05 455.354C428.597 455.969 428.87 456.782 428.87 457.794V458.512H423.709C423.732 459.391 423.953 460.059 424.372 460.515C424.796 460.97 425.391 461.198 426.156 461.198C426.963 461.198 427.761 461.03 428.549 460.692V461.704C428.148 461.877 427.767 462 427.407 462.073C427.052 462.151 426.621 462.189 426.115 462.189ZM425.808 455.374C425.206 455.374 424.725 455.57 424.365 455.962C424.01 456.354 423.8 456.896 423.736 457.589H427.653C427.653 456.873 427.494 456.326 427.175 455.948C426.856 455.565 426.4 455.374 425.808 455.374ZM435.939 462.053V457.206C435.939 456.595 435.8 456.14 435.522 455.839C435.244 455.538 434.808 455.388 434.216 455.388C433.432 455.388 432.858 455.6 432.493 456.023C432.129 456.447 431.946 457.147 431.946 458.122V462.053H430.812V454.561H431.734L431.919 455.586H431.974C432.206 455.217 432.532 454.932 432.951 454.731C433.371 454.526 433.838 454.424 434.353 454.424C435.255 454.424 435.934 454.643 436.39 455.08C436.845 455.513 437.073 456.208 437.073 457.165V462.053H435.939ZM441.831 461.253C442.032 461.253 442.225 461.239 442.412 461.212C442.599 461.18 442.747 461.148 442.857 461.116V461.984C442.734 462.044 442.551 462.091 442.31 462.128C442.073 462.169 441.859 462.189 441.667 462.189C440.218 462.189 439.493 461.426 439.493 459.899V455.442H438.42V454.896L439.493 454.424L439.972 452.824H440.628V454.561H442.802V455.442H440.628V459.852C440.628 460.303 440.735 460.649 440.949 460.891C441.164 461.132 441.457 461.253 441.831 461.253ZM451.484 462.189C450.996 462.189 450.549 462.101 450.144 461.923C449.743 461.741 449.405 461.463 449.132 461.089H449.05C449.105 461.526 449.132 461.941 449.132 462.333V465.416H447.997V454.561H448.92L449.077 455.586H449.132C449.424 455.176 449.763 454.88 450.15 454.697C450.538 454.515 450.982 454.424 451.484 454.424C452.477 454.424 453.243 454.763 453.78 455.442C454.323 456.121 454.594 457.074 454.594 458.3C454.594 459.53 454.318 460.487 453.767 461.171C453.22 461.85 452.459 462.189 451.484 462.189ZM451.319 455.388C450.554 455.388 450 455.6 449.658 456.023C449.317 456.447 449.141 457.122 449.132 458.047V458.3C449.132 459.353 449.307 460.107 449.658 460.562C450.009 461.014 450.572 461.239 451.347 461.239C451.994 461.239 452.5 460.977 452.864 460.453C453.234 459.929 453.418 459.207 453.418 458.286C453.418 457.352 453.234 456.636 452.864 456.14C452.5 455.638 451.985 455.388 451.319 455.388ZM459.748 462.189C458.641 462.189 457.766 461.852 457.123 461.178C456.485 460.503 456.166 459.567 456.166 458.368C456.166 457.16 456.462 456.201 457.055 455.49C457.652 454.779 458.452 454.424 459.454 454.424C460.393 454.424 461.136 454.734 461.683 455.354C462.23 455.969 462.503 456.782 462.503 457.794V458.512H457.342C457.365 459.391 457.586 460.059 458.005 460.515C458.429 460.97 459.024 461.198 459.789 461.198C460.596 461.198 461.393 461.03 462.182 460.692V461.704C461.781 461.877 461.4 462 461.04 462.073C460.685 462.151 460.254 462.189 459.748 462.189ZM459.441 455.374C458.839 455.374 458.358 455.57 457.998 455.962C457.643 456.354 457.433 456.896 457.369 457.589H461.286C461.286 456.873 461.127 456.326 460.808 455.948C460.489 455.565 460.033 455.374 459.441 455.374ZM467.862 454.424C468.195 454.424 468.494 454.451 468.758 454.506L468.601 455.559C468.291 455.49 468.017 455.456 467.78 455.456C467.174 455.456 466.655 455.702 466.222 456.194C465.793 456.687 465.579 457.299 465.579 458.033V462.053H464.444V454.561H465.381L465.511 455.948H465.566C465.844 455.461 466.178 455.085 466.57 454.82C466.962 454.556 467.393 454.424 467.862 454.424ZM471.294 462.053H470.159V454.561H471.294V462.053ZM470.064 452.53C470.064 452.271 470.127 452.081 470.255 451.963C470.383 451.84 470.542 451.778 470.734 451.778C470.916 451.778 471.073 451.84 471.205 451.963C471.337 452.086 471.403 452.275 471.403 452.53C471.403 452.785 471.337 452.977 471.205 453.104C471.073 453.228 470.916 453.289 470.734 453.289C470.542 453.289 470.383 453.228 470.255 453.104C470.127 452.977 470.064 452.785 470.064 452.53ZM480.167 458.3C480.167 459.521 479.859 460.476 479.244 461.164C478.629 461.848 477.779 462.189 476.694 462.189C476.025 462.189 475.43 462.032 474.91 461.718C474.391 461.403 473.99 460.952 473.707 460.364C473.425 459.776 473.283 459.088 473.283 458.3C473.283 457.078 473.589 456.128 474.199 455.449C474.81 454.766 475.658 454.424 476.742 454.424C477.79 454.424 478.622 454.772 479.237 455.47C479.857 456.167 480.167 457.11 480.167 458.3ZM474.459 458.3C474.459 459.257 474.65 459.986 475.033 460.487C475.416 460.989 475.979 461.239 476.722 461.239C477.465 461.239 478.027 460.991 478.41 460.494C478.798 459.993 478.991 459.261 478.991 458.3C478.991 457.347 478.798 456.625 478.41 456.133C478.027 455.636 477.46 455.388 476.708 455.388C475.965 455.388 475.405 455.632 475.026 456.119C474.648 456.607 474.459 457.334 474.459 458.3ZM487.263 461.048H487.201C486.677 461.809 485.893 462.189 484.85 462.189C483.87 462.189 483.107 461.854 482.56 461.185C482.017 460.515 481.746 459.562 481.746 458.327C481.746 457.092 482.02 456.133 482.567 455.449C483.113 454.766 483.874 454.424 484.85 454.424C485.866 454.424 486.645 454.793 487.188 455.531H487.276L487.229 454.991L487.201 454.465V451.416H488.336V462.053H487.413L487.263 461.048ZM484.993 461.239C485.768 461.239 486.329 461.03 486.675 460.61C487.026 460.187 487.201 459.505 487.201 458.566V458.327C487.201 457.265 487.024 456.509 486.668 456.058C486.317 455.602 485.754 455.374 484.98 455.374C484.314 455.374 483.804 455.634 483.448 456.153C483.097 456.668 482.922 457.397 482.922 458.341C482.922 459.298 483.097 460.02 483.448 460.508C483.799 460.995 484.314 461.239 484.993 461.239ZM493.743 458.218C493.743 457.01 493.919 455.88 494.27 454.827C494.625 453.774 495.136 452.852 495.801 452.059H496.908C496.252 452.938 495.758 453.904 495.425 454.957C495.097 456.01 494.933 457.092 494.933 458.204C494.933 459.298 495.101 460.367 495.439 461.41C495.776 462.454 496.261 463.406 496.895 464.268H495.801C495.131 463.493 494.621 462.588 494.27 461.554C493.919 460.519 493.743 459.407 493.743 458.218ZM501.242 457.056L503.908 452.059H505.166L501.83 458.177V462.053H500.654V458.231L497.325 452.059H498.597L501.242 457.056ZM509.541 462.189C508.434 462.189 507.559 461.852 506.916 461.178C506.278 460.503 505.959 459.567 505.959 458.368C505.959 457.16 506.255 456.201 506.848 455.49C507.445 454.779 508.245 454.424 509.247 454.424C510.186 454.424 510.929 454.734 511.476 455.354C512.023 455.969 512.296 456.782 512.296 457.794V458.512H507.135C507.158 459.391 507.379 460.059 507.798 460.515C508.222 460.97 508.817 461.198 509.582 461.198C510.389 461.198 511.186 461.03 511.975 460.692V461.704C511.574 461.877 511.193 462 510.833 462.073C510.478 462.151 510.047 462.189 509.541 462.189ZM509.234 455.374C508.632 455.374 508.151 455.57 507.791 455.962C507.436 456.354 507.226 456.896 507.162 457.589H511.079C511.079 456.873 510.92 456.326 510.601 455.948C510.282 455.565 509.826 455.374 509.234 455.374ZM518.845 462.053L518.619 460.986H518.565C518.191 461.456 517.817 461.775 517.443 461.943C517.074 462.107 516.612 462.189 516.056 462.189C515.313 462.189 514.73 461.998 514.306 461.615C513.887 461.232 513.677 460.688 513.677 459.981C513.677 458.468 514.887 457.675 517.307 457.603L518.578 457.562V457.097C518.578 456.509 518.451 456.076 518.195 455.798C517.945 455.515 517.541 455.374 516.985 455.374C516.361 455.374 515.655 455.565 514.866 455.948L514.518 455.08C514.887 454.88 515.29 454.722 515.728 454.608C516.17 454.494 516.612 454.438 517.054 454.438C517.947 454.438 518.608 454.636 519.036 455.032C519.469 455.429 519.686 456.064 519.686 456.939V462.053H518.845ZM516.281 461.253C516.988 461.253 517.541 461.059 517.942 460.672C518.348 460.285 518.551 459.742 518.551 459.045V458.368L517.416 458.416C516.514 458.448 515.862 458.589 515.461 458.84C515.065 459.086 514.866 459.471 514.866 459.995C514.866 460.405 514.989 460.717 515.235 460.932C515.486 461.146 515.835 461.253 516.281 461.253ZM525.448 454.424C525.781 454.424 526.08 454.451 526.344 454.506L526.187 455.559C525.877 455.49 525.603 455.456 525.366 455.456C524.76 455.456 524.241 455.702 523.808 456.194C523.379 456.687 523.165 457.299 523.165 458.033V462.053H522.03V454.561H522.967L523.097 455.948H523.151C523.429 455.461 523.764 455.085 524.156 454.82C524.548 454.556 524.979 454.424 525.448 454.424ZM532.578 460.009C532.578 460.706 532.318 461.244 531.799 461.622C531.279 462 530.55 462.189 529.611 462.189C528.618 462.189 527.843 462.032 527.287 461.718V460.665C527.647 460.847 528.032 460.991 528.442 461.096C528.857 461.201 529.256 461.253 529.639 461.253C530.231 461.253 530.687 461.16 531.006 460.973C531.325 460.781 531.484 460.492 531.484 460.104C531.484 459.813 531.357 459.564 531.102 459.359C530.851 459.15 530.359 458.904 529.625 458.621C528.928 458.361 528.431 458.136 528.135 457.944C527.843 457.748 527.624 457.527 527.479 457.281C527.337 457.035 527.267 456.741 527.267 456.399C527.267 455.789 527.515 455.308 528.012 454.957C528.509 454.602 529.19 454.424 530.056 454.424C530.862 454.424 531.651 454.588 532.421 454.916L532.018 455.839C531.266 455.529 530.584 455.374 529.974 455.374C529.436 455.374 529.03 455.458 528.757 455.627C528.484 455.796 528.347 456.028 528.347 456.324C528.347 456.525 528.397 456.696 528.497 456.837C528.602 456.978 528.768 457.113 528.996 457.24C529.224 457.368 529.662 457.552 530.309 457.794C531.197 458.118 531.797 458.443 532.107 458.771C532.421 459.1 532.578 459.512 532.578 460.009ZM536.81 458.218C536.81 459.416 536.632 460.533 536.276 461.567C535.926 462.602 535.417 463.502 534.752 464.268H533.658C534.292 463.411 534.777 462.461 535.114 461.417C535.452 460.369 535.62 459.298 535.62 458.204C535.62 457.092 535.454 456.01 535.121 454.957C534.793 453.904 534.301 452.938 533.645 452.059H534.752C535.422 452.856 535.932 453.784 536.283 454.841C536.634 455.894 536.81 457.019 536.81 458.218Z" fill="#545454"/>
<path d="M10.8437 190.63L15 190.63L15 191.792L5.00586 191.792L5.00586 189.051C5.00586 187.825 5.24056 186.92 5.70996 186.337C6.17936 185.749 6.88574 185.455 7.8291 185.455C9.15072 185.455 10.0439 186.125 10.5088 187.465L15 184.751L15 186.125L10.8437 188.545L10.8437 190.63ZM9.8457 190.63L9.8457 189.037C9.8457 188.217 9.68392 187.615 9.36035 187.232C9.03223 186.849 8.54232 186.658 7.89062 186.658C7.22982 186.658 6.75358 186.854 6.46191 187.246C6.17025 187.633 6.02441 188.258 6.02441 189.119L6.02441 190.63L9.8457 190.63ZM15.1367 180.143C15.1367 181.251 14.7995 182.126 14.125 182.768C13.4505 183.406 12.514 183.725 11.3154 183.725C10.1077 183.725 9.14844 183.429 8.4375 182.837C7.72656 182.24 7.37109 181.44 7.37109 180.437C7.37109 179.499 7.68099 178.756 8.30078 178.209C8.91601 177.662 9.72949 177.389 10.7412 177.389L11.459 177.389L11.459 182.55C12.3385 182.527 13.0062 182.306 13.4619 181.887C13.9176 181.463 14.1455 180.868 14.1455 180.102C14.1455 179.296 13.9769 178.498 13.6396 177.71L14.6514 177.71C14.8245 178.111 14.9476 178.491 15.0205 178.851C15.098 179.207 15.1367 179.638 15.1367 180.143ZM8.32129 180.451C8.32129 181.053 8.51725 181.533 8.90918 181.893C9.30111 182.249 9.84342 182.458 10.5361 182.522L10.5361 178.605C9.82064 178.605 9.27376 178.765 8.89551 179.084C8.51269 179.403 8.32129 179.859 8.32129 180.451ZM14.2002 173.027C14.2002 172.827 14.1865 172.633 14.1592 172.446C14.1273 172.259 14.0954 172.111 14.0635 172.002L14.9316 172.002C14.9909 172.125 15.0387 172.307 15.0752 172.549C15.1162 172.786 15.1367 173 15.1367 173.191C15.1367 174.64 14.3734 175.365 12.8467 175.365L8.38965 175.365L8.38965 176.438L7.84277 176.438L7.37109 175.365L5.77148 174.887L5.77148 174.23L7.50781 174.23L7.50781 172.056L8.38965 172.056L8.38965 174.23L12.7988 174.23C13.25 174.23 13.5964 174.123 13.8379 173.909C14.0794 173.695 14.2002 173.401 14.2002 173.027ZM7.50781 169.431L12.3682 169.431C12.9788 169.431 13.4346 169.292 13.7354 169.014C14.0361 168.736 14.1865 168.301 14.1865 167.709C14.1865 166.925 13.9723 166.353 13.5439 165.993C13.1156 165.628 12.416 165.446 11.4453 165.446L7.50781 165.446L7.50781 164.311L15 164.311L15 165.248L13.9951 165.412L13.9951 165.473C14.3643 165.706 14.6468 166.029 14.8428 166.444C15.0387 166.854 15.1367 167.324 15.1367 167.852C15.1367 168.764 14.9202 169.447 14.4873 169.903C14.0544 170.354 13.3617 170.58 12.4092 170.58L7.50781 170.58L7.50781 169.431ZM7.37109 158.48C7.37109 158.148 7.39844 157.849 7.45312 157.585L8.50586 157.742C8.4375 158.052 8.40332 158.325 8.40332 158.562C8.40332 159.168 8.64941 159.688 9.1416 160.121C9.63379 160.549 10.2467 160.764 10.9805 160.764L15 160.764L15 161.898L7.50781 161.898L7.50781 160.962L8.89551 160.832L8.89551 160.777C8.40788 160.499 8.0319 160.164 7.76758 159.772C7.50325 159.38 7.37109 158.95 7.37109 158.48ZM15 151.056L10.1533 151.056C9.54264 151.056 9.08691 151.195 8.78613 151.473C8.48535 151.751 8.33496 152.187 8.33496 152.779C8.33496 153.563 8.54687 154.137 8.9707 154.502C9.39453 154.866 10.0941 155.049 11.0693 155.049L15 155.049L15 156.183L7.50781 156.183L7.50781 155.261L8.5332 155.076L8.5332 155.021C8.16406 154.789 7.87923 154.463 7.67871 154.044C7.47363 153.625 7.37109 153.157 7.37109 152.642C7.37109 151.74 7.58984 151.061 8.02734 150.605C8.46028 150.15 9.15527 149.922 10.1123 149.922L15 149.922L15 151.056ZM7.98633 143.496C8.76107 143.496 9.34212 143.412 9.72949 143.243C10.1169 143.074 10.3105 142.801 10.3105 142.423C10.3105 141.675 9.5358 141.302 7.98633 141.302C6.44596 141.302 5.67578 141.675 5.67578 142.423C5.67578 142.801 5.86718 143.074 6.25 143.243C6.63281 143.412 7.21159 143.496 7.98633 143.496ZM7.98633 140.365C9.02539 140.365 9.81152 140.541 10.3447 140.891C10.8734 141.238 11.1377 141.748 11.1377 142.423C11.1377 143.061 10.8665 143.557 10.3242 143.913C9.7819 144.264 9.0026 144.439 7.98633 144.439C6.95182 144.439 6.17252 144.271 5.64843 143.933C5.12435 143.592 4.8623 143.088 4.8623 142.423C4.8623 141.762 5.13346 141.254 5.67578 140.898C6.2181 140.543 6.98828 140.365 7.98633 140.365ZM11.9922 137.48C12.7715 137.48 13.3548 137.396 13.7422 137.227C14.125 137.059 14.3164 136.783 14.3164 136.4C14.3164 136.017 14.1273 135.735 13.749 135.553C13.3662 135.37 12.7806 135.279 11.9922 135.279C11.2129 135.279 10.6364 135.37 10.2627 135.553C9.88444 135.735 9.69531 136.017 9.69531 136.4C9.69531 136.783 9.88444 137.059 10.2627 137.227C10.6364 137.396 11.2129 137.48 11.9922 137.48ZM11.9922 134.343C13.0267 134.343 13.8105 134.518 14.3437 134.869C14.8724 135.215 15.1367 135.726 15.1367 136.4C15.1367 137.047 14.8656 137.546 14.3232 137.897C13.7809 138.244 13.0039 138.417 11.9922 138.417C10.9577 138.417 10.1784 138.248 9.65429 137.911C9.13021 137.569 8.86816 137.066 8.86816 136.4C8.86816 135.753 9.13704 135.25 9.6748 134.889C10.208 134.525 10.9805 134.343 11.9922 134.343ZM5.00586 136.106L15 141.65L15 142.655L5.00586 137.111L5.00586 136.106Z" fill="#545454"/>
<path d="M23.8154 433.555V437.179M514.801 433.555V437.179V433.555ZM479.553 433.555V437.179V433.555ZM444.56 433.555V437.179V433.555ZM409.546 433.555V437.179V433.555ZM374.297 433.555V437.179V433.555ZM339.305 433.555V437.179V433.555ZM304.354 433.555V437.179V433.555ZM269.34 433.555V437.179V433.555ZM234.028 433.555V437.179V433.555ZM199.035 433.555V437.179V433.555ZM164.042 433.555V437.179V433.555ZM129.05 433.555V437.179V433.555ZM93.801 433.555V437.179V433.555ZM58.8082 433.555V437.179V433.555Z" stroke="#AAAAAA" stroke-width="2" stroke-linecap="round" stroke-linejoin="round"/>
<path d="M23.7988 133.356V433.461H537.752" stroke="#AAAAAA" stroke-width="2"/>
<defs>
<linearGradient id="paint0_linear" x1="281" y1="384.387" x2="281" y2="433" gradientUnits="userSpaceOnUse">
<stop stop-color="#0076FF" stop-opacity="0.75"/>
<stop offset="1" stop-color="#F2F2F5"/>
</linearGradient>
</defs>
</svg>
