<svg width="140" height="30" viewBox="0 0 140 30" fill="none" xmlns="http://www.w3.org/2000/svg">
<g clip-path="url(#clip0)">
<path d="M73.5665 1.33325H71.0156V27.9999H73.5665V1.33325Z" fill="#FF0000"/>
<path d="M106.127 1.33325H114.267V3.55392H111.503V27.9999H108.936V3.55392H106.127V1.33325Z" fill="#FF0000"/>
<path d="M68.6923 1.33325V27.9999H66.0208L62.1994 11.8019V27.9999H59.6934V1.33325H61.9988L66.1863 18.9959V1.33325H68.6923Z" fill="#FF0000"/>
<path d="M13.2572 1.33325V27.9999H10.7498V5.14192L7.65549 27.9999H5.56878L2.52425 5.14192V27.9999H0V1.33325H4.26949L6.7145 17.4073L9.01998 1.33325H13.2572Z" fill="#FF0000"/>
<path d="M44.2979 27.9887C46.2823 25.432 47.4532 22.2714 47.4532 18.85C47.4532 10.3307 40.1911 3.42603 31.2321 3.42603C22.2739 3.42603 15.0117 10.332 15.0117 18.85C15.0117 22.27 16.1827 25.432 18.1628 27.9887H21.5362C19.0877 25.6414 17.5745 22.416 17.5745 18.85C17.5745 11.6767 23.6909 5.86136 31.2335 5.86136C38.7775 5.86136 44.8946 11.678 44.8946 18.85C44.8946 22.4134 43.3829 25.6427 40.9393 27.9887H44.2979Z" fill="#FF0000"/>
<path d="M123.499 27.9999H121.005L120.345 21.9919H116.613L116.004 27.9999H113.459L116.337 1.33325H120.227L123.499 27.9999ZM120.112 19.5846L118.416 4.87992L116.851 19.5846H120.112Z" fill="#FF0000"/>
<path d="M93.0352 24.6473C93.0352 25.8466 92.2912 26.4606 91.4421 26.4606C90.593 26.4606 89.8497 25.8466 89.8497 24.6473V4.52195C89.8497 3.32128 90.5923 2.70662 91.4421 2.70662C92.2919 2.70662 93.0352 3.32195 93.0352 4.52195L93.0303 5.48395V10.5073H95.5931V6.63528L95.5854 5.51595C95.5686 2.19595 94.202 0.613281 91.3524 0.613281C88.8134 0.613281 87.1621 2.32595 87.1621 4.95261L87.1649 5.93128V22.6086L87.1621 23.6886C87.1621 27.1033 88.5546 28.7686 91.412 28.7686C94.263 28.7686 95.5931 27.1319 95.5931 23.6173V13.9246H90.8847V16.2579H93.031V23.7639L93.0352 24.6473Z" fill="#FF0000"/>
<path d="M103.544 24.0107V17.0794L97.7013 12.9327V5.18935C97.7013 2.14602 99.1444 0.589355 101.965 0.589355C104.83 0.589355 106.13 2.13535 106.152 5.55535L106.157 6.61802V10.546H103.546V5.27669L103.538 4.52136C103.538 3.32002 102.802 2.70602 101.961 2.70602C101.121 2.70602 100.384 3.32136 100.384 4.52136V5.30069V11.776L106.155 15.92V23.932C106.155 27.0667 104.689 28.7447 101.946 28.7447C99.171 28.7447 97.7252 27.1614 97.7076 24.1054L97.6992 23.05V17.8354H100.38V23.944V24.6494C100.38 25.848 101.118 26.4627 101.957 26.4627C102.8 26.4627 103.536 25.848 103.536 24.6494L103.544 24.0107Z" fill="#FF0000"/>
<path d="M58.151 27.9986H55.5924C55.2439 27.1013 55.0903 26.2566 55.0728 25.1299L55.0539 23.7652L55.0427 23.0753V17.8679C55.0427 16.7766 54.3443 16.2793 53.5358 16.2793H51.7156V27.9999H49.2109V1.33325H52.4763C56.1456 1.33325 57.5599 2.60858 57.5599 6.01992V11.0253C57.5599 13.2706 57.1658 14.2099 55.3168 14.8579C55.3435 14.8673 55.3687 14.8746 55.3925 14.8839C57.1378 15.3659 57.529 15.9959 57.5494 18.1013L57.5585 19.0659V23.9359C57.5606 25.7106 57.6987 26.6719 58.151 27.9986ZM51.7149 3.43125V13.9919H52.6152C54.2671 13.9919 55.0434 13.2706 55.0434 11.7399V6.30592C55.0434 4.11525 54.5091 3.43059 52.8045 3.43059L51.7149 3.43125ZM133.096 27.9986H130.537C130.188 27.1013 130.035 26.2566 130.021 25.1299L129.999 23.7652L129.99 23.0753V17.8679C129.99 16.7766 129.29 16.2793 128.483 16.2793H126.662V27.9999H124.156V1.33325H127.424C131.093 1.33325 132.504 2.60858 132.504 6.01992V11.0253C132.504 13.2706 132.11 14.2099 130.263 14.8579C130.289 14.8673 130.314 14.8746 130.34 14.8839C132.084 15.3659 132.476 15.9959 132.496 18.1013L132.504 19.0659V23.9359C132.506 25.7106 132.644 26.6719 133.096 27.9986ZM126.661 3.43125V13.9919H127.559C129.214 13.9919 129.99 13.2706 129.99 11.7399V6.30592C129.99 4.11525 129.457 3.43059 127.75 3.43059L126.661 3.43125Z" fill="#FF0000"/>
<path d="M84.8571 1.33325V27.9999H82.1856L78.3627 11.8019V27.9999H75.8574V1.33325H78.1615L82.3504 18.9959V1.33325H84.8571Z" fill="#FF0000"/>
<path d="M134.023 3.61997C134.023 4.9433 135.153 6.0193 136.545 6.0193C137.937 6.0193 139.07 4.94397 139.07 3.61997C139.07 2.29597 137.937 1.21997 136.545 1.21997C135.154 1.21997 134.023 2.29597 134.023 3.61997ZM134.281 3.61997C134.281 2.43264 135.298 1.46597 136.545 1.46597C137.796 1.46597 138.812 2.4333 138.812 3.61997C138.812 4.80797 137.796 5.7733 136.545 5.7733C135.298 5.77197 134.281 4.8073 134.281 3.61997ZM135.664 2.44864H136.79C137.182 2.44864 137.59 2.59197 137.59 3.12997C137.59 3.4333 137.447 3.72464 137.013 3.79264L137.699 4.81664H137.3L136.628 3.81197H135.992V4.81664H135.665V2.44864H135.664ZM135.992 3.5393H136.737C137.044 3.5393 137.264 3.4453 137.264 3.12997C137.264 2.8173 137.046 2.7213 136.737 2.7213H135.992V3.5393Z" fill="#FF0000"/>
</g>
<defs>
<clipPath id="clip0">
<rect width="139.535" height="30" fill="white"/>
</clipPath>
</defs>
</svg>
