<svg width="136" height="32" viewBox="0 0 136 32" fill="none" xmlns="http://www.w3.org/2000/svg">
<g clip-path="url(#clip0)">
<path d="M100.287 24.2386C95.6425 24.2386 92.7567 22.0088 92.7567 18.4146C92.7567 14.6845 95.4196 12.3637 99.7076 12.3637H100.067C100.605 12.3637 101.346 12.3783 102.357 12.483V7.98047H105.386V23.8328C105.386 23.8328 102.508 24.2386 100.287 24.2386ZM100.259 14.3405C97.3254 14.3405 95.8987 15.6532 95.8987 18.3521C95.8987 20.7754 97.6202 22.2816 100.386 22.2816C100.918 22.2816 101.526 22.2525 102.356 22.1936V14.5019C101.527 14.3914 100.859 14.3405 100.259 14.3405ZM58.7979 23.875L50.616 12.0401L50.6133 23.875H47.7617V8.89247H51.754L59.9359 20.6219L59.9324 8.89247H62.8217V23.875H58.7979ZM84.8599 24.1056C83.4823 24.1056 82.046 23.9776 80.3359 23.7048L80.1508 23.6757V21.5827L80.421 21.6307C81.9293 21.8976 83.2314 22.1252 84.5344 22.1252C85.5864 22.1252 88.037 21.9885 88.037 20.7048C88.037 19.6285 86.3436 19.3579 84.9836 19.1419L84.8976 19.1274C84.6432 19.0881 84.4036 19.0481 84.2018 19.0059C82.2066 18.5768 80.0779 17.9317 80.0779 15.7157C80.0779 13.5543 82.1416 12.3157 85.7408 12.3157C87.4685 12.3157 88.7223 12.4685 89.7304 12.5936L90.22 12.6532V14.6845L89.9594 14.6452C88.8188 14.4714 87.4816 14.2925 86.1962 14.2925C84.7669 14.2925 83.0708 14.5143 83.0708 15.5681C83.0708 16.443 84.4589 16.6932 86.0663 16.9834C88.3143 17.3863 91.101 17.8925 91.101 20.435C91.101 22.7674 88.8284 24.1056 84.8599 24.1056ZM113.889 24.1056C110.754 24.1056 107.851 23.6474 107.851 20.3296C107.851 16.7186 112.341 16.7187 115.025 16.7187C115.291 16.7187 116.553 16.7674 116.94 16.7812C116.937 14.7557 116.906 14.2728 113.362 14.2728C111.957 14.2728 110.397 14.5027 109.02 14.7077L108.756 14.747V12.747L108.934 12.7157C110.531 12.4467 112.07 12.3157 113.64 12.3157C117.074 12.3157 119.984 12.6023 119.984 16.1339V23.8357L119.775 23.8554C117.396 24.0765 115.508 24.1056 113.89 24.1056H113.889ZM114.949 18.5056C112.361 18.5056 110.757 18.8212 110.757 20.3921C110.757 22.2103 112.803 22.3608 114.723 22.3608C115.439 22.3608 116.728 22.2845 117.122 22.2612V18.5681C116.567 18.5485 115.124 18.5056 114.949 18.5056ZM71.3897 24.1056C68.2503 24.1056 65.3478 23.6474 65.3478 20.3296C65.3478 16.7186 69.8376 16.7187 72.5207 16.7187C72.7883 16.7187 74.0527 16.7674 74.4405 16.7812C74.437 14.7557 74.4028 14.2728 70.8589 14.2728C69.4533 14.2728 67.8932 14.5027 66.5157 14.7077L66.2525 14.747V12.747L66.4341 12.7157C67.9813 12.4506 69.5571 12.3165 71.137 12.3157C74.5704 12.3157 77.4808 12.6023 77.4808 16.1339V23.8357L77.2711 23.8554C74.8933 24.0765 73.0042 24.1056 71.3897 24.1056ZM72.4453 18.5056C69.8578 18.5056 68.2574 18.8212 68.2574 20.3921C68.2574 22.2103 70.3 22.3608 72.2198 22.3608C72.9393 22.3608 74.2282 22.2845 74.6222 22.2612V18.5681C74.0632 18.5485 72.6208 18.5056 72.4462 18.5056" fill="#313131"/>
<mask id="mask0" mask-type="alpha" maskUnits="userSpaceOnUse" x="121" y="11" width="15" height="19">
<path d="M121.961 11.6365H135.146V29.091H121.961V11.6365Z" fill="white"/>
</mask>
<g mask="url(#mask0)">
<path d="M132.044 28.9659V24.051C130.862 24.1877 130.235 24.1877 129.727 24.1877C128.527 24.1877 127.194 23.9717 126.162 23.611C123.852 22.8146 122.475 20.7928 122.475 18.1986C122.475 16.9041 122.855 14.5368 125.402 13.2612C126.68 12.6285 128.188 12.3579 130.457 12.3579C131.269 12.3579 132.366 12.4088 133.425 12.4597L135.145 12.5339V27.827L132.044 28.9659ZM130.231 14.3354C127.153 14.3346 125.593 15.6365 125.593 18.1986C125.593 21.4975 127.92 22.1906 129.877 22.1906C130.353 22.1906 130.888 22.1906 132.074 22.0655V14.4066C131.145 14.3557 130.716 14.3354 130.23 14.3354H130.231Z" fill="#313131"/>
</g>
<mask id="mask1" mask-type="alpha" maskUnits="userSpaceOnUse" x="21" y="0" width="25" height="24">
<path d="M21.9355 0.0117188H45.6259V24.0001H21.9355V0.0117188Z" fill="white"/>
</mask>
<g mask="url(#mask1)">
<path d="M34.2309 0.0117188L24.2125 22.8263C24.0886 23.1072 23.8718 23.3535 23.5869 23.537C23.302 23.7206 22.9606 23.8339 22.6016 23.8641V23.875H33.192C34.0212 23.875 34.731 23.4379 34.9951 22.827L45.017 0.0117188H34.2309Z" fill="#0996C7"/>
</g>
<path d="M21.7368 23.5287C22.351 23.5287 22.8888 23.2757 23.2179 22.8924C23.2521 22.8524 23.3723 22.7127 23.4574 22.5229L27.132 14.1506L24.9824 9.26111C24.8571 9.01352 24.6543 8.79818 24.3949 8.63741C24.1355 8.47665 23.829 8.3763 23.5071 8.34678C23.1851 8.31725 22.8595 8.35962 22.564 8.46949C22.2685 8.57936 22.0138 8.75274 21.8263 8.97166C21.7912 9.01166 21.6482 9.18984 21.5867 9.34111L17.9121 17.7106L20.0714 22.6197C20.2115 22.8895 20.4439 23.1194 20.7398 23.2809C21.0358 23.4425 21.3824 23.5287 21.7368 23.5287Z" fill="#0996C7"/>
<mask id="mask2" mask-type="alpha" maskUnits="userSpaceOnUse" x="-1" y="7" width="24" height="25">
<path d="M-0.876953 7.27271H22.8134V31.8523H-0.876953V7.27271Z" fill="white"/>
</mask>
<g mask="url(#mask2)">
<path d="M22.5224 7.98828H11.8152C10.9861 7.98828 10.2762 8.42319 10.0086 9.03701L-0.00976562 31.8516H10.7764L20.7956 9.03774C20.9256 8.74093 21.1592 8.4829 21.4667 8.29653C21.7742 8.11015 22.1417 8.00386 22.5224 7.99119V7.98828Z" fill="#0996C7"/>
</g>
</g>
<defs>
<clipPath id="clip0">
<rect width="136" height="32" fill="white"/>
</clipPath>
</defs>
</svg>
