<?xml version="1.0" encoding="utf-8"?>
<!-- Generator: Adobe Illustrator 22.0.1, SVG Export Plug-In . SVG Version: 6.00 Build 0)  -->
<svg version="1.1" id="Layer_1" xmlns="http://www.w3.org/2000/svg" xmlns:xlink="http://www.w3.org/1999/xlink" x="0px" y="0px"
	 viewBox="0 0 283.5 212.5" style="enable-background:new 0 0 283.5 212.5;" xml:space="preserve">
<style type="text/css">
	.st0{fill:#070707;}
	.st1{fill:url(#SVGID_1_);}
	.st2{fill:#BEC0C2;}
	.st3{fill:#FFFFFF;}
</style>
<title>SaxoBankLogos_newcvi_saxobank</title>
<rect x="8.5" y="106.3" class="st0" width="266.5" height="97.8"/>
<linearGradient id="SVGID_1_" gradientUnits="userSpaceOnUse" x1="141.73" y1="108.68" x2="141.73" y2="206.48" gradientTransform="matrix(1 0 0 -1 0 214)">
	<stop  offset="0" style="stop-color:#79C0E3"/>
	<stop  offset="0.23" style="stop-color:#3372CC"/>
	<stop  offset="0.3" style="stop-color:#2B5FB5"/>
	<stop  offset="0.45" style="stop-color:#1D3E8E"/>
	<stop  offset="0.6" style="stop-color:#12246F"/>
	<stop  offset="0.74" style="stop-color:#0A1259"/>
	<stop  offset="0.88" style="stop-color:#06074C"/>
	<stop  offset="1" style="stop-color:#040347"/>
</linearGradient>
<rect x="8.5" y="8.5" class="st1" width="266.5" height="97.8"/>
<path class="st2" d="M0,0v212.6h283.5V0H0z M275,204.1H8.5V8.5H275V204.1z"/>
<path class="st3" d="M52.2,53.7c-7.2-2.8-10.4-4.7-10.4-8.9c0-3.1,2.7-6.5,9-6.5c2,0,3.9,0.1,10,1.7c0.4,0.1,0.8-0.1,0.9-0.5
	c0,0,0,0,0,0c0.1-0.4,1.7-6.1,1.8-6.6c0.1-0.3-0.1-0.7-0.4-0.8c0,0-0.1,0-0.1,0c-6.1-1.7-9.1-1.9-12-1.9c-11.7,0-19.1,6.7-19.1,15.5
	c0,7.8,5.7,12.5,14.6,15.7c6.9,2.5,9.6,4.9,9.6,9c0,4.4-3.5,7.4-9.9,7.4c-1.9,0-4.8-0.1-12.2-2.3c-0.4-0.1-0.8,0.1-0.9,0.4
	c0,0,0,0,0,0l-2.1,6.6c-0.1,0.3,0,0.7,0.4,0.8c0,0,0.1,0,0.1,0c7.6,2.4,11.3,2.6,14,2.6c14,0,20.7-7.6,20.7-16.3
	C66.2,62,61.5,57.2,52.2,53.7z M112.2,31.6c-0.1-0.3-0.4-0.4-0.7-0.4h-11.5c-0.3,0-0.6,0.1-0.7,0.4C99.3,32,82.7,83.8,82.6,84.2
	c-0.1,0.4,0.1,0.8,0.4,0.9c0.1,0,0.1,0,0.2,0h8.6c0.4,0,0.8-0.3,0.9-0.7c0.2-0.5,3.7-12.2,3.7-12.2h18.5c0,0,3.8,12,3.9,12.4
	c0.1,0.3,0.4,0.6,0.7,0.6h9.1c0.4,0,0.7-0.2,0.7-0.6c0-0.1,0-0.2,0-0.3C129.2,83.6,112.3,31.9,112.2,31.6z M97.8,65.6
	c0,0,3.9-13.6,4.7-16.5c1.2-4.2,2.1-7.9,2.5-9.6c0.2-0.7,0.5-0.7,0.7,0c0.5,1.8,1.5,5.7,2.7,9.6c1.6,5.5,4.9,16.5,4.9,16.5
	L97.8,65.6z M175,58.3c-0.7-1.1-0.7-2.6,0.1-3.7L187,32.4c0.4-0.7,0.2-1.2-0.5-1.2h-8.3c-0.5-0.1-1,0.2-1.2,0.6
	c-0.2,0.5-6.6,13.1-9.8,19.3c-0.5,1-0.9,1-1.4,0c-3.9-8.1-9-18.5-9.3-19.1c-0.3-0.6-0.8-0.9-1.5-0.8h-9.2c-0.7,0-1.1,0.4-0.7,1.1
	c0.4,0.7,12.4,21.7,12.8,22.3c0.8,1.1,0.9,2.6,0.1,3.8l-13.6,25.6c-0.3,0.6,0,1,0.5,1h8.9c0.5,0.1,1-0.3,1.2-0.8
	c0.3-0.6,7.6-15.1,10.6-21.1c0.4-0.8,1-0.8,1.4,0c1.7,3.4,10.3,20.5,10.6,21.1s0.6,0.8,1,0.8h9.7c0.6,0,0.9-0.3,0.6-1
	S175.7,59.6,175,58.3z M229.4,30.5c-15.4,0-24.2,12-24.2,27c0,16,7.7,28.5,24.2,28.5s24.2-12.5,24.2-28.5
	C253.6,42.5,244.8,30.5,229.4,30.5L229.4,30.5z M229.4,78.3c-11.3,0-13.7-10.6-13.7-20.9c0-9.9,2.9-19.3,13.7-19.3
	S243,47.6,243,57.5C243.1,67.7,240.7,78.3,229.4,78.3L229.4,78.3z"/>
<path class="st3" d="M186.9,127.6h-7.8c-0.4,0-0.7,0.3-0.7,0.7c0,0,0,0,0,0v18c0,7.8,0.3,17.6,0.9,24.8c0,0.5-0.1,0.4-0.2,0
	c-0.6-2.1-2.8-8.3-8.5-20.3c-8-16.8-10-20.9-10.8-22.7c-0.1-0.2-0.4-0.4-0.6-0.4h-12.2c-0.4,0-0.7,0.3-0.7,0.7v52.4
	c0,0.4,0.3,0.7,0.7,0.7h7.6c0.4,0,0.7-0.3,0.7-0.7V162c0-8.5-0.2-19.1-0.6-26.2c0-0.3,0.1-0.4,0.2,0c0.7,1.9,2.8,7.5,9.3,21.7
	c7.2,15.8,10.6,23.1,10.8,23.4c0.1,0.3,0.4,0.4,0.7,0.4h11.1c0.4,0,0.7-0.3,0.7-0.7v-52.4C187.6,127.9,187.3,127.6,186.9,127.6
	C186.9,127.6,186.9,127.6,186.9,127.6z M112.2,128c-0.1-0.3-0.4-0.5-0.7-0.4h-11.5c-0.3,0-0.6,0.2-0.7,0.4l-16.8,52.5
	c-0.1,0.4,0.1,0.7,0.4,0.9c0.1,0,0.1,0,0.2,0h8.6c0.4,0,0.8-0.3,0.9-0.7c0.2-0.5,3.7-12.2,3.7-12.2h18.5c0,0,3.8,12,3.9,12.4
	c0.1,0.3,0.4,0.6,0.7,0.6h9.1c0.3,0,0.7-0.2,0.7-0.5c0-0.1,0-0.2,0-0.3C129.2,180,112.3,128.3,112.2,128L112.2,128z M97.8,162
	c0,0,3.9-13.6,4.7-16.5c1.2-4.2,2.1-7.9,2.5-9.7c0.2-0.7,0.5-0.7,0.7,0c0.5,1.9,1.5,5.7,2.7,9.6c1.6,5.5,4.9,16.5,4.9,16.5L97.8,162
	z M253.1,180.7l-22.6-27.9c0,0,20.4-23.8,20.8-24.4s0.1-0.9-0.5-0.9H242c-0.7,0-0.8,0.1-1.3,0.7s-18.3,21.8-18.7,22.3s-1,0.6-1-0.5
	v-21.8c0-0.4-0.1-0.7-0.6-0.7h-8.3c-0.5,0-0.6,0.2-0.6,0.7v52.4c0,0.5,0.2,0.7,0.7,0.7h8.2c0.4,0,0.6-0.3,0.6-0.7v-25.1
	c0-1,0.5-1.2,1-0.5s18.9,25,19.3,25.6c0.3,0.5,0.8,0.8,1.3,0.7h9.9C253.3,181.4,253.3,181.1,253.1,180.7L253.1,180.7z M56.3,152.4
	c-0.4,0-0.4-0.2,0-0.4c4-1.3,10.4-4.8,10.4-13c0-7.3-6.6-11.4-15.7-11.4H33.3c-0.4,0-0.7,0.3-0.7,0.7c0,0,0,0,0,0v52.5
	c0,0.4,0.2,0.7,0.6,0.7c0,0,0.1,0,0.1,0h16.1c12.7,0,20.5-6.6,20.5-15.9C69.8,157.5,62.8,153,56.3,152.4z M42.5,134H48
	c4.7,0,8.8,2.3,8.8,7c0,5-4.8,9.1-11.1,9.1h-3.3V134z M47.9,174.9h-5.4v-18.5h5.3c5.9,0,11,2.9,11,9.2
	C58.8,171.6,53.9,174.9,47.9,174.9L47.9,174.9z"/>
</svg>
