<?xml version="1.0" encoding="utf-8"?>
<!-- Generator: Adobe Illustrator 22.1.0, SVG Export Plug-In . SVG Version: 6.00 Build 0)  -->
<svg version="1.1" id="Layer_1" xmlns="http://www.w3.org/2000/svg" xmlns:xlink="http://www.w3.org/1999/xlink" x="0px" y="0px"
	 viewBox="0 0 283.5 212.6" style="enable-background:new 0 0 283.5 212.6;" xml:space="preserve">
<style type="text/css">
	.st0{fill:url(#SVGID_1_);}
	.st1{fill-rule:evenodd;clip-rule:evenodd;fill:#B9B9B9;}
	.st2{fill:#FFFFFF;}
</style>
<rect x="8.5" y="106.3" width="266.5" height="97.8"/>
<linearGradient id="SVGID_1_" gradientUnits="userSpaceOnUse" x1="141.7329" y1="106.2988" x2="141.7329" y2="8.5044">
	<stop  offset="0" style="stop-color:#79C0E3"/>
	<stop  offset="0.23" style="stop-color:#3372CC"/>
	<stop  offset="0.3" style="stop-color:#2B5FB5"/>
	<stop  offset="0.45" style="stop-color:#1D3E8E"/>
	<stop  offset="0.6" style="stop-color:#12246F"/>
	<stop  offset="0.74" style="stop-color:#0A1259"/>
	<stop  offset="0.88" style="stop-color:#06074C"/>
	<stop  offset="1" style="stop-color:#040347"/>
</linearGradient>
<rect x="8.5" y="8.5" class="st0" width="266.5" height="97.8"/>
<path class="st1" d="M0,0v212.6h283.5V0H0z M275,204.1H8.5V8.5H275V204.1z"/>
<path class="st2" d="M52.2,53.7c-7.2-2.8-10.3-4.7-10.3-8.9c0-3.1,2.7-6.5,9-6.5c2,0,3.9,0.1,10,1.7c0.4,0.1,0.7-0.1,0.9-0.5
	c0.1-0.4,1.7-6.1,1.8-6.6c0.1-0.5-0.2-0.7-0.5-0.8c-6.1-1.7-9.1-1.9-12-1.9c-11.7,0-19.1,6.7-19.1,15.6c0,7.8,5.7,12.5,14.6,15.7
	c6.9,2.5,9.6,4.9,9.6,9c0,4.4-3.5,7.4-9.9,7.4c-1.9,0-4.8-0.1-12.2-2.3c-0.4-0.1-0.8,0.1-0.9,0.5c-0.1,0.4-1.9,6.1-2.1,6.6
	c-0.1,0.5,0.1,0.8,0.5,0.9c7.6,2.3,11.3,2.6,14,2.6c14,0,20.7-7.6,20.7-16.3C66.2,61.9,61.5,57.2,52.2,53.7z M112.2,31.6
	c-0.1-0.3-0.3-0.4-0.6-0.4h-11.5c-0.3,0-0.6,0.1-0.7,0.4S82.7,83.8,82.6,84.1c-0.1,0.4,0.1,0.9,0.6,0.9h8.6c0.4,0,0.7-0.2,0.9-0.7
	c0.2-0.5,3.7-12.2,3.7-12.2h18.5c0,0,3.8,12,3.9,12.4c0.1,0.3,0.3,0.6,0.7,0.6h9.1c0.4,0,0.9-0.3,0.7-0.9
	C129.2,83.6,112.3,31.9,112.2,31.6z M97.9,65.6c0,0,3.9-13.6,4.7-16.5c1.2-4.2,2.1-7.9,2.5-9.7c0.2-0.7,0.5-0.7,0.7,0
	c0.5,1.9,1.5,5.7,2.7,9.6c1.6,5.5,4.9,16.5,4.9,16.5H97.9z M175,58.3c-0.7-1.3-0.7-2.3,0.1-3.7c0.8-1.4,11.5-21.5,11.9-22.2
	c0.4-0.7,0.2-1.2-0.5-1.2h-8.3c-0.6,0-1,0.2-1.2,0.6c-0.2,0.5-6.6,13.1-9.8,19.3c-0.5,0.9-0.9,1-1.4,0c-3.9-8.1-9-18.5-9.3-19.1
	c-0.3-0.6-0.8-0.8-1.4-0.8h-9.2c-0.7,0-1.1,0.4-0.7,1.1c0.4,0.7,12.4,21.7,12.8,22.3c0.8,1.4,0.8,2.5,0.1,3.8
	c-0.7,1.3-13.2,25-13.5,25.6c-0.3,0.6,0,1,0.5,1h8.9c0.6,0,0.9-0.2,1.2-0.7c0.3-0.6,7.6-15.1,10.6-21.1c0.4-0.8,1-0.8,1.4,0
	c1.7,3.4,10.3,20.5,10.6,21.1c0.3,0.6,0.6,0.7,1,0.7h9.7c0.6,0,0.9-0.3,0.6-1C188.7,83.4,175.7,59.6,175,58.3z M229.4,30.5
	c-15.4,0-24.2,12-24.2,27c0,16,7.7,28.5,24.2,28.5c16.5,0,24.2-12.5,24.2-28.5C253.6,42.4,244.8,30.5,229.4,30.5z M229.4,78.3
	c-11.3,0-13.7-10.6-13.7-20.9c0-9.9,2.9-19.3,13.7-19.3c10.7,0,13.7,9.4,13.7,19.3C243.1,67.7,240.7,78.3,229.4,78.3z"/>
<g>
	<g>
		<path class="st2" d="M68.1,151.7H52.9c-0.3,0-0.6,0.3-0.6,0.6v6.2c0,0.3,0.3,0.6,0.6,0.6h7v9.8c-0.9,0.3-2.7,0.7-5.3,0.7
			c-8.8,0-14.3-5.7-14.3-15c0-9.1,5.8-14.8,15-14.8c4.9,0,7.7,1,9.5,1.8c0.2,0.1,0.3,0.1,0.5,0c0.2-0.1,0.3-0.2,0.3-0.4l1.7-6.3
			c0.1-0.3-0.1-0.6-0.3-0.7c-2.1-1-6.3-2.1-11.7-2.1c-7.2,0-13.3,2.1-17.7,6.2c-4.5,4.1-6.8,9.9-6.8,16.7c0,6.6,2.2,12.4,6.2,16.2
			c4.1,4,9.8,5.9,17.2,5.9c6.7,0,12.4-1.9,14-2.4c0.2-0.1,0.4-0.3,0.4-0.6v-21.7C68.7,151.9,68.4,151.7,68.1,151.7z M143.4,131.7
			c-12.4,0-21,9.5-21,23.1c0,6.3,2,12,5.5,16c3.7,4.2,8.9,6.4,14.9,6.4h0.1c6.1,0,11.3-2.1,15.1-6.1c3.9-4.1,6-10.1,6-17.1
			C163.9,140.7,155.6,131.7,143.4,131.7z M143.1,169.8L143.1,169.8c-2.8,0-5.1-1-7.1-2.9c-2.7-2.7-4.3-7.2-4.3-12.3
			c0-5.2,1.6-9.8,4.3-12.6c1.9-1.9,4.3-2.9,7-2.9c7.7,0,11.3,7.9,11.3,15.2C154.3,163.6,149.8,169.8,143.1,169.8z M208.4,132.4h-7.9
			c-0.3,0-0.6,0.3-0.6,0.6v25c0,7.8-2.8,11.7-8.5,11.7c-5.3,0-8.2-4.2-8.2-11.7v-25c0-0.3-0.3-0.6-0.6-0.6h-7.9
			c-0.3,0-0.6,0.3-0.6,0.6v24.6c0,16.3,9.2,19.7,17,19.7c11.5,0,17.8-7,17.8-19.7V133C209,132.7,208.8,132.4,208.4,132.4z
			 M248.6,135.7c-2.9-2.4-7.2-3.3-13-3.3h-12.1c-0.3,0-0.5,0.3-0.5,0.6v43c0,0.2,0.1,0.3,0.2,0.4c0.1,0.1,0.3,0.2,0.4,0.2h7.8
			c0.2,0,0.3-0.1,0.4-0.2c0.1-0.1,0.2-0.3,0.2-0.4v-15.4c0,0,2,0,3.1,0c5.7,0,10.8-1.4,14.1-4.7c2.5-2.4,3.8-6,3.8-10.2
			C253,141.5,251.3,137.9,248.6,135.7z M241.7,151.4c-1.5,1.2-3.7,1.9-6.5,1.9c-1.3,0-3.3,0-3.3,0v-13.8c0,0,2.2,0,4,0
			c2.6,0,4.7,0.5,6,1.6c1.4,1.1,2.1,2.7,2.1,5C244.1,148.4,243.2,150.1,241.7,151.4z M110.7,163.8c-1-3.8-2.6-6.7-5.3-8.2
			c3.8-1.7,7.1-5.5,7.1-10.9c0-3.8-1.4-7-3.9-9.1c-3.1-2.6-7.4-3.3-13.6-3.3H83c-0.3,0-0.5,0.3-0.5,0.6v43c0,0.2,0.1,0.3,0.2,0.4
			c0.1,0.1,0.3,0.2,0.4,0.2h7.8c0.2,0,0.3-0.1,0.4-0.2c0.1-0.1,0.2-0.3,0.2-0.4v-17.1h3.4c2.1,0.1,3.6,0.5,4.7,1.5
			c1.1,1,1.9,2.8,2.5,5.5c1.2,5.4,2.2,8.9,3,10.3c0.1,0.2,0.3,0.3,0.5,0.3h8.1c0.2,0,0.4-0.1,0.5-0.3c0.1-0.2,0.1-0.4,0-0.6
			C113.2,174.2,112,169.2,110.7,163.8z M101.4,150.2c-1.3,1.1-3.4,1.8-5.9,1.8h-4.1v-12.7c0,0,2.3,0,4.3,0c2.5,0,4.4,0.4,5.7,1.4
			c1.3,1,2,2.5,2.1,4.7C103.5,147.5,102.8,149,101.4,150.2z"/>
	</g>
</g>
</svg>
