<svg xmlns="http://www.w3.org/2000/svg" viewBox="0 0 498.32 373.74"><defs><style>.cls-1{fill:#0076ff;}.cls-2{fill:#fff;}</style></defs><title>SaxoInvestor_Logo_RGB_Blue</title><g id="Layer_2" data-name="Layer 2"><g id="Saxo"><path class="cls-1" d="M0,0V373.74H498.32V0ZM483.37,186.87H15V15H483.37Z"/><path class="cls-2" d="M56.33,300.32V245.45a.3.3,0,0,1,.3-.3H67.79a.31.31,0,0,1,.3.3v54.87a.3.3,0,0,1-.3.3H56.63A.29.29,0,0,1,56.33,300.32Z"/><path class="cls-2" d="M129,300.62H114.53a.3.3,0,0,1-.26-.15l-23.1-40.82a.3.3,0,0,0-.56.15v40.52a.3.3,0,0,1-.3.3H80.4a.29.29,0,0,1-.3-.3V245.45a.3.3,0,0,1,.3-.3H94.76a.32.32,0,0,1,.26.15l23.14,40.42a.3.3,0,0,0,.56-.15V245.45a.3.3,0,0,1,.3-.3h10a.31.31,0,0,1,.3.3v54.87A.3.3,0,0,1,129,300.62Z"/><path class="cls-2" d="M177.58,245.15h11.24a.3.3,0,0,1,.28.4l-18.65,54.87a.29.29,0,0,1-.28.2h-12.4a.29.29,0,0,1-.28-.2l-18.62-54.87a.31.31,0,0,1,.29-.4h11.23a.3.3,0,0,1,.29.21l10.37,32.8q.87,2.93,1.8,6.81c.36,1.5.64,2.74.84,3.71a.3.3,0,0,0,.58,0q.67-3.63,2.58-10.51l10.45-32.8A.3.3,0,0,1,177.58,245.15Z"/><path class="cls-2" d="M229.8,300.62H198.45a.29.29,0,0,1-.3-.3V245.45a.3.3,0,0,1,.3-.3H229.8a.31.31,0,0,1,.3.3v9a.31.31,0,0,1-.3.3H210.21a.29.29,0,0,0-.3.3v11.58a.3.3,0,0,0,.3.3h18.18a.29.29,0,0,1,.3.3v9a.29.29,0,0,1-.3.3H210.21a.3.3,0,0,0-.3.3v13.71a.3.3,0,0,0,.3.3H229.8a.3.3,0,0,1,.3.3v9.11A.3.3,0,0,1,229.8,300.62Z"/><path class="cls-2" d="M279.7,285.22a14.34,14.34,0,0,1-5.41,11.84q-5.4,4.32-15,4.32a35.45,35.45,0,0,1-15.54-3.25.33.33,0,0,1-.17-.28V287.57a.31.31,0,0,1,.43-.27,62.16,62.16,0,0,0,9.08,3.34,27.79,27.79,0,0,0,7.11,1,10.17,10.17,0,0,0,5.94-1.48,5.06,5.06,0,0,0,2.06-4.4,4.86,4.86,0,0,0-.91-2.91,10,10,0,0,0-2.67-2.44,67.53,67.53,0,0,0-7.19-3.76,34,34,0,0,1-7.63-4.59A17.44,17.44,0,0,1,245.7,267a14.66,14.66,0,0,1-1.51-6.83q0-7.37,5-11.57T263,244.35a32.72,32.72,0,0,1,8.25,1,56.68,56.68,0,0,1,7.94,2.76.32.32,0,0,1,.16.4l-3.57,8.59a.3.3,0,0,1-.39.16,55.56,55.56,0,0,0-7.06-2.43,23.7,23.7,0,0,0-5.71-.72,7.52,7.52,0,0,0-5.12,1.56,5.14,5.14,0,0,0-1.79,4.06,5,5,0,0,0,.72,2.71,8,8,0,0,0,2.3,2.24,70.53,70.53,0,0,0,7.45,3.89q7.78,3.72,10.67,7.45A14.59,14.59,0,0,1,279.7,285.22Z"/><path class="cls-2" d="M315.81,300.62H304.64a.3.3,0,0,1-.3-.3V255.24a.29.29,0,0,0-.3-.3H289.58a.3.3,0,0,1-.3-.3v-9.19a.31.31,0,0,1,.3-.3h41.29a.31.31,0,0,1,.3.3v9.19a.3.3,0,0,1-.3.3H316.41a.29.29,0,0,0-.3.3v45.08A.3.3,0,0,1,315.81,300.62Z"/><path class="cls-2" d="M390.58,272.81q0,13.77-6.83,21.17t-19.58,7.4q-12.75,0-19.58-7.4t-6.83-21.25q0-13.85,6.85-21.15t19.64-7.3q12.78,0,19.56,7.36T390.58,272.81Zm-40.49,0q0,9.3,3.53,14t10.55,4.71q14.07,0,14.08-18.71t-14-18.74q-7,0-10.59,4.72T350.09,272.81Z"/><path class="cls-2" d="M413.47,279.64v20.68a.29.29,0,0,1-.3.3H402a.3.3,0,0,1-.3-.3V245.45a.31.31,0,0,1,.3-.3h15.86q11.31,0,16.74,4.12t5.42,12.5a14.76,14.76,0,0,1-2.69,8.71,17.66,17.66,0,0,1-7.31,5.83.31.31,0,0,0-.12.44q11.85,17.7,15.79,23.41a.29.29,0,0,1-.25.46H433.14a.29.29,0,0,1-.25-.14l-13.07-21a.29.29,0,0,0-.25-.14h-5.8A.3.3,0,0,0,413.47,279.64Zm0-10.16a.31.31,0,0,0,.3.3h3.5q5.58,0,8.23-1.86t2.66-5.85q0-3.94-2.72-5.61t-8.4-1.67h-3.27a.3.3,0,0,0-.3.3Z"/><rect class="cls-2" x="14.95" y="14.95" width="468.42" height="171.92"/><path class="cls-1" d="M403.24,67c18.9,0,24,16.58,24,34,0,18.06-4.21,36.66-24,36.66s-24-18.6-24-36.66c0-17.38,5.18-34,24-34m0,84.1c29,0,42.57-22,42.57-50.14,0-26.4-15.46-47.43-42.57-47.43s-42.57,21-42.57,47.43c0,28.18,13.58,50.14,42.57,50.14"/><path class="cls-1" d="M55.48,146.58c13.37,4.13,19.9,4.6,24.63,4.6,24.54,0,36.32-13.39,36.32-28.62,0-13.67-8.25-22-24.75-28.2C79,89.43,73.49,86,73.49,78.71c0-5.49,4.79-11.42,15.79-11.42,3.57,0,6.85.18,17.53,3a1.22,1.22,0,0,0,1.53-.87c.24-.73,3-10.7,3.18-11.56a1.15,1.15,0,0,0-.93-1.49c-10.69-3-16-3.37-21-3.37C69,53.05,56,64.9,56,80.4c0,13.68,10,22,25.66,27.64,12.13,4.37,16.92,8.6,16.92,15.79,0,7.76-6.2,13-17.34,13-3.38,0-8.45-.18-21.38-4.12a1.23,1.23,0,0,0-1.57.81c-.22.7-3.42,10.76-3.68,11.55a1.16,1.16,0,0,0,.87,1.54"/><path class="cls-1" d="M255,149.5h15.64a2,2,0,0,0,2.12-1.31c.54-1,13.39-26.54,18.62-37,.7-1.41,1.7-1.46,2.42,0,3,6,18.17,36,18.72,37.05s1,1.31,1.81,1.31h17c1.11,0,1.63-.62,1.05-1.71s-23.43-43.08-24.68-45.38-1.19-4,.13-6.47,20.25-37.81,20.87-39,.3-2.12-.91-2.12H313.24A2,2,0,0,0,311.15,56c-.43.86-11.67,23.11-17.29,34-.86,1.66-1.65,1.76-2.5,0-6.93-14.26-15.85-32.6-16.37-33.66a2.53,2.53,0,0,0-2.53-1.48H256.35c-1.18,0-2,.62-1.27,1.87S276.92,94.77,277.6,96c1.47,2.53,1.47,4.44.25,6.74L254,147.74c-.59,1.1,0,1.76.93,1.76"/><path class="cls-1" d="M180.34,86.34c2.1-7.44,3.69-13.86,4.44-17,.31-1.28.95-1.26,1.29,0,.87,3.26,2.68,10,4.67,17,2.77,9.64,8.58,29.05,8.58,29.05H172s6.89-24,8.32-29m-34,63.16h15.07a1.53,1.53,0,0,0,1.53-1.24c.27-.9,6.53-21.52,6.53-21.52H202s6.72,21.16,6.92,21.76a1.24,1.24,0,0,0,1.22,1h16a1.12,1.12,0,0,0,1.18-1.51c-.32-1-29.93-92-30.1-92.44a1.05,1.05,0,0,0-1.14-.74H175.92a1.05,1.05,0,0,0-1.15.77c-.17.57-29.39,91.69-29.59,92.34a1.2,1.2,0,0,0,1.13,1.58"/></g></g></svg>