<svg id="Layer_1" data-name="Layer 1" xmlns="http://www.w3.org/2000/svg" xmlns:xlink="http://www.w3.org/1999/xlink" viewBox="0 0 283.42 212.6"><defs><style>.cls-1{fill:url(#linear-gradient);}.cls-2{fill:#b9b9b9;fill-rule:evenodd;}.cls-3{fill:#fff;}</style><linearGradient id="linear-gradient" x1="141.7" y1="106.31" x2="141.7" y2="8.51" gradientUnits="userSpaceOnUse"><stop offset="0" stop-color="#79c0e3"/><stop offset="0.23" stop-color="#3372cc"/><stop offset="0.3" stop-color="#2b5fb5"/><stop offset="0.45" stop-color="#1d3e8e"/><stop offset="0.6" stop-color="#12246f"/><stop offset="0.74" stop-color="#0a1259"/><stop offset="0.88" stop-color="#06074c"/><stop offset="1" stop-color="#040347"/></linearGradient></defs><title>SaxoBankLogos_newcvi_banque</title><rect x="8.48" y="106.31" width="266.46" height="97.79"/><rect class="cls-1" x="8.48" y="8.51" width="266.46" height="97.8"/><path class="cls-2" d="M0,0v212.6H283.44V0Zm275,204.09H8.48V8.51H274.93Z"/><path class="cls-3" d="M52.12,53.69C44.9,50.88,41.78,49,41.78,44.78c0-3.12,2.72-6.49,9-6.49,2,0,3.89.1,10,1.73a.69.69,0,0,0,.87-.49c.14-.41,1.69-6.09,1.81-6.58a.65.65,0,0,0-.53-.84c-6.08-1.74-9.09-1.92-12-1.92-11.71,0-19.09,6.74-19.09,15.56,0,7.78,5.7,12.51,14.59,15.72,6.9,2.48,9.63,4.89,9.63,9,0,4.41-3.53,7.38-9.86,7.38-1.93,0-4.81-.11-12.17-2.34a.69.69,0,0,0-.89.46c-.13.39-1.94,6.11-2.09,6.57a.66.66,0,0,0,.49.87c7.6,2.35,11.32,2.62,14,2.62,14,0,20.66-7.62,20.66-16.28C66.2,62,61.51,57.22,52.12,53.69Zm60.07-22.08a.6.6,0,0,0-.64-.42H100a.59.59,0,0,0-.65.44L82.55,84.15a.69.69,0,0,0,.65.9h8.57a.86.86,0,0,0,.87-.7l3.72-12.24H114.9l3.93,12.37a.7.7,0,0,0,.7.57h9.11a.63.63,0,0,0,.67-.85C129.13,83.62,112.29,31.88,112.19,31.61Zm-14.37,34s3.92-13.63,4.74-16.53c1.19-4.23,2.1-7.88,2.52-9.65.18-.73.54-.72.74,0,.49,1.86,1.52,5.7,2.65,9.64,1.58,5.49,4.88,16.53,4.88,16.53ZM175,58.27a3.37,3.37,0,0,1,.08-3.68c.75-1.4,11.52-21.51,11.87-22.2s.17-1.2-.52-1.2h-8.26a1.13,1.13,0,0,0-1.2.65c-.24.48-6.63,13.14-9.83,19.34-.49.94-.94,1-1.42,0-3.94-8.11-9-18.54-9.31-19.15a1.44,1.44,0,0,0-1.44-.84h-9.17c-.67,0-1.12.35-.72,1.07s12.42,21.66,12.81,22.33a3.49,3.49,0,0,1,.14,3.84L144.48,84.05c-.34.63,0,1,.53,1h8.9a1.14,1.14,0,0,0,1.2-.74c.31-.59,7.62-15.1,10.59-21.08.4-.8,1-.83,1.38,0,1.71,3.42,10.34,20.48,10.65,21.08s.57.74,1,.74h9.67c.64,0,.93-.35.6-1S175.71,59.57,175,58.27Zm54.36-27.79c-15.41,0-24.21,12-24.21,27,0,16,7.72,28.52,24.21,28.52s24.22-12.49,24.22-28.52C253.57,42.44,244.77,30.48,229.35,30.48Zm0,47.83c-11.27,0-13.67-10.58-13.67-20.85,0-9.89,2.94-19.32,13.67-19.32S243,47.57,243,57.46C243,67.73,240.63,78.31,229.35,78.31Z"/><path class="cls-3" d="M49.58,152.52a11.33,11.33,0,0,0,6.59-10.4,11,11,0,0,0-3.45-8.52c-2.78-2.49-6.75-3.19-11.28-3.2H33.06c-.3,0-.49.33-.49.63V178a.61.61,0,0,0,.54.63h7.43c5.76,0,10.53-1,13.51-4.19a13.71,13.71,0,0,0,3.67-9.72C57.75,158.83,54.67,154.38,49.58,152.52ZM39.44,135.73H41.8c2.89,0,4.71.73,5.83,2a7.14,7.14,0,0,1,1.63,5,7.62,7.62,0,0,1-7.87,7.64h-2ZM48.2,171.1c-1.53,1.43-3.76,2.11-6.55,2.11H39.44V155.7h1.82a10.13,10.13,0,0,1,6.56,2.24,9.61,9.61,0,0,1,.38,13.16Zm37.39-40.2a.65.65,0,0,0-.63-.5H78.74a.65.65,0,0,0-.63.5L66.84,177.8a.68.68,0,0,0,.12.55.67.67,0,0,0,.51.24h5.44a.64.64,0,0,0,.63-.5l2.23-9.58H87.51l2.21,9.58a.64.64,0,0,0,.63.5h5.54a.64.64,0,0,0,.63-.79ZM77,162.3l3.14-14.45c.46-2.12.94-4.58,1.37-7,0-.22.2-.24.24,0,.41,2.39.86,4.81,1.34,7l3.13,14.5Zm57-31.9h-5.07a.64.64,0,0,0-.45.19.66.66,0,0,0-.19.46v16.78c0,6.19.14,11.2.41,16.5,0,.35-.19.41-.31.08-1.48-3.92-3.17-8.06-4.62-11.61l-9-22a.64.64,0,0,0-.6-.4h-5.29a.66.66,0,0,0-.46.19.65.65,0,0,0-.18.46V178a.63.63,0,0,0,.18.45.63.63,0,0,0,.46.19h5.06a.62.62,0,0,0,.46-.19.64.64,0,0,0,.19-.45V161.7c0-7-.07-12-.25-16.57,0-.4.19-.45.32-.1,1.33,3.81,2.76,7.35,4.13,10.61l9.36,22.56a.62.62,0,0,0,.59.39H134a.6.6,0,0,0,.45-.19.64.64,0,0,0,.19-.45v-46.9a.66.66,0,0,0-.19-.46A.64.64,0,0,0,134,130.4Zm43.48,48.95c-2.51-.83-5.4-1.73-8.26-2.85-.11-.05-.11-.12,0-.22a14.12,14.12,0,0,0,5.23-6.85c1.49-3.77,2.28-8.8,2.28-15.25,0-7.54-1.25-13.56-3.62-17.76s-6-6.59-10.4-6.57a12.72,12.72,0,0,0-11.06,6.41c-2.65,4.19-4.12,10.29-4.12,18.2,0,8.24,1.43,14.36,4,18.48a12,12,0,0,0,10.22,6.21c.46,0,.73.06,1.83.66A120.32,120.32,0,0,0,175,184.86a.68.68,0,0,0,.23,0,.66.66,0,0,0,.59-.37l2-4.31a.63.63,0,0,0,0-.52A.61.61,0,0,0,177.47,179.35Zm-11.7-7.72a4.5,4.5,0,0,1-3.38,1.53h-.07a4.8,4.8,0,0,1-3.53-1.51c-3-2.9-4.12-10.13-4.1-16.92v-.47a40.57,40.57,0,0,1,1.73-12.66,11.5,11.5,0,0,1,2.4-4.23,4.71,4.71,0,0,1,3.5-1.53,4.54,4.54,0,0,1,3.42,1.53c2.89,3,3.93,10.34,3.91,17a44.75,44.75,0,0,1-1.6,13A11.39,11.39,0,0,1,165.77,171.63ZM215.4,130.4h-5.6a.65.65,0,0,0-.65.65v31.42c0,4.07-.67,6.78-1.76,8.4a5,5,0,0,1-4.46,2.27,4.84,4.84,0,0,1-4.22-2.2c-1.1-1.6-1.85-4.3-1.84-8.47V131.05a.68.68,0,0,0-.19-.46.64.64,0,0,0-.46-.19h-5.6a.66.66,0,0,0-.46.19.65.65,0,0,0-.18.46v31.23c0,5.89,1.21,10.1,3.48,12.88s5.54,4,9.35,4h0a11.73,11.73,0,0,0,9.5-4.1c2.36-2.86,3.69-7.23,3.7-13.41V131.05a.68.68,0,0,0-.19-.46A.66.66,0,0,0,215.4,130.4Zm36.16,42.44a.66.66,0,0,0-.46-.19H237.7V156.31h10.81a.66.66,0,0,0,.46-.19.64.64,0,0,0,.19-.46v-4.52a.64.64,0,0,0-.19-.46.66.66,0,0,0-.46-.19H237.7V136.35h12.49a.64.64,0,0,0,.46-.19.66.66,0,0,0,.19-.46v-4.65a.68.68,0,0,0-.19-.46.64.64,0,0,0-.46-.19H231.45a.66.66,0,0,0-.46.19.65.65,0,0,0-.18.46V178a.63.63,0,0,0,.18.45.63.63,0,0,0,.46.19H251.1a.62.62,0,0,0,.46-.19.63.63,0,0,0,.18-.45V173.3A.63.63,0,0,0,251.56,172.84Z"/></svg>