<svg width="236" height="44" viewBox="0 0 236 44" fill="none" xmlns="http://www.w3.org/2000/svg">
<path d="M142.028 1.43406L125.718 38.7017L126.12 38.8744L142.43 1.60677L142.028 1.43406Z" fill="#00032C"/>
<path d="M178.908 37.252H180.302C180.786 37.2142 181.27 37.3236 181.69 37.5656C181.839 37.6756 181.958 37.8211 182.036 37.9886C182.113 38.1562 182.147 38.3405 182.134 38.5244C182.142 38.7944 182.046 39.0573 181.866 39.2601C181.653 39.4699 181.374 39.6018 181.075 39.634C181.407 39.6606 181.721 39.794 181.97 40.0139C182.07 40.124 182.146 40.2527 182.195 40.3924C182.244 40.5322 182.265 40.6803 182.256 40.828C182.268 41.0302 182.233 41.2325 182.153 41.4189C182.072 41.6052 181.949 41.7704 181.793 41.9013C181.409 42.1771 180.94 42.3114 180.466 42.2812H178.908V37.252ZM179.261 39.4953H180.381C180.746 39.5226 181.111 39.4406 181.428 39.2601C181.54 39.1727 181.628 39.0591 181.684 38.9296C181.74 38.8001 181.763 38.6588 181.751 38.5184C181.761 38.3755 181.733 38.2325 181.668 38.1042C181.604 37.9759 181.506 37.867 181.385 37.7887C181.048 37.6155 180.669 37.5363 180.29 37.5596H179.261V39.4953ZM179.261 39.8089V41.9858H180.478C181.422 41.9858 181.891 41.6059 181.891 40.8461C181.891 40.0862 181.398 39.8089 180.399 39.8089H179.261Z" fill="#00032C"/>
<path d="M182.664 38.5426H183.023L183.82 40.6532C184.064 41.2985 184.222 41.7326 184.289 41.9618C184.386 41.6603 184.544 41.2201 184.764 40.6291L185.604 38.5426H185.963L184.264 42.9085C184.174 43.159 184.058 43.3995 183.917 43.6261C183.833 43.7421 183.723 43.8371 183.595 43.9035C183.452 43.9691 183.296 44.0021 183.138 44C182.99 43.9971 182.842 43.9727 182.7 43.9276V43.6261C182.841 43.6631 182.986 43.6813 183.132 43.6804C183.243 43.6833 183.352 43.6562 183.449 43.602C183.549 43.5353 183.632 43.4465 183.692 43.3427C183.794 43.1658 183.88 42.9801 183.948 42.7879C184.045 42.5407 184.106 42.3718 184.131 42.2995L182.664 38.5426Z" fill="#00032C"/>
<path d="M191.167 39.0913L190.905 40.4662H191.958V40.7436H190.844L190.546 42.2994H190.23L190.534 40.7436H189.256L188.957 42.2994H188.653L188.951 40.7436H187.965V40.4662H189.006L189.274 39.0913H188.233V38.8199H189.323L189.621 37.2521H189.937L189.627 38.8199H190.899L191.204 37.2521H191.508L191.198 38.8199H192.19V39.0913H191.167ZM189.341 40.4662H190.607L190.881 39.0913H189.615L189.341 40.4662Z" fill="#00032C"/>
<path d="M196.292 40.7677C196.297 41.0621 196.215 41.3514 196.055 41.5998C195.881 41.8484 195.641 42.0445 195.361 42.1667C195.024 42.3059 194.661 42.3737 194.296 42.3657C194.01 42.3691 193.725 42.3469 193.444 42.2993C193.195 42.2421 192.955 42.1571 192.726 42.0461V40.84C192.986 40.9709 193.26 41.076 193.541 41.1536C193.797 41.2219 194.061 41.2584 194.326 41.2621C194.484 41.2751 194.641 41.2392 194.777 41.1596C194.82 41.1284 194.855 41.0876 194.879 41.0405C194.904 40.9934 194.917 40.9412 194.917 40.8883C194.917 40.8239 194.898 40.7608 194.862 40.7074C194.808 40.645 194.745 40.592 194.673 40.5506C194.454 40.4304 194.229 40.3217 193.998 40.2249C193.73 40.1138 193.478 39.9678 193.249 39.7908C193.091 39.6585 192.965 39.4939 192.878 39.3084C192.795 39.1033 192.756 38.8838 192.762 38.6631C192.752 38.4539 192.794 38.2454 192.883 38.0554C192.972 37.8654 193.106 37.6994 193.273 37.5716C193.686 37.2924 194.181 37.1567 194.679 37.1857C195.237 37.192 195.787 37.3153 196.292 37.5475L195.872 38.5968C195.494 38.4073 195.079 38.2985 194.655 38.2772C194.519 38.2665 194.383 38.2981 194.266 38.3676C194.228 38.3935 194.198 38.4278 194.177 38.4676C194.156 38.5075 194.144 38.5518 194.144 38.5968C194.146 38.6505 194.162 38.7029 194.189 38.7492C194.217 38.7955 194.256 38.8343 194.302 38.8621C194.57 39.0277 194.851 39.1709 195.142 39.2903C195.49 39.4179 195.802 39.6244 196.055 39.8933C196.232 40.1496 196.316 40.458 196.292 40.7677Z" fill="#00032C"/>
<path d="M200.212 42.2994L199.963 41.3526H198.307L198.052 42.2994H196.56L198.192 37.2219H200.018L201.704 42.2933L200.212 42.2994ZM199.671 40.237L199.452 39.4109C199.403 39.2239 199.336 38.9888 199.263 38.6933C199.19 38.3978 199.141 38.1928 199.123 38.0903C199.098 38.2109 199.056 38.4119 198.995 38.6933C198.934 38.9646 198.8 39.4953 198.587 40.2853L199.671 40.237Z" fill="#00032C"/>
<path d="M206.853 42.2994H205.265L204.266 40.7195L203.286 42.2994H201.728L203.42 39.7124L201.832 37.2521H203.353L204.279 38.8079L205.161 37.2521H206.732L205.119 39.821L206.853 42.2994Z" fill="#00032C"/>
<path d="M212.198 39.7668C212.254 40.4656 212.036 41.1591 211.589 41.7025C211.348 41.9333 211.061 42.1115 210.747 42.2258C210.432 42.34 210.097 42.3877 209.763 42.3658C209.429 42.3855 209.094 42.3368 208.78 42.2226C208.466 42.1085 208.179 41.9314 207.937 41.7025C207.488 41.1575 207.27 40.4616 207.328 39.7607C207.271 39.0655 207.489 38.3756 207.937 37.8371C208.454 37.4066 209.108 37.1707 209.784 37.1707C210.46 37.1707 211.114 37.4066 211.632 37.8371C212.06 38.3863 212.262 39.0758 212.198 39.7668ZM208.692 39.7668C208.692 40.7437 209.032 41.2321 209.72 41.2321C209.869 41.2417 210.018 41.2142 210.153 41.152C210.288 41.0899 210.405 40.9951 210.493 40.8763C210.66 40.5286 210.746 40.1486 210.746 39.7638C210.746 39.3789 210.66 38.9989 210.493 38.6512C210.408 38.5319 210.293 38.4361 210.16 38.3728C210.027 38.3095 209.88 38.2808 209.732 38.2894C209.032 38.2894 208.692 38.7838 208.692 39.7668Z" fill="#00032C"/>
<path d="M216.1 40.9969C216.107 41.1887 216.069 41.3795 215.988 41.5537C215.906 41.7278 215.784 41.8801 215.631 41.9979C215.27 42.2583 214.829 42.3881 214.383 42.3658C213.897 42.3882 213.412 42.3186 212.953 42.1608V41.811C213.399 41.9797 213.875 42.0576 214.353 42.0402C214.708 42.0615 215.061 41.9615 215.351 41.7567C215.468 41.6701 215.562 41.5569 215.625 41.4268C215.689 41.2967 215.72 41.1535 215.716 41.009C215.724 40.8418 215.681 40.6761 215.594 40.5326C215.489 40.3908 215.354 40.2735 215.199 40.1889C214.939 40.0549 214.668 39.9439 214.389 39.8572C213.989 39.7389 213.621 39.5328 213.312 39.2542C213.21 39.1427 213.131 39.0123 213.08 38.8705C213.028 38.7288 213.006 38.5784 213.013 38.428C213.01 38.2499 213.048 38.0735 213.127 37.9131C213.205 37.7527 213.321 37.613 213.464 37.5054C213.793 37.2563 214.201 37.1303 214.614 37.1496C215.076 37.145 215.534 37.2353 215.96 37.415L215.832 37.7225C215.448 37.5544 215.034 37.4642 214.614 37.4572C214.293 37.4399 213.975 37.5313 213.713 37.7165C213.606 37.7998 213.519 37.907 213.461 38.0296C213.403 38.1522 213.375 38.2866 213.379 38.422C213.373 38.581 213.409 38.7388 213.482 38.8803C213.565 39.0146 213.68 39.1264 213.817 39.2059C214.076 39.3402 214.344 39.4551 214.62 39.5497C214.933 39.6459 215.233 39.7774 215.515 39.9416C215.696 40.0477 215.846 40.197 215.953 40.3758C216.057 40.5661 216.108 40.7807 216.1 40.9969Z" fill="#00032C"/>
<path d="M218.504 42.2994H218.145V37.5837H216.489V37.2521H220.141V37.5837H218.486L218.504 42.2994Z" fill="#00032C"/>
<path d="M221.273 40.0983V42.2994H220.908V37.2521H222.126C222.617 37.2159 223.108 37.3363 223.526 37.5958C223.678 37.722 223.799 37.8824 223.877 38.0638C223.956 38.2451 223.989 38.4422 223.976 38.639C223.986 38.9461 223.892 39.2477 223.708 39.4953C223.498 39.7484 223.209 39.9246 222.886 39.9958L224.268 42.2994H223.842L222.533 40.0983H221.273ZM221.273 39.7968H222.241C222.6 39.8194 222.955 39.717 223.246 39.5074C223.367 39.4048 223.462 39.2755 223.523 39.1299C223.584 38.9843 223.61 38.8265 223.599 38.6692C223.613 38.5121 223.589 38.354 223.528 38.2081C223.468 38.0622 223.373 37.9329 223.252 37.831C222.909 37.6269 222.511 37.5341 222.113 37.5656H221.273V39.7968Z" fill="#00032C"/>
<path d="M227.604 40.5144H225.534L224.822 42.3235H224.433L226.484 37.2219H226.715L228.718 42.2933H228.322L227.604 40.5144ZM225.662 40.2008H227.488L226.794 38.3918C226.733 38.247 226.666 38.048 226.587 37.7887C226.52 38.0119 226.453 38.2109 226.38 38.3918L225.662 40.2008Z" fill="#00032C"/>
<path d="M230.769 42.2994H230.41V37.5837H228.754V37.2521H232.407V37.5837H230.769V42.2994Z" fill="#00032C"/>
<path d="M235.998 40.9968C236.005 41.1891 235.966 41.3803 235.883 41.5544C235.8 41.7286 235.677 41.8806 235.523 41.9978C235.171 42.2538 234.742 42.3835 234.306 42.3657C233.818 42.3881 233.33 42.3185 232.869 42.1607V41.8109C233.318 41.9789 233.796 42.0568 234.275 42.04C234.631 42.0605 234.983 41.9605 235.273 41.7566C235.448 41.6144 235.568 41.4165 235.612 41.1967C235.657 40.9768 235.623 40.7485 235.517 40.5506C235.412 40.4088 235.277 40.2915 235.121 40.2069C234.861 40.074 234.59 39.963 234.312 39.8752C233.91 39.7599 233.541 39.5534 233.234 39.2722C233.132 39.1606 233.053 39.0303 233.002 38.8885C232.951 38.7468 232.928 38.5964 232.936 38.446C232.931 38.2684 232.969 38.0921 233.046 37.9317C233.123 37.7712 233.238 37.6313 233.38 37.5234C233.711 37.2734 234.121 37.1474 234.537 37.1676C234.999 37.163 235.457 37.2533 235.882 37.4329L235.754 37.7405C235.37 37.5724 234.956 37.4821 234.537 37.4752C234.216 37.4579 233.898 37.5493 233.636 37.7345C233.527 37.8171 233.44 37.9242 233.382 38.047C233.324 38.1697 233.296 38.3045 233.301 38.44C233.296 38.599 233.331 38.7567 233.405 38.8983C233.487 39.0326 233.602 39.1444 233.739 39.2239C233.998 39.3582 234.267 39.4731 234.543 39.5677C234.855 39.6638 235.156 39.7954 235.438 39.9596C235.618 40.0657 235.769 40.215 235.876 40.3938C235.968 40.581 236.01 40.7888 235.998 40.9968Z" fill="#00032C"/>
<path d="M109.444 3.52498C109.444 5.06872 108.947 6.11195 107.953 6.65467L109.639 8.57228H107.32L106.102 7.05266C105.647 7.08224 105.191 7.01763 104.762 6.86294C104.334 6.70825 103.942 6.46687 103.613 6.15416C102.992 5.42154 102.682 4.47915 102.749 3.52498C102.68 2.58076 102.989 1.64771 103.607 0.925948C103.938 0.6123 104.331 0.370423 104.762 0.215727C105.193 0.0610317 105.651 -0.00309124 106.109 0.0274432C106.564 -0.00528053 107.022 0.0572568 107.452 0.211002C107.882 0.364748 108.275 0.606271 108.604 0.919918C109.21 1.64996 109.511 2.58217 109.444 3.52498ZM104.702 3.52498C104.702 4.8456 105.165 5.5029 106.096 5.5029C106.298 5.51462 106.499 5.47668 106.681 5.39248C106.864 5.30828 107.023 5.18046 107.143 5.02048C107.404 4.56646 107.523 4.04593 107.484 3.52498C107.523 2.99942 107.402 2.4744 107.137 2.01742C107.019 1.85809 106.862 1.73018 106.682 1.64499C106.501 1.55981 106.302 1.51996 106.102 1.52897C105.171 1.52897 104.702 2.1923 104.702 3.52498Z" fill="#00032C"/>
<path d="M114.387 6.944H112.5V3.32586C112.5 2.89168 112.5 2.48765 112.5 2.11981C112.367 2.27496 112.222 2.42009 112.068 2.55399L111.288 3.19319L110.321 2.0173L112.682 0.111742H114.387V6.944Z" fill="#00032C"/>
<path d="M120.474 6.94407H116.158V6.53401L117.984 4.64052C118.368 4.25856 118.729 3.85593 119.068 3.43447C119.255 3.18793 119.408 2.91831 119.524 2.63245C119.621 2.37601 119.671 2.10431 119.67 1.83043C119.678 1.64389 119.645 1.45788 119.574 1.28511C119.502 1.11234 119.394 0.956901 119.257 0.829411C119.116 0.696501 118.95 0.593234 118.768 0.525861C118.585 0.458488 118.392 0.42841 118.197 0.437446C117.594 0.444984 117.012 0.657901 116.548 1.04047L116.292 0.720867C116.819 0.257651 117.499 0.00227824 118.203 0.00326958C118.72 -0.0260231 119.227 0.142377 119.622 0.473628C119.796 0.644755 119.931 0.850308 120.019 1.07684C120.107 1.30338 120.146 1.54579 120.133 1.78822C120.131 2.24564 120.013 2.69529 119.792 3.09678C119.439 3.66866 119.014 4.19351 118.526 4.65861L116.755 6.46768H120.474V6.94407Z" fill="#00032C"/>
<path d="M126.08 3.51288C126.141 4.43455 125.95 5.35546 125.526 6.17825C125.353 6.46313 125.106 6.69644 124.81 6.85354C124.514 7.01063 124.181 7.08567 123.846 7.07072C123.517 7.08186 123.192 7.00481 122.903 6.84772C122.615 6.69062 122.375 6.45932 122.209 6.17825C121.784 5.3664 121.591 4.45549 121.649 3.54303C121.588 2.63049 121.775 1.71847 122.19 0.901791C122.363 0.624642 122.608 0.398794 122.899 0.248081C123.191 0.0973682 123.518 0.0273782 123.846 0.0454971C124.178 0.0293143 124.509 0.103328 124.801 0.25955C125.094 0.415772 125.339 0.648268 125.508 0.931941C125.931 1.72501 126.129 2.6171 126.08 3.51288ZM122.154 3.51288C122.103 4.31681 122.247 5.12119 122.574 5.85864C122.697 6.09099 122.882 6.28553 123.109 6.42124C123.336 6.55695 123.596 6.62867 123.861 6.62867C124.126 6.62867 124.386 6.55695 124.613 6.42124C124.84 6.28553 125.025 6.09099 125.149 5.85864C125.46 5.12518 125.599 4.33146 125.556 3.537C125.598 2.75242 125.458 1.96882 125.149 1.24551C125.039 0.996694 124.856 0.78649 124.623 0.642341C124.391 0.498191 124.12 0.426792 123.846 0.437462C123.576 0.424765 123.309 0.49274 123.079 0.632549C122.849 0.772359 122.666 0.977533 122.556 1.22139C122.249 1.9453 122.111 2.72878 122.154 3.51288Z" fill="#00032C"/>
<path d="M131.43 6.944H127.17V6.53395L128.996 4.65854C129.381 4.27819 129.742 3.87546 130.079 3.4525C130.266 3.20595 130.419 2.93634 130.536 2.65047C130.633 2.39403 130.682 2.12233 130.682 1.84845C130.689 1.66396 130.657 1.48 130.588 1.30856C130.519 1.13713 130.414 0.982063 130.28 0.853465C130.139 0.715585 129.972 0.607571 129.788 0.536029C129.603 0.464486 129.406 0.430919 129.209 0.437379C128.606 0.446856 128.024 0.659543 127.559 1.0404L127.303 0.7208C127.833 0.258635 128.515 0.00352828 129.221 0.00320249C129.735 -0.0257688 130.241 0.142687 130.633 0.473561C130.809 0.643466 130.946 0.848669 131.035 1.0754C131.124 1.30213 131.164 1.54515 131.15 1.78815C131.149 2.24643 131.029 2.69674 130.803 3.09671C130.452 3.66999 130.027 4.19509 129.537 4.65854L127.778 6.46761H131.43V6.944Z" fill="#00032C"/>
<path d="M137.091 3.51285C137.155 4.43471 136.964 5.35634 136.537 6.17822C136.368 6.46489 136.122 6.69982 135.827 6.85725C135.532 7.01468 135.198 7.08852 134.863 7.07069C134.537 7.07336 134.215 6.98917 133.933 6.82689C133.65 6.66461 133.417 6.43019 133.257 6.14806C132.813 5.34193 132.602 4.43002 132.648 3.51285C132.584 2.60011 132.771 1.6873 133.19 0.87161C133.362 0.594461 133.607 0.368614 133.899 0.2179C134.19 0.0671873 134.517 -0.00280241 134.845 0.0153165C135.177 0.00240775 135.506 0.0778336 135.798 0.233739C136.091 0.389644 136.335 0.620327 136.507 0.901761C136.94 1.70264 137.142 2.60589 137.091 3.51285ZM133.171 3.51285C133.12 4.31679 133.264 5.12116 133.591 5.85861C133.706 6.09355 133.888 6.29037 134.114 6.42522C134.34 6.56007 134.6 6.62718 134.863 6.61842C135.134 6.63152 135.402 6.56379 135.633 6.424C135.865 6.28422 136.048 6.07883 136.16 5.83449C136.474 5.10187 136.614 4.30748 136.568 3.51285C136.612 2.72808 136.473 1.94381 136.16 1.22136C136.038 0.98594 135.852 0.788451 135.624 0.65057C135.396 0.512689 135.134 0.439745 134.867 0.439745C134.599 0.439745 134.337 0.512689 134.109 0.65057C133.881 0.788451 133.695 0.98594 133.573 1.22136C133.266 1.94527 133.129 2.72875 133.171 3.51285Z" fill="#00032C"/>
<path d="M139.951 34.484C140.938 34.5336 141.924 34.362 142.834 33.982C143.745 33.6019 144.557 33.0232 145.211 32.289C146.477 30.8217 147.112 28.8317 147.116 26.3191C147.12 23.8065 146.485 21.8125 145.211 20.3371C144.556 19.6058 143.743 19.0303 142.832 18.6534C141.921 18.2765 140.937 18.1079 139.951 18.1602C139.544 18.1619 139.137 18.1922 138.734 18.2506L138.211 19.4567C138.78 19.3178 139.365 19.249 139.951 19.2517C140.775 19.1992 141.6 19.335 142.362 19.6487C143.124 19.9624 143.803 20.4455 144.346 21.0607C145.361 22.2668 145.87 24.0196 145.874 26.3191C145.878 28.6186 145.369 30.3794 144.346 31.6016C143.774 32.1883 143.089 32.6549 142.332 32.9736C141.574 33.2923 140.759 33.4565 139.936 33.4565C139.113 33.4565 138.298 33.2923 137.541 32.9736C136.783 32.6549 136.098 32.1883 135.526 31.6016C134.843 30.7343 134.387 29.713 134.199 28.6287L133.469 30.299C133.758 31.0313 134.17 31.7101 134.686 32.3071C135.34 33.041 136.154 33.6182 137.066 33.9952C137.978 34.3723 138.965 34.5394 139.951 34.484Z" fill="#00032C"/>
<path d="M161.438 28.7794C161.5 29.4186 161.418 30.0636 161.198 30.6676C160.978 31.2716 160.625 31.8197 160.165 32.272C159.705 32.7244 159.149 33.0699 158.538 33.2835C157.926 33.4971 157.275 33.5734 156.63 33.5071C155.971 33.5766 155.306 33.4999 154.681 33.2825C154.057 33.0652 153.489 32.7127 153.019 32.2507C152.549 31.7887 152.189 31.2287 151.965 30.6116C151.741 29.9944 151.658 29.3355 151.724 28.6829V18.4315H150.598V28.6829C150.519 29.47 150.618 30.2645 150.886 31.0094C151.155 31.7542 151.587 32.4308 152.151 32.9907C152.715 33.5505 153.397 33.9797 154.148 34.2472C154.899 34.5148 155.701 34.6142 156.496 34.5382C157.304 34.5862 158.114 34.4751 158.879 34.2111C159.644 33.9472 160.348 33.5357 160.951 33.0005C161.501 32.4357 161.927 31.7643 162.203 31.0286C162.478 30.2928 162.597 29.5086 162.552 28.7251V18.4737H161.438V28.7794Z" fill="#00032C"/>
<path d="M196.037 18.1602C195.054 18.1128 194.072 18.2836 193.165 18.6603C192.257 19.0369 191.445 19.6098 190.79 20.3371C189.507 21.7843 188.866 23.7703 188.866 26.2949C188.866 28.8196 189.501 30.8176 190.771 32.289C191.453 32.9866 192.268 33.5412 193.17 33.9201C194.072 34.2989 195.042 34.4941 196.021 34.4941C197.001 34.4941 197.971 34.2989 198.873 33.9201C199.775 33.5412 200.59 32.9866 201.271 32.289C202.542 30.8216 203.177 28.8317 203.177 26.3191C203.177 23.8065 202.546 21.8125 201.284 20.3371C200.63 19.6074 199.819 19.0329 198.911 18.6561C198.002 18.2792 197.02 18.1097 196.037 18.1602ZM200.431 31.6016C199.86 32.1883 199.175 32.6549 198.417 32.9736C197.659 33.2923 196.845 33.4565 196.021 33.4565C195.198 33.4565 194.384 33.2923 193.626 32.9736C192.868 32.6549 192.183 32.1883 191.611 31.6016C190.589 30.3593 190.084 28.5864 190.084 26.3372C190.084 24.0879 190.595 22.3271 191.63 21.0969C192.203 20.516 192.887 20.0544 193.643 19.7392C194.399 19.4241 195.211 19.2617 196.031 19.2617C196.851 19.2617 197.662 19.4241 198.418 19.7392C199.174 20.0544 199.858 20.516 200.431 21.0969C201.454 22.3029 201.959 24.0698 201.959 26.3553C201.959 28.6407 201.43 30.3714 200.431 31.6016Z" fill="#00032C"/>
<path d="M164.756 19.4506H169.954V34.2669H171.08V19.4506H176.285V18.4073H164.756V19.4506Z" fill="#00032C"/>
<path d="M213.172 18.1602C212.189 18.1128 211.207 18.2836 210.3 18.6603C209.392 19.0369 208.58 19.6098 207.925 20.3371C206.638 21.7843 205.997 23.7703 206.001 26.2949C206.005 28.8196 206.64 30.8176 207.907 32.289C208.588 32.9865 209.403 33.5412 210.305 33.9201C211.207 34.2989 212.177 34.4941 213.157 34.4941C214.136 34.4941 215.106 34.2989 216.008 33.9201C216.91 33.5412 217.725 32.9865 218.407 32.289C219.681 30.8216 220.316 28.8317 220.312 26.3191C220.308 23.8065 219.677 21.8125 218.419 20.3371C217.765 19.6071 216.954 19.0323 216.046 18.6554C215.138 18.2786 214.155 18.1093 213.172 18.1602ZM217.573 31.6015C217.001 32.1882 216.316 32.6549 215.558 32.9736C214.801 33.2923 213.986 33.4565 213.163 33.4565C212.34 33.4565 211.525 33.2923 210.767 32.9736C210.009 32.6549 209.324 32.1882 208.753 31.6015C207.73 30.3593 207.219 28.6045 207.219 26.3372C207.219 24.0698 207.736 22.327 208.765 21.0969C209.338 20.5158 210.024 20.0541 210.78 19.7389C211.536 19.4236 212.348 19.2613 213.169 19.2613C213.989 19.2613 214.801 19.4236 215.558 19.7389C216.314 20.0541 216.999 20.5158 217.573 21.0969C218.587 22.3029 219.096 24.0557 219.101 26.3552C219.105 28.6548 218.595 30.4035 217.573 31.6015Z" fill="#00032C"/>
<path d="M234.58 18.4073H233.155L226.886 24.8959L225.108 26.6567V18.4073H223.994V34.2669H225.108V27.7602L227.245 25.8969L233.387 34.2669H234.756L228.024 25.113L234.58 18.4073Z" fill="#00032C"/>
<path d="M179.778 18.4073H178.658V34.2669H187.405V33.2297H179.778V18.4073Z" fill="#00032C"/>
<path d="M39.3647 10.3571L34.0812 26.4639H38.9081L39.7238 23.4488H44.9951L45.7925 26.4639H50.5708L45.2021 10.3571H39.3647ZM40.6186 19.903C41.2881 17.3864 41.7203 15.6999 41.9151 14.8436C42.1099 13.9934 42.2438 13.3783 42.3107 13.0044C42.3838 13.4084 42.536 14.0718 42.7673 15.0004C42.9986 15.9291 43.1994 16.6889 43.376 17.2738L44.0699 19.903H40.6186Z" fill="#00032C"/>
<path d="M28.061 19.8185C28.1371 20.6922 27.9234 21.5666 27.4523 22.309C27.2133 22.5786 26.9134 22.7884 26.577 22.9215C26.2407 23.0546 25.8774 23.1071 25.5166 23.0748C25.1631 23.0981 24.8089 23.0412 24.4808 22.9085C24.1528 22.7758 23.8596 22.5708 23.6236 22.309C23.1355 21.5797 22.9103 20.7085 22.9845 19.8366V10.4234H18.5775V20.1803C18.5775 22.2788 19.1862 23.8889 20.3549 25.0045C21.5236 26.1201 23.2401 26.6809 25.4436 26.6809C27.6471 26.6809 29.4306 26.0779 30.6358 24.9563C31.841 23.8346 32.4619 22.1763 32.4619 20.0778V10.4294H28.061V19.8185Z" fill="#00032C"/>
<path d="M15.7775 18.4256C15.7775 15.72 15.1119 13.6677 13.7809 12.2687C12.4499 10.8697 10.498 10.1702 7.92525 10.1702C5.35654 10.1702 3.39856 10.8757 2.05131 12.2868C0.704061 13.6979 0.0202899 15.7361 0 18.4014C0 21.0949 0.675655 23.1492 2.02696 24.5643C3.37827 25.9794 5.32408 26.685 7.86438 26.6809L10.7192 30.2448H16.1975L12.247 25.7643C14.5601 24.5101 15.7775 22.0558 15.7775 18.4256ZM10.3661 21.9472C10.0868 22.3208 9.71791 22.6195 9.29281 22.8164C8.86771 23.0132 8.39979 23.1021 7.93134 23.0749C5.7522 23.0749 4.66263 21.5251 4.66263 18.4256C4.66263 15.326 5.74002 13.7521 7.89481 13.7039C8.36556 13.6736 8.8363 13.763 9.2624 13.9635C9.68851 14.164 10.0559 14.469 10.3296 14.8496C10.8734 15.6135 11.1453 16.7974 11.1453 18.4014C11.1453 20.0055 10.8754 21.1874 10.3357 21.9472H10.3661Z" fill="#00032C"/>
<path d="M66.4637 13.9692H70.4142V26.4638H74.7907V13.9692H78.729V10.4234H66.4637V13.9692Z" fill="#00032C"/>
<path d="M130.608 10.4234L127.821 16.3692L125.051 10.4234H120.291L125.617 20.3311V26.4638H127.212L134.224 10.4234H130.608Z" fill="#00032C"/>
<path d="M113.212 10.4234H108.841V26.4638H119.451V22.9663H113.212V10.4234Z" fill="#00032C"/>
<path d="M64.2054 15.1632C64.2054 12.0033 62.004 10.4234 57.6011 10.4234H52.2993V26.4638H56.6698V20.6265H57.7776L61.2106 26.4638H66.1715L61.4298 19.4748C63.2863 18.4617 64.2054 17.0205 64.2054 15.1632ZM57.5098 17.3702H56.6698V13.7038H57.5341C59.0356 13.7038 59.7863 14.2566 59.7863 15.3621C59.7863 16.7009 59.0214 17.3702 57.4915 17.3702H57.5098Z" fill="#00032C"/>
<path d="M81.0422 26.4638H90.6596V22.9301H85.4187V19.9029H90.27V16.4295H85.4187V13.9028H90.6596V10.4234H81.0422V26.4638Z" fill="#00032C"/>
<path d="M105.396 15.1632C105.396 12.0033 103.197 10.4234 98.7977 10.4234H93.4899V26.4638H97.8664V20.6265H98.9742L102.407 26.4638H107.368L102.651 19.4748C104.483 18.4617 105.396 17.0205 105.396 15.1632ZM98.7003 17.3702H97.8786V13.7038H98.7429C100.244 13.7038 100.995 14.2566 100.995 15.3621C100.995 16.7009 100.226 17.3702 98.6881 17.3702H98.7003Z" fill="#00032C"/>
</svg>
