<?xml version="1.0" encoding="utf-8"?>
<!-- Generator: Adobe Illustrator 22.1.0, SVG Export Plug-In . SVG Version: 6.00 Build 0)  -->
<svg version="1.1" id="Layer_1" xmlns="http://www.w3.org/2000/svg" xmlns:xlink="http://www.w3.org/1999/xlink" x="0px" y="0px"
	 viewBox="0 0 283.5 212.6" style="enable-background:new 0 0 283.5 212.6;" xml:space="preserve">
<style type="text/css">
	.st0{clip-path:url(#SVGID_2_);}
	.st1{clip-path:url(#SVGID_4_);}
	.st2{fill:#AEB1B2;}
	.st3{fill:#FFFFFF;}
	.st4{fill:url(#SVGID_5_);}
	.st5{clip-path:url(#SVGID_2_);fill:#BEC0C2;}
	.st6{clip-path:url(#SVGID_2_);fill:#FFFFFF;}
	.st7{fill-rule:evenodd;clip-rule:evenodd;fill:#BBBDBF;}
</style>
<title>SaxoBankLogos_newcvi_capitalmarkets</title>
<polygon points="275,204.1 8.5,204.1 8.5,106.3 275,106.3 "/>
<g>
	<g>
		<defs>
			<rect id="SVGID_1_" x="8.5" y="8.5" width="266.5" height="97.8"/>
		</defs>
		<clipPath id="SVGID_2_">
			<use xlink:href="#SVGID_1_"  style="overflow:visible;"/>
		</clipPath>
		<g class="st0">
			<g>
				<g>
					<defs>
						<rect id="SVGID_3_" x="8.5" y="8.5" width="266.5" height="97.8"/>
					</defs>
					<clipPath id="SVGID_4_">
						<use xlink:href="#SVGID_3_"  style="overflow:visible;"/>
					</clipPath>
					<g class="st1">
					</g>
				</g>
				<path class="st2" d="M275,204.1H8.5V8.5H275V204.1z M0,0v212.6h283.5V0H0z"/>
				<path class="st3" d="M229.4,78.3c-11.3,0-13.7-10.6-13.7-20.9c0-9.9,2.9-19.3,13.7-19.3s13.7,9.4,13.7,19.3
					C243.1,67.7,240.7,78.3,229.4,78.3z M229.4,30.4c-15.4,0-24.2,12-24.2,27c0,16,7.7,28.5,24.2,28.5s24.2-12.5,24.2-28.5
					C253.6,42.4,244.8,30.4,229.4,30.4z M175,58.2c-0.7-1.1-0.7-2.6,0.1-3.7c0.8-1.4,11.5-21.5,11.9-22.2c0.4-0.7,0.2-1.2-0.5-1.2
					h-8.3c-0.5-0.1-1,0.2-1.2,0.6c-0.2,0.5-6.6,13.1-9.8,19.3c-0.5,1-0.9,1-1.4,0c-4-8.1-9-18.5-9.3-19.1c-0.3-0.6-0.8-0.9-1.4-0.8
					h-9.2c-0.7,0-1.1,0.4-0.7,1.1c0.4,0.7,12.4,21.7,12.8,22.3c0.8,1.1,0.9,2.6,0.1,3.8L144.5,84c-0.3,0.6,0,1,0.5,1h8.9
					c0.5,0.1,1-0.3,1.2-0.8c0.3-0.6,7.6-15.1,10.6-21.1c0.4-0.8,1-0.8,1.4,0c1.7,3.4,10.3,20.5,10.6,21.1s0.6,0.8,1,0.8h9.7
					c0.6,0,0.9-0.3,0.6-1S175.7,59.5,175,58.2L175,58.2z M97.8,65.6c0,0,3.9-13.6,4.7-16.5c1.2-4.2,2.1-7.9,2.5-9.7
					c0.2-0.7,0.5-0.7,0.7,0c0.5,1.9,1.5,5.7,2.7,9.6c1.6,5.5,4.9,16.5,4.9,16.5L97.8,65.6z M112.2,31.6c-0.1-0.3-0.4-0.5-0.7-0.4
					H100c-0.3,0-0.6,0.1-0.7,0.4c0,0.4-16.6,52.2-16.7,52.6c-0.1,0.4,0.1,0.8,0.4,0.9c0.1,0,0.1,0,0.2,0h8.6c0.4,0,0.8-0.3,0.9-0.7
					c0.2-0.5,3.7-12.2,3.7-12.2h18.5c0,0,3.8,12,3.9,12.4c0.1,0.3,0.4,0.6,0.7,0.6h9.1c0.4,0,0.7-0.2,0.7-0.6c0-0.1,0-0.2,0-0.3
					C129.2,83.6,112.3,31.9,112.2,31.6z M52.2,53.7C45,50.9,41.9,49,41.9,44.8c0-3.1,2.7-6.5,9-6.5c2,0,3.9,0.1,10,1.7
					c0.4,0.1,0.8-0.1,0.9-0.5l0,0c0.1-0.4,1.7-6.1,1.8-6.6c0.1-0.3-0.1-0.7-0.4-0.8h-0.1c-6.1-1.7-9.1-1.9-12-1.9
					C39.4,30.2,32,36.9,32,45.8c0,7.8,5.7,12.5,14.6,15.7c6.9,2.5,9.6,4.9,9.6,9c0,4.4-3.5,7.4-9.9,7.4c-1.9,0-4.8-0.1-12.2-2.3
					c-0.4-0.1-0.8,0.1-0.9,0.4l0,0c-0.1,0.4-2,6.1-2.1,6.6c-0.1,0.3,0.1,0.7,0.4,0.8h0.1c7.6,2.3,11.3,2.6,14,2.6
					c14,0,20.7-7.6,20.7-16.3C66.2,61.9,61.5,57.2,52.2,53.7L52.2,53.7z"/>
				<path class="st3" d="M152.1,172.2l8.8-10.2c0.2-0.2,0-0.4-0.2-0.4h-4.4c-0.3,0-0.3,0-0.5,0.3s-7.7,9.2-7.9,9.4s-0.4,0.2-0.4-0.2
					v-9.2c0-0.1,0-0.2-0.1-0.2c-0.1-0.1-0.1-0.1-0.2-0.1h-4c-0.1,0-0.2,0-0.2,0.1c-0.1,0.1-0.1,0.1-0.1,0.2V184c0,0.1,0,0.2,0.1,0.2
					c0.1,0.1,0.1,0.1,0.2,0.1h4c0.2,0,0.3-0.1,0.3-0.3v-10.6c0-0.4,0.2-0.5,0.4-0.2s8,10.5,8.1,10.8c0.1,0.2,0.3,0.3,0.6,0.3h4.8
					c0.3,0,0.3-0.1,0.2-0.3L152.1,172.2L152.1,172.2z M118.3,170.7c-0.9,0.6-1.9,1-3,0.9h-2.1v-6.5h2.2c1-0.1,2.1,0.2,2.9,0.7
					c0.7,0.6,1.1,1.5,1,2.4C119.4,169.2,119,170.1,118.3,170.7L118.3,170.7z M123.1,177.7c-0.3-1.7-1.3-3.3-2.7-4.2
					c2.2-1,3.6-3.1,3.6-5.5c0.1-1.8-0.7-3.5-2-4.7c-1.6-1.3-3.8-1.7-7-1.7h-6.2c-0.1,0-0.3,0.2-0.2,0.3V184c0,0.1,0,0.2,0.1,0.2
					c0.1,0.1,0.1,0.1,0.2,0.1h4c0.1,0,0.2,0,0.2-0.1c0.1-0.1,0.1-0.1,0.1-0.2v-8.8h1.7c0.9-0.1,1.7,0.2,2.4,0.8
					c0.7,0.8,1.1,1.8,1.3,2.8c0.3,1.8,0.8,3.6,1.5,5.3c0.1,0.1,0.2,0.2,0.3,0.2h4.1c0.1,0,0.2-0.1,0.3-0.1c0-0.1,0-0.2,0-0.3
					C124.1,181.8,123.5,179.8,123.1,177.7L123.1,177.7z M111.3,128.3h2c1.1-0.1,2.2,0.2,3.1,0.8c0.7,0.6,1.1,1.6,1.1,2.6
					c0.1,1.1-0.4,2.1-1.2,2.8c-1,0.7-2.2,1.1-3.4,1h-1.7L111.3,128.3L111.3,128.3z M111.2,147.3c0.1-0.1,0.1-0.1,0.1-0.2v-7.9h1.6
					c2.9,0,5.6-0.7,7.2-2.4c1.4-1.4,2.1-3.3,2-5.2c0.1-2-0.8-3.8-2.3-5.1c-1.5-1.2-3.7-1.7-6.7-1.7H107c-0.2,0-0.3,0.1-0.3,0.3v22.1
					c0,0.1,0,0.2,0.1,0.2c0.1,0.1,0.1,0.1,0.2,0.1h4C111.1,147.4,111.2,147.3,111.2,147.3L111.2,147.3z M78.8,176.1l2.1-6.9
					c0.3-0.9,0.5-1.9,0.7-2.9c0-0.1,0.1-0.1,0.1,0c0.2,0.9,0.5,1.9,0.8,2.9l2.2,6.8L78.8,176.1z M84.8,161.8c0-0.1-0.2-0.2-0.3-0.2
					h-5.1c-0.1,0-0.2,0.1-0.3,0.2l-7,22.1c0,0.1,0,0.2,0,0.3c0.1,0.1,0.2,0.1,0.2,0.1h4.2c0.1,0,0.2-0.1,0.3-0.2l1.3-4.2h7.7L87,184
					c0,0.1,0.2,0.2,0.3,0.2h4.3c0.1,0,0.2,0,0.2-0.1s0-0.2,0-0.3L84.8,161.8L84.8,161.8z M205.6,139.3l2.1-6.9
					c0.3-0.9,0.5-1.9,0.7-2.9c0-0.1,0.1-0.1,0.1,0c0.2,0.9,0.5,1.9,0.8,2.9l2.2,6.8L205.6,139.3z M213.8,147.2
					c0,0.1,0.2,0.2,0.3,0.2h4.3c0.1,0,0.2-0.1,0.2-0.1c0-0.1,0-0.2,0-0.3l-7.2-22.1c0-0.1-0.2-0.2-0.3-0.2H206
					c-0.1,0-0.2,0.1-0.3,0.2l-7,22.1c-0.1,0.2,0,0.3,0.2,0.4h0.1h4.2c0.1,0,0.3-0.1,0.3-0.2l1.3-4.2h7.7L213.8,147.2L213.8,147.2z
					 M76.2,132.4c0.3-0.9,0.5-1.9,0.7-2.9c0-0.1,0.1-0.1,0.1,0c0.2,0.9,0.5,1.9,0.8,2.9l2.2,6.8h-6L76.2,132.4L76.2,132.4z
					 M73.2,142.9h7.7l1.4,4.2c0,0.1,0.2,0.2,0.3,0.2h4.3c0.1,0,0.2,0,0.2-0.1s0-0.2,0-0.3l-7.1-22c0-0.1-0.2-0.2-0.3-0.2h-5.1
					c-0.1,0-0.2,0.1-0.3,0.2L67.2,147c0,0.1,0,0.2,0,0.3c0.1,0.1,0.1,0.1,0.2,0.1h4.2c0.1,0,0.3-0.1,0.3-0.2L73.2,142.9L73.2,142.9z
					 M245.7,170.8c-1.1-0.4-2.2-0.9-3.1-1.6c-0.6-0.4-0.9-1.1-0.9-1.8c0-1.1,0.9-2.3,3.3-2.4c1.5,0,2.9,0.3,4.3,1c0.1,0,0.2,0,0.3,0
					s0.1-0.1,0.2-0.2l1-3.2c0-0.1,0-0.3-0.1-0.4c-1.7-0.8-3.6-1.2-5.4-1.1c-2.1-0.1-4.2,0.6-5.9,1.9c-1.4,1.2-2.2,2.9-2.2,4.8
					c0,1.5,0.6,3,1.7,4.1c1.3,1.2,2.8,2.1,4.5,2.6c1.1,0.3,2,0.8,2.9,1.5c0.5,0.5,0.8,1.1,0.8,1.9c0,0.8-0.3,1.5-0.9,2
					c-0.8,0.6-1.8,0.8-2.8,0.8c-1.8,0-3.6-0.5-5.2-1.4c-0.1,0-0.2,0-0.3,0s-0.1,0.1-0.2,0.2l-0.9,3.3c0,0.1,0,0.3,0.1,0.3
					c1.9,1,4,1.5,6.1,1.4l0,0c2.3,0.2,4.7-0.6,6.5-2c1.4-1.2,2.2-3,2.2-4.9c0-1.5-0.5-3-1.5-4.1
					C248.9,172.4,247.4,171.4,245.7,170.8L245.7,170.8z M190.7,180.3h-9v-5.9h7.2c0.2,0,0.3-0.1,0.3-0.3v-3.3c0-0.1,0-0.2-0.1-0.2
					c-0.1-0.1-0.1-0.1-0.2-0.1h-7.2v-5.1h8.5c0.1,0,0.2,0,0.2-0.1c0.1-0.1,0.1-0.1,0.1-0.2v-3.3c0-0.1,0-0.2-0.1-0.2
					c-0.1-0.1-0.1-0.1-0.2-0.1h-12.9c-0.2,0-0.3,0.1-0.3,0.3v22.1c0,0.1,0,0.2,0.1,0.2c0.1,0.1,0.1,0.1,0.2,0.1h13.3
					c0.1,0,0.2,0,0.2-0.1c0.1-0.1,0.1-0.1,0.1-0.2v-3.3c0-0.1,0-0.2-0.1-0.2C190.8,180.3,190.8,180.3,190.7,180.3L190.7,180.3z
					 M54.7,161.5h-5.3c-0.1,0-0.3,0.1-0.3,0.2l-4.8,13.5c-0.1,0.2-0.2,0.2-0.3,0s-4.6-13.5-4.6-13.5c0-0.1-0.2-0.2-0.3-0.2h-5.3
					c-0.2,0-0.3,0.1-0.3,0.3L32,183.9c0,0.1,0,0.2,0.1,0.2c0.1,0.1,0.1,0.1,0.2,0.1h3.8c0.2,0,0.3-0.1,0.3-0.3l0,0l0.5-8.9
					c0.1-2.1,0.2-4.6,0.3-6.9c0-0.2,0.1-0.2,0.1,0c0.8,2.9,4.6,12.4,4.6,12.4c0,0.1,0.2,0.2,0.3,0.2h3.1c0.1,0,0.2-0.1,0.3-0.2
					c0,0,4.1-9.5,5.1-12.6c0.1-0.2,0.2-0.2,0.2,0c0,2.4,0.2,4.8,0.2,6.9l0.4,9c0,0.2,0.1,0.3,0.3,0.3h4c0.1,0,0.2,0,0.2-0.1
					c0.1-0.1,0.1-0.1,0.1-0.2l-1.1-22C55,161.7,54.9,161.6,54.7,161.5L54.7,161.5z M251.9,143.5c-0.1-0.1-0.1-0.1-0.2-0.1h-8.8V125
					c0-0.2-0.1-0.3-0.3-0.3h-4c-0.1,0-0.2,0-0.2,0.1c-0.1,0.1-0.1,0.1-0.1,0.2v22.1c0,0.1,0,0.2,0.1,0.2c0.1,0.1,0.1,0.1,0.2,0.1
					h13.1c0.1,0,0.2,0,0.2-0.1c0.1-0.1,0.1-0.1,0.1-0.2v-3.4C252,143.6,252,143.5,251.9,143.5L251.9,143.5z M182.1,128.6
					c0.1-0.1,0.1-0.1,0.1-0.2V125c0-0.1,0-0.2-0.1-0.2c-0.1-0.1-0.1-0.1-0.2-0.1h-16.7c-0.1,0-0.2,0-0.2,0.1
					c-0.1,0.1-0.1,0.1-0.1,0.2v3.4c0,0.1,0,0.2,0.1,0.2c0.1,0.1,0.1,0.1,0.2,0.1h6v18.4c0,0.1,0,0.2,0.1,0.2
					c0.1,0.1,0.1,0.1,0.2,0.1h4c0.1,0,0.2,0,0.2-0.1c0.1-0.1,0.1-0.1,0.1-0.2v-18.4h6.1C181.9,128.7,182,128.7,182.1,128.6
					L182.1,128.6z M222.7,161.5H206c-0.2,0-0.3,0.1-0.3,0.3v3.4c0,0.1,0,0.2,0.1,0.2c0.1,0.1,0.1,0.1,0.2,0.1h6v18.4
					c0,0.1,0,0.2,0.1,0.2c0.1,0.1,0.1,0.1,0.2,0.1h4c0.1,0,0.2,0,0.2-0.1c0.1-0.1,0.1-0.1,0.1-0.2v-18.4h6.1c0.1,0,0.2,0,0.2-0.1
					c0.1-0.1,0.1-0.1,0.1-0.2v-3.4c0-0.1,0-0.2-0.1-0.2S222.7,161.6,222.7,161.5z M146.3,147.3c0.1-0.1,0.1-0.1,0.1-0.2V125
					c0-0.1,0-0.2-0.1-0.2c-0.1-0.1-0.1-0.1-0.2-0.1h-4c-0.1,0-0.2,0-0.2,0.1c-0.1,0.1-0.1,0.1-0.1,0.2v22.1c0,0.2,0.1,0.3,0.3,0.3h4
					C146.1,147.4,146.2,147.3,146.3,147.3L146.3,147.3z M43.5,147.7c2,0.1,4-0.3,5.9-1c0.1-0.1,0.2-0.2,0.2-0.3l-0.7-3.2
					c0-0.1-0.1-0.2-0.2-0.2c-0.1,0-0.2,0-0.3,0c-1.4,0.5-2.8,0.8-4.3,0.8c-2,0.1-4-0.6-5.4-2.1c-2.6-3.4-2.6-8.1,0.2-11.4
					c1.4-1.4,3.4-2.1,5.3-2c1.4,0,2.9,0.3,4.2,0.8c0.1,0,0.2,0,0.2,0c0.1,0,0.1-0.1,0.2-0.2l0.9-3.2c0-0.1,0-0.3-0.2-0.3
					c-1.7-0.7-3.6-1.1-5.5-1c-3.2-0.1-6.3,1-8.6,3.2c-2.3,2.3-3.6,5.5-3.5,8.8c-0.1,3.1,1,6,3.1,8.3
					C37.3,146.7,40.3,147.9,43.5,147.7L43.5,147.7z"/>
				
					<linearGradient id="SVGID_5_" gradientUnits="userSpaceOnUse" x1="141.75" y1="489.7177" x2="141.75" y2="391.9177" gradientTransform="matrix(1 0 0 1 0 -383.4177)">
					<stop  offset="0" style="stop-color:#79C0E3"/>
					<stop  offset="0.23" style="stop-color:#3372CC"/>
					<stop  offset="0.3" style="stop-color:#2B5FB5"/>
					<stop  offset="0.45" style="stop-color:#1D3E8E"/>
					<stop  offset="0.6" style="stop-color:#12246F"/>
					<stop  offset="0.74" style="stop-color:#0A1259"/>
					<stop  offset="0.88" style="stop-color:#06074C"/>
					<stop  offset="1" style="stop-color:#040347"/>
				</linearGradient>
				<rect x="8.5" y="8.5" class="st4" width="266.5" height="97.8"/>
				<path class="st3" d="M52.2,53.7C45,50.9,41.9,49,41.9,44.8c0-3.1,2.7-6.5,9-6.5c2,0,3.9,0.1,10,1.7c0.4,0.1,0.8-0.1,0.9-0.5l0,0
					c0.1-0.4,1.7-6.1,1.8-6.6c0.1-0.4-0.1-0.7-0.5-0.8H63c-6.1-1.7-9.1-1.9-12-1.9c-11.7,0-19.1,6.7-19.1,15.6
					c0,7.8,5.7,12.5,14.6,15.7c6.9,2.5,9.6,4.9,9.6,9c0,4.4-3.5,7.4-9.9,7.4c-1.9,0-4.8-0.1-12.2-2.3c-0.4-0.1-0.8,0.1-0.9,0.4l0,0
					c-0.1,0.4-2,6.1-2.1,6.6c-0.1,0.3,0.1,0.7,0.4,0.8h0.1c7.6,2.3,11.3,2.6,14,2.6c14,0,20.7-7.6,20.7-16.3
					C66.2,61.9,61.5,57.2,52.2,53.7z M112.2,31.6c-0.1-0.3-0.4-0.5-0.7-0.4H100c-0.3,0-0.6,0.1-0.7,0.4S82.6,83.8,82.5,84.1
					c-0.1,0.4,0.1,0.8,0.4,0.9c0.1,0,0.1,0,0.2,0h8.6c0.4,0,0.8-0.3,0.9-0.7c0.2-0.5,3.7-12.2,3.7-12.2h18.5c0,0,3.8,12,3.9,12.4
					c0.1,0.3,0.4,0.6,0.7,0.6h9.1c0.4,0,0.7-0.2,0.7-0.6c0-0.1,0-0.2,0-0.3C129.2,83.6,112.3,31.8,112.2,31.6z M97.8,65.6
					c0,0,3.9-13.6,4.7-16.5c1.2-4.2,2.1-7.9,2.5-9.7c0.2-0.7,0.5-0.7,0.7,0c0.5,1.8,1.5,5.7,2.7,9.6c1.6,5.5,4.9,16.5,4.9,16.5
					L97.8,65.6z M175,58.2c-0.7-1.1-0.7-2.6,0.1-3.7c0.8-1.4,11.5-21.5,11.9-22.2c0.4-0.7,0.2-1.2-0.5-1.2h-8.3
					c-0.5-0.1-1,0.2-1.2,0.6c-0.2,0.5-6.6,13.1-9.8,19.3c-0.5,1-0.9,1-1.4,0c-3.9-8.1-9-18.5-9.3-19.1c-0.2-0.6-0.8-0.9-1.4-0.8
					h-9.2c-0.7,0-1.1,0.4-0.7,1.1c0.4,0.7,12.4,21.7,12.8,22.3c0.8,1.1,0.9,2.6,0.1,3.8L144.5,84c-0.3,0.6,0,1,0.5,1h8.9
					c0.5,0.1,1-0.3,1.2-0.8c0.3-0.6,7.6-15.1,10.6-21.1c0.4-0.8,1-0.8,1.4,0c1.7,3.4,10.3,20.5,10.6,21.1s0.6,0.8,1,0.8h9.7
					c0.6,0,0.9-0.3,0.6-1S175.7,59.5,175,58.2z M229.4,30.4c-15.4,0-24.2,12-24.2,27c0,16,7.7,28.5,24.2,28.5s24.2-12.5,24.2-28.5
					C253.6,42.4,244.8,30.4,229.4,30.4L229.4,30.4z M229.4,78.3c-11.3,0-13.7-10.6-13.7-20.9c0-9.9,2.9-19.3,13.7-19.3
					S243,47.5,243,57.4C243.1,67.7,240.7,78.3,229.4,78.3L229.4,78.3z"/>
			</g>
		</g>
		<path class="st5" d="M0,0v212.6h283.5V0H0z M275,204.1H8.5V8.5H275V204.1z"/>
		<path class="st6" d="M186.9,127.5h-7.8c-0.4,0-0.7,0.3-0.7,0.7l0,0v18c0,7.8,0.3,17.6,0.9,24.8c0,0.5-0.1,0.4-0.2,0
			c-0.6-2.1-2.8-8.3-8.5-20.3c-8-16.8-10-20.9-10.8-22.7c-0.1-0.2-0.4-0.4-0.6-0.4H147c-0.4,0-0.7,0.3-0.7,0.7v52.4
			c0,0.4,0.3,0.7,0.7,0.7h7.6c0.4,0,0.7-0.3,0.7-0.7v-18.8c0-8.5-0.2-19.1-0.6-26.2c0-0.3,0.1-0.4,0.2,0c0.7,1.9,2.8,7.5,9.3,21.7
			c7.2,15.8,10.6,23.1,10.8,23.4c0.1,0.3,0.4,0.4,0.7,0.4h11.1c0.4,0,0.7-0.3,0.7-0.7v-52.4C187.6,127.8,187.3,127.5,186.9,127.5
			L186.9,127.5z M112.2,127.9c-0.1-0.3-0.4-0.5-0.7-0.4H100c-0.3,0-0.6,0.2-0.7,0.4l-16.8,52.5c-0.1,0.4,0.1,0.7,0.4,0.9
			c0.1,0,0.1,0,0.2,0h8.6c0.4,0,0.8-0.3,0.9-0.7c0.2-0.5,3.7-12.2,3.7-12.2h18.5c0,0,3.8,12,3.9,12.4c0.1,0.3,0.4,0.6,0.7,0.6h9.1
			c0.3,0,0.7-0.2,0.7-0.5c0-0.1,0-0.2,0-0.3C129.2,179.9,112.3,128.2,112.2,127.9L112.2,127.9z M97.8,161.9c0,0,3.9-13.6,4.7-16.5
			c1.2-4.2,2.1-7.9,2.5-9.7c0.2-0.7,0.5-0.7,0.7,0c0.5,1.9,1.5,5.7,2.7,9.6c1.6,5.5,4.9,16.5,4.9,16.5L97.8,161.9z M253.1,180.6
			l-22.6-27.9c0,0,20.4-23.8,20.8-24.4c0.4-0.6,0.1-0.9-0.5-0.9H242c-0.7,0-0.8,0.1-1.3,0.7s-18.3,21.8-18.7,22.3s-1,0.6-1-0.5
			v-21.8c0-0.4-0.1-0.7-0.6-0.7h-8.3c-0.5,0-0.6,0.2-0.6,0.7v52.4c0,0.5,0.2,0.7,0.7,0.7h8.2c0.4,0,0.6-0.3,0.6-0.7v-25.1
			c0-1,0.5-1.2,1-0.5s18.9,25,19.3,25.6c0.3,0.5,0.8,0.8,1.3,0.7h9.9C253.3,181.3,253.3,181,253.1,180.6L253.1,180.6z M56.3,152.3
			c-0.4,0-0.4-0.2,0-0.4c4-1.3,10.4-4.8,10.4-13c0-7.3-6.6-11.4-15.7-11.4H33.3c-0.4,0-0.7,0.3-0.7,0.7l0,0v52.5
			c0,0.4,0.2,0.7,0.6,0.7h0.1h16.1c12.7,0,20.5-6.6,20.5-15.9C69.8,157.4,62.8,152.9,56.3,152.3z M42.5,133.9H48
			c4.7,0,8.8,2.3,8.8,7c0,5-4.8,9.1-11.1,9.1h-3.3v-16.1H42.5z M47.9,174.8h-5.4v-18.5h5.3c5.9,0,11,2.9,11,9.2
			C58.8,171.5,53.9,174.8,47.9,174.8L47.9,174.8z"/>
	</g>
</g>
<rect x="8.5" y="106.3" width="266.5" height="97.8"/>
<g>
	<path class="st3" d="M46.3,154.5c0.8,2.5,1.9,6.2,2.6,9H49c0.8-2.8,1.9-6.5,2.7-9l4.9-14.5h9.5v30.3h-5.9v-14.8c0-3,0-7.6,0.1-11.1
		h-0.1c-0.9,2.9-2.3,7.3-3,9.5l-5.9,16.5h-5.5l-5.6-16.3c-0.5-1.3-2.3-7.3-3-9.6h-0.1c0.1,3.5,0.1,8.2,0.1,11.1v14.8h-5.6V140h9.8
		L46.3,154.5z"/>
	<path class="st3" d="M104.9,170.4h-6.6l-2.7-7H82.9l-2.7,7H74L85.9,140h6.9L104.9,170.4z M91.4,151.7c-0.7-1.8-1.7-5.3-2.1-6.9
		h-0.1c-0.4,1.6-1.6,5-2.2,6.9l-2.5,7.1h9.4L91.4,151.7z"/>
	<path class="st3" d="M113,140h8.8c7.5,0,12.4,1.6,12.4,8c0,4-2.4,6.4-6.3,7.2v0.1c2.1,0.6,2.9,1.8,3.9,4l4.7,11.1h-6.7l-3.4-8.6
		c-1.3-3.2-1.8-4-5.6-4h-1.6v12.6H113V140z M119.1,153.1h1.8c4.8,0,7-1.2,7-4.3c0-3.3-2.6-4-7-4h-1.8V153.1z"/>
	<path class="st3" d="M150.1,170.4H144V140h6.1v13.2h0.1c1.2-1.6,4.1-5.1,5.3-6.5l5.7-6.7h7.6l-12.8,14.2l14,16.2h-8.3l-6.7-8.2
		c-1.1-1.3-3.2-4.1-4.8-6.4h-0.1V170.4z"/>
	<path class="st3" d="M177.2,140h17.9v5h-11.9v7.3h11v4.9h-11v8h12v5.1h-18.1V140z"/>
	<path class="st3" d="M226.8,145.2l-8.5-0.1v25.3h-6.2V145l-8.3,0.1V140h23V145.2z"/>
	<path class="st3" d="M251.4,145.6c-2.4-1-4.3-1.3-6.2-1.3c-3.2,0-5.3,1.3-5.3,3.4c0,1.9,1,3,5.5,4.7c5.7,2,8,4.6,8,9.1
		c0,5.8-4.4,9.5-11.4,9.5c-2.9,0-5.5-0.4-8-1.3l0.6-5.3c2.6,1.3,5,1.7,7.1,1.7c3.2,0,5.5-1.3,5.5-3.8c0-2.3-1.3-3.5-5.9-5.2
		c-5.4-2-7.7-4.4-7.7-8.7c0-5.4,4.4-8.8,10.9-8.8c2.7,0,5,0.3,7.3,1.1L251.4,145.6z"/>
</g>
<path class="st7" d="M0,0v212.6h283.5V0H0z M275,204.1H8.5V8.5H275V204.1z"/>
</svg>
