<svg width="16" height="16" viewBox="0 0 16 16" fill="none" xmlns="http://www.w3.org/2000/svg">
<rect width="16" height="16" rx="3" fill="#5578AA"/>
<path d="M3.4917 6.00293H5.04688C5.75553 6.00293 6.26937 6.10433 6.58838 6.30713C6.90967 6.50765 7.07031 6.8278 7.07031 7.26758C7.07031 7.56608 6.99967 7.81104 6.8584 8.00244C6.7194 8.19385 6.53369 8.30892 6.30127 8.34766V8.38184C6.618 8.45247 6.84587 8.58464 6.98486 8.77832C7.12614 8.97201 7.19678 9.22949 7.19678 9.55078C7.19678 10.0065 7.03158 10.362 6.70117 10.6172C6.37305 10.8724 5.92643 11 5.36133 11H3.4917V6.00293ZM4.55127 7.98193H5.1665C5.45361 7.98193 5.66097 7.9375 5.78857 7.84863C5.91846 7.75977 5.9834 7.61279 5.9834 7.40771C5.9834 7.21631 5.91276 7.07959 5.77148 6.99756C5.63249 6.91325 5.41146 6.87109 5.1084 6.87109H4.55127V7.98193ZM4.55127 8.82275V10.125H5.2417C5.53337 10.125 5.7487 10.0692 5.8877 9.95752C6.02669 9.84587 6.09619 9.67497 6.09619 9.44482C6.09619 9.03011 5.79997 8.82275 5.20752 8.82275H4.55127ZM12.7305 8.49463C12.7305 9.32178 12.5254 9.95752 12.1152 10.4019C11.7051 10.8462 11.1172 11.0684 10.3516 11.0684C9.58594 11.0684 8.99805 10.8462 8.58789 10.4019C8.17773 9.95752 7.97266 9.3195 7.97266 8.48779C7.97266 7.65609 8.17773 7.02148 8.58789 6.58398C9.00033 6.14421 9.59049 5.92432 10.3584 5.92432C11.1263 5.92432 11.7131 6.14535 12.1187 6.5874C12.5265 7.02946 12.7305 7.6652 12.7305 8.49463ZM9.0835 8.49463C9.0835 9.0529 9.18945 9.47331 9.40137 9.75586C9.61328 10.0384 9.93001 10.1797 10.3516 10.1797C11.1969 10.1797 11.6196 9.618 11.6196 8.49463C11.6196 7.36898 11.1992 6.80615 10.3584 6.80615C9.93685 6.80615 9.61898 6.94857 9.40479 7.2334C9.19059 7.51595 9.0835 7.93636 9.0835 8.49463Z" fill="white"/>
</svg>
