<svg width="16" height="16" viewBox="0 0 16 16" fill="none" xmlns="http://www.w3.org/2000/svg">
<rect width="16" height="16" rx="3" fill="#A02D1E"/>
<path d="M4.00781 6.81299C3.60905 6.81299 3.30029 6.96338 3.08154 7.26416C2.86279 7.56266 2.75342 7.97965 2.75342 8.51514C2.75342 9.62939 3.17155 10.1865 4.00781 10.1865C4.35872 10.1865 4.78369 10.0988 5.28271 9.92334V10.812C4.87256 10.9829 4.41455 11.0684 3.90869 11.0684C3.1818 11.0684 2.62581 10.8485 2.24072 10.4087C1.85563 9.96663 1.66309 9.33317 1.66309 8.5083C1.66309 7.98877 1.75765 7.53418 1.94678 7.14453C2.1359 6.7526 2.40706 6.45296 2.76025 6.24561C3.11572 6.03597 3.53158 5.93115 4.00781 5.93115C4.49316 5.93115 4.98079 6.0485 5.4707 6.2832L5.12891 7.14453C4.94206 7.05566 4.75407 6.97819 4.56494 6.91211C4.37581 6.84603 4.1901 6.81299 4.00781 6.81299ZM7.3916 11H6.34912V6.00293H9.21338V6.87109H7.3916V8.15967H9.08691V9.02441H7.3916V11ZM14.3369 8.45361C14.3369 9.2762 14.1022 9.90625 13.6328 10.3438C13.1657 10.7812 12.4901 11 11.606 11H10.1909V6.00293H11.7598C12.5755 6.00293 13.209 6.21826 13.6602 6.64893C14.1113 7.07959 14.3369 7.68115 14.3369 8.45361ZM13.2363 8.48096C13.2363 7.40771 12.7624 6.87109 11.8145 6.87109H11.2505V10.125H11.7051C12.7259 10.125 13.2363 9.57699 13.2363 8.48096Z" fill="white"/>
</svg>
