<svg width="16" height="16" viewBox="0 0 16 16" fill="none" xmlns="http://www.w3.org/2000/svg">
<rect width="16" height="16" rx="2" fill="#E6A028"/>
<path d="M6.93652 10H4.46973V5.7168H6.93652V6.46094H5.37793V7.40137H6.82812V8.14551H5.37793V9.25H6.93652V10Z" fill="white"/>
<path d="M11.7207 7.85254C11.7207 8.35645 11.6309 8.7793 11.4512 9.12109C11.2734 9.46094 11.0117 9.70996 10.666 9.86816L11.6973 11.0195H10.5342L9.74902 10.0586H9.68164C9.02539 10.0586 8.52148 9.86816 8.16992 9.4873C7.81836 9.10645 7.64258 8.55957 7.64258 7.84668C7.64258 7.13379 7.81836 6.58984 8.16992 6.21484C8.52344 5.83789 9.0293 5.64941 9.6875 5.64941C10.3457 5.64941 10.8486 5.83887 11.1963 6.21777C11.5459 6.59668 11.7207 7.1416 11.7207 7.85254ZM8.59473 7.85254C8.59473 8.33105 8.68555 8.69141 8.86719 8.93359C9.04883 9.17578 9.32031 9.29688 9.68164 9.29688C10.4062 9.29688 10.7686 8.81543 10.7686 7.85254C10.7686 6.8877 10.4082 6.40527 9.6875 6.40527C9.32617 6.40527 9.05371 6.52734 8.87012 6.77148C8.68652 7.01367 8.59473 7.37402 8.59473 7.85254Z" fill="white"/>
</svg>
