<svg width="16" height="16" viewBox="0 0 16 16" fill="none" xmlns="http://www.w3.org/2000/svg">
<rect width="16" height="16" rx="3" fill="#FF6905"/>
<path d="M3.97363 11H1.0957V6.00293H3.97363V6.87109H2.15527V7.96826H3.84717V8.83643H2.15527V10.125H3.97363V11ZM9.55518 8.49463C9.55518 9.08252 9.45036 9.57585 9.24072 9.97461C9.03337 10.3711 8.72803 10.6616 8.32471 10.8462L9.52783 12.1895H8.1709L7.25488 11.0684H7.17627C6.41064 11.0684 5.82275 10.8462 5.4126 10.4019C5.00244 9.95752 4.79736 9.3195 4.79736 8.48779C4.79736 7.65609 5.00244 7.02148 5.4126 6.58398C5.82503 6.14421 6.4152 5.92432 7.18311 5.92432C7.95101 5.92432 8.53776 6.14535 8.94336 6.5874C9.35124 7.02946 9.55518 7.6652 9.55518 8.49463ZM5.9082 8.49463C5.9082 9.0529 6.01416 9.47331 6.22607 9.75586C6.43799 10.0384 6.75472 10.1797 7.17627 10.1797C8.02165 10.1797 8.44434 9.618 8.44434 8.49463C8.44434 7.36898 8.02393 6.80615 7.18311 6.80615C6.76156 6.80615 6.44368 6.94857 6.22949 7.2334C6.0153 7.51595 5.9082 7.93636 5.9082 8.49463ZM15.1265 8.49463C15.1265 9.32178 14.9214 9.95752 14.5112 10.4019C14.1011 10.8462 13.5132 11.0684 12.7476 11.0684C11.9819 11.0684 11.394 10.8462 10.9839 10.4019C10.5737 9.95752 10.3687 9.3195 10.3687 8.48779C10.3687 7.65609 10.5737 7.02148 10.9839 6.58398C11.3963 6.14421 11.9865 5.92432 12.7544 5.92432C13.5223 5.92432 14.109 6.14535 14.5146 6.5874C14.9225 7.02946 15.1265 7.6652 15.1265 8.49463ZM11.4795 8.49463C11.4795 9.0529 11.5854 9.47331 11.7974 9.75586C12.0093 10.0384 12.326 10.1797 12.7476 10.1797C13.5929 10.1797 14.0156 9.618 14.0156 8.49463C14.0156 7.36898 13.5952 6.80615 12.7544 6.80615C12.3328 6.80615 12.015 6.94857 11.8008 7.2334C11.5866 7.51595 11.4795 7.93636 11.4795 8.49463Z" fill="white"/>
</svg>
