<svg width="16" height="16" viewBox="0 0 16 16" fill="none" xmlns="http://www.w3.org/2000/svg">
<rect width="16" height="16" rx="3" fill="#505F82"/>
<path d="M5.10498 11H4.0625V6.00293H6.92676V6.87109H5.10498V8.15967H6.80029V9.02441H5.10498V11ZM11.9717 6.00293V9.23633C11.9717 9.60547 11.8885 9.92904 11.7222 10.207C11.5581 10.485 11.32 10.6981 11.0078 10.8462C10.6956 10.9943 10.3265 11.0684 9.90039 11.0684C9.25781 11.0684 8.75879 10.9043 8.40332 10.5762C8.04785 10.2458 7.87012 9.7946 7.87012 9.22266V6.00293H8.92627V9.06201C8.92627 9.4471 9.00374 9.72965 9.15869 9.90967C9.31364 10.0897 9.56999 10.1797 9.92773 10.1797C10.2741 10.1797 10.5247 10.0897 10.6797 9.90967C10.8369 9.72738 10.9155 9.44255 10.9155 9.05518V6.00293H11.9717Z" fill="white"/>
</svg>
