<svg width="50" height="38" viewBox="0 0 50 38" fill="none" xmlns="http://www.w3.org/2000/svg">
<path d="M22.5469 16.2949C22.5469 21.7806 21.6445 25.8411 19.8398 28.4766C18.0495 31.112 15.2852 32.4297 11.5469 32.4297C7.92318 32.4297 5.1875 31.069 3.33984 28.3477C1.50651 25.6263 0.589844 21.6087 0.589844 16.2949C0.589844 10.752 1.48503 6.66992 3.27539 4.04883C5.06576 1.41341 7.82292 0.0957031 11.5469 0.0957031C15.1706 0.0957031 17.9062 1.4707 19.7539 4.2207C21.6159 6.9707 22.5469 10.9954 22.5469 16.2949ZM7.18555 16.2949C7.18555 20.1478 7.51497 22.9121 8.17383 24.5879C8.84701 26.2493 9.97135 27.0801 11.5469 27.0801C13.0938 27.0801 14.2109 26.235 14.8984 24.5449C15.5859 22.8548 15.9297 20.1048 15.9297 16.2949C15.9297 12.4421 15.5788 9.67773 14.877 8.00195C14.1895 6.31185 13.0794 5.4668 11.5469 5.4668C9.98568 5.4668 8.86849 6.31185 8.19531 8.00195C7.52214 9.67773 7.18555 12.4421 7.18555 16.2949ZM33.998 27.3809C33.2533 30.2741 31.9928 33.7044 30.2168 37.6719H25.4902C26.4212 33.862 27.1445 30.2669 27.6602 26.8867H33.6758L33.998 27.3809ZM38.209 22.8906V17.5195H49.7461V22.8906H38.209Z" fill="#0076FF"/>
</svg>
