<svg width="63" height="59" viewBox="0 0 63 59" fill="none" xmlns="http://www.w3.org/2000/svg">
<path d="M57.0444 56.8046V24.9102H43.4112V56.8046H37.6708V36.615H24.0376V56.8046H18.2973V45.3936H4.66401V56.8046H0V58.999H4.66401H18.2973H24.0376H37.6708H43.4112H57.0444H63V56.8046H57.0444ZM16.1446 56.8046H6.81663V47.588H16.1446V56.8046ZM35.5182 56.8046H26.1902V38.8094H35.5182V56.8046ZM54.8918 56.8046H45.5638V27.1046H54.8918V56.8046Z" fill="#0076FF"/>
<path d="M48.5305 13.2848L52.7333 17.0447L61.2438 7.485V13.9153H62.9999V3.93359H54.9809V6.11943H59.8383L52.6082 14.241L48.555 10.6147L38.5713 19.0114L39.857 20.6594L48.5305 13.2848Z" fill="#0076FF"/>
<g clip-path="url(#clip0)">
<path d="M10.0444 19.4609C10.0444 22.5339 10.0444 26.6311 15.0668 28.6797" stroke="#0076FF" stroke-width="2" stroke-miterlimit="10" stroke-linecap="round" stroke-linejoin="round"/>
<path d="M10.0444 9.21875V19.4618" stroke="#0076FF" stroke-width="2" stroke-miterlimit="10" stroke-linecap="round" stroke-linejoin="round"/>
<path d="M28.125 17.4134C28.5207 17.4134 28.9126 17.3339 29.2782 17.1795C29.6438 17.0251 29.976 16.7987 30.2558 16.5134C30.5356 16.228 30.7576 15.8893 30.909 15.5164C31.0604 15.1436 31.1384 14.744 31.1384 14.3405C31.1384 13.937 31.0604 13.5374 30.909 13.1645C30.7576 12.7917 30.5356 12.453 30.2558 12.1676C29.976 11.8823 29.6438 11.6559 29.2782 11.5015C28.9126 11.3471 28.5207 11.2676 28.125 11.2676" stroke="#0076FF" stroke-width="2" stroke-miterlimit="10" stroke-linecap="round" stroke-linejoin="round"/>
<path d="M11.049 19.4622H4.01779C3.21859 19.4622 2.45212 19.1385 1.887 18.5622C1.32188 17.9859 1.00439 17.2043 1.00439 16.3893V12.2921C1.00439 11.4771 1.32188 10.6955 1.887 10.1192C2.45212 9.54294 3.21859 9.21918 4.01779 9.21918H13.058C18.4636 9.0529 23.7025 7.2721 28.1249 4.09766V24.5838C23.7715 21.2725 18.489 19.4769 13.058 19.4622H11.049Z" stroke="#0076FF" stroke-width="2" stroke-miterlimit="10" stroke-linecap="round" stroke-linejoin="round"/>
</g>
<defs>
<clipPath id="clip0">
<rect width="32.1429" height="32.7778" fill="white"/>
</clipPath>
</defs>
</svg>
