<svg width="48" height="55" viewBox="0 0 48 55" fill="none" xmlns="http://www.w3.org/2000/svg">
<path d="M1 1H46.9333V20.4899C46.7809 27.7051 44.5262 34.7189 40.4456 40.6714C36.3651 46.6238 30.6362 51.256 23.9614 54C17.2882 51.2549 11.5612 46.6221 7.48256 40.6697C3.40393 34.7173 1.15098 27.704 1 20.4899V1Z" stroke="white" stroke-width="2" stroke-miterlimit="10" stroke-linecap="round" stroke-linejoin="round"/>
<path d="M27.824 32.7995L26.5284 23.0197C27.5574 22.4679 28.3683 21.5996 28.8337 20.5514C29.299 19.5031 29.3924 18.3344 29.099 17.2289C28.8057 16.1235 28.1423 15.1442 27.2133 14.4449C26.2842 13.7457 25.1421 13.3662 23.9667 13.3662C22.7914 13.3662 21.6493 13.7457 20.7202 14.4449C19.7912 15.1442 19.1278 16.1235 18.8345 17.2289C18.5411 18.3344 18.6345 19.5031 19.0998 20.5514C19.5652 21.5996 20.3761 22.4679 21.4051 23.0197L20.1684 32.7995H27.824Z" stroke="white" stroke-width="2" stroke-miterlimit="10" stroke-linecap="round" stroke-linejoin="round"/>
</svg>
