<svg width="51" height="62" viewBox="0 0 51 62" fill="none" xmlns="http://www.w3.org/2000/svg">
<path d="M49.3 1.5045L50.2539 1.20421C50.1588 0.902214 49.9263 0.663079 49.6271 0.559512L49.3 1.5045ZM40.8 2.9045L40.1039 2.1866C40.1002 2.19017 40.0965 2.19377 40.0929 2.19739L40.8 2.9045ZM30.2 2.3045L30.6614 1.41728C30.3771 1.26949 30.0393 1.26681 29.7528 1.41007L30.2 2.3045ZM25.2 9.3045H26.2H25.2ZM30.2 14.3045V15.3045V14.3045ZM48.2 20.3045L49.0944 20.7517C49.2377 20.4652 49.235 20.1274 49.0872 19.8431L48.2 20.3045ZM20.1 12.5045L20.5614 11.6173C20.2771 11.4695 19.9393 11.4668 19.6528 11.6101L20.1 12.5045ZM15.1 19.5045H14.1H15.1ZM38.1 30.5045L38.9944 30.9517C39.1377 30.6652 39.135 30.3274 38.9872 30.0431L38.1 30.5045ZM10.2 22.4045L10.6614 21.5173C10.3771 21.3695 10.0393 21.3668 9.75278 21.5101L10.2 22.4045ZM5.2 29.4045H4.2H5.2ZM21.2 35.4045V34.4045V35.4045ZM28.2 40.4045L29.0944 40.8517C29.2377 40.5652 29.235 40.2274 29.0872 39.9431L28.2 40.4045ZM21.2 45.4045V44.4045V45.4045ZM11.6071 40.2116C11.9976 39.8211 11.9976 39.1879 11.6071 38.7974C11.2166 38.4069 10.5834 38.4069 10.1929 38.7974L11.6071 40.2116ZM0.292893 48.6974C-0.0976311 49.0879 -0.0976311 49.7211 0.292893 50.1116C0.683418 50.5021 1.31658 50.5021 1.70711 50.1116L0.292893 48.6974ZM6.2 51.7045L5.49289 50.9974C5.10237 51.3879 5.10237 52.0211 5.49289 52.4116L6.2 51.7045ZM33.1 55.9045L33.8071 56.6116C33.9954 56.4233 34.1008 56.1678 34.1 55.9015C34.0992 55.6353 33.9923 55.3804 33.8029 55.1932L33.1 55.9045ZM49.3 1.5045C49.6271 0.559512 49.6268 0.559386 49.6264 0.559253C49.6262 0.5592 49.6258 0.55906 49.6255 0.558953C49.6249 0.55874 49.6242 0.558499 49.6234 0.558231C49.6218 0.557696 49.6199 0.557053 49.6178 0.556306C49.6134 0.554813 49.6077 0.552903 49.6008 0.550604C49.587 0.546005 49.5682 0.539845 49.5446 0.532336C49.4975 0.517321 49.4314 0.496887 49.3478 0.472743C49.181 0.424497 48.944 0.361185 48.6511 0.296663C48.0674 0.168084 47.2504 0.0321857 46.3167 0.00492424C44.4661 -0.049108 42.0254 0.323293 40.1039 2.1866L41.4961 3.6224C42.8746 2.2857 44.6839 1.9581 46.2583 2.00407C47.0371 2.02681 47.7264 2.14091 48.2208 2.24983C48.467 2.30406 48.662 2.35637 48.7924 2.39407C48.8575 2.41289 48.9063 2.428 48.937 2.43779C48.9523 2.44269 48.9631 2.44624 48.9692 2.44826C48.9722 2.44927 48.9741 2.44989 48.9747 2.45011C48.975 2.45021 48.975 2.45022 48.9747 2.45011C48.9746 2.45006 48.9743 2.44998 48.974 2.44988C48.9739 2.44983 48.9736 2.44973 48.9735 2.4497C48.9732 2.4496 48.9729 2.44948 49.3 1.5045ZM40.0929 2.19739C39.5338 2.75644 39.0904 3.42013 38.7878 4.15057L40.6356 4.91594C40.8376 4.42815 41.1338 3.98494 41.5071 3.6116L40.0929 2.19739ZM38.7878 4.15057C38.4853 4.881 38.3295 5.66388 38.3295 6.4545H40.3295C40.3295 5.92652 40.4335 5.40372 40.6356 4.91594L38.7878 4.15057ZM38.3295 6.4545C38.3295 8.05122 38.9638 9.58255 40.0929 10.7116L41.5071 9.29739C40.7531 8.54341 40.3295 7.52079 40.3295 6.4545H38.3295ZM40.0929 10.7116C41.222 11.8407 42.7533 12.475 44.35 12.475V10.475C43.2837 10.475 42.2611 10.0514 41.5071 9.29739L40.0929 10.7116ZM44.35 12.475C45.9467 12.475 47.4781 11.8407 48.6071 10.7116L47.1929 9.29739C46.4389 10.0514 45.4163 10.475 44.35 10.475V12.475ZM48.6071 10.7116C50.4375 8.88126 50.8023 6.42529 50.7623 4.57042C50.7419 3.62859 50.617 2.79659 50.4978 2.20057C50.438 1.90146 50.379 1.65889 50.3341 1.48821C50.3116 1.4028 50.2926 1.33518 50.2787 1.28726C50.2718 1.2633 50.2661 1.24424 50.2619 1.23032C50.2598 1.22336 50.258 1.21769 50.2567 1.21333C50.256 1.21115 50.2554 1.20929 50.255 1.20777C50.2547 1.20701 50.2545 1.20634 50.2543 1.20574C50.2542 1.20545 50.2541 1.20506 50.2541 1.20492C50.254 1.20455 50.2539 1.20421 49.3 1.5045C48.3462 1.80478 48.3461 1.80448 48.346 1.8042C48.346 1.80414 48.3459 1.80388 48.3458 1.80375C48.3457 1.80348 48.3457 1.8033 48.3457 1.80319C48.3456 1.80298 48.3456 1.80309 48.3458 1.80352C48.346 1.80438 48.3467 1.80649 48.3477 1.80985C48.3497 1.81656 48.3532 1.8282 48.3579 1.84454C48.3674 1.87723 48.3819 1.92866 48.3999 1.99696C48.4359 2.1337 48.4855 2.33722 48.5366 2.5928C48.6393 3.10615 48.7456 3.81791 48.7627 4.61358C48.7977 6.2337 48.4625 8.02774 47.1929 9.29739L48.6071 10.7116ZM36.2 9.3045C36.2 6.71014 34.7288 4.71595 33.3925 3.43311C32.7145 2.78219 32.0401 2.28353 31.536 1.94745C31.283 1.77879 31.0704 1.64945 30.9184 1.56085C30.8423 1.51652 30.7812 1.48228 30.7376 1.45831C30.7158 1.44632 30.6983 1.4369 30.6855 1.43005C30.6791 1.42663 30.6739 1.42385 30.6698 1.42173C30.6678 1.42066 30.6661 1.41976 30.6647 1.41902C30.664 1.41865 30.6633 1.41832 30.6628 1.41803C30.6625 1.41788 30.6621 1.4177 30.662 1.41762C30.6617 1.41745 30.6614 1.41728 30.2 2.3045C29.7386 3.19172 29.7384 3.19157 29.7381 3.19143C29.738 3.1914 29.7378 3.19127 29.7377 3.19121C29.7374 3.19108 29.7372 3.19098 29.7371 3.19093C29.7369 3.19082 29.737 3.19087 29.7374 3.19107C29.7382 3.19148 29.7401 3.1925 29.7432 3.19413C29.7493 3.19739 29.7599 3.2031 29.7747 3.21123C29.8043 3.2275 29.8506 3.25342 29.9113 3.28877C30.0327 3.35955 30.2108 3.46771 30.4265 3.61155C30.8599 3.90047 31.4355 4.32681 32.0075 4.87589C33.1712 5.99305 34.2 7.49886 34.2 9.3045H36.2ZM30.2 2.3045C29.7528 1.41007 29.7525 1.41024 29.7521 1.41041C29.752 1.41049 29.7516 1.41067 29.7513 1.41082C29.7507 1.41111 29.7501 1.41143 29.7493 1.4118C29.7479 1.41253 29.7461 1.41342 29.7441 1.41446C29.74 1.41655 29.7346 1.41927 29.7281 1.4226C29.7152 1.42928 29.6975 1.43845 29.6756 1.4501C29.6316 1.4734 29.5701 1.50667 29.4937 1.5498C29.341 1.63598 29.1276 1.76199 28.8738 1.92699C28.3679 2.25578 27.6914 2.74586 27.0113 3.392C25.667 4.66901 24.2 6.66361 24.2 9.3045H26.2C26.2 7.44539 27.233 5.93999 28.3888 4.842C28.9586 4.30064 29.5321 3.88447 29.9637 3.60388C30.1786 3.4642 30.3559 3.35973 30.4766 3.29162C30.5369 3.2576 30.5829 3.23276 30.6121 3.21725C30.6268 3.20949 30.6372 3.20407 30.6432 3.20101C30.6461 3.19948 30.648 3.19854 30.6487 3.19819C30.649 3.19802 30.6491 3.19799 30.6488 3.19811C30.6487 3.19817 30.6485 3.19827 30.6482 3.19841C30.6481 3.19848 30.6479 3.19861 30.6478 3.19864C30.6475 3.19878 30.6472 3.19893 30.2 2.3045ZM24.2 9.3045C24.2 10.8958 24.8321 12.4219 25.9574 13.5471L27.3716 12.1329C26.6214 11.3828 26.2 10.3654 26.2 9.3045H24.2ZM25.9574 13.5471C27.0826 14.6724 28.6087 15.3045 30.2 15.3045V13.3045C29.1391 13.3045 28.1217 12.8831 27.3716 12.1329L25.9574 13.5471ZM30.2 15.3045C31.7913 15.3045 33.3174 14.6724 34.4426 13.5471L33.0284 12.1329C32.2783 12.8831 31.2609 13.3045 30.2 13.3045V15.3045ZM34.4426 13.5471C35.5679 12.4219 36.2 10.8958 36.2 9.3045H34.2C34.2 10.3654 33.7786 11.3828 33.0284 12.1329L34.4426 13.5471ZM41.2 16.3045C43.0056 16.3045 44.5115 17.3333 45.6286 18.497C46.1777 19.069 46.604 19.6446 46.893 20.0779C47.0368 20.2937 47.145 20.4718 47.2157 20.5932C47.2511 20.6539 47.277 20.7002 47.2933 20.7298C47.3014 20.7446 47.3071 20.7552 47.3104 20.7613C47.312 20.7644 47.313 20.7663 47.3134 20.7671C47.3136 20.7675 47.3137 20.7676 47.3136 20.7674C47.3135 20.7673 47.3134 20.7671 47.3133 20.7668C47.3132 20.7667 47.3131 20.7665 47.3131 20.7664C47.3129 20.7661 47.3128 20.7659 48.2 20.3045C49.0872 19.8431 49.0871 19.8428 49.0869 19.8425C49.0868 19.8424 49.0866 19.842 49.0865 19.8417C49.0862 19.8412 49.0859 19.8405 49.0855 19.8398C49.0847 19.8384 49.0838 19.8367 49.0828 19.8347C49.0806 19.8306 49.0779 19.8254 49.0744 19.819C49.0676 19.8062 49.0582 19.7887 49.0462 19.7669C49.0222 19.7232 48.988 19.6622 48.9436 19.5861C48.8551 19.4341 48.7257 19.2215 48.5571 18.9685C48.221 18.4644 47.7223 17.79 47.0714 17.112C45.7886 15.7757 43.7944 14.3045 41.2 14.3045V16.3045ZM48.2 20.3045C47.3056 19.8573 47.3057 19.857 47.3059 19.8567C47.3059 19.8566 47.306 19.8564 47.3061 19.8563C47.3062 19.856 47.3063 19.8558 47.3064 19.8557C47.3065 19.8554 47.3065 19.8555 47.3063 19.8558C47.306 19.8565 47.305 19.8584 47.3035 19.8613C47.3004 19.8673 47.295 19.8777 47.2873 19.8924C47.2717 19.9216 47.2469 19.9676 47.2129 20.0279C47.1448 20.1486 47.0403 20.3259 46.9006 20.5408C46.62 20.9724 46.2039 21.5459 45.6625 22.1157C44.5645 23.2715 43.0591 24.3045 41.2 24.3045V26.3045C43.8409 26.3045 45.8355 24.8375 47.1125 23.4932C47.7586 22.8131 48.2487 22.1366 48.5775 21.6307C48.7425 21.3769 48.8685 21.1635 48.9547 21.0108C48.9978 20.9344 49.0311 20.8729 49.0544 20.8289C49.0661 20.807 49.0752 20.7893 49.0819 20.7764C49.0852 20.7699 49.0879 20.7645 49.09 20.7604C49.0911 20.7584 49.092 20.7566 49.0927 20.7552C49.0931 20.7544 49.0934 20.7538 49.0937 20.7532C49.0938 20.7529 49.094 20.7525 49.0941 20.7524C49.0943 20.752 49.0944 20.7517 48.2 20.3045ZM41.2 24.3045C40.1391 24.3045 39.1217 23.8831 38.3716 23.1329L36.9574 24.5471C38.0826 25.6724 39.6087 26.3045 41.2 26.3045V24.3045ZM38.3716 23.1329C37.6214 22.3828 37.2 21.3654 37.2 20.3045H35.2C35.2 21.8958 35.8321 23.4219 36.9574 24.5471L38.3716 23.1329ZM37.2 20.3045C37.2 19.2436 37.6214 18.2262 38.3716 17.4761L36.9574 16.0619C35.8321 17.1871 35.2 18.7132 35.2 20.3045H37.2ZM38.3716 17.4761C39.1217 16.7259 40.1391 16.3045 41.2 16.3045V14.3045C39.6087 14.3045 38.0826 14.9366 36.9574 16.0619L38.3716 17.4761ZM26.1 19.5045C26.1 16.9101 24.6288 14.9159 23.2925 13.6331C22.6145 12.9822 21.9401 12.4835 21.436 12.1474C21.183 11.9788 20.9704 11.8494 20.8184 11.7609C20.7423 11.7165 20.6812 11.6823 20.6376 11.6583C20.6158 11.6463 20.5983 11.6369 20.5855 11.6301C20.5791 11.6266 20.5739 11.6239 20.5698 11.6217C20.5678 11.6207 20.5661 11.6198 20.5647 11.619C20.564 11.6186 20.5633 11.6183 20.5628 11.618C20.5625 11.6179 20.5621 11.6177 20.562 11.6176C20.5617 11.6174 20.5614 11.6173 20.1 12.5045C19.6386 13.3917 19.6384 13.3916 19.6381 13.3914C19.638 13.3914 19.6378 13.3913 19.6377 13.3912C19.6374 13.3911 19.6372 13.391 19.6371 13.3909C19.6369 13.3908 19.637 13.3909 19.6374 13.3911C19.6382 13.3915 19.6401 13.3925 19.6432 13.3941C19.6493 13.3974 19.6599 13.4031 19.6747 13.4112C19.7043 13.4275 19.7506 13.4534 19.8113 13.4888C19.9327 13.5595 20.1108 13.6677 20.3266 13.8115C20.7599 14.1005 21.3355 14.5268 21.9075 15.0759C23.0712 16.193 24.1 17.6989 24.1 19.5045H26.1ZM20.1 12.5045C19.6528 11.6101 19.6525 11.6102 19.6521 11.6104C19.652 11.6105 19.6516 11.6107 19.6513 11.6108C19.6507 11.6111 19.6501 11.6114 19.6493 11.6118C19.6479 11.6125 19.6461 11.6134 19.6441 11.6145C19.64 11.6166 19.6346 11.6193 19.6281 11.6226C19.6152 11.6293 19.5975 11.6384 19.5756 11.6501C19.5316 11.6734 19.4701 11.7067 19.3937 11.7498C19.241 11.836 19.0276 11.962 18.7738 12.127C18.2679 12.4558 17.5914 12.9459 16.9113 13.592C15.567 14.869 14.1 16.8636 14.1 19.5045H16.1C16.1 17.6454 17.133 16.14 18.2887 15.042C18.8586 14.5006 19.4321 14.0845 19.8637 13.8039C20.0786 13.6642 20.2559 13.5597 20.3766 13.4916C20.4369 13.4576 20.4829 13.4328 20.5121 13.4172C20.5268 13.4095 20.5372 13.4041 20.5432 13.401C20.5461 13.3995 20.548 13.3985 20.5487 13.3982C20.549 13.398 20.5491 13.398 20.5488 13.3981C20.5487 13.3982 20.5485 13.3983 20.5482 13.3984C20.5481 13.3985 20.5479 13.3986 20.5478 13.3986C20.5475 13.3988 20.5472 13.3989 20.1 12.5045ZM14.1 19.5045C14.1 21.0958 14.7321 22.6219 15.8574 23.7471L17.2716 22.3329C16.5214 21.5828 16.1 20.5654 16.1 19.5045H14.1ZM15.8574 23.7471C16.9826 24.8724 18.5087 25.5045 20.1 25.5045V23.5045C19.0391 23.5045 18.0217 23.0831 17.2716 22.3329L15.8574 23.7471ZM20.1 25.5045C21.6913 25.5045 23.2174 24.8724 24.3426 23.7471L22.9284 22.3329C22.1783 23.0831 21.1609 23.5045 20.1 23.5045V25.5045ZM24.3426 23.7471C25.4679 22.6219 26.1 21.0958 26.1 19.5045H24.1C24.1 20.5654 23.6786 21.5828 22.9284 22.3329L24.3426 23.7471ZM31.1 26.5045C32.9056 26.5045 34.4115 27.5333 35.5286 28.697C36.0777 29.269 36.504 29.8446 36.793 30.2779C36.9368 30.4937 37.045 30.6718 37.1157 30.7932C37.1511 30.8539 37.177 30.9002 37.1933 30.9298C37.2014 30.9446 37.2071 30.9552 37.2104 30.9613C37.212 30.9644 37.213 30.9663 37.2134 30.9671C37.2136 30.9675 37.2137 30.9676 37.2136 30.9674C37.2135 30.9673 37.2134 30.9671 37.2133 30.9668C37.2132 30.9667 37.2131 30.9665 37.2131 30.9664C37.2129 30.9661 37.2128 30.9659 38.1 30.5045C38.9872 30.0431 38.9871 30.0428 38.9869 30.0425C38.9868 30.0423 38.9866 30.042 38.9865 30.0417C38.9862 30.0412 38.9859 30.0405 38.9855 30.0398C38.9847 30.0384 38.9838 30.0367 38.9828 30.0347C38.9806 30.0306 38.9779 30.0254 38.9744 30.019C38.9676 30.0062 38.9582 29.9887 38.9462 29.9669C38.9222 29.9232 38.888 29.8622 38.8436 29.7861C38.7551 29.6341 38.6257 29.4215 38.4571 29.1685C38.121 28.6644 37.6223 27.99 36.9714 27.312C35.6886 25.9757 33.6944 24.5045 31.1 24.5045V26.5045ZM38.1 30.5045C37.2056 30.0573 37.2057 30.057 37.2059 30.0567C37.2059 30.0566 37.206 30.0564 37.2061 30.0563C37.2062 30.056 37.2063 30.0558 37.2064 30.0557C37.2065 30.0554 37.2065 30.0555 37.2063 30.0558C37.206 30.0565 37.205 30.0584 37.2035 30.0613C37.2004 30.0673 37.195 30.0777 37.1873 30.0924C37.1717 30.1216 37.1469 30.1676 37.1129 30.2279C37.0448 30.3486 36.9403 30.5259 36.8006 30.7408C36.52 31.1724 36.1039 31.7459 35.5625 32.3157C34.4645 33.4715 32.9591 34.5045 31.1 34.5045V36.5045C33.7409 36.5045 35.7355 35.0375 37.0125 33.6932C37.6586 33.0131 38.1487 32.3366 38.4775 31.8307C38.6425 31.5769 38.7685 31.3635 38.8547 31.2108C38.8978 31.1344 38.9311 31.0729 38.9544 31.0289C38.9661 31.007 38.9752 30.9893 38.9819 30.9764C38.9852 30.9699 38.9879 30.9645 38.99 30.9604C38.9911 30.9584 38.992 30.9566 38.9927 30.9552C38.9931 30.9544 38.9934 30.9538 38.9937 30.9532C38.9938 30.9529 38.994 30.9525 38.9941 30.9524C38.9943 30.952 38.9944 30.9517 38.1 30.5045ZM31.1 34.5045C30.0391 34.5045 29.0217 34.0831 28.2716 33.3329L26.8574 34.7471C27.9826 35.8724 29.5087 36.5045 31.1 36.5045V34.5045ZM28.2716 33.3329C27.5214 32.5828 27.1 31.5654 27.1 30.5045H25.1C25.1 32.0958 25.7321 33.6219 26.8574 34.7471L28.2716 33.3329ZM27.1 30.5045C27.1 29.4436 27.5214 28.4262 28.2716 27.6761L26.8574 26.2619C25.7321 27.3871 25.1 28.9132 25.1 30.5045H27.1ZM28.2716 27.6761C29.0217 26.9259 30.0391 26.5045 31.1 26.5045V24.5045C29.5087 24.5045 27.9826 25.1366 26.8574 26.2619L28.2716 27.6761ZM16.2 29.4045C16.2 26.8101 14.7288 24.816 13.3925 23.5331C12.7145 22.8822 12.0401 22.3835 11.5359 22.0474C11.283 21.8788 11.0704 21.7494 10.9184 21.6609C10.8423 21.6165 10.7812 21.5823 10.7376 21.5583C10.7158 21.5463 10.6983 21.5369 10.6855 21.5301C10.6791 21.5266 10.6739 21.5239 10.6698 21.5217C10.6678 21.5207 10.6661 21.5198 10.6647 21.519C10.664 21.5186 10.6633 21.5183 10.6628 21.518C10.6625 21.5179 10.6621 21.5177 10.662 21.5176C10.6617 21.5174 10.6614 21.5173 10.2 22.4045C9.73865 23.2917 9.73836 23.2916 9.7381 23.2914C9.73804 23.2914 9.7378 23.2913 9.73767 23.2912C9.73742 23.2911 9.73724 23.291 9.73714 23.2909C9.73694 23.2908 9.73703 23.2909 9.73741 23.2911C9.73818 23.2915 9.74011 23.2925 9.74316 23.2941C9.74927 23.2974 9.75988 23.3031 9.77468 23.3112C9.8043 23.3275 9.85062 23.3534 9.91128 23.3888C10.0327 23.4596 10.2108 23.5677 10.4265 23.7115C10.8599 24.0005 11.4355 24.4268 12.0075 24.9759C13.1712 26.093 14.2 27.5989 14.2 29.4045H16.2ZM10.2 22.4045C9.75278 21.5101 9.75245 21.5102 9.7521 21.5104C9.75196 21.5105 9.75158 21.5107 9.7513 21.5108C9.75072 21.5111 9.75007 21.5114 9.74934 21.5118C9.74789 21.5125 9.74613 21.5134 9.74407 21.5145C9.73995 21.5166 9.73463 21.5193 9.72815 21.5226C9.71517 21.5293 9.69754 21.5384 9.67555 21.5501C9.63159 21.5734 9.57014 21.6067 9.49371 21.6498C9.34098 21.736 9.12761 21.862 8.87376 22.027C8.36793 22.3558 7.6914 22.8459 7.01125 23.492C5.66703 24.769 4.2 26.7636 4.2 29.4045H6.2C6.2 27.5454 7.23297 26.04 8.38875 24.942C8.9586 24.4006 9.53207 23.9845 9.96374 23.7039C10.1786 23.5642 10.3559 23.4597 10.4766 23.3916C10.5369 23.3576 10.5829 23.3328 10.6121 23.3172C10.6268 23.3095 10.6372 23.3041 10.6432 23.301C10.6461 23.2995 10.648 23.2985 10.6487 23.2982C10.649 23.298 10.6491 23.298 10.6488 23.2981C10.6487 23.2982 10.6485 23.2983 10.6482 23.2984C10.6481 23.2985 10.6479 23.2986 10.6478 23.2986C10.6475 23.2988 10.6472 23.2989 10.2 22.4045ZM4.2 29.4045C4.2 30.9958 4.83214 32.5219 5.95736 33.6471L7.37157 32.2329C6.62143 31.4828 6.2 30.4654 6.2 29.4045H4.2ZM5.95736 33.6471C7.08258 34.7724 8.6087 35.4045 10.2 35.4045V33.4045C9.13913 33.4045 8.12172 32.9831 7.37157 32.2329L5.95736 33.6471ZM10.2 35.4045C11.7913 35.4045 13.3174 34.7724 14.4426 33.6471L13.0284 32.2329C12.2783 32.9831 11.2609 33.4045 10.2 33.4045V35.4045ZM14.4426 33.6471C15.5679 32.5219 16.2 30.9958 16.2 29.4045H14.2C14.2 30.4654 13.7786 31.4828 13.0284 32.2329L14.4426 33.6471ZM21.2 36.4045C23.0056 36.4045 24.5114 37.4333 25.6286 38.597C26.1777 39.169 26.604 39.7446 26.893 40.1779C27.0368 40.3937 27.1449 40.5718 27.2157 40.6932C27.2511 40.7539 27.277 40.8002 27.2933 40.8298C27.3014 40.8446 27.3071 40.8552 27.3104 40.8613C27.312 40.8644 27.313 40.8663 27.3134 40.8671C27.3136 40.8675 27.3137 40.8676 27.3136 40.8674C27.3135 40.8673 27.3134 40.8671 27.3133 40.8668C27.3132 40.8667 27.3131 40.8665 27.3131 40.8664C27.3129 40.8661 27.3128 40.8659 28.2 40.4045C29.0872 39.9431 29.0871 39.9428 29.0869 39.9425C29.0868 39.9423 29.0866 39.942 29.0865 39.9417C29.0862 39.9412 29.0859 39.9405 29.0855 39.9398C29.0847 39.9384 29.0838 39.9367 29.0828 39.9347C29.0806 39.9306 29.0779 39.9254 29.0744 39.919C29.0676 39.9062 29.0582 39.8887 29.0462 39.8669C29.0222 39.8232 28.988 39.7622 28.9436 39.6861C28.8551 39.5341 28.7257 39.3215 28.5571 39.0686C28.221 38.5644 27.7223 37.89 27.0714 37.212C25.7885 35.8757 23.7944 34.4045 21.2 34.4045V36.4045ZM28.2 40.4045C27.3056 39.9573 27.3057 39.957 27.3059 39.9567C27.3059 39.9566 27.306 39.9564 27.3061 39.9563C27.3062 39.956 27.3063 39.9558 27.3064 39.9557C27.3065 39.9554 27.3065 39.9555 27.3063 39.9558C27.306 39.9565 27.305 39.9584 27.3035 39.9613C27.3004 39.9673 27.295 39.9777 27.2873 39.9924C27.2717 40.0216 27.2469 40.0676 27.2129 40.1279C27.1448 40.2486 27.0403 40.4259 26.9006 40.6408C26.62 41.0724 26.2039 41.6459 25.6625 42.2157C24.5645 43.3715 23.0591 44.4045 21.2 44.4045V46.4045C23.8409 46.4045 25.8355 44.9375 27.1125 43.5933C27.7586 42.9131 28.2487 42.2366 28.5775 41.7307C28.7425 41.4769 28.8685 41.2635 28.9547 41.1108C28.9978 41.0344 29.0311 40.9729 29.0544 40.9289C29.0661 40.907 29.0752 40.8893 29.0819 40.8764C29.0852 40.8699 29.0879 40.8645 29.09 40.8604C29.0911 40.8584 29.092 40.8566 29.0927 40.8552C29.0931 40.8544 29.0934 40.8538 29.0937 40.8532C29.0938 40.8529 29.094 40.8525 29.0941 40.8524C29.0943 40.852 29.0944 40.8517 28.2 40.4045ZM21.2 44.4045C20.1391 44.4045 19.1217 43.9831 18.3716 43.2329L16.9574 44.6471C18.0826 45.7724 19.6087 46.4045 21.2 46.4045V44.4045ZM18.3716 43.2329C17.6214 42.4828 17.2 41.4654 17.2 40.4045H15.2C15.2 41.9958 15.8321 43.5219 16.9574 44.6471L18.3716 43.2329ZM17.2 40.4045C17.2 39.3436 17.6214 38.3262 18.3716 37.5761L16.9574 36.1619C15.8321 37.2871 15.2 38.8132 15.2 40.4045H17.2ZM18.3716 37.5761C19.1217 36.8259 20.1391 36.4045 21.2 36.4045V34.4045C19.6087 34.4045 18.0826 35.0366 16.9574 36.1619L18.3716 37.5761ZM10.1929 38.7974L0.292893 48.6974L1.70711 50.1116L11.6071 40.2116L10.1929 38.7974ZM6.90711 52.4116C9.87505 49.4436 14.1209 48.4303 18.7348 49.2032C23.3548 49.9772 28.2732 52.5404 32.3971 56.6158L33.8029 55.1932C29.4268 50.8686 24.1452 48.0818 19.0652 47.2307C13.9791 46.3787 9.02495 47.4653 5.49289 50.9974L6.90711 52.4116ZM32.3929 55.1974C28.8656 58.7247 24.8163 59.9111 20.536 59.1572C16.199 58.3932 11.5255 55.6157 6.90711 50.9974L5.49289 52.4116C10.2745 57.1932 15.301 60.2658 20.189 61.1268C25.1337 61.9978 29.8344 60.5843 33.8071 56.6116L32.3929 55.1974Z" fill="#0076FF"/>
</svg>
