<svg width="151" height="45" viewBox="0 0 151 45" fill="none" xmlns="http://www.w3.org/2000/svg">
<g clip-path="url(#clip0)">
<path d="M138.975 0.00014625H12.0315C11.5688 0.00014625 11.1116 0.00014625 10.6501 0.00239625C10.2638 0.00464625 9.88052 0.0111825 9.49049 0.0166837C8.64317 0.0255733 7.79783 0.092032 6.96184 0.215483C6.12702 0.34162 5.31835 0.579426 4.56318 0.920857C3.80894 1.26518 3.11977 1.71258 2.52067 2.24685C1.91842 2.77961 1.4164 3.39541 1.03391 4.07058C0.650366 4.74439 0.384415 5.46645 0.245244 6.21181C0.104749 6.95623 0.0291471 7.70923 0.0191173 8.46406C0.00740715 8.80899 0.00617052 9.15506 0 9.50003V35.5036C0.00617052 35.8529 0.00740715 36.1913 0.0191173 36.5407C0.0291501 37.2955 0.104752 38.0485 0.245244 38.7928C0.384031 39.5386 0.649997 40.2611 1.03391 40.9352C1.41622 41.6082 1.91831 42.2215 2.52067 42.7513C3.1175 43.2879 3.80712 43.7356 4.56318 44.0773C5.31835 44.4197 6.12693 44.6589 6.96184 44.787C7.79798 44.9094 8.64322 44.9759 9.49049 44.9859C9.88052 44.9935 10.2638 44.9979 10.6501 44.9979C11.1116 45.0001 11.5688 45.0001 12.0315 45.0001H138.975C139.429 45.0001 139.89 45.0001 140.343 44.9979C140.728 44.9979 141.122 44.9935 141.506 44.9859C142.352 44.9764 143.196 44.9099 144.03 44.787C144.868 44.658 145.679 44.4188 146.438 44.0773C147.193 43.7354 147.882 43.2877 148.479 42.7513C149.08 42.2194 149.583 41.6065 149.97 40.9352C150.351 40.2606 150.614 39.5382 150.751 38.7928C150.892 38.0484 150.97 37.2956 150.985 36.5407C150.99 36.1913 150.99 35.8529 150.99 35.5036C151 35.0949 151 34.6884 151 34.273V10.7283C151 10.3163 151 9.90762 150.99 9.50003C150.99 9.15506 150.99 8.80899 150.985 8.46402C150.97 7.70912 150.892 6.95629 150.751 6.21177C150.614 5.46684 150.35 4.74484 149.97 4.07053C149.191 2.71724 147.956 1.61567 146.438 0.920756C145.679 0.58016 144.868 0.342417 144.03 0.215381C143.196 0.0913869 142.352 0.024905 141.506 0.0165263C141.122 0.0110362 140.728 0.00444375 140.343 0.00225C139.89 0 139.429 0 138.975 0V0.00014625Z" fill="#A6A6A6"/>
<path d="M10.6562 44.0156C10.2717 44.0156 9.89654 44.0112 9.51509 44.0036C8.72489 43.9944 7.93653 43.9331 7.15649 43.8201C6.42914 43.7084 5.72453 43.5007 5.0659 43.2037C4.41332 42.9092 3.81811 42.5231 3.30308 42.06C2.78059 41.6025 2.34559 41.0718 2.01533 40.489C1.68143 39.9024 1.45035 39.2736 1.33014 38.6246C1.20032 37.9273 1.13009 37.2221 1.12004 36.5153C1.11204 36.278 1.10156 35.488 1.10156 35.488V9.49988C1.10156 9.49988 1.11272 8.72205 1.1201 8.49353C1.12972 7.78779 1.19955 7.08373 1.32898 6.38745C1.44941 5.73666 1.68067 5.10609 2.01475 4.51758C2.3438 3.93519 2.77638 3.40409 3.29572 2.94489C3.81448 2.48132 4.41159 2.09318 5.06529 1.79461C5.7224 1.49861 6.42567 1.29232 7.15155 1.18268C7.93416 1.06857 8.72525 1.00687 9.5182 0.998111L10.6568 0.984375H140.337L141.489 0.998663C142.275 1.00699 143.059 1.06813 143.834 1.18158C144.567 1.2926 145.278 1.50032 145.943 1.79791C147.252 2.39961 148.318 3.35156 148.99 4.52033C149.319 5.10477 149.546 5.7302 149.665 6.37536C149.796 7.07736 149.87 7.78696 149.885 8.49848C149.888 8.81708 149.888 9.1593 149.888 9.49988C149.898 9.92176 149.898 10.3233 149.898 10.7281V34.2729C149.898 34.6816 149.898 35.0804 149.888 35.4825C149.888 35.8484 149.888 36.1835 149.883 36.5284C149.869 37.2272 149.797 37.9242 149.668 38.6136C149.55 39.2673 149.32 39.901 148.986 40.4923C148.654 41.0688 148.221 41.5949 147.705 42.0513C147.189 42.5168 146.593 42.9052 145.939 43.2016C145.276 43.5008 144.567 43.7093 143.834 43.8201C143.054 43.9337 142.266 43.995 141.476 44.0036C141.106 44.0112 140.719 44.0156 140.343 44.0156L138.975 44.0179L10.6562 44.0156Z" fill="black"/>
<path d="M35.6937 22.8384C35.7058 21.8994 35.956 20.9787 36.4208 20.162C36.8856 19.3453 37.5501 18.6591 38.3523 18.1673C37.8427 17.4415 37.1703 16.8442 36.3887 16.4228C35.6071 16.0014 34.7377 15.7676 33.8496 15.7399C31.9552 15.5416 30.1186 16.8703 29.1532 16.8703C28.1692 16.8703 26.6828 15.7596 25.0823 15.7924C24.047 15.8258 23.038 16.126 22.1537 16.6638C21.2693 17.2016 20.5398 17.9587 20.0361 18.8613C17.8542 22.6283 19.4817 28.1644 21.5717 31.2094C22.6174 32.7004 23.8395 34.3659 25.4386 34.3068C27.0035 34.2421 27.5879 33.3118 29.4768 33.3118C31.3481 33.3118 31.8964 34.3068 33.528 34.2693C35.2071 34.2421 36.2651 32.7716 37.2741 31.2665C38.0254 30.2041 38.6035 29.0299 38.9871 27.7874C38.0115 27.376 37.1791 26.6873 36.5934 25.8072C36.0078 24.9271 35.6948 23.8946 35.6937 22.8384Z" fill="white"/>
<path d="M32.6121 13.7375C33.5276 12.6415 33.9787 11.2328 33.8694 9.81055C32.4707 9.95704 31.1787 10.6237 30.2508 11.6776C29.7971 12.1925 29.4496 12.7915 29.2282 13.4403C29.0068 14.0892 28.9159 14.7752 28.9605 15.4592C29.6601 15.4664 30.3522 15.3151 30.9848 15.0169C31.6173 14.7187 32.1737 14.2812 32.6121 13.7375Z" fill="white"/>
<path d="M55.4741 30.5321H50.1341L48.8517 34.3081H46.5898L51.6478 20.3379H53.9978L59.0558 34.3081H56.7554L55.4741 30.5321ZM50.6871 28.7897H54.92L52.8333 22.6615H52.7749L50.6871 28.7897Z" fill="white"/>
<path d="M69.9792 29.2159C69.9792 32.381 68.2804 34.4146 65.7167 34.4146C65.0673 34.4485 64.4214 34.2993 63.853 33.9841C63.2847 33.669 62.8168 33.2006 62.503 32.6326H62.4545V37.6775H60.3579V24.1226H62.3873V25.8167H62.4259C62.7541 25.2514 63.2299 24.7855 63.8026 24.4684C64.3753 24.1513 65.0234 23.995 65.6781 24.016C68.2704 24.016 69.9792 26.0595 69.9792 29.2159ZM67.8243 29.2159C67.8243 27.1538 66.7556 25.798 65.1251 25.798C63.5232 25.798 62.4457 27.1823 62.4457 29.2159C62.4457 31.2681 63.5232 32.6425 65.1251 32.6425C66.7556 32.6425 67.8243 31.2967 67.8243 29.2159Z" fill="white"/>
<path d="M81.2212 29.2159C81.2212 32.381 79.5223 34.4146 76.9586 34.4146C76.3092 34.4485 75.6633 34.2993 75.095 33.9841C74.5266 33.669 74.0587 33.2006 73.7449 32.6326H73.6964V37.6775H71.5999V24.1226H73.6292V25.8167H73.6678C73.996 25.2514 74.4718 24.7855 75.0445 24.4684C75.6172 24.1513 76.2653 23.995 76.92 24.016C79.5124 24.016 81.2212 26.0595 81.2212 29.2159ZM79.0662 29.2159C79.0662 27.1537 77.9975 25.798 76.367 25.798C74.7651 25.798 73.6876 27.1823 73.6876 29.2159C73.6876 31.2681 74.7651 32.6425 76.367 32.6425C77.9976 32.6425 79.0662 31.2967 79.0662 29.2159H79.0662Z" fill="white"/>
<path d="M88.6513 30.4157C88.8067 31.8011 90.1563 32.7107 92.0005 32.7107C93.7677 32.7107 95.0391 31.801 95.0391 30.5519C95.0391 29.4675 94.2723 28.8183 92.4566 28.3733L90.641 27.9371C88.0685 27.3175 86.8742 26.1178 86.8742 24.171C86.8742 21.7606 88.9807 20.105 91.9719 20.105C94.9322 20.105 96.9616 21.7606 97.0299 24.171H94.9134C94.7867 22.7769 93.631 21.9353 91.9421 21.9353C90.2532 21.9353 89.0975 22.7868 89.0975 24.026C89.0975 25.0137 89.8356 25.5949 91.6413 26.0398L93.1848 26.4177C96.0592 27.0955 97.2535 28.2469 97.2535 30.2904C97.2535 32.904 95.1657 34.541 91.8451 34.541C88.7383 34.541 86.6406 32.9425 86.5051 30.4156L88.6513 30.4157Z" fill="white"/>
<path d="M101.778 21.7124V24.1228H103.72V25.7784H101.778V31.3936C101.778 32.2659 102.167 32.6724 103.021 32.6724C103.251 32.6684 103.482 32.6522 103.711 32.624V34.2697C103.327 34.3413 102.936 34.3737 102.546 34.3664C100.478 34.3664 99.6716 33.5919 99.6716 31.6165V25.7784H98.1865V24.1228H99.6716V21.7124H101.778Z" fill="white"/>
<path d="M104.845 29.2161C104.845 26.0114 106.738 23.9976 109.69 23.9976C112.651 23.9976 114.535 26.0113 114.535 29.2161C114.535 32.4296 112.661 34.4346 109.69 34.4346C106.719 34.4346 104.845 32.4296 104.845 29.2161ZM112.399 29.2161C112.399 27.0177 111.389 25.7202 109.69 25.7202C107.991 25.7202 106.982 27.0276 106.982 29.2161C106.982 31.4232 107.991 32.7108 109.69 32.7108C111.389 32.7108 112.399 31.4232 112.399 29.2161H112.399Z" fill="white"/>
<path d="M116.263 24.1225H118.263V25.8561H118.312C118.447 25.3147 118.765 24.8362 119.212 24.5011C119.66 24.166 120.209 23.9946 120.768 24.0159C121.01 24.0151 121.251 24.0413 121.487 24.0939V26.0495C121.182 25.9566 120.864 25.9139 120.545 25.9232C120.24 25.9108 119.936 25.9644 119.655 26.0801C119.373 26.1959 119.119 26.3711 118.912 26.5937C118.704 26.8163 118.547 27.0811 118.452 27.3699C118.357 27.6586 118.326 27.9645 118.36 28.2665V34.3079H116.263L116.263 24.1225Z" fill="white"/>
<path d="M131.153 31.3167C130.871 33.1656 129.065 34.4346 126.755 34.4346C123.784 34.4346 121.939 32.4493 121.939 29.2644C121.939 26.0696 123.794 23.9976 126.667 23.9976C129.493 23.9976 131.27 25.9333 131.27 29.0216V29.7379H124.056V29.8643C124.023 30.2391 124.07 30.6167 124.194 30.972C124.318 31.3274 124.517 31.6523 124.777 31.9251C125.037 32.198 125.352 32.4126 125.701 32.5547C126.051 32.6968 126.426 32.7631 126.804 32.7493C127.299 32.7956 127.796 32.6811 128.221 32.423C128.646 32.1649 128.976 31.7769 129.162 31.3166L131.153 31.3167ZM124.066 28.2767H129.172C129.191 27.9397 129.14 27.6024 129.022 27.286C128.904 26.9697 128.721 26.6811 128.486 26.4383C128.251 26.1956 127.968 26.004 127.655 25.8755C127.342 25.747 127.005 25.6844 126.667 25.6917C126.326 25.6896 125.987 25.755 125.671 25.8841C125.355 26.0132 125.068 26.2034 124.826 26.4437C124.584 26.6841 124.393 26.9698 124.262 27.2844C124.132 27.599 124.065 27.9363 124.066 28.2767V28.2767Z" fill="white"/>
<path d="M50.4246 9.82256C50.8642 9.7911 51.3053 9.85732 51.716 10.0164C52.1268 10.1755 52.4971 10.4236 52.8001 10.7427C53.1031 11.0617 53.3313 11.4439 53.4682 11.8616C53.6052 12.2793 53.6475 12.722 53.5921 13.158C53.5921 15.3025 52.4298 16.5353 50.4246 16.5353H47.9932V9.82256H50.4246ZM49.0387 15.5859H50.3079C50.6219 15.6047 50.9363 15.5533 51.2279 15.4356C51.5196 15.3179 51.7813 15.1369 51.994 14.9056C52.2066 14.6743 52.3649 14.3987 52.4572 14.0987C52.5496 13.7988 52.5737 13.4821 52.5278 13.1717C52.5704 12.8625 52.5438 12.5478 52.45 12.25C52.3563 11.9523 52.1976 11.6789 51.9854 11.4495C51.7733 11.22 51.5128 11.0403 51.2228 10.923C50.9328 10.8057 50.6203 10.7539 50.3079 10.7712H49.0387V15.5859Z" fill="white"/>
<path d="M54.7731 14C54.7411 13.6671 54.7793 13.3312 54.8852 13.0139C54.991 12.6966 55.1622 12.4048 55.3878 12.1573C55.6134 11.9098 55.8883 11.7121 56.195 11.5768C56.5017 11.4415 56.8334 11.3716 57.1687 11.3716C57.5041 11.3716 57.8358 11.4415 58.1425 11.5768C58.4492 11.7121 58.7241 11.9098 58.9497 12.1573C59.1752 12.4048 59.3464 12.6966 59.4523 13.0139C59.5582 13.3312 59.5964 13.6671 59.5644 14C59.597 14.3333 59.5592 14.6696 59.4536 14.9875C59.3481 15.3053 59.177 15.5976 58.9513 15.8456C58.7257 16.0935 58.4506 16.2917 58.1436 16.4273C57.8366 16.5629 57.5045 16.6329 57.1687 16.6329C56.833 16.6329 56.5009 16.5629 56.1939 16.4273C55.8869 16.2917 55.6118 16.0935 55.3861 15.8456C55.1605 15.5976 54.9894 15.3053 54.8838 14.9875C54.7782 14.6696 54.7405 14.3333 54.7731 14ZM58.5332 14C58.5332 12.9019 58.0385 12.2598 57.1704 12.2598C56.2989 12.2598 55.8087 12.9019 55.8087 14C55.8087 15.1069 56.299 15.7441 57.1704 15.7441C58.0386 15.7441 58.5332 15.1025 58.5332 14H58.5332Z" fill="white"/>
<path d="M65.9335 16.535H64.8935L63.8436 12.8041H63.7643L62.7187 16.535H61.6886L60.2883 11.4692H61.3052L62.2152 15.3347H62.2902L63.3346 11.4692H64.2964L65.3408 15.3347H65.4201L66.3257 11.4692H67.3283L65.9335 16.535Z" fill="white"/>
<path d="M68.5061 11.4695H69.4712V12.2742H69.5461C69.6732 11.9852 69.8876 11.7429 70.1593 11.5811C70.4311 11.4193 70.7466 11.3461 71.0621 11.3717C71.3093 11.3532 71.5575 11.3903 71.7883 11.4804C72.0191 11.5705 72.2266 11.7113 72.3955 11.8922C72.5644 12.0732 72.6902 12.2897 72.7638 12.5257C72.8374 12.7618 72.8567 13.0113 72.8204 13.2558V16.5352H71.8179V13.5069C71.8179 12.6928 71.4631 12.288 70.7217 12.288C70.5538 12.2802 70.3863 12.3086 70.2306 12.3715C70.0748 12.4343 69.9345 12.5299 69.8193 12.6518C69.7041 12.7738 69.6167 12.9191 69.5631 13.0779C69.5094 13.2367 69.4909 13.4051 69.5087 13.5717V16.5353H68.5061L68.5061 11.4695Z" fill="white"/>
<path d="M74.4177 9.4917H75.4203V16.535H74.4177V9.4917Z" fill="white"/>
<path d="M76.814 14.0001C76.7821 13.6672 76.8203 13.3313 76.9262 13.0139C77.0321 12.6966 77.2034 12.4048 77.4289 12.1573C77.6545 11.9098 77.9295 11.7121 78.2362 11.5768C78.5429 11.4415 78.8746 11.3716 79.21 11.3716C79.5454 11.3716 79.8771 11.4415 80.1838 11.5768C80.4905 11.7121 80.7655 11.9098 80.991 12.1573C81.2166 12.4048 81.3879 12.6966 81.4938 13.0139C81.5996 13.3313 81.6379 13.6672 81.606 14.0001C81.6385 14.3334 81.6007 14.6697 81.4951 14.9876C81.3894 15.3054 81.2183 15.5977 80.9927 15.8456C80.767 16.0936 80.4919 16.2917 80.1848 16.4273C79.8778 16.5629 79.5458 16.633 79.21 16.633C78.8742 16.633 78.5422 16.5629 78.2351 16.4273C77.9281 16.2917 77.653 16.0936 77.4273 15.8456C77.2017 15.5977 77.0305 15.3054 76.9249 14.9876C76.8193 14.6697 76.7815 14.3334 76.814 14.0001ZM80.5742 14.0001C80.5742 12.902 80.0795 12.2599 79.2114 12.2599C78.3399 12.2599 77.8497 12.902 77.8497 14.0001C77.8497 15.107 78.3399 15.7442 79.2114 15.7442C80.0795 15.7442 80.5742 15.1026 80.5742 14.0001H80.5742Z" fill="white"/>
<path d="M82.6614 15.1025C82.6614 14.1907 83.3422 13.665 84.5508 13.5903L85.9269 13.5112V13.0739C85.9269 12.5389 85.5721 12.2368 84.8868 12.2368C84.3272 12.2368 83.9394 12.4416 83.8281 12.7998H82.8575C82.9599 11.9297 83.7807 11.3716 84.9331 11.3716C86.2067 11.3716 86.925 12.0038 86.925 13.0739V16.5351H85.9599V15.8232H85.8806C85.7196 16.0786 85.4935 16.2868 85.2254 16.4265C84.9574 16.5663 84.6569 16.6325 84.3547 16.6186C84.1415 16.6407 83.9259 16.618 83.722 16.552C83.5181 16.486 83.3303 16.3781 83.1707 16.2352C83.0112 16.0924 82.8834 15.9178 82.7957 15.7227C82.708 15.5276 82.6622 15.3163 82.6614 15.1025ZM85.9269 14.6697V14.2461L84.6863 14.3252C83.9867 14.3719 83.6694 14.6092 83.6694 15.0558C83.6694 15.5118 84.0661 15.7771 84.6115 15.7771C84.7713 15.7932 84.9327 15.7771 85.0861 15.7298C85.2395 15.6824 85.3819 15.6048 85.5046 15.5015C85.6273 15.3981 85.7279 15.2712 85.8005 15.1283C85.873 14.9855 85.916 14.8295 85.9269 14.6697Z" fill="white"/>
<path d="M88.2427 14C88.2427 12.3992 89.0679 11.3852 90.3514 11.3852C90.6688 11.3706 90.9839 11.4465 91.2598 11.6038C91.5357 11.7612 91.7609 11.9936 91.9092 12.274H91.9841V9.4917H92.9867V16.535H92.026V15.7347H91.9467C91.7869 16.0131 91.5538 16.2426 91.2726 16.3984C90.9914 16.5542 90.6728 16.6303 90.3514 16.6185C89.0591 16.6186 88.2427 15.6045 88.2427 14ZM89.2783 14C89.2783 15.0744 89.7862 15.721 90.6356 15.721C91.4806 15.721 92.0029 15.0651 92.0029 14.0044C92.0029 12.9486 91.4752 12.2833 90.6356 12.2833C89.7917 12.2833 89.2783 12.9343 89.2783 14H89.2783Z" fill="white"/>
<path d="M97.1346 14C97.1027 13.6671 97.1409 13.3312 97.2467 13.0139C97.3526 12.6966 97.5238 12.4048 97.7494 12.1573C97.9749 11.9098 98.2499 11.7121 98.5566 11.5768C98.8633 11.4415 99.1949 11.3716 99.5303 11.3716C99.8657 11.3716 100.197 11.4415 100.504 11.5768C100.811 11.7121 101.086 11.9098 101.311 12.1573C101.537 12.4048 101.708 12.6966 101.814 13.0139C101.92 13.3312 101.958 13.6671 101.926 14C101.959 14.3333 101.921 14.6696 101.815 14.9875C101.71 15.3053 101.539 15.5976 101.313 15.8456C101.087 16.0935 100.812 16.2917 100.505 16.4273C100.198 16.5629 99.8661 16.6329 99.5303 16.6329C99.1945 16.6329 98.8625 16.5629 98.5555 16.4273C98.2485 16.2917 97.9733 16.0935 97.7477 15.8456C97.5221 15.5976 97.351 15.3053 97.2454 14.9875C97.1398 14.6696 97.1021 14.3333 97.1346 14ZM100.895 14C100.895 12.9019 100.4 12.2598 99.532 12.2598C98.6605 12.2598 98.1703 12.9019 98.1703 14C98.1703 15.1069 98.6605 15.7441 99.532 15.7441C100.4 15.7441 100.895 15.1025 100.895 14Z" fill="white"/>
<path d="M103.271 11.4695H104.236V12.2742H104.311C104.438 11.9852 104.653 11.7429 104.924 11.5811C105.196 11.4193 105.512 11.3461 105.827 11.3717C106.074 11.3532 106.323 11.3903 106.553 11.4804C106.784 11.5705 106.992 11.7113 107.161 11.8922C107.33 12.0732 107.455 12.2897 107.529 12.5257C107.602 12.7618 107.622 13.0113 107.586 13.2558V16.5352H106.583V13.5069C106.583 12.6928 106.228 12.288 105.487 12.288C105.319 12.2802 105.151 12.3086 104.996 12.3715C104.84 12.4343 104.7 12.5299 104.584 12.6518C104.469 12.7738 104.382 12.9191 104.328 13.0779C104.275 13.2367 104.256 13.4051 104.274 13.5717V16.5353H103.271V11.4695Z" fill="white"/>
<path d="M113.251 10.208V11.4923H114.351V12.3344H113.251V14.9393C113.251 15.4699 113.47 15.7023 113.969 15.7023C114.097 15.7019 114.224 15.6942 114.351 15.6792V16.512C114.171 16.5441 113.989 16.5612 113.806 16.563C112.691 16.563 112.247 16.1719 112.247 15.1952V12.3344H111.44V11.4923H112.247V10.208H113.251Z" fill="white"/>
<path d="M115.721 9.4917H116.714V12.2833H116.794C116.927 11.9916 117.147 11.7479 117.424 11.5855C117.702 11.4231 118.022 11.3499 118.343 11.3759C118.589 11.3625 118.834 11.4035 119.063 11.4958C119.291 11.588 119.496 11.7294 119.663 11.9098C119.83 12.0902 119.955 12.3051 120.029 12.5393C120.104 12.7734 120.125 13.021 120.092 13.2644V16.535H119.089V13.511C119.089 12.7019 118.711 12.2921 118.002 12.2921C117.83 12.278 117.657 12.3016 117.495 12.3613C117.332 12.421 117.185 12.5153 117.063 12.6376C116.942 12.76 116.848 12.9074 116.789 13.0695C116.73 13.2317 116.708 13.4047 116.723 13.5764V16.535H115.721L115.721 9.4917Z" fill="white"/>
<path d="M125.938 15.1674C125.802 15.6304 125.507 16.0309 125.104 16.2988C124.702 16.5667 124.218 16.685 123.737 16.633C123.402 16.6418 123.069 16.5779 122.762 16.4457C122.455 16.3135 122.18 16.1161 121.956 15.8673C121.733 15.6185 121.567 15.3243 121.469 15.005C121.371 14.6857 121.344 14.349 121.39 14.0183C121.346 13.6865 121.373 13.3491 121.47 13.0288C121.568 12.7086 121.734 12.413 121.956 12.162C122.178 11.9111 122.451 11.7106 122.758 11.5743C123.064 11.4379 123.397 11.3688 123.732 11.3717C125.146 11.3717 125.999 12.3347 125.999 13.9254V14.2743H122.411V14.3303C122.396 14.5162 122.419 14.7033 122.48 14.8797C122.541 15.056 122.639 15.2177 122.766 15.3543C122.893 15.491 123.048 15.5995 123.22 15.6731C123.392 15.7467 123.577 15.7836 123.764 15.7815C124.004 15.8103 124.247 15.7672 124.462 15.6578C124.677 15.5485 124.855 15.3778 124.973 15.1674L125.938 15.1674ZM122.411 13.5349H124.977C124.99 13.3649 124.967 13.1941 124.909 13.0335C124.852 12.873 124.761 12.7262 124.643 12.6026C124.526 12.479 124.383 12.3813 124.225 12.3159C124.068 12.2504 123.898 12.2187 123.727 12.2226C123.553 12.2204 123.381 12.2529 123.221 12.318C123.06 12.3832 122.914 12.4798 122.792 12.6021C122.669 12.7244 122.572 12.87 122.507 13.0302C122.442 13.1904 122.409 13.362 122.411 13.5349H122.411Z" fill="white"/>
</g>
<defs>
<clipPath id="clip0">
<rect width="151" height="45" fill="white"/>
</clipPath>
</defs>
</svg>
