<?xml version="1.0" encoding="utf-8"?>
<!-- Generator: Adobe Illustrator 19.0.1, SVG Export Plug-In . SVG Version: 6.00 Build 0)  -->
<svg version="1.1" xmlns="http://www.w3.org/2000/svg" xmlns:xlink="http://www.w3.org/1999/xlink" x="0px" y="0px" style="enable-background:new 0 0 150 150;" xml:space="preserve">
<symbol id="main" viewBox="0 0 150 150">
<g>
	<path d="M72,6.6c12.6,0,22.9,10.3,22.9,22.9S84.6,52.4,72,52.4S49.1,42.1,49.1,29.5S59.4,6.6,72,6.6 M72,0
		C55.7,0,42.5,13.2,42.5,29.5S55.7,59,72,59s29.5-13.2,29.5-29.5S88.3,0,72,0L72,0z"/>
	<polygon points="38.6,75 24,88.6 24,144 89,144 89,150 18,150 18,86 36.2,69 108.6,69 125.3,86 116.8,86 106.1,75 	"/>
	<g>
		<polygon points="112.8,140.7 89.5,120.1 93.5,115.6 112.5,132.5 144.9,100.1 149.1,104.3 		"/>
	</g>
</g>
	</symbol>	
<use href="#main" />
</svg>
