<svg width="64" height="64" viewBox="0 0 64 64" fill="none" xmlns="http://www.w3.org/2000/svg">
<path fill-rule="evenodd" clip-rule="evenodd" d="M31.0128 3.03454C31.3457 2.81146 31.7796 2.80861 32.1153 3.0273L62.6846 22.9377C63.0555 23.1793 63.2234 23.636 63.0974 24.0603C62.9714 24.4847 62.5815 24.7757 62.1388 24.7757H1.86116C1.42094 24.7757 1.0325 24.4878 0.904423 24.0666C0.776342 23.6455 0.938748 23.1901 1.30443 22.945L31.0128 3.03454ZM31.5774 5.06377L5.14947 22.7757H58.7712L31.5774 5.06377ZM8.61111 27.3727C8.61111 26.2681 9.50654 25.3727 10.6111 25.3727H12.9166C14.0212 25.3727 14.9166 26.2681 14.9166 27.3727V47.1488H12.9166V27.3727H10.6111V47.1488H8.61111V27.3727ZM22.3888 27.3727C22.3888 26.2681 23.2842 25.3727 24.3888 25.3727H26.6943C27.7989 25.3727 28.6943 26.2681 28.6943 27.3727V47.1488H26.6943V27.3727H24.3888V47.1488H22.3888V27.3727ZM37.3054 25.3727C36.2008 25.3727 35.3054 26.2681 35.3054 27.3727V47.1488H37.3054V27.3727H39.6109V47.1488H41.6109V27.3727C41.6109 26.2681 40.7155 25.3727 39.6109 25.3727H37.3054ZM49.0831 27.3727C49.0831 26.2681 49.9785 25.3727 51.0831 25.3727H53.3886C54.4932 25.3727 55.3886 26.2681 55.3886 27.3727V47.1488H53.3886V27.3727H51.0831V47.1488H49.0831V27.3727ZM7.16669 51.313C7.16669 50.7607 7.61441 50.313 8.16669 50.313H55.833C56.3853 50.313 56.833 50.7607 56.833 51.313V53.2085H58.833V51.313C58.833 49.6561 57.4899 48.313 55.833 48.313H8.16669C6.50984 48.313 5.16669 49.6561 5.16669 51.313V53.2085H7.16669V51.313ZM3.00006 56.0742H60.9997V58.9996H3.00006L3.00006 56.0742ZM1.00006 56.0742C1.00006 54.9696 1.89549 54.0742 3.00006 54.0742H60.9997C62.1042 54.0742 62.9997 54.9696 62.9997 56.0742V58.9996C62.9997 60.1041 62.1042 60.9996 60.9997 60.9996H3.00006C1.89549 60.9996 1.00006 60.1041 1.00006 58.9996V56.0742Z" fill="white"/>
</svg>
