<svg width="64" height="64" viewBox="0 0 64 64" fill="none" xmlns="http://www.w3.org/2000/svg">
<path fill-rule="evenodd" clip-rule="evenodd" d="M31.0131 3.03454C31.3459 2.81146 31.7798 2.80861 32.1156 3.0273L62.6848 22.9377C63.0557 23.1793 63.2237 23.636 63.0977 24.0603C62.9717 24.4847 62.5817 24.7757 62.1391 24.7757H1.86141C1.42119 24.7757 1.03275 24.4878 0.904667 24.0666C0.776586 23.6455 0.938992 23.1901 1.30468 22.945L31.0131 3.03454ZM31.5777 5.06377L5.14972 22.7757H58.7714L31.5777 5.06377ZM8.61136 27.3727C8.61136 26.2681 9.50679 25.3727 10.6114 25.3727H12.9169C14.0215 25.3727 14.9169 26.2681 14.9169 27.3727V47.1488H12.9169V27.3727H10.6114V47.1488H8.61136V27.3727ZM22.389 27.3727C22.389 26.2681 23.2845 25.3727 24.389 25.3727H26.6946C27.7991 25.3727 28.6946 26.2681 28.6946 27.3727V47.1488H26.6946V27.3727H24.389V47.1488H22.389V27.3727ZM37.3056 25.3727C36.2011 25.3727 35.3056 26.2681 35.3056 27.3727V47.1488H37.3056V27.3727H39.6112V47.1488H41.6112V27.3727C41.6112 26.2681 40.7157 25.3727 39.6112 25.3727H37.3056ZM49.0833 27.3727C49.0833 26.2681 49.9788 25.3727 51.0833 25.3727H53.3889C54.4934 25.3727 55.3889 26.2681 55.3889 27.3727V47.1488H53.3889V27.3727H51.0833V47.1488H49.0833V27.3727ZM7.16693 51.313C7.16693 50.7607 7.61465 50.313 8.16693 50.313H55.8333C56.3856 50.313 56.8333 50.7607 56.8333 51.313V53.2085H58.8333V51.313C58.8333 49.6561 57.4901 48.313 55.8333 48.313H8.16693C6.51008 48.313 5.16693 49.6561 5.16693 51.313V53.2085H7.16693V51.313ZM3.0003 56.0742H60.9999V58.9996H3.0003L3.0003 56.0742ZM1.0003 56.0742C1.0003 54.9696 1.89573 54.0742 3.0003 54.0742H60.9999C62.1045 54.0742 62.9999 54.9696 62.9999 56.0742V58.9996C62.9999 60.1041 62.1045 60.9996 60.9999 60.9996H3.0003C1.89573 60.9996 1.0003 60.1041 1.0003 58.9996V56.0742Z" fill="#00032C"/>
</svg>
