<svg width="65" height="44" viewBox="0 0 65 44" fill="none" xmlns="http://www.w3.org/2000/svg">
<g clip-path="url(#clip0)">
<path d="M32.5355 4.79954C33.1051 4.79954 33.5322 4.35658 33.5322 3.76598C33.5322 3.17537 33.1051 2.73242 32.5355 2.73242C31.966 2.73242 31.5388 3.17537 31.5388 3.76598C31.5388 4.35658 31.966 4.79954 32.5355 4.79954Z" fill="#0076FF"/>
<path d="M59.8034 40.8249C60.3729 40.8249 60.8001 40.382 60.8001 39.7914C60.8001 39.2008 60.3729 38.7578 59.8034 38.7578C59.2338 38.7578 58.8066 39.2008 58.8066 39.7914C58.8066 40.382 59.305 40.8249 59.8034 40.8249Z" fill="#0076FF"/>
<path d="M55.9586 40.8249C56.5282 40.8249 56.9553 40.382 56.9553 39.7914C56.9553 39.2008 56.5282 38.7578 55.9586 38.7578C55.3891 38.7578 54.9619 39.2008 54.9619 39.7914C54.9619 40.382 55.3891 40.8249 55.9586 40.8249Z" fill="#0076FF"/>
<path d="M52.0429 40.8249C52.6124 40.8249 53.0396 40.382 53.0396 39.7914C53.0396 39.2008 52.6124 38.7578 52.0429 38.7578C51.4733 38.7578 51.0461 39.2008 51.0461 39.7914C51.1173 40.382 51.5445 40.8249 52.0429 40.8249Z" fill="#0076FF"/>
<path d="M6.9774 6.6443H58.0946V34.4027H59.6609V3.98658C59.6609 1.77181 57.9522 0 55.8164 0H9.2556C7.11979 0 5.41113 1.77181 5.41113 3.98658V34.1074H6.9774V6.6443ZM9.2556 1.62416H55.674C56.9555 1.62416 58.0234 2.73154 58.0234 4.0604V5.90604H6.9774V3.98658C6.9774 2.65772 8.04531 1.62416 9.2556 1.62416Z" fill="#0076FF"/>
<path d="M0 40.0139C0 42.2287 1.70865 44.0005 3.84447 44.0005H61.1555C63.2913 44.0005 65 42.2287 65 40.0139V36.0273H0V40.0139ZM28.6199 37.5777H36.3801V39.2018H28.6199V37.5777ZM1.56626 37.5777H27.908V40.0139H37.1632V37.5777H63.5049V40.0139C63.5049 41.3428 62.437 42.4502 61.1555 42.4502H3.84447C2.56298 42.4502 1.49507 41.3428 1.49507 40.0139V37.5777H1.56626Z" fill="#0076FF"/>
</g>
<defs>
<clipPath id="clip0">
<rect width="65" height="44" fill="white"/>
</clipPath>
</defs>
</svg>
