<svg width="52" height="46" viewBox="0 0 52 46" fill="none" xmlns="http://www.w3.org/2000/svg">
<path d="M17.8579 23.166C18.3915 23.0236 18.7086 22.4756 18.5662 21.942C18.4237 21.4084 17.8757 21.0912 17.3421 21.2337L17.8579 23.166ZM2 17.7202L2.31623 16.7715C2.01128 16.6699 1.67606 16.721 1.41529 16.909C1.15452 17.0969 1 17.3988 1 17.7202H2ZM2 40.12H1C1 40.5486 1.27312 40.9296 1.67904 41.0671L2 40.12ZM16.4 45L16.079 45.9471C16.262 46.0091 16.4591 46.0168 16.6463 45.9692L16.4 45ZM50 44.12L49.7324 45.0835C50.0335 45.1672 50.3563 45.1052 50.6051 44.9161C50.8539 44.727 51 44.4325 51 44.12H50ZM50 22.5202H51C51 22.0897 50.7246 21.7076 50.3162 21.5715L50 22.5202ZM40.4 19.3202L40.7162 18.3715C40.5607 18.3197 40.3948 18.3068 40.2332 18.3342L40.4 19.3202ZM36.6 25.8001C36.6 25.2479 36.1523 24.8001 35.6 24.8001C35.0477 24.8001 34.6 25.2479 34.6 25.8001H36.6ZM35.0332 19.2139C34.4887 19.306 34.1219 19.8221 34.214 20.3667C34.3061 20.9112 34.8223 21.278 35.3668 21.1859L35.0332 19.2139ZM14.8 12.1999H13.8H14.8ZM26 32.9998L25.3085 33.7222C25.6952 34.0923 26.3048 34.0923 26.6915 33.7222L26 32.9998ZM17.3421 21.2337L16.1421 21.554L16.6579 23.4863L17.8579 23.166L17.3421 21.2337ZM16.7162 21.5715L2.31623 16.7715L1.68377 18.6689L16.0838 23.4688L16.7162 21.5715ZM1 17.7202V40.12H3V17.7202H1ZM1.67904 41.0671L16.079 45.9471L16.721 44.0529L2.32096 39.1729L1.67904 41.0671ZM16.6463 45.9692L35.8463 41.0892L35.3537 39.1509L16.1537 44.0308L16.6463 45.9692ZM35.3324 41.0836L49.7324 45.0835L50.2676 43.1565L35.8676 39.1565L35.3324 41.0836ZM51 44.12V22.5202H49V44.12H51ZM50.3162 21.5715L40.7162 18.3715L40.0838 20.2689L49.6838 23.4688L50.3162 21.5715ZM15.4 22.5202V45H17.4V22.5202H15.4ZM34.6 25.8001V40.12H36.6V25.8001H34.6ZM40.2332 18.3342L35.0332 19.2139L35.3668 21.1859L40.5668 20.3062L40.2332 18.3342ZM26 0C22.7644 0 19.6612 1.28534 17.3733 3.57327L18.7875 4.98749C20.7004 3.07463 23.2948 2 26 2V0ZM17.3733 3.57327C15.0854 5.8612 13.8 8.9643 13.8 12.1999L15.8 12.1999C15.8 9.49474 16.8746 6.90035 18.7875 4.98749L17.3733 3.57327ZM13.8 12.1999C13.8 17.5654 16.7583 22.9818 19.5849 26.9591C21.0129 28.9685 22.439 30.6542 23.5079 31.8376C24.0429 32.4298 24.4896 32.8977 24.8042 33.219C24.9615 33.3797 25.0858 33.5038 25.1717 33.5886C25.2146 33.631 25.248 33.6635 25.271 33.6859C25.2825 33.6971 25.2915 33.7058 25.2977 33.7118C25.3009 33.7148 25.3034 33.7172 25.3052 33.719C25.3061 33.7198 25.3068 33.7205 25.3074 33.7211C25.3077 33.7213 25.3079 33.7216 25.3081 33.7218C25.3083 33.722 25.3085 33.7222 26 32.9998C26.6915 32.2774 26.6916 32.2775 26.6917 32.2775C26.6916 32.2775 26.6917 32.2776 26.6916 32.2775C26.6915 32.2774 26.6912 32.2771 26.6907 32.2767C26.6898 32.2758 26.6883 32.2743 26.686 32.2721C26.6815 32.2678 26.6744 32.2609 26.6647 32.2515C26.6454 32.2327 26.6158 32.2038 26.5767 32.1653C26.4985 32.0881 26.3823 31.972 26.2333 31.8199C25.9354 31.5156 25.5071 31.0672 24.9921 30.497C23.961 29.3554 22.5871 27.7311 21.2151 25.8005C18.4417 21.8979 15.8 16.9144 15.8 12.1999H13.8ZM26 32.9998C26.6915 33.7222 26.6917 33.722 26.6919 33.7218C26.6921 33.7216 26.6923 33.7213 26.6926 33.7211C26.6932 33.7205 26.6939 33.7198 26.6948 33.719C26.6966 33.7172 26.6991 33.7148 26.7023 33.7118C26.7085 33.7058 26.7175 33.6971 26.729 33.6859C26.752 33.6635 26.7854 33.631 26.8283 33.5886C26.9142 33.5038 27.0385 33.3797 27.1958 33.219C27.5104 32.8977 27.9571 32.4298 28.4921 31.8376C29.561 30.6542 30.9871 28.9685 32.4151 26.9591C35.2417 22.9818 38.2 17.5654 38.2 12.1999H36.2C36.2 16.9144 33.5583 21.8979 30.7849 25.8005C29.4129 27.7311 28.039 29.3554 27.0079 30.497C26.4929 31.0672 26.0646 31.5156 25.7667 31.8199C25.6177 31.972 25.5015 32.0881 25.4233 32.1653C25.3842 32.2038 25.3546 32.2327 25.3353 32.2515C25.3256 32.2609 25.3185 32.2678 25.314 32.2721C25.3117 32.2743 25.3102 32.2758 25.3093 32.2767C25.3088 32.2771 25.3085 32.2774 25.3084 32.2775C25.3083 32.2776 25.3084 32.2775 25.3083 32.2775C25.3084 32.2775 25.3085 32.2774 26 32.9998ZM38.2 12.1999C38.2 8.9643 36.9146 5.8612 34.6267 3.57327L33.2125 4.98749C35.1254 6.90035 36.2 9.49474 36.2 12.1999H38.2ZM34.6267 3.57327C32.3388 1.28534 29.2356 0 26 0V2C28.7052 2 31.2996 3.07463 33.2125 4.98749L34.6267 3.57327ZM29 12.1999C29 13.8568 27.6569 15.1999 26 15.1999V17.1999C28.7614 17.1999 31 14.9613 31 12.1999H29ZM26 15.1999C24.3431 15.1999 23 13.8568 23 12.1999H21C21 14.9613 23.2386 17.1999 26 17.1999V15.1999ZM23 12.1999C23 10.5431 24.3431 9.19995 26 9.19995V7.19995C23.2386 7.19995 21 9.43851 21 12.1999H23ZM26 9.19995C27.6569 9.19995 29 10.5431 29 12.1999H31C31 9.43851 28.7614 7.19995 26 7.19995V9.19995Z" fill="#0076FF"/>
</svg>
