<svg width="70" height="56" viewBox="0 0 70 56" fill="none" xmlns="http://www.w3.org/2000/svg">
<path d="M7 9.32273C7.55228 9.32273 8 8.85043 8 8.26781C8 7.68519 7.55228 7.21289 7 7.21289C6.44772 7.21289 6 7.68519 6 8.26781C6 8.85043 6.44772 9.32273 7 9.32273Z" stroke="#0076FF" stroke-width="2" stroke-linecap="round" stroke-linejoin="round"/>
<path d="M14 9.32273C14.5523 9.32273 15 8.85043 15 8.26781C15 7.68519 14.5523 7.21289 14 7.21289C13.4477 7.21289 13 7.68519 13 8.26781C13 8.85043 13.4477 9.32273 14 9.32273Z" stroke="#0076FF" stroke-width="2" stroke-linecap="round" stroke-linejoin="round"/>
<path d="M21 9.32273C21.5523 9.32273 22 8.85043 22 8.26781C22 7.68519 21.5523 7.21289 21 7.21289C20.4477 7.21289 20 7.68519 20 8.26781C20 8.85043 20.4477 9.32273 21 9.32273Z" stroke="#0076FF" stroke-width="2" stroke-linecap="round" stroke-linejoin="round"/>
<path d="M59 14.5966V1.9375H1V14.5966M59 14.5966H1M59 14.5966V19.8712M1 14.5966V48.354H33" stroke="#0076FF" stroke-width="2" stroke-linecap="round" stroke-linejoin="round"/>
<path d="M68.6699 19.1385C68.4956 18.9556 68.2659 18.843 68.0209 18.8206C67.776 18.7981 67.5313 18.8671 67.3297 19.0156H67.2714C54.9184 28.7277 49.0915 34.4444 44.8379 38.9316L49.849 44.2794C54.1027 39.7922 59.5217 33.6453 68.7282 20.6138H68.7864C68.9432 20.3962 69.018 20.125 68.9965 19.8526C68.975 19.5802 68.8586 19.3258 68.6699 19.1385V19.1385Z" stroke="#0076FF" stroke-width="2" stroke-miterlimit="10" stroke-linecap="round" stroke-linejoin="round"/>
<path d="M43.3229 40.5298C42.6506 41.239 42.2729 42.2008 42.2729 43.2037C42.2729 44.2067 42.6506 45.1685 43.3229 45.8776C43.9951 46.5868 44.9069 46.9852 45.8576 46.9852C46.8082 46.9852 47.72 46.5868 48.3923 45.8776L49.9072 44.2795L44.8961 38.9316L43.3229 40.5298Z" stroke="#0076FF" stroke-width="2" stroke-miterlimit="10" stroke-linecap="round" stroke-linejoin="round"/>
<path d="M43.4978 51.2875C44.1546 50.5946 44.5236 49.6549 44.5236 48.675C44.5236 47.6952 44.1546 46.7554 43.4978 46.0626C42.841 45.3697 41.9502 44.9805 41.0214 44.9805C40.0926 44.9805 39.2018 45.3697 38.545 46.0626C35 49.8022 35.4134 53.7608 32.5 54.6829C35.2386 54.4985 40.7009 54.238 43.4978 51.2875Z" stroke="#0076FF" stroke-width="2" stroke-miterlimit="10" stroke-linecap="round" stroke-linejoin="round"/>
</svg>
