<svg width="58" height="60" viewBox="0 0 58 60" fill="none" xmlns="http://www.w3.org/2000/svg">
<path d="M14.0323 36.1022L8.3384 32.7245C7.92934 32.4828 7.4279 32.4828 7.01884 32.7383L1.37114 36.2127C0.962077 36.4614 0.717959 36.9172 0.717959 37.4146L0.764143 44.2666C0.770741 44.7639 1.02146 45.2129 1.43052 45.4615L7.06503 48.8116V58.8824C7.06503 59.2623 7.36193 59.5731 7.7248 59.5731C8.08768 59.5731 8.38458 59.2623 8.38458 58.8824V48.8461C8.40438 48.8392 8.42417 48.8323 8.44396 48.8185L14.0917 45.351C14.5007 45.1024 14.7448 44.6465 14.7448 44.1492L14.6987 37.2971C14.6987 36.7998 14.4413 36.3439 14.0323 36.1022ZM7.02544 45.5928L3.40326 43.4377L3.37027 38.9618L7.02544 41.1721V45.5928ZM7.68522 39.9772L4.03005 37.7668L7.69841 35.5151L11.413 37.7254L7.68522 39.9772ZM8.345 45.6826V41.1721L12.0727 38.9204L12.1057 43.3686L8.345 45.6826Z" fill="#0076FF"/>
<path d="M57.9604 10.5044C57.9538 10.014 57.7031 9.55808 57.294 9.31632L51.6002 5.93176C51.1911 5.69 50.6897 5.69 50.2806 5.93866L44.811 9.30251L39.8495 6.3531C39.8759 6.17351 39.8891 6.00083 39.8891 5.81433C39.8891 5.28247 39.7835 4.77133 39.5922 4.30855L43.3067 2.06368C43.6234 1.87028 43.729 1.44893 43.5509 1.11739C43.3661 0.785837 42.9637 0.67532 42.647 0.861817L38.8532 3.15503C38.1935 2.45049 37.2764 2.00842 36.2603 2.00842C34.2612 2.00842 32.6315 3.71452 32.6315 5.80743C32.6315 6.1597 32.6843 6.50506 32.7701 6.8297L28.5145 9.40612L28.5079 8.12136C28.5079 7.62404 28.2506 7.17507 27.8415 6.9264L19.8912 2.22946C19.4821 1.9877 18.9807 1.9877 18.5716 2.24327L10.7071 7.07836C10.298 7.32703 10.0539 7.78981 10.0539 8.28023L10.0605 9.46828L0.981946 4.0737C0.665253 3.8872 0.262788 4.00463 0.0846478 4.33618C-0.0934924 4.66773 0.0186701 5.08907 0.335364 5.27557L10.0803 11.0639L10.1265 17.833C10.1331 18.3234 10.3838 18.7793 10.7929 19.021L18.7234 23.7318C18.9279 23.8492 19.1522 23.9114 19.3766 23.9114C19.6075 23.9114 19.8384 23.8492 20.0429 23.7249L27.9075 18.8898C28.3166 18.6411 28.5607 18.1853 28.5607 17.6879L28.5145 11.0086L33.3507 8.08683C34.0105 9.0124 35.0661 9.62024 36.2537 9.62024C37.6063 9.62024 38.7873 8.83972 39.4074 7.69311L43.9995 10.4215C43.9929 10.4837 43.9731 10.5527 43.9731 10.6218L44.0193 17.4738C44.0259 17.9711 44.2766 18.4201 44.6857 18.6688L50.3796 22.0533C50.5841 22.1708 50.8084 22.2329 51.0327 22.2329C51.2637 22.2329 51.4946 22.1708 51.6991 22.0464L57.3468 18.5721C57.7559 18.3234 58 17.8675 58 17.3702L57.9604 10.5044ZM18.5848 20.4716L12.759 17.011L12.7062 9.82746L18.5782 13.3778V20.4716H18.5848ZM19.2446 12.1828L13.3792 8.63941L19.2512 5.0269L25.2156 8.57034L19.2446 12.1828ZM19.9044 20.6028V13.3778L25.8688 9.7722L25.9216 16.9074L19.9044 20.6028ZM38.431 5.51732C38.1143 5.33082 37.7118 5.44825 37.5337 5.7798C37.3555 6.11135 37.4677 6.53269 37.7844 6.71919L38.2594 7.00238C37.8636 7.73456 37.118 8.23188 36.2603 8.23188C35.5609 8.23188 34.9407 7.90033 34.5185 7.38228L35.0265 7.07146C35.3432 6.87805 35.4488 6.45671 35.2706 6.12516C35.0859 5.79361 34.6834 5.68309 34.3667 5.86959L33.9775 6.10444C33.9643 6.00774 33.9511 5.91103 33.9511 5.81433C33.9511 4.48123 34.9869 3.39679 36.2603 3.39679C37.4545 3.39679 38.431 4.3569 38.5497 5.57949L38.431 5.51732ZM50.2872 18.8L46.665 16.6449L46.632 12.169L50.2872 14.3794V18.8ZM50.947 13.1913L47.2918 10.981L50.9536 8.7292L54.6681 10.9395L50.947 13.1913ZM51.6068 18.8898V14.3863L55.3345 12.1345L55.3675 16.5828L51.6068 18.8898Z" fill="#0076FF"/>
<path d="M19.2182 34.8178C18.8553 34.8178 18.5584 35.1286 18.5584 35.5085V38.5546C18.5584 38.9345 18.8553 39.2454 19.2182 39.2454C19.5811 39.2454 19.878 38.9345 19.878 38.5546V35.5085C19.878 35.1286 19.5811 34.8178 19.2182 34.8178Z" fill="#0076FF"/>
<path d="M19.2182 29.5614C18.8553 29.5614 18.5584 29.8722 18.5584 30.2521V33.2982C18.5584 33.6781 18.8553 33.9889 19.2182 33.9889C19.5811 33.9889 19.878 33.6781 19.878 33.2982V30.2521C19.878 29.8653 19.5811 29.5614 19.2182 29.5614Z" fill="#0076FF"/>
<path d="M24.3378 42.4849C24.1597 42.8164 24.2718 43.2378 24.5885 43.4243L27.1221 44.9232C27.4388 45.1097 27.8412 44.9922 28.0194 44.6607C28.1975 44.3291 28.0854 43.9078 27.7687 43.7213L25.2351 42.2224C24.9184 42.0359 24.516 42.1533 24.3378 42.4849Z" fill="#0076FF"/>
<path d="M19.9634 39.9018C19.7852 40.2334 19.8974 40.6547 20.2141 40.8412L22.7476 42.3401C23.0643 42.5266 23.4668 42.4092 23.6449 42.0776C23.8231 41.7461 23.7109 41.3247 23.3942 41.1382L20.8607 39.6393C20.544 39.4459 20.1415 39.5634 19.9634 39.9018Z" fill="#0076FF"/>
<path d="M19.2182 24.2981C18.8553 24.2981 18.5584 24.6089 18.5584 24.9888V28.0349C18.5584 28.4148 18.8553 28.7256 19.2182 28.7256C19.5811 28.7256 19.878 28.4148 19.878 28.0349V24.9888C19.878 24.6089 19.5811 24.2981 19.2182 24.2981Z" fill="#0076FF"/>
<path d="M37.3353 50.2284L36.7085 48.0733H33.5548L32.928 50.2284H30.9487L34.0034 41.1384H36.2467L39.3147 50.2284H37.3353ZM36.2731 46.4639C35.6925 44.5092 35.3626 43.404 35.29 43.1484C35.2174 42.8929 35.1647 42.6926 35.1317 42.5406C34.9997 43.0725 34.6302 44.3779 34.0166 46.4639H36.2731Z" fill="#0076FF"/>
<path d="M46.3811 43.999C46.3811 44.973 46.0908 45.7189 45.5102 46.237C44.9296 46.755 44.0982 47.0106 43.0294 47.0106H42.2443V50.2294H40.4101V41.174H43.1745C44.2236 41.174 45.0219 41.4088 45.5695 41.8854C46.104 42.3551 46.3811 43.0596 46.3811 43.999ZM42.2377 45.4357H42.8381C43.3989 45.4357 43.8211 45.3183 44.1048 45.0835C44.3819 44.8486 44.5271 44.5102 44.5271 44.0612C44.5271 43.6122 44.4083 43.2807 44.1774 43.0666C43.9399 42.8524 43.577 42.7419 43.0756 42.7419H42.2443V45.4357H42.2377Z" fill="#0076FF"/>
<path d="M48.0107 50.2294V41.174H49.8449V50.2294H48.0107Z" fill="#0076FF"/>
</svg>
