<svg width="16" height="16" viewBox="0 0 16 16" fill="none" xmlns="http://www.w3.org/2000/svg">
<mask id="mask0" mask-type="alpha" maskUnits="userSpaceOnUse" x="0" y="0" width="16" height="16">
<rect width="16" height="16" rx="2" fill="#AAAAAA"/>
</mask>
<g mask="url(#mask0)">
<rect x="-23.416" y="36.42" width="58.7857" height="64.106" transform="rotate(-90.5694 -23.416 36.42)" fill="#A02D1E"/>
<rect x="-21.5549" y="37.1735" width="79.4351" height="49.8618" transform="rotate(-45 -21.5549 37.1735)" fill="#E6A028"/>
<path d="M4.57812 3.41113C4.23633 3.41113 3.97168 3.54004 3.78418 3.79785C3.59668 4.05371 3.50293 4.41113 3.50293 4.87012C3.50293 5.8252 3.86133 6.30273 4.57812 6.30273C4.87891 6.30273 5.24316 6.22754 5.6709 6.07715V6.83887C5.31934 6.98535 4.92676 7.05859 4.49316 7.05859C3.87012 7.05859 3.39355 6.87012 3.06348 6.49316C2.7334 6.11426 2.56836 5.57129 2.56836 4.86426C2.56836 4.41895 2.64941 4.0293 2.81152 3.69531C2.97363 3.35938 3.20605 3.10254 3.50879 2.9248C3.81348 2.74512 4.16992 2.65527 4.57812 2.65527C4.99414 2.65527 5.41211 2.75586 5.83203 2.95703L5.53906 3.69531C5.37891 3.61914 5.21777 3.55273 5.05566 3.49609C4.89355 3.43945 4.73438 3.41113 4.57812 3.41113ZM7.47852 7H6.58496V2.7168H9.04004V3.46094H7.47852V4.56543H8.93164V5.30664H7.47852V7ZM13.4316 4.81738C13.4316 5.52246 13.2305 6.0625 12.8281 6.4375C12.4277 6.8125 11.8486 7 11.0908 7H9.87793V2.7168H11.2227C11.9219 2.7168 12.4648 2.90137 12.8516 3.27051C13.2383 3.63965 13.4316 4.15527 13.4316 4.81738ZM12.4883 4.84082C12.4883 3.9209 12.082 3.46094 11.2695 3.46094H10.7861V6.25H11.1758C12.0508 6.25 12.4883 5.78027 12.4883 4.84082Z" fill="white"/>
<path d="M6.93652 13H4.46973V8.7168H6.93652V9.46094H5.37793V10.4014H6.82812V11.1455H5.37793V12.25H6.93652V13ZM11.7207 10.8525C11.7207 11.3564 11.6309 11.7793 11.4512 12.1211C11.2734 12.4609 11.0117 12.71 10.666 12.8682L11.6973 14.0195H10.5342L9.74902 13.0586H9.68164C9.02539 13.0586 8.52148 12.8682 8.16992 12.4873C7.81836 12.1064 7.64258 11.5596 7.64258 10.8467C7.64258 10.1338 7.81836 9.58984 8.16992 9.21484C8.52344 8.83789 9.0293 8.64941 9.6875 8.64941C10.3457 8.64941 10.8486 8.83887 11.1963 9.21777C11.5459 9.59668 11.7207 10.1416 11.7207 10.8525ZM8.59473 10.8525C8.59473 11.3311 8.68555 11.6914 8.86719 11.9336C9.04883 12.1758 9.32031 12.2969 9.68164 12.2969C10.4062 12.2969 10.7686 11.8154 10.7686 10.8525C10.7686 9.8877 10.4082 9.40527 9.6875 9.40527C9.32617 9.40527 9.05371 9.52734 8.87012 9.77148C8.68652 10.0137 8.59473 10.374 8.59473 10.8525Z" fill="white"/>
</g>
</svg>
