<svg width="65" height="41" viewBox="0 0 65 41" fill="none" xmlns="http://www.w3.org/2000/svg">
<path d="M47.1962 39.7482H50.3469C53.968 39.7482 57.4407 38.3098 60.0011 35.7494C62.5616 33.1889 64 29.7162 64 26.0952C64 22.4742 62.5616 19.0015 60.0011 16.441C57.4407 13.8806 53.968 12.4421 50.3469 12.4421H49.8218C48.2396 8.93249 45.5654 6.02827 42.1979 4.16255C38.8304 2.29683 34.9501 1.56956 31.1355 2.08919C27.3209 2.60882 23.7765 4.34752 21.0307 7.046C18.285 9.74449 16.485 13.2582 15.8992 17.0632C14.3222 16.6278 12.6706 16.5324 11.0539 16.7832C9.43721 17.034 7.89221 17.6254 6.52119 18.5181C5.15017 19.4109 3.98441 20.5846 3.10107 21.9617C2.21772 23.3388 1.63695 24.8878 1.39719 26.5062C1.15743 28.1246 1.26415 29.7754 1.71028 31.3495C2.15642 32.9235 2.9318 34.3849 3.98509 35.6368C5.03839 36.8887 6.34557 37.9026 7.82012 38.6114C9.29466 39.3202 10.9029 39.7077 12.5385 39.7482H17.7897" stroke="#0076FF" stroke-width="2" stroke-miterlimit="10" stroke-linecap="round" stroke-linejoin="round"/>
<path d="M39.75 22.3125H26.25C25.8358 22.3125 25.5 22.6343 25.5 23.0312V35.9688C25.5 36.3657 25.8358 36.6875 26.25 36.6875H39.75C40.1642 36.6875 40.5 36.3657 40.5 35.9688V23.0312C40.5 22.6343 40.1642 22.3125 39.75 22.3125Z" stroke="#0076FF" stroke-linecap="round" stroke-linejoin="round"/>
<path d="M33.25 22.3125V18.7188V12.5M29.5 22.3125V19.1562V17.5781H25.8906M37 22.3125V19.5L39.5 19.4844M29.5 40.2812V36.6875M37 40.2812V36.6875M33.25 40.2812V36.6875M40.75 29.5H44.5M40.75 25.9062H49M40.75 33.0938H42.5M25.5 25.9062H22V23H18.5M22 33.0938H25.5M14 29.5H25.5" stroke="#0076FF" stroke-linecap="round" stroke-linejoin="round"/>
<path d="M36.75 25.1875H29.25C28.8358 25.1875 28.5 25.5093 28.5 25.9063V33.0938C28.5 33.4907 28.8358 33.8125 29.25 33.8125H36.75C37.1642 33.8125 37.5 33.4907 37.5 33.0938V25.9063C37.5 25.5093 37.1642 25.1875 36.75 25.1875Z" stroke="#0076FF" stroke-linecap="round" stroke-linejoin="round"/>
</svg>
