<svg width="68" height="68" viewBox="0 0 68 68" fill="none" xmlns="http://www.w3.org/2000/svg">
<path d="M66.4316 44.9265L51.6648 30.0505C50.7832 29.3079 47.7812 28.6495 45.7292 30.2266C44.8248 29.3691 43.8292 28.6571 42.75 28.1135V9.87648C42.75 4.24918 33.5616 0 21.3788 0C9.196 0 0 4.24153 0 9.87648V39.1614C0 44.7887 9.1884 49.0379 21.3712 49.0379C24.2136 49.0379 27.018 48.7852 29.6096 48.3105C29.374 50.2322 30.9016 51.6946 30.9016 51.6946L45.3036 66.2107C46.1776 67.0912 47.5912 67.5965 49.1872 67.5965C50.7832 67.5965 52.1968 67.0912 53.0708 66.2107L66.4316 52.7511C68.2404 50.9213 68.2404 46.7563 66.4316 44.9265ZM49.894 32.6077L52.098 34.828C52.4096 35.6702 52.2576 36.6272 51.6192 37.278L37.7112 51.2888C37.0652 51.9396 36.1152 52.085 35.2792 51.7711L33.0752 49.5508C32.4292 48.9001 32.604 48.1498 32.908 47.5832L33.7364 48.4177C34.3672 49.0532 35.2032 49.4054 36.1 49.4054C36.9892 49.4054 37.8328 49.0532 38.4636 48.4177C39.0944 47.7823 39.444 46.9401 39.444 46.0366C39.444 45.1332 39.0944 44.291 38.4636 43.6556L37.5212 42.7062L43.1072 37.0789L44.0496 38.0283C44.7032 38.6867 45.5544 39.0083 46.4132 39.0083C47.272 39.0083 48.1232 38.6791 48.7768 38.0283C49.4076 37.3928 49.7572 36.5506 49.7572 35.6472C49.7572 34.7514 49.4076 33.9016 48.7768 33.2661L47.9256 32.4086C49.0276 31.7425 49.5976 32.3091 49.894 32.6077ZM27.4436 36.5277C25.4904 36.7956 23.4536 36.9411 21.3788 36.9411C12.8288 36.9411 5.3808 34.5677 3.0476 31.4286V23.9026C6.4372 26.8273 13.2924 28.7873 21.3788 28.7873C29.4652 28.7873 36.3204 26.8273 39.71 23.9026V31.4057C39.026 32.3244 37.9012 33.1896 36.3964 33.9628C36.5256 33.2125 36.2748 31.9875 34.846 30.8621C32.3836 28.9174 29.678 31.5818 29.678 31.5818C28.348 32.9139 27.6184 34.6519 27.4436 36.5277ZM35.3932 40.5319C34.1088 39.0466 33.7668 37.2933 34.2912 36.5047C36.5788 35.7085 38.4028 34.7132 39.7024 33.5953V36.1831L35.3932 40.5319ZM39.71 21.7436C37.3768 24.8826 29.9288 27.256 21.3788 27.256C12.8288 27.256 5.3808 24.8826 3.0476 21.7436V14.141C6.4524 16.8742 13.3 18.6964 21.3788 18.6964C29.4576 18.6964 36.3052 16.8666 39.71 14.141V21.7436ZM31.2892 33.2049L32.1024 32.3857C32.604 32.2172 33.1056 32.3015 33.478 32.5771C33.858 32.8527 34.0404 33.2355 34.1088 33.3886L32.7864 34.7208C31.0156 36.5047 31.5932 39.9959 34.0784 42.4995L36.8524 45.294C37.4604 45.9218 37.05 46.6032 36.8524 46.8023C36.4496 47.208 35.7504 47.208 35.3552 46.8023L32.5812 44.0078C29.2676 40.6697 28.69 35.8233 31.2892 33.2049ZM47.4696 35.6549C47.5076 35.9381 47.4088 36.298 47.2036 36.497C46.7932 36.9105 46.0712 36.8263 45.6532 36.4128C45.6532 36.4128 42.788 33.5341 42.7424 33.4882V30.7626C43.3276 31.1454 47.386 35.0117 47.4696 35.6549ZM21.3788 3.06247C31.8744 3.06247 39.71 6.66088 39.71 9.87648V12.0662C37.4832 14.7764 30.6736 17.1652 21.3788 17.1652C12.084 17.1652 5.2668 14.7688 3.04 12.0585V9.86882C3.04 6.66088 10.8832 3.06247 21.3788 3.06247ZM3.04 39.1614V33.5877C6.4296 36.5124 13.2848 38.4723 21.3712 38.4723C23.4384 38.4723 25.4676 38.3345 27.4208 38.0742C27.5804 40.4553 28.5836 42.9359 30.3924 45.0107C27.6336 45.6309 24.5404 45.9754 21.3712 45.9754C10.8832 45.9677 3.04 42.377 3.04 39.1614ZM64.2808 50.5844L50.92 64.044C50.6844 64.2813 50.046 64.5263 49.1872 64.5263C48.3284 64.5263 47.69 64.2737 47.4544 64.044L36.8828 53.3942C37.582 53.2564 38.2508 52.9196 38.7828 52.376L52.6908 38.3652C53.2304 37.8216 53.5572 37.1555 53.7016 36.4434L64.2732 47.0932C64.9268 47.744 64.9268 49.9337 64.2808 50.5844ZM53.1696 51.5338C53.4204 51.0974 53.5724 50.5997 53.5724 50.0561C53.5724 48.4177 52.25 47.0932 50.6312 47.0932C49.0124 47.0932 47.69 48.4254 47.69 50.0561C47.69 51.6869 49.0124 53.0191 50.6312 53.0191C51.1632 53.0191 51.6648 52.866 52.098 52.6133L54.2108 54.7417C54.6288 55.1322 55.138 54.8872 55.2824 54.7417C55.5788 54.4431 55.5788 53.9608 55.2824 53.6622L53.1696 51.5338ZM49.21 50.0638C49.21 49.2752 49.8484 48.6321 50.6312 48.6321C51.414 48.6321 52.0524 49.2752 52.0524 50.0638C52.0524 50.8524 51.414 51.4955 50.6312 51.4955C49.8484 51.4955 49.21 50.8524 49.21 50.0638Z" fill="#0076FF"/>
</svg>
