<?xml version="1.0" encoding="utf-8"?>
<!-- Generator: Adobe Illustrator 19.0.1, SVG Export Plug-In . SVG Version: 6.00 Build 0)  -->
<svg version="1.1"  xmlns="http://www.w3.org/2000/svg" xmlns:xlink="http://www.w3.org/1999/xlink" x="0px" y="0px"
	 style="enable-background:new 0 0 150 150;" xml:space="preserve">
<symbol id="main"  viewBox="0 0 150 150">
<g>
	<g>
		<g>
			<g>
				<rect x="61.5" y="72" width="48" height="6"/>
			</g>
			<g>
				<rect x="61.5" y="54" width="48" height="6"/>
			</g>
			<g>
				<rect x="61.5" y="90" width="48" height="6"/>
			</g>
		</g>
	</g>
	<polygon points="19.5,144 19.5,12 19.5,6 13.5,6 13.5,150 121.5,150 121.5,144 	"/>
	<g>
		<path d="M116.3,33H109v-9.7C109,10,99.7,0,87,0H34v3v126h99.2h2.8V52.6C136,39.8,129.3,33,116.3,33z M103,24v15h13.3
			c9.4,0,13.7,3,13.7,15l0,0v69H40V6h47c0.9,0,1.7,0.1,2.5,0.2c7,1.2,13.5,7.3,13.5,14.8L103,24z M116.4,36L116.4,36
			C116.4,36,116.4,36,116.4,36C116.4,36,116.4,36,116.4,36z M106.2,23.3L106.2,23.3L106.2,23.3L106.2,23.3z M87,3C87,3,87,3,87,3
			C87,3,87,3,87,3C87,3,87,3,87,3z"/>
	</g>
</g>
	</symbol>	
<use href="#main" />
</svg>
