<svg width="150" height="39" viewBox="0 0 150 39" fill="none" xmlns="http://www.w3.org/2000/svg">
<path d="M4.87013 0.5H145.13C147.543 0.5 149.5 2.45657 149.5 4.87013V34.0909C149.5 36.5045 147.543 38.461 145.13 38.461H4.87013C2.45657 38.461 0.5 36.5045 0.5 34.0909V4.87013C0.5 2.45657 2.45657 0.5 4.87013 0.5Z" fill="black" stroke="white"/>
<path d="M35.0016 24.7992C34.4143 26.1044 34.1308 26.6888 33.375 27.8421C32.3152 29.4531 30.822 31.4645 28.9763 31.4771C27.3341 31.4918 26.9094 30.4057 24.6789 30.4242C22.4503 30.434 21.9857 31.4976 20.3406 31.481C18.4938 31.4645 17.0805 29.6528 16.0217 28.0447C13.0607 23.534 12.747 18.246 14.5772 15.433C15.8727 13.4382 17.9201 12.2674 19.8448 12.2674C21.8045 12.2674 23.0367 13.3427 24.6555 13.3427C26.2276 13.3427 27.185 12.2645 29.4516 12.2645C31.1649 12.2645 32.9756 13.1976 34.2711 14.8086C30.035 17.1307 30.7237 23.1804 35.0016 24.7992ZM27.7305 10.4635C28.5555 9.40475 29.1818 7.91157 28.9539 6.39014C27.6097 6.4817 26.0367 7.34079 25.1191 8.45312C24.2854 9.46611 23.5957 10.971 23.8636 12.4271C25.3315 12.4729 26.8509 11.5973 27.7305 10.4645V10.4635Z" fill="white" fill-opacity="0.8"/>
<path d="M58.0638 12.298C58.0638 13.3304 57.7823 14.1213 57.2203 14.6697C56.6612 15.2152 55.8547 15.4869 54.8018 15.4869H53.068V9.22881H54.9868C55.9589 9.22881 56.7147 9.49862 57.2544 10.0373C57.794 10.5778 58.0628 11.3308 58.0628 12.298H58.0638ZM57.2933 12.3243C57.2933 11.508 57.0878 10.8924 56.6768 10.4785C56.2686 10.0655 55.6609 9.85803 54.8534 9.85803H53.7956V14.8577H54.682C55.5488 14.8577 56.2014 14.6454 56.6378 14.2197C57.0751 13.7911 57.2933 13.16 57.2933 12.3233V12.3243ZM63.4053 13.1366C63.4053 13.9022 63.2125 14.5002 62.8277 14.9308C62.442 15.3593 61.9102 15.5726 61.2303 15.5726C60.8115 15.5726 60.4394 15.4743 60.1141 15.2775C59.7843 15.076 59.5219 14.7811 59.3602 14.4301C59.1839 14.0619 59.0953 13.6314 59.0953 13.1366C59.0953 12.372 59.2862 11.7769 59.669 11.3522C60.0508 10.9236 60.5816 10.7093 61.2615 10.7093C61.917 10.7093 62.4381 10.9285 62.8238 11.3649C63.2115 11.8012 63.4053 12.3924 63.4053 13.1376V13.1366ZM59.8307 13.1366C59.8307 13.7366 59.9514 14.1924 60.191 14.5071C60.4307 14.8207 60.7833 14.9775 61.2479 14.9775C61.7134 14.9775 62.066 14.8217 62.3057 14.511C62.5482 14.1973 62.669 13.7395 62.669 13.1376C62.669 12.5405 62.5482 12.0886 62.3057 11.7798C62.066 11.4691 61.7105 11.3132 61.2401 11.3132C60.7745 11.3132 60.4238 11.4661 60.1871 11.771C59.9495 12.0769 59.8316 12.5317 59.8316 13.1366H59.8307ZM68.4858 15.4869L67.6258 12.7343C67.5722 12.5668 67.4699 12.184 67.3219 11.5879H67.2878C67.1738 12.0866 67.0735 12.4723 66.9878 12.7431L66.1014 15.4869H65.2803L64.0005 10.796H64.7456L65.4342 13.4882C65.594 14.1048 65.6855 14.5197 65.7079 14.734H65.743C65.8308 14.3128 65.9423 13.8969 66.0771 13.4882L66.9371 10.796H67.7066L68.5462 13.4882C68.706 13.9791 68.8141 14.3911 68.8716 14.7252H68.9056C68.9173 14.622 68.9475 14.4642 68.9953 14.2499C69.0469 14.0356 69.3459 12.8843 69.8904 10.796H70.6268L69.3294 15.4869H68.4868H68.4858ZM74.6884 15.4869V12.4519C74.6884 12.07 74.6008 11.7847 74.4274 11.5957C74.2531 11.4077 73.9813 11.3132 73.6092 11.3132C73.1193 11.3132 72.7599 11.4467 72.531 11.7116C72.3031 11.9775 72.1891 12.4148 72.1891 13.0265V15.4869H71.4781V10.796H72.0566L72.1716 11.4379H72.2056C72.3518 11.2061 72.5563 11.0288 72.8183 10.9022C73.0813 10.7746 73.3735 10.7103 73.6949 10.7103C74.2599 10.7103 74.6855 10.8467 74.9709 11.1213C75.2563 11.3921 75.3995 11.8275 75.3995 12.4265V15.4869H74.6884ZM77.5735 15.4869H76.8625V8.82654H77.5735V15.4869ZM83.1294 13.1366C83.1294 13.9022 82.9365 14.5002 82.5518 14.9308C82.166 15.3593 81.6342 15.5726 80.9543 15.5726C80.5355 15.5726 80.1634 15.4743 79.8381 15.2775C79.5084 15.076 79.246 14.7811 79.0842 14.4301C78.9079 14.0619 78.8193 13.6314 78.8193 13.1366C78.8193 12.372 79.0102 11.7769 79.393 11.3522C79.7748 10.9236 80.3056 10.7093 80.9845 10.7093C81.641 10.7093 82.1621 10.9285 82.5479 11.3649C82.9355 11.8012 83.1294 12.3924 83.1294 13.1376V13.1366ZM79.5547 13.1366C79.5547 13.7366 79.6755 14.1924 79.9151 14.5071C80.1547 14.8207 80.5073 14.9775 80.9719 14.9775C81.4375 14.9775 81.7901 14.8217 82.0297 14.511C82.2722 14.1973 82.393 13.7395 82.393 13.1376C82.393 12.5405 82.2722 12.0886 82.0297 11.7798C81.7901 11.4691 81.4345 11.3132 80.9641 11.3132C80.4985 11.3132 80.1479 11.4661 79.9102 11.771C79.6735 12.0769 79.5557 12.5317 79.5557 13.1366H79.5547ZM87.2641 15.4869L87.1229 14.8187H87.0888C86.855 15.1129 86.6212 15.3126 86.3875 15.4187C86.1557 15.521 85.8664 15.5726 85.5177 15.5726C85.053 15.5726 84.6878 15.4528 84.4219 15.2123C84.1589 14.9736 84.0284 14.6327 84.0284 14.1895C84.0284 13.2428 84.7862 12.746 86.3018 12.7002L87.0975 12.6749V12.3837C87.0975 12.0155 87.0177 11.7447 86.8579 11.5704C86.7011 11.3931 86.4488 11.3054 86.1001 11.3054C85.7095 11.3054 85.2664 11.4252 84.7735 11.6648L84.5553 11.1213C84.7862 10.9947 85.0384 10.8973 85.3121 10.8252C85.5897 10.7541 85.8664 10.7181 86.143 10.7181C86.7021 10.7181 87.116 10.8428 87.3839 11.0911C87.6556 11.3395 87.791 11.7369 87.791 12.2853V15.4869H87.2651H87.2641ZM85.6589 14.9863C86.1011 14.9863 86.4479 14.8645 86.6992 14.622C86.9534 14.3795 87.08 14.0405 87.08 13.6032V13.1795L86.369 13.2097C85.804 13.2291 85.3969 13.3187 85.1456 13.4756C84.8972 13.6295 84.7735 13.87 84.7735 14.1983C84.7735 14.4554 84.8505 14.6512 85.0044 14.7847C85.1612 14.9191 85.3794 14.9863 85.6589 14.9863ZM92.4527 14.8577H92.4138C92.0855 15.335 91.5956 15.5726 90.941 15.5726C90.3274 15.5726 89.8501 15.3632 89.5073 14.9434C89.1673 14.5246 88.9979 13.9275 88.9979 13.1541C88.9979 12.3808 89.1693 11.7808 89.5112 11.3522C89.854 10.9236 90.3303 10.7093 90.941 10.7093C91.5771 10.7093 92.0651 10.9411 92.405 11.4038H92.4605L92.4313 11.0648L92.4138 10.7356V8.82654H93.1248V15.4869H92.5462L92.4527 14.8577ZM91.0306 14.9775C91.5167 14.9775 91.8673 14.846 92.0845 14.584C92.3037 14.3181 92.4138 13.8924 92.4138 13.3041V13.1541C92.4138 12.4889 92.3027 12.0155 92.0797 11.733C91.8605 11.4476 91.5079 11.3045 91.0229 11.3045C90.606 11.3045 90.2865 11.4681 90.0634 11.7934C89.8443 12.1148 89.7342 12.5726 89.7342 13.1629C89.7342 13.7619 89.8443 14.2148 90.0634 14.5197C90.2836 14.8246 90.606 14.9775 91.0306 14.9775ZM99.0264 11.3473H97.8323V15.4869H97.1212V11.3473H96.2836V11.0259L97.1212 10.7697V10.5087C97.1212 9.35641 97.6258 8.77979 98.6329 8.77979C98.8813 8.77979 99.1725 8.82946 99.5066 8.92979L99.3225 9.49862C99.0965 9.41902 98.8597 9.37436 98.6203 9.36615C98.3524 9.36615 98.1537 9.45576 98.0251 9.63595C97.8966 9.81225 97.8323 10.0976 97.8323 10.4921V10.796H99.0264V11.3473ZM103.933 13.1366C103.933 13.9022 103.74 14.5002 103.354 14.9308C102.969 15.3593 102.436 15.5726 101.758 15.5726C101.339 15.5726 100.966 15.4743 100.64 15.2775C100.311 15.0761 100.049 14.7811 99.8875 14.4301C99.7102 14.0619 99.6216 13.6314 99.6216 13.1366C99.6216 12.372 99.8134 11.7769 100.195 11.3522C100.578 10.9236 101.109 10.7093 101.788 10.7093C102.444 10.7093 102.964 10.9285 103.35 11.3649C103.738 11.8012 103.933 12.3924 103.933 13.1376V13.1366ZM100.358 13.1366C100.358 13.7366 100.478 14.1924 100.717 14.5071C100.957 14.8207 101.31 14.9775 101.775 14.9775C102.24 14.9775 102.592 14.8217 102.832 14.511C103.074 14.1973 103.196 13.7395 103.196 13.1376C103.196 12.5405 103.074 12.0886 102.832 11.7798C102.592 11.4691 102.237 11.3132 101.766 11.3132C101.301 11.3132 100.95 11.4661 100.713 11.771C100.477 12.0769 100.358 12.5317 100.358 13.1366ZM107.322 10.7103C107.531 10.7103 107.718 10.7269 107.883 10.7619L107.785 11.4204C107.616 11.3807 107.444 11.3591 107.271 11.3561C106.892 11.3561 106.566 11.511 106.295 11.8187C106.027 12.1265 105.892 12.5103 105.892 12.97V15.4869H105.182V10.796H105.769L105.849 11.6648H105.885C106.037 11.3837 106.252 11.142 106.514 10.9587C106.752 10.7953 107.034 10.7086 107.322 10.7103ZM58.0764 30.1947L54.3021 20.3327H54.2407C54.3118 21.1139 54.3479 22.0421 54.3479 23.1184V30.1947H53.1527V19.0694H55.1008L58.6238 28.2467H58.6852L62.2384 19.0694H64.1719V30.1947H62.8784V23.0259C62.8784 22.2048 62.9134 21.3116 62.9855 20.3473H62.9242L59.1186 30.1947H58.0764ZM72.1696 30.1947L71.9183 29.0074H71.857C71.441 29.5304 71.0251 29.885 70.6102 30.073C70.1982 30.2561 69.6839 30.3467 69.0644 30.3467C68.2375 30.3467 67.5888 30.1343 67.1164 29.7077C66.6498 29.2811 66.416 28.6752 66.416 27.8892C66.416 26.2041 67.7631 25.3217 70.4573 25.2408L71.8725 25.195V24.6778C71.8725 24.0233 71.7303 23.5411 71.4469 23.2324C71.1673 22.9178 70.7183 22.76 70.0998 22.76C69.4044 22.76 68.6183 22.9733 67.7407 23.3989L67.3521 22.4327C67.7631 22.2097 68.2121 22.0343 68.6992 21.9077C69.1814 21.7823 69.6775 21.7184 70.1758 21.7178C71.1693 21.7178 71.9057 21.9379 72.3829 22.3801C72.8641 22.8213 73.1057 23.5295 73.1057 24.5035V30.1947H72.1696ZM69.3157 29.3045C70.1018 29.3045 70.7183 29.0892 71.1644 28.6577C71.6164 28.2262 71.8423 27.6223 71.8423 26.846V26.0931L70.579 26.1467C69.5748 26.1817 68.8492 26.3395 68.4031 26.6181C67.9608 26.8918 67.7407 27.3204 67.7407 27.9038C67.7407 28.3616 67.8771 28.7084 68.1518 28.946C68.4303 29.1847 68.819 29.3045 69.3157 29.3045ZM79.0482 30.3467C77.8404 30.3467 76.9053 29.9765 76.2401 29.2363C75.5807 28.4902 75.2514 27.4373 75.2514 26.0775C75.2514 24.6827 75.5865 23.6045 76.2557 22.8437C76.9307 22.083 77.8891 21.7022 79.1319 21.7022C79.5332 21.7022 79.9336 21.746 80.3349 21.8317C80.7352 21.9184 81.0498 22.0197 81.2777 22.1366L80.8901 23.209C80.5937 23.0923 80.2881 23.0007 79.9764 22.9353C79.69 22.8648 79.3967 22.8266 79.1018 22.8213C77.4069 22.8213 76.5595 23.9025 76.5595 26.0629C76.5595 27.0876 76.766 27.8746 77.1761 28.422C77.593 28.9694 78.2066 29.2431 79.018 29.2431C79.7125 29.2431 80.4255 29.0941 81.156 28.795V29.9132C80.5979 30.2025 79.8956 30.3467 79.0482 30.3467ZM97.0375 24.6165C97.0375 26.398 96.5865 27.7976 95.6836 28.8174C94.7855 29.8373 93.5349 30.3467 91.9316 30.3467C90.2933 30.3467 89.0271 29.847 88.1339 28.8476C87.2466 27.8434 86.8024 26.4282 86.8024 24.6009C86.8024 22.7902 87.2495 21.3876 88.1417 20.3931C89.0349 19.3937 90.3031 18.8941 91.9462 18.8941C93.5446 18.8941 94.7923 19.4015 95.6904 20.4165C96.5884 21.4314 97.0375 22.8321 97.0375 24.6165ZM88.1719 24.6165C88.1719 26.1233 88.4923 27.2678 89.1313 28.0489C89.7751 28.8252 90.7092 29.2129 91.9316 29.2129C93.1638 29.2129 94.0949 28.8252 94.7242 28.0489C95.3534 27.2726 95.668 26.1291 95.668 24.6165C95.668 23.1204 95.3534 21.9866 94.7242 21.2152C94.1008 20.4389 93.1745 20.0512 91.9462 20.0512C90.7141 20.0512 89.7751 20.4418 89.1313 21.223C88.4923 21.9993 88.1719 23.1301 88.1719 24.6165ZM105.804 27.2347C105.804 28.2136 105.448 28.9772 104.738 29.5256C104.028 30.073 103.064 30.3467 101.846 30.3467C100.527 30.3467 99.5134 30.1772 98.8034 29.8372V28.5895C99.2592 28.7814 99.7569 28.9343 100.295 29.0454C100.82 29.1557 101.355 29.2119 101.892 29.2129C102.755 29.2129 103.404 29.0512 103.84 28.7259C104.276 28.3967 104.495 27.9398 104.495 27.3564C104.495 26.9707 104.417 26.6561 104.259 26.4126C104.107 26.1642 103.848 25.9353 103.483 25.7278C103.122 25.5204 102.572 25.2837 101.832 25.0197C100.796 24.6496 100.056 24.2113 99.6099 23.7038C99.1677 23.1973 98.9475 22.535 98.9475 21.7168C98.9475 20.8597 99.2699 20.1778 99.9138 19.6713C100.559 19.1629 101.411 18.9097 102.471 18.9097C103.577 18.9097 104.594 19.1123 105.522 19.5184L105.119 20.6444C104.2 20.2587 103.307 20.0668 102.44 20.0668C101.756 20.0668 101.22 20.2129 100.834 20.508C100.449 20.8022 100.257 21.2103 100.257 21.7334C100.257 22.1181 100.328 22.4347 100.469 22.684C100.611 22.9275 100.85 23.1535 101.185 23.361C101.525 23.5645 102.042 23.7895 102.737 24.0389C103.903 24.4548 104.705 24.9009 105.141 25.3782C105.583 25.8554 105.804 26.4739 105.804 27.2347Z" fill="white"/>
</svg>
