<svg width="150" height="39" viewBox="0 0 150 39" fill="none" xmlns="http://www.w3.org/2000/svg">
<path d="M4.87013 0.5H145.13C147.543 0.5 149.5 2.45657 149.5 4.87013V34.0909C149.5 36.5045 147.543 38.461 145.13 38.461H4.87013C2.45657 38.461 0.5 36.5045 0.5 34.0909V4.87013C0.5 2.45657 2.45657 0.5 4.87013 0.5Z" fill="black" stroke="white"/>
<path d="M35.9884 8.76562L24.8124 10.1624V18.9481H35.9884V8.76562ZM23.7469 10.2948L13.6365 11.5601V18.9491H23.7478V10.2948H23.7469ZM13.6365 20.0127V27.4007L23.7478 28.665V20.0127H13.6365ZM24.8124 20.0127V28.7984L35.9884 30.1942V20.0117H24.8124V20.0127Z" fill="white" fill-opacity="0.8"/>
<path d="M65.7857 30.1947H64.5068L62.2617 22.7454C62.1545 22.4152 62.0357 21.9993 61.9042 21.4967C61.7718 20.995 61.7036 20.6931 61.6987 20.5908C61.5867 21.261 61.4094 21.9934 61.1659 22.7902L58.9899 30.1947H57.711L54.75 19.0694H56.1205L57.8786 25.9411C58.1221 26.9054 58.2994 27.7772 58.4114 28.5584C58.5468 27.6365 58.7503 26.7259 59.0201 25.834L61.014 19.0694H62.3834L64.4757 25.8954C64.7192 26.6814 64.9247 27.5697 65.0922 28.5584C65.1896 27.8376 65.3718 26.961 65.6406 25.9256L67.3899 19.0694H68.7604L65.7847 30.1947H65.7857ZM71.5753 30.1947H70.313V21.8541H71.5753V30.1947ZM70.2058 19.5944C70.2058 19.3051 70.2769 19.0947 70.4192 18.9632C70.4898 18.8952 70.5733 18.842 70.6648 18.8067C70.7563 18.7714 70.8539 18.7548 70.952 18.7577C71.1545 18.7577 71.3299 18.8259 71.477 18.9623C71.6231 19.0996 71.6971 19.311 71.6971 19.5954C71.6971 19.8778 71.624 20.0921 71.477 20.2334C71.3354 20.3683 71.1465 20.4421 70.951 20.4389C70.8532 20.4418 70.7558 20.4252 70.6645 20.3901C70.5732 20.355 70.4898 20.302 70.4192 20.2343C70.2769 20.0921 70.2058 19.8788 70.2058 19.5944ZM79.9617 30.1947V24.7986C79.9617 24.1197 79.8058 23.6123 79.4971 23.2772C79.1873 22.9431 78.7032 22.7756 78.0438 22.7756C77.1711 22.7756 76.5321 23.0113 76.126 23.4827C75.7208 23.9551 75.5172 24.7334 75.5172 25.8194V30.1947H74.2539V21.8541H75.2815L75.487 22.9957H75.5484C75.812 22.5807 76.1898 22.2506 76.6364 22.045C77.1228 21.8122 77.6565 21.6949 78.1958 21.7022C79.2 21.7022 79.9558 21.9457 80.4633 22.4327C80.9708 22.9148 81.225 23.6892 81.225 24.7538V30.1947H79.9617ZM89.5042 29.0765H89.436C88.8516 29.9239 87.9799 30.3467 86.8179 30.3467C85.727 30.3467 84.8776 29.9736 84.2688 29.2285C83.6649 28.4824 83.363 27.4226 83.363 26.0473C83.363 24.673 83.6669 23.6045 84.2757 22.8437C84.8844 22.083 85.7318 21.7022 86.8179 21.7022C87.9487 21.7022 88.8166 22.1132 89.4205 22.9353H89.5188L89.4662 22.3343L89.4351 21.748V18.3545H90.6984V30.1947H89.6708L89.5042 29.0765ZM86.9776 29.2889C87.8396 29.2889 88.464 29.0551 88.8497 28.5895C89.2393 28.1171 89.4351 27.3584 89.4351 26.3142V26.0473C89.4351 24.8658 89.2373 24.0233 88.8409 23.5207C88.4513 23.0142 87.825 22.761 86.962 22.761C86.2218 22.761 85.6529 23.0493 85.2575 23.6278C84.8679 24.2006 84.6721 25.0129 84.6721 26.0629C84.6721 27.1285 84.8669 27.933 85.2575 28.4746C85.6481 29.0181 86.2218 29.2889 86.9776 29.2889ZM100.584 26.0161C100.584 27.3769 100.241 28.4395 99.5562 29.2051C98.8714 29.9668 97.9247 30.3467 96.7179 30.3467C95.9718 30.3467 95.3104 30.1713 94.7309 29.8217C94.1533 29.471 93.7071 28.9694 93.3925 28.3148C93.0779 27.6603 92.9201 26.8947 92.9201 26.0161C92.9201 24.6574 93.261 23.6006 93.9399 22.8437C94.6198 22.083 95.5636 21.7022 96.7714 21.7022C97.9373 21.7022 98.8636 22.0908 99.5484 22.8671C100.238 23.6424 100.584 24.6934 100.584 26.0171V26.0161ZM94.2292 26.0161C94.2292 27.0827 94.4425 27.8941 94.8682 28.4512C95.2948 29.0103 95.9211 29.2889 96.7481 29.2889C97.575 29.2889 98.2013 29.0123 98.6279 28.46C99.0594 27.9019 99.2747 27.0866 99.2747 26.0171C99.2747 24.9564 99.0594 24.1528 98.6279 23.6045C98.2013 23.0522 97.5701 22.7756 96.7334 22.7756C95.9055 22.7756 95.2821 23.0473 94.8614 23.5898C94.4396 24.1324 94.2292 24.9418 94.2292 26.0171V26.0161ZM109.617 30.1947L108.088 25.3022C107.991 25.0022 107.811 24.3223 107.547 23.2626H107.487C107.335 23.9541 107.157 24.6396 106.954 25.3178L105.378 30.1947H103.917L101.642 21.8541H102.965C103.503 23.9493 103.911 25.5457 104.191 26.6415C104.474 27.7373 104.637 28.4746 104.678 28.8554H104.738C104.794 28.5661 104.883 28.1931 105.005 27.7373C105.131 27.2756 105.241 26.9093 105.332 26.6415L106.861 21.8541H108.231L109.722 26.6415C110.007 27.5132 110.199 28.2467 110.301 28.8398H110.362C110.382 28.6577 110.435 28.3762 110.522 27.9954C110.612 27.6155 111.143 25.5681 112.112 21.8541H113.42L111.115 30.1947H109.616H109.617ZM120.316 27.9194C120.316 28.6957 120.027 29.2947 119.449 29.7155C118.87 30.1363 118.059 30.3467 117.014 30.3467C115.907 30.3467 115.045 30.1713 114.427 29.8217V28.6499C114.827 28.8525 115.256 29.0123 115.712 29.1291C116.174 29.246 116.618 29.3045 117.044 29.3045C117.703 29.3045 118.211 29.2002 118.566 28.9928C118.921 28.7785 119.098 28.4571 119.098 28.0256C119.098 27.7012 118.957 27.4246 118.672 27.1967C118.393 26.9629 117.845 26.6892 117.028 26.3746C116.253 26.0853 115.7 25.834 115.369 25.6217C115.045 25.4035 114.802 25.1571 114.639 24.8834C114.482 24.6097 114.403 24.2824 114.403 23.9015C114.403 23.2217 114.68 22.6869 115.233 22.2963C115.785 21.8999 116.544 21.7022 117.508 21.7022C118.406 21.7022 119.284 21.8853 120.141 22.2506L119.692 23.2772C118.855 22.9324 118.097 22.761 117.417 22.761C116.818 22.761 116.367 22.8545 116.062 23.0415C115.758 23.2295 115.606 23.4885 115.606 23.8178C115.606 24.0418 115.662 24.2317 115.773 24.3885C115.89 24.5463 116.075 24.6954 116.329 24.8376C116.582 24.9798 117.069 25.1853 117.79 25.4541C118.779 25.8145 119.446 26.1769 119.791 26.5421C120.141 26.9074 120.316 27.3661 120.316 27.9194ZM60.0117 12.298C60.0117 13.3304 59.7302 14.1213 59.1682 14.6697C58.6091 15.2152 57.8026 15.4869 56.7497 15.4869H55.0159V9.22881H56.9347C57.9068 9.22881 58.6627 9.49862 59.2023 10.0373C59.7419 10.5778 60.0107 11.3308 60.0107 12.298H60.0117ZM59.2412 12.3243C59.2412 11.508 59.0357 10.8924 58.6247 10.4785C58.2166 10.0655 57.6088 9.85803 56.8013 9.85803H55.7435V14.8577H56.6299C57.4968 14.8577 58.1494 14.6454 58.5857 14.2197C59.0231 13.7911 59.2412 13.16 59.2412 12.3233V12.3243ZM65.3532 13.1366C65.3532 13.9022 65.1604 14.5002 64.7756 14.9308C64.3899 15.3593 63.8581 15.5726 63.1782 15.5726C62.7594 15.5726 62.3873 15.4743 62.062 15.2775C61.7323 15.076 61.4699 14.7811 61.3081 14.4301C61.1318 14.0619 61.0432 13.6314 61.0432 13.1366C61.0432 12.372 61.2341 11.7769 61.6169 11.3522C61.9987 10.9236 62.5295 10.7093 63.2084 10.7093C63.8649 10.7093 64.386 10.9285 64.7718 11.3649C65.1594 11.8012 65.3532 12.3924 65.3532 13.1376V13.1366ZM61.7786 13.1366C61.7786 13.7366 61.8994 14.1924 62.139 14.5071C62.3786 14.8207 62.7312 14.9775 63.1958 14.9775C63.6614 14.9775 64.014 14.8217 64.2536 14.511C64.4961 14.1973 64.6169 13.7395 64.6169 13.1376C64.6169 12.5405 64.4961 12.0886 64.2536 11.7798C64.014 11.4691 63.6584 11.3132 63.188 11.3132C62.7224 11.3132 62.3718 11.4661 62.1341 11.771C61.8974 12.0769 61.7795 12.5317 61.7795 13.1366H61.7786ZM70.4338 15.4869L69.5737 12.7343C69.5201 12.5668 69.4179 12.184 69.2698 11.5879H69.2357C69.1218 12.0866 69.0214 12.4723 68.9357 12.7431L68.0494 15.4869H67.2283L65.9484 10.796H66.6935L67.3821 13.4882C67.5419 14.1048 67.6334 14.5197 67.6558 14.734H67.6909C67.7787 14.3128 67.8902 13.8969 68.025 13.4882L68.8851 10.796H69.6545L70.4942 13.4882C70.6539 13.9791 70.762 14.3911 70.8195 14.7252H70.8536C70.8653 14.622 70.8955 14.4642 70.9432 14.2499C70.9948 14.0356 71.2938 12.8843 71.8383 10.796H72.5747L71.2773 15.4869H70.4347H70.4338ZM76.6364 15.4869V12.4519C76.6364 12.07 76.5487 11.7847 76.3753 11.5957C76.201 11.4077 75.9292 11.3132 75.5571 11.3132C75.0672 11.3132 74.7078 11.4467 74.4789 11.7116C74.251 11.9775 74.137 12.4148 74.137 13.0265V15.4869H73.426V10.796H74.0045L74.1195 11.4379H74.1536C74.2997 11.2061 74.5042 11.0288 74.7662 10.9022C75.0292 10.7746 75.3214 10.7103 75.6429 10.7103C76.2078 10.7103 76.6334 10.8467 76.9188 11.1213C77.2042 11.3921 77.3474 11.8275 77.3474 12.4265V15.4869H76.6364ZM79.5214 15.4869H78.8104V8.82654H79.5214V15.4869ZM85.0773 13.1366C85.0773 13.9022 84.8844 14.5002 84.4997 14.9308C84.114 15.3593 83.5821 15.5726 82.9023 15.5726C82.4834 15.5726 82.1114 15.4743 81.786 15.2775C81.4563 15.076 81.1939 14.7811 81.0321 14.4301C80.8558 14.0619 80.7672 13.6314 80.7672 13.1366C80.7672 12.372 80.9581 11.7769 81.3409 11.3522C81.7227 10.9236 82.2536 10.7093 82.9325 10.7093C83.589 10.7093 84.1101 10.9285 84.4958 11.3649C84.8834 11.8012 85.0773 12.3924 85.0773 13.1376V13.1366ZM81.5026 13.1366C81.5026 13.7366 81.6234 14.1924 81.863 14.5071C82.1026 14.8207 82.4552 14.9775 82.9198 14.9775C83.3854 14.9775 83.738 14.8217 83.9776 14.511C84.2201 14.1973 84.3409 13.7395 84.3409 13.1376C84.3409 12.5405 84.2201 12.0886 83.9776 11.7798C83.738 11.4691 83.3825 11.3132 82.912 11.3132C82.4464 11.3132 82.0958 11.4661 81.8581 11.771C81.6214 12.0769 81.5036 12.5317 81.5036 13.1366H81.5026ZM89.212 15.4869L89.0708 14.8187H89.0367C88.8029 15.1129 88.5692 15.3126 88.3354 15.4187C88.1036 15.521 87.8143 15.5726 87.4656 15.5726C87.001 15.5726 86.6357 15.4528 86.3698 15.2123C86.1068 14.9736 85.9763 14.6327 85.9763 14.1895C85.9763 13.2428 86.7341 12.746 88.2497 12.7002L89.0455 12.6749V12.3837C89.0455 12.0155 88.9656 11.7447 88.8059 11.5704C88.649 11.3931 88.3968 11.3054 88.0481 11.3054C87.6575 11.3054 87.2143 11.4252 86.7214 11.6648L86.5032 11.1213C86.7341 10.9947 86.9864 10.8973 87.2601 10.8252C87.5377 10.7541 87.8143 10.7181 88.0909 10.7181C88.65 10.7181 89.064 10.8428 89.3318 11.0911C89.6036 11.3395 89.739 11.7369 89.739 12.2853V15.4869H89.213H89.212ZM87.6068 14.9863C88.049 14.9863 88.3958 14.8645 88.6471 14.622C88.9013 14.3795 89.0279 14.0405 89.0279 13.6032V13.1795L88.3169 13.2097C87.7519 13.2291 87.3448 13.3187 87.0935 13.4756C86.8451 13.6295 86.7214 13.87 86.7214 14.1983C86.7214 14.4554 86.7984 14.6512 86.9523 14.7847C87.1091 14.9191 87.3273 14.9863 87.6068 14.9863ZM94.4007 14.8577H94.3617C94.0334 15.335 93.5435 15.5726 92.889 15.5726C92.2753 15.5726 91.7981 15.3632 91.4552 14.9434C91.1153 14.5246 90.9458 13.9275 90.9458 13.1541C90.9458 12.3808 91.1172 11.7808 91.4591 11.3522C91.802 10.9236 92.2782 10.7093 92.889 10.7093C93.525 10.7093 94.013 10.9411 94.3529 11.4038H94.4084L94.3792 11.0648L94.3617 10.7356V8.82654H95.0727V15.4869H94.4942L94.4007 14.8577ZM92.9786 14.9775C93.4646 14.9775 93.8153 14.846 94.0325 14.584C94.2516 14.3181 94.3617 13.8924 94.3617 13.3041V13.1541C94.3617 12.4889 94.2507 12.0155 94.0276 11.733C93.8084 11.4476 93.4558 11.3045 92.9708 11.3045C92.5539 11.3045 92.2344 11.4681 92.0114 11.7934C91.7922 12.1148 91.6821 12.5726 91.6821 13.1629C91.6821 13.7619 91.7922 14.2148 92.0114 14.5197C92.2315 14.8246 92.5539 14.9775 92.9786 14.9775ZM100.974 11.3473H99.7802V15.4869H99.0701V11.3473H98.2315V11.0259L99.0701 10.7697V10.5087C99.0701 9.35641 99.5737 8.77979 100.581 8.77979C100.829 8.77979 101.12 8.82946 101.455 8.92979L101.27 9.49862C101.044 9.41902 100.808 9.37436 100.568 9.36615C100.3 9.36615 100.102 9.45576 99.9731 9.63595C99.8445 9.81225 99.7802 10.0976 99.7802 10.4921V10.796H100.974V11.3473ZM105.881 13.1366C105.881 13.9022 105.688 14.5002 105.302 14.9308C104.917 15.3593 104.384 15.5726 103.706 15.5726C103.287 15.5726 102.914 15.4743 102.588 15.2775C102.259 15.0761 101.997 14.7811 101.835 14.4301C101.658 14.0619 101.569 13.6314 101.569 13.1366C101.569 12.372 101.761 11.7769 102.143 11.3522C102.526 10.9236 103.057 10.7093 103.736 10.7093C104.392 10.7093 104.912 10.9285 105.298 11.3649C105.686 11.8012 105.881 12.3924 105.881 13.1376V13.1366ZM102.306 13.1366C102.306 13.7366 102.426 14.1924 102.665 14.5071C102.905 14.8207 103.257 14.9775 103.723 14.9775C104.188 14.9775 104.54 14.8217 104.78 14.511C105.022 14.1973 105.144 13.7395 105.144 13.1376C105.144 12.5405 105.022 12.0886 104.78 11.7798C104.54 11.4691 104.185 11.3132 103.714 11.3132C103.249 11.3132 102.898 11.4661 102.661 11.771C102.425 12.0769 102.306 12.5317 102.306 13.1366ZM109.27 10.7103C109.479 10.7103 109.666 10.7269 109.831 10.7619L109.733 11.4204C109.564 11.3807 109.392 11.3591 109.219 11.3561C108.84 11.3561 108.514 11.511 108.243 11.8187C107.975 12.1265 107.84 12.5103 107.84 12.97V15.4869H107.13V10.796H107.717L107.797 11.6648H107.832C107.984 11.3837 108.2 11.142 108.462 10.9587C108.699 10.7953 108.982 10.7086 109.27 10.7103Z" fill="white"/>
</svg>
