<svg width="57" height="63" viewBox="0 0 57 63" fill="none" xmlns="http://www.w3.org/2000/svg">
<line x1="28.5493" y1="16.75" x2="28.5493" y2="23.8235" stroke="#0076FF" stroke-linecap="round"/>
<line x1="28.5493" y1="40.4707" x2="28.5493" y2="46.7501" stroke="#0076FF"/>
<path d="M49.4752 23.427H53.0549C54.6861 23.427 56.0002 22.1269 56.0002 20.513C56.0002 18.899 54.6861 17.5989 53.0549 17.5989H52.9416C52.0807 15.6935 49.7924 14.8193 47.8439 15.6935C46.6658 16.2315 45.8275 17.3075 45.6236 18.5852C44.3096 18.2265 42.9276 18.9887 42.5651 20.3112C42.2026 21.6338 42.9729 22.9787 44.3096 23.3374C44.5135 23.3822 44.7174 23.427 44.9213 23.427H49.4752Z" stroke="#0076FF" stroke-width="2" stroke-miterlimit="10" stroke-linecap="round" stroke-linejoin="round"/>
<path d="M7.99961 30.6028H11.5793C13.2105 30.6028 14.5246 29.3027 14.5246 27.6887C14.5246 26.0748 13.2105 24.7747 11.5793 24.7747H11.466C10.6051 22.8693 8.3168 21.9951 6.36836 22.8693C5.19024 23.4073 4.35196 24.4833 4.14806 25.761C2.834 25.4023 1.45197 26.1645 1.08947 27.487C0.726972 28.8095 1.49728 30.1545 2.834 30.5132C3.0379 30.558 3.24181 30.6028 3.44571 30.6028H7.99961Z" stroke="#0076FF" stroke-width="2" stroke-miterlimit="10" stroke-linecap="round" stroke-linejoin="round"/>
<path d="M28.9588 16.25H35.8796C39.0333 16.25 41.5738 13.7942 41.5738 10.7456C41.5738 7.69705 39.0333 5.24125 35.8796 5.24125H35.6605C33.9961 1.64223 29.5721 -0.00908132 25.8051 1.64223C23.5274 2.65842 21.9067 4.69081 21.5125 7.10427C18.972 6.4268 16.3001 7.86641 15.5992 10.3646C14.8984 12.8627 16.3877 15.4032 18.972 16.0806C19.3662 16.1653 19.7604 16.25 20.1547 16.25H28.9588Z" stroke="#0076FF" stroke-width="2" stroke-miterlimit="10" stroke-linecap="round" stroke-linejoin="round"/>
<path d="M20.8359 33.4609L20.8666 37.9216C20.8666 37.9216 22.9214 40.4567 28.524 40.4188C34.1266 40.3808 36.1463 37.8181 36.1463 37.8181L36.1157 33.3574" stroke="#0076FF" stroke-width="2"/>
<path d="M20.8535 29.6895V34.2467C20.8535 34.2467 22.8949 36.8508 28.5087 36.8508C34.1224 36.8508 36.1638 34.2467 36.1638 34.2467V29.6895" stroke="#0076FF" stroke-width="2"/>
<path d="M20.8535 26.1094V30.6666C20.8535 30.6666 22.8949 33.2707 28.5087 33.2707C34.1224 33.2707 36.1638 30.6666 36.1638 30.6666V26.1094" stroke="#0076FF" stroke-width="2"/>
<ellipse cx="28.5087" cy="25.6611" rx="7.65514" ry="4.02825" stroke="#0076FF" stroke-width="2"/>
<path d="M15.4142 58.9529C15.6634 58.0999 16.4454 57.5137 17.334 57.5137H39.6657C40.5543 57.5137 41.3363 58.0999 41.5854 58.9529L41.7272 59.4382C42.1012 60.7184 41.1411 61.999 39.8074 61.999H17.1922C15.8585 61.999 14.8985 60.7184 15.2724 59.4382L15.4142 58.9529Z" stroke="#0076FF" stroke-width="2"/>
<path d="M19.5815 45.9551H37.4181C37.9704 45.9551 38.4181 46.4028 38.4181 46.9551V57.411H18.5815V46.9551C18.5815 46.4028 19.0293 45.9551 19.5815 45.9551Z" stroke="#0076FF" stroke-width="2"/>
<path d="M37.0654 30.1544H49.6884V23.875" stroke="#0076FF"/>
<path d="M7.76221 30.6035V35.0888H20.3852" stroke="#0076FF"/>
</svg>
