<svg width="64" height="64" viewBox="0 0 64 64" fill="none" xmlns="http://www.w3.org/2000/svg">
<path d="M40.6507 8.98055C41.1481 8.74045 41.3567 8.14261 41.1166 7.64525C40.8764 7.14789 40.2786 6.93934 39.7812 7.17945L40.6507 8.98055ZM39.904 27.008L39.9073 26.008C39.8939 26.008 39.8804 26.0082 39.867 26.0087L39.904 27.008ZM47.6 23.784L46.8928 23.0768L46.8849 23.085L47.6 23.784ZM49.0351 23.7631C49.4256 23.3726 49.4256 22.7394 49.0351 22.3489C48.6446 21.9584 48.0114 21.9584 47.6209 22.3489L49.0351 23.7631ZM39.7812 7.17945C38.3072 7.89105 36.9376 8.44561 35.6924 8.94177C34.4633 9.43148 33.3161 9.87891 32.3588 10.3576C31.4015 10.8362 30.5334 11.3931 29.9078 12.1544C29.2562 12.9475 28.92 13.8978 28.92 15.048H30.92C30.92 14.3262 31.1168 13.8335 31.4532 13.4241C31.8156 12.9829 32.3905 12.5778 33.2532 12.1464C34.1159 11.7151 35.1657 11.3045 36.4326 10.7997C37.6834 10.3014 39.1088 9.72495 40.6507 8.98055L39.7812 7.17945ZM28.92 15.048C28.92 16.279 29.3907 17.1482 30.1634 17.7301C30.8427 18.2419 31.7116 18.4845 32.3383 18.6713C33.0554 18.8851 33.5371 19.0449 33.8685 19.3031C34.1131 19.4935 34.328 19.7772 34.328 20.456H36.328C36.328 19.2108 35.8669 18.3245 35.0975 17.7252C34.4149 17.1936 33.5445 16.9439 32.9097 16.7547C32.1844 16.5385 31.7013 16.3846 31.3666 16.1326C31.1253 15.9508 30.92 15.689 30.92 15.048H28.92ZM34.328 20.456C34.328 22.0099 33.487 23.3439 32.3306 24.0866C31.1785 24.8265 29.816 24.9267 28.7 24.1955L27.604 25.8685C29.504 27.1133 31.7295 26.8495 33.4114 25.7694C35.0889 24.6921 36.328 22.7501 36.328 20.456H34.328ZM28.7 24.1955C27.1109 23.1544 25.1034 22.2505 22.9294 22.3562C20.6968 22.4647 18.4885 23.6261 16.528 26.3148L18.144 27.4932C19.8235 25.1899 21.5152 24.4273 23.0266 24.3538C24.5966 24.2775 26.1771 24.9336 27.604 25.8685L28.7 24.1955ZM16.528 26.3148C14.5311 29.0535 14.1676 32.0549 14.6967 34.3918C14.9598 35.554 15.4523 36.5885 16.1153 37.3465C16.7724 38.0978 17.6779 38.6572 18.728 38.6152L18.648 36.6168C18.3981 36.6268 18.0296 36.4972 17.6207 36.0298C17.2177 35.569 16.8522 34.855 16.6473 33.9502C16.2404 32.1531 16.5009 29.7465 18.144 27.4932L16.528 26.3148ZM18.728 38.6152C19.5149 38.5837 20.2554 38.3811 20.8813 38.1853C21.5563 37.9741 22.0365 37.7953 22.505 37.6982C22.9527 37.6054 23.1721 37.6416 23.301 37.7061C23.4153 37.7632 23.6484 37.9386 23.8851 38.5843L25.7629 37.8957C25.4276 36.9814 24.9327 36.2858 24.1955 35.9172C23.4729 35.5559 22.7173 35.6116 22.099 35.7398C21.5015 35.8637 20.8247 36.1074 20.2842 36.2765C19.6946 36.4609 19.1611 36.5963 18.648 36.6168L18.728 38.6152ZM23.8851 38.5843C24.4464 40.115 24.8278 41.0332 25.2613 41.6335C25.7569 42.3197 26.3187 42.5769 26.8411 42.8619L27.7989 41.1061C27.1773 40.7671 27.0631 40.7123 26.8827 40.4625C26.6402 40.1268 26.3456 39.485 25.7629 37.8957L23.8851 38.5843ZM26.8411 42.8619C27.1097 43.0084 27.2664 43.221 27.3375 43.6077C27.4177 44.0446 27.3745 44.6664 27.1786 45.499L29.1254 45.957C29.3455 45.0216 29.4583 44.0834 29.3045 43.2463C29.1416 42.359 28.6743 41.5836 27.7989 41.1061L26.8411 42.8619ZM27.1786 45.499C27.0179 46.1817 27.1338 47.045 27.3249 47.8313C27.5261 48.6593 27.8524 49.5646 28.2484 50.4052C28.6417 51.2402 29.1249 52.0561 29.6585 52.6808C30.1418 53.2467 30.8757 53.904 31.792 53.904V51.904C31.8243 51.904 31.6092 51.8853 31.1793 51.3819C30.7996 50.9374 30.4053 50.2908 30.0576 49.5528C29.7126 48.8204 29.4344 48.0422 29.2683 47.359C29.0922 46.634 29.0781 46.1583 29.1254 45.957L27.1786 45.499ZM31.792 53.904C32.795 53.904 33.9195 53.7 34.8327 52.9479C35.7671 52.1784 36.3123 50.9759 36.4295 49.3352L34.4345 49.1927C34.3437 50.4641 33.9529 51.0816 33.5613 51.4041C33.1485 51.744 32.557 51.904 31.792 51.904V53.904ZM36.4295 49.3352C36.511 48.1939 36.9425 47.7078 37.4115 47.3778C37.6857 47.1849 37.9889 47.0363 38.3555 46.8581C38.6862 46.6973 39.1253 46.4876 39.4887 46.1969L38.2393 44.6351C38.0827 44.7604 37.8588 44.8757 37.481 45.0594C37.1391 45.2257 36.6883 45.4411 36.2605 45.7422C35.3255 46.4002 34.561 47.4221 34.4345 49.1927L36.4295 49.3352ZM39.4887 46.1969C40.1161 45.6949 40.2069 44.9455 40.218 44.4555C40.2291 43.9638 40.1545 43.33 40.1215 42.8626C40.0456 41.7865 40.1137 40.9345 40.734 40.2797L39.282 38.9043C38.0303 40.2255 38.0464 41.8695 38.1265 43.0034C38.1715 43.641 38.2269 44.0407 38.2185 44.4102C38.2101 44.7815 38.1319 44.7211 38.2393 44.6351L39.4887 46.1969ZM40.734 40.2797C41.6006 39.3649 43.1978 37.8471 44.0953 36.4728C44.5297 35.8075 44.9642 34.9429 44.8623 34.0654C44.8063 33.583 44.5924 33.1391 44.2159 32.7828C43.857 32.4433 43.3925 32.2218 42.8787 32.0773L42.3373 34.0026C42.6555 34.0922 42.7922 34.1892 42.8413 34.2356C42.8726 34.2653 42.8732 34.2748 42.8757 34.2961C42.8908 34.4261 42.8183 34.7705 42.4207 35.3792C41.6542 36.5529 40.2873 37.8431 39.282 38.9043L40.734 40.2797ZM42.8787 32.0773C41.2173 31.6101 40.6847 31.2766 40.4626 31.041C40.3685 30.9412 40.3006 30.8271 40.2229 30.6226C40.1811 30.5127 40.1413 30.3902 40.0897 30.2288C40.0402 30.0739 39.9814 29.8884 39.9097 29.6877L38.0263 30.3603C38.0846 30.5236 38.133 30.6761 38.1847 30.8377C38.2342 30.9927 38.2895 31.1652 38.3534 31.3332C38.4869 31.6844 38.6725 32.0578 39.0074 32.413C39.6433 33.0874 40.6707 33.5339 42.3373 34.0026L42.8787 32.0773ZM39.9097 29.6877C39.7609 29.271 39.5448 28.8348 39.4102 28.539C39.2483 28.1831 39.192 28.0055 39.1837 27.9164C39.1814 27.8921 39.19 27.9369 39.1586 28.0116C39.1233 28.0957 39.0702 28.1401 39.0559 28.1496C39.0534 28.1513 39.1041 28.1179 39.2585 28.0827C39.4103 28.0481 39.6306 28.0188 39.941 28.0073L39.867 26.0087C39.1224 26.0363 38.4445 26.1525 37.9441 26.4871C37.6698 26.6705 37.4477 26.9205 37.3149 27.2366C37.186 27.5432 37.1686 27.8464 37.1923 28.1016C37.236 28.5715 37.4397 29.0374 37.5898 29.3673C37.7672 29.7572 37.9151 30.049 38.0263 30.3603L39.9097 29.6877ZM39.9007 28.008C41.4677 28.0132 43.0199 27.704 44.4652 27.0985L43.6924 25.2538C42.4939 25.7559 41.2068 26.0124 39.9073 26.008L39.9007 28.008ZM44.4652 27.0985C45.9105 26.493 47.2197 25.6036 48.3151 24.483L46.8849 23.085C45.9766 24.0142 44.891 24.7517 43.6924 25.2538L44.4652 27.0985ZM48.3071 24.4911L49.0351 23.7631L47.6209 22.3489L46.8929 23.0769L48.3071 24.4911ZM57 32C57 45.8071 45.8071 57 32 57V59C46.9117 59 59 46.9117 59 32H57ZM32 57C18.1929 57 7 45.8071 7 32H5C5 46.9117 17.0883 59 32 59V57ZM7 32C7 18.1929 18.1929 7 32 7V5C17.0883 5 5 17.0883 5 32H7ZM32 7C45.8071 7 57 18.1929 57 32H59C59 17.0883 46.9117 5 32 5V7Z" fill="white"/>
</svg>
