<svg width="56" height="31" viewBox="0 0 56 31" fill="none" xmlns="http://www.w3.org/2000/svg">
<path d="M26.2 1H27.2C27.2 0.535706 26.8804 0.132483 26.4284 0.0264346C25.9764 -0.079614 25.5108 0.13941 25.3043 0.555259L26.2 1ZM17.2 19.125L16.3043 18.6803C16.1504 18.9902 16.1677 19.3578 16.3501 19.6519C16.5324 19.9461 16.8539 20.125 17.2 20.125V19.125ZM26.2 19.125H27.2C27.2 18.5727 26.7523 18.125 26.2 18.125V19.125ZM26.2 30H25.2C25.2 30.4643 25.5196 30.8675 25.9716 30.9736C26.4236 31.0796 26.8892 30.8606 27.0957 30.4447L26.2 30ZM35.2 11.875L36.0957 12.3197C36.2496 12.0098 36.2323 11.6422 36.0499 11.3481C35.8676 11.0539 35.5461 10.875 35.2 10.875V11.875ZM26.2 11.875H25.2C25.2 12.4273 25.6477 12.875 26.2 12.875V11.875ZM35.2 27.1875C34.6477 27.1875 34.2 27.6352 34.2 28.1875C34.2 28.7398 34.6477 29.1875 35.2 29.1875V27.1875ZM49.6 28.1875V29.1875C50.1523 29.1875 50.6 28.7398 50.6 28.1875H49.6ZM49.6 20.9375V19.9375C49.0477 19.9375 48.6 20.3852 48.6 20.9375H49.6ZM55 20.9375V21.9375C55.5523 21.9375 56 21.4898 56 20.9375H55ZM55 10.0625H56C56 9.51021 55.5523 9.0625 55 9.0625V10.0625ZM49.6 10.0625H48.6C48.6 10.6148 49.0477 11.0625 49.6 11.0625V10.0625ZM49.6 2.8125H50.6C50.6 2.26022 50.1523 1.8125 49.6 1.8125V2.8125ZM33.4 1.8125C32.8477 1.8125 32.4 2.26022 32.4 2.8125C32.4 3.36478 32.8477 3.8125 33.4 3.8125V1.8125ZM17.2 3.8125C17.7523 3.8125 18.2 3.36478 18.2 2.8125C18.2 2.26022 17.7523 1.8125 17.2 1.8125V3.8125ZM1 2.8125V1.8125C0.447715 1.8125 0 2.26022 0 2.8125H1ZM1 28.1875H0C0 28.7398 0.447715 29.1875 1 29.1875L1 28.1875ZM19 29.1875C19.5523 29.1875 20 28.7398 20 28.1875C20 27.6352 19.5523 27.1875 19 27.1875V29.1875ZM25.3043 0.555259L16.3043 18.6803L18.0957 19.5697L27.0957 1.44474L25.3043 0.555259ZM17.2 20.125H26.2V18.125H17.2V20.125ZM25.2 19.125V30H27.2V19.125H25.2ZM27.0957 30.4447L36.0957 12.3197L34.3043 11.4303L25.3043 29.5553L27.0957 30.4447ZM35.2 10.875H26.2V12.875H35.2V10.875ZM27.2 11.875V1H25.2V11.875H27.2ZM35.2 29.1875H49.6V27.1875H35.2V29.1875ZM50.6 28.1875V20.9375H48.6V28.1875H50.6ZM49.6 21.9375H55V19.9375H49.6V21.9375ZM56 20.9375V10.0625H54V20.9375H56ZM55 9.0625H49.6V11.0625H55V9.0625ZM50.6 10.0625V2.8125H48.6V10.0625H50.6ZM49.6 1.8125H33.4V3.8125H49.6V1.8125ZM17.2 1.8125H1V3.8125H17.2V1.8125ZM0 2.8125V28.1875H2V2.8125H0ZM1 29.1875H19V27.1875H1V29.1875Z" fill="#0076FF"/>
</svg>
