<?xml version="1.0" encoding="utf-8"?>
<!-- Generator: Adobe Illustrator 19.0.1, SVG Export Plug-In . SVG Version: 6.00 Build 0)  -->
<svg version="1.1" xmlns="http://www.w3.org/2000/svg" xmlns:xlink="http://www.w3.org/1999/xlink" x="0px" y="0px" style="enable-background:new 0 0 150 150;" xml:space="preserve">
<symbol id="main" viewBox="0 0 150 150">
<g>
	<path d="M136.5,29.7c-1.2,0-2.4,0.2-3.6,0.5C119.8,10.5,98.2-1.2,74.5-1.2c-33.3,0-61.2,23.3-68.3,54.5l6.1,0.7
		C19,25.9,44.3,4.9,74.5,4.9c21.5,0,41.1,10.5,53.1,28.2c-2.8,2.5-4.6,6.1-4.6,10.1c0,7.5,6.1,13.5,13.5,13.5
		c7.5,0,13.5-6.1,13.5-13.5S143.9,29.7,136.5,29.7z M136.5,50.7c-4.1,0-7.5-3.4-7.5-7.5s3.4-7.5,7.5-7.5s7.5,3.4,7.5,7.5
		S140.6,50.7,136.5,50.7z"/>
	<path d="M135.9,99c-7.8,26.6-32.4,46.1-61.5,46.1c-20.6,0-39.7-9.8-51.8-26.4c2.7-2.5,4.4-6,4.4-9.9c0-7.5-6.1-13.5-13.5-13.5
		S0,101.3,0,108.8c0,7.5,6.1,13.5,13.5,13.5c1.3,0,2.6-0.3,3.8-0.6c13.2,18.5,34.3,29.5,57.1,29.5c32,0,59.1-21.6,67.5-51L135.9,99z
		 M6.1,108.8c0-4.1,3.4-7.5,7.5-7.5s7.5,3.4,7.5,7.5c0,4.1-3.4,7.5-7.5,7.5S6.1,112.9,6.1,108.8z"/>
	<path d="M91.1,82.2c-1.1-2-2.9-3.8-5.3-5.4c-2.3-1.5-5.7-3-10.2-4.6c-4.1-1.5-7-2.7-8.6-3.7c-1.5-0.9-2.6-2-3.3-3.1
		c-0.6-1.1-1-2.6-1-4.5c0-2.9,1-5.1,3.2-6.8c2.2-1.7,5.3-2.6,9.1-2.6c4.1,0,8.4,1,12.9,2.8l1.3,0.5l2.5-5.9l-0.9-0.5
		c-4.1-1.8-9.9-2.8-12.9-3V36h-6v9.6c-3,0.5-7.7,1.8-10.5,4.1c-3.6,2.9-5.5,6.8-5.5,11.4c0,4.2,1.2,7.6,3.7,10.2
		C62,73.7,66.1,76,72.1,78c3.8,1.3,6.8,2.5,8.7,3.6c1.8,1,3.2,2.2,3.9,3.4c0.8,1.2,1.1,2.7,1.1,4.6c0,3-1.2,5.4-3.6,7.3
		c-2.5,1.9-5.9,2.9-10.2,2.9C66,99.8,61.9,99,58,97.4l-1-0.8v6.9l0,0.3c3.7,1.5,9,2.3,15,2.4v7.8h6v-8.2c3-0.6,6.8-1.9,9.5-4
		c3.8-3,5.5-7.1,5.5-12.3C93,86.7,92.3,84.3,91.1,82.2z"/>
</g>
	</symbol>	
<use href="#main" />
</svg>

