<?xml version="1.0" encoding="utf-8"?>
<!-- Generator: Adobe Illustrator 19.0.1, SVG Export Plug-In . SVG Version: 6.00 Build 0)  -->
<svg version="1.1"  xmlns="http://www.w3.org/2000/svg" xmlns:xlink="http://www.w3.org/1999/xlink" x="0px" y="0px"
	 viewBox="0 0 150 150" style="enable-background:new 0 0 150 150;" xml:space="preserve">
<symbol id="main"  viewBox="0 0 150 150">
<g>
	<path d="M75,45c-16.6,0-30,13.5-30,30s13.5,30,30,30s30-13.5,30-30S91.6,45,75,45z M75,99.6c-13.5,0-24.6-11-24.6-24.6
		s11-24.6,24.6-24.6s24.6,11,24.6,24.6S88.5,99.6,75,99.6z"/>
	<path d="M149.7,74.9c-0.1-0.1-8.5-13.2-21.8-26.1C115.5,36.8,96.3,22.6,75,22.6S34.5,36.8,22.2,48.8C8.8,61.7,0.4,74.7,0.3,74.9
		L0.2,75l0.1,0.1c0.1,0.1,8.5,13.2,21.8,26.1c12.3,11.9,31.5,26.1,52.8,26.1s40.5-14.2,52.8-26.1c13.3-12.9,21.8-26,21.8-26.1
		l0.1-0.1L149.7,74.9z M118.6,102.3c-15,13-29.7,19.6-43.6,19.6c-13.9,0-28.6-6.6-43.6-19.6C19.3,91.8,10.3,79.8,6.9,75
		c3.4-4.8,12.4-16.8,24.5-27.3c15-13,29.7-19.6,43.6-19.6c13.9,0,28.6,6.6,43.6,19.6c12.1,10.5,21.1,22.5,24.6,27.3
		C139.7,79.8,130.7,91.8,118.6,102.3z"/>
</g>
	</symbol>	
<use href="#main" />
</svg>
