<?xml version="1.0" encoding="utf-8"?>
<!-- Generator: Adobe Illustrator 19.0.1, SVG Export Plug-In . SVG Version: 6.00 Build 0)  -->
<svg version="1.1" xmlns="http://www.w3.org/2000/svg" xmlns:xlink="http://www.w3.org/1999/xlink" x="0px" y="0px"
	 style="enable-background:new 0 0 150 150;" xml:space="preserve">
<symbol id="main" viewBox="0 0 150 150">
<path d="M127.4,4.3c-16.9-7.1-33.8-3.6-50.7-0.2c-16.8,3.4-34.1,6.5-49.3,0.2L22,2.6v3.1V76v74h6V78.2c9,1.9,13.4,2.6,19.4,2.6
	c9.9,0,20.6-2,30.3-3.9c16.8-3.4,31.9-6.5,47.1-0.2l3.2,1.7V5L127.4,4.3z M122,69.9c-15-5-32-1.8-47.6,1.3
	C58.3,74.4,46,77.5,28,72.1v-61c18,5,32,1.8,47.6-1.3C91.7,6.6,107,3.5,122,8.9V69.9z"/>
	</symbol>	
<use href="#main" />
</svg>
