<svg width="90" height="90" viewBox="0 0 90 90" fill="none" xmlns="http://www.w3.org/2000/svg">
<rect width="90" height="90" fill="white"/>
<path d="M14.7754 57H11.7969V42.7227H19.9805V45.2031H14.7754V48.8848H19.6191V51.3555H14.7754V57ZM34.3164 57H30.8594L27.5391 51.5996L24.2188 57H20.9766L25.7129 49.6367L21.2793 42.7227H24.6191L27.6953 47.8594L30.7129 42.7227H33.9746L29.4922 49.8027L34.3164 57ZM13.3428 75H11.2578V65.0059H16.9863V66.7422H13.3428V69.3193H16.7334V71.0488H13.3428V75ZM20.4385 71.165C20.4385 71.9215 20.5615 72.4935 20.8076 72.8809C21.0583 73.2682 21.4639 73.4619 22.0244 73.4619C22.5804 73.4619 22.9792 73.2705 23.2207 72.8877C23.4668 72.5003 23.5898 71.9261 23.5898 71.165C23.5898 70.4085 23.4668 69.8411 23.2207 69.4629C22.9746 69.0846 22.5713 68.8955 22.0107 68.8955C21.4548 68.8955 21.0537 69.0846 20.8076 69.4629C20.5615 69.8366 20.4385 70.404 20.4385 71.165ZM25.7227 71.165C25.7227 72.4092 25.3945 73.3822 24.7383 74.084C24.082 74.7858 23.1683 75.1367 21.9971 75.1367C21.2633 75.1367 20.6162 74.9772 20.0557 74.6582C19.4951 74.3346 19.0645 73.8721 18.7637 73.2705C18.4629 72.6689 18.3125 71.9671 18.3125 71.165C18.3125 69.9163 18.6383 68.9456 19.29 68.2529C19.9417 67.5602 20.8577 67.2139 22.0381 67.2139C22.7718 67.2139 23.4189 67.3734 23.9795 67.6924C24.54 68.0114 24.9707 68.4694 25.2715 69.0664C25.5723 69.6634 25.7227 70.363 25.7227 71.165ZM31.7109 67.2139C31.9935 67.2139 32.2282 67.2344 32.415 67.2754L32.2578 69.2305C32.0892 69.1849 31.8841 69.1621 31.6426 69.1621C30.9772 69.1621 30.4577 69.333 30.084 69.6748C29.7148 70.0166 29.5303 70.4951 29.5303 71.1104V75H27.4453V67.3574H29.0244L29.332 68.6426H29.4346C29.6715 68.2142 29.9906 67.8701 30.3916 67.6104C30.7972 67.346 31.237 67.2139 31.7109 67.2139ZM40.085 75L39.4971 72.3271L38.7041 68.9502H38.6562L37.2617 75H35.0195L32.8457 67.3574H34.9238L35.8057 70.7412C35.9469 71.3473 36.0905 72.1836 36.2363 73.25H36.2773C36.2956 72.9036 36.3753 72.3545 36.5166 71.6025L36.626 71.0215L37.5693 67.3574H39.8662L40.7617 71.0215C40.7799 71.1217 40.8073 71.2699 40.8438 71.4658C40.8848 71.6618 40.9235 71.8714 40.96 72.0947C40.9964 72.3135 41.0283 72.5299 41.0557 72.7441C41.0876 72.9538 41.1058 73.1224 41.1104 73.25H41.1514C41.1924 72.9219 41.2653 72.473 41.3701 71.9033C41.4749 71.3291 41.5501 70.9417 41.5957 70.7412L42.5117 67.3574H44.5557L42.3545 75H40.085ZM50.6465 75L50.2432 73.9609H50.1885C49.8376 74.403 49.4753 74.7106 49.1016 74.8838C48.7324 75.0524 48.2493 75.1367 47.6523 75.1367C46.9186 75.1367 46.3398 74.9271 45.916 74.5078C45.4967 74.0885 45.2871 73.4915 45.2871 72.7168C45.2871 71.9056 45.5697 71.3086 46.1348 70.9258C46.7044 70.5384 47.5612 70.3242 48.7051 70.2832L50.0312 70.2422V69.9072C50.0312 69.1325 49.6348 68.7451 48.8418 68.7451C48.2311 68.7451 47.5133 68.9297 46.6885 69.2988L45.998 67.8906C46.8776 67.4303 47.8529 67.2002 48.9238 67.2002C49.9492 67.2002 50.7354 67.4235 51.2822 67.8701C51.8291 68.3167 52.1025 68.9958 52.1025 69.9072V75H50.6465ZM50.0312 71.459L49.2246 71.4863C48.6185 71.5046 48.1673 71.6139 47.8711 71.8145C47.5749 72.015 47.4268 72.3203 47.4268 72.7305C47.4268 73.3184 47.764 73.6123 48.4385 73.6123C48.9215 73.6123 49.3066 73.4733 49.5938 73.1953C49.8854 72.9173 50.0312 72.5482 50.0312 72.0879V71.459ZM58.5215 67.2139C58.804 67.2139 59.0387 67.2344 59.2256 67.2754L59.0684 69.2305C58.8997 69.1849 58.6947 69.1621 58.4531 69.1621C57.7878 69.1621 57.2682 69.333 56.8945 69.6748C56.5254 70.0166 56.3408 70.4951 56.3408 71.1104V75H54.2559V67.3574H55.835L56.1426 68.6426H56.2451C56.4821 68.2142 56.8011 67.8701 57.2021 67.6104C57.6077 67.346 58.0475 67.2139 58.5215 67.2139ZM63.0332 75.1367C62.1354 75.1367 61.429 74.7881 60.9141 74.0908C60.4036 73.3936 60.1484 72.4274 60.1484 71.1924C60.1484 69.9391 60.4082 68.9639 60.9277 68.2666C61.4518 67.5648 62.1719 67.2139 63.0879 67.2139C64.0495 67.2139 64.7832 67.5876 65.2891 68.335H65.3574C65.2526 67.7653 65.2002 67.2572 65.2002 66.8105V64.3633H67.292V75H65.6924L65.2891 74.0088H65.2002C64.7262 74.7607 64.0039 75.1367 63.0332 75.1367ZM63.7646 73.4756C64.2979 73.4756 64.6875 73.3206 64.9336 73.0107C65.1842 72.7008 65.321 72.1745 65.3438 71.4316V71.2061C65.3438 70.3857 65.2161 69.7979 64.9609 69.4424C64.7103 69.0869 64.3001 68.9092 63.7305 68.9092C63.2656 68.9092 62.9033 69.1074 62.6436 69.5039C62.3883 69.8958 62.2607 70.4678 62.2607 71.2197C62.2607 71.9717 62.3906 72.5368 62.6504 72.915C62.9102 73.2887 63.2816 73.4756 63.7646 73.4756ZM74.8047 72.7305C74.8047 73.5143 74.5312 74.1113 73.9844 74.5215C73.4421 74.9316 72.6286 75.1367 71.5439 75.1367C70.988 75.1367 70.514 75.098 70.1221 75.0205C69.7301 74.9476 69.3633 74.8382 69.0215 74.6924V72.9697C69.4089 73.152 69.8441 73.3047 70.3271 73.4277C70.8148 73.5508 71.2432 73.6123 71.6123 73.6123C72.3688 73.6123 72.7471 73.3936 72.7471 72.9561C72.7471 72.792 72.6969 72.6598 72.5967 72.5596C72.4964 72.4548 72.3232 72.3385 72.0771 72.2109C71.8311 72.0788 71.5029 71.9261 71.0928 71.7529C70.5049 71.5068 70.0719 71.279 69.7939 71.0693C69.5205 70.8597 69.32 70.6204 69.1924 70.3516C69.0693 70.0781 69.0078 69.7432 69.0078 69.3467C69.0078 68.6676 69.2699 68.1436 69.7939 67.7744C70.3226 67.4007 71.07 67.2139 72.0361 67.2139C72.9567 67.2139 73.8522 67.4144 74.7227 67.8154L74.0938 69.3193C73.7109 69.1553 73.3532 69.0208 73.0205 68.916C72.6878 68.8112 72.3483 68.7588 72.002 68.7588C71.3867 68.7588 71.0791 68.9251 71.0791 69.2578C71.0791 69.4447 71.1771 69.6064 71.373 69.7432C71.5736 69.8799 72.0088 70.0827 72.6787 70.3516C73.2757 70.5931 73.7132 70.8187 73.9912 71.0283C74.2692 71.238 74.4743 71.4795 74.6064 71.7529C74.7386 72.0264 74.8047 72.3522 74.8047 72.7305Z" fill="#00032C"/>
</svg>
