<svg width="16" height="16" viewBox="0 0 16 16" fill="none" xmlns="http://www.w3.org/2000/svg">
<rect width="16" height="16" rx="2" fill="#00780F"/>
<path d="M3.54224 10.146H2.64868V5.86279H5.10376V6.60693H3.54224V7.71143H4.99536V8.45264H3.54224V10.146Z" fill="white"/>
<path d="M9.40454 10.146H8.36743L7.37134 8.52588L6.37524 10.146H5.40259L6.82349 7.93701L5.49341 5.86279H6.49536L7.41821 7.40381L8.32349 5.86279H9.302L7.95728 7.98682L9.40454 10.146Z" fill="white"/>
<path d="M13.3513 7.99854C13.3513 8.70752 13.1755 9.25244 12.824 9.6333C12.4724 10.0142 11.9685 10.2046 11.3122 10.2046C10.656 10.2046 10.1521 10.0142 9.80052 9.6333C9.44896 9.25244 9.27317 8.70557 9.27317 7.99268C9.27317 7.27979 9.44896 6.73584 9.80052 6.36084C10.154 5.98389 10.6599 5.79541 11.3181 5.79541C11.9763 5.79541 12.4792 5.98486 12.8269 6.36377C13.1765 6.74268 13.3513 7.2876 13.3513 7.99854ZM10.2253 7.99854C10.2253 8.47705 10.3161 8.8374 10.4978 9.07959C10.6794 9.32178 10.9509 9.44287 11.3122 9.44287C12.0368 9.44287 12.3992 8.96143 12.3992 7.99854C12.3992 7.03369 12.0388 6.55127 11.3181 6.55127C10.9568 6.55127 10.6843 6.67334 10.5007 6.91748C10.3171 7.15967 10.2253 7.52002 10.2253 7.99854Z" fill="white"/>
</svg>
