<svg width="90" height="90" viewBox="0 0 90 90" fill="none" xmlns="http://www.w3.org/2000/svg">
<rect width="90" height="90" fill="white"/>
<path d="M15.7754 54H12.7969V39.7227H20.9805V42.2031H15.7754V45.8848H20.6191V48.3555H15.7754V54ZM35.3164 54H31.8594L28.5391 48.5996L25.2188 54H21.9766L26.7129 46.6367L22.2793 39.7227H25.6191L28.6953 44.8594L31.7129 39.7227H34.9746L30.4922 46.8027L35.3164 54ZM19.6909 69.6299C19.6909 70.7256 19.2952 71.5889 18.5039 72.2197C17.7181 72.8506 16.6224 73.166 15.2168 73.166C13.9219 73.166 12.7764 72.9225 11.7803 72.4355V70.0449C12.5993 70.4102 13.291 70.6675 13.8555 70.8169C14.4255 70.9663 14.9456 71.041 15.416 71.041C15.9805 71.041 16.4121 70.9331 16.7109 70.7173C17.0153 70.5015 17.1675 70.1805 17.1675 69.7544C17.1675 69.5164 17.1011 69.3062 16.9683 69.1235C16.8354 68.9354 16.639 68.7555 16.3789 68.584C16.1243 68.4124 15.6014 68.1385 14.8101 67.7622C14.0685 67.4136 13.5124 67.0788 13.1416 66.7578C12.7708 66.4368 12.4748 66.0633 12.2534 65.6372C12.0321 65.2111 11.9214 64.7131 11.9214 64.1431C11.9214 63.0695 12.2839 62.2256 13.0088 61.6113C13.7393 60.9971 14.7464 60.6899 16.0303 60.6899C16.6611 60.6899 17.2616 60.7646 17.8315 60.9141C18.4071 61.0635 19.0075 61.2738 19.6328 61.5449L18.8027 63.5454C18.1553 63.2798 17.6185 63.0944 17.1924 62.9893C16.7718 62.8841 16.3568 62.8315 15.9473 62.8315C15.4603 62.8315 15.0868 62.945 14.8267 63.1719C14.5666 63.3988 14.4365 63.6948 14.4365 64.0601C14.4365 64.2869 14.4891 64.4862 14.5942 64.6577C14.6994 64.8237 14.8654 64.987 15.0923 65.1475C15.3247 65.3024 15.8698 65.5846 16.7275 65.9941C17.862 66.5365 18.6395 67.0815 19.0601 67.6294C19.4806 68.1717 19.6909 68.8385 19.6909 69.6299ZM26.7881 73.166C25.6979 73.166 24.8429 72.7703 24.2231 71.979H24.0903C24.1789 72.7537 24.2231 73.202 24.2231 73.3237V77.084H21.6914V63.7197H23.75L24.1069 64.9233H24.2231C24.8153 64.0047 25.6924 63.5454 26.8545 63.5454C27.9502 63.5454 28.8079 63.9688 29.4277 64.8154C30.0475 65.6621 30.3574 66.8381 30.3574 68.3433C30.3574 69.3338 30.2108 70.1943 29.9175 70.9248C29.6297 71.6553 29.2174 72.2114 28.6807 72.5933C28.1439 72.9751 27.513 73.166 26.7881 73.166ZM26.041 65.5708C25.4157 65.5708 24.9591 65.7645 24.6714 66.1519C24.3836 66.5337 24.2342 67.1673 24.2231 68.0527V68.3267C24.2231 69.3228 24.3698 70.0366 24.6631 70.4683C24.9619 70.8999 25.4323 71.1157 26.0742 71.1157C27.2087 71.1157 27.7759 70.1805 27.7759 68.3101C27.7759 67.397 27.6348 66.7135 27.3525 66.2598C27.0758 65.8005 26.6387 65.5708 26.041 65.5708ZM34.4663 68.3433C34.4663 69.2619 34.6157 69.9564 34.9146 70.4268C35.2189 70.8971 35.7114 71.1323 36.3921 71.1323C37.0672 71.1323 37.5514 70.8999 37.8447 70.4351C38.1436 69.9647 38.293 69.2674 38.293 68.3433C38.293 67.4246 38.1436 66.7357 37.8447 66.2764C37.5459 65.8171 37.0562 65.5874 36.3755 65.5874C35.7004 65.5874 35.2134 65.8171 34.9146 66.2764C34.6157 66.7301 34.4663 67.4191 34.4663 68.3433ZM40.8828 68.3433C40.8828 69.854 40.4844 71.0355 39.6875 71.8877C38.8906 72.7399 37.7811 73.166 36.3589 73.166C35.4679 73.166 34.6821 72.9723 34.0015 72.585C33.3208 72.1921 32.7979 71.6304 32.4326 70.8999C32.0674 70.1694 31.8848 69.3172 31.8848 68.3433C31.8848 66.827 32.2804 65.6483 33.0718 64.8071C33.8631 63.966 34.9754 63.5454 36.4087 63.5454C37.2996 63.5454 38.0854 63.7391 38.7661 64.1265C39.4468 64.5138 39.9697 65.07 40.335 65.7949C40.7002 66.5199 40.8828 67.3693 40.8828 68.3433ZM46.8843 71.1489C47.327 71.1489 47.8582 71.0521 48.478 70.8584V72.7427C47.8472 73.0249 47.0724 73.166 46.1538 73.166C45.1411 73.166 44.4023 72.9115 43.9375 72.4023C43.4782 71.8877 43.2485 71.1185 43.2485 70.0947V65.6206H42.0366V64.5498L43.4312 63.7031L44.1616 61.7441H45.7803V63.7197H48.3784V65.6206H45.7803V70.0947C45.7803 70.4544 45.8799 70.7201 46.0791 70.8916C46.2839 71.0632 46.5522 71.1489 46.8843 71.1489Z" fill="#00032C"/>
</svg>
