<?xml version="1.0" encoding="utf-8"?>
<!-- Generator: Adobe Illustrator 19.0.1, SVG Export Plug-In . SVG Version: 6.00 Build 0)  -->
<svg version="1.1" xmlns="http://www.w3.org/2000/svg" xmlns:xlink="http://www.w3.org/1999/xlink" x="0px" y="0px" style="enable-background:new 0 0 150 150;" xml:space="preserve">
<symbol id="main" viewBox="0 0 150 150">
<path d="M138.9,38.1c-6.1,0-11.1,5-11.1,11.1c0,1.8,0.4,3.4,1.2,4.9L91.6,88.9c-1.9-1.5-4.2-2.4-6.8-2.4c-1.4,0-2.8,0.3-4,0.8
	L68.2,71.5c1-1.7,1.6-3.6,1.6-5.6c0-6.1-5-11.1-11.1-11.1s-11.1,5-11.1,11.1c0,0.8,0.1,1.5,0.3,2.3L17.6,91.9
	c-1.8-1.4-4.1-2.2-6.5-2.2C5,89.7,0,94.7,0,100.8s5,11.1,11.1,11.1s11.1-5,11.1-11.1c0-1.4-0.3-2.7-0.8-4L51,73.7
	c0.3,0.3,0.5,0.6,0.8,0.8l0,0c2,1.6,4.4,2.5,7,2.5c1.7,0,3.4-0.4,4.9-1.2l12.1,15.3c-1.4,1.9-2.1,4.1-2.1,6.5
	c0,6.1,5,11.1,11.1,11.1s11.1-5,11.1-11.1c0-1.3-0.3-2.4-0.6-3.6l38-35.3c1.7,1,3.6,1.6,5.7,1.6c6.1,0,11.1-5,11.1-11.1
	S145,38.1,138.9,38.1z M11.1,105.7c-2.7,0-4.9-2.2-4.9-4.9c0-2.7,2.2-4.9,4.9-4.9c2.7,0,4.9,2.2,4.9,4.9
	C16,103.5,13.8,105.7,11.1,105.7z M55.7,69.7l-2,2.4L55.7,69.7c-1.2-0.9-1.8-2.3-1.8-3.8c0-2.7,2.2-4.9,4.9-4.9
	c2.7,0,4.9,2.2,4.9,4.9c0,1.3-0.5,2.5-1.4,3.4C60.4,71,57.6,71.2,55.7,69.7z M84.8,102.4c-2.7,0-4.9-2.2-4.9-4.9
	c0-1.5,0.7-2.9,1.9-3.9c0.9-0.7,1.9-1,3-1c2.7,0,4.9,2.2,4.9,4.9C89.6,100.2,87.4,102.4,84.8,102.4z M138.9,54
	c-2.7,0-4.9-2.2-4.9-4.9c0-2.7,2.2-4.9,4.9-4.9c2.7,0,4.9,2.2,4.9,4.9C143.8,51.9,141.6,54,138.9,54z"/>
	</symbol>	
<use href="#main" />
</svg>

