<svg version="1.1"  xmlns="http://www.w3.org/2000/svg" xmlns:xlink="http://www.w3.org/1999/xlink" x="0px" y="0px"
	  style="enable-background:new 0 0 150 150;" xml:space="preserve">
<symbol id="main"  viewBox="0 0 150 150"> 
<path d="M75,0C33.6,0,0,33.6,0,75s33.6,75,75,75s75-33.6,75-75S116.4,0,75,0z M90.3,142.6c6.8-7,12.4-18.6,15.9-32.8
	c8.2,2.5,15.4,6,21.4,10.2C117.9,131.3,104.7,139.3,90.3,142.6z M106.2,40.3C102.7,26,97.1,14.4,90.3,7.4
	c14.4,3.3,27.6,11.3,37.3,22.6C121.6,34.3,114.4,37.7,106.2,40.3z M104.4,72H78V50.4c8-0.2,16.3-1.3,24-3.2
	C103.5,55.1,104.3,63,104.4,72z M78,44.7V6.1c9,2.5,18,16.4,22.8,35.6C93.5,43.5,86,44.5,78,44.7z M78,99.6V78h26.4
	c-0.2,9-0.9,16.9-2.5,24.7C94.3,100.9,86,99.8,78,99.6z M78,143.9v-38.6c8,0.2,15.5,1.2,22.8,2.9C96,127.5,87,141.4,78,143.9z
	 M144.2,78c-0.6,13-5.1,26.6-13.1,37.6c-6.7-4.8-14.6-8.6-23.7-11.3C109.1,96,110,87,110.2,78H144.2z M144.2,72h-34
	c-0.2-9-1.1-17.9-2.7-26.2c9-2.8,17-6.6,23.7-11.4C139.1,45.4,143.6,59,144.2,72z M42.6,104.3c-9.1,2.8-17,6.6-23.7,11.4
	C10.9,104.6,6.4,91,5.8,78h34C40,87,40.9,95.9,42.6,104.3z M43.8,109.7c3.5,14.3,9.1,25.9,15.9,32.8c-14.4-3.3-27.6-11.3-37.3-22.6
	C28.4,115.7,35.6,112.3,43.8,109.7z M22.4,30c9.7-11.4,22.9-19.3,37.4-22.6c-6.8,7-12.4,18.6-15.9,32.8C35.6,37.7,28.4,34.3,22.4,30
	z M5.8,72c0.6-13,5.1-26.6,13.1-37.6c6.7,4.8,14.6,8.6,23.7,11.3C40.9,54,40,63,39.8,72H5.8z M45.6,78H72v21.6
	c-8,0.2-16.3,1.3-24,3.2C46.5,94.9,45.7,87,45.6,78z M72,105.3v38.6c-9-2.5-18-16.4-22.8-35.6C56.5,106.5,64,105.5,72,105.3z
	 M72,50.4V72H45.6c0.2-9,0.9-16.9,2.5-24.7C55.7,49.1,64,50.2,72,50.4z M72,6.1v38.6c-8-0.2-15.5-1.2-22.8-3C54,22.5,63,8.6,72,6.1z
	"/>
</symbol>	
<use href="#main" />
</svg> 
