<?xml version="1.0" encoding="utf-8"?>
<!-- Generator: Adobe Illustrator 19.0.1, SVG Export Plug-In . SVG Version: 6.00 Build 0)  -->
<svg version="1.1" xmlns="http://www.w3.org/2000/svg" xmlns:xlink="http://www.w3.org/1999/xlink" x="0px" y="0px"
	style="enable-background:new 0 0 150 150;" xml:space="preserve">
<symbol id="main" viewBox="0 0 150 150">
<g>
	<g>
		<g>
			<path d="M143.5,85.4l-11.1-27.5c-0.3-2.5-1.4-12.2-2.5-16.3C124.1,18.8,97,0.2,69.3,0L69,0c-0.7,0-1.2,0-1.9,0l-0.5,0
				c-1.2,0.1-2.4,0.2-3.5,0.3C30.2,5,5.8,32.8,5.8,65.1C5.8,90,20,107.9,29,115.2V137l72,13v-23h4.8c19.7,0,22.2-6,22.2-20V96h8.3
				c4.2,0,7.8-3.3,7.8-7.5C144.2,88,144.1,86.7,143.5,85.4z M68,6.1c0,0,0.7,0,1.2,0l0.2,0c24.7,0.2,49.7,17.1,54.7,37
				c1.1,4.3,2.3,16,2.4,16.1l0,0.6L138.1,88c0,0.2,0.1,0.3,0.1,0.5c0,0.8-0.8,1.5-1.8,1.5H122v17c0,11.2-0.3,14-16.2,14H95v23
				l-60-13v-18.4l-1.3-0.9C20,98.9,12,81.5,12,65.1C12,36.6,32,12,62,6.8C62,6.8,65.7,6.2,68,6.1z"/>
		</g>
	</g>
	<path d="M75.4,48.4c0-1.4-0.2-2.8-0.5-4.1l5.9-2.5l-2.3-5.5l-5.8,2.4c-1.6-2.7-3.9-5-6.6-6.7l2.5-5.8l-5.5-2.4l-2.6,6
		c-1.4-0.3-2.7-0.5-4.2-0.5c-1.6,0-3.1,0.2-4.5,0.6l-2.3-5.6L44,26.5l2.3,5.6c-2.7,1.7-4.9,4-6.5,6.8l-5.6-2.4l-2.3,5.5l5.8,2.4
		c-0.3,1.2-0.4,2.5-0.4,3.8c0,1.7,0.2,3.3,0.6,4.8l-5.4,2.2l2.2,5.6l5.6-2.2c1.6,2.4,3.7,4.5,6.2,6l-0.3-0.1l-2.2,5.3l5.5,2.3
		l2.2-5.3l0,0c1.5,0.4,3,0.6,4.6,0.6c1.5,0,3-0.2,4.4-0.5l2.3,5.8l5.6-2.3l-2.4-5.8c2.4-1.5,4.5-3.5,6-5.9l5.5,2.4l2.4-5.5l-5.5-2.4
		C75.2,51.7,75.4,50,75.4,48.4z M56.4,61.4c-7.2,0-13.1-5.9-13.1-13.1c0-7.2,5.9-13.1,13.1-13.1s13.1,5.9,13.1,13.1
		C69.4,55.6,63.6,61.4,56.4,61.4z"/>
	<path d="M105,82v-6h-4.6c-0.3-2-1-3.8-2.1-5.4l3.4-3.3L97.5,63L94,66.3c-1.5-1-3.2-1.6-5-1.9V61h-6v3.7c-1.5,0.4-2.9,1.1-4.2,1.9
		l-3.1-3.2l-4.3,4.2l3.3,3.4c-0.9,1.5-1.5,3.2-1.8,5h-4v6h4.4c0.4,1.4,1,2.6,1.8,3.8l-0.2-0.2l-2.9,2.9l4.2,4.2l2.9-2.9L79,89.6
		c1.2,0.8,2.6,1.4,4,1.8V97h6v-5.3c1.7-0.3,3.3-0.9,4.8-1.8l3.2,3.2l4.2-4.2l-3.1-3.1c0.8-1.2,1.4-2.5,1.8-3.9H105z M86.7,86
		c-4.3,0-7.9-3.5-7.9-7.9s3.5-7.9,7.9-7.9s7.9,3.5,7.9,7.9S91,86,86.7,86z"/>
</g>
	</symbol>	
<use href="#main" />
</svg>
