<svg width="65" height="49" viewBox="0 0 65 49" fill="none" xmlns="http://www.w3.org/2000/svg">
<path d="M53.4688 27.2133L33.7784 47.4633C33.6131 47.6334 33.4164 47.7683 33.1995 47.8605C32.9826 47.9526 32.75 48 32.515 48C32.28 48 32.0473 47.9526 31.8304 47.8605C31.6136 47.7683 31.4168 47.6334 31.2515 47.4633C24.5265 40.556 17.7936 33.6666 11.0678 26.7611M58.1017 20.8826C60.1869 15.6655 59.1723 9.44657 55.049 5.21109C52.3106 2.39866 48.7068 1 45.1079 1C41.509 1 37.9051 2.39863 35.1668 5.21109L32.5011 7.98074L29.8353 5.23935C24.3589 -0.385669 15.4295 -0.385615 9.95317 5.23935C5.71751 9.58971 4.75774 16.035 7.07387 21.3348" stroke="#0076FF" stroke-width="2"/>
<path d="M1 23.5643H16.75L21.25 13.9648L28 31.7924L32.95 18.9931L35.2 23.5643H64" stroke="#0076FF" stroke-width="2" stroke-linecap="round"/>
</svg>
