<svg width="70" height="48" viewBox="0 0 70 48" fill="none" xmlns="http://www.w3.org/2000/svg">
<rect x="1" y="1" width="56.2857" height="36.9902" rx="4" stroke="#0076FF" stroke-width="2"/>
<path d="M57.3143 31.9014H0.971436" stroke="#0090FF"/>
<path d="M57.3143 6.20312H0.971436" stroke="#0090FF"/>
<path fill-rule="evenodd" clip-rule="evenodd" d="M30.1142 3.54434C30.1142 4.03375 29.6793 4.43049 29.1428 4.43049C28.6063 4.43049 28.1714 4.03375 28.1714 3.54434C28.1714 3.05494 28.6063 2.6582 29.1428 2.6582C29.6793 2.6582 30.1142 3.05494 30.1142 3.54434ZM25.2571 35.4454C25.7936 35.4454 26.2285 35.0487 26.2285 34.5593C26.2285 34.0699 25.7936 33.6731 25.2571 33.6731C24.7206 33.6731 24.2856 34.0699 24.2856 34.5593C24.2856 35.0487 24.7206 35.4454 25.2571 35.4454ZM29.1428 35.4454C29.6793 35.4454 30.1142 35.0487 30.1142 34.5593C30.1142 34.0699 29.6793 33.6731 29.1428 33.6731C28.6063 33.6731 28.1714 34.0699 28.1714 34.5593C28.1714 35.0487 28.6063 35.4454 29.1428 35.4454ZM33.0285 35.4454C33.565 35.4454 33.9999 35.0487 33.9999 34.5593C33.9999 34.0699 33.565 33.6731 33.0285 33.6731C32.492 33.6731 32.0571 34.0699 32.0571 34.5593C32.0571 35.0487 32.492 35.4454 33.0285 35.4454Z" fill="#0076FF"/>
<path d="M26.2881 39.6592C26.1196 40.9274 25.277 43.8096 23.2549 45.1931" stroke="#0076FF"/>
<path d="M33.3657 39.6592C33.5342 40.9274 34.3768 43.8096 36.3989 45.1931" stroke="#0076FF"/>
<rect x="45.6284" y="8.74707" width="23.3714" height="37.4457" rx="6" fill="#ECEFF5" stroke="#ECEFF5" stroke-width="2"/>
<rect x="47.6284" y="10.7471" width="19.3714" height="33.4457" rx="4" fill="#ECEFF5" stroke="#0076FF" stroke-width="2"/>
<path d="M58.7568 40.7615C58.7568 41.422 58.1551 42.0338 57.314 42.0338C56.4728 42.0338 55.8711 41.422 55.8711 40.7615C55.8711 40.1011 56.4728 39.4893 57.314 39.4893C58.1551 39.4893 58.7568 40.1011 58.7568 40.7615Z" fill="#ECEFF5" stroke="#0076FF"/>
<path d="M67.9998 37.2178H46.6284" stroke="#0090FF"/>
<path d="M67.9998 14.1777H46.6284" stroke="#0090FF"/>
<path d="M19.2104 45.1934H39.432" stroke="#0076FF" stroke-linecap="round"/>
</svg>
