<svg width="100" height="100" viewBox="0 0 100 100" fill="none" xmlns="http://www.w3.org/2000/svg" xmlns:xlink="http://www.w3.org/1999/xlink">
<rect width="100" height="100" rx="16" fill="#E6A028"/>
<path d="M43.2646 65H27.6416V37.873H43.2646V42.5859H33.3936V48.542H42.5781V53.2549H33.3936V60.25H43.2646V65ZM73.5645 51.3994C73.5645 54.5908 72.9954 57.2689 71.8574 59.4336C70.7318 61.5859 69.0742 63.1631 66.8848 64.165L73.416 71.457H66.0498L61.0771 65.3711H60.6504C56.4941 65.3711 53.3027 64.165 51.0762 61.7529C48.8496 59.3408 47.7363 55.8773 47.7363 51.3623C47.7363 46.8473 48.8496 43.4023 51.0762 41.0273C53.3151 38.64 56.5189 37.4463 60.6875 37.4463C64.8561 37.4463 68.0413 38.6462 70.2432 41.0459C72.4574 43.4456 73.5645 46.8968 73.5645 51.3994ZM53.7666 51.3994C53.7666 54.43 54.3418 56.7122 55.4922 58.2461C56.6426 59.7799 58.362 60.5469 60.6504 60.5469C65.2396 60.5469 67.5342 57.4977 67.5342 51.3994C67.5342 45.2887 65.252 42.2334 60.6875 42.2334C58.3991 42.2334 56.6735 43.0065 55.5107 44.5527C54.348 46.0866 53.7666 48.3688 53.7666 51.3994Z" fill="white"/>
</svg>