<svg width="58" height="58" viewBox="0 0 58 58" fill="none" xmlns="http://www.w3.org/2000/svg">
<path d="M47.125 50.025C45.3125 50.025 33.6219 55.2812 27.1875 55.2812C23.3813 55.2812 20.0281 53.2875 12.6875 49.8438C9.24375 48.2125 1.8125 43.8625 1.8125 40.7812C1.8125 37.7 11.6906 41.7781 20.0281 44.4062M47.125 33.5312H56.1875V53.4688H47.125V33.5312Z" stroke="#0076FF" stroke-width="2" stroke-miterlimit="10" stroke-linecap="round" stroke-linejoin="round"/>
<path d="M30.9031 17.2188C34.9071 17.2188 38.1531 13.9728 38.1531 9.96875C38.1531 5.96469 34.9071 2.71875 30.9031 2.71875C26.899 2.71875 23.6531 5.96469 23.6531 9.96875C23.6531 13.9728 26.899 17.2188 30.9031 17.2188Z" stroke="#0076FF" stroke-width="2" stroke-miterlimit="10" stroke-linecap="round" stroke-linejoin="round"/>
<path d="M18.125 33.5312C22.1291 33.5312 25.375 30.2853 25.375 26.2812C25.375 22.2772 22.1291 19.0312 18.125 19.0312C14.1209 19.0312 10.875 22.2772 10.875 26.2812C10.875 30.2853 14.1209 33.5312 18.125 33.5312Z" stroke="#0076FF" stroke-width="2" stroke-miterlimit="10" stroke-linecap="round" stroke-linejoin="round"/>
<path d="M32.7156 48.0312H23.6531C22.6917 48.0312 21.7696 47.6493 21.0898 46.9695C20.41 46.2897 20.0281 45.3677 20.0281 44.4062C20.0281 43.4448 20.41 42.5228 21.0898 41.843C21.7696 41.1632 22.6917 40.7812 23.6531 40.7812H27.2781C38.1531 40.7812 34.5281 35.3438 47.2156 35.3438" stroke="#0076FF" stroke-width="2" stroke-miterlimit="10" stroke-linecap="round" stroke-linejoin="round"/>
</svg>
