<svg width="100" height="100" viewBox="0 0 100 100" fill="none" xmlns="http://www.w3.org/2000/svg">
<rect width="100" height="100" rx="16" fill="#A02D1E"/>
<path d="M28.3281 42.2705C26.1634 42.2705 24.4873 43.0869 23.2998 44.7197C22.1123 46.3402 21.5186 48.6038 21.5186 51.5107C21.5186 57.5596 23.7884 60.584 28.3281 60.584C30.2331 60.584 32.54 60.1077 35.249 59.1553V63.9795C33.0225 64.9072 30.5361 65.3711 27.79 65.3711C23.8441 65.3711 20.8258 64.1774 18.7354 61.79C16.6449 59.3903 15.5996 55.9515 15.5996 51.4736C15.5996 48.6533 16.113 46.1855 17.1396 44.0703C18.1663 41.9427 19.6383 40.3161 21.5557 39.1904C23.4854 38.0524 25.7428 37.4834 28.3281 37.4834C30.9629 37.4834 33.61 38.1204 36.2695 39.3945L34.4141 44.0703C33.3997 43.5879 32.3792 43.1673 31.3525 42.8086C30.3258 42.4499 29.3177 42.2705 28.3281 42.2705ZM46.6973 65H41.0381V37.873H56.5869V42.5859H46.6973V49.5811H55.9004V54.2754H46.6973V65ZM84.4004 51.1768C84.4004 55.6423 83.1263 59.0625 80.5781 61.4375C78.0423 63.8125 74.3747 65 69.5752 65H61.8936V37.873H70.4102C74.8385 37.873 78.2773 39.042 80.7266 41.3799C83.1758 43.7178 84.4004 46.9834 84.4004 51.1768ZM78.4258 51.3252C78.4258 45.499 75.8529 42.5859 70.707 42.5859H67.6455V60.25H70.1133C75.6549 60.25 78.4258 57.2751 78.4258 51.3252Z" fill="white"/>
</svg>
