<svg width="62" height="58" viewBox="0 0 62 58" fill="none" xmlns="http://www.w3.org/2000/svg">
<path d="M61 46.999L61.3162 47.9477C61.7246 47.8116 62 47.4294 62 46.999H61ZM30.999 57L30.6827 57.9487C30.888 58.0171 31.11 58.0171 31.3152 57.9487L30.999 57ZM1 46.999H0C0 47.4294 0.275412 47.8115 0.683734 47.9477L1 46.999ZM1 10.999L0.683791 10.0503C0.275439 10.1864 0 10.5686 0 10.999H1ZM30.999 1L31.3152 0.051304C31.1099 -0.0171036 30.888 -0.0171013 30.6828 0.0513104L30.999 1ZM61 10.999H62C62 10.5686 61.7246 10.1864 61.3162 10.0503L61 10.999ZM44.1543 17.4383C44.6725 17.6293 45.2474 17.3639 45.4383 16.8457C45.6293 16.3275 45.3639 15.7526 44.8457 15.5617L44.1543 17.4383ZM60.6838 46.0503L30.6828 56.0513L31.3152 57.9487L61.3162 47.9477L60.6838 46.0503ZM31.3153 56.0513L1.31627 46.0503L0.683734 47.9477L30.6827 57.9487L31.3153 56.0513ZM2 46.999V10.999H0V46.999H2ZM30.6828 1.9487L60.6838 11.9477L61.3162 10.0503L31.3152 0.051304L30.6828 1.9487ZM60 10.999V46.999H62V10.999H60ZM1.31621 11.9477L16.3157 6.94819L15.6833 5.05081L0.683791 10.0503L1.31621 11.9477ZM16.3157 6.94819L31.3152 1.94869L30.6828 0.0513104L15.6833 5.05081L16.3157 6.94819ZM15.6538 6.93784L44.1543 17.4383L44.8457 15.5617L16.3452 5.06116L15.6538 6.93784ZM60.6838 10.0503L30.6828 20.0513L31.3152 21.9487L61.3162 11.9477L60.6838 10.0503ZM31.3153 20.0513L1.31627 10.0503L0.683734 11.9477L30.6827 21.9487L31.3153 20.0513ZM29.999 21V57H31.999V21H29.999Z" fill="#0076FF"/>
</svg>
