<svg width="63" height="60" viewBox="0 0 63 60" fill="none" xmlns="http://www.w3.org/2000/svg">
<path d="M61.6792 36.6235H60.6792H61.6792ZM20.9246 54.4341V53.4341H19.9246V54.4341H20.9246ZM43.1887 54.4341H44.1887V53.4341H43.1887V54.4341ZM43.1887 58.8869V59.8869H44.1887V58.8869H43.1887ZM20.9246 58.8869H19.9246V59.8869H20.9246V58.8869ZM12.5659 22.0371H50.4338V20.0371H12.5659V22.0371ZM54.4338 26.0371V49.4333H56.4338V26.0371H54.4338ZM50.4338 53.4333H12.5659V55.4333H50.4338V53.4333ZM8.56592 49.4333V26.0371H6.56592V49.4333H8.56592ZM12.5659 53.4333C10.3568 53.4333 8.56592 51.6425 8.56592 49.4333H6.56592C6.56592 52.747 9.25221 55.4333 12.5659 55.4333V53.4333ZM54.4338 49.4333C54.4338 51.6425 52.643 53.4333 50.4338 53.4333V55.4333C53.7475 55.4333 56.4338 52.747 56.4338 49.4333H54.4338ZM50.4338 22.0371C52.643 22.0371 54.4338 23.828 54.4338 26.0371H56.4338C56.4338 22.7234 53.7476 20.0371 50.4338 20.0371V22.0371ZM12.5659 20.0371C9.25221 20.0371 6.56592 22.7234 6.56592 26.0371H8.56592C8.56592 23.828 10.3568 22.0371 12.5659 22.0371V20.0371ZM37.7358 7.67925C37.7358 10.8158 35.1931 13.3585 32.0566 13.3585V15.3585C36.2977 15.3585 39.7358 11.9204 39.7358 7.67925H37.7358ZM32.0566 13.3585C28.92 13.3585 26.3773 10.8158 26.3773 7.67925H24.3773C24.3773 11.9204 27.8154 15.3585 32.0566 15.3585V13.3585ZM26.3773 7.67925C26.3773 4.54268 28.92 2 32.0566 2V0C27.8154 0 24.3773 3.43812 24.3773 7.67925H26.3773ZM32.0566 2C35.1931 2 37.7358 4.54268 37.7358 7.67925H39.7358C39.7358 3.43812 36.2977 0 32.0566 0V2ZM7.67925 42.3018C4.54268 42.3018 2 39.7592 2 36.6226H0C0 40.8637 3.43812 44.3018 7.67925 44.3018V42.3018ZM2 36.6226C2 33.486 4.54268 30.9434 7.67925 30.9434V28.9434C3.43812 28.9434 0 32.3815 0 36.6226H2ZM55 30.9442C58.1365 30.9442 60.6792 33.4869 60.6792 36.6235H62.6792C62.6792 32.3824 59.2411 28.9442 55 28.9442V30.9442ZM60.6792 36.6235C60.6792 39.7601 58.1365 42.3027 55 42.3027V44.3027C59.2411 44.3027 62.6792 40.8646 62.6792 36.6235H60.6792ZM26.3773 46.6416H37.7358V44.6416H26.3773V46.6416ZM30.9434 14V20.6792H32.9434V14H30.9434ZM20.9246 55.4341H43.1887V53.4341H20.9246V55.4341ZM42.1887 54.4341V58.8869H44.1887V54.4341H42.1887ZM43.1887 57.8869H20.9246V59.8869H43.1887V57.8869ZM21.9246 58.8869V54.4341H19.9246V58.8869H21.9246ZM22 35.5C22 36.8807 20.8807 38 19.5 38V40C21.9853 40 24 37.9853 24 35.5H22ZM19.5 38C18.1193 38 17 36.8807 17 35.5H15C15 37.9853 17.0147 40 19.5 40V38ZM17 35.5C17 34.1193 18.1193 33 19.5 33V31C17.0147 31 15 33.0147 15 35.5H17ZM19.5 33C20.8807 33 22 34.1193 22 35.5H24C24 33.0147 21.9853 31 19.5 31V33ZM46 35.5C46 36.8807 44.8807 38 43.5 38V40C45.9853 40 48 37.9853 48 35.5H46ZM43.5 38C42.1193 38 41 36.8807 41 35.5H39C39 37.9853 41.0147 40 43.5 40V38ZM41 35.5C41 34.1193 42.1193 33 43.5 33V31C41.0147 31 39 33.0147 39 35.5H41ZM43.5 33C44.8807 33 46 34.1193 46 35.5H48C48 33.0147 45.9853 31 43.5 31V33Z" fill="#0076FF"/>
</svg>
