<svg width="100" height="100" viewBox="0 0 100 100" fill="none" xmlns="http://www.w3.org/2000/svg" xmlns:xlink="http://www.w3.org/1999/xlink">
<rect width="100" height="100" rx="16" fill="#5578AA"/>
<path d="M25.5264 37.873H33.9688C37.8158 37.873 40.6051 38.4235 42.3369 39.5244C44.0811 40.613 44.9531 42.3509 44.9531 44.7383C44.9531 46.3587 44.5697 47.6885 43.8027 48.7275C43.0482 49.7666 42.04 50.3913 40.7783 50.6016V50.7871C42.4977 51.1706 43.7347 51.888 44.4893 52.9395C45.2562 53.9909 45.6396 55.3887 45.6396 57.1328C45.6396 59.6068 44.7428 61.5365 42.9492 62.9219C41.168 64.3073 38.7435 65 35.6758 65H25.5264V37.873ZM31.2783 48.6162H34.6182C36.1768 48.6162 37.3024 48.375 37.9951 47.8926C38.7002 47.4102 39.0527 46.6123 39.0527 45.499C39.0527 44.46 38.6693 43.7178 37.9023 43.2725C37.1478 42.8148 35.9479 42.5859 34.3027 42.5859H31.2783V48.6162ZM31.2783 53.1807V60.25H35.0264C36.6097 60.25 37.7786 59.9469 38.5332 59.3408C39.2878 58.7347 39.665 57.807 39.665 56.5576C39.665 54.3063 38.057 53.1807 34.8408 53.1807H31.2783ZM75.6797 51.3994C75.6797 55.8896 74.5664 59.3408 72.3398 61.7529C70.1133 64.165 66.9219 65.3711 62.7656 65.3711C58.6094 65.3711 55.418 64.165 53.1914 61.7529C50.9648 59.3408 49.8516 55.8773 49.8516 51.3623C49.8516 46.8473 50.9648 43.4023 53.1914 41.0273C55.4303 38.64 58.6341 37.4463 62.8027 37.4463C66.9714 37.4463 70.1566 38.6462 72.3584 41.0459C74.5726 43.4456 75.6797 46.8968 75.6797 51.3994ZM55.8818 51.3994C55.8818 54.43 56.457 56.7122 57.6074 58.2461C58.7578 59.7799 60.4772 60.5469 62.7656 60.5469C67.3548 60.5469 69.6494 57.4977 69.6494 51.3994C69.6494 45.2887 67.3672 42.2334 62.8027 42.2334C60.5143 42.2334 58.7887 43.0065 57.626 44.5527C56.4632 46.0866 55.8818 48.3688 55.8818 51.3994Z" fill="white"/>
</svg>
