<svg width="100" height="100" viewBox="0 0 100 100" fill="none" xmlns="http://www.w3.org/2000/svg" xmlns:xlink="http://www.w3.org/1999/xlink">
<rect width="100" height="100" rx="16" fill="#00780F"/>
<path d="M20.8506 65H15.1914V37.873H30.7402V42.5859H20.8506V49.5811H30.0537V54.2754H20.8506V65ZM57.9785 65H51.4102L45.1016 54.7393L38.793 65H32.6328L41.6318 51.0098L33.208 37.873H39.5537L45.3984 47.6328L51.1318 37.873H57.3291L48.8125 51.3252L57.9785 65ZM86.0146 51.3994C86.0146 55.8896 84.9014 59.3408 82.6748 61.7529C80.4482 64.165 77.2568 65.3711 73.1006 65.3711C68.9443 65.3711 65.7529 64.165 63.5264 61.7529C61.2998 59.3408 60.1865 55.8773 60.1865 51.3623C60.1865 46.8473 61.2998 43.4023 63.5264 41.0273C65.7653 38.64 68.9691 37.4463 73.1377 37.4463C77.3063 37.4463 80.4915 38.6462 82.6934 41.0459C84.9076 43.4456 86.0146 46.8968 86.0146 51.3994ZM66.2168 51.3994C66.2168 54.43 66.792 56.7122 67.9424 58.2461C69.0928 59.7799 70.8122 60.5469 73.1006 60.5469C77.6898 60.5469 79.9844 57.4977 79.9844 51.3994C79.9844 45.2887 77.7021 42.2334 73.1377 42.2334C70.8493 42.2334 69.1237 43.0065 67.9609 44.5527C66.7982 46.0866 66.2168 48.3688 66.2168 51.3994Z" fill="white"/>
</svg>
