<svg width="42" height="42" viewBox="0 0 42 42" fill="none" xmlns="http://www.w3.org/2000/svg">
<path d="M6.5625 1.3125V40.6875H35.4375V11.8125L24.9375 1.3125H6.5625Z" stroke="#0076FF" stroke-width="2" stroke-miterlimit="10" stroke-linecap="round" stroke-linejoin="round"/>
<path d="M24.9375 1.3125V11.8125H35.4375" stroke="#0076FF" stroke-width="2" stroke-miterlimit="10" stroke-linecap="round" stroke-linejoin="round"/>
<path d="M29.4 24.2156C29.4 25.89 28.9035 27.5267 27.9733 28.9189C27.0431 30.311 25.7209 31.3961 24.174 32.0368C22.6271 32.6776 20.925 32.8452 19.2828 32.5186C17.6406 32.1919 16.1322 31.3857 14.9483 30.2017C13.7643 29.0178 12.9581 27.5094 12.6314 25.8672C12.3048 24.225 12.4724 22.5229 13.1132 20.976C13.7539 19.4291 14.839 18.1069 16.2311 17.1767C17.6233 16.2465 19.26 15.75 20.9344 15.75H21.6563" stroke="#0076FF" stroke-width="2" stroke-miterlimit="10" stroke-linecap="round" stroke-linejoin="round"/>
<path d="M21.6562 24.2158H30.8438C30.8338 21.7194 29.8821 19.3188 28.1788 17.4938C26.4754 15.6688 24.146 14.5539 21.6562 14.3721V24.2158Z" stroke="#0076FF" stroke-width="2" stroke-miterlimit="10" stroke-linecap="round" stroke-linejoin="round"/>
</svg>
