<svg width="64" height="64" viewBox="0 0 64 64" fill="none" xmlns="http://www.w3.org/2000/svg">
<path d="M2 22.9999L6.742 20.7869M2 22.9999V44.9999L32.082 58.9999L62 44.9999V22.9999L32 37.0479L2 22.9999ZM32 37.0479V58.9999V37.0479ZM57.332 20.8219L62 22.9999L57.332 20.8219ZM37.459 11.5479L46.607 15.8169L37.459 11.5479ZM17.375 15.8259L26.522 11.5559L17.375 15.8259Z" stroke="#0076FF" stroke-width="2" stroke-linecap="round" stroke-linejoin="round"/>
<path d="M13 23C16.866 23 20 21.2091 20 19C20 16.7909 16.866 15 13 15C9.13401 15 6 16.7909 6 19C6 21.2091 9.13401 23 13 23Z" stroke="#0076FF" stroke-width="2" stroke-linecap="round" stroke-linejoin="round"/>
<path d="M32 29C35.866 29 39 27.2091 39 25C39 22.7909 35.866 21 32 21C28.134 21 25 22.7909 25 25C25 27.2091 28.134 29 32 29Z" stroke="#0076FF" stroke-width="2" stroke-linecap="round" stroke-linejoin="round"/>
<path d="M32 13C35.866 13 39 11.2091 39 9C39 6.79086 35.866 5 32 5C28.134 5 25 6.79086 25 9C25 11.2091 28.134 13 32 13Z" stroke="#0076FF" stroke-width="2" stroke-linecap="round" stroke-linejoin="round"/>
<path d="M51 23C54.866 23 58 21.2091 58 19C58 16.7909 54.866 15 51 15C47.134 15 44 16.7909 44 19C44 21.2091 47.134 23 51 23Z" stroke="#0076FF" stroke-width="2" stroke-linecap="round" stroke-linejoin="round"/>
</svg>
