<svg width="64" height="64" viewBox="0 0 64 64" fill="none" xmlns="http://www.w3.org/2000/svg">
<path d="M34.0004 46.9C38.0004 46 38.0004 44.6 38.0004 43.6V42.1C37.0654 41.2135 36.3249 40.1424 35.8257 38.9546C35.3264 37.7668 35.0795 36.4883 35.1004 35.2V30.7C35.3047 29.0003 36.1247 27.4344 37.4053 26.2985C38.686 25.1625 40.3385 24.5352 42.0504 24.5352C43.7623 24.5352 45.4149 25.1625 46.6955 26.2985C47.9762 27.4344 48.7962 29.0003 49.0004 30.7V35.2C49.0086 36.4956 48.746 37.7787 48.2294 38.9669C47.7128 40.1551 46.9535 41.2223 46.0004 42.1V43.6C46.0004 44.5 46.0004 46 50.1004 46.9C54.2004 47.8 54.0004 52 54.0004 52H30.0004C29.9727 50.818 30.3564 49.6631 31.0861 48.7328C31.8157 47.8026 32.8459 47.1547 34.0004 46.9Z" stroke="#0076FF" stroke-width="2" stroke-miterlimit="10" stroke-linecap="round" stroke-linejoin="round"/>
<path d="M18 10H46M10 10H2V60H62V10H54H10ZM26 24H10H26ZM20 32H10H20ZM24 40H10H24Z" stroke="#0076FF" stroke-width="2" stroke-miterlimit="10" stroke-linecap="round" stroke-linejoin="round"/>
<path d="M10 4H18V16H10V4ZM46 4H54V16H46V4Z" stroke="#0076FF" stroke-width="2" stroke-miterlimit="10" stroke-linecap="round" stroke-linejoin="round"/>
</svg>
