<svg width="42" height="42" viewBox="0 0 42 42" fill="none" xmlns="http://www.w3.org/2000/svg">
<path d="M21 9.51562C9.7125 9.51562 1.64062 21 1.64062 21C1.64062 21 9.7125 32.4844 21 32.4844C32.2875 32.4844 40.3594 21 40.3594 21C40.3594 21 32.2875 9.51562 21 9.51562Z" stroke="#0076FF" stroke-width="2" stroke-miterlimit="10" stroke-linecap="round" stroke-linejoin="round"/>
<path d="M21 28.875C25.3492 28.875 28.875 25.3492 28.875 21C28.875 16.6508 25.3492 13.125 21 13.125C16.6508 13.125 13.125 16.6508 13.125 21C13.125 25.3492 16.6508 28.875 21 28.875Z" stroke="#0076FF" stroke-width="2" stroke-miterlimit="10" stroke-linecap="round" stroke-linejoin="round"/>
<path d="M18.1545 19.0312C17.8678 19.4988 17.7175 20.0295 17.7188 20.5694C17.72 21.1093 17.8729 21.6393 18.1617 22.1056C18.4506 22.572 18.8653 22.9582 19.3638 23.225C19.8622 23.4918 20.4267 23.6297 21 23.6249" stroke="#0076FF" stroke-width="2" stroke-miterlimit="10" stroke-linecap="round" stroke-linejoin="round"/>
</svg>
