<svg width="38" height="38" viewBox="0 0 38 38" fill="none" xmlns="http://www.w3.org/2000/svg">
<path d="M19 0.668335C29.125 0.668335 37.3333 8.87667 37.3333 19.0017C37.3333 29.1267 29.125 37.335 19 37.335C8.87496 37.335 0.666626 29.1267 0.666626 19.0017C0.666626 8.87667 8.87496 0.668335 19 0.668335Z" stroke="white" stroke-linecap="round" stroke-linejoin="round"/>
<path d="M23.1666 27.3417H20.6666C19.7466 27.3417 19 26.595 19 25.675V14.8417C19 14.3817 18.6266 14.0084 18.1666 14.0084H15.6666" stroke="white" stroke-linecap="round" stroke-linejoin="round"/>
<path d="M18.575 9.83331C18.345 9.83331 18.1583 10.02 18.1583 10.25C18.1583 10.48 18.345 10.6666 18.575 10.6666C18.805 10.6666 18.9917 10.48 18.9917 10.25C18.9917 10.02 18.805 9.83331 18.575 9.83331Z" stroke="white" stroke-linecap="round" stroke-linejoin="round"/>
</svg>
