<svg width="50" height="38" viewBox="0 0 50 38" fill="none" xmlns="http://www.w3.org/2000/svg">
<path d="M35.9571 16.2949C35.9571 21.7806 35.0547 25.8411 33.25 28.4766C31.4597 31.112 28.6954 32.4297 24.9571 32.4297C21.3333 32.4297 18.5977 31.069 16.75 28.3477C14.9167 25.6263 14 21.6087 14 16.2949C14 10.752 14.8952 6.66992 16.6855 4.04883C18.4759 1.41341 21.2331 0.0957031 24.9571 0.0957031C28.5808 0.0957031 31.3164 1.4707 33.1641 4.2207C35.0261 6.9707 35.9571 10.9954 35.9571 16.2949ZM20.5957 16.2949C20.5957 20.1478 20.9251 22.9121 21.584 24.5879C22.2572 26.2493 23.3815 27.0801 24.9571 27.0801C26.504 27.0801 27.6211 26.235 28.3086 24.5449C28.9961 22.8548 29.3399 20.1048 29.3399 16.2949C29.3399 12.4421 28.989 9.67773 28.2872 8.00195C27.5997 6.31185 26.4896 5.4668 24.9571 5.4668C23.3958 5.4668 22.2786 6.31185 21.6055 8.00195C20.9323 9.67773 20.5957 12.4421 20.5957 16.2949Z" fill="#0076FF"/>
</svg>
