<svg width="38" height="56" viewBox="0 0 38 56" fill="none" xmlns="http://www.w3.org/2000/svg">
<path d="M1 43.1538H29.7692M1 11H29.7692H1Z" stroke="white" stroke-width="2" stroke-linecap="round" stroke-linejoin="round"/>
<path d="M26.3846 4.23047H4.38462C2.51534 4.23047 1 5.74581 1 7.61508V51.6151C1 53.4844 2.51534 54.9997 4.38462 54.9997H26.3846C28.2539 54.9997 29.7692 53.4844 29.7692 51.6151V7.61508C29.7692 5.74581 28.2539 4.23047 26.3846 4.23047Z" stroke="white" stroke-width="2" stroke-linecap="round" stroke-linejoin="round"/>
<path d="M15.3847 50.7694C16.3193 50.7694 17.077 50.0117 17.077 49.0771C17.077 48.1424 16.3193 47.3848 15.3847 47.3848C14.4501 47.3848 13.6924 48.1424 13.6924 49.0771C13.6924 50.0117 14.4501 50.7694 15.3847 50.7694Z" stroke="white" stroke-width="2" stroke-linecap="round" stroke-linejoin="round"/>
<circle cx="28.5001" cy="8.88461" r="7.88461" fill="#11131B" stroke="white" stroke-width="2"/>
</svg>
