<svg width="58" height="45" viewBox="0 0 58 45" fill="none" xmlns="http://www.w3.org/2000/svg">
<path d="M43.3 13.8739L48.0937 9.08022M1 28.587H8.35652H1ZM28.587 1V8.35652V1ZM48.8174 28.587H56.1739H48.8174Z" stroke="white" stroke-width="2" stroke-miterlimit="10" stroke-linecap="round" stroke-linejoin="round"/>
<path d="M13.1226 14.3755C13.0176 14.2294 12.959 14.0551 12.9543 13.8753C12.9542 13.7148 12.9961 13.5571 13.0758 13.4178C13.1556 13.2785 13.2703 13.1625 13.4088 13.0814C13.5472 13.0002 13.7045 12.9567 13.8649 12.9551C14.0254 12.9536 14.1834 12.994 14.3234 13.0725L31.5614 23.9423C32.2484 24.3819 32.8293 24.9683 33.2623 25.6594C33.6954 26.3505 33.9699 27.129 34.0659 27.9389C34.162 28.7488 34.0773 29.5699 33.818 30.3431C33.5586 31.1164 33.131 31.8224 32.5661 32.4106C32.0011 32.9987 31.3127 33.4542 30.5505 33.7443C29.7884 34.0344 28.9713 34.1519 28.1583 34.0883C27.3453 34.0247 26.5565 33.7816 25.8487 33.3765C25.1409 32.9714 24.5318 32.4143 24.0651 31.7455L13.1226 14.3755Z" stroke="white" stroke-width="2" stroke-miterlimit="10" stroke-linecap="round" stroke-linejoin="round"/>
<path d="M51.9182 43.3C54.5512 39.1276 56.0167 34.3254 56.162 29.3941C56.3072 24.4627 55.1269 19.5827 52.7441 15.2625C50.3613 10.9424 46.8631 7.34036 42.6143 4.8318C38.3654 2.32324 33.5213 1 28.587 1C23.6526 1 18.8085 2.32324 14.5597 4.8318C10.3108 7.34036 6.81264 10.9424 4.42981 15.2625C2.04698 19.5827 0.866691 24.4627 1.01196 29.3941C1.15723 34.3254 2.62274 39.1276 5.25575 43.3H51.9182Z" stroke="white" stroke-width="2" stroke-miterlimit="10" stroke-linecap="round" stroke-linejoin="round"/>
</svg>
