<?xml version="1.0" encoding="utf-8"?>
<!-- Generator: Adobe Illustrator 19.0.1, SVG Export Plug-In . SVG Version: 6.00 Build 0)  -->
<svg version="1.1" xmlns="http://www.w3.org/2000/svg" xmlns:xlink="http://www.w3.org/1999/xlink" x="0px" y="0px"
	 viewBox="0 0 150 150" style="enable-background:new 0 0 150 150;" xml:space="preserve">
<symbol id="main"  viewBox="0 0 150 150">
<path d="M128.9,23.3l0.1-0.1l-4.2-4.2l-0.2,0.2C111.3,7.6,94,0.5,75,0.5c-41.4,0-75,33.6-75,75s33.6,75,75,75s75-33.6,75-75
	C150,55.2,141.9,36.8,128.9,23.3z M6,75.5c0-38,31-69,69-69c17.3,0,33.1,6.4,45.2,17L91,52.7l1.2-2.9L91,49.2c-4.1-1.8-10-2.7-13-3
	V38h-6v8.4c-3,0.5-7.3,1.8-10.1,4c-3.6,2.9-5.3,6.7-5.3,11.3c0,4.1,1.3,7.5,3.7,10.1c1.6,1.6,3.9,3.2,7,4.6L23,120.7
	C12.4,108.6,6,92.8,6,75.5z M72.3,71.4c-2-0.8-3.6-1.6-4.7-2.2c-1.5-0.9-2.6-2-3.2-3.1c-0.6-1.1-1-2.6-1-4.4c0-2.9,1-5.1,3.2-6.7
	c2.2-1.7,5.2-2.6,9.1-2.6c4,0,8.3,0.9,12.8,2.8l0.1,0L72.3,71.4z M75,144.5c-18.6,0-35.5-7.4-47.9-19.4l46.3-46.3
	c3.4,1.2,6.1,2.3,8,3.4c1.8,1,3.1,2.2,3.9,3.4c0.7,1.2,1.1,2.7,1.1,4.5c0,3-1.2,5.4-3.5,7.2c-2.4,1.9-5.8,2.9-10.1,2.9
	c-6,0-11.1-0.8-14.9-2.5L56,96.9v6.9l0.6,0.3c3.7,1.5,9.4,2.3,15.4,2.4v9.6h6v-10c3-0.6,7.1-1.9,9.7-4c3.8-3,5.6-7.1,5.6-12.2
	c0-2.8-0.6-5.2-1.7-7.2c-1.1-2-2.9-3.8-5.3-5.3c-1.9-1.2-4.5-2.4-7.9-3.7l46.1-46.1C136.6,40,144,56.9,144,75.5
	C144,113.5,113,144.5,75,144.5z"/>
</symbol>	
<use href="#main" />
</svg>
