<?xml version="1.0" encoding="utf-8"?>
<!-- Generator: Adobe Illustrator 22.0.1, SVG Export Plug-In . SVG Version: 6.00 Build 0)  -->
<svg version="1.1" xmlns="http://www.w3.org/2000/svg" xmlns:xlink="http://www.w3.org/1999/xlink" x="0px" y="0px" style="enable-background:new 0 0 150 150;" xml:space="preserve">
<symbol id="main" viewBox="0 0 150 150">
<g>
	<path id="_x33_" d="M118.7,36.4c0,9.3-2.6,16.9-7.8,22.9c-5.2,5.9-12.6,9.9-22.2,11.9V72c11.7,1.5,20.4,5.2,26,11.2
		c5.7,6,8.5,13.8,8.5,23.6c0,13.9-4.8,24.6-14.5,32.1S85.4,150,67.6,150c-7.7,0-14.8-0.6-21.2-1.7c-6.4-1.2-12.7-3.2-18.7-6.1v-15.8
		c6.3,3.1,13.1,5.5,20.2,7.1c7.2,1.6,13.9,2.4,20.3,2.4c25.2,0,37.8-9.9,37.8-29.6c0-17.7-13.9-26.5-41.7-26.5H50V65.5h14.6
		c11.4,0,20.4-2.5,27-7.5c6.7-5,10-12,10-20.9c0-7.1-2.4-12.7-7.3-16.8s-11.5-6.1-19.9-6.1c-6.4,0-12.4,0.9-18.1,2.6
		c-5.7,1.7-12.1,4.9-19.4,9.6l-8.4-11.2c6-4.7,12.9-8.4,20.7-11.1s16.1-4,24.7-4c14.2,0,25.2,3.2,33,9.7S118.7,25.1,118.7,36.4z"/>
</g>
	</symbol>	
<use href="#main" />
</svg>
