<?xml version="1.0" encoding="utf-8"?>
<!-- Generator: Adobe Illustrator 22.0.1, SVG Export Plug-In . SVG Version: 6.00 Build 0)  -->
<svg version="1.1" xmlns="http://www.w3.org/2000/svg" xmlns:xlink="http://www.w3.org/1999/xlink" x="0px" y="0px" style="enable-background:new 0 0 150 150;" xml:space="preserve">
<symbol id="main" viewBox="0 0 150 150">
<g>
	<path id="_x32_" d="M124.1,150H26.9v-14.5l38.9-39.1c11.9-12,19.7-20.6,23.5-25.7c3.8-5.1,6.6-10.1,8.5-15
		c1.9-4.9,2.8-10.1,2.8-15.7c0-7.9-2.4-14.1-7.2-18.8c-4.8-4.6-11.4-6.9-19.9-6.9c-6.1,0-12,1-17.4,3s-11.6,5.7-18.4,11L28.8,17
		C42.4,5.7,57.3,0,73.3,0C87.2,0,98.1,3.6,106,10.7s11.8,16.7,11.8,28.7c0,9.4-2.6,18.6-7.9,27.8c-5.3,9.2-15.1,20.8-29.5,34.8
		L48,133.6v0.8h76.1V150z"/>
</g>
	</symbol>	
<use href="#main" />
</svg>

