<svg width="49" height="54" viewBox="0 0 49 54" fill="none" xmlns="http://www.w3.org/2000/svg">
<path fill-rule="evenodd" clip-rule="evenodd" d="M33.1603 5.37186L36.5861 11.2915L8.60852 27.4062L7.63023 25.7158L0 30.1106L5.38427 39.4144L13.0145 35.0195L12.0355 33.3279L12.0356 33.3264L19.9748 28.7535L12.7515 51.7234C12.656 52.0271 12.7108 52.3582 12.8992 52.615C13.0876 52.8717 13.387 53.0234 13.7054 53.0234H19.0258C19.4712 53.0234 19.8629 52.7289 19.9865 52.301L21.7539 46.1869H30.1309L31.8983 52.301C32.022 52.7289 32.4136 53.0234 32.859 53.0234H38.1794C38.4992 53.0234 38.7996 52.8704 38.9878 52.6119C39.176 52.3534 39.2293 52.0205 39.131 51.7162L29.8776 23.0497L40.0125 17.2121L43.9289 23.9794C44.4695 24.9136 45.667 25.2337 46.6034 24.6943L48.021 23.8778C48.7032 23.4849 49.0829 22.7223 48.9846 21.9426L47.9373 13.6324C47.9048 13.3741 47.8208 13.1249 47.6903 12.8994L40.7905 0.976968C40.2499 0.042727 39.0524 -0.277368 38.116 0.262017L33.877 2.70362C32.9405 3.24301 32.6196 4.43762 33.1603 5.37186ZM28.1054 24.0704L22.5232 27.2856C22.5156 27.3302 22.505 27.3747 22.491 27.419L15.0682 51.0234H18.274L24.9817 27.8179C25.1054 27.3901 25.4971 27.0956 25.9424 27.0956C26.3877 27.0956 26.7794 27.3901 26.9031 27.8179L33.6108 51.0234H36.8058L28.1054 24.0704ZM45.6245 23.0027L47.042 22.1862L45.9947 13.8761L39.0949 1.95361L34.8559 4.39522L45.6245 23.0027ZM9.58817 29.0974L37.5651 12.9831L39.0335 15.5205L11.0566 31.6348L9.58817 29.0974ZM6.91358 28.384L10.3399 34.3046L6.10092 36.7462L2.67456 30.8256L6.91358 28.384ZM29.284 43.2569L29.5528 44.1869H22.332L22.6008 43.2569H29.284ZM28.7059 41.2569H23.1789L25.9424 31.6967L28.7059 41.2569Z" fill="#0076FF"/>
</svg>
