<svg width="53" height="58" viewBox="0 0 53 58" fill="none" xmlns="http://www.w3.org/2000/svg">
<path d="M1 19.2326L0.302356 18.5161C-0.0456367 18.855 -0.0998059 19.3949 0.173934 19.7961C0.447673 20.1974 0.970149 20.3439 1.4126 20.1435L1 19.2326ZM20.5672 9.07412C21.1083 8.96359 21.4574 8.43532 21.3469 7.89421C21.2363 7.3531 20.7081 7.00405 20.1669 7.11458L20.5672 9.07412ZM20.4617 15.0471C21.0115 14.9948 21.4148 14.5068 21.3626 13.957C21.3104 13.4071 20.8223 13.0038 20.2725 13.056L20.4617 15.0471ZM52 19.2326L51.6091 20.153C52.0577 20.3435 52.5782 20.1829 52.8415 19.7728C53.1048 19.3627 53.0341 18.8226 52.6742 18.494L52 19.2326ZM31.9637 13.0559C31.4138 13.0044 30.9262 13.4084 30.8747 13.9582C30.8232 14.5081 31.2272 14.9957 31.7771 15.0472L31.9637 13.0559ZM32.068 7.11405C31.5266 7.00498 30.9993 7.35545 30.8902 7.89686C30.7811 8.43827 31.1316 8.96559 31.673 9.07466L32.068 7.11405ZM21.9494 4.25581V6.2093H23.9494V4.25581H21.9494ZM30.4051 6.2093V4.25581H28.4051V6.2093H30.4051ZM21.9494 15.3256V53.7442H23.9494V15.3256H21.9494ZM30.4051 53.7442V15.3256H28.4051V53.7442H30.4051ZM26.1772 2C27.3995 2 28.4051 3.00181 28.4051 4.25581H30.4051C30.4051 1.91354 28.5203 0 26.1772 0V2ZM26.1772 58C28.5203 58 30.4051 56.0865 30.4051 53.7442H28.4051C28.4051 54.9982 27.3995 56 26.1772 56V58ZM26.1772 56C24.9549 56 23.9494 54.9982 23.9494 53.7442H21.9494C21.9494 56.0865 23.8341 58 26.1772 58V56ZM26.1772 0C23.8341 0 21.9494 1.91354 21.9494 4.25581H23.9494C23.9494 3.00181 24.9549 2 26.1772 2V0ZM19.3671 8.16279V13.3721H21.3671V8.16279H19.3671ZM22.3038 16.3256H30.0506V14.3256H22.3038V16.3256ZM32.9873 13.3721V8.16279H30.9873V13.3721H32.9873ZM30.0506 5.2093H22.3038V7.2093H30.0506V5.2093ZM32.9873 8.16279C32.9873 6.53978 31.6806 5.2093 30.0506 5.2093V7.2093C30.5598 7.2093 30.9873 7.62804 30.9873 8.16279H32.9873ZM30.0506 16.3256C31.6806 16.3256 32.9873 14.9951 32.9873 13.3721H30.9873C30.9873 13.9068 30.5598 14.3256 30.0506 14.3256V16.3256ZM19.3671 13.3721C19.3671 14.9951 20.6738 16.3256 22.3038 16.3256V14.3256C21.7946 14.3256 21.3671 13.9068 21.3671 13.3721H19.3671ZM21.3671 8.16279C21.3671 7.62804 21.7946 7.2093 22.3038 7.2093V5.2093C20.6738 5.2093 19.3671 6.53977 19.3671 8.16279H21.3671ZM1.69764 19.949C7.83191 13.9757 14.1715 10.3806 20.5672 9.07412L20.1669 7.11458C13.3081 8.51566 6.63875 12.346 0.302356 18.5161L1.69764 19.949ZM20.2725 13.056C13.5341 13.6963 6.92221 15.4523 0.587401 18.3216L1.4126 20.1435C7.54844 17.3642 13.9456 15.6662 20.4617 15.0471L20.2725 13.056ZM52.3909 18.3121C45.6501 15.4497 38.7913 13.6957 31.9637 13.0559L31.7771 15.0472C38.3893 15.6668 45.0479 17.3668 51.6091 20.153L52.3909 18.3121ZM31.673 9.07466C38.1702 10.3836 44.7705 13.9868 51.3258 19.9711L52.6742 18.494C45.9276 12.335 39.0106 8.51269 32.068 7.11405L31.673 9.07466Z" fill="#0076FF"/>
</svg>
