<?xml version="1.0" encoding="utf-8"?>
<!-- Generator: Adobe Illustrator 19.0.1, SVG Export Plug-In . SVG Version: 6.00 Build 0)  -->
<svg version="1.1" xmlns="http://www.w3.org/2000/svg" xmlns:xlink="http://www.w3.org/1999/xlink" x="0px" y="0px" style="enable-background:new 0 0 150 150;" xml:space="preserve">
<symbol id="main" viewBox="0 0 150 150">
<g id="svg-icon">
	<path id="Fill-1" class="st0" d="M19.2,36.7l-1.8,9.7H9.9l1.8-9.7H9.8L8,46.5H1.6v1.7h6.1l-1.6,8.5H0v1.7h5.9l-1.8,9.7h1.8l1.8-9.7
		h7.4l-1.8,9.7h1.9l1.8-9.7h6.6v-1.7h-6.3l1.6-8.5h6.2v-1.7h-5.9l1.8-9.7L19.2,36.7L19.2,36.7z M9.6,48.2h7.5l-1.6,8.5H8L9.6,48.2z"
		/>
	<g id="Group-23" transform="translate(9.000000, 25.000000)">
		<path id="Fill-2" class="st0" d="M44.6,34.7c0,2-0.5,3.7-1.5,5.2s-2.4,2.7-4.2,3.5s-4,1.3-6.5,1.3c-2.1,0-3.8-0.1-5.2-0.4
			c-1.4-0.3-2.9-0.8-4.4-1.5v-7.6c1.6,0.8,3.3,1.5,5,2s3.3,0.7,4.8,0.7c1.2,0,2.2-0.2,2.7-0.7c0.6-0.4,0.9-1,0.9-1.7
			c0-0.4-0.1-0.8-0.4-1.1c-0.2-0.3-0.6-0.7-1.1-1s-1.9-1-4.1-2c-2-0.9-3.6-1.8-4.6-2.7c-1-0.9-1.8-1.9-2.3-3s-0.7-2.5-0.7-4
			c0-2.9,1-5.2,3.1-6.8s5-2.4,8.6-2.4c3.2,0,6.5,0.8,9.9,2.3L42,21.1c-2.9-1.4-5.4-2-7.5-2c-1.1,0-1.9,0.2-2.4,0.6s-0.7,0.9-0.7,1.4
			c0,0.6,0.3,1.2,0.9,1.7c0.6,0.5,2.3,1.4,5.1,2.7c2.7,1.2,4.5,2.5,5.6,3.9C44.1,30.8,44.6,32.6,44.6,34.7"/>
		<path id="Fill-4" class="st0" d="M65.7,31.4l-1.3-5.2c-0.3-1.2-0.7-2.6-1.1-4.5c-0.4-1.8-0.7-3.1-0.9-3.9
			c-0.1,0.7-0.4,1.9-0.8,3.6c-0.4,1.7-1.2,5-2.5,10C59.1,31.4,65.7,31.4,65.7,31.4z M68.9,44.3l-1.5-5.9H57.3l-1.6,5.9h-9.2
			l10.2-31.8h11.2l10.3,31.8H68.9z"/>
		<polygon id="Fill-6" class="st0" points="110,44.3 100.3,44.3 94.2,34.4 88.2,44.3 78.7,44.3 89,28.2 79.3,12.7 88.6,12.7 
			94.2,22.5 99.7,12.7 109.3,12.7 99.4,28.8 		"/>
		<g id="Group-10" transform="translate(55.165563, 0.000000)">
			<g id="Clip-9">
			</g>
			<path id="Fill-8" class="st0" d="M64.4,28.5c0,6.1,2.1,9.2,6.3,9.2c2.1,0,3.7-0.7,4.7-2.2s1.5-3.8,1.5-6.9c0-3.2-0.5-5.5-1.6-7
				c-1-1.5-2.6-2.3-4.7-2.3C66.5,19.2,64.4,22.3,64.4,28.5 M85.8,28.5c0,5.3-1.3,9.4-3.9,12.1c-2.6,2.8-6.3,4.2-11.3,4.2
				c-4.9,0-8.6-1.4-11.2-4.2c-2.6-2.8-3.9-6.8-3.9-12.2c0-5.3,1.3-9.3,3.9-12.1c2.6-2.8,6.4-4.2,11.3-4.2c5,0,8.7,1.4,11.3,4.1
				C84.6,19.1,85.8,23.1,85.8,28.5"/>
		</g>
		<path id="Fill-11" class="st0" d="M14.9,80.5c0,2.6-1,4.7-2.9,6.3c-1.9,1.5-4.4,2.3-7.6,2.3c-3.8,0-6.7-0.4-8.8-1.3v-2.2
			c2.2,1,5.1,1.4,8.6,1.4c2.6,0,4.6-0.6,6.1-1.8c1.5-1.2,2.2-2.7,2.2-4.7c0-1.2-0.2-2.2-0.7-3s-1.3-1.5-2.4-2.2
			c-1.1-0.6-2.8-1.3-4.9-2.1c-3.2-1.1-5.4-2.3-6.6-3.6c-1.2-1.3-1.8-3-1.8-5.2c0-2.4,0.9-4.3,2.7-5.8s4.2-2.2,7-2.2
			c2.9,0,5.7,0.6,8.2,1.7L13.2,60c-2.6-1.1-5.1-1.6-7.4-1.6S1.7,58.9,0.3,60s-2,2.6-2,4.4c0,1.2,0.2,2.1,0.6,2.9
			c0.4,0.7,1.1,1.4,2.1,2s2.6,1.3,4.9,2.2c2.4,0.9,4.3,1.7,5.5,2.5s2.1,1.7,2.7,2.7C14.6,77.9,14.9,79.1,14.9,80.5"/>
		<polygon id="Fill-13" class="st0" points="30,88.7 27.8,88.7 27.8,59.1 17.7,59.1 17.7,57.1 40.1,57.1 40.1,59.1 30,59.1 		"/>
		<path id="Fill-15" class="st0" d="M47.4,73h5.9c2.6,0,4.7-0.6,6.1-1.8c1.4-1.2,2.2-2.9,2.2-5.3s-0.7-4.2-2.1-5.3
			c-1.4-1.1-3.7-1.6-6.9-1.6h-5.2V73z M47.4,74.9v13.8h-2.2V57.1h7.4c3.9,0,6.7,0.7,8.6,2.2c1.8,1.4,2.8,3.6,2.8,6.5
			c0,2.1-0.6,3.9-1.7,5.4c-1.1,1.5-2.8,2.5-5,3.1l8.5,14.4h-2.6l-8-13.8H47.4z"/>
		<path id="Fill-17" class="st0" d="M74.7,75.5h11.1l-4.2-11.4c-0.4-0.9-0.8-2.1-1.3-3.7c-0.4,1.4-0.8,2.6-1.3,3.8L74.7,75.5z
			 M86.5,77.5H73.9l-4.3,11.2h-2.4l12.5-31.8h1.4l12.3,31.8h-2.5L86.5,77.5z"/>
		<polygon id="Fill-19" class="st0" points="106.3,88.7 104.1,88.7 104.1,59.1 94,59.1 94,57.1 116.4,57.1 116.4,59.1 106.3,59.1 		
			"/>
		<path id="Fill-21" class="st0" d="M138.7,80.5c0,2.6-1,4.7-2.9,6.3c-1.9,1.5-4.4,2.3-7.6,2.3c-3.8,0-6.7-0.4-8.8-1.3v-2.2
			c2.2,1,5.1,1.4,8.6,1.4c2.6,0,4.6-0.6,6.1-1.8c1.5-1.2,2.2-2.7,2.2-4.7c0-1.2-0.2-2.2-0.7-3s-1.3-1.5-2.4-2.2
			c-1.1-0.6-2.8-1.3-4.9-2.1c-3.2-1.1-5.4-2.3-6.6-3.6c-1.2-1.3-1.8-3-1.8-5.2c0-2.4,0.9-4.3,2.7-5.8c1.8-1.5,4.2-2.2,7-2.2
			c2.9,0,5.7,0.6,8.2,1.7L137,60c-2.6-1.1-5.1-1.6-7.4-1.6c-2.3,0-4.1,0.5-5.5,1.6s-2,2.6-2,4.4c0,1.2,0.2,2.1,0.6,2.9
			c0.4,0.7,1.1,1.4,2.1,2s2.6,1.3,4.9,2.2c2.4,0.9,4.3,1.7,5.5,2.5s2.1,1.7,2.7,2.7C138.4,77.9,138.7,79.1,138.7,80.5"/>
	</g>
</g>
	</symbol>	
<use href="#main" />
</svg>
