<svg width="53" height="39" viewBox="0 0 53 39" fill="none" xmlns="http://www.w3.org/2000/svg">
<path d="M35.033 33.5162H36.2348V27.0884H35.033V33.5162ZM31.8279 33.5162H33.0298V27.0884H31.8279V33.5162ZM28.6229 33.5162H29.8247V27.0884H28.6229V33.5162ZM5.56432 27.7771C4.22888 27.7771 3.11602 28.9249 3.11602 30.3023C3.11602 31.6797 4.22888 32.8275 5.56432 32.8275C6.89975 32.8275 8.01262 31.6797 8.01262 30.3023C8.01262 28.9249 6.89975 27.7771 5.56432 27.7771ZM5.56432 31.5879C4.8966 31.5879 4.31794 31.0369 4.31794 30.3023C4.31794 29.6136 4.85208 29.0168 5.56432 29.0168C6.23203 29.0168 6.81074 29.5677 6.81074 30.3023C6.76623 30.991 6.23203 31.5879 5.56432 31.5879ZM25.4178 33.5162H26.6197V27.0884H25.4178V33.5162ZM20.9789 35.72H21.6614H40.8199C41.9772 35.72 42.9565 34.7558 42.9565 33.5162V27.0425C42.9565 25.8488 42.0217 24.8387 40.8199 24.8387H2.13672C0.979341 24.8387 0 25.8029 0 27.0425V33.5162C0 34.7099 0.934827 35.72 2.13672 35.72H20.2987H20.6379H20.9789ZM41.7101 33.5162C41.7101 34.0212 41.3095 34.4344 40.8199 34.4344H2.13672C1.64706 34.4344 1.24643 34.0212 1.24643 33.5162V27.0425C1.24643 26.5375 1.64706 26.1243 2.13672 26.1243H40.8199C41.3095 26.1243 41.7101 26.5375 41.7101 27.0425V33.5162ZM38.238 33.5162H39.4399V27.0884H38.238V33.5162ZM35.033 21.1198H36.2348V14.692H35.033V21.1198ZM38.238 21.1198H39.4399V14.692H38.238V21.1198ZM40.8199 12.4882H2.13672C0.979341 12.4882 0 13.4524 0 14.692V21.1657C0 22.3594 0.934827 23.3695 2.13672 23.3695H40.8199C41.9772 23.3695 42.9565 22.4053 42.9565 21.1657V14.692C42.912 13.4524 41.9772 12.4882 40.8199 12.4882ZM41.7101 21.1198C41.7101 21.6248 41.3095 22.038 40.8199 22.038H2.13672C1.64706 22.038 1.24643 21.6248 1.24643 21.1198V14.6461C1.24643 14.1411 1.64706 13.7279 2.13672 13.7279H40.8199C41.3095 13.7279 41.7101 14.1411 41.7101 14.6461V21.1198ZM5.56432 15.3807C4.22888 15.3807 3.11602 16.5285 3.11602 17.9059C3.11602 19.2833 4.22888 20.4311 5.56432 20.4311C6.89975 20.4311 8.01262 19.2833 8.01262 17.9059C8.01262 16.4826 6.89975 15.3807 5.56432 15.3807ZM5.56432 19.1915C4.8966 19.1915 4.31794 18.6405 4.31794 17.9059C4.31794 17.2172 4.85208 16.6204 5.56432 16.6204C6.23203 16.6204 6.81074 17.1713 6.81074 17.9059C6.76623 18.5946 6.23203 19.1456 5.56432 19.1915ZM28.6229 21.1198H29.8247V14.692H28.6229V21.1198ZM25.4178 21.1198H26.6197V14.692H25.4178V21.1198ZM31.8279 21.1198H33.0298V14.692H31.8279V21.1198ZM29.8247 2.24971H28.6229V8.67748H29.8247V2.24971ZM36.2348 2.24971H35.033V8.67748H36.2348V2.24971ZM39.4399 2.24971H38.238V8.67748H39.4399V2.24971ZM33.0298 2.24971H31.8279V8.67748H33.0298V2.24971ZM26.6197 2.24971H25.4178V8.67748H26.6197V2.24971ZM2.13672 10.8813H40.8199C41.9772 10.8813 42.9565 9.91712 42.9565 8.67748V2.20381C42.9565 1.01009 42.0217 0 40.8199 0H2.13672C0.979341 0 0 0.964173 0 2.20381V8.67748C0 9.91712 0.979341 10.8813 2.13672 10.8813ZM1.24643 2.24971C1.24643 1.74468 1.64706 1.33146 2.13672 1.33146H40.8199C41.3095 1.33146 41.7101 1.74468 41.7101 2.24971V8.72339C41.7101 9.22843 41.3095 9.64164 40.8199 9.64164H2.13672C1.64706 9.64164 1.24643 9.22843 1.24643 8.72339V2.24971ZM5.56432 7.98879C6.89975 7.98879 8.01262 6.84097 8.01262 5.4636C8.01262 4.08622 6.89975 2.9384 5.56432 2.9384C4.22888 2.9384 3.11602 4.08622 3.11602 5.4636C3.11602 6.88689 4.18437 7.98879 5.56432 7.98879ZM5.56432 4.17805C6.23203 4.17805 6.81074 4.72899 6.81074 5.4636C6.81074 6.15228 6.27655 6.74916 5.56432 6.74916C4.8966 6.74916 4.31794 6.1982 4.31794 5.4636C4.31794 4.77491 4.85208 4.17805 5.56432 4.17805Z" fill="#0076FF"/>
<path d="M33.9131 25.8397H52V37.9997H33.9131V25.8397ZM38.4348 25.8397V18.2397C38.4348 17.0303 38.9112 15.8704 39.7592 15.0153C40.6072 14.1601 41.7573 13.6797 42.9566 13.6797C44.1558 13.6797 45.3059 14.1601 46.1539 15.0153C47.0019 15.8704 47.4783 17.0303 47.4783 18.2397V25.8397H38.4348ZM42.9566 30.3997V33.4397Z" fill="#ECEFF5"/>
<path d="M42.9566 30.3997V33.4397M33.9131 25.8397H52V37.9997H33.9131V25.8397ZM38.4348 25.8397V18.2397C38.4348 17.0303 38.9112 15.8704 39.7592 15.0153C40.6072 14.1601 41.7573 13.6797 42.9566 13.6797C44.1558 13.6797 45.3059 14.1601 46.1539 15.0153C47.0019 15.8704 47.4783 17.0303 47.4783 18.2397V25.8397H38.4348Z" stroke="#0076FF" stroke-width="2" stroke-linecap="round" stroke-linejoin="round"/>
</svg>
