<svg width="50" height="41" viewBox="0 0 50 41" fill="none" xmlns="http://www.w3.org/2000/svg">
<path d="M40.7772 38.4704H42.1762V31.0925H40.7772V38.4704ZM37.0466 38.4704H38.4456V31.0925H37.0466V38.4704ZM33.3161 38.4704H34.715V31.0925H33.3161V38.4704ZM6.47668 31.883C4.92228 31.883 3.62694 33.2005 3.62694 34.7815C3.62694 36.3625 4.92228 37.6799 6.47668 37.6799C8.03109 37.6799 9.32642 36.3625 9.32642 34.7815C9.32642 33.2005 8.03109 31.883 6.47668 31.883ZM6.47668 36.2571C5.69948 36.2571 5.02594 35.6247 5.02594 34.7815C5.02594 33.991 5.64767 33.3059 6.47668 33.3059C7.25389 33.3059 7.92749 33.9383 7.92749 34.7815C7.87567 35.572 7.25389 36.2571 6.47668 36.2571ZM29.5855 38.4704H30.9845V31.0925H29.5855V38.4704ZM24.6032 41H25.0259H47.513C48.8601 41 50 39.8933 50 38.4704V31.0398C50 29.6697 48.912 28.5103 47.513 28.5103H2.48707C1.13992 28.5103 0 29.617 0 31.0398V38.4704C0 39.8406 1.08811 41 2.48707 41H23.627H24.2063H24.6032ZM48.5493 38.4704C48.5493 39.0501 48.0829 39.5244 47.513 39.5244H2.48707C1.91712 39.5244 1.4508 39.0501 1.4508 38.4704V31.0398C1.4508 30.4601 1.91712 29.9859 2.48707 29.9859H47.513C48.0829 29.9859 48.5493 30.4601 48.5493 31.0398V38.4704ZM44.5078 38.4704H45.9068V31.0925H44.5078V38.4704ZM40.7772 24.2416H42.1762V16.8638H40.7772V24.2416ZM44.5078 24.2416H45.9068V16.8638H44.5078V24.2416ZM47.513 14.3342H2.48707C1.13992 14.3342 0 15.4409 0 16.8638V24.2943C0 25.6645 1.08811 26.8239 2.48707 26.8239H47.513C48.8601 26.8239 50 25.7172 50 24.2943V16.8638C49.9482 15.4409 48.8601 14.3342 47.513 14.3342ZM48.5493 24.2416C48.5493 24.8213 48.0829 25.2956 47.513 25.2956H2.48707C1.91712 25.2956 1.4508 24.8213 1.4508 24.2416V16.811C1.4508 16.2314 1.91712 15.7571 2.48707 15.7571H47.513C48.0829 15.7571 48.5493 16.2314 48.5493 16.811V24.2416ZM6.47668 17.6542C4.92228 17.6542 3.62694 18.9717 3.62694 20.5527C3.62694 22.1337 4.92228 23.4512 6.47668 23.4512C8.03109 23.4512 9.32642 22.1337 9.32642 20.5527C9.32642 18.919 8.03109 17.6542 6.47668 17.6542ZM6.47668 22.0283C5.69948 22.0283 5.02594 21.3959 5.02594 20.5527C5.02594 19.7622 5.64767 19.0771 6.47668 19.0771C7.25389 19.0771 7.92749 19.7095 7.92749 20.5527C7.87567 21.3432 7.25389 21.9756 6.47668 22.0283ZM33.3161 24.2416H34.715V16.8638H33.3161V24.2416ZM29.5855 24.2416H30.9845V16.8638H29.5855V24.2416ZM37.0466 24.2416H38.4456V16.8638H37.0466V24.2416ZM34.715 2.58226H33.3161V9.96015H34.715V2.58226ZM42.1762 2.58226H40.7772V9.96015H42.1762V2.58226ZM45.9068 2.58226H44.5078V9.96015H45.9068V2.58226ZM38.4456 2.58226H37.0466V9.96015H38.4456V2.58226ZM30.9845 2.58226H29.5855V9.96015H30.9845V2.58226ZM2.48707 12.4897H47.513C48.8601 12.4897 50 11.383 50 9.96015V2.52957C50 1.15939 48.912 0 47.513 0H2.48707C1.13992 0 0 1.10669 0 2.52957V9.96015C0 11.383 1.13992 12.4897 2.48707 12.4897ZM1.4508 2.58226C1.4508 2.00257 1.91712 1.52827 2.48707 1.52827H47.513C48.0829 1.52827 48.5493 2.00257 48.5493 2.58226V10.0129C48.5493 10.5925 48.0829 11.0668 47.513 11.0668H2.48707C1.91712 11.0668 1.4508 10.5925 1.4508 10.0129V2.58226ZM6.47668 9.16966C8.03109 9.16966 9.32642 7.85218 9.32642 6.2712C9.32642 4.69023 8.03109 3.37275 6.47668 3.37275C4.92228 3.37275 3.62694 4.69023 3.62694 6.2712C3.62694 7.90488 4.87047 9.16966 6.47668 9.16966ZM6.47668 4.79563C7.25389 4.79563 7.92749 5.42802 7.92749 6.2712C7.92749 7.06169 7.3057 7.74679 6.47668 7.74679C5.69948 7.74679 5.02594 7.11439 5.02594 6.2712C5.02594 5.48072 5.64767 4.79563 6.47668 4.79563Z" fill="#0076FF"/>
</svg>
