<svg width="64" height="64" viewBox="0 0 64 64" fill="none" xmlns="http://www.w3.org/2000/svg">
<path d="M4 59L23.8 51.1C26.4914 51.7039 29.2417 52.0058 32 52C48.6 52 62 41.3 62 28C62 14.7 48.6 4 32 4C15.4 4 2 14.7 2 28C2 34.7 5.5 40.8 11.1 45.2L4 59Z" stroke="#0076FF" stroke-width="2" stroke-linecap="round" stroke-linejoin="round"/>
<path d="M34.0001 32.0003C34.0001 32.5308 33.7894 33.0395 33.4143 33.4146C33.0392 33.7896 32.5305 34.0003 32.0001 34.0003C31.4697 34.0003 30.961 33.7896 30.5859 33.4146C30.2108 33.0395 30.0001 32.5308 30.0001 32.0003L29.0001 17.0003C28.9519 16.5948 28.9963 16.1835 29.13 15.7976C29.2637 15.4116 29.4832 15.0611 29.772 14.7723C30.0608 14.4834 30.4114 14.2639 30.7973 14.1302C31.1833 13.9965 31.5945 13.9521 32.0001 14.0003C32.4057 13.9521 32.8169 13.9965 33.2029 14.1302C33.5888 14.2639 33.9394 14.4834 34.2282 14.7723C34.517 15.0611 34.7365 15.4116 34.8702 15.7976C35.0039 16.1835 35.0483 16.5948 35.0001 17.0003L34.0001 32.0003Z" stroke="#0076FF" stroke-width="2" stroke-linecap="round" stroke-linejoin="round"/>
<path d="M32 43C33.1046 43 34 42.1046 34 41C34 39.8954 33.1046 39 32 39C30.8954 39 30 39.8954 30 41C30 42.1046 30.8954 43 32 43Z" stroke="#0076FF" stroke-width="2" stroke-linecap="round" stroke-linejoin="round"/>
</svg>
