<?xml version="1.0" encoding="utf-8"?>
<!-- Generator: Adobe Illustrator 19.0.1, SVG Export Plug-In . SVG Version: 6.00 Build 0)  -->
<svg version="1.1" xmlns="http://www.w3.org/2000/svg" xmlns:xlink="http://www.w3.org/1999/xlink" x="0px" y="0px"
	  style="enable-background:new 0 0 150 150;" xml:space="preserve">
<symbol id="main" viewBox="0 0 150 150">

<path d="M143.5,85.4l-11.1-27.5c-0.3-2.5-1.4-12.2-2.5-16.3C124.1,18.8,97,0.2,69.3,0L69,0c-0.7,0-1.2,0-1.9,0l-0.5,0
	c-1.2,0.1-2.4,0.2-3.5,0.3C30.2,5,5.8,32.8,5.8,65.1C5.8,90,20,107.9,29,115.2V137l72,13v-23h4.8c19.7,0,22.2-6,22.2-20V96h8.3
	c4.2,0,7.8-3.3,7.8-7.5C144.2,88,144.1,86.7,143.5,85.4z M85.6,63.5c0,10.5-8.5,19.1-19.1,19.1C56,82.5,47.4,74,47.4,63.5
	c0-10.5,8.5-19.1,19.1-19.1C77,44.4,85.6,53,85.6,63.5z M136.3,90H122v17c0,11.2-0.3,14-16.2,14H95v23l-60-13v-18.4l-1.3-0.9
	C20,98.9,12,81.5,12,65.1C12,36.6,32,12,62,6.8l2-0.3v32c-12,1.5-22.3,12.1-22.3,24.9c0,13.5,10.6,24.5,23.9,25l34.6,24.3l3.4-4.9
	L74.3,87.3c10-3.3,17.5-12.7,17.5-23.8c0-12.8-9.8-23.4-21.8-24.9V6.1c24.5,0.4,49.1,17.2,54.1,37c1.1,4.3,2.3,16,2.4,16.1l0,0.6
	L138.1,88c0,0.2,0.1,0.3,0.1,0.5C138.1,89.3,137.3,90,136.3,90z"/>
	
	</symbol>	
<use href="#main" />
</svg>