<svg width="62" height="50" viewBox="0 0 62 50" fill="none" xmlns="http://www.w3.org/2000/svg">
<path d="M15 23H46.5" stroke="#0076FF" stroke-width="2" stroke-linecap="round" stroke-linejoin="round"/>
<path d="M1 49H0C0 49.5523 0.447715 50 1 50L1 49ZM61 49V50C61.5523 50 62 49.5523 62 49H61ZM1 1V0C0.447715 0 0 0.447715 0 1L1 1ZM61 1H62C62 0.447715 61.5523 0 61 0V1ZM0 13V49H2V13H0ZM1 50H61V48H1V50ZM62 49V13H60V49H62ZM61 12H1V14H61V12ZM1 2H61V0H1V2ZM60 1V13H62V1H60ZM2 13V1H0V13H2ZM7 7V9C8.10457 9 9 8.10457 9 7H7ZM7 7H5C5 8.10457 5.89543 9 7 9V7ZM7 7V5C5.89543 5 5 5.89543 5 7H7ZM7 7H9C9 5.89543 8.10457 5 7 5V7ZM14 7V9C15.1046 9 16 8.10457 16 7H14ZM14 7H12C12 8.10457 12.8954 9 14 9V7ZM14 7V5C12.8954 5 12 5.89543 12 7H14ZM14 7H16C16 5.89543 15.1046 5 14 5V7ZM21 7V9C22.1046 9 23 8.10457 23 7H21ZM21 7H19C19 8.10457 19.8954 9 21 9V7ZM21 7V5C19.8954 5 19 5.89543 19 7H21ZM21 7H23C23 5.89543 22.1046 5 21 5V7Z" fill="#0076FF"/>
<circle cx="20" cy="23" r="3" fill="white" stroke="#0076FF" stroke-width="2"/>
<path d="M15 31H46.5" stroke="#0076FF" stroke-width="2" stroke-linecap="round" stroke-linejoin="round"/>
<circle cx="31" cy="31" r="3" fill="white" stroke="#0076FF" stroke-width="2"/>
<path d="M15 39H46.5" stroke="#0076FF" stroke-width="2" stroke-linecap="round" stroke-linejoin="round"/>
<circle cx="42" cy="39" r="3" fill="white" stroke="#0076FF" stroke-width="2"/>
</svg>
