<?xml version="1.0" standalone="no"?>
<!DOCTYPE svg PUBLIC "-//W3C//DTD SVG 20010904//EN"
 "http://www.w3.org/TR/2001/REC-SVG-20010904/DTD/svg10.dtd">
<svg version="1.0" xmlns="http://www.w3.org/2000/svg"
 width="16.000000pt" height="16.000000pt" viewBox="0 0 16.000000 16.000000"
 preserveAspectRatio="xMidYMid meet">
<metadata>
Created by potrace 1.11, written by Peter Selinger 2001-2013
</metadata>
<g transform="translate(0.000000,16.000000) scale(0.002286,-0.002286)"
fill="#000000" stroke="none">
<path d="M0 3490 l0 -2620 3495 0 3495 0 0 2620 0 2620 -3495 0 -3495 0 0
-2620z m1473 1851 c43 -10 81 -22 85 -25 6 -7 -32 -174 -43 -184 -3 -3 -58 5
-122 18 -136 26 -213 23 -276 -12 -77 -44 -106 -120 -71 -193 24 -52 73 -84
226 -150 158 -67 227 -112 285 -183 113 -139 92 -372 -44 -491 -118 -104 -319
-150 -514 -116 -140 24 -229 52 -229 73 0 27 51 172 60 172 5 0 57 -12 117
-26 267 -66 433 -6 433 156 0 97 -51 142 -261 228 -161 66 -247 132 -297 227
-24 44 -27 61 -27 150 0 86 3 107 24 149 97 198 354 279 654 207z m4320 4
c164 -35 300 -142 376 -296 61 -126 75 -191 75 -349 0 -212 -32 -338 -122
-473 -100 -152 -257 -229 -467 -230 -177 0 -296 45 -406 153 -133 131 -195
319 -186 570 5 154 20 221 75 330 44 89 150 201 229 243 116 62 284 82 426 52z
m-3029 -13 c6 -10 426 -1297 426 -1306 0 -3 -58 -6 -128 -6 l-129 0 -50 158
-50 157 -228 0 -228 0 -13 -40 c-7 -22 -29 -93 -49 -157 l-36 -118 -120 0
c-103 0 -119 2 -119 16 0 9 89 296 199 638 109 341 202 631 206 644 6 22 9 22
160 22 85 0 156 -4 159 -8z m1206 -247 c69 -137 130 -248 135 -246 6 2 66 114
135 250 l125 246 123 3 c85 2 122 -1 122 -9 0 -6 -70 -142 -156 -302 -120
-224 -155 -296 -150 -316 2 -14 84 -171 180 -349 97 -177 176 -327 176 -332 0
-6 -52 -10 -134 -10 l-134 0 -139 272 c-77 149 -144 273 -151 276 -6 2 -72
-119 -149 -272 l-138 -276 -127 0 c-75 0 -128 4 -128 10 0 5 77 154 172 332
111 209 171 334 172 354 0 22 -47 113 -166 319 -92 159 -164 293 -162 297 3 5
65 7 137 6 l132 -3 125 -250z m111 -2285 c264 -49 415 -342 335 -647 -26 -96
-84 -183 -165 -244 l-34 -25 111 -24 c87 -18 112 -27 111 -39 -1 -32 -46 -136
-61 -139 -8 -2 -102 26 -209 62 -107 35 -214 67 -239 71 -157 23 -279 107
-345 236 -54 105 -68 299 -32 420 74 240 288 374 528 329z m-2821 -36 c64 -30
105 -67 129 -119 39 -84 19 -188 -50 -250 -21 -19 -44 -35 -49 -35 -20 0 -9
-15 19 -28 43 -19 98 -80 117 -128 11 -30 15 -64 12 -113 -3 -59 -9 -77 -38
-120 -75 -110 -142 -132 -422 -138 l-208 -5 0 482 0 482 223 -4 c200 -3 226
-5 267 -24z m987 -449 c84 -258 153 -473 153 -477 0 -5 -47 -8 -104 -8 l-103
0 -30 93 -29 92 -164 0 -164 0 -28 -92 -29 -93 -99 0 c-55 0 -100 3 -100 7 0
4 68 220 152 480 l152 474 120 -3 121 -3 152 -470z m654 253 c73 -123 157
-268 186 -323 l53 -100 0 323 0 322 90 0 90 0 0 -480 0 -481 -102 3 -101 3
-110 185 c-61 102 -148 252 -194 335 l-83 149 0 -337 0 -337 -90 0 -90 0 0
480 0 480 109 0 108 0 134 -222z m1931 -100 c5 -361 9 -386 74 -449 33 -32 39
-34 107 -34 88 0 128 24 161 94 20 43 21 64 24 379 l3 333 97 -3 97 -3 0 -315
c-1 -267 -4 -325 -18 -380 -44 -160 -142 -248 -305 -271 -185 -26 -342 55
-404 210 -22 54 -23 69 -26 409 l-3 352 94 0 95 0 4 -322z m1378 242 l0 -80
-185 0 -185 0 0 -110 0 -110 155 0 156 0 -3 -82 -3 -83 -152 -3 -153 -3 0
-119 0 -120 179 0 c99 0 186 -3 195 -6 13 -5 16 -22 16 -85 l0 -79 -295 0
-295 0 0 480 0 480 285 0 285 0 0 -80z"/>
<path d="M5540 5155 c-87 -28 -157 -111 -196 -232 -24 -75 -30 -318 -11 -421
41 -217 143 -316 324 -316 71 0 89 4 140 30 136 70 204 259 190 529 -8 152
-31 228 -93 316 -51 70 -118 102 -224 106 -54 2 -101 -2 -130 -12z"/>
<path d="M2565 5043 c-15 -60 -56 -206 -90 -325 l-62 -218 188 0 c104 0 189 3
189 6 0 3 -31 112 -69 242 -38 130 -80 274 -92 320 -12 45 -25 82 -29 82 -4 0
-20 -48 -35 -107z"/>
<path d="M3941 2638 c-122 -21 -201 -151 -201 -332 0 -96 18 -164 59 -226 45
-68 91 -94 171 -98 107 -6 173 38 227 153 26 55 28 70 28 175 0 105 -2 120
-28 175 -57 123 -142 173 -256 153z"/>
<path d="M970 2525 l0 -115 63 0 c109 1 177 47 177 120 0 74 -55 110 -170 110
l-70 0 0 -115z"/>
<path d="M967 2253 c-4 -3 -7 -67 -7 -141 l0 -134 94 4 c108 3 138 18 170 82
36 74 -6 154 -97 181 -52 15 -148 20 -160 8z"/>
<path d="M1951 2532 c-7 -26 -34 -117 -60 -202 l-48 -155 120 -3 c66 -1 122 0
125 3 3 2 -20 87 -51 187 -32 101 -57 188 -57 195 0 6 -4 14 -9 17 -5 3 -14
-15 -20 -42z"/>
</g>
</svg>
